<?xml version="1.0" encoding="UTF-8" standalone="no"?>
<svg
   ffdec:objectType="frame"
   height="47.65px"
   width="49.9px"
   version="1.1"
   id="svg32"
   sodipodi:docname="1.svg"
   inkscape:version="1.4 (e7c3feb1, 2024-10-09)"
   xmlns:inkscape="http://www.inkscape.org/namespaces/inkscape"
   xmlns:sodipodi="http://sodipodi.sourceforge.net/DTD/sodipodi-0.dtd"
   xmlns:xlink="http://www.w3.org/1999/xlink"
   xmlns="http://www.w3.org/2000/svg"
   xmlns:svg="http://www.w3.org/2000/svg"
   xmlns:ffdec="https://www.free-decompiler.com/flash">
  <sodipodi:namedview
     id="namedview32"
     pagecolor="#505050"
     bordercolor="#ffffff"
     borderopacity="1"
     inkscape:showpageshadow="0"
     inkscape:pageopacity="0"
     inkscape:pagecheckerboard="1"
     inkscape:deskcolor="#505050"
     inkscape:zoom="3.508687"
     inkscape:cx="-1.5675379"
     inkscape:cy="2.5650621"
     inkscape:window-width="1680"
     inkscape:window-height="889"
     inkscape:window-x="0"
     inkscape:window-y="31"
     inkscape:window-maximized="1"
     inkscape:current-layer="g5" />
  <g
     transform="matrix(1.0, 0.0, 0.0, 1.0, 1.8, 1.6)"
     id="g5">
    <filter
       id="filter0"
       x="-0.029513924"
       y="-0.028036569"
       width="1.0729326"
       height="1.0538368">
      <feOffset
         dx="1.41423199166404"
         dy="1.4141951328419862"
         in="SourceGraphic"
         result="filterResult0"
         id="feOffset1" />
      <feColorMatrix
         in="filterResult0"
         result="filterResult1"
         type="matrix"
         values="0 0 0 0 0.0,0 0 0 0 0.0,0 0 0 0 0.0,0 0 0 1 0"
         id="feColorMatrix1" />
      <feColorMatrix
         in="filterResult1"
         result="filterResult2"
         type="matrix"
         values="1 0 0 0 0,0 1 0 0 0,0 0 1 0 0,0 0 0 0.19921875 0"
         id="feColorMatrix2" />
      <feComposite
         in="SourceGraphic"
         in2="filterResult2"
         operator="over"
         result="filterResult3"
         id="feComposite2" />
    </filter>
    <g
       id="use2"
       transform="matrix(-0.35,0,0,-0.35,21.8995,19.8494)"
       style="filter:url(#filter0)">
      <g
         id="use34">
        <path
           d="m -34.4,-2.8 8.1,-6.7 7.55,10.1 -5,6.9 q -5.85,8.1 -8.95,14.3 -1.45,3 -2.45,8.2 l -1.25,7.95 q -1.75,8.25 -7.75,6.85 -6.6,-1.65 -5.65,-15.25 0.7,-11 4.6,-19.5 2.35,-5.1 10.8,-12.85"
           fill="#bf7926"
           fill-rule="evenodd"
           stroke="none"
           id="path35" />
        <path
           d="m -34.15,-3.2 8.1,-6.7 7.6,10.05 -5.05,6.95 q -5.85,8.1 -8.9,14.3 -1.5,2.95 -2.4,8.1 -8.4,-0.05 -14.85,1.85 l 0.1,-2.2 q 0.7,-11 4.6,-19.5 2.35,-5.1 10.8,-12.85"
           fill="#137bf0"
           fill-rule="evenodd"
           stroke="none"
           id="path36" />
        <path
           d="m -34.5,-2.9 q -8.45,7.75 -10.8,12.8 -3.9,8.5 -4.6,19.55 L -50,31.7 q -0.25,11.45 5.85,12.95 5.9,1.45 7.7,-6.8 l 1.25,-7.95 0.05,-0.1 0.45,-2.25 0.55,-2.15 1.4,-3.65 q 3.1,-6.25 8.9,-14.4 L -18.8,0.5 -26.4,-9.6 Z"
           fill="none"
           stroke="#102c4d"
           stroke-linecap="round"
           stroke-linejoin="round"
           stroke-width="3"
           id="path37" />
        <path
           d="m 42.3,1.6 q 0,10.95 -16.45,10.8 -8.9,-0.1 -25.1,-2.5 -5.8,0 -25.65,2.5 -16.9,0.15 -16.9,-10.8 0,-24.25 5.5,-38.35 Q -26.5,-62 0.25,-62 q 26.8,0 36.6,25.25 5.45,14.1 5.45,38.35 z"
           fill="none"
           stroke="#9f0101"
           stroke-linecap="round"
           stroke-linejoin="round"
           stroke-width="6"
           id="path38" />
        <path
           d="m 42.3,1.6 q 0,10.95 -16.45,10.8 -8.9,-0.1 -25.1,-2.5 -5.8,0 -25.65,2.5 -16.9,0.15 -16.9,-10.8 0,-24.25 5.5,-38.35 Q -26.5,-62 0.25,-62 q 26.8,0 36.6,25.25 5.45,14.1 5.45,38.35"
           fill="#ff0000"
           fill-rule="evenodd"
           stroke="none"
           id="path39" />
        <path
           d="m 0.3,-51.05 q 26.75,0 36.55,27.65 3.9,11 5,27.6 -2.25,8.35 -15.95,8.2 -8.85,-0.1 -25.1,-2.75 -5.85,0 -25.7,2.75 -14.05,0.15 -16.4,-8.2 1.15,-16.6 5.05,-27.6 9.75,-27.65 36.55,-27.65"
           fill="#cd0303"
           fill-rule="evenodd"
           stroke="none"
           id="path40" />
        <path
           d="m 17.5,-32.95 -35.15,0.05 -3.7,-12.95 21.15,-11.95 q 10.65,6.05 21.3,12 l -3.6,12.85"
           fill="#ffcc00"
           fill-rule="evenodd"
           stroke="none"
           id="path41" />
        <path
           d="m 18.9,-47 2.25,1.25 -0.15,0.75 -3.5,12 -35.1,0.15 -3.65,-12.95 1.45,-0.85 1.85,-1.05 -1.2,0.55 Q -10.8,-51 0.3,-51 9,-51 16.15,-48.55 L 18.9,-47"
           fill="#cd960d"
           fill-rule="evenodd"
           stroke="none"
           id="path42" />
        <path
           d="m 16.15,-48.55 -0.1,-0.05 q 1,0.25 2,0.7 l 0.85,0.9 -2.75,-1.55"
           fill="#cd960d"
           fill-rule="evenodd"
           stroke="none"
           id="path43" />
        <path
           d="m 8.75,-37.95 -8.85,0.6 q -11.6,-0.05 -10.1,-4.2 0.75,-1.95 4.35,-2.75 -6,-0.55 -4.8,-2.8 1.05,-1.9 7.75,-2.25 h 0.05 l 6.1,-0.05 H 4.1 l 6.15,11.45 h -1.5 m -5.7,-7.6 -1.15,-3.25 -4.1,0.1 q -4.75,0.25 -5.2,1.6 -0.55,1.75 5.15,1.8 l 5.3,-0.25 m -3.2,6.6 5.4,-0.25 -1.65,-4.85 -4.15,0.05 q -5.45,0.35 -5.85,2.45 -0.45,2.5 6.25,2.6"
           fill="#ff0000"
           fill-rule="evenodd"
           stroke="none"
           id="path44" />
        <path
           d="m 8.75,-37.95 -8.85,0.6 q -11.6,-0.05 -10.1,-4.2 0.75,-1.95 4.35,-2.75 -6,-0.55 -4.8,-2.8 1.05,-1.9 7.75,-2.25 h 0.05 l 6.1,-0.05 H 4.1 l 6.15,11.45 h -1.5 m -8.9,-1 q -6.7,-0.1 -6.25,-2.6 0.4,-2.1 5.85,-2.45 l 4.15,-0.05 1.65,4.85 -5.4,0.25 m 3.2,-6.6 -5.3,0.25 q -5.7,-0.05 -5.15,-1.8 0.45,-1.35 5.2,-1.6 l 4.1,-0.1 z"
           ffdec:has-small-stroke="true"
           ffdec:original-stroke-width="1.0"
           fill="none"
           stroke="#ff0000"
           stroke-linecap="butt"
           stroke-linejoin="miter-clip"
           stroke-miterlimit="3"
           stroke-width="2.85722"
           id="path45" />
        <path
           d="m 17.5,-32.95 -35.15,0.05 -3.7,-12.95 21.15,-11.95 q 10.65,6.05 21.3,12 z"
           ffdec:has-small-stroke="true"
           ffdec:original-stroke-width="2.0"
           fill="none"
           stroke="#856301"
           stroke-linecap="butt"
           stroke-linejoin="miter-clip"
           stroke-miterlimit="3"
           stroke-width="2.85722"
           id="path46" />
        <path
           d="m -48.05,14.25 q -2.25,-2.3 -2.15,-9.3 0.15,-6.9 2.15,-8.95 1.5,-1.45 8.3,-1.05 l 0.35,-1.05 q 3.05,-9.1 9,-15.05 6.1,-6.15 14.1,-9.3 7.8,-3.15 16.7,-3.15 8.9,0 16.7,3.15 7.95,3.15 14.1,9.3 5.95,5.95 8.95,15.05 l 0.3,1.1 q 7.35,-0.5 8.9,1 2.05,2.05 2.15,8.95 0.1,7 -2.15,9.3 -1.5,1.5 -6.9,1.4 -1.45,7.4 -8.6,12.35 -4.5,3.1 -10.9,5 -1.1,2.25 -6.35,4 -6.7,2.25 -16.2,2.25 -9.5,0 -16.2,-2.25 -5.2,-1.7 -6.4,-4 -6.4,-1.9 -10.9,-5 -7.1,-4.95 -8.6,-12.35 -4.85,0.05 -6.35,-1.4 z"
           fill="none"
           stroke="#102c4d"
           stroke-linecap="round"
           stroke-linejoin="round"
           stroke-width="6"
           id="path47" />
        <path
           d="m 39.25,-4.9 -8.15,0.95 v 18.2 l 7.95,1.2 q 8.3,0.8 10.3,-1.2 Q 51.6,12 51.5,4.95 51.4,-1.9 49.35,-3.95 47.7,-5.6 39.25,-4.9"
           fill="#137bf0"
           fill-rule="evenodd"
           stroke="none"
           id="path48" />
        <path
           d="M 49.8,12.15 Q 49.65,5.3 47.65,3.25 46,1.65 37.55,2.3 L 31.1,3 v 11.25 l 7.95,1.2 q 8.3,0.8 10.3,-1.2 l 0.45,-0.5 v -1.6"
           fill="#bf7926"
           fill-rule="evenodd"
           stroke="none"
           id="path49" />
        <path
           d="m -37.9,-4.9 8.15,0.95 v 18.2 l -7.95,1.2 q -8.3,0.8 -10.3,-1.2 -2.25,-2.25 -2.15,-9.3 0.1,-6.85 2.15,-8.9 1.65,-1.65 10.1,-0.95"
           fill="#137bf0"
           fill-rule="evenodd"
           stroke="none"
           id="path50" />
        <path
           d="m -48.45,12.15 q 0.15,-6.85 2.15,-8.9 1.65,-1.6 10.1,-0.95 l 6.45,0.7 v 11.25 l -7.95,1.2 q -8.3,0.8 -10.3,-1.2 l -0.45,-0.5 v -1.6"
           fill="#bf7926"
           fill-rule="evenodd"
           stroke="none"
           id="path51" />
        <path
           d="m -39.35,-6.05 q -2.7,8.2 -2.7,17.6 0,10.15 9,16.45 11.05,7.7 33.5,7.7 22.4,0 33.45,-7.7 9,-6.3 9,-16.45 0,-9.4 -2.7,-17.6 -3,-9.15 -8.95,-15.05 -6.15,-6.2 -14.1,-9.35 -7.85,-3.1 -16.7,-3.1 -8.9,0 -16.7,3.1 -8,3.15 -14.15,9.35 -5.95,5.9 -8.95,15.05"
           fill="#137bf0"
           fill-rule="evenodd"
           stroke="none"
           id="path52" />
        <path
           d="m -39.35,-6.05 q -2.7,8.2 -2.7,17.6 0,10.15 9,16.45 11.05,7.7 33.5,7.7 22.4,0 33.45,-7.7 9,-6.3 9,-16.45 0,-9.4 -2.7,-17.6 -3,-9.15 -8.95,-15.05 -6.15,-6.2 -14.1,-9.35 -7.85,-3.1 -16.7,-3.1 -8.9,0 -16.7,3.1 -8,3.15 -14.15,9.35 -5.95,5.9 -8.95,15.05 z"
           ffdec:has-small-stroke="true"
           ffdec:original-stroke-width="1.0"
           fill="none"
           stroke="#102c4d"
           stroke-linecap="round"
           stroke-linejoin="round"
           stroke-width="2.85722"
           id="path53" />
        <path
           d="m -16.1,-24.15 q 3.15,-3.55 6.75,-6.25 l -4.4,1.4 q -7.95,3.05 -14.1,8.9 -5.95,5.65 -8.95,14.35 -2.75,7.85 -2.75,16.75 0,9.7 9.05,15.7 4.8,3.2 11.75,5 -9,-7.2 -9,-18.75 0,-10.7 2.7,-20 3,-10.4 8.95,-17.1"
           fill="#0d5eb8"
           fill-rule="evenodd"
           stroke="none"
           id="path54" />
        <path
           d="m 22.1,-26 4,3.6 q 5.95,5.9 9,15.05 2.7,8.2 2.7,17.6 0,10.2 -9.05,16.45 l -0.1,0.1 Q 31.2,21 31.2,13.75 31.2,1.2 28.55,-9.7 26.2,-19.15 22.1,-26"
           fill="#ffffff"
           fill-rule="evenodd"
           stroke="none"
           id="path55" />
        <path
           d="M 38.6,19.4 Q 34.05,26.6 24.75,30 l -1.3,0.45 -0.15,1.2 q 0,3.15 -6.65,5.35 -6.7,2.3 -16.2,2.3 -9.5,0 -16.2,-2.3 -6.7,-2.2 -6.7,-5.35 l -0.1,-1.15 -1.3,-0.5 q -4.55,-1.8 -8.15,-4.55 -3.4,-2.6 -5.45,-5.65 1.95,-1.25 4.35,-2.5 4.8,-2.45 9.25,-3.1 4.2,-0.65 12.3,2.05 8.85,2.95 12,2.95 3.35,0 12.05,-3 7.95,-2.75 12.25,-2.2 4.3,0.65 9.35,3 l 4.5,2.4"
           fill="#a35d0d"
           fill-rule="evenodd"
           stroke="none"
           id="path56" />
        <path
           d="m 25.85,23.4 q -1,-1 -2.45,-1 -1.4,0 -2.45,1 -1,1.05 -1,2.45 0,1.45 1,2.45 1.05,1.05 2.45,1.05 1.45,0 2.45,-1.05 1.05,-1 1.05,-2.45 0,-1.4 -1.05,-2.45"
           fill="#000000"
           fill-rule="evenodd"
           stroke="none"
           id="path57" />
        <path
           d="m -20.2,23.4 q -1,-1 -2.45,-1 -1.4,0 -2.45,1 -1,1.05 -1,2.45 0,1.45 1,2.45 1.05,1.05 2.45,1.05 1.45,0 2.45,-1.05 1.05,-1 1.05,-2.45 0,-1.4 -1.05,-2.45"
           fill="#000000"
           fill-rule="evenodd"
           stroke="none"
           id="path58" />
        <path
           d="m -22.35,30.35 q 9.1,-5.05 21.5,-5.7 15,0.6 23.95,5.85 l 0.35,0.2 v 0.05 l -0.15,0.9 q 0,3.15 -6.7,5.35 -6.7,2.25 -16.2,2.25 -9.45,0 -16.2,-2.25 -6.7,-2.2 -6.7,-5.35 l -0.15,-1.1 0.3,-0.2"
           fill="#bf7926"
           fill-rule="evenodd"
           stroke="none"
           id="path59" />
      </g>
    </g>
    <filter
       id="filter1"
       x="0"
       y="0"
       width="1"
       height="1">
      <feColorMatrix
         in="SourceGraphic"
         result="filterResult4"
         type="matrix"
         values="0 0 0 0 0.2,0 0 0 0 0.2,0 0 0 0 0.2,0 0 0 1 0"
         id="feColorMatrix3" />
      <feConvolveMatrix
         divisor="9.0"
         in="filterResult4"
         kernelMatrix="1 1 1 1 1 1 1 1 1"
         order="3 3"
         result="filterResult5"
         id="feConvolveMatrix3" />
      <feConvolveMatrix
         divisor="9.0"
         in="filterResult5"
         kernelMatrix="1 1 1 1 1 1 1 1 1"
         order="3 3"
         result="filterResult6"
         id="feConvolveMatrix4" />
      <feConvolveMatrix
         divisor="9.0"
         in="filterResult6"
         kernelMatrix="1 1 1 1 1 1 1 1 1"
         order="3 3"
         result="filterResult7"
         id="feConvolveMatrix5" />
      <feComposite
         in="SourceGraphic"
         in2="filterResult7"
         operator="over"
         result="filterResult8"
         id="feComposite5" />
    </filter>
  </g>
  <defs
     id="defs32">
    <g
       id="shape0"
       transform="matrix(1.0, 0.0, 0.0, 1.0, 1.25, 1.05)">
      <path
         d="M42.55 43.05 L1.45 44.5 -0.25 0.0 46.45 3.0 42.55 43.05"
         fill="#ffffff"
         fill-opacity="0.49803922"
         fill-rule="evenodd"
         stroke="none"
         id="path5" />
      <path
         d="M42.55 43.05 L1.45 44.5 -0.25 0.0 46.45 3.0 42.55 43.05 Z"
         fill="none"
         stroke="#000000"
         stroke-linecap="butt"
         stroke-linejoin="miter-clip"
         stroke-miterlimit="3.0"
         stroke-opacity="0.49803922"
         stroke-width="2.0"
         id="path6" />
    </g>
    <g
       id="sprite0"
       transform="matrix(1.0, 0.0, 0.0, 1.0, 53.2, 65.0)">
      <use
         ffdec:characterId="5070"
         height="111.35"
         transform="matrix(1.0, 0.0, 0.0, 1.0, -53.2, -65.0)"
         width="107.7"
         xlink:href="#shape1"
         id="use6" />
    </g>
    <g
       id="shape1"
       transform="matrix(1.0, 0.0, 0.0, 1.0, 53.2, 65.0)">
      <path
         d="M-34.4 -2.8 L-26.3 -9.5 -18.75 0.6 -23.75 7.5 Q-29.6 15.6 -32.7 21.8 -34.15 24.8 -35.15 30.0 L-36.4 37.95 Q-38.15 46.2 -44.15 44.8 -50.75 43.15 -49.8 29.55 -49.1 18.55 -45.2 10.05 -42.85 4.95 -34.4 -2.8"
         fill="#bf7926"
         fill-rule="evenodd"
         stroke="none"
         id="path7" />
      <path
         d="M-34.15 -3.2 L-26.05 -9.9 -18.45 0.15 -23.5 7.1 Q-29.35 15.2 -32.4 21.4 -33.9 24.35 -34.8 29.5 -43.2 29.45 -49.65 31.35 L-49.55 29.15 Q-48.85 18.15 -44.95 9.65 -42.6 4.55 -34.15 -3.2"
         fill="#137bf0"
         fill-rule="evenodd"
         stroke="none"
         id="path8" />
      <path
         d="M-34.5 -2.9 Q-42.95 4.85 -45.3 9.9 -49.2 18.4 -49.9 29.45 L-50.0 31.7 Q-50.25 43.15 -44.15 44.65 -38.25 46.1 -36.45 37.85 L-35.2 29.9 -35.15 29.8 -34.7 27.55 -34.15 25.4 -32.75 21.75 Q-29.65 15.5 -23.85 7.35 L-18.8 0.5 -26.4 -9.6 -34.5 -2.9 Z"
         fill="none"
         stroke="#102c4d"
         stroke-linecap="round"
         stroke-linejoin="round"
         stroke-width="3.0"
         id="path9" />
      <path
         d="M42.3 1.6 Q42.3 12.55 25.85 12.4 16.95 12.3 0.75 9.9 -5.05 9.9 -24.9 12.4 -41.8 12.55 -41.8 1.6 -41.8 -22.65 -36.3 -36.75 -26.5 -62.0 0.25 -62.0 27.05 -62.0 36.85 -36.75 42.3 -22.65 42.3 1.6 Z"
         fill="none"
         stroke="#9f0101"
         stroke-linecap="round"
         stroke-linejoin="round"
         stroke-width="6.0"
         id="path10" />
      <path
         d="M42.3 1.6 Q42.3 12.55 25.85 12.4 16.95 12.3 0.75 9.9 -5.05 9.9 -24.9 12.4 -41.8 12.55 -41.8 1.6 -41.8 -22.65 -36.3 -36.75 -26.5 -62.0 0.25 -62.0 27.05 -62.0 36.85 -36.75 42.3 -22.65 42.3 1.6"
         fill="#ff0000"
         fill-rule="evenodd"
         stroke="none"
         id="path11" />
      <path
         d="M0.3 -51.05 Q27.05 -51.05 36.85 -23.4 40.75 -12.4 41.85 4.2 39.6 12.55 25.9 12.4 17.05 12.3 0.8 9.65 -5.05 9.65 -24.9 12.4 -38.95 12.55 -41.3 4.2 -40.15 -12.4 -36.25 -23.4 -26.5 -51.05 0.3 -51.05"
         fill="#cd0303"
         fill-rule="evenodd"
         stroke="none"
         id="path12" />
      <path
         d="M17.5 -32.95 L-17.65 -32.9 -21.35 -45.85 -0.2 -57.8 Q10.45 -51.75 21.1 -45.8 L17.5 -32.95"
         fill="#ffcc00"
         fill-rule="evenodd"
         stroke="none"
         id="path13" />
      <path
         d="M18.9 -47.0 L21.15 -45.75 21.0 -45.0 17.5 -33.0 -17.6 -32.85 -21.25 -45.8 -19.8 -46.65 -17.95 -47.7 -19.15 -47.15 Q-10.8 -51.0 0.3 -51.0 9.0 -51.0 16.15 -48.55 L18.9 -47.0"
         fill="#cd960d"
         fill-rule="evenodd"
         stroke="none"
         id="path14" />
      <path
         d="M16.15 -48.55 L16.05 -48.6 Q17.05 -48.35 18.05 -47.9 L18.9 -47.0 16.15 -48.55"
         fill="#cd960d"
         fill-rule="evenodd"
         stroke="none"
         id="path15" />
      <path
         d="M8.75 -37.95 L-0.1 -37.35 Q-11.7 -37.4 -10.2 -41.55 -9.45 -43.5 -5.85 -44.3 -11.85 -44.85 -10.65 -47.1 -9.6 -49.0 -2.9 -49.35 L-2.85 -49.35 3.25 -49.4 4.1 -49.4 10.25 -37.95 8.75 -37.95 M3.05 -45.55 L1.9 -48.8 -2.2 -48.7 Q-6.95 -48.45 -7.4 -47.1 -7.95 -45.35 -2.25 -45.3 L3.05 -45.55 M-0.15 -38.95 L5.25 -39.2 3.6 -44.05 -0.55 -44.0 Q-6.0 -43.65 -6.4 -41.55 -6.85 -39.05 -0.15 -38.95"
         fill="#ff0000"
         fill-rule="evenodd"
         stroke="none"
         id="path16" />
      <path
         d="M8.75 -37.95 L-0.1 -37.35 Q-11.7 -37.4 -10.2 -41.55 -9.45 -43.5 -5.85 -44.3 -11.85 -44.85 -10.65 -47.1 -9.6 -49.0 -2.9 -49.35 L-2.85 -49.35 3.25 -49.4 4.1 -49.4 10.25 -37.95 8.75 -37.95 M-0.15 -38.95 Q-6.85 -39.05 -6.4 -41.55 -6.0 -43.65 -0.55 -44.0 L3.6 -44.05 5.25 -39.2 -0.15 -38.95 M3.05 -45.55 L-2.25 -45.3 Q-7.95 -45.35 -7.4 -47.1 -6.95 -48.45 -2.2 -48.7 L1.9 -48.8 3.05 -45.55 Z"
         ffdec:has-small-stroke="true"
         ffdec:original-stroke-width="1.0"
         fill="none"
         stroke="#ff0000"
         stroke-linecap="butt"
         stroke-linejoin="miter-clip"
         stroke-miterlimit="3.0"
         stroke-width="2.857217596023892"
         id="path17" />
      <path
         d="M17.5 -32.95 L-17.65 -32.9 -21.35 -45.85 -0.2 -57.8 Q10.45 -51.75 21.1 -45.8 L17.5 -32.95 Z"
         ffdec:has-small-stroke="true"
         ffdec:original-stroke-width="2.0"
         fill="none"
         stroke="#856301"
         stroke-linecap="butt"
         stroke-linejoin="miter-clip"
         stroke-miterlimit="3.0"
         stroke-width="2.857217596023892"
         id="path18" />
      <path
         d="M-48.05 14.25 Q-50.3 11.95 -50.2 4.95 -50.05 -1.95 -48.05 -4.0 -46.55 -5.45 -39.75 -5.05 L-39.4 -6.1 Q-36.35 -15.2 -30.4 -21.15 -24.3 -27.3 -16.3 -30.45 -8.5 -33.6 0.4 -33.6 9.3 -33.6 17.1 -30.45 25.05 -27.3 31.2 -21.15 37.15 -15.2 40.15 -6.1 L40.45 -5.0 Q47.8 -5.5 49.35 -4.0 51.4 -1.95 51.5 4.95 51.6 11.95 49.35 14.25 47.85 15.75 42.45 15.65 41.0 23.05 33.85 28.0 29.35 31.1 22.95 33.0 21.85 35.25 16.6 37.0 9.9 39.25 0.4 39.25 -9.1 39.25 -15.8 37.0 -21.0 35.3 -22.2 33.0 -28.6 31.1 -33.1 28.0 -40.2 23.05 -41.7 15.65 -46.55 15.7 -48.05 14.25 Z"
         fill="none"
         stroke="#102c4d"
         stroke-linecap="round"
         stroke-linejoin="round"
         stroke-width="6.0"
         id="path19" />
      <path
         d="M39.25 -4.9 L31.1 -3.95 31.1 14.25 39.05 15.45 Q47.35 16.25 49.35 14.25 51.6 12.0 51.5 4.95 51.4 -1.9 49.35 -3.95 47.7 -5.6 39.25 -4.9"
         fill="#137bf0"
         fill-rule="evenodd"
         stroke="none"
         id="path20" />
      <path
         d="M49.8 12.15 Q49.65 5.3 47.65 3.25 46.0 1.65 37.55 2.3 L31.1 3.0 31.1 14.25 39.05 15.45 Q47.35 16.25 49.35 14.25 L49.8 13.75 49.8 12.15"
         fill="#bf7926"
         fill-rule="evenodd"
         stroke="none"
         id="path21" />
      <path
         d="M-37.9 -4.9 L-29.75 -3.95 -29.75 14.25 -37.7 15.45 Q-46.0 16.25 -48.0 14.25 -50.25 12.0 -50.15 4.95 -50.05 -1.9 -48.0 -3.95 -46.35 -5.6 -37.9 -4.9"
         fill="#137bf0"
         fill-rule="evenodd"
         stroke="none"
         id="path22" />
      <path
         d="M-48.45 12.15 Q-48.3 5.3 -46.3 3.25 -44.65 1.65 -36.2 2.3 L-29.75 3.0 -29.75 14.25 -37.7 15.45 Q-46.0 16.25 -48.0 14.25 L-48.45 13.75 -48.45 12.15"
         fill="#bf7926"
         fill-rule="evenodd"
         stroke="none"
         id="path23" />
      <path
         d="M-39.35 -6.05 Q-42.05 2.15 -42.05 11.55 -42.05 21.7 -33.05 28.0 -22.0 35.7 0.45 35.7 22.85 35.7 33.9 28.0 42.9 21.7 42.9 11.55 42.9 2.15 40.2 -6.05 37.2 -15.2 31.25 -21.1 25.1 -27.3 17.15 -30.45 9.3 -33.55 0.45 -33.55 -8.45 -33.55 -16.25 -30.45 -24.25 -27.3 -30.4 -21.1 -36.35 -15.2 -39.35 -6.05"
         fill="#137bf0"
         fill-rule="evenodd"
         stroke="none"
         id="path24" />
      <path
         d="M-39.35 -6.05 Q-42.05 2.15 -42.05 11.55 -42.05 21.7 -33.05 28.0 -22.0 35.7 0.45 35.7 22.85 35.7 33.9 28.0 42.9 21.7 42.9 11.55 42.9 2.15 40.2 -6.05 37.2 -15.2 31.25 -21.1 25.1 -27.3 17.15 -30.45 9.3 -33.55 0.45 -33.55 -8.45 -33.55 -16.25 -30.45 -24.25 -27.3 -30.4 -21.1 -36.35 -15.2 -39.35 -6.05 Z"
         ffdec:has-small-stroke="true"
         ffdec:original-stroke-width="1.0"
         fill="none"
         stroke="#102c4d"
         stroke-linecap="round"
         stroke-linejoin="round"
         stroke-width="2.857217596023892"
         id="path25" />
      <path
         d="M-16.1 -24.15 Q-12.95 -27.7 -9.35 -30.4 L-13.75 -29.0 Q-21.7 -25.95 -27.85 -20.1 -33.8 -14.45 -36.8 -5.75 -39.55 2.1 -39.55 11.0 -39.55 20.7 -30.5 26.7 -25.7 29.9 -18.75 31.7 -27.75 24.5 -27.75 12.95 -27.75 2.25 -25.05 -7.05 -22.05 -17.45 -16.1 -24.15"
         fill="#0d5eb8"
         fill-rule="evenodd"
         stroke="none"
         id="path26" />
      <path
         d="M22.1 -26.0 L26.1 -22.4 Q32.05 -16.5 35.1 -7.35 37.8 0.85 37.8 10.25 37.8 20.45 28.75 26.7 L28.65 26.8 Q31.2 21.0 31.2 13.75 31.2 1.2 28.55 -9.7 26.2 -19.15 22.1 -26.0"
         fill="#ffffff"
         fill-rule="evenodd"
         stroke="none"
         id="path27" />
      <path
         d="M38.6 19.4 Q34.05 26.6 24.75 30.0 L23.45 30.45 23.3 31.65 Q23.3 34.8 16.65 37.0 9.95 39.3 0.45 39.3 -9.05 39.3 -15.75 37.0 -22.45 34.8 -22.45 31.65 L-22.55 30.5 -23.85 30.0 Q-28.4 28.2 -32.0 25.45 -35.4 22.85 -37.45 19.8 -35.5 18.55 -33.1 17.3 -28.3 14.85 -23.85 14.2 -19.65 13.55 -11.55 16.25 -2.7 19.2 0.45 19.2 3.8 19.2 12.5 16.2 20.45 13.45 24.75 14.0 29.05 14.65 34.1 17.0 L38.6 19.4"
         fill="#a35d0d"
         fill-rule="evenodd"
         stroke="none"
         id="path28" />
      <path
         d="M25.85 23.4 Q24.85 22.4 23.4 22.4 22.0 22.4 20.95 23.4 19.95 24.45 19.95 25.85 19.95 27.3 20.95 28.3 22.0 29.35 23.4 29.35 24.85 29.35 25.85 28.3 26.9 27.3 26.9 25.85 26.9 24.45 25.85 23.4"
         fill="#000000"
         fill-rule="evenodd"
         stroke="none"
         id="path29" />
      <path
         d="M-20.2 23.4 Q-21.2 22.4 -22.65 22.4 -24.05 22.4 -25.1 23.4 -26.1 24.45 -26.1 25.85 -26.1 27.3 -25.1 28.3 -24.05 29.35 -22.65 29.35 -21.2 29.35 -20.2 28.3 -19.15 27.3 -19.15 25.85 -19.15 24.45 -20.2 23.4"
         fill="#000000"
         fill-rule="evenodd"
         stroke="none"
         id="path30" />
      <path
         d="M-22.35 30.35 Q-13.25 25.3 -0.85 24.65 14.15 25.25 23.1 30.5 L23.45 30.7 23.45 30.75 23.3 31.65 Q23.3 34.8 16.6 37.0 9.9 39.25 0.4 39.25 -9.05 39.25 -15.8 37.0 -22.5 34.8 -22.5 31.65 L-22.65 30.55 -22.35 30.35"
         fill="#bf7926"
         fill-rule="evenodd"
         stroke="none"
         id="path31" />
    </g>
    <g
       id="sprite1"
       transform="matrix(1.0, 0.0, 0.0, 1.0, 0.0, 0.0)">
      <use
         ffdec:characterId="5057"
         height="31.1"
         transform="matrix(1.0, 0.0, 0.0, 1.0, 0.0, 0.0)"
         width="19.35"
         xlink:href="#shape2"
         id="use31" />
    </g>
    <g
       id="shape2"
       transform="matrix(1.0, 0.0, 0.0, 1.0, 0.0, 0.0)">
      <path
         d="M7.1 23.35 L9.65 22.45 10.2 22.45 Q10.9 22.65 11.2 22.95 L12.15 23.8 12.7 24.5 12.7 29.6 Q12.7 30.15 12.1 30.45 10.75 31.1 8.05 31.1 7.15 31.1 6.05 29.7 5.0 28.4 5.0 27.35 5.0 26.1 5.3 25.3 5.75 24.05 7.1 23.35 M10.65 10.2 Q10.95 6.7 11.7 5.1 L11.2 5.1 9.3 6.2 6.65 7.95 Q3.15 10.3 2.25 10.3 1.3 10.3 0.6 8.8 0.0 7.5 0.0 6.4 L0.0 6.15 Q0.15 5.45 0.45 5.1 L2.95 1.95 Q4.85 0.0 6.45 0.0 L7.6 0.0 9.45 0.1 12.2 0.25 16.8 0.5 Q17.8 1.2 18.6 2.75 19.35 4.3 19.35 5.6 L19.35 6.15 18.6 9.2 17.8 12.3 Q17.55 13.45 15.95 14.0 L13.25 14.8 12.45 15.1 11.95 15.35 11.95 18.9 11.5 19.1 9.8 19.6 6.6 20.45 5.55 20.5 5.55 15.8 10.65 10.2"
         fill="#cccccc"
         fill-rule="evenodd"
         stroke="none"
         id="path32" />
    </g>
  </defs>
</svg>
