<?xml version="1.0" encoding="UTF-8" standalone="no"?>
<svg xmlns:ffdec="https://www.free-decompiler.com/flash" xmlns:xlink="http://www.w3.org/1999/xlink" ffdec:objectType="frame" height="465.3px" width="662.1px" xmlns="http://www.w3.org/2000/svg">
  <g transform="matrix(1.0, 0.0, 0.0, 1.0, 24.75, 10.25)">
    <use ffdec:characterId="8237" height="465.3" transform="matrix(1.0, 0.0, 0.0, 1.0, -24.75, -10.25)" width="662.1" xlink:href="#shape0"/>
  </g>
  <defs>
    <g id="shape0" transform="matrix(1.0, 0.0, 0.0, 1.0, 24.75, 10.25)">
      <path d="M513.7 -0.85 Q513.8 -4.85 516.75 -7.6 519.65 -10.35 523.65 -10.25 527.6 -10.15 530.35 -7.2 533.1 -4.3 533.0 -0.3 532.55 15.8 533.65 35.35 535.6 72.85 542.45 89.05 L542.45 89.0 Q546.05 96.75 555.7 105.85 563.6 113.2 578.1 123.7 L578.1 123.75 601.4 140.8 601.75 141.05 Q615.15 151.55 619.7 158.65 634.4 180.7 636.85 201.7 L636.85 201.75 Q640.05 229.2 621.9 247.2 613.85 256.25 586.8 259.75 L564.3 261.85 564.2 261.85 540.3 263.5 540.25 263.5 Q511.45 265.7 495.4 270.35 L495.4 270.4 Q476.3 275.9 468.85 286.7 461.4 298.3 459.6 312.05 L459.55 312.05 Q458.4 321.0 459.2 338.25 L459.2 338.3 Q460.05 357.75 458.65 367.4 456.25 384.85 446.45 399.2 435.95 414.6 419.5 424.4 L419.45 424.45 Q401.95 435.0 382.6 436.2 L382.55 436.2 Q361.05 437.6 341.2 427.15 319.8 416.0 302.8 391.6 286.5 368.75 282.15 325.9 279.05 295.75 281.9 247.9 L281.9 247.75 Q285.7 196.95 286.65 175.9 L286.65 175.85 Q288.15 143.25 283.8 131.7 L283.8 131.75 Q277.8 117.4 267.05 104.75 256.75 92.65 244.8 85.3 L244.75 85.25 Q233.6 78.4 224.0 77.8 L223.95 77.8 Q215.85 77.5 210.75 83.05 204.75 90.2 202.1 105.5 L202.1 105.55 Q199.65 119.7 199.4 143.35 L199.4 143.4 Q199.2 157.6 199.6 186.85 L199.6 186.95 Q199.65 213.25 197.75 228.3 195.55 246.0 188.35 261.95 L188.35 261.9 Q183.0 273.9 173.4 287.3 L173.45 287.25 Q168.3 294.45 158.0 307.65 L158.2 307.45 Q150.65 317.65 147.25 325.55 L147.25 325.45 Q144.45 332.95 145.85 346.3 L145.85 346.35 Q146.45 351.95 147.95 360.75 L147.9 360.7 150.65 376.45 150.7 376.6 Q154.0 397.4 152.8 410.15 L152.8 410.2 Q151.0 430.0 139.55 442.3 120.5 466.0 45.8 445.65 11.7 436.35 -18.85 423.25 -22.5 421.65 -24.0 417.95 -25.5 414.25 -23.9 410.6 -22.35 406.9 -18.65 405.4 -14.95 403.9 -11.25 405.5 18.1 418.05 50.9 427.05 110.15 443.2 125.25 429.3 L125.3 429.3 Q132.4 421.25 133.6 408.45 134.5 397.55 131.65 379.8 L131.65 379.65 128.9 364.0 128.9 363.95 Q127.25 354.35 126.65 348.3 124.65 328.85 129.45 318.05 L129.5 317.95 Q133.55 308.35 142.65 296.0 L142.8 295.8 157.7 276.05 157.75 276.0 Q166.1 264.4 170.75 254.05 L170.75 254.0 Q176.75 240.7 178.6 225.9 L178.6 225.85 Q180.35 211.75 180.3 187.1 L180.3 187.0 Q179.9 157.5 180.1 143.15 180.35 117.5 183.1 102.2 186.95 80.15 196.35 70.2 L196.4 70.15 Q207.25 57.8 224.75 58.5 238.8 58.9 254.85 68.85 L254.9 68.85 Q269.35 77.7 281.75 92.25 294.5 107.3 301.6 124.3 307.75 137.95 305.95 176.75 305.0 198.0 301.15 249.2 L301.15 249.05 Q298.45 295.0 301.35 323.95 305.1 360.75 318.6 380.55 L318.65 380.55 Q332.7 400.7 350.2 410.1 365.15 417.95 381.3 416.95 L381.35 416.95 Q396.15 416.0 409.5 407.9 L409.6 407.85 Q422.35 400.25 430.5 388.35 L430.5 388.3 Q437.75 377.65 439.55 364.75 440.65 356.25 439.9 339.15 439.0 319.6 440.45 309.45 442.9 291.5 452.6 276.3 462.6 259.7 490.05 251.85 L490.0 251.85 Q507.45 246.7 538.75 244.25 L563.0 242.6 562.9 242.6 584.35 240.6 Q602.45 238.25 608.25 233.55 619.75 221.8 617.7 204.05 615.5 187.2 603.65 169.35 600.0 164.15 589.85 156.25 L566.75 139.3 566.7 139.3 Q551.0 127.9 542.5 119.9 529.35 107.55 524.8 96.8 L524.75 96.8 Q516.6 78.65 514.4 36.35 513.25 16.0 513.7 -0.85" fill="#ff77ee" fill-rule="evenodd" stroke="none"/>
    </g>
  </defs>
</svg>
