<?xml version="1.0" encoding="UTF-8" standalone="no"?>
<svg xmlns:ffdec="https://www.free-decompiler.com/flash" xmlns:xlink="http://www.w3.org/1999/xlink" ffdec:objectType="frame" height="600.0px" width="800.0px" xmlns="http://www.w3.org/2000/svg">
  <g transform="matrix(1.0, 0.0, 0.0, 1.0, 0.0, 0.0)">
    <use ffdec:characterId="8240" height="600.0" transform="matrix(1.0, 0.0, 0.0, 1.0, 0.0, 0.0)" width="800.0" xlink:href="#shape0"/>
  </g>
  <defs>
    <g id="shape0" transform="matrix(1.0, 0.0, 0.0, 1.0, 0.0, 0.0)">
      <path d="M661.65 31.95 L659.25 32.35 Q652.1 33.0 645.9 36.5 643.75 37.7 641.85 39.55 L641.2 40.55 Q629.7 48.05 636.9 67.55 646.15 92.85 672.45 91.6 L687.2 91.15 690.0 90.05 Q699.6 84.85 698.95 73.75 698.55 67.75 697.3 61.9 696.95 60.2 696.15 59.1 695.6 50.0 689.2 42.5 686.5 39.4 682.8 38.0 679.7 36.85 676.45 36.4 670.15 31.95 661.65 31.95 M664.15 183.05 Q658.95 196.6 660.95 202.0 662.55 206.2 670.85 207.05 675.4 207.55 677.0 208.0 680.15 208.85 681.45 211.0 684.2 215.45 684.6 219.8 684.85 222.8 683.95 229.0 683.15 234.7 687.5 236.5 692.05 238.35 695.95 232.0 699.75 225.75 700.75 211.55 701.65 198.9 699.95 190.0 699.3 186.7 699.8 180.25 L700.85 168.75 Q702.0 154.6 697.95 152.0 693.35 149.05 684.5 155.25 678.0 159.8 672.95 166.0 668.7 171.2 664.15 183.05 M667.95 322.0 Q671.95 312.95 670.0 302.4 668.2 292.4 661.95 285.0 656.15 278.1 642.7 275.8 630.0 273.65 612.95 276.0 605.55 277.0 600.35 282.3 596.7 286.05 593.1 293.5 L587.55 304.7 Q584.2 310.05 579.95 311.0 573.05 312.6 551.35 303.5 538.85 298.3 534.25 296.65 524.9 293.35 518.95 293.0 505.5 292.25 494.4 296.8 483.4 301.3 476.95 310.0 471.15 317.8 471.75 336.4 472.3 353.0 475.95 359.0 477.25 361.15 488.1 361.55 493.7 361.75 512.7 361.45 551.4 360.8 562.95 365.0 569.9 367.55 576.0 372.2 579.45 374.8 584.95 379.75 589.7 383.6 593.9 384.65 599.35 386.05 606.95 383.95 621.6 379.9 643.6 355.4 652.1 345.95 659.2 336.1 665.75 326.95 667.95 322.0 M655.4 393.25 Q643.3 397.05 621.95 407.95 615.65 411.2 606.0 413.3 L589.4 416.7 Q569.2 421.5 557.95 435.95 543.2 454.85 540.45 477.25 537.55 500.55 549.95 512.95 556.0 519.0 573.85 525.3 590.2 531.0 611.25 535.2 632.1 539.35 648.75 540.25 666.65 541.2 672.95 537.95 685.25 531.6 694.45 516.75 702.4 504.0 706.95 486.95 709.0 479.25 708.7 464.5 708.35 449.75 705.75 434.55 702.95 418.0 698.45 407.05 693.3 394.6 686.95 391.95 675.0 387.0 655.4 393.25 M800.0 600.0 L0.0 600.0 0.0 0.0 222.95 0.0 Q218.35 2.4 217.15 10.45 216.15 17.45 217.95 23.0 218.8 25.6 222.2 29.25 226.05 33.35 231.3 36.7 245.15 45.55 260.65 44.25 264.5 43.9 268.45 40.05 272.2 36.35 274.4 31.1 276.75 25.65 276.35 20.95 275.85 15.75 271.95 13.1 266.45 9.4 254.0 5.25 245.15 2.3 242.05 0.0 L800.0 0.0 800.0 600.0 M423.6 245.85 Q422.85 243.9 418.7 243.0 414.4 242.05 409.85 250.4 405.25 260.65 403.35 263.85 402.2 265.65 396.8 270.95 392.65 275.0 390.85 281.0 388.45 289.2 388.55 293.75 388.65 298.85 391.8 303.05 395.15 307.55 408.05 307.8 421.1 307.95 424.45 303.05 428.1 297.75 432.0 285.6 436.1 272.9 435.95 266.3 435.85 260.65 431.65 256.25 426.75 252.2 425.4 250.35 424.6 249.25 424.2 247.85 L423.6 245.85 M475.35 228.85 Q480.0 221.05 476.65 216.05 473.25 210.9 459.15 207.7 453.65 206.4 449.0 206.1 L443.25 206.5 Q440.35 208.4 437.4 213.5 433.95 219.4 434.9 223.35 436.55 230.8 438.35 234.95 441.45 242.3 445.7 243.15 L456.45 242.8 Q462.3 241.55 466.35 238.75 471.65 235.1 475.35 228.85 M362.95 174.05 L353.35 191.75 Q349.55 198.7 346.8 211.85 344.05 225.35 345.35 231.75 346.6 237.9 360.55 243.1 373.65 248.0 381.35 246.75 388.4 245.6 400.7 229.05 413.05 212.4 412.35 204.75 411.7 197.7 405.4 185.45 399.75 174.55 395.35 169.75 391.6 165.7 386.7 164.0 381.95 162.35 375.35 162.75 369.85 163.05 362.95 174.05 M342.75 77.45 Q345.45 68.65 344.95 60.7 344.55 54.3 338.1 49.7 331.55 45.0 321.95 44.65 308.9 44.15 307.25 44.3 301.9 44.8 298.95 48.65 291.6 58.15 297.95 70.65 301.2 77.1 314.55 83.4 327.3 89.45 333.95 88.65 339.55 88.0 342.75 77.45 M502.95 92.0 Q500.0 83.85 497.0 57.45 494.15 31.95 491.95 27.0 488.2 18.55 482.75 15.55 476.3 12.0 465.95 15.0 460.6 16.55 453.7 24.75 447.2 32.45 441.4 43.5 435.5 54.8 432.65 65.25 429.5 76.75 430.95 84.0 433.25 95.55 448.3 104.9 L459.45 111.65 Q465.1 115.4 466.95 119.0 470.2 125.3 472.8 137.55 475.6 150.75 476.95 154.0 479.6 160.3 500.1 166.8 520.45 173.2 526.95 170.0 532.95 167.0 533.65 159.2 534.25 152.55 530.95 143.0 529.1 137.65 517.6 119.1 505.95 100.3 502.95 92.0 M207.15 23.2 Q204.0 14.15 198.95 10.0 194.75 6.55 179.3 14.1 164.05 21.55 162.5 27.0 160.55 33.85 160.85 39.9 161.3 47.85 165.95 50.0 172.15 52.9 182.9 53.6 194.65 54.35 194.45 50.25 194.15 44.6 196.55 39.45 199.55 33.15 204.95 33.0 210.5 32.85 207.15 23.2 M89.0 367.0 Q88.15 370.95 81.5 382.6 75.9 392.35 77.0 395.95 80.45 407.25 91.0 407.95 98.8 408.5 102.4 408.0 108.0 407.25 110.0 403.95 112.4 400.05 113.45 396.0 114.65 391.45 115.0 383.95 115.45 374.7 112.7 365.0 109.5 353.7 104.0 352.0 98.4 350.25 94.25 355.0 90.65 359.15 89.0 367.0 M38.0 90.9 Q29.05 90.5 24.35 92.5 16.75 95.75 18.35 115.2 L20.05 130.7 Q20.85 139.25 20.0 143.0 18.5 149.6 13.2 154.95 7.45 160.7 6.0 165.0 3.55 172.35 6.15 195.85 8.7 219.45 13.0 228.0 18.45 238.85 22.45 242.95 28.4 249.0 36.0 247.0 39.85 246.0 41.7 241.05 43.1 237.45 43.8 230.15 L44.95 217.9 Q45.9 211.2 48.0 208.0 53.35 199.8 56.9 196.25 61.3 191.8 68.0 189.0 71.4 187.55 75.6 176.35 79.5 165.9 82.45 151.5 85.5 136.75 86.1 125.15 86.75 112.25 84.0 108.0 78.3 99.2 56.1 93.7 46.5 91.3 38.0 90.9 M207.55 289.55 Q174.2 306.1 167.95 317.0 164.9 322.35 164.35 339.95 163.8 355.8 165.4 376.75 166.9 397.15 169.7 413.15 172.7 430.25 175.95 434.95 182.55 444.45 196.7 443.85 202.9 443.55 208.05 441.0 213.4 438.35 215.95 433.95 218.3 429.9 218.65 422.35 218.9 417.55 221.55 404.1 224.15 390.6 230.5 386.4 232.75 384.9 240.1 382.2 248.0 379.3 250.25 378.05 257.65 373.95 262.15 362.6 263.45 359.3 264.95 345.35 266.65 329.6 266.75 314.8 267.15 272.7 254.95 273.0 248.05 273.2 234.55 278.0 221.8 282.5 207.55 289.55 M307.95 424.95 Q303.7 421.7 297.8 419.05 286.05 413.8 277.95 416.95 269.3 420.3 270.1 425.75 270.55 428.55 276.45 437.45 L278.45 441.3 Q281.1 446.0 284.5 450.3 295.5 464.0 310.5 469.0 314.55 470.35 331.45 477.3 346.7 483.55 357.1 486.6 390.4 496.4 414.95 486.95 440.05 477.3 459.5 458.8 478.9 440.3 473.1 434.8 467.25 429.3 466.3 424.6 465.35 419.85 463.7 418.15 462.0 416.35 454.95 415.95 449.75 415.65 439.6 427.15 L431.05 436.55 Q426.0 441.7 421.95 443.95 401.35 455.4 370.95 453.95 357.2 453.3 331.2 439.05 323.1 434.6 314.7 429.35 L307.95 424.95 M174.7 474.55 Q173.95 469.95 168.95 466.95 166.25 465.3 147.2 466.15 129.35 466.9 106.75 469.35 83.15 471.85 67.95 474.8 50.65 478.15 51.0 480.85 51.6 485.5 58.95 487.3 L65.25 488.55 Q69.15 489.2 71.0 489.95 76.3 492.0 115.05 496.95 154.65 502.0 161.0 500.95 171.65 499.25 173.95 483.95 175.05 476.8 174.7 474.55" fill="#33818e" fill-rule="evenodd" stroke="none"/>
    </g>
  </defs>
</svg>
