<?xml version="1.0" encoding="UTF-8" standalone="no"?>
<svg
   ffdec:objectType="frame"
   height="13.3px"
   width="13.3px"
   version="1.1"
   id="svg3"
   sodipodi:docname="1.svg"
   inkscape:version="1.4 (e7c3feb1, 2024-10-09)"
   xmlns:inkscape="http://www.inkscape.org/namespaces/inkscape"
   xmlns:sodipodi="http://sodipodi.sourceforge.net/DTD/sodipodi-0.dtd"
   xmlns:xlink="http://www.w3.org/1999/xlink"
   xmlns="http://www.w3.org/2000/svg"
   xmlns:svg="http://www.w3.org/2000/svg"
   xmlns:ffdec="https://www.free-decompiler.com/flash">
  <sodipodi:namedview
     id="namedview3"
     pagecolor="#505050"
     bordercolor="#ffffff"
     borderopacity="1"
     inkscape:showpageshadow="0"
     inkscape:pageopacity="0"
     inkscape:pagecheckerboard="1"
     inkscape:deskcolor="#505050"
     inkscape:zoom="22.211291"
     inkscape:cx="7.6312538"
     inkscape:cy="4.1195264"
     inkscape:window-width="1104"
     inkscape:window-height="250"
     inkscape:window-x="0"
     inkscape:window-y="31"
     inkscape:window-maximized="0"
     inkscape:current-layer="svg3" />
  <g
     transform="matrix(1.0, 0.0, 0.0, 1.0, 13.3, 6.65)"
     id="g1">
    <g
       id="use1"
       transform="matrix(-0.7071,-0.7071,0.7071,-0.7071,-0.09997,6e-5)">
      <g
         id="use4"
         transform="translate(4.65,-4.65)">
        <g
           id="use5">
          <path
             d="M 0.85,-3.3 Q 0.7,-3.6 0.8,-4 l 0.3,-0.55 q 0.3,-0.3 1,0 l 1.4,1 1,1.4 q 0.3,0.7 0,1 L 3.95,-0.85 3.25,-0.9 2.35,-1.45 Q -4.4,5 -4.7,4.75 -4.95,4.45 1.35,-2.4 l -0.5,-0.9"
             fill="#000000"
             fill-rule="evenodd"
             stroke="none"
             id="path5" />
        </g>
      </g>
    </g>
  </g>
  <defs
     id="defs3">
    <g
       id="sprite0"
       transform="matrix(1.0, 0.0, 0.0, 1.0, 0.05, 9.35)">
      <use
         ffdec:characterId="2602"
         height="9.45"
         transform="matrix(1.0, 0.0, 0.0, 1.0, -0.05, -9.35)"
         width="9.35"
         xlink:href="#sprite1"
         id="use2" />
    </g>
    <g
       id="sprite1"
       transform="matrix(1.0, 0.0, 0.0, 1.0, 4.7, 4.7)">
      <use
         ffdec:characterId="2601"
         height="9.45"
         transform="matrix(1.0, 0.0, 0.0, 1.0, -4.7, -4.7)"
         width="9.35"
         xlink:href="#shape0"
         id="use3" />
    </g>
    <g
       id="shape0"
       transform="matrix(1.0, 0.0, 0.0, 1.0, 4.7, 4.7)">
      <path
         d="M0.85 -3.3 Q0.7 -3.6 0.8 -4.0 L1.1 -4.55 Q1.4 -4.85 2.1 -4.55 L3.5 -3.55 4.5 -2.15 Q4.8 -1.45 4.5 -1.15 L3.95 -0.85 3.25 -0.9 2.35 -1.45 Q-4.4 5.0 -4.7 4.75 -4.95 4.45 1.35 -2.4 L0.85 -3.3"
         fill="#000000"
         fill-rule="evenodd"
         stroke="none"
         id="path3" />
    </g>
  </defs>
</svg>
