<?xml version="1.0" encoding="UTF-8" standalone="no"?>
<svg xmlns:ffdec="https://www.free-decompiler.com/flash" xmlns:xlink="http://www.w3.org/1999/xlink" ffdec:objectType="frame" height="59.0px" width="57.4px" xmlns="http://www.w3.org/2000/svg">
  <g transform="matrix(1.0, 0.0, 0.0, 1.0, 30.3, 30.0)">
    <use ffdec:characterId="2884" height="87.95" transform="matrix(0.6142, 0.0, 0.0, 0.6142, -30.3163, -25.0003)" width="93.45" xlink:href="#shape0"/>
    <use ffdec:characterId="1627" height="36.0" transform="matrix(0.5319, 0.3071, -0.3071, 0.5319, 7.5543, -7.0266)" width="20.15" xlink:href="#shape1"/>
    <use ffdec:characterId="1628" height="36.0" transform="matrix(0.5319, -0.3071, 0.3071, 0.5319, -18.0456, -0.8042)" width="20.05" xlink:href="#shape2"/>
    <use ffdec:characterId="1629" height="39.85" transform="matrix(0.4428, 0.0, 0.0, 0.4428, -3.8641, -29.9956)" width="29.0" xlink:href="#shape3"/>
    <use ffdec:characterId="1630" height="68.15" transform="matrix(0.4428, 0.0, 0.0, 0.4428, -17.3201, -16.8926)" width="78.5" xlink:href="#shape4"/>
    <use ffdec:characterId="1631" height="23.75" transform="matrix(0.4428, 0.0, 0.0, 0.4428, -20.3312, -6.1477)" width="23.35" xlink:href="#shape5"/>
    <use ffdec:characterId="1632" height="23.75" transform="matrix(0.4428, 0.0, 0.0, 0.4428, 10.2909, -6.1477)" width="23.35" xlink:href="#shape6"/>
    <use ffdec:characterId="1633" height="62.75" transform="matrix(0.4428, 0.0, 0.0, 0.4428, -16.213, -15.7854)" width="73.5" xlink:href="#shape7"/>
  </g>
  <defs>
    <g id="shape0" transform="matrix(1.0, 0.0, 0.0, 1.0, 306.85, 679.75)">
      <path d="M-261.05 -654.8 L-261.9 -678.55 -262.1 -678.6 -219.0 -662.35 -219.1 -662.35 -241.9 -647.55 -261.05 -654.8 M-247.7 -619.3 L-247.6 -619.4 -244.8 -628.15 -244.6 -628.35 -225.2 -618.9 -225.5 -618.65 -231.75 -598.9 -247.7 -619.3" fill="#748195" fill-rule="evenodd" stroke="none"/>
      <path d="M-276.05 -623.8 L-276.05 -623.85 -276.0 -623.85 -276.0 -623.8 -264.55 -617.1 -264.55 -617.05 -269.7 -593.6 -270.1 -593.6 -295.9 -608.75 -295.95 -608.8 -295.95 -608.95 -296.05 -609.45 -296.05 -609.5 -295.95 -609.0 -295.95 -608.95 -276.05 -623.8 M-254.8 -617.4 L-252.25 -616.75 -242.05 -592.9 -242.15 -592.8 -248.45 -594.5 -249.25 -594.45 -249.1 -594.5 -254.8 -617.4" fill="#2f393f" fill-rule="evenodd" stroke="none"/>
      <path d="M-280.45 -643.7 L-280.45 -643.85 -261.15 -654.85 -261.05 -654.8 -241.9 -647.55 -239.9 -632.3 -239.9 -632.1 -244.6 -628.35 -244.8 -628.15 -247.6 -619.4 -247.7 -619.3 -252.2 -616.7 -252.25 -616.75 -254.8 -617.4 -255.0 -617.45 -264.55 -617.05 -264.55 -617.1 -276.0 -623.8 -276.0 -623.85 -276.05 -623.85 -276.05 -623.8 -280.45 -643.7" fill="#adbcd2" fill-rule="evenodd" stroke="none"/>
      <path d="M-262.1 -678.6 L-261.9 -678.55 -261.05 -654.8 -261.15 -654.85 -280.45 -643.85 -280.45 -643.7 -305.4 -653.6 -305.85 -653.8 -305.85 -653.9 -262.4 -678.75 -262.1 -678.6 M-252.25 -616.75 L-252.2 -616.7 -247.7 -619.3 -231.75 -598.9 -231.8 -598.85 -242.05 -592.9 -252.25 -616.75 M-244.6 -628.35 L-239.9 -632.1 -239.9 -632.3 -214.45 -627.8 -214.4 -627.55 -225.2 -618.9 -244.6 -628.35 M-264.55 -617.05 L-255.0 -617.45 -254.8 -617.4 -249.1 -594.5 -249.25 -594.45 -269.75 -593.55 -269.7 -593.6 -264.55 -617.05" fill="#4d5b62" fill-rule="evenodd" stroke="none"/>
      <path d="M-241.9 -647.55 L-219.1 -662.35 -219.0 -662.35 -214.45 -627.8 -239.9 -632.3 -241.9 -647.55" fill="#8b97aa" fill-rule="evenodd" stroke="none"/>
      <path d="M-305.4 -653.6 L-280.45 -643.7 -276.05 -623.8 -295.95 -608.95 -295.95 -609.0 -296.05 -609.5 -296.05 -609.45 -295.95 -608.95 -296.0 -608.95 -296.1 -609.45 -296.1 -609.4 -296.0 -608.9 -305.85 -653.8 -305.4 -653.6" fill="#242d33" fill-rule="evenodd" stroke="none"/>
      <path d="M-232.95 -653.55 Q-229.0 -651.0 -221.8 -649.55 -232.7 -640.75 -223.8 -629.75 L-234.9 -631.75 -234.85 -631.5 -240.7 -626.8 -240.95 -626.6 -244.45 -615.65 -244.6 -615.55 -250.15 -612.35 -250.25 -612.35 -253.4 -613.2 -253.65 -613.25 -265.55 -612.75 -265.55 -612.8 -279.8 -621.2 -279.85 -621.2 -285.3 -645.9 -285.3 -646.05 -261.3 -659.75 -261.2 -659.7 -261.15 -659.7 -237.35 -650.7 -232.95 -653.55" fill="#ffffff" fill-rule="evenodd" stroke="none"/>
      <path d="M-261.45 -667.4 L-257.8 -670.85 Q-254.4 -663.7 -237.4 -664.55 -239.25 -657.65 -232.95 -653.55 L-237.35 -650.7 -261.15 -659.7 -261.45 -667.4 M-230.25 -621.65 Q-232.75 -615.95 -232.3 -607.85 -236.75 -609.85 -238.7 -608.05 L-244.6 -615.55 -244.45 -615.65 -240.95 -626.6 -240.7 -626.8 -230.25 -621.65" fill="#e7f2ff" fill-rule="evenodd" stroke="none"/>
      <path d="M-223.8 -629.75 Q-228.05 -626.6 -230.25 -621.65 L-240.7 -626.8 -234.85 -631.5 -234.9 -631.75 -223.8 -629.75 M-238.7 -608.05 Q-241.0 -605.95 -240.1 -598.85 -243.85 -604.3 -247.05 -604.95 L-250.25 -612.35 -250.15 -612.35 -244.6 -615.55 -238.7 -608.05 M-251.05 -603.8 Q-252.55 -602.55 -253.9 -600.05 -260.4 -606.85 -266.7 -607.45 L-265.55 -612.75 -253.65 -613.25 -253.4 -613.2 -251.05 -603.8 M-287.4 -646.7 Q-286.7 -652.35 -288.7 -659.15 -274.15 -656.45 -261.45 -667.4 L-261.15 -659.7 -261.2 -659.7 -261.3 -659.75 -285.3 -646.05 -285.3 -645.9 -287.4 -646.7" fill="#cbe2fc" fill-rule="evenodd" stroke="none"/>
      <path d="M-247.05 -604.95 Q-249.2 -605.4 -251.05 -603.8 L-253.4 -613.2 -250.25 -612.35 -247.05 -604.95 M-266.7 -607.45 Q-272.7 -608.0 -278.5 -603.05 -279.55 -614.35 -283.4 -618.5 L-279.85 -621.2 -279.8 -621.2 -265.55 -612.8 -265.55 -612.75 -266.7 -607.45" fill="#a9ccf5" fill-rule="evenodd" stroke="none"/>
      <path d="M-283.4 -618.5 Q-287.25 -622.7 -293.8 -619.85 -288.7 -628.85 -299.2 -630.05 -288.65 -636.35 -287.4 -646.7 L-285.3 -645.9 -279.85 -621.2 -283.4 -618.5" fill="#8ec2ff" fill-rule="evenodd" stroke="none"/>
      <path d="M-305.85 -653.8 L-296.0 -608.9 -296.1 -609.4 -296.1 -609.45 -296.0 -608.95 -295.95 -608.95 -295.95 -608.8 -295.9 -608.75 -270.1 -593.6 -269.7 -593.6 -269.75 -593.55 -248.45 -594.5 -242.15 -592.8 -231.8 -598.85 -231.75 -598.9 -225.5 -618.65 -225.2 -618.9 -214.4 -627.55 -219.0 -662.35 -262.1 -678.6 -262.4 -678.75 -305.85 -653.9 -305.85 -653.8 -305.4 -653.6 -305.85 -653.8 Z" fill="none" stroke="#21272a" stroke-linecap="round" stroke-linejoin="round" stroke-width="2.0"/>
      <path d="M-253.35 -652.7 Q-249.3 -645.55 -249.3 -636.1 -249.3 -626.65 -253.4 -619.5 -250.7 -620.8 -248.4 -622.95 -242.55 -628.4 -242.55 -636.1 -242.55 -643.85 -248.4 -649.3 -250.7 -651.45 -253.35 -652.7" fill="#ffffff" fill-rule="evenodd" stroke="none"/>
    </g>
    <g id="shape1" transform="matrix(1.0, 0.0, 0.0, 1.0, 9.95, 17.9)">
      <path d="M0.75 -12.5 L-4.0 -16.9 -9.0 -10.95 -6.1 -6.55 Q-2.8 -1.35 -1.1 2.6 -0.3 4.45 0.1 7.7 L0.6 12.6 Q1.45 17.7 5.15 17.05 9.25 16.25 9.15 7.9 9.1 1.1 7.0 -4.3 5.7 -7.45 0.75 -12.5" fill="#3d91af" fill-rule="evenodd" stroke="none"/>
      <path d="M0.6 -12.65 L-4.2 -17.05 -9.15 -11.15 -6.25 -6.7 Q-2.95 -1.55 -1.25 2.4 -0.5 4.25 -0.05 7.45 5.05 7.7 9.0 9.1 L9.0 7.75 Q8.95 0.95 6.8 -4.45 5.5 -7.6 0.6 -12.65" fill="#ffffff" fill-rule="evenodd" stroke="none"/>
      <path d="M0.8 -12.5 Q5.7 -7.45 7.0 -4.25 9.15 1.1 9.2 7.9 L9.2 9.25 Q8.95 16.3 5.2 17.05 1.5 17.7 0.65 12.55 L0.15 7.7 0.1 7.6 -0.1 6.2 -0.35 4.9 -1.05 2.55 Q-2.75 -1.4 -6.05 -6.55 L-8.95 -11.0 -3.95 -16.9 0.8 -12.5 Z" fill="none" stroke="#ade8fc" stroke-linecap="round" stroke-linejoin="round" stroke-width="2.0"/>
    </g>
    <g id="shape2" transform="matrix(1.0, 0.0, 0.0, 1.0, 10.15, 17.9)">
      <path d="M-0.8 -12.5 L3.9 -16.9 8.95 -10.95 6.1 -6.55 Q2.8 -1.35 1.15 2.55 0.3 4.5 -0.1 7.7 L-0.55 12.6 Q-1.35 17.7 -5.0 17.1 -9.15 16.3 -9.1 7.95 -9.05 1.15 -7.0 -4.25 -5.75 -7.45 -0.8 -12.5" fill="#3d91af" fill-rule="evenodd" stroke="none"/>
      <path d="M-0.6 -12.75 L4.1 -17.1 9.15 -11.2 6.3 -6.8 Q3.0 -1.6 1.35 2.35 0.5 4.2 0.15 7.4 -5.0 7.65 -8.9 9.1 L-8.9 7.7 Q-8.85 0.9 -6.8 -4.45 -5.55 -7.7 -0.6 -12.75" fill="#ffffff" fill-rule="evenodd" stroke="none"/>
      <path d="M-0.85 -12.5 Q-5.75 -7.45 -7.05 -4.25 -9.1 1.15 -9.15 7.95 L-9.15 9.3 Q-8.85 16.35 -5.05 17.05 -1.4 17.7 -0.55 12.6 L-0.1 7.65 -0.1 7.6 0.1 6.2 0.35 4.9 1.1 2.55 Q2.75 -1.4 6.05 -6.55 L8.9 -11.0 3.85 -16.9 -0.85 -12.5 Z" fill="none" stroke="#ade8fc" stroke-linecap="round" stroke-linejoin="round" stroke-width="2.0"/>
    </g>
    <g id="shape3" transform="matrix(1.0, 0.0, 0.0, 1.0, 8.5, 51.25)">
      <path d="M14.45 -48.7 Q16.3 -46.85 17.6 -44.3 20.85 -37.85 16.6 -33.85 L16.55 -33.8 Q14.65 -31.85 11.6 -30.95 L11.55 -30.9 6.95 -30.05 3.35 -29.25 Q1.8 -28.65 0.8 -27.45 L0.75 -27.4 Q-0.55 -25.5 0.95 -22.6 L0.95 -22.55 2.75 -19.95 3.9 -18.6 Q4.8 -17.55 4.7 -16.1 4.6 -14.65 3.55 -13.7 2.45 -12.8 1.0 -12.9 -0.4 -13.0 -1.35 -14.05 L-2.5 -15.4 -2.55 -15.5 -5.15 -19.25 -5.2 -19.3 Q-9.15 -26.95 -4.5 -31.9 L-4.45 -31.95 Q-2.35 -34.5 0.85 -35.75 2.7 -36.45 5.95 -36.9 L9.65 -37.6 9.7 -37.6 Q10.85 -37.95 11.6 -38.65 12.2 -39.6 11.4 -41.15 L11.4 -41.2 9.5 -43.8 Q8.5 -44.8 8.5 -46.25 8.5 -47.7 9.5 -48.7 10.55 -49.75 11.95 -49.75 13.4 -49.75 14.45 -48.7" fill="#ffffff" fill-rule="evenodd" stroke="none"/>
      <path d="M14.45 -48.7 Q13.4 -49.75 11.95 -49.75 10.55 -49.75 9.5 -48.7 8.5 -47.7 8.5 -46.25 8.5 -44.8 9.5 -43.8 L11.4 -41.2 11.4 -41.15 Q12.2 -39.6 11.6 -38.65 10.85 -37.95 9.7 -37.6 L9.65 -37.6 5.95 -36.9 Q2.7 -36.45 0.85 -35.75 -2.35 -34.5 -4.45 -31.95 L-4.5 -31.9 Q-9.15 -26.95 -5.2 -19.3 L-5.15 -19.25 -2.55 -15.5 -2.5 -15.4 -1.35 -14.05 Q-0.4 -13.0 1.0 -12.9 2.45 -12.8 3.55 -13.7 4.6 -14.65 4.7 -16.1 4.8 -17.55 3.9 -18.6 L2.75 -19.95 0.95 -22.55 0.95 -22.6 Q-0.55 -25.5 0.75 -27.4 L0.8 -27.45 Q1.8 -28.65 3.35 -29.25 L6.95 -30.05 11.55 -30.9 11.6 -30.95 Q14.65 -31.85 16.55 -33.8 L16.6 -33.85 Q20.85 -37.85 17.6 -44.3 16.3 -46.85 14.45 -48.7 Z" fill="none" stroke="#ade8fc" stroke-linecap="round" stroke-linejoin="round" stroke-width="3.0"/>
    </g>
    <g id="shape4" transform="matrix(1.0, 0.0, 0.0, 1.0, 39.45, 18.5)">
      <path d="M-19.65 39.05 Q-11.9 34.7 -1.3 34.2 11.5 34.65 19.15 39.15 L19.4 39.35 19.4 39.4 19.35 40.1 Q19.35 42.85 13.6 44.7 7.9 46.65 -0.25 46.65 -8.3 46.65 -14.05 44.7 -19.75 42.85 -19.75 40.1 L-19.9 39.2 -19.65 39.05 Z" fill="none" stroke="#ade8fc" stroke-linecap="round" stroke-linejoin="round" stroke-width="6.0"/>
      <path d="M14.05 -12.85 Q7.4 -15.5 -0.2 -15.5 -7.8 -15.5 -14.45 -12.85 -21.25 -10.15 -26.5 -4.9 -31.55 0.15 -34.15 7.95 -36.45 14.95 -36.45 22.95 -36.45 31.65 -28.75 37.0 -19.35 43.6 -0.2 43.6 18.95 43.6 28.35 37.0 36.05 31.65 36.05 22.95 36.05 14.95 33.75 7.95 31.15 0.15 26.1 -4.9 20.85 -10.15 14.05 -12.85 Z" fill="none" stroke="#ade8fc" stroke-linecap="round" stroke-linejoin="round" stroke-width="6.0"/>
    </g>
    <g id="shape5" transform="matrix(1.0, 0.0, 0.0, 1.0, 11.7, 11.85)">
      <path d="M1.75 -8.7 L8.65 -7.85 8.65 7.7 1.9 8.7 Q-5.2 9.35 -6.9 7.7 -8.8 5.75 -8.7 -0.25 -8.6 -6.1 -6.9 -7.85 -5.45 -9.25 1.75 -8.7 Z" fill="none" stroke="#ade8fc" stroke-linecap="round" stroke-linejoin="round" stroke-width="6.0"/>
      <path d="M1.75 -8.7 L8.65 -7.85 8.65 7.7 1.9 8.7 Q-5.2 9.35 -6.9 7.7 -8.8 5.75 -8.7 -0.25 -8.6 -6.1 -6.9 -7.85 -5.45 -9.25 1.75 -8.7" fill="#ffffff" fill-rule="evenodd" stroke="none"/>
      <path d="M-7.25 7.25 L-7.25 5.9 Q-7.15 0.05 -5.4 -1.7 -4.0 -3.1 3.2 -2.55 L8.65 -1.95 8.65 7.7 1.9 8.7 Q-5.2 9.35 -6.9 7.7 L-7.25 7.25" fill="#3d91af" fill-rule="evenodd" stroke="none"/>
    </g>
    <g id="shape6" transform="matrix(1.0, 0.0, 0.0, 1.0, 11.65, 11.85)">
      <path d="M-1.75 -8.7 L-8.65 -7.85 -8.65 7.7 -1.9 8.7 Q5.2 9.35 6.9 7.7 8.8 5.75 8.7 -0.25 8.6 -6.1 6.9 -7.85 5.45 -9.25 -1.75 -8.7 Z" fill="none" stroke="#ade8fc" stroke-linecap="round" stroke-linejoin="round" stroke-width="6.0"/>
      <path d="M-1.75 -8.7 L-8.65 -7.85 -8.65 7.7 -1.9 8.7 Q5.2 9.35 6.9 7.7 8.8 5.75 8.7 -0.25 8.6 -6.1 6.9 -7.85 5.45 -9.25 -1.75 -8.7" fill="#ffffff" fill-rule="evenodd" stroke="none"/>
      <path d="M5.4 -1.7 Q4.0 -3.1 -3.2 -2.55 L-8.65 -1.95 -8.65 7.7 -1.9 8.7 Q5.2 9.35 6.9 7.7 L7.25 7.25 7.25 5.9 Q7.15 0.05 5.4 -1.7" fill="#3d91af" fill-rule="evenodd" stroke="none"/>
    </g>
    <g id="shape7" transform="matrix(1.0, 0.0, 0.0, 1.0, 36.95, 16.0)">
      <path d="M14.05 -12.85 Q20.85 -10.15 26.1 -4.9 31.15 0.15 33.75 7.95 36.05 14.95 36.05 22.95 36.05 31.65 28.35 37.0 18.95 43.6 -0.2 43.6 -19.35 43.6 -28.75 37.0 -36.45 31.65 -36.45 22.95 -36.45 14.95 -34.15 7.95 -31.55 0.15 -26.5 -4.9 -21.25 -10.15 -14.45 -12.85 -7.8 -15.5 -0.2 -15.5 7.4 -15.5 14.05 -12.85" fill="#ffffff" fill-rule="evenodd" stroke="none"/>
      <path d="M14.05 -12.85 Q7.4 -15.5 -0.2 -15.5 -7.8 -15.5 -14.45 -12.85 -21.25 -10.15 -26.5 -4.9 -31.55 0.15 -34.15 7.95 -36.45 14.95 -36.45 22.95 -36.45 31.65 -28.75 37.0 -19.35 43.6 -0.2 43.6 18.95 43.6 28.35 37.0 36.05 31.65 36.05 22.95 36.05 14.95 33.75 7.95 31.15 0.15 26.1 -4.9 20.85 -10.15 14.05 -12.85 Z" ffdec:has-small-stroke="true" ffdec:original-stroke-width="1.0" fill="none" stroke="#ade8fc" stroke-linecap="round" stroke-linejoin="round" stroke-width="2.25814899042106"/>
      <path d="M-8.55 -12.8 L-12.3 -11.6 Q-19.1 -9.05 -24.35 -4.05 -29.4 0.8 -32.0 8.2 -34.3 14.9 -34.3 22.5 -34.3 30.8 -26.6 35.9 -22.5 38.6 -16.55 40.15 -24.25 34.05 -24.25 24.2 -24.25 15.05 -21.95 7.1 -19.35 -1.75 -14.3 -7.5 -11.65 -10.55 -8.55 -12.8" fill="#a8e9ff" fill-rule="evenodd" stroke="none"/>
      <path d="M13.6 44.8 Q7.9 46.75 -0.2 46.75 -8.3 46.75 -14.05 44.8 -19.75 42.95 -19.75 40.25 L-19.85 39.25 -20.95 38.85 Q-24.85 37.3 -27.9 34.95 -30.8 32.75 -32.55 30.15 -30.9 29.05 -28.85 28.0 -24.75 25.9 -20.95 25.35 -17.35 24.8 -10.45 27.1 -2.9 29.6 -0.2 29.6 2.65 29.6 10.05 27.05 16.85 24.7 20.5 25.2 24.2 25.75 28.5 27.75 32.15 29.75 32.35 29.8 28.45 35.95 20.5 38.85 L19.4 39.2 19.3 40.25 Q19.3 42.95 13.6 44.8" fill="#1d6f8c" fill-rule="evenodd" stroke="none"/>
      <path d="M16.45 35.3 Q16.45 36.5 17.3 37.4 18.2 38.25 19.4 38.25 20.65 38.25 21.5 37.4 22.4 36.5 22.4 35.3 22.4 34.05 21.5 33.2 20.65 32.3 19.4 32.3 18.2 32.3 17.3 33.2 16.45 34.05 16.45 35.3" fill="#000000" fill-rule="evenodd" stroke="none"/>
      <path d="M-22.6 34.05 L-22.0 33.2 Q-21.1 32.3 -19.9 32.3 -18.65 32.3 -17.8 33.2 L-17.15 34.05 Q-16.9 34.6 -16.9 35.3 -16.9 36.5 -17.8 37.4 -18.65 38.25 -19.9 38.25 -21.1 38.25 -22.0 37.4 -22.85 36.5 -22.85 35.3 L-22.6 34.05" fill="#000000" fill-rule="evenodd" stroke="none"/>
      <path d="M19.35 40.2 Q19.35 42.95 13.6 44.8 7.9 46.75 -0.25 46.75 -8.3 46.75 -14.05 44.8 -19.75 42.95 -19.75 40.2 L-19.9 39.3 -19.65 39.15 Q-11.9 34.8 -1.3 34.3 11.5 34.75 19.15 39.25 L19.4 39.45 19.4 39.5 19.35 40.2" fill="#3d91af" fill-rule="evenodd" stroke="none"/>
    </g>
  </defs>
</svg>
