<?xml version="1.0" encoding="UTF-8" standalone="no"?>
<svg
   ffdec:objectType="frame"
   height="45.35px"
   width="121.2px"
   version="1.1"
   id="svg46"
   sodipodi:docname="23.svg"
   xmlns:inkscape="http://www.inkscape.org/namespaces/inkscape"
   xmlns:sodipodi="http://sodipodi.sourceforge.net/DTD/sodipodi-0.dtd"
   xmlns:xlink="http://www.w3.org/1999/xlink"
   xmlns="http://www.w3.org/2000/svg"
   xmlns:svg="http://www.w3.org/2000/svg"
   xmlns:ffdec="https://www.free-decompiler.com/flash">
  <sodipodi:namedview
     id="namedview46"
     pagecolor="#505050"
     bordercolor="#eeeeee"
     borderopacity="1"
     inkscape:showpageshadow="0"
     inkscape:pageopacity="0"
     inkscape:pagecheckerboard="0"
     inkscape:deskcolor="#505050" />
  <g
     transform="matrix(1.0, 0.0, 0.0, 1.0, 37.55, 25.8)"
     id="g7">
    <g
       id="use1"
       transform="matrix(-0.3435,0.2538,0.2538,0.3435,-5.7008,-0.39966)">
      <path
         d="m 1.5,-31.4 8.95,0.6 -1.25,10.7 -7.2,1.3 q -8.3,1.6 -13.9,3.6 -2.7,1 -6.3,3.7 l -5.45,4.15 q -5.95,4 -8.8,-0.3 -3.15,-4.95 5.4,-12.8 6.9,-6.4 14.35,-9.35 4.45,-1.75 14.2,-1.6"
         fill="#bf7926"
         fill-rule="evenodd"
         stroke="none"
         id="path47" />
      <path
         d="m 1.95,-31.45 8.9,0.65 -1.2,10.65 -7.2,1.35 q -8.35,1.6 -13.95,3.6 -2.65,0.95 -6.2,3.6 -5.15,-4.95 -10.3,-7.55 l 1.35,-1.3 q 6.95,-6.45 14.35,-9.4 4.5,-1.75 14.25,-1.6"
         fill="#70381f"
         fill-rule="evenodd"
         stroke="none"
         id="path48" />
      <path
         d="m 1.5,-31.5 q -9.75,-0.15 -14.2,1.6 -7.45,2.95 -14.35,9.4 l -1.35,1.3 q -6.95,6.95 -4.05,11.45 2.85,4.3 8.8,0.3 l 5.45,-4.15 0.05,-0.1 1.65,-1.1 1.55,-1 3.1,-1.45 q 5.55,-2.05 13.9,-3.65 l 7.15,-1.3 1.25,-10.7 z"
         fill="none"
         stroke="#3c190a"
         stroke-linecap="round"
         stroke-linejoin="round"
         stroke-width="3"
         id="path49" />
    </g>
    <g
       id="use2"
       transform="rotate(-90,0.875,-12.175)">
      <path
         d="M 2,-0.75 2.35,0.05 2,0.75 1.25,1.1 Q 0.85,1.1 0.5,0.75 L 0.3,0.5 h -2.65 v -0.9 h 2.6 L 0.5,-0.75 1.25,-1.05 2,-0.75"
         fill="#555c72"
         fill-rule="evenodd"
         stroke="none"
         id="path50" />
      <path
         d="M 2,-0.75 2.35,0.05 2,0.75 1.25,1.1 Q 0.85,1.1 0.5,0.75 L 0.3,0.5 h -2.65 v -0.9 h 2.6 l 0.25,-0.35 0.75,-0.3 z"
         fill="none"
         stroke="#191c1e"
         stroke-linecap="round"
         stroke-linejoin="round"
         stroke-width="2"
         id="path51" />
      <path
         d="M 2,-0.75 2.35,0.05 2,0.75 1.25,1.1 Q 0.85,1.1 0.5,0.75 L 0.3,0.5 h -2.65 v -0.9 h 2.6 L 0.5,-0.75 1.25,-1.05 2,-0.75"
         fill="#555c72"
         fill-rule="evenodd"
         stroke="none"
         id="path52" />
    </g>
    <g
       id="use3"
       transform="matrix(-0.3916,0.1706,-0.1706,-0.3916,0.19772,-2.95072)">
      <path
         d="m 1.5,-31.4 8.95,0.6 -1.25,10.7 -7.2,1.3 q -8.3,1.6 -13.9,3.6 -2.7,1 -6.3,3.7 l -5.45,4.15 q -5.95,4 -8.8,-0.3 -3.15,-4.95 5.4,-12.8 6.9,-6.4 14.35,-9.35 4.45,-1.75 14.2,-1.6"
         fill="#bf7926"
         fill-rule="evenodd"
         stroke="none"
         id="path53" />
      <path
         d="m 1.95,-31.45 8.9,0.65 -1.2,10.65 -7.2,1.35 q -8.35,1.6 -13.95,3.6 -2.65,0.95 -6.2,3.6 -5.15,-4.95 -10.3,-7.55 l 1.35,-1.3 q 6.95,-6.45 14.35,-9.4 4.5,-1.75 14.25,-1.6"
         fill="#70381f"
         fill-rule="evenodd"
         stroke="none"
         id="path54" />
      <path
         d="m 1.5,-31.5 q -9.75,-0.15 -14.2,1.6 -7.45,2.95 -14.35,9.4 l -1.35,1.3 q -6.95,6.95 -4.05,11.45 2.85,4.3 8.8,0.3 l 5.45,-4.15 0.05,-0.1 1.65,-1.1 1.55,-1 3.1,-1.45 q 5.55,-2.05 13.9,-3.65 l 7.15,-1.3 1.25,-10.7 z"
         fill="none"
         stroke="#3c190a"
         stroke-linecap="round"
         stroke-linejoin="round"
         stroke-width="3"
         id="path55" />
    </g>
    <g
       id="use4"
       transform="rotate(-90,-0.15,-0.1)">
      <path
         d="m 4,11.55 h 3.75 v 19.3 q 0,0.45 -0.55,0.8 -0.55,0.4 -1.35,0.4 -0.75,0 -1.35,-0.4 Q 3.95,31.3 3.95,30.85 L 4,30.6 V 11.55"
         fill="#ffffff"
         fill-rule="evenodd"
         stroke="none"
         id="path56" />
      <path
         d="M 4,11.55 V 30.6 l -0.05,0.25 q 0,0.45 0.55,0.8 0.6,0.4 1.35,0.4 0.8,0 1.35,-0.4 0.55,-0.35 0.55,-0.8 v -19.3 z"
         fill="none"
         stroke="#191c1e"
         stroke-linecap="round"
         stroke-linejoin="round"
         stroke-width="2"
         id="path57" />
      <path
         d="m 3.95,11.55 h 3.8 v 19.3 h -3.8 v -19.3"
         fill="#555c72"
         fill-rule="evenodd"
         stroke="none"
         id="path58" />
      <path
         d="M 7.2,31.65 Q 6.65,32 5.85,32 L 4.5,31.65 Q 3.95,31.3 3.95,30.8 q 0,-0.5 0.55,-0.85 0.55,-0.35 1.35,-0.35 0.8,0 1.35,0.35 0.55,0.35 0.55,0.85 0,0.5 -0.55,0.85"
         fill="#3f434f"
         fill-rule="evenodd"
         stroke="none"
         id="path59" />
      <path
         d="M 6.75,31.45 5.85,31.6 4.95,31.45 4.6,31 q 0,-0.25 0.35,-0.45 l 0.9,-0.2 0.9,0.2 L 7.1,31 6.75,31.45"
         fill="#000000"
         fill-rule="evenodd"
         stroke="none"
         id="path60" />
    </g>
    <g
       id="use5"
       transform="matrix(0,-0.4271,0.4271,0,-12.101135,-0.24884)">
      <path
         d="m 13.8,-45.6 q 1.85,1.85 3.15,4.4 3.25,6.45 -1,10.45 l -0.05,0.05 q -1.9,1.95 -4.95,2.85 l -0.05,0.05 -4.6,0.85 -3.6,0.8 q -1.55,0.6 -2.55,1.8 L 0.1,-24.3 q -1.3,1.9 0.2,4.8 v 0.05 l 1.8,2.6 1.15,1.35 q 0.9,1.05 0.8,2.5 -0.1,1.45 -1.15,2.4 -1.1,0.9 -2.55,0.8 -1.4,-0.1 -2.35,-1.15 l -1.15,-1.35 -0.05,-0.1 q -1.55,-1.85 -2.6,-3.75 l -0.05,-0.05 q -3.95,-7.65 0.7,-12.6 l 0.05,-0.05 q 2.1,-2.55 5.3,-3.8 L 5.3,-33.8 9,-34.5 h 0.05 q 1.15,-0.35 1.9,-1.05 0.6,-0.95 -0.2,-2.5 v -0.05 l -1.9,-2.6 q -1,-1 -1,-2.45 0,-1.45 1,-2.45 1.05,-1.05 2.45,-1.05 1.45,0 2.5,1.05"
         fill="#70381f"
         fill-rule="evenodd"
         stroke="none"
         id="path61" />
      <path
         d="m 13.8,-45.6 q -1.05,-1.05 -2.5,-1.05 -1.4,0 -2.45,1.05 -1,1 -1,2.45 0,1.45 1,2.45 l 1.9,2.6 v 0.05 q 0.8,1.55 0.2,2.5 -0.75,0.7 -1.9,1.05 H 9 l -3.7,0.7 -5.1,1.15 q -3.2,1.25 -5.3,3.8 l -0.05,0.05 q -4.65,4.95 -0.7,12.6 l 0.05,0.05 q 1.05,1.9 2.6,3.75 l 0.05,0.1 1.15,1.35 q 0.95,1.05 2.35,1.15 1.45,0.1 2.55,-0.8 1.05,-0.95 1.15,-2.4 0.1,-1.45 -0.8,-2.5 l -1.15,-1.35 -1.8,-2.6 v -0.05 q -1.5,-2.9 -0.2,-4.8 l 0.05,-0.05 q 1,-1.2 2.55,-1.8 l 3.6,-0.8 4.6,-0.85 0.05,-0.05 q 3.05,-0.9 4.95,-2.85 l 0.05,-0.05 q 4.25,-4 1,-10.45 -1.3,-2.55 -3.15,-4.4 z"
         fill="none"
         stroke="#3c190a"
         stroke-linecap="round"
         stroke-linejoin="round"
         stroke-width="3"
         id="path62" />
      <path
         d="M -41.55,9.75 Q -40.3,8.5 -34.5,8.8 l 0.35,-0.85 q 2.55,-7.8 7.6,-12.85 5.25,-5.25 12.1,-7.95 6.6,-2.65 14.2,-2.65 7.6,0 14.25,2.65 6.8,2.7 12.05,7.95 5.05,5.05 7.65,12.85 l 0.25,0.9 q 6.25,-0.4 7.6,0.9 1.75,1.75 1.85,7.6 0.1,6 -1.85,7.95 -1.3,1.3 -5.9,1.2 -1.25,6.3 -7.35,10.5 -3.8,2.7 -9.3,4.3 -0.95,1.95 -5.4,3.4 -5.7,1.95 -13.85,1.95 -8.05,0 -13.8,-1.95 -4.45,-1.45 -5.45,-3.4 -5.45,-1.6 -9.3,-4.3 -6.05,-4.2 -7.35,-10.5 -4.15,0.05 -5.4,-1.2 -1.9,-1.95 -1.85,-7.95 0.1,-5.85 1.85,-7.6 z"
         fill="none"
         stroke="#3c190a"
         stroke-linecap="round"
         stroke-linejoin="round"
         stroke-width="6"
         id="path63" />
      <path
         d="M 32.9,8.9 26,9.75 V 25.3 l 6.75,1 q 7.1,0.65 8.8,-1 1.9,-1.95 1.8,-7.95 -0.1,-5.85 -1.8,-7.6 Q 40.1,8.35 32.9,8.9"
         fill="#70381f"
         fill-rule="evenodd"
         stroke="none"
         id="path64" />
      <path
         d="M -32.9,8.9 -26,9.75 V 25.3 l -6.75,1 q -7.1,0.65 -8.8,-1 -1.9,-1.95 -1.8,-7.95 0.1,-5.85 1.8,-7.6 1.45,-1.4 8.65,-0.85"
         fill="#70381f"
         fill-rule="evenodd"
         stroke="none"
         id="path65" />
      <path
         d="M 41.9,24.85 V 23.5 q -0.1,-5.85 -1.85,-7.6 -1.4,-1.4 -8.6,-0.85 L 26,15.65 v 9.65 l 6.75,1 q 7.1,0.65 8.8,-1 l 0.35,-0.45"
         fill="#bf7926"
         fill-rule="evenodd"
         stroke="none"
         id="path66" />
      <path
         d="m -31.45,15.05 5.45,0.6 v 9.65 l -6.75,1 q -7.1,0.65 -8.8,-1 L -41.9,24.85 V 23.5 q 0.1,-5.85 1.85,-7.6 1.4,-1.4 8.6,-0.85"
         fill="#bf7926"
         fill-rule="evenodd"
         stroke="none"
         id="path67" />
      <path
         d="m 14.05,-12.85 q 6.8,2.7 12.05,7.95 5.05,5.05 7.65,12.85 2.3,7 2.3,15 0,8.7 -7.7,14.05 -9.4,6.6 -28.55,6.6 -19.15,0 -28.55,-6.6 -7.7,-5.35 -7.7,-14.05 0,-8 2.3,-15 2.6,-7.8 7.65,-12.85 5.25,-5.25 12.05,-7.95 6.65,-2.65 14.25,-2.65 7.6,0 14.25,2.65"
         fill="#70381f"
         fill-rule="evenodd"
         stroke="none"
         id="path68" />
      <path
         d="M 14.05,-12.85 Q 7.4,-15.5 -0.2,-15.5 q -7.6,0 -14.25,2.65 -6.8,2.7 -12.05,7.95 -5.05,5.05 -7.65,12.85 -2.3,7 -2.3,15 0,8.7 7.7,14.05 9.4,6.6 28.55,6.6 19.15,0 28.55,-6.6 7.7,-5.35 7.7,-14.05 0,-8 -2.3,-15 -2.6,-7.8 -7.65,-12.85 -5.25,-5.25 -12.05,-7.95 z"
         ffdec:has-small-stroke="true"
         ffdec:original-stroke-width="1.0"
         fill="none"
         stroke="#3c190a"
         stroke-linecap="round"
         stroke-linejoin="round"
         stroke-width="2.34124"
         id="path69" />
      <path
         d="m -12.3,-11.6 q -6.8,2.55 -12.05,7.55 Q -29.4,0.8 -32,8.2 q -2.3,6.7 -2.3,14.3 0,8.3 7.7,13.4 4.1,2.7 10.05,4.25 -7.7,-6.1 -7.7,-15.95 0,-9.15 2.3,-17.1 2.6,-8.85 7.65,-14.6 2.65,-3.05 5.75,-5.3 l -3.75,1.2"
         fill="#54230d"
         fill-rule="evenodd"
         stroke="none"
         id="path70" />
      <path
         d="m 13.6,44.7 q -5.7,1.95 -13.8,1.95 -8.1,0 -13.85,-1.95 -5.7,-1.85 -5.7,-4.55 l -0.1,-1 -1.1,-0.4 q -3.9,-1.55 -6.95,-3.9 -2.9,-2.2 -4.65,-4.8 1.65,-1.1 3.7,-2.15 4.1,-2.1 7.9,-2.65 3.6,-0.55 10.5,1.75 7.55,2.5 10.25,2.5 2.85,0 10.25,-2.55 6.8,-2.35 10.45,-1.85 3.7,0.55 8,2.55 3.65,2 3.85,2.05 -3.9,6.15 -11.85,9.05 l -1.1,0.35 -0.1,1.05 q 0,2.7 -5.7,4.55"
         fill="#a35d0d"
         fill-rule="evenodd"
         stroke="none"
         id="path71" />
      <path
         d="m 17.3,33.1 q -0.85,0.85 -0.85,2.1 0,1.2 0.85,2.1 0.9,0.85 2.1,0.85 1.25,0 2.1,-0.85 0.9,-0.9 0.9,-2.1 0,-1.25 -0.9,-2.1 -0.85,-0.9 -2.1,-0.9 -1.2,0 -2.1,0.9"
         fill="#000000"
         fill-rule="evenodd"
         stroke="none"
         id="path72" />
      <path
         d="m -22,33.1 q -0.85,0.85 -0.85,2.1 0,1.2 0.85,2.1 0.9,0.85 2.1,0.85 1.25,0 2.1,-0.85 0.9,-0.9 0.9,-2.1 0,-1.25 -0.9,-2.1 -0.85,-0.9 -2.1,-0.9 -1.2,0 -2.1,0.9"
         fill="#000000"
         fill-rule="evenodd"
         stroke="none"
         id="path73" />
      <path
         d="m -1.3,34.2 q 12.8,0.45 20.45,4.95 l 0.25,0.2 v 0.05 l -0.05,0.7 q 0,2.75 -5.75,4.6 -5.7,1.95 -13.85,1.95 -8.05,0 -13.8,-1.95 -5.7,-1.85 -5.7,-4.6 l -0.15,-0.9 0.25,-0.15 Q -11.9,34.7 -1.3,34.2"
         fill="#bf7926"
         fill-rule="evenodd"
         stroke="none"
         id="path74" />
    </g>
    <g
       id="use6"
       transform="rotate(-90,-0.15,-0.1)">
      <path
         d="m 9.4,14.9 v 0.15 q -0.05,0.85 -1.05,1.5 -1,0.65 -2.45,0.65 -1.35,0 -2.45,-0.65 -0.9,-0.65 -1,-1.5 v -9.1 -0.1 q 0.15,-0.9 1.1,-1.5 1,-0.7 2.4,-0.7 1.45,0 2.45,0.7 0.95,0.6 1,1.5 v 9.05"
         fill="#ffffff"
         fill-rule="evenodd"
         stroke="none"
         id="path75" />
      <path
         d="m 9.4,14.9 v 0.15 q -0.05,0.85 -1.05,1.5 -1,0.65 -2.45,0.65 -1.35,0 -2.45,-0.65 -0.9,-0.65 -1,-1.5 v -9.1 -0.1 q 0.15,-0.9 1.1,-1.5 1,-0.7 2.4,-0.7 1.45,0 2.45,0.7 0.95,0.6 1,1.5 z"
         fill="none"
         stroke="#191c1e"
         stroke-linecap="round"
         stroke-linejoin="round"
         stroke-width="2"
         id="path76" />
      <path
         d="m 9.45,5.75 v 9.2 H 2.5 v -9 -0.2 Q 2.55,4.95 3.5,4.3 4.55,3.65 6,3.65 q 1.4,0 2.4,0.65 0.95,0.65 1.05,1.45"
         fill="#555c72"
         fill-rule="evenodd"
         stroke="none"
         id="path77" />
      <path
         d="m 8.35,16.5 q -1,0.7 -2.4,0.7 -1.45,0 -2.45,-0.7 -1.05,-0.65 -1.05,-1.65 0,-0.95 1.05,-1.6 1,-0.7 2.45,-0.7 1.4,0 2.4,0.7 1.05,0.65 1.05,1.6 0,1 -1.05,1.65"
         fill="#3f434f"
         fill-rule="evenodd"
         stroke="none"
         id="path78" />
      <path
         d="M 7.75,16.2 5.85,16.65 4,16.2 Q 3.2,15.7 3.2,15 q 0,-0.65 0.8,-1.15 0.8,-0.5 1.85,-0.5 1.1,0 1.9,0.5 0.75,0.5 0.75,1.15 0,0.7 -0.75,1.2"
         fill="#3f9306"
         fill-rule="evenodd"
         stroke="none"
         id="path79" />
      <path
         d="m 7.8,15.35 q -0.85,0.5 -1.9,0.5 -1.1,0 -1.85,-0.5 Q 3.3,14.9 3.2,14.3 l 0.15,0.35 q 0.1,-0.45 0.7,-0.8 0.75,-0.45 1.85,-0.45 1.05,0 1.9,0.45 0.5,0.35 0.65,0.8 l -0.65,0.7"
         fill="#7cb421"
         fill-rule="evenodd"
         stroke="none"
         id="path80" />
    </g>
    <g
       id="use7"
       transform="matrix(0,-0.4271,0.4271,0,-9.05064,0.35095)">
      <g
         id="use80">
        <path
           d="m 22.6,-12.75 q 9.6,6.45 9.6,15.55 0,9.1 -9.6,15.6 -9.5,6.45 -23,6.45 -13.5,0 -23.05,-6.45 -9.5,-6.5 -9.5,-15.6 0,-9.1 9.5,-15.55 9.55,-6.5 23.05,-6.5 13.5,0 23,6.5 z"
           fill="none"
           stroke="#3d4a54"
           stroke-linecap="round"
           stroke-linejoin="round"
           stroke-width="4"
           id="path81" />
        <path
           d="m 22.6,-12.75 q 9.6,6.45 9.6,15.55 0,9.1 -9.6,15.6 -9.5,6.45 -23,6.45 -13.5,0 -23.05,-6.45 -9.5,-6.5 -9.5,-15.6 0,-9.1 9.5,-15.55 9.55,-6.5 23.05,-6.5 13.5,0 23,6.5"
           fill="#4c5f6d"
           fill-rule="evenodd"
           stroke="none"
           id="path82" />
        <path
           d="m 36.85,-2.55 v 0.6 L 37.1,1.5 q 0,9.75 -7.9,16.65 -7.9,6.9 -19.15,6.9 Q 1.2,25.05 -5.6,20.8 -17.4,19.7 -26.2,14.1 -37,7.15 -37,-2.55 q 0,-9.75 10.8,-16.65 10.8,-6.9 26.1,-6.9 15.3,0 26.05,6.9 10.9,6.9 10.9,16.65 z"
           fill="none"
           stroke="#416409"
           stroke-linecap="round"
           stroke-linejoin="round"
           stroke-width="5"
           id="path83" />
        <path
           d="M 36.85,-1.95 37.1,1.5 q 0,9.75 -7.9,16.65 -7.9,6.9 -19.15,6.9 Q 1.2,25.05 -5.6,20.8 -17.4,19.7 -26.2,14.1 -37,7.15 -37,-2.55 q 0,-9.75 10.8,-16.65 10.8,-6.9 26.1,-6.9 15.3,0 26.05,6.9 10.9,6.9 10.9,16.65 v 0.6"
           fill="#7cb421"
           fill-rule="evenodd"
           stroke="none"
           id="path84" />
        <path
           d="m 29.2,18.15 q -7.9,6.9 -19.15,6.9 -8.85,0 -15.65,-4.25 -11.8,-1.1 -20.6,-6.7 -6.75,-4.35 -9.25,-9.7 11.65,6.1 25.45,8 l 2.75,2.75 q 7.9,6.9 19.15,6.9 11.25,0 19.15,-6.9 2.25,-1.95 3.85,-4.1 -2,3.85 -5.7,7.1"
           fill="#3f9306"
           fill-rule="evenodd"
           stroke="none"
           id="path85" />
        <path
           d="m -26.2,-19.2 q 7.2,-4.6 16.4,-6.1 1.6,3.4 0.9,5.2 -0.8,2.15 -3.75,2.8 -3.3,0.8 -3.6,1.15 -0.6,0.65 0,3.05 0.7,2.9 0.2,4.9 -0.6,2.5 -3.75,3.4 l -4.65,0.35 q -1.15,-0.15 -3.8,-4.65 -2.15,-3.65 -2.05,-2.6 0.2,2.1 -0.55,3.35 -0.95,1.55 -3.55,2.15 l -2.2,0.05 q 1.65,-7.45 10.4,-13.05"
           fill="#3f9306"
           fill-rule="evenodd"
           stroke="none"
           id="path86" />
        <path
           d="M 6.35,-1.25 Q 5.9,-3.6 3.5,-5.25 1.8,-6.4 -0.35,-1 -2.9,5.5 -4.45,6.35 -6.85,7.7 -9.65,4.1 -12.3,0.65 -11.7,-1.6 q 0.4,-1.4 1.75,-1.65 1.2,-0.25 1.2,-0.95 0,-0.8 -1.85,-4.25 -1.25,-3.55 1.35,-6.05 2.85,-2.75 7.55,-2.3 3.7,0.35 6.65,2.2 1.65,1.05 1.7,4.55 0.05,3.25 0.85,3.5 0.95,0.3 1.2,-0.25 0.4,-0.85 1.5,-1.05 1.8,-0.35 2.7,1.4 0.95,1.9 0.45,5.55 -0.55,3.95 -3,7.4 Q 7.8,10.15 5.4,9.95 3.05,9.75 3,7.15 3,4.65 4.95,2.85 6.8,1.2 6.35,-1.25"
           fill="#bf7926"
           fill-rule="evenodd"
           stroke="none"
           id="path87" />
        <path
           d="m 25.95,-19.2 q 10.9,6.9 10.9,16.65 v 0.6 L 37.1,1.5 q 0,8.05 -5.4,14.2 -7.85,1.6 -11.65,0.45 Q 11.6,13.6 18.75,8.1 20.7,6.6 23.45,7.7 l 1.35,0.35 q 0.5,-0.1 0.5,-1.25 0,-1.55 -4,-2.3 -3.65,-0.7 -2.7,-3.2 1,-2.6 3.7,-4.35 2.6,-1.7 2.75,-2.45 Q 25.2,-6.1 24,-6.6 l -2.3,-1.2 q -2.95,-2.05 0.1,-7.15 1.6,-2.65 3.8,-4.45 l 0.35,0.2"
           fill="#3f9306"
           fill-rule="evenodd"
           stroke="none"
           id="path88" />
        <path
           d="m 18.7,-9.6 q -4.3,-0.55 -6.5,-3.5 -1.6,-2.15 0.9,-2.3 3.2,-0.2 3.2,-1.8 0,-1.95 -1.1,-2.55 l -2.9,-2.1 q -1.35,-1.5 -0.75,-3.1 8,1.65 14.4,5.75 4.5,2.85 7.15,6.15 -2.55,1.4 -5.35,2.3 -5.05,1.65 -9.05,1.15"
           fill="#bf7926"
           fill-rule="evenodd"
           stroke="none"
           id="path89" />
      </g>
    </g>
  </g>
  <defs
     id="defs46">
    <g
       id="shape0"
       transform="matrix(1.0, 0.0, 0.0, 1.0, 34.8, 33.0)">
      <path
         d="M1.5 -31.4 L10.45 -30.8 9.2 -20.1 2.0 -18.8 Q-6.3 -17.2 -11.9 -15.2 -14.6 -14.2 -18.2 -11.5 L-23.65 -7.35 Q-29.6 -3.35 -32.45 -7.65 -35.6 -12.6 -27.05 -20.45 -20.15 -26.85 -12.7 -29.8 -8.25 -31.55 1.5 -31.4"
         fill="#bf7926"
         fill-rule="evenodd"
         stroke="none"
         id="path7" />
      <path
         d="M1.95 -31.45 L10.85 -30.8 9.65 -20.15 2.45 -18.8 Q-5.9 -17.2 -11.5 -15.2 -14.15 -14.25 -17.7 -11.6 -22.85 -16.55 -28.0 -19.15 L-26.65 -20.45 Q-19.7 -26.9 -12.3 -29.85 -7.8 -31.6 1.95 -31.45"
         fill="#70381f"
         fill-rule="evenodd"
         stroke="none"
         id="path8" />
      <path
         d="M1.5 -31.5 Q-8.25 -31.65 -12.7 -29.9 -20.15 -26.95 -27.05 -20.5 L-28.4 -19.2 Q-35.35 -12.25 -32.45 -7.75 -29.6 -3.45 -23.65 -7.45 L-18.2 -11.6 -18.15 -11.7 -16.5 -12.8 -14.95 -13.8 -11.85 -15.25 Q-6.3 -17.3 2.05 -18.9 L9.2 -20.2 10.45 -30.9 1.5 -31.5 Z"
         fill="none"
         stroke="#3c190a"
         stroke-linecap="round"
         stroke-linejoin="round"
         stroke-width="3.0"
         id="path9" />
    </g>
    <g
       id="shape1"
       transform="matrix(1.0, 0.0, 0.0, 1.0, 3.35, 2.05)">
      <path
         d="M2.0 -0.75 L2.35 0.05 2.0 0.75 1.25 1.1 Q0.85 1.1 0.5 0.75 L0.3 0.5 -2.35 0.5 -2.35 -0.4 0.25 -0.4 0.5 -0.75 1.25 -1.05 2.0 -0.75"
         fill="#555c72"
         fill-rule="evenodd"
         stroke="none"
         id="path10" />
      <path
         d="M2.0 -0.75 L2.35 0.05 2.0 0.75 1.25 1.1 Q0.85 1.1 0.5 0.75 L0.3 0.5 -2.35 0.5 -2.35 -0.4 0.25 -0.4 0.5 -0.75 1.25 -1.05 2.0 -0.75 Z"
         fill="none"
         stroke="#191c1e"
         stroke-linecap="round"
         stroke-linejoin="round"
         stroke-width="2.0"
         id="path11" />
      <path
         d="M2.0 -0.75 L2.35 0.05 2.0 0.75 1.25 1.1 Q0.85 1.1 0.5 0.75 L0.3 0.5 -2.35 0.5 -2.35 -0.4 0.25 -0.4 0.5 -0.75 1.25 -1.05 2.0 -0.75"
         fill="#555c72"
         fill-rule="evenodd"
         stroke="none"
         id="path12" />
    </g>
    <g
       id="shape2"
       transform="matrix(1.0, 0.0, 0.0, 1.0, -2.95, -10.55)">
      <path
         d="M4.0 11.55 L7.75 11.55 7.75 30.85 Q7.75 31.3 7.2 31.65 6.65 32.05 5.85 32.05 5.1 32.05 4.5 31.65 3.95 31.3 3.95 30.85 L4.0 30.6 4.0 11.55"
         fill="#ffffff"
         fill-rule="evenodd"
         stroke="none"
         id="path13" />
      <path
         d="M4.0 11.55 L4.0 30.6 3.95 30.85 Q3.95 31.3 4.5 31.65 5.1 32.05 5.85 32.05 6.65 32.05 7.2 31.65 7.75 31.3 7.75 30.85 L7.75 11.55 4.0 11.55 Z"
         fill="none"
         stroke="#191c1e"
         stroke-linecap="round"
         stroke-linejoin="round"
         stroke-width="2.0"
         id="path14" />
      <path
         d="M3.95 11.55 L7.75 11.55 7.75 30.85 3.95 30.85 3.95 11.55"
         fill="#555c72"
         fill-rule="evenodd"
         stroke="none"
         id="path15" />
      <path
         d="M7.2 31.65 Q6.65 32.0 5.85 32.0 L4.5 31.65 Q3.95 31.3 3.95 30.8 3.95 30.3 4.5 29.95 5.05 29.6 5.85 29.6 6.65 29.6 7.2 29.95 7.75 30.3 7.75 30.8 7.75 31.3 7.2 31.65"
         fill="#3f434f"
         fill-rule="evenodd"
         stroke="none"
         id="path16" />
      <path
         d="M6.75 31.45 L5.85 31.6 4.95 31.45 4.6 31.0 Q4.6 30.75 4.95 30.55 L5.85 30.35 6.75 30.55 7.1 31.0 6.75 31.45"
         fill="#000000"
         fill-rule="evenodd"
         stroke="none"
         id="path17" />
    </g>
    <g
       id="shape3"
       transform="matrix(1.0, 0.0, 0.0, 1.0, 46.4, 48.15)">
      <path
         d="M13.8 -45.6 Q15.65 -43.75 16.95 -41.2 20.2 -34.75 15.95 -30.75 L15.9 -30.7 Q14.0 -28.75 10.95 -27.85 L10.9 -27.8 6.3 -26.95 2.7 -26.15 Q1.15 -25.55 0.15 -24.35 L0.1 -24.3 Q-1.2 -22.4 0.3 -19.5 L0.3 -19.45 2.1 -16.85 3.25 -15.5 Q4.15 -14.45 4.05 -13.0 3.95 -11.55 2.9 -10.6 1.8 -9.7 0.35 -9.8 -1.05 -9.9 -2.0 -10.95 L-3.15 -12.3 -3.2 -12.4 Q-4.75 -14.25 -5.8 -16.15 L-5.85 -16.2 Q-9.8 -23.85 -5.15 -28.8 L-5.1 -28.85 Q-3.0 -31.4 0.2 -32.65 L5.3 -33.8 9.0 -34.5 9.05 -34.5 Q10.2 -34.85 10.95 -35.55 11.55 -36.5 10.75 -38.05 L10.75 -38.1 8.85 -40.7 Q7.85 -41.7 7.85 -43.15 7.85 -44.6 8.85 -45.6 9.9 -46.65 11.3 -46.65 12.75 -46.65 13.8 -45.6"
         fill="#70381f"
         fill-rule="evenodd"
         stroke="none"
         id="path18" />
      <path
         d="M13.8 -45.6 Q12.75 -46.65 11.3 -46.65 9.9 -46.65 8.85 -45.6 7.85 -44.6 7.85 -43.15 7.85 -41.7 8.85 -40.7 L10.75 -38.1 10.75 -38.05 Q11.55 -36.5 10.95 -35.55 10.2 -34.85 9.05 -34.5 L9.0 -34.5 5.3 -33.8 0.2 -32.65 Q-3.0 -31.4 -5.1 -28.85 L-5.15 -28.8 Q-9.8 -23.85 -5.85 -16.2 L-5.8 -16.15 Q-4.75 -14.25 -3.2 -12.4 L-3.15 -12.3 -2.0 -10.95 Q-1.05 -9.9 0.35 -9.8 1.8 -9.7 2.9 -10.6 3.95 -11.55 4.05 -13.0 4.15 -14.45 3.25 -15.5 L2.1 -16.85 0.3 -19.45 0.3 -19.5 Q-1.2 -22.4 0.1 -24.3 L0.15 -24.35 Q1.15 -25.55 2.7 -26.15 L6.3 -26.95 10.9 -27.8 10.95 -27.85 Q14.0 -28.75 15.9 -30.7 L15.95 -30.75 Q20.2 -34.75 16.95 -41.2 15.65 -43.75 13.8 -45.6 Z"
         fill="none"
         stroke="#3c190a"
         stroke-linecap="round"
         stroke-linejoin="round"
         stroke-width="3.0"
         id="path19" />
      <path
         d="M-41.55 9.75 Q-40.3 8.5 -34.5 8.8 L-34.15 7.95 Q-31.6 0.15 -26.55 -4.9 -21.3 -10.15 -14.45 -12.85 -7.85 -15.5 -0.25 -15.5 7.35 -15.5 14.0 -12.85 20.8 -10.15 26.05 -4.9 31.1 0.15 33.7 7.95 L33.95 8.85 Q40.2 8.45 41.55 9.75 43.3 11.5 43.4 17.35 43.5 23.35 41.55 25.3 40.25 26.6 35.65 26.5 34.4 32.8 28.3 37.0 24.5 39.7 19.0 41.3 18.05 43.25 13.6 44.7 7.9 46.65 -0.25 46.65 -8.3 46.65 -14.05 44.7 -18.5 43.25 -19.5 41.3 -24.95 39.7 -28.8 37.0 -34.85 32.8 -36.15 26.5 -40.3 26.55 -41.55 25.3 -43.45 23.35 -43.4 17.35 -43.3 11.5 -41.55 9.75 Z"
         fill="none"
         stroke="#3c190a"
         stroke-linecap="round"
         stroke-linejoin="round"
         stroke-width="6.0"
         id="path20" />
      <path
         d="M32.9 8.9 L26.0 9.75 26.0 25.3 32.75 26.3 Q39.85 26.95 41.55 25.3 43.45 23.35 43.35 17.35 43.25 11.5 41.55 9.75 40.1 8.35 32.9 8.9"
         fill="#70381f"
         fill-rule="evenodd"
         stroke="none"
         id="path21" />
      <path
         d="M-32.9 8.9 L-26.0 9.75 -26.0 25.3 -32.75 26.3 Q-39.85 26.95 -41.55 25.3 -43.45 23.35 -43.35 17.35 -43.25 11.5 -41.55 9.75 -40.1 8.35 -32.9 8.9"
         fill="#70381f"
         fill-rule="evenodd"
         stroke="none"
         id="path22" />
      <path
         d="M41.9 24.85 L41.9 23.5 Q41.8 17.65 40.05 15.9 38.65 14.5 31.45 15.05 L26.0 15.65 26.0 25.3 32.75 26.3 Q39.85 26.95 41.55 25.3 L41.9 24.85"
         fill="#bf7926"
         fill-rule="evenodd"
         stroke="none"
         id="path23" />
      <path
         d="M-31.45 15.05 L-26.0 15.65 -26.0 25.3 -32.75 26.3 Q-39.85 26.95 -41.55 25.3 L-41.9 24.85 -41.9 23.5 Q-41.8 17.65 -40.05 15.9 -38.65 14.5 -31.45 15.05"
         fill="#bf7926"
         fill-rule="evenodd"
         stroke="none"
         id="path24" />
      <path
         d="M14.05 -12.85 Q20.85 -10.15 26.1 -4.9 31.15 0.15 33.75 7.95 36.05 14.95 36.05 22.95 36.05 31.65 28.35 37.0 18.95 43.6 -0.2 43.6 -19.35 43.6 -28.75 37.0 -36.45 31.65 -36.45 22.95 -36.45 14.95 -34.15 7.95 -31.55 0.15 -26.5 -4.9 -21.25 -10.15 -14.45 -12.85 -7.8 -15.5 -0.2 -15.5 7.4 -15.5 14.05 -12.85"
         fill="#70381f"
         fill-rule="evenodd"
         stroke="none"
         id="path25" />
      <path
         d="M14.05 -12.85 Q7.4 -15.5 -0.2 -15.5 -7.8 -15.5 -14.45 -12.85 -21.25 -10.15 -26.5 -4.9 -31.55 0.15 -34.15 7.95 -36.45 14.95 -36.45 22.95 -36.45 31.65 -28.75 37.0 -19.35 43.6 -0.2 43.6 18.95 43.6 28.35 37.0 36.05 31.65 36.05 22.95 36.05 14.95 33.75 7.95 31.15 0.15 26.1 -4.9 20.85 -10.15 14.05 -12.85 Z"
         ffdec:has-small-stroke="true"
         ffdec:original-stroke-width="1.0"
         fill="none"
         stroke="#3c190a"
         stroke-linecap="round"
         stroke-linejoin="round"
         stroke-width="2.341240354386968"
         id="path26" />
      <path
         d="M-12.3 -11.6 Q-19.1 -9.05 -24.35 -4.05 -29.4 0.8 -32.0 8.2 -34.3 14.9 -34.3 22.5 -34.3 30.8 -26.6 35.9 -22.5 38.6 -16.55 40.15 -24.25 34.05 -24.25 24.2 -24.25 15.05 -21.95 7.1 -19.35 -1.75 -14.3 -7.5 -11.65 -10.55 -8.55 -12.8 L-12.3 -11.6"
         fill="#54230d"
         fill-rule="evenodd"
         stroke="none"
         id="path27" />
      <path
         d="M13.6 44.7 Q7.9 46.65 -0.2 46.65 -8.3 46.65 -14.05 44.7 -19.75 42.85 -19.75 40.15 L-19.85 39.15 -20.95 38.75 Q-24.85 37.2 -27.9 34.85 -30.8 32.65 -32.55 30.05 -30.9 28.95 -28.85 27.9 -24.75 25.8 -20.95 25.25 -17.35 24.7 -10.45 27.0 -2.9 29.5 -0.2 29.5 2.65 29.5 10.05 26.95 16.85 24.6 20.5 25.1 24.2 25.65 28.5 27.65 32.15 29.65 32.35 29.7 28.45 35.85 20.5 38.75 L19.4 39.1 19.3 40.15 Q19.3 42.85 13.6 44.7"
         fill="#a35d0d"
         fill-rule="evenodd"
         stroke="none"
         id="path28" />
      <path
         d="M17.3 33.1 Q16.45 33.95 16.45 35.2 16.45 36.4 17.3 37.3 18.2 38.15 19.4 38.15 20.65 38.15 21.5 37.3 22.4 36.4 22.4 35.2 22.4 33.95 21.5 33.1 20.65 32.2 19.4 32.2 18.2 32.2 17.3 33.1"
         fill="#000000"
         fill-rule="evenodd"
         stroke="none"
         id="path29" />
      <path
         d="M-22.0 33.1 Q-22.85 33.95 -22.85 35.2 -22.85 36.4 -22.0 37.3 -21.1 38.15 -19.9 38.15 -18.65 38.15 -17.8 37.3 -16.9 36.4 -16.9 35.2 -16.9 33.95 -17.8 33.1 -18.65 32.2 -19.9 32.2 -21.1 32.2 -22.0 33.1"
         fill="#000000"
         fill-rule="evenodd"
         stroke="none"
         id="path30" />
      <path
         d="M-1.3 34.2 Q11.5 34.65 19.15 39.15 L19.4 39.35 19.4 39.4 19.35 40.1 Q19.35 42.85 13.6 44.7 7.9 46.65 -0.25 46.65 -8.3 46.65 -14.05 44.7 -19.75 42.85 -19.75 40.1 L-19.9 39.2 -19.65 39.05 Q-11.9 34.7 -1.3 34.2"
         fill="#bf7926"
         fill-rule="evenodd"
         stroke="none"
         id="path31" />
    </g>
    <g
       id="shape4"
       transform="matrix(1.0, 0.0, 0.0, 1.0, -1.45, -2.65)">
      <path
         d="M9.4 14.9 L9.4 15.05 Q9.35 15.9 8.35 16.55 7.35 17.2 5.9 17.2 4.55 17.2 3.45 16.55 2.55 15.9 2.45 15.05 L2.45 5.95 2.45 5.85 Q2.6 4.95 3.55 4.35 4.55 3.65 5.95 3.65 7.4 3.65 8.4 4.35 9.35 4.95 9.4 5.85 L9.4 14.9"
         fill="#ffffff"
         fill-rule="evenodd"
         stroke="none"
         id="path32" />
      <path
         d="M9.4 14.9 L9.4 15.05 Q9.35 15.9 8.35 16.55 7.35 17.2 5.9 17.2 4.55 17.2 3.45 16.55 2.55 15.9 2.45 15.05 L2.45 5.95 2.45 5.85 Q2.6 4.95 3.55 4.35 4.55 3.65 5.95 3.65 7.4 3.65 8.4 4.35 9.35 4.95 9.4 5.85 L9.4 14.9 Z"
         fill="none"
         stroke="#191c1e"
         stroke-linecap="round"
         stroke-linejoin="round"
         stroke-width="2.0"
         id="path33" />
      <path
         d="M9.45 5.75 L9.45 14.95 2.5 14.95 2.5 5.95 2.5 5.75 Q2.55 4.95 3.5 4.3 4.55 3.65 6.0 3.65 7.4 3.65 8.4 4.3 9.35 4.95 9.45 5.75"
         fill="#555c72"
         fill-rule="evenodd"
         stroke="none"
         id="path34" />
      <path
         d="M8.35 16.5 Q7.35 17.2 5.95 17.2 4.5 17.2 3.5 16.5 2.45 15.85 2.45 14.85 2.45 13.9 3.5 13.25 4.5 12.55 5.95 12.55 7.35 12.55 8.35 13.25 9.4 13.9 9.4 14.85 9.4 15.85 8.35 16.5"
         fill="#3f434f"
         fill-rule="evenodd"
         stroke="none"
         id="path35" />
      <path
         d="M7.75 16.2 L5.85 16.65 4.0 16.2 Q3.2 15.7 3.2 15.0 3.2 14.35 4.0 13.85 4.8 13.35 5.85 13.35 6.95 13.35 7.75 13.85 8.5 14.35 8.5 15.0 8.5 15.7 7.75 16.2"
         fill="#3f9306"
         fill-rule="evenodd"
         stroke="none"
         id="path36" />
      <path
         d="M7.8 15.35 Q6.95 15.85 5.9 15.85 4.8 15.85 4.05 15.35 3.3 14.9 3.2 14.3 L3.35 14.65 Q3.45 14.2 4.05 13.85 4.8 13.4 5.9 13.4 6.95 13.4 7.8 13.85 8.3 14.2 8.45 14.65 L7.8 15.35"
         fill="#7cb421"
         fill-rule="evenodd"
         stroke="none"
         id="path37" />
    </g>
    <g
       id="sprite0"
       transform="matrix(1.0, 0.0, 0.0, 1.0, 39.5, 28.6)">
      <use
         ffdec:characterId="2146"
         height="56.15"
         transform="matrix(1.0, 0.0, 0.0, 1.0, -39.5, -28.6)"
         width="79.1"
         xlink:href="#shape5"
         id="use37" />
    </g>
    <g
       id="shape5"
       transform="matrix(1.0, 0.0, 0.0, 1.0, 39.5, 28.6)">
      <path
         d="M22.6 -12.75 Q32.2 -6.3 32.2 2.8 32.2 11.9 22.6 18.4 13.1 24.85 -0.4 24.85 -13.9 24.85 -23.45 18.4 -32.95 11.9 -32.95 2.8 -32.95 -6.3 -23.45 -12.75 -13.9 -19.25 -0.4 -19.25 13.1 -19.25 22.6 -12.75 Z"
         fill="none"
         stroke="#3d4a54"
         stroke-linecap="round"
         stroke-linejoin="round"
         stroke-width="4.0"
         id="path38" />
      <path
         d="M22.6 -12.75 Q32.2 -6.3 32.2 2.8 32.2 11.9 22.6 18.4 13.1 24.85 -0.4 24.85 -13.9 24.85 -23.45 18.4 -32.95 11.9 -32.95 2.8 -32.95 -6.3 -23.45 -12.75 -13.9 -19.25 -0.4 -19.25 13.1 -19.25 22.6 -12.75"
         fill="#4c5f6d"
         fill-rule="evenodd"
         stroke="none"
         id="path39" />
      <path
         d="M36.85 -2.55 L36.85 -1.95 37.1 1.5 Q37.1 11.25 29.2 18.15 21.3 25.05 10.05 25.05 1.2 25.05 -5.6 20.8 -17.4 19.7 -26.2 14.1 -37.0 7.15 -37.0 -2.55 -37.0 -12.3 -26.2 -19.2 -15.4 -26.1 -0.1 -26.1 15.2 -26.1 25.95 -19.2 36.85 -12.3 36.85 -2.55 Z"
         fill="none"
         stroke="#416409"
         stroke-linecap="round"
         stroke-linejoin="round"
         stroke-width="5.0"
         id="path40" />
      <path
         d="M36.85 -1.95 L37.1 1.5 Q37.1 11.25 29.2 18.15 21.3 25.05 10.05 25.05 1.2 25.05 -5.6 20.8 -17.4 19.7 -26.2 14.1 -37.0 7.15 -37.0 -2.55 -37.0 -12.3 -26.2 -19.2 -15.4 -26.1 -0.1 -26.1 15.2 -26.1 25.95 -19.2 36.85 -12.3 36.85 -2.55 L36.85 -1.95"
         fill="#7cb421"
         fill-rule="evenodd"
         stroke="none"
         id="path41" />
      <path
         d="M29.2 18.15 Q21.3 25.05 10.05 25.05 1.2 25.05 -5.6 20.8 -17.4 19.7 -26.2 14.1 -32.95 9.75 -35.45 4.4 -23.8 10.5 -10.0 12.4 L-7.25 15.15 Q0.65 22.05 11.9 22.05 23.15 22.05 31.05 15.15 33.3 13.2 34.9 11.05 32.9 14.9 29.2 18.15"
         fill="#3f9306"
         fill-rule="evenodd"
         stroke="none"
         id="path42" />
      <path
         d="M-26.2 -19.2 Q-19.0 -23.8 -9.8 -25.3 -8.2 -21.9 -8.9 -20.1 -9.7 -17.95 -12.65 -17.3 -15.95 -16.5 -16.25 -16.15 -16.85 -15.5 -16.25 -13.1 -15.55 -10.2 -16.05 -8.2 -16.65 -5.7 -19.8 -4.8 L-24.45 -4.45 Q-25.6 -4.6 -28.25 -9.1 -30.4 -12.75 -30.3 -11.7 -30.1 -9.6 -30.85 -8.35 -31.8 -6.8 -34.4 -6.2 L-36.6 -6.15 Q-34.95 -13.6 -26.2 -19.2"
         fill="#3f9306"
         fill-rule="evenodd"
         stroke="none"
         id="path43" />
      <path
         d="M6.35 -1.25 Q5.9 -3.6 3.5 -5.25 1.8 -6.4 -0.35 -1.0 -2.9 5.5 -4.45 6.35 -6.85 7.7 -9.65 4.1 -12.3 0.65 -11.7 -1.6 -11.3 -3.0 -9.95 -3.25 -8.75 -3.5 -8.75 -4.2 -8.75 -5.0 -10.6 -8.45 -11.85 -12.0 -9.25 -14.5 -6.4 -17.25 -1.7 -16.8 2.0 -16.45 4.95 -14.6 6.6 -13.55 6.65 -10.05 6.7 -6.8 7.5 -6.55 8.45 -6.25 8.7 -6.8 9.1 -7.65 10.2 -7.85 12.0 -8.2 12.9 -6.45 13.85 -4.55 13.35 -0.9 12.8 3.05 10.35 6.5 7.8 10.15 5.4 9.95 3.05 9.75 3.0 7.15 3.0 4.65 4.95 2.85 6.8 1.2 6.35 -1.25"
         fill="#bf7926"
         fill-rule="evenodd"
         stroke="none"
         id="path44" />
      <path
         d="M25.95 -19.2 Q36.85 -12.3 36.85 -2.55 L36.85 -1.95 37.1 1.5 Q37.1 9.55 31.7 15.7 23.85 17.3 20.05 16.15 11.6 13.6 18.75 8.1 20.7 6.6 23.45 7.7 L24.8 8.05 Q25.3 7.95 25.3 6.8 25.3 5.25 21.3 4.5 17.65 3.8 18.6 1.3 19.6 -1.3 22.3 -3.05 24.9 -4.75 25.05 -5.5 25.2 -6.1 24.0 -6.6 L21.7 -7.8 Q18.75 -9.85 21.8 -14.95 23.4 -17.6 25.6 -19.4 L25.95 -19.2"
         fill="#3f9306"
         fill-rule="evenodd"
         stroke="none"
         id="path45" />
      <path
         d="M18.7 -9.6 Q14.4 -10.15 12.2 -13.1 10.6 -15.25 13.1 -15.4 16.3 -15.6 16.3 -17.2 16.3 -19.15 15.2 -19.75 L12.3 -21.85 Q10.95 -23.35 11.55 -24.95 19.55 -23.3 25.95 -19.2 30.45 -16.35 33.1 -13.05 30.55 -11.65 27.75 -10.75 22.7 -9.1 18.7 -9.6"
         fill="#bf7926"
         fill-rule="evenodd"
         stroke="none"
         id="path46" />
    </g>
  </defs>
</svg>
