<?xml version="1.0" encoding="UTF-8" standalone="no"?>
<svg
   ffdec:objectType="frame"
   height="48.15px"
   width="49.9px"
   version="1.1"
   id="svg45"
   sodipodi:docname="1.svg"
   inkscape:version="1.4.2 (f4327f4, 2025-05-13)"
   xmlns:inkscape="http://www.inkscape.org/namespaces/inkscape"
   xmlns:sodipodi="http://sodipodi.sourceforge.net/DTD/sodipodi-0.dtd"
   xmlns:xlink="http://www.w3.org/1999/xlink"
   xmlns="http://www.w3.org/2000/svg"
   xmlns:svg="http://www.w3.org/2000/svg"
   xmlns:ffdec="https://www.free-decompiler.com/flash">
  <sodipodi:namedview
     id="namedview45"
     pagecolor="#505050"
     bordercolor="#eeeeee"
     borderopacity="1"
     inkscape:showpageshadow="0"
     inkscape:pageopacity="0"
     inkscape:pagecheckerboard="0"
     inkscape:deskcolor="#505050"
     inkscape:zoom="8.5689885"
     inkscape:cx="47.321805"
     inkscape:cy="52.9234"
     inkscape:window-width="2560"
     inkscape:window-height="1369"
     inkscape:window-x="-8"
     inkscape:window-y="-8"
     inkscape:window-maximized="1"
     inkscape:current-layer="g5" />
  <g
     transform="matrix(1.0, 0.0, 0.0, 1.0, 1.8, 1.6)"
     id="g5">
    <filter
       id="filter0"
       x="-0.014039278"
       y="-0.011608715"
       width="1.0590526"
       height="1.0322638">
      <feOffset
         dx="1.41423199166404"
         dy="1.4141951328419862"
         in="SourceGraphic"
         result="filterResult0"
         id="feOffset1" />
      <feColorMatrix
         in="filterResult0"
         result="filterResult1"
         type="matrix"
         values="0 0 0 0 0.0,0 0 0 0 0.0,0 0 0 0 0.0,0 0 0 1 0"
         id="feColorMatrix1" />
      <feColorMatrix
         in="filterResult1"
         result="filterResult2"
         type="matrix"
         values="1 0 0 0 0,0 1 0 0 0,0 0 1 0 0,0 0 0 0.19921875 0"
         id="feColorMatrix2" />
      <feComposite
         in="SourceGraphic"
         in2="filterResult2"
         operator="over"
         result="filterResult3"
         id="feComposite2" />
    </filter>
    <g
       id="use2"
       transform="matrix(-0.35,0,0,-0.35,21.8995,19.8493)"
       style="filter:url(#filter0)">
      <g
         id="use47"
         transform="matrix(1.0337,0,0,1.0337,-6.948065,-5.19787)">
        <path
           d="m -47.6,2.1 q -6.4,23.65 29.7,33.95 l 2.25,-0.25 q 1.1,-0.65 1.45,-1.8 0.3,-1.2 -0.25,-2.3 -0.65,-1.1 -1.8,-1.4 -29.6,-8.45 -25.55,-26.75 5.3,-20.25 47.3,-52 1,-0.75 1.2,-2 0.15,-1.2 -0.6,-2.2 -0.75,-1 -2,-1.15 Q 2.9,-54 1.9,-53.25 -42.5,-19.7 -47.6,2.1"
           fill="#666600"
           fill-rule="evenodd"
           stroke="none"
           id="path52" />
        <path
           d="m -47.6,2.1 q 5.1,-21.8 49.5,-55.35 1,-0.75 2.2,-0.55 1.25,0.15 2,1.15 0.75,1 0.6,2.2 -0.2,1.25 -1.2,2 -42,31.75 -47.3,52 -4.05,18.3 25.55,26.75 1.15,0.3 1.8,1.4 0.55,1.1 0.25,2.3 -0.35,1.15 -1.45,1.8 l -2.25,0.25 Q -54,25.75 -47.6,2.1 Z"
           ffdec:has-small-stroke="true"
           ffdec:original-stroke-width="0.0"
           fill="none"
           stroke="#000000"
           stroke-linecap="round"
           stroke-linejoin="round"
           stroke-opacity="0"
           stroke-width="2.76417"
           id="path53" />
      </g>
      <g
         id="use48"
         transform="matrix(1.0337,0,0,1.0337,-6.948065,-5.19792)">
        <path
           d="m -47.6,2.1 q 5.1,-21.8 49.5,-55.35 3.45,-0.4 4.2,0.6 0.75,1 0.6,2.2 -0.2,1.25 -1.2,2 -42,31.75 -47.3,52 -4.05,18.3 25.55,26.75 1.15,0.3 1.8,1.4 0.55,1.1 0.25,2.3 -0.35,1.15 -1.45,1.8 l -2.25,0.25 Q -54,25.75 -47.6,2.1 q 5.1,-21.8 49.5,-55.35 3.45,-0.4 4.2,0.6 0.75,1 0.6,2.2 -0.2,1.25 -1.2,2 -42,31.75 -47.3,52 -4.05,18.3 25.55,26.75 1.15,0.3 1.8,1.4 0.55,1.1 0.25,2.3 -0.35,1.15 -1.45,1.8 l -2.25,0.25 Q -54,25.75 -47.6,2.1 Z"
           ffdec:has-small-stroke="true"
           ffdec:original-stroke-width="2.0"
           fill="none"
           stroke="#3a3a00"
           stroke-linecap="round"
           stroke-linejoin="round"
           stroke-width="2.76417"
           id="path54" />
      </g>
      <g
         id="use49"
         transform="matrix(1.0337,0,0,1.0337,0.70077,19.900755)">
        <path
           d="M 16.1,-7.2 18.7,-15.8 8.15,-18.35 4.45,-12 Q 0.1,-4.7 -3.75,-0.2 -5.6,2 -9.35,4.5 l -5.8,3.65 q -5.85,4.15 -2.7,8.35 3.5,4.65 13.85,-0.65 8.4,-4.3 13.7,-10.2 3.2,-3.6 6.4,-12.85"
           fill="#bf7926"
           fill-rule="evenodd"
           stroke="none"
           id="path55" />
        <path
           d="m 16.1,-6.85 2.55,-8.6 -10.5,-2.55 -3.7,6.3 q -4.4,7.3 -8.25,11.85 -1.75,2.15 -5.5,4.6 2.85,6.5 3.55,12.25 l 1.7,-0.85 Q 4.4,11.9 9.7,6 12.9,2.4 16.1,-6.85"
           fill="#70381f"
           fill-rule="evenodd"
           stroke="none"
           id="path56" />
        <path
           d="m 16.45,-7.5 q -3.25,9.25 -6.4,12.8 -5.4,5.9 -13.8,10.2 l -1.7,0.85 q -8.9,4.1 -12.1,-0.15 -3.1,-4.2 2.75,-8.35 l 5.75,-3.7 0.1,-0.1 1.6,-1.1 1.45,-1.1 2.45,-2.35 Q 0.4,-5.1 4.8,-12.4 l 3.65,-6.25 10.5,2.55 z"
           fill="none"
           stroke="#3c190a"
           stroke-linecap="round"
           stroke-linejoin="round"
           stroke-width="3"
           id="path57" />
      </g>
      <g
         id="use50"
         transform="matrix(1.0337,0,0,1.0337,-3.39899,-49.09899)">
        <path
           d="m -17.55,17.6 q 7.3,7.2 17.55,7.2 10.3,0 17.5,-7.2 7.3,-7.3 7.3,-17.6 0,-10.25 -7.3,-17.45 -7.2,-7.35 -17.5,-7.35 -10.25,0 -17.55,7.35 -7.25,7.2 -7.25,17.45 0,10.3 7.25,17.6"
           fill="#cd960d"
           fill-rule="evenodd"
           stroke="none"
           id="path58" />
        <path
           d="m -14.35,10.3 q 6,5.9 14.4,5.9 8.4,0 14.35,-5.9 5.95,-6 5.95,-14.4 0,-8.45 -5.95,-14.35 -5.95,-6 -14.35,-6 -8.4,0 -14.4,6 -5.9,5.9 -5.9,14.35 0,8.4 5.9,14.4"
           fill="#ffcc33"
           fill-rule="evenodd"
           stroke="none"
           id="path59" />
        <path
           d="m -17.55,17.6 q 7.3,7.2 17.55,7.2 10.3,0 17.5,-7.2 7.3,-7.3 7.3,-17.6 0,-10.25 -7.3,-17.45 -7.2,-7.35 -17.5,-7.35 -10.25,0 -17.55,7.35 -7.25,7.2 -7.25,17.45 0,10.3 7.25,17.6 z"
           fill="none"
           stroke="#856301"
           stroke-linecap="round"
           stroke-linejoin="round"
           stroke-width="3"
           id="path60" />
        <path
           d="m 5.45,-11.2 q -2.25,-2.25 -5.5,-2.25 -3.25,0 -5.5,2.25 -2.25,2.25 -2.25,5.5 0,3.25 2.25,5.5 2.25,2.25 5.5,2.25 3.25,0 5.5,-2.25 2.25,-2.25 2.25,-5.5 0,-3.25 -2.25,-5.5"
           fill="#cd960d"
           fill-rule="evenodd"
           stroke="none"
           id="path61" />
        <path
           d="m 5.45,-16.8 q -2.25,-2.25 -5.5,-2.25 -3.25,0 -5.5,2.25 -2.25,2.25 -2.25,5.5 0,3.25 2.25,5.5 2.25,2.25 5.5,2.25 3.25,0 5.5,-2.25 2.25,-2.25 2.25,-5.5 0,-3.25 -2.25,-5.5"
           fill="#666666"
           fill-rule="evenodd"
           stroke="none"
           id="path62" />
        <path
           d="m -0.05,-18.9 1.65,0.15 q 1.6,0.4 2.85,1.65 1.85,1.85 1.85,4.55 0,2.65 -1.85,4.55 -1.9,1.85 -4.55,1.85 -2.7,0 -4.55,-1.85 -1.85,-1.9 -1.85,-4.55 0,-2.7 1.85,-4.55 1.05,-1.05 2.4,-1.5 l 2.2,-0.3"
           fill="#9c9c9c"
           fill-rule="evenodd"
           stroke="none"
           id="path63" />
        <path
           d="m -0.05,-19.05 q -3.25,0 -5.5,2.25 -2.25,2.25 -2.25,5.5 0,3.25 2.25,5.5 2.25,2.25 5.5,2.25 3.25,0 5.5,-2.25 2.25,-2.25 2.25,-5.5 0,-3.25 -2.25,-5.5 -2.25,-2.25 -5.5,-2.25 z"
           ffdec:has-small-stroke="true"
           ffdec:original-stroke-width="2.0"
           fill="none"
           stroke="#333333"
           stroke-linecap="round"
           stroke-linejoin="round"
           stroke-width="2.76417"
           id="path64" />
      </g>
      <g
         id="use51"
         transform="matrix(1.0337,0,0,0.9218,-17.949575,36.2489)">
        <path
           d="m 6.15,-18.65 v 32.1 h -11.9 v -32.1 h 11.9"
           fill="#727272"
           fill-rule="evenodd"
           stroke="none"
           id="path65" />
        <path
           d="m 3.5,-18.55 v 32.1 h 0.6 v -32.1 H 3.5 m -3.7,0 v 32.1 h 2.35 v -32.1 H -0.2"
           fill="#ffffff"
           fill-opacity="0.658824"
           fill-rule="evenodd"
           stroke="none"
           id="path66" />
        <path
           d="m 6.15,-18.65 v 32.1 h -11.9 v -32.1 z"
           ffdec:has-small-stroke="true"
           ffdec:original-stroke-width="2.0"
           fill="none"
           stroke="#2e2d2d"
           stroke-linecap="round"
           stroke-linejoin="round"
           stroke-width="2.91746"
           id="path67" />
        <path
           d="M 9.25,-24.5 V -3.35 H -9.25 V -24.5 h 18.5"
           fill="#666600"
           fill-rule="evenodd"
           stroke="none"
           id="path68" />
        <path
           d="m 5.05,-24.5 v 21.15 h 0.9 V -24.5 h -0.9 m -5.8,0 V -3.35 H 2.9 V -24.5 h -3.65"
           fill="#ffffff"
           fill-opacity="0.658824"
           fill-rule="evenodd"
           stroke="none"
           id="path69" />
        <path
           d="M 9.25,-24.5 V -3.35 H -9.25 V -24.5 Z"
           ffdec:has-small-stroke="true"
           ffdec:original-stroke-width="2.0"
           fill="none"
           stroke="#3a3a00"
           stroke-linecap="round"
           stroke-linejoin="round"
           stroke-width="2.91746"
           id="path70" />
        <path
           d="M 6.25,24.5 H -5.9 L -8.65,13.4 H 9 L 6.25,24.5"
           fill="#666600"
           fill-rule="evenodd"
           stroke="none"
           id="path71" />
        <path
           d="m 4.9,13.05 v 11.1 H 5.75 V 13.05 H 4.9 m -5.5,0 v 11.1 H 2.85 V 13.05 H -0.6"
           fill="#ffffff"
           fill-opacity="0.658824"
           fill-rule="evenodd"
           stroke="none"
           id="path72" />
        <path
           d="M 6.25,24.5 H -5.9 L -8.65,13.4 H 9 Z"
           ffdec:has-small-stroke="true"
           ffdec:original-stroke-width="2.0"
           fill="none"
           stroke="#3a3a00"
           stroke-linecap="round"
           stroke-linejoin="round"
           stroke-width="2.91746"
           id="path73" />
      </g>
      <g
         id="use52"
         transform="matrix(1.0337,0,0,1.0337,-1.64822,-4.848715)">
        <path
           d="m -41.55,9.75 q -1.9,-1.95 -1.85,-7.95 0.1,-5.85 1.85,-7.6 1.25,-1.25 7.05,-0.95 l 0.35,-0.85 q 2.55,-7.8 7.6,-12.85 5.25,-5.25 12.1,-7.95 6.6,-2.65 14.2,-2.65 7.6,0 14.25,2.65 6.8,2.7 12.05,7.95 5.05,5.05 7.65,12.85 l 0.25,0.9 q 6.25,-0.4 7.6,0.9 1.75,1.75 1.85,7.6 0.1,6 -1.85,7.95 -1.3,1.3 -5.9,1.2 -1.25,6.3 -7.35,10.5 -3.8,2.7 -9.3,4.3 -0.95,1.95 -5.4,3.4 -5.7,1.95 -13.85,1.95 -8.05,0 -13.8,-1.95 -4.45,-1.45 -5.45,-3.4 -5.45,-1.6 -9.3,-4.3 -6.05,-4.2 -7.35,-10.5 -4.15,0.05 -5.4,-1.2 z"
           fill="none"
           stroke="#3c190a"
           stroke-linecap="round"
           stroke-linejoin="round"
           stroke-width="6"
           id="path74" />
        <path
           d="M 32.9,-6.65 26,-5.8 V 9.75 l 6.75,1 q 7.1,0.65 8.8,-1 1.9,-1.95 1.8,-7.95 -0.1,-5.85 -1.8,-7.6 -1.45,-1.4 -8.65,-0.85"
           fill="#70381f"
           fill-rule="evenodd"
           stroke="none"
           id="path75" />
        <path
           d="M 41.9,9.3 V 7.95 Q 41.8,2.1 40.05,0.35 38.65,-1.05 31.45,-0.5 L 26,0.1 v 9.65 l 6.75,1 q 7.1,0.65 8.8,-1 L 41.9,9.3"
           fill="#bf7926"
           fill-rule="evenodd"
           stroke="none"
           id="path76" />
        <path
           d="M -32.9,-6.65 -26,-5.8 V 9.75 l -6.75,1 q -7.1,0.65 -8.8,-1 -1.9,-1.95 -1.8,-7.95 0.1,-5.85 1.8,-7.6 1.45,-1.4 8.65,-0.85"
           fill="#70381f"
           fill-rule="evenodd"
           stroke="none"
           id="path77" />
        <path
           d="M -41.9,9.3 V 7.95 q 0.1,-5.85 1.85,-7.6 1.4,-1.4 8.6,-0.85 L -26,0.1 v 9.65 l -6.75,1 q -7.1,0.65 -8.8,-1 L -41.9,9.3"
           fill="#bf7926"
           fill-rule="evenodd"
           stroke="none"
           id="path78" />
        <path
           d="m 14.05,-28.4 q 6.8,2.7 12.05,7.95 5.05,5.05 7.65,12.85 2.3,7 2.3,15 0,8.7 -7.7,14.05 -9.4,6.6 -28.55,6.6 -19.15,0 -28.55,-6.6 -7.7,-5.35 -7.7,-14.05 0,-8 2.3,-15 2.6,-7.8 7.65,-12.85 5.25,-5.25 12.05,-7.95 6.65,-2.65 14.25,-2.65 7.6,0 14.25,2.65"
           fill="#70381f"
           fill-rule="evenodd"
           stroke="none"
           id="path79" />
        <path
           d="m 14.05,-28.4 q -6.65,-2.65 -14.25,-2.65 -7.6,0 -14.25,2.65 -6.8,2.7 -12.05,7.95 -5.05,5.05 -7.65,12.85 -2.3,7 -2.3,15 0,8.7 7.7,14.05 9.4,6.6 28.55,6.6 19.15,0 28.55,-6.6 7.7,-5.35 7.7,-14.05 0,-8 -2.3,-15 -2.6,-7.8 -7.65,-12.85 -5.25,-5.25 -12.05,-7.95 z"
           ffdec:has-small-stroke="true"
           ffdec:original-stroke-width="1.0"
           fill="none"
           stroke="#3c190a"
           stroke-linecap="round"
           stroke-linejoin="round"
           stroke-width="2.76417"
           id="path80" />
        <path
           d="m -14.3,-23.05 q 2.65,-3.05 5.75,-5.3 l -3.75,1.2 q -6.8,2.55 -12.05,7.55 -5.05,4.85 -7.65,12.25 -2.3,6.7 -2.3,14.3 0,8.3 7.7,13.4 4.1,2.7 10.05,4.25 -7.7,-6.1 -7.7,-15.95 0,-9.15 2.3,-17.1 2.6,-8.85 7.65,-14.6"
           fill="#54230d"
           fill-rule="evenodd"
           stroke="none"
           id="path81" />
        <path
           d="m -10.45,11.45 q -6.9,-2.3 -10.5,-1.75 -3.8,0.55 -7.9,2.65 -2.05,1.05 -3.7,2.15 1.75,2.6 4.65,4.8 3.05,2.35 6.95,3.9 l 1.1,0.4 0.1,1 q 0,2.7 5.7,4.55 5.75,1.95 13.85,1.95 8.1,0 13.8,-1.95 5.7,-1.85 5.7,-4.55 l 0.1,-1.05 1.1,-0.35 q 7.95,-2.9 11.85,-9.05 -0.2,-0.05 -3.85,-2.05 -4.3,-2 -8,-2.55 -3.65,-0.5 -10.45,1.85 -7.4,2.55 -10.25,2.55 -2.7,0 -10.25,-2.5"
           fill="#a35d0d"
           fill-rule="evenodd"
           stroke="none"
           id="path82" />
        <path
           d="m 17.3,21.75 q 0.9,0.85 2.1,0.85 1.25,0 2.1,-0.85 0.9,-0.9 0.9,-2.1 0,-1.25 -0.9,-2.1 -0.85,-0.9 -2.1,-0.9 -1.2,0 -2.1,0.9 -0.85,0.85 -0.85,2.1 0,1.2 0.85,2.1"
           fill="#000000"
           fill-rule="evenodd"
           stroke="none"
           id="path83" />
        <path
           d="m -22,21.75 q 0.9,0.85 2.1,0.85 1.25,0 2.1,-0.85 0.9,-0.9 0.9,-2.1 0,-1.25 -0.9,-2.1 -0.85,-0.9 -2.1,-0.9 -1.2,0 -2.1,0.9 -0.85,0.85 -0.85,2.1 0,1.2 0.85,2.1"
           fill="#000000"
           fill-rule="evenodd"
           stroke="none"
           id="path84" />
        <path
           d="m -19.85,23.65 0.25,-0.15 q 7.75,-4.35 18.35,-4.85 12.8,0.45 20.45,4.95 l 0.25,0.2 v 0.05 l -0.05,0.7 q 0,2.75 -5.75,4.6 -5.7,1.95 -13.85,1.95 -8.05,0 -13.8,-1.95 -5.7,-1.85 -5.7,-4.6 l -0.15,-0.9"
           fill="#bf7926"
           fill-rule="evenodd"
           stroke="none"
           id="path85" />
      </g>
    </g>
    <filter
       id="filter1"
       x="0"
       y="0"
       width="1"
       height="1">
      <feColorMatrix
         in="SourceGraphic"
         result="filterResult4"
         type="matrix"
         values="0 0 0 0 0.2,0 0 0 0 0.2,0 0 0 0 0.2,0 0 0 1 0"
         id="feColorMatrix3" />
      <feConvolveMatrix
         divisor="9.0"
         in="filterResult4"
         kernelMatrix="1 1 1 1 1 1 1 1 1"
         order="3 3"
         result="filterResult5"
         id="feConvolveMatrix3" />
      <feConvolveMatrix
         divisor="9.0"
         in="filterResult5"
         kernelMatrix="1 1 1 1 1 1 1 1 1"
         order="3 3"
         result="filterResult6"
         id="feConvolveMatrix4" />
      <feConvolveMatrix
         divisor="9.0"
         in="filterResult6"
         kernelMatrix="1 1 1 1 1 1 1 1 1"
         order="3 3"
         result="filterResult7"
         id="feConvolveMatrix5" />
      <feComposite
         in="SourceGraphic"
         in2="filterResult7"
         operator="over"
         result="filterResult8"
         id="feComposite5" />
    </filter>
    <g
       id="lock_mc"
       style="filter:url(#filter1)"
       transform="translate(12,7.35)" />
  </g>
  <defs
     id="defs45">
    <g
       id="shape0"
       transform="matrix(1.0, 0.0, 0.0, 1.0, 1.25, 1.05)">
      <path
         d="M42.55 43.05 L1.45 44.5 -0.25 0.0 46.45 3.0 42.55 43.05"
         fill="#ffffff"
         fill-opacity="0.49803922"
         fill-rule="evenodd"
         stroke="none"
         id="path5" />
      <path
         d="M42.55 43.05 L1.45 44.5 -0.25 0.0 46.45 3.0 42.55 43.05 Z"
         fill="none"
         stroke="#000000"
         stroke-linecap="butt"
         stroke-linejoin="miter-clip"
         stroke-miterlimit="3.0"
         stroke-opacity="0.49803922"
         stroke-width="2.0"
         id="path6" />
    </g>
    <g
       id="sprite0"
       transform="matrix(1.0, 0.0, 0.0, 1.0, 58.15, 76.3)">
      <use
         ffdec:characterId="5092"
         height="90.05"
         transform="matrix(1.0337, 0.0, 0.0, 1.0337, -57.1342, -60.9143)"
         width="55.25"
         xlink:href="#morphshape0"
         id="use6" />
      <use
         ffdec:characterId="5093"
         height="91.55"
         transform="matrix(1.0337, 0.0, 0.0, 1.0337, -58.1679, -61.4312)"
         width="57.25"
         xlink:href="#morphshape1"
         id="use7" />
      <use
         ffdec:characterId="5094"
         height="40.0"
         transform="matrix(1.0337, 0.0, 0.0, 1.0337, -20.0766, -0.9283)"
         width="40.55"
         xlink:href="#shape1"
         id="use8" />
      <use
         ffdec:characterId="5095"
         height="52.6"
         transform="matrix(1.0337, 0.0, 0.0, 1.0337, -30.5853, -76.2853)"
         width="52.6"
         xlink:href="#shape2"
         id="use9" />
      <use
         ffdec:characterId="5096"
         height="51.0"
         transform="matrix(1.0337, 0.0, 0.0, 0.9218, -28.545, 12.743)"
         width="20.5"
         xlink:href="#shape3"
         id="use10" />
      <use
         ffdec:characterId="5097"
         height="68.15"
         transform="matrix(1.0337, 0.0, 0.0, 1.0337, -49.6119, -40.0462)"
         width="92.8"
         xlink:href="#shape4"
         id="use11" />
    </g>
    <g
       id="morphshape0"
       transform="matrix(1.0, 0.0, 0.0, 1.0, 48.55, 53.9)">
      <path
         d="M-47.6 2.1 Q-54.0 25.75 -17.9 36.05 L-15.65 35.8 Q-14.55 35.15 -14.2 34.0 -13.9 32.8 -14.45 31.7 -15.1 30.6 -16.25 30.3 -45.85 21.85 -41.8 3.55 -36.5 -16.7 5.5 -48.45 6.5 -49.2 6.7 -50.45 6.85 -51.65 6.1 -52.65 5.35 -53.65 4.1 -53.8 2.9 -54.0 1.9 -53.25 -42.5 -19.7 -47.6 2.1"
         fill="#666600"
         fill-rule="evenodd"
         stroke="none"
         id="path11" />
      <path
         d="M-47.6 2.1 Q-42.5 -19.7 1.9 -53.25 2.9 -54.0 4.1 -53.8 5.35 -53.65 6.1 -52.65 6.85 -51.65 6.7 -50.45 6.5 -49.2 5.5 -48.45 -36.5 -16.7 -41.8 3.55 -45.85 21.85 -16.25 30.3 -15.1 30.6 -14.45 31.7 -13.9 32.8 -14.2 34.0 -14.55 35.15 -15.65 35.8 L-17.9 36.05 Q-54.0 25.75 -47.6 2.1 Z"
         ffdec:has-small-stroke="true"
         ffdec:original-stroke-width="0.0"
         fill="none"
         stroke="#000000"
         stroke-linecap="round"
         stroke-linejoin="round"
         stroke-opacity="0.0"
         stroke-width="2.764173073913108"
         id="path12" />
    </g>
    <g
       id="morphshape1"
       transform="matrix(1.0, 0.0, 0.0, 1.0, 49.55, 54.4)">
      <path
         d="M-47.6 2.1 Q-42.5 -19.7 1.9 -53.25 5.35 -53.65 6.1 -52.65 6.85 -51.65 6.7 -50.45 6.5 -49.2 5.5 -48.45 -36.5 -16.7 -41.8 3.55 -45.85 21.85 -16.25 30.3 -15.1 30.6 -14.45 31.7 -13.9 32.8 -14.2 34.0 -14.55 35.15 -15.65 35.8 L-17.9 36.05 Q-54.0 25.75 -47.6 2.1 -42.5 -19.7 1.9 -53.25 5.35 -53.65 6.1 -52.65 6.85 -51.65 6.7 -50.45 6.5 -49.2 5.5 -48.45 -36.5 -16.7 -41.8 3.55 -45.85 21.85 -16.25 30.3 -15.1 30.6 -14.45 31.7 -13.9 32.8 -14.2 34.0 -14.55 35.15 -15.65 35.8 L-17.9 36.05 Q-54.0 25.75 -47.6 2.1 Z"
         ffdec:has-small-stroke="true"
         ffdec:original-stroke-width="2.0"
         fill="none"
         stroke="#3a3a00"
         stroke-linecap="round"
         stroke-linejoin="round"
         stroke-width="2.764173073913108"
         id="path13" />
    </g>
    <g
       id="shape1"
       transform="matrix(1.0, 0.0, 0.0, 1.0, 20.1, 20.15)">
      <path
         d="M16.1 -7.2 L18.7 -15.8 8.15 -18.35 4.45 -12.0 Q0.1 -4.7 -3.75 -0.2 -5.6 2.0 -9.35 4.5 L-15.15 8.15 Q-21.0 12.3 -17.85 16.5 -14.35 21.15 -4.0 15.85 4.4 11.55 9.7 5.65 12.9 2.05 16.1 -7.2"
         fill="#bf7926"
         fill-rule="evenodd"
         stroke="none"
         id="path14" />
      <path
         d="M16.1 -6.85 L18.65 -15.45 8.15 -18.0 4.45 -11.7 Q0.05 -4.4 -3.8 0.15 -5.55 2.3 -9.3 4.75 -6.45 11.25 -5.75 17.0 L-4.05 16.15 Q4.4 11.9 9.7 6.0 12.9 2.4 16.1 -6.85"
         fill="#70381f"
         fill-rule="evenodd"
         stroke="none"
         id="path15" />
      <path
         d="M16.45 -7.5 Q13.2 1.75 10.05 5.3 4.65 11.2 -3.75 15.5 L-5.45 16.35 Q-14.35 20.45 -17.55 16.2 -20.65 12.0 -14.8 7.85 L-9.05 4.15 -8.95 4.05 -7.35 2.95 -5.9 1.85 -3.45 -0.5 Q0.4 -5.1 4.8 -12.4 L8.45 -18.65 18.95 -16.1 16.45 -7.5 Z"
         fill="none"
         stroke="#3c190a"
         stroke-linecap="round"
         stroke-linejoin="round"
         stroke-width="3.0"
         id="path16" />
    </g>
    <g
       id="shape2"
       transform="matrix(1.0, 0.0, 0.0, 1.0, 26.3, 26.3)">
      <path
         d="M-17.55 17.6 Q-10.25 24.8 0.0 24.8 10.3 24.8 17.5 17.6 24.8 10.3 24.8 0.0 24.8 -10.25 17.5 -17.45 10.3 -24.8 0.0 -24.8 -10.25 -24.8 -17.55 -17.45 -24.8 -10.25 -24.8 0.0 -24.8 10.3 -17.55 17.6"
         fill="#cd960d"
         fill-rule="evenodd"
         stroke="none"
         id="path17" />
      <path
         d="M-14.35 10.3 Q-8.35 16.2 0.05 16.2 8.45 16.2 14.4 10.3 20.35 4.3 20.35 -4.1 20.35 -12.55 14.4 -18.45 8.45 -24.45 0.05 -24.45 -8.35 -24.45 -14.35 -18.45 -20.25 -12.55 -20.25 -4.1 -20.25 4.3 -14.35 10.3"
         fill="#ffcc33"
         fill-rule="evenodd"
         stroke="none"
         id="path18" />
      <path
         d="M-17.55 17.6 Q-10.25 24.8 0.0 24.8 10.3 24.8 17.5 17.6 24.8 10.3 24.8 0.0 24.8 -10.25 17.5 -17.45 10.3 -24.8 0.0 -24.8 -10.25 -24.8 -17.55 -17.45 -24.8 -10.25 -24.8 0.0 -24.8 10.3 -17.55 17.6 Z"
         fill="none"
         stroke="#856301"
         stroke-linecap="round"
         stroke-linejoin="round"
         stroke-width="3.0"
         id="path19" />
      <path
         d="M5.45 -11.2 Q3.2 -13.45 -0.05 -13.45 -3.3 -13.45 -5.55 -11.2 -7.8 -8.95 -7.8 -5.7 -7.8 -2.45 -5.55 -0.2 -3.3 2.05 -0.05 2.05 3.2 2.05 5.45 -0.2 7.7 -2.45 7.7 -5.7 7.7 -8.95 5.45 -11.2"
         fill="#cd960d"
         fill-rule="evenodd"
         stroke="none"
         id="path20" />
      <path
         d="M5.45 -16.8 Q3.2 -19.05 -0.05 -19.05 -3.3 -19.05 -5.55 -16.8 -7.8 -14.55 -7.8 -11.3 -7.8 -8.05 -5.55 -5.8 -3.3 -3.55 -0.05 -3.55 3.2 -3.55 5.45 -5.8 7.7 -8.05 7.7 -11.3 7.7 -14.55 5.45 -16.8"
         fill="#666666"
         fill-rule="evenodd"
         stroke="none"
         id="path21" />
      <path
         d="M-0.05 -18.9 L1.6 -18.75 Q3.2 -18.35 4.45 -17.1 6.3 -15.25 6.3 -12.55 6.3 -9.9 4.45 -8.0 2.55 -6.15 -0.1 -6.15 -2.8 -6.15 -4.65 -8.0 -6.5 -9.9 -6.5 -12.55 -6.5 -15.25 -4.65 -17.1 -3.6 -18.15 -2.25 -18.6 L-0.05 -18.9"
         fill="#9c9c9c"
         fill-rule="evenodd"
         stroke="none"
         id="path22" />
      <path
         d="M-0.05 -19.05 Q-3.3 -19.05 -5.55 -16.8 -7.8 -14.55 -7.8 -11.3 -7.8 -8.05 -5.55 -5.8 -3.3 -3.55 -0.05 -3.55 3.2 -3.55 5.45 -5.8 7.7 -8.05 7.7 -11.3 7.7 -14.55 5.45 -16.8 3.2 -19.05 -0.05 -19.05 Z"
         ffdec:has-small-stroke="true"
         ffdec:original-stroke-width="2.0"
         fill="none"
         stroke="#333333"
         stroke-linecap="round"
         stroke-linejoin="round"
         stroke-width="2.764173073913108"
         id="path23" />
    </g>
    <g
       id="shape3"
       transform="matrix(1.0, 0.0, 0.0, 1.0, 10.25, 25.5)">
      <path
         d="M6.15 -18.65 L6.15 13.45 -5.75 13.45 -5.75 -18.65 6.15 -18.65"
         fill="#727272"
         fill-rule="evenodd"
         stroke="none"
         id="path24" />
      <path
         d="M3.5 -18.55 L3.5 13.55 4.1 13.55 4.1 -18.55 3.5 -18.55 M-0.2 -18.55 L-0.2 13.55 2.15 13.55 2.15 -18.55 -0.2 -18.55"
         fill="#ffffff"
         fill-opacity="0.65882355"
         fill-rule="evenodd"
         stroke="none"
         id="path25" />
      <path
         d="M6.15 -18.65 L6.15 13.45 -5.75 13.45 -5.75 -18.65 6.15 -18.65 Z"
         ffdec:has-small-stroke="true"
         ffdec:original-stroke-width="2.0"
         fill="none"
         stroke="#2e2d2d"
         stroke-linecap="round"
         stroke-linejoin="round"
         stroke-width="2.9174637911481978"
         id="path26" />
      <path
         d="M9.25 -24.5 L9.25 -3.35 -9.25 -3.35 -9.25 -24.5 9.25 -24.5"
         fill="#666600"
         fill-rule="evenodd"
         stroke="none"
         id="path27" />
      <path
         d="M5.05 -24.5 L5.05 -3.35 5.95 -3.35 5.95 -24.5 5.05 -24.5 M-0.75 -24.5 L-0.75 -3.35 2.9 -3.35 2.9 -24.5 -0.75 -24.5"
         fill="#ffffff"
         fill-opacity="0.65882355"
         fill-rule="evenodd"
         stroke="none"
         id="path28" />
      <path
         d="M9.25 -24.5 L9.25 -3.35 -9.25 -3.35 -9.25 -24.5 9.25 -24.5 Z"
         ffdec:has-small-stroke="true"
         ffdec:original-stroke-width="2.0"
         fill="none"
         stroke="#3a3a00"
         stroke-linecap="round"
         stroke-linejoin="round"
         stroke-width="2.9174637911481978"
         id="path29" />
      <path
         d="M6.25 24.5 L-5.9 24.5 -8.65 13.4 9.0 13.4 6.25 24.5"
         fill="#666600"
         fill-rule="evenodd"
         stroke="none"
         id="path30" />
      <path
         d="M4.9 13.05 L4.9 24.15 5.75 24.15 5.75 13.05 4.9 13.05 M-0.6 13.05 L-0.6 24.15 2.85 24.15 2.85 13.05 -0.6 13.05"
         fill="#ffffff"
         fill-opacity="0.65882355"
         fill-rule="evenodd"
         stroke="none"
         id="path31" />
      <path
         d="M6.25 24.5 L-5.9 24.5 -8.65 13.4 9.0 13.4 6.25 24.5 Z"
         ffdec:has-small-stroke="true"
         ffdec:original-stroke-width="2.0"
         fill="none"
         stroke="#3a3a00"
         stroke-linecap="round"
         stroke-linejoin="round"
         stroke-width="2.9174637911481978"
         id="path32" />
    </g>
    <g
       id="shape4"
       transform="matrix(1.0, 0.0, 0.0, 1.0, 46.4, 34.05)">
      <path
         d="M-41.55 9.75 Q-43.45 7.8 -43.4 1.8 -43.3 -4.05 -41.55 -5.8 -40.3 -7.05 -34.5 -6.75 L-34.15 -7.6 Q-31.6 -15.4 -26.55 -20.45 -21.3 -25.7 -14.45 -28.4 -7.85 -31.05 -0.25 -31.05 7.35 -31.05 14.0 -28.4 20.8 -25.7 26.05 -20.45 31.1 -15.4 33.7 -7.6 L33.95 -6.7 Q40.2 -7.1 41.55 -5.8 43.3 -4.05 43.4 1.8 43.5 7.8 41.55 9.75 40.25 11.05 35.65 10.95 34.4 17.25 28.3 21.45 24.5 24.15 19.0 25.75 18.05 27.7 13.6 29.15 7.9 31.1 -0.25 31.1 -8.3 31.1 -14.05 29.15 -18.5 27.7 -19.5 25.75 -24.95 24.15 -28.8 21.45 -34.85 17.25 -36.15 10.95 -40.3 11.0 -41.55 9.75 Z"
         fill="none"
         stroke="#3c190a"
         stroke-linecap="round"
         stroke-linejoin="round"
         stroke-width="6.0"
         id="path33" />
      <path
         d="M32.9 -6.65 L26.0 -5.8 26.0 9.75 32.75 10.75 Q39.85 11.4 41.55 9.75 43.45 7.8 43.35 1.8 43.25 -4.05 41.55 -5.8 40.1 -7.2 32.9 -6.65"
         fill="#70381f"
         fill-rule="evenodd"
         stroke="none"
         id="path34" />
      <path
         d="M41.9 9.3 L41.9 7.95 Q41.8 2.1 40.05 0.35 38.65 -1.05 31.45 -0.5 L26.0 0.1 26.0 9.75 32.75 10.75 Q39.85 11.4 41.55 9.75 L41.9 9.3"
         fill="#bf7926"
         fill-rule="evenodd"
         stroke="none"
         id="path35" />
      <path
         d="M-32.9 -6.65 L-26.0 -5.8 -26.0 9.75 -32.75 10.75 Q-39.85 11.4 -41.55 9.75 -43.45 7.8 -43.35 1.8 -43.25 -4.05 -41.55 -5.8 -40.1 -7.2 -32.9 -6.65"
         fill="#70381f"
         fill-rule="evenodd"
         stroke="none"
         id="path36" />
      <path
         d="M-41.9 9.3 L-41.9 7.95 Q-41.8 2.1 -40.05 0.35 -38.65 -1.05 -31.45 -0.5 L-26.0 0.1 -26.0 9.75 -32.75 10.75 Q-39.85 11.4 -41.55 9.75 L-41.9 9.3"
         fill="#bf7926"
         fill-rule="evenodd"
         stroke="none"
         id="path37" />
      <path
         d="M14.05 -28.4 Q20.85 -25.7 26.1 -20.45 31.15 -15.4 33.75 -7.6 36.05 -0.6 36.05 7.4 36.05 16.1 28.35 21.45 18.95 28.05 -0.2 28.05 -19.35 28.05 -28.75 21.45 -36.45 16.1 -36.45 7.4 -36.45 -0.6 -34.15 -7.6 -31.55 -15.4 -26.5 -20.45 -21.25 -25.7 -14.45 -28.4 -7.8 -31.05 -0.2 -31.05 7.4 -31.05 14.05 -28.4"
         fill="#70381f"
         fill-rule="evenodd"
         stroke="none"
         id="path38" />
      <path
         d="M14.05 -28.4 Q7.4 -31.05 -0.2 -31.05 -7.8 -31.05 -14.45 -28.4 -21.25 -25.7 -26.5 -20.45 -31.55 -15.4 -34.15 -7.6 -36.45 -0.6 -36.45 7.4 -36.45 16.1 -28.75 21.45 -19.35 28.05 -0.2 28.05 18.95 28.05 28.35 21.45 36.05 16.1 36.05 7.4 36.05 -0.6 33.75 -7.6 31.15 -15.4 26.1 -20.45 20.85 -25.7 14.05 -28.4 Z"
         ffdec:has-small-stroke="true"
         ffdec:original-stroke-width="1.0"
         fill="none"
         stroke="#3c190a"
         stroke-linecap="round"
         stroke-linejoin="round"
         stroke-width="2.764173073913108"
         id="path39" />
      <path
         d="M-14.3 -23.05 Q-11.65 -26.1 -8.55 -28.35 L-12.3 -27.15 Q-19.1 -24.6 -24.35 -19.6 -29.4 -14.75 -32.0 -7.35 -34.3 -0.65 -34.3 6.95 -34.3 15.25 -26.6 20.35 -22.5 23.05 -16.55 24.6 -24.25 18.5 -24.25 8.65 -24.25 -0.5 -21.95 -8.45 -19.35 -17.3 -14.3 -23.05"
         fill="#54230d"
         fill-rule="evenodd"
         stroke="none"
         id="path40" />
      <path
         d="M-10.45 11.45 Q-17.35 9.15 -20.95 9.7 -24.75 10.25 -28.85 12.35 -30.9 13.4 -32.55 14.5 -30.8 17.1 -27.9 19.3 -24.85 21.65 -20.95 23.2 L-19.85 23.6 -19.75 24.6 Q-19.75 27.3 -14.05 29.15 -8.3 31.1 -0.2 31.1 7.9 31.1 13.6 29.15 19.3 27.3 19.3 24.6 L19.4 23.55 20.5 23.2 Q28.45 20.3 32.35 14.15 32.15 14.1 28.5 12.1 24.2 10.1 20.5 9.55 16.85 9.05 10.05 11.4 2.65 13.95 -0.2 13.95 -2.9 13.95 -10.45 11.45"
         fill="#a35d0d"
         fill-rule="evenodd"
         stroke="none"
         id="path41" />
      <path
         d="M17.3 21.75 Q18.2 22.6 19.4 22.6 20.65 22.6 21.5 21.75 22.4 20.85 22.4 19.65 22.4 18.4 21.5 17.55 20.65 16.65 19.4 16.65 18.2 16.65 17.3 17.55 16.45 18.4 16.45 19.65 16.45 20.85 17.3 21.75"
         fill="#000000"
         fill-rule="evenodd"
         stroke="none"
         id="path42" />
      <path
         d="M-22.0 21.75 Q-21.1 22.6 -19.9 22.6 -18.65 22.6 -17.8 21.75 -16.9 20.85 -16.9 19.65 -16.9 18.4 -17.8 17.55 -18.65 16.65 -19.9 16.65 -21.1 16.65 -22.0 17.55 -22.85 18.4 -22.85 19.65 -22.85 20.85 -22.0 21.75"
         fill="#000000"
         fill-rule="evenodd"
         stroke="none"
         id="path43" />
      <path
         d="M-19.85 23.65 L-19.6 23.5 Q-11.85 19.15 -1.25 18.65 11.55 19.1 19.2 23.6 L19.45 23.8 19.45 23.85 19.4 24.55 Q19.4 27.3 13.65 29.15 7.95 31.1 -0.2 31.1 -8.25 31.1 -14.0 29.15 -19.7 27.3 -19.7 24.55 L-19.85 23.65"
         fill="#bf7926"
         fill-rule="evenodd"
         stroke="none"
         id="path44" />
    </g>
    <g
       id="sprite1"
       transform="matrix(1.0, 0.0, 0.0, 1.0, 0.0, 0.0)">
      <use
         ffdec:characterId="5057"
         height="31.1"
         transform="matrix(1.0, 0.0, 0.0, 1.0, 0.0, 0.0)"
         width="19.35"
         xlink:href="#shape5"
         id="use44" />
    </g>
    <g
       id="shape5"
       transform="matrix(1.0, 0.0, 0.0, 1.0, 0.0, 0.0)">
      <path
         d="M7.1 23.35 L9.65 22.45 10.2 22.45 Q10.9 22.65 11.2 22.95 L12.15 23.8 12.7 24.5 12.7 29.6 Q12.7 30.15 12.1 30.45 10.75 31.1 8.05 31.1 7.15 31.1 6.05 29.7 5.0 28.4 5.0 27.35 5.0 26.1 5.3 25.3 5.75 24.05 7.1 23.35 M10.65 10.2 Q10.95 6.7 11.7 5.1 L11.2 5.1 9.3 6.2 6.65 7.95 Q3.15 10.3 2.25 10.3 1.3 10.3 0.6 8.8 0.0 7.5 0.0 6.4 L0.0 6.15 Q0.15 5.45 0.45 5.1 L2.95 1.95 Q4.85 0.0 6.45 0.0 L7.6 0.0 9.45 0.1 12.2 0.25 16.8 0.5 Q17.8 1.2 18.6 2.75 19.35 4.3 19.35 5.6 L19.35 6.15 18.6 9.2 17.8 12.3 Q17.55 13.45 15.95 14.0 L13.25 14.8 12.45 15.1 11.95 15.35 11.95 18.9 11.5 19.1 9.8 19.6 6.6 20.45 5.55 20.5 5.55 15.8 10.65 10.2"
         fill="#cccccc"
         fill-rule="evenodd"
         stroke="none"
         id="path45" />
    </g>
  </defs>
</svg>
