<?xml version="1.0" encoding="UTF-8" standalone="no"?>
<svg
   ffdec:objectType="frame"
   height="44.15px"
   width="41.0px"
   version="1.1"
   id="svg5"
   sodipodi:docname="8.svg"
   xmlns:inkscape="http://www.inkscape.org/namespaces/inkscape"
   xmlns:sodipodi="http://sodipodi.sourceforge.net/DTD/sodipodi-0.dtd"
   xmlns:xlink="http://www.w3.org/1999/xlink"
   xmlns="http://www.w3.org/2000/svg"
   xmlns:svg="http://www.w3.org/2000/svg"
   xmlns:ffdec="https://www.free-decompiler.com/flash">
  <sodipodi:namedview
     id="namedview5"
     pagecolor="#505050"
     bordercolor="#eeeeee"
     borderopacity="1"
     inkscape:showpageshadow="0"
     inkscape:pageopacity="0"
     inkscape:pagecheckerboard="0"
     inkscape:deskcolor="#505050" />
  <g
     transform="matrix(1.0, 0.0, 0.0, 1.0, 20.6, 22.2)"
     id="g2">
    <g
       id="use1">
      <path
         d="m 0.85,-16.75 q 4.85,0.35 8.3,4.15 3.8,4.1 3.8,9.95 v 0.1 l -0.05,1.15 0.4,0.3 0.4,0.9 q 0,0.55 -0.4,0.9 V 0.65 q -0.4,0.4 -0.85,0.4 l -0.85,2.8 0.1,0.5 q 0,0.55 -0.4,0.9 V 5.2 l -0.4,0.3 q -1.35,3.05 -3.45,5.8 -2.6,3.5 -4.9,4.55 l 0.4,0.75 0.1,0.65 -0.25,0.6 -0.6,0.4 q -3.35,0.8 -5.55,-1.85 l -0.3,-0.7 0.15,-0.6 -2.9,-2.65 -0.35,0.05 -0.95,-0.35 -0.05,-0.1 q -0.4,-0.3 -0.4,-1 l 0.1,-0.5 q -2.2,-2.75 -3.15,-5.3 -2.05,-4.6 -2.05,-7.8 v -0.1 q 0.05,-5.85 3.75,-9.95 h 0.05 q 3.4,-3.6 7.8,-4.1 l 0.3,-0.55 q 0.45,-0.4 0.95,-0.4 0.5,0 0.9,0.4 h 0.05 l 0.3,0.5"
         fill="#ffffff"
         fill-opacity="0.498039"
         fill-rule="evenodd"
         stroke="none"
         id="path6" />
    </g>
    <g
       id="use2"
       transform="matrix(1.0297,0,0,0.9926,5e-5,-0.04967)">
      <g
         id="use6">
        <path
           d="m 8.85,-13.8 q 3.65,4.2 3.65,10.2 v 0.1 l 0.1,1.8 q 0.05,1.1 -0.5,1.6 Q 10.8,1.1 8.85,-1.75 6.5,-5.1 4.95,-5.1 q -1.7,0 -4.6,3.25 -2.9,3.25 -4.15,3.25 -1.3,0 -2.3,-3.05 -0.85,-3 -1.95,-3 -0.75,0 -1.7,3.35 -0.95,3.15 -1.9,2.75 Q -12.5,1.1 -12.5,-3.5 v -0.1 q 0.05,-6 3.6,-10.2 3.75,-4.25 8.9,-4.25 5.2,0 8.85,4.25 z"
           fill="none"
           stroke="#9fdcff"
           stroke-linecap="butt"
           stroke-linejoin="miter-clip"
           stroke-miterlimit="29"
           stroke-width="2"
           id="path7" />
        <path
           d="m 8.85,-13.8 q 3.65,4.2 3.65,10.2 v 0.1 l 0.1,1.8 q 0.05,1.1 -0.5,1.6 Q 10.8,1.1 8.85,-1.75 6.5,-5.1 4.95,-5.1 q -1.7,0 -4.6,3.25 -2.9,3.25 -4.15,3.25 -1.3,0 -2.3,-3.05 -0.85,-3 -1.95,-3 -0.75,0 -1.7,3.35 -0.95,3.15 -1.9,2.75 Q -12.5,1.1 -12.5,-3.5 v -0.1 q 0.05,-6 3.6,-10.2 3.75,-4.25 8.9,-4.25 5.2,0 8.85,4.25"
           fill="#ffffff"
           fill-rule="evenodd"
           stroke="none"
           id="path8" />
        <path
           d="M 12.1,-0.1 Q 10.8,1.1 8.85,-1.75 6.5,-5.1 4.95,-5.1 q -1.7,0 -4.6,3.25 -2.9,3.25 -4.15,3.25 -1.3,0 -2.3,-3.05 -0.85,-3 -1.95,-3 -0.75,0 -1.7,3.35 -0.95,3.15 -1.9,2.75 -0.6,-0.25 -0.75,-2.65 0.8,-3 3.3,-5.35 3.8,-3.55 9.2,-3.55 5.4,0 9.2,3.55 2.45,2.25 3.3,5.1 0,0.9 -0.5,1.35"
           fill="#9fdcff"
           fill-rule="evenodd"
           stroke="none"
           id="path9" />
      </g>
    </g>
  </g>
  <defs
     id="defs5">
    <g
       id="shape0"
       transform="matrix(1.0, 0.0, 0.0, 1.0, 13.25, 17.65)">
      <path
         d="M0.85 -16.75 Q5.7 -16.4 9.15 -12.6 12.95 -8.5 12.95 -2.65 L12.95 -2.55 12.9 -1.4 13.3 -1.1 13.7 -0.2 Q13.7 0.35 13.3 0.7 L13.3 0.65 Q12.9 1.05 12.45 1.05 L11.6 3.85 11.7 4.35 Q11.7 4.9 11.3 5.25 L11.3 5.2 10.9 5.5 Q9.55 8.55 7.45 11.3 4.85 14.8 2.55 15.85 L2.95 16.6 3.05 17.25 2.8 17.85 2.2 18.25 Q-1.15 19.05 -3.35 16.4 L-3.65 15.7 -3.5 15.1 -6.4 12.45 -6.75 12.5 -7.7 12.15 -7.75 12.05 Q-8.15 11.75 -8.15 11.05 L-8.05 10.55 Q-10.25 7.8 -11.2 5.25 -13.25 0.65 -13.25 -2.55 L-13.25 -2.65 Q-13.2 -8.5 -9.5 -12.6 L-9.45 -12.6 Q-6.05 -16.2 -1.65 -16.7 L-1.35 -17.25 Q-0.9 -17.65 -0.4 -17.65 0.1 -17.65 0.5 -17.25 L0.55 -17.25 0.85 -16.75"
         fill="#ffffff"
         fill-opacity="0.49803922"
         fill-rule="evenodd"
         stroke="none"
         id="path2" />
    </g>
    <g
       id="sprite0"
       transform="matrix(1.0, 0.0, 0.0, 1.0, 13.5, 19.05)">
      <use
         ffdec:characterId="6695"
         height="31.65"
         transform="matrix(1.0, 0.0, 0.0, 1.0, -13.5, -19.05)"
         width="28.6"
         xlink:href="#shape1"
         id="use3" />
    </g>
    <g
       id="shape1"
       transform="matrix(1.0, 0.0, 0.0, 1.0, 13.5, 19.05)">
      <path
         d="M8.85 -13.8 Q12.5 -9.6 12.5 -3.6 L12.5 -3.5 12.6 -1.7 Q12.65 -0.6 12.1 -0.1 10.8 1.1 8.85 -1.75 6.5 -5.1 4.95 -5.1 3.25 -5.1 0.35 -1.85 -2.55 1.4 -3.8 1.4 -5.1 1.4 -6.1 -1.65 -6.95 -4.65 -8.05 -4.65 -8.8 -4.65 -9.75 -1.3 -10.7 1.85 -11.65 1.45 -12.5 1.1 -12.5 -3.5 L-12.5 -3.6 Q-12.45 -9.6 -8.9 -13.8 -5.15 -18.05 0.0 -18.05 5.2 -18.05 8.85 -13.8 Z"
         fill="none"
         stroke="#9fdcff"
         stroke-linecap="butt"
         stroke-linejoin="miter-clip"
         stroke-miterlimit="29.0"
         stroke-width="2.0"
         id="path3" />
      <path
         d="M8.85 -13.8 Q12.5 -9.6 12.5 -3.6 L12.5 -3.5 12.6 -1.7 Q12.65 -0.6 12.1 -0.1 10.8 1.1 8.85 -1.75 6.5 -5.1 4.95 -5.1 3.25 -5.1 0.35 -1.85 -2.55 1.4 -3.8 1.4 -5.1 1.4 -6.1 -1.65 -6.95 -4.65 -8.05 -4.65 -8.8 -4.65 -9.75 -1.3 -10.7 1.85 -11.65 1.45 -12.5 1.1 -12.5 -3.5 L-12.5 -3.6 Q-12.45 -9.6 -8.9 -13.8 -5.15 -18.05 0.0 -18.05 5.2 -18.05 8.85 -13.8"
         fill="#ffffff"
         fill-rule="evenodd"
         stroke="none"
         id="path4" />
      <path
         d="M12.1 -0.1 Q10.8 1.1 8.85 -1.75 6.5 -5.1 4.95 -5.1 3.25 -5.1 0.35 -1.85 -2.55 1.4 -3.8 1.4 -5.1 1.4 -6.1 -1.65 -6.95 -4.65 -8.05 -4.65 -8.8 -4.65 -9.75 -1.3 -10.7 1.85 -11.65 1.45 -12.25 1.2 -12.4 -1.2 -11.6 -4.2 -9.1 -6.55 -5.3 -10.1 0.1 -10.1 5.5 -10.1 9.3 -6.55 11.75 -4.3 12.6 -1.45 12.6 -0.55 12.1 -0.1"
         fill="#9fdcff"
         fill-rule="evenodd"
         stroke="none"
         id="path5" />
    </g>
  </defs>
</svg>
