<?xml version="1.0" encoding="UTF-8" standalone="no"?>
<svg xmlns:ffdec="https://www.free-decompiler.com/flash" xmlns:xlink="http://www.w3.org/1999/xlink" ffdec:objectType="frame" height="26.45px" width="23.95px" xmlns="http://www.w3.org/2000/svg">
  <g transform="matrix(1.0, 0.0, 0.0, 1.0, 0.3, -1.05)">
    <use ffdec:characterId="45" height="26.45" transform="matrix(1.0, 0.0, 0.0, 1.0, -0.3, 1.05)" width="23.95" xlink:href="#shape0"/>
  </g>
  <defs>
    <g id="shape0" transform="matrix(1.0, 0.0, 0.0, 1.0, 0.3, -1.05)">
      <path d="M3.8 27.15 L2.1 20.9 Q0.75 16.05 0.0 15.25 -0.15 11.45 0.55 7.7 L0.8 6.45 0.8 6.25 6.35 2.05 Q9.85 1.3 12.4 1.3 16.45 1.3 19.8 3.55 23.4 6.0 23.4 9.35 23.4 11.35 21.8 13.45 L21.9 13.75 21.75 13.55 17.9 18.75 17.45 19.5 17.25 19.9 17.1 20.2 16.15 22.35 Q10.35 27.3 3.85 27.5 L3.8 27.15 M21.75 13.55 L21.8 13.45 21.75 13.55" fill="#76533d" fill-rule="evenodd" stroke="none"/>
      <path d="M3.8 27.15 L2.1 20.9 Q0.75 16.05 0.0 15.25 -0.15 11.45 0.55 7.7 L0.8 6.45 0.8 6.25 6.35 2.05 Q9.85 1.3 12.4 1.3 16.45 1.3 19.8 3.55 23.4 6.0 23.4 9.35 23.4 11.35 21.8 13.45 L21.75 13.55 17.9 18.75 17.45 19.5 17.25 19.9 17.1 20.2 16.15 22.35" ffdec:has-small-stroke="true" ffdec:original-stroke-width="0.5" fill="none" stroke="#000000" stroke-linecap="round" stroke-linejoin="round" stroke-width="1.0"/>
      <path d="M21.8 13.45 L21.9 13.75 21.75 13.55 21.8 13.45" fill="#76533d" fill-rule="evenodd" stroke="none"/>
      <path d="M21.8 13.45 L21.75 13.55 17.9 18.75 17.45 19.5 17.25 19.9 17.1 20.2 16.15 22.35 Q10.35 27.3 3.85 27.5 L3.8 27.15 2.1 20.9 Q0.75 16.05 0.0 15.25 L0.0 12.35 0.25 11.1 0.25 10.9 5.8 6.7 11.85 5.95 Q15.9 5.95 19.25 8.2 21.9 10.0 22.6 12.25 L21.8 13.45" fill="#000000" fill-opacity="0.49803922" fill-rule="evenodd" stroke="none"/>
    </g>
  </defs>
</svg>
