<?xml version="1.0" encoding="UTF-8" standalone="no"?>
<svg xmlns:ffdec="https://www.free-decompiler.com/flash" xmlns:xlink="http://www.w3.org/1999/xlink" ffdec:objectType="frame" height="24.6px" width="23.95px" xmlns="http://www.w3.org/2000/svg">
  <g transform="matrix(1.0, 0.0, 0.0, 1.0, 0.3, -1.05)">
    <use ffdec:characterId="27" height="24.6" transform="matrix(1.0, 0.0, 0.0, 1.0, -0.3, 1.05)" width="23.95" xlink:href="#shape0"/>
  </g>
  <defs>
    <g id="shape0" transform="matrix(1.0, 0.0, 0.0, 1.0, 0.3, -1.05)">
      <path d="M21.8 13.45 L21.9 13.75 21.75 13.55 21.8 13.45 21.75 13.55 17.9 18.75 17.45 19.5 17.25 19.9 17.1 20.2 16.15 22.35 Q10.3 26.3 3.15 25.4 L2.95 25.4 2.95 25.25 2.95 24.95 2.6 24.05 1.65 20.0 Q0.75 16.05 0.0 15.25 -0.15 11.45 0.55 7.7 L0.8 6.2 0.95 5.8 1.2 5.1 1.7 3.55 Q3.2 2.6 6.35 2.05 9.85 1.3 12.4 1.3 16.45 1.3 19.8 3.55 23.4 6.0 23.4 9.35 23.4 11.35 21.8 13.45" fill="#76533d" fill-rule="evenodd" stroke="none"/>
      <path d="M21.8 13.45 L21.75 13.55 17.9 18.75 17.45 19.5 17.25 19.9 17.1 20.2 16.15 22.35 M2.95 25.4 L2.6 24.05 1.65 20.0 Q0.75 16.05 0.0 15.25 -0.15 11.45 0.55 7.7 L0.8 6.2 0.95 5.8 1.2 5.1 1.7 3.55 Q3.2 2.6 6.35 2.05 9.85 1.3 12.4 1.3 16.45 1.3 19.8 3.55 23.4 6.0 23.4 9.35 23.4 11.35 21.8 13.45 M2.6 24.05 L2.95 24.95 2.95 25.25 2.95 25.4" ffdec:has-small-stroke="true" ffdec:original-stroke-width="0.5" fill="none" stroke="#000000" stroke-linecap="round" stroke-linejoin="round" stroke-width="1.0"/>
      <path d="M21.8 13.45 L21.9 13.75 21.75 13.55 21.8 13.45" fill="#76533d" fill-rule="evenodd" stroke="none"/>
      <path d="M21.8 13.45 L21.75 13.55 17.9 18.75 17.45 19.5 17.25 19.9 17.1 20.2 16.15 22.35 Q10.3 26.3 3.15 25.4 L2.95 25.4 2.95 25.25 2.95 24.95 2.6 24.05 1.65 20.0 Q0.75 16.05 0.0 15.25 L0.0 12.35 0.25 10.8 0.5 9.3 0.65 8.9 0.9 8.2 1.4 6.65 Q2.9 5.7 6.05 5.15 L12.1 4.4 Q16.15 4.4 19.5 6.65 22.5 8.7 23.0 11.4 L21.8 13.45" fill="#000000" fill-opacity="0.49803922" fill-rule="evenodd" stroke="none"/>
    </g>
  </defs>
</svg>
