<?xml version="1.0" encoding="UTF-8" standalone="no"?>
<svg xmlns:ffdec="https://www.free-decompiler.com/flash" xmlns:xlink="http://www.w3.org/1999/xlink" ffdec:objectType="frame" height="26.3px" width="20.7px" xmlns="http://www.w3.org/2000/svg">
  <g transform="matrix(1.0, 0.0, 0.0, 1.0, 0.25, 0.25)">
    <use ffdec:characterId="71" height="26.3" transform="matrix(1.0, 0.0, 0.0, 1.0, -0.25, -0.25)" width="20.7" xlink:href="#shape0"/>
  </g>
  <defs>
    <g id="shape0" transform="matrix(1.0, 0.0, 0.0, 1.0, 0.25, 0.25)">
      <path d="M3.05 20.85 L1.45 17.0 Q0.0 13.55 0.0 9.65 0.0 5.25 3.4 2.45 6.4 0.0 10.25 0.0 13.4 0.0 16.25 1.35 19.65 3.05 19.65 5.75 19.65 8.3 18.35 12.5 L18.2 13.25 Q18.1 13.9 18.55 15.1 19.0 16.25 20.2 17.15 19.45 17.5 18.85 17.8 L8.8 25.8 8.5 25.8 Q6.55 24.95 4.25 22.45 L3.2 21.1 3.05 20.85 3.2 21.1 3.15 21.05 3.05 20.85" fill="#76533d" fill-rule="evenodd" stroke="none"/>
      <path d="M20.2 17.15 Q19.0 16.25 18.55 15.1 18.1 13.9 18.2 13.25 L18.35 12.5 Q19.65 8.3 19.65 5.75 19.65 3.05 16.25 1.35 13.4 0.0 10.25 0.0 6.4 0.0 3.4 2.45 0.0 5.25 0.0 9.65 0.0 13.55 1.45 17.0 L3.05 20.85 3.2 21.1 4.25 22.45 Q6.55 24.95 8.5 25.8 M3.05 20.85 L3.15 21.05" ffdec:has-small-stroke="true" ffdec:original-stroke-width="0.5" fill="none" stroke="#000000" stroke-linecap="round" stroke-linejoin="round" stroke-width="1.0"/>
      <path d="M13.35 2.9 Q16.5 2.9 19.35 4.25 L19.65 5.75 Q19.65 8.3 18.35 12.5 L18.2 13.25 Q18.1 13.9 18.55 15.1 19.0 16.25 20.2 17.15 19.45 17.5 18.85 17.8 L9.15 25.55 6.75 23.55 5.55 22.4 4.55 19.9 Q3.1 16.45 3.1 12.55 3.1 8.15 6.5 5.35 9.5 2.9 13.35 2.9" fill="#000000" fill-opacity="0.49803922" fill-rule="evenodd" stroke="none"/>
    </g>
  </defs>
</svg>
