<?xml version="1.0" encoding="UTF-8" standalone="no"?>
<svg xmlns:ffdec="https://www.free-decompiler.com/flash" xmlns:xlink="http://www.w3.org/1999/xlink" ffdec:objectType="frame" height="20.55px" width="25.2px" xmlns="http://www.w3.org/2000/svg">
  <g transform="matrix(1.0, 0.0, 0.0, 1.0, 0.1, 0.25)">
    <use ffdec:characterId="95" height="20.55" transform="matrix(1.0, 0.0, 0.0, 1.0, -0.1, -0.25)" width="25.2" xlink:href="#shape0"/>
  </g>
  <defs>
    <g id="shape0" transform="matrix(1.0, 0.0, 0.0, 1.0, 0.1, 0.25)">
      <path d="M0.2 8.95 L0.15 8.8 0.15 8.45 Q0.15 7.35 2.95 4.8 5.7 2.3 8.7 0.75 L8.8 0.7 11.3 0.15 13.95 0.0 Q18.45 0.0 21.85 3.4 24.85 6.4 24.85 9.4 L24.5 10.7 20.1 20.05 15.3 18.35 10.0 16.3 7.6 15.4 7.5 15.4 Q4.9 12.0 0.3 9.3 L0.4 9.1 0.2 8.95 M21.95 15.5 L22.05 15.55 22.1 15.45 21.95 15.5" fill="#76533d" fill-rule="evenodd" stroke="none"/>
      <path d="M0.2 8.95 L0.15 8.8 0.15 8.45 Q0.15 7.35 2.95 4.8 5.7 2.3 8.7 0.75 L8.8 0.7 11.3 0.15 13.95 0.0 Q18.45 0.0 21.85 3.4 24.85 6.4 24.85 9.4 L24.5 10.7 20.1 20.05 M7.5 15.4 Q4.9 12.0 0.3 9.3 L0.2 8.95 0.4 9.1" ffdec:has-small-stroke="true" ffdec:original-stroke-width="0.5" fill="none" stroke="#000000" stroke-linecap="round" stroke-linejoin="round" stroke-width="1.0"/>
      <path d="M20.95 15.4 L20.85 15.45 20.9 15.5 20.95 15.4 M23.2 11.25 L20.3 20.0 14.6 17.95 Q10.05 16.45 9.65 16.15 L7.4 15.35 7.3 15.35 Q4.9 12.35 0.6 9.95 L0.65 9.8 0.5 9.65 0.45 9.55 0.45 9.25 Q0.45 8.25 3.05 6.05 5.65 3.8 8.45 2.45 L8.55 2.4 10.85 1.9 13.35 1.8 Q17.55 1.8 20.75 4.75 23.55 7.4 23.55 10.05 L23.2 11.25" fill="#000000" fill-opacity="0.49803922" fill-rule="evenodd" stroke="none"/>
    </g>
  </defs>
</svg>
