<?xml version="1.0" encoding="UTF-8" standalone="no"?>
<svg xmlns:ffdec="https://www.free-decompiler.com/flash" xmlns:xlink="http://www.w3.org/1999/xlink" ffdec:objectType="frame" height="17.0px" width="16.8px" xmlns="http://www.w3.org/2000/svg">
  <g transform="matrix(1.0, 0.0, 0.0, 1.0, 0.55, 1.0)">
    <use ffdec:characterId="61" height="17.0" transform="matrix(1.0, 0.0, 0.0, 1.0, -0.55, -1.0)" width="16.8" xlink:href="#shape0"/>
  </g>
  <defs>
    <g id="shape0" transform="matrix(1.0, 0.0, 0.0, 1.0, 0.55, 1.0)">
      <path d="M15.95 -0.75 L16.25 -0.55 11.95 15.4 11.9 15.75 Q6.0 15.35 0.95 13.1 -0.4 10.45 -0.3 7.9 -0.2 5.0 1.75 2.55 4.55 0.7 8.65 -0.05 L15.95 -0.75" fill="#76533d" fill-rule="evenodd" stroke="none"/>
      <path d="M15.95 -0.75 L8.65 -0.05 Q4.55 0.7 1.75 2.55 -0.2 5.0 -0.3 7.9 -0.4 10.45 0.95 13.1 6.0 15.35 11.9 15.75" ffdec:has-small-stroke="true" ffdec:original-stroke-width="0.5" fill="none" stroke="#000000" stroke-linecap="round" stroke-linejoin="round" stroke-width="1.0"/>
      <path d="M1.75 3.35 Q4.55 1.8 8.65 1.15 L15.95 0.55 16.25 0.75 11.95 14.25 11.9 14.5 Q6.0 14.2 0.95 12.3 -0.4 10.05 -0.3 7.9 -0.2 5.45 1.75 3.35" fill="#000000" fill-opacity="0.49803922" fill-rule="evenodd" stroke="none"/>
    </g>
  </defs>
</svg>
