<?xml version="1.0" encoding="UTF-8" standalone="no"?>
<svg xmlns:ffdec="https://www.free-decompiler.com/flash" xmlns:xlink="http://www.w3.org/1999/xlink" ffdec:objectType="frame" height="17.1px" width="18.75px" xmlns="http://www.w3.org/2000/svg">
  <g transform="matrix(1.0, 0.0, 0.0, 1.0, 0.25, 5.45)">
    <use ffdec:characterId="101" height="17.1" transform="matrix(1.0, 0.0, 0.0, 1.0, -0.25, -5.45)" width="18.75" xlink:href="#shape0"/>
  </g>
  <defs>
    <g id="shape0" transform="matrix(1.0, 0.0, 0.0, 1.0, 0.25, 5.45)">
      <path d="M18.25 9.3 L13.3 11.05 7.05 11.4 Q1.15 10.15 0.1 1.1 L0.05 0.65 0.0 0.15 0.3 0.0 0.05 0.0 Q0.15 -1.7 0.55 -2.95 L1.65 -5.2 Q15.75 6.75 18.1 9.1 L18.15 9.1 18.0 9.15 18.0 9.2 18.25 9.3" fill="#76533d" fill-rule="evenodd" stroke="none"/>
      <path d="M1.65 -5.2 L0.55 -2.95 Q0.15 -1.7 0.05 0.0 L0.3 0.0 0.0 0.15 0.05 0.65 0.1 1.1 Q1.15 10.15 7.05 11.4 L13.3 11.05 18.25 9.3" ffdec:has-small-stroke="true" ffdec:original-stroke-width="0.5" fill="none" stroke="#000000" stroke-linecap="round" stroke-linejoin="round" stroke-width="1.0"/>
      <path d="M0.05 0.15 L0.05 0.65 0.0 0.15 0.05 0.15" fill="#76533d" fill-rule="evenodd" stroke="none"/>
      <path d="M1.5 -4.1 L1.9 -4.95 Q14.75 5.9 18.25 9.15 17.95 8.95 18.1 9.1 L18.15 9.1 18.0 9.15 18.0 9.2 14.25 9.9 8.0 10.25 Q2.1 9.0 1.05 -0.05 L1.0 -0.5 1.0 -1.0 1.0 -1.15 Q1.1 -2.85 1.5 -4.1" fill="#000000" fill-opacity="0.49803922" fill-rule="evenodd" stroke="none"/>
    </g>
  </defs>
</svg>
