<?xml version="1.0" encoding="UTF-8" standalone="no"?>
<svg xmlns:ffdec="https://www.free-decompiler.com/flash" xmlns:xlink="http://www.w3.org/1999/xlink" ffdec:objectType="frame" height="18.85px" width="27.55px" xmlns="http://www.w3.org/2000/svg">
  <g transform="matrix(1.0, 0.0, 0.0, 1.0, 0.05, 3.5)">
    <use ffdec:characterId="67" height="18.85" transform="matrix(1.0, 0.0, 0.0, 1.0, -0.05, -3.5)" width="27.55" xlink:href="#shape0"/>
  </g>
  <defs>
    <g id="shape0" transform="matrix(1.0, 0.0, 0.0, 1.0, 0.05, 3.5)">
      <path d="M0.2 -0.1 L0.15 -0.15 8.25 -2.0 8.5 -2.05 8.55 -2.1 11.85 -2.75 14.35 -3.15 15.05 -3.25 Q15.45 -0.65 16.9 1.4 17.6 2.55 18.6 3.5 22.0 6.85 27.2 7.4 L27.25 7.65 27.45 7.7 27.5 7.75 27.35 7.95 Q25.9 11.6 20.3 13.7 15.8 15.35 11.35 15.35 L8.75 15.35 8.2 15.3 7.7 15.2 7.15 15.15 5.75 14.9 5.75 14.7 Q5.6 12.25 3.9 7.45 L3.0 5.05 2.5 3.95 Q1.35 1.5 0.25 0.0 L0.2 -0.1" fill="#76533d" fill-rule="evenodd" stroke="none"/>
      <path d="M15.05 -3.25 Q15.45 -0.65 16.9 1.4 17.6 2.55 18.6 3.5 22.0 6.85 27.2 7.4 M5.75 14.7 Q5.6 12.25 3.9 7.45 L3.0 5.05 2.5 3.95 Q1.35 1.5 0.25 0.0 L0.2 -0.1" ffdec:has-small-stroke="true" ffdec:original-stroke-width="0.5" fill="none" stroke="#000000" stroke-linecap="round" stroke-linejoin="round" stroke-width="1.0"/>
      <path d="M8.5 -2.05 L8.55 -2.1 11.85 -2.75 14.35 -3.15 14.95 -3.2 Q14.25 1.7 15.65 3.65 16.35 4.8 17.35 5.75 20.6 8.95 27.45 7.7 L27.5 7.75 27.35 7.95 Q25.9 11.6 20.3 13.7 15.8 15.35 11.35 15.35 L8.75 15.35 8.2 15.3 7.7 15.2 7.15 15.15 5.75 14.9 5.75 14.7 5.75 14.5 Q6.85 11.35 5.4 7.2 L4.5 4.8 4.0 3.7 Q3.05 1.7 0.6 0.45 L0.25 0.0 0.2 -0.1 0.15 -0.15 8.25 -2.0 8.5 -2.05" fill="#000000" fill-opacity="0.49803922" fill-rule="evenodd" stroke="none"/>
    </g>
  </defs>
</svg>
