<?xml version="1.0" encoding="UTF-8" standalone="no"?>
<svg xmlns:ffdec="https://www.free-decompiler.com/flash" xmlns:xlink="http://www.w3.org/1999/xlink" ffdec:objectType="frame" height="44.6px" width="28.55px" xmlns="http://www.w3.org/2000/svg">
  <g transform="matrix(1.0, 0.0, 0.0, 1.0, 0.25, 0.8)">
    <use ffdec:characterId="25" height="44.6" transform="matrix(1.0, 0.0, 0.0, 1.0, -0.25, -0.8)" width="28.55" xlink:href="#shape0"/>
  </g>
  <defs>
    <g id="shape0" transform="matrix(1.0, 0.0, 0.0, 1.0, 0.25, 0.8)">
      <path d="M28.05 0.6 Q20.75 16.1 23.4 37.25 L24.05 43.55 0.0 43.55 Q2.55 41.25 9.15 28.05 15.75 14.8 14.95 3.55 20.85 -2.8 27.1 0.1 L27.35 0.1 28.05 0.6" fill="#76533d" fill-rule="evenodd" stroke="none"/>
      <path d="M14.95 3.55 Q15.75 14.8 9.15 28.05 2.55 41.25 0.0 43.55 L24.05 43.55 23.4 37.25 Q20.75 16.1 28.05 0.6" ffdec:has-small-stroke="true" ffdec:original-stroke-width="0.5" fill="none" stroke="#000000" stroke-linecap="round" stroke-linejoin="round" stroke-width="1.0"/>
      <path d="M28.05 0.6 Q26.1 4.75 24.85 9.35 20.0 21.45 21.9 36.75 L22.7 43.55 1.85 43.55 Q4.5 40.65 10.6 28.45 15.75 18.15 14.95 8.6 L14.95 3.55 Q20.65 -2.55 27.05 0.2 27.7 0.5 27.75 0.4 L28.05 0.6" fill="#000000" fill-opacity="0.49803922" fill-rule="evenodd" stroke="none"/>
    </g>
  </defs>
</svg>
