<?xml version="1.0" encoding="UTF-8" standalone="no"?>
<svg
   ffdec:objectType="frame"
   height="41.45px"
   width="102.45px"
   version="1.1"
   id="svg20"
   sodipodi:docname="1.svg"
   inkscape:version="1.4.2 (f4327f4, 2025-05-13)"
   xmlns:inkscape="http://www.inkscape.org/namespaces/inkscape"
   xmlns:sodipodi="http://sodipodi.sourceforge.net/DTD/sodipodi-0.dtd"
   xmlns:xlink="http://www.w3.org/1999/xlink"
   xmlns="http://www.w3.org/2000/svg"
   xmlns:svg="http://www.w3.org/2000/svg"
   xmlns:ffdec="https://www.free-decompiler.com/flash">
  <sodipodi:namedview
     id="namedview20"
     pagecolor="#505050"
     bordercolor="#eeeeee"
     borderopacity="1"
     inkscape:showpageshadow="0"
     inkscape:pageopacity="0"
     inkscape:pagecheckerboard="0"
     inkscape:deskcolor="#505050"
     inkscape:zoom="8.3375795"
     inkscape:cx="35.322002"
     inkscape:cy="21.049275"
     inkscape:window-width="2560"
     inkscape:window-height="1369"
     inkscape:window-x="-8"
     inkscape:window-y="-8"
     inkscape:window-maximized="1"
     inkscape:current-layer="g4" />
  <g
     transform="matrix(1.0, 0.0, 0.0, 1.0, 1.75, 7.7)"
     id="g4">
    <g
       id="use1">
      <path
         d="M 98.95,28.1 0.5,26.65 -0.25,0.5 99.2,-3.6 98.95,28.1"
         fill="#ffffff"
         fill-opacity="0.498039"
         fill-rule="evenodd"
         stroke="none"
         id="path21" />
      <path
         d="M 98.95,28.1 99.2,-3.6 -0.25,0.5 0.5,26.65 Z"
         fill="none"
         stroke="#000000"
         stroke-linecap="butt"
         stroke-linejoin="miter-clip"
         stroke-miterlimit="3"
         stroke-opacity="0.498039"
         stroke-width="2"
         id="path22" />
    </g>
    <filter
       id="filter4"
       x="0"
       y="0"
       width="1"
       height="1">
      <feColorMatrix
         in="SourceGraphic"
         result="filterResult0"
         type="matrix"
         values="0 0 0 0 0.1882353,0 0 0 0 0.2509804,0 0 0 0 0.34509805,0 0 0 1 0"
         id="feColorMatrix1" />
      <feConvolveMatrix
         divisor="4.0"
         in="filterResult0"
         kernelMatrix="1 1 1 1"
         order="2 2"
         result="filterResult1"
         id="feConvolveMatrix1" />
      <feConvolveMatrix
         divisor="4.0"
         in="filterResult1"
         kernelMatrix="1 1 1 1"
         order="2 2"
         result="filterResult2"
         id="feConvolveMatrix2" />
      <feConvolveMatrix
         divisor="4.0"
         in="filterResult2"
         kernelMatrix="1 1 1 1"
         order="2 2"
         result="filterResult3"
         id="feConvolveMatrix3" />
      <feComposite
         in="SourceGraphic"
         in2="filterResult3"
         operator="over"
         result="filterResult4"
         id="feComposite3" />
    </filter>
    <g
       id="use4"
       transform="matrix(0.9913,0.1328,-0.1395,1.1007,65.99995,-6.150025)">
      <g
         id="use29">
        <path
           d="m 27.45,-0.65 1.85,1 q 2.1,1.65 2.05,3.05 0.95,13.05 0.1,26.3 -1.35,2 -2.45,2.05 l -3.3,0.35 -1.1,0.05 Q 15.3,32.7 5.75,32.1 L 4.7,32.05 1.75,31.7 0.6,31.1 Q -0.5,30.45 -0.5,29.55 L -1.15,17.35 Q -1.6,4.45 -0.4,0.85 l 0.25,-0.55 1,-0.75 3.55,-0.5 V -0.9 L 8.65,-1.15 Q 16.8,-1.4 24.6,-0.9 l 2.85,0.25"
           fill="#002f3f"
           fill-rule="evenodd"
           stroke="none"
           id="path30" />
        <path
           d="M 19.9,1.15 9.65,1.2 9.7,6.5 H 9.8 Q 10.1,5.4 10.95,4.55 14,1.4 23.6,1.1 l -3,0.05 0.5,-0.05 -1.2,0.05 m 4,-0.65 q 0.65,4.8 0,9.65 -0.55,1.1 -1.75,2 Q 15.6,12.6 9,12.2 8.5,6.25 9,0.35 L 9.2,0.2 q 7.55,-0.25 14.7,0.3 m -3.8,2 -2.9,-0.05 q -0.3,3.85 0,7.65 l 2.9,0.05 q 0.4,-3.75 0,-7.65"
           fill="#c5c5c5"
           fill-rule="evenodd"
           stroke="none"
           id="path31" />
        <path
           d="m 9,12.2 q 6.6,0.4 13.15,-0.05 1.2,-0.9 1.75,-2 0.65,-4.85 0,-9.65 l 2.6,0.15 1.7,0.95 q 1.95,1.5 1.9,2.8 0.8,12 0.1,24.2 -1.25,1.85 -2.25,1.9 l -3.05,0.25 q 0.65,-7 0.25,-13.55 Q 15.45,16.35 5.3,17 4.85,23.75 5.65,30.7 L 2.8,30.45 1.85,29.9 Q 0.8,29.25 0.8,28.4 L 0.2,17.2 Q -0.25,5.35 0.9,2.05 L 1.15,1.55 2.05,0.85 5.3,0.45 V 0.5 q -0.55,4.7 0,9.8 0.2,1.15 1.4,1.65 L 9,12.2"
           fill="#0099cc"
           fill-rule="evenodd"
           stroke="none"
           id="path32" />
        <path
           d="M 9.2,0.2 9,0.35 Q 8.5,6.25 9,12.2 L 6.7,11.95 Q 5.5,11.45 5.3,10.3 4.75,5.2 5.3,0.5 L 9,0.2 h 0.2 m 10.9,2.3 q 0.4,3.9 0,7.65 L 17.2,10.1 q -0.3,-3.8 0,-7.65 l 2.9,0.05"
           fill="#00465d"
           fill-rule="evenodd"
           stroke="none"
           id="path33" />
        <path
           d="M 5.65,30.7 Q 4.85,23.75 5.3,17 q 10.15,-0.65 19.85,0.2 0.4,6.55 -0.25,13.55 l -1,0.05 q 0.6,-3.05 0.4,-13 -6.1,-0.45 -12.8,-0.25 l -5.4,0.3 q -0.4,1.4 0.05,7.7 l 0.4,5.2 -0.9,-0.05 m 3.2,-2.95 14.25,0.05 0.05,0.2 -0.1,0.15 H 15.7 L 8.25,28.1 V 28 l 0.1,-0.3 0.5,0.05 M 8.1,25.85 q 0,-0.35 0.55,-0.2 l 14.15,0.05 0.05,0.15 -0.1,0.2 H 8.15 L 8.1,25.85"
           fill="#002f3f"
           fill-rule="evenodd"
           stroke="none"
           id="path34" />
        <path
           d="m 21.85,18.25 h 0.2 l 1,0.1 0.05,0.25 -0.15,0.25 q 0.25,0.05 0.25,0.2 l -0.05,0.3 -0.1,0.15 -1.85,0.35 -2.15,-0.15 -2.2,0.1 q -5.4,0.15 -7.3,1.65 l -1.75,2.2 q 0,1 -0.25,1 -0.2,0 -0.25,-0.85 V 22.85 L 7.4,19.95 7.3,19.7 7.4,19.55 7.35,19.4 7.45,19.15 V 19.1 L 7.35,18.85 7.45,18.7 7.4,18.55 7.5,18.3 7.85,18.25 9.5,18.2 h 12.25 l 0.1,0.05"
           fill="#ffffff"
           fill-rule="evenodd"
           stroke="none"
           id="path35" />
        <path
           d="M 21.85,18.25 21.75,18.2 H 9.5 l -1.65,0.05 -0.35,0.05 -0.1,0.25 0.05,0.15 -0.1,0.15 0.1,0.25 v 0.05 l -0.1,0.25 0.05,0.15 -0.1,0.15 0.1,0.25 -0.1,2.9 v 0.95 q 0.05,0.85 0.25,0.85 0.25,0 0.25,-1 l 1.75,-2.2 q 1.9,-1.5 7.3,-1.65 l 2.2,-0.1 2.15,0.15 1.85,-0.35 0.1,-0.15 0.05,-0.3 q 0,-0.15 -0.25,-0.2 l 0.15,-0.25 -0.05,-0.25 -1,-0.1 h -0.2 m -15.3,12.5 -0.4,-5.2 Q 5.7,19.25 6.1,17.85 l 5.4,-0.3 q 6.7,-0.2 12.8,0.25 0.2,9.95 -0.4,13 -8.6,0.55 -17.35,-0.05 m 1.55,-4.9 0.05,0.2 h 14.6 l 0.1,-0.2 L 22.8,25.7 8.65,25.65 Q 8.1,25.5 8.1,25.85 m 0.75,1.9 -0.5,-0.05 -0.1,0.3 v 0.1 l 7.45,0.05 h 7.35 L 23.15,28 23.1,27.8 8.85,27.75"
           fill="#d0d0d0"
           fill-rule="evenodd"
           stroke="none"
           id="path36" />
        <path
           d="m 20.6,1.15 3,-0.05 Q 14,1.4 10.95,4.55 10.1,5.4 9.8,6.5 H 9.7 L 9.65,1.2 19.9,1.15 h 0.7"
           fill="#eeeeee"
           fill-rule="evenodd"
           stroke="none"
           id="path37" />
        <path
           d="m 9,12.2 q 6.6,0.4 13.15,-0.05 1.2,-0.9 1.75,-2 0.65,-4.85 0,-9.65 M 9,12.2 6.7,11.95 Q 5.5,11.45 5.3,10.3 4.75,5.2 5.3,0.5 V 0.45"
           fill="none"
           stroke="#002f3f"
           stroke-linecap="butt"
           stroke-linejoin="miter-clip"
           stroke-miterlimit="3"
           stroke-width="1"
           id="path38" />
      </g>
    </g>
  </g>
  <defs
     id="defs20">
    <g
       id="shape0"
       transform="matrix(1.0, 0.0, 0.0, 1.0, 1.25, 4.6)">
      <path
         d="M98.95 28.1 L0.5 26.65 -0.25 0.5 99.2 -3.6 98.95 28.1"
         fill="#ffffff"
         fill-opacity="0.49803922"
         fill-rule="evenodd"
         stroke="none"
         id="path4" />
      <path
         d="M98.95 28.1 L99.2 -3.6 -0.25 0.5 0.5 26.65 98.95 28.1 Z"
         fill="none"
         stroke="#000000"
         stroke-linecap="butt"
         stroke-linejoin="miter-clip"
         stroke-miterlimit="3.0"
         stroke-opacity="0.49803922"
         stroke-width="2.0"
         id="path5" />
    </g>
    <g
       id="text0"
       transform="matrix(1.0, 0.0, 0.0, 1.0, 0.0, 2.0)">
      <g
         transform="matrix(1.0, 0.0, 0.0, 1.0, 0.0, 0.0)"
         id="g8">
        <use
           fill="#0099ff"
           height="17.5"
           transform="matrix(0.0156, 0.0, 0.0, 0.0156, 0.0, 15.0)"
           width="53.6"
           xlink:href="#font_Nb_Obese_S0"
           id="use5" />
        <use
           fill="#0099ff"
           height="17.5"
           transform="matrix(0.0156, 0.0, 0.0, 0.0156, 10.65, 15.0)"
           width="53.6"
           xlink:href="#font_Nb_Obese_A0"
           id="use6" />
        <use
           fill="#0099ff"
           height="17.5"
           transform="matrix(0.0156, 0.0, 0.0, 0.0156, 21.3, 15.0)"
           width="53.6"
           xlink:href="#font_Nb_Obese_V0"
           id="use7" />
        <use
           fill="#0099ff"
           height="17.5"
           transform="matrix(0.0156, 0.0, 0.0, 0.0156, 31.95, 15.0)"
           width="53.6"
           xlink:href="#font_Nb_Obese_E0"
           id="use8" />
      </g>
    </g>
    <g
       id="font_Nb_Obese_S0">
      <path
         d="M362.5 -927.0 Q311.0 -927.0 243.5 -909.0 62.0 -830.0 62.0 -646.5 62.0 -547.0 167.0 -461.0 425.0 -343.0 425.0 -276.0 L425.0 -262.5 Q369.0 -194.5 305.5 -194.5 L296.0 -194.5 229.0 -203.5 Q148.0 -239.5 67.0 -276.0 0.0 -268.0 0.0 -221.5 L0.0 -203.5 Q0.0 -173.0 28.5 -131.0 169.0 0.0 348.5 0.0 L425.0 -9.0 Q682.5 -79.5 682.5 -267.0 682.5 -403.5 501.0 -515.5 310.0 -584.5 310.0 -642.0 L310.0 -655.5 Q386.5 -723.5 506.0 -723.5 592.0 -723.5 606.0 -823.0 L606.0 -832.0 Q606.0 -927.0 405.5 -927.0 L362.5 -927.0"
         fill-rule="evenodd"
         stroke="none"
         id="path8" />
    </g>
    <g
       id="font_Nb_Obese_A0">
      <path
         d="M314.5 -708.5 L390.0 -713.5 Q407.5 -679.5 407.5 -635.5 L407.5 -583.5 403.5 -531.0 266.0 -531.0 266.0 -588.5 Q275.0 -708.5 301.5 -708.5 L314.5 -708.5 M363.5 -927.0 Q199.0 -927.0 102.0 -599.0 0.0 -182.0 0.0 -62.5 9.0 -17.5 146.5 -10.5 L221.5 -15.5 Q275.0 -15.5 275.0 -114.5 L275.0 -177.0 Q273.0 -260.0 270.5 -343.5 L425.5 -343.5 Q408.0 -187.0 390.0 -31.0 390.0 -7.0 487.5 0.0 682.5 -10.5 682.5 -21.0 682.5 -114.0 629.5 -479.0 538.5 -927.0 381.0 -927.0 L363.5 -927.0"
         fill-rule="evenodd"
         stroke="none"
         id="path9" />
    </g>
    <g
       id="font_Nb_Obese_V0">
      <path
         d="M104.0 -922.5 Q0.0 -902.5 0.0 -827.0 L0.0 -814.0 Q0.0 -729.0 120.5 -278.5 184.5 0.0 237.0 0.0 L299.5 0.0 Q381.5 0.0 437.0 -91.5 503.5 -224.5 682.5 -835.5 682.5 -901.0 574.5 -927.0 L553.5 -927.0 Q535.0 -922.5 516.0 -918.5 460.0 -918.5 312.0 -361.0 L308.0 -361.0 Q216.5 -778.5 195.5 -831.5 195.5 -911.0 104.0 -922.5"
         fill-rule="evenodd"
         stroke="none"
         id="path10" />
    </g>
    <g
       id="font_Nb_Obese_E0">
      <path
         d="M570.5 -927.0 Q118.0 -853.0 25.5 -853.0 L5.0 -858.0 0.0 -853.0 Q86.5 -536.0 86.5 -310.5 86.5 -162.5 40.5 -39.5 40.5 -22.5 524.5 0.0 L580.5 -5.0 Q682.5 -5.0 682.5 -79.0 682.5 -153.0 652.0 -246.5 L565.5 -241.5 504.0 -241.5 Q379.5 -241.5 285.0 -291.0 L285.0 -296.0 290.5 -301.0 290.5 -365.0 Q436.5 -414.0 519.5 -414.0 L535.0 -414.0 Q559.5 -414.0 585.5 -399.5 L591.0 -399.5 596.0 -404.5 Q591.0 -517.5 585.5 -631.0 L585.5 -636.0 580.5 -641.0 Q403.0 -572.0 285.0 -572.0 L265.0 -577.0 260.0 -577.0 265.0 -685.5 Q368.0 -744.5 489.0 -744.5 L494.0 -744.5 Q530.0 -744.5 550.0 -734.5 L560.5 -744.5 570.5 -907.5 575.5 -922.0 570.5 -927.0"
         fill-rule="evenodd"
         stroke="none"
         id="path11" />
    </g>
    <g
       id="sprite0"
       transform="matrix(1.0, 0.0, 0.0, 1.0, 1.25, 1.25)">
      <use
         ffdec:characterId="5578"
         height="33.65"
         transform="matrix(1.0, 0.0, 0.0, 1.0, -1.25, -1.25)"
         width="33.1"
         xlink:href="#shape1"
         id="use11" />
    </g>
    <g
       id="shape1"
       transform="matrix(1.0, 0.0, 0.0, 1.0, 1.25, 1.25)">
      <path
         d="M27.45 -0.65 L29.3 0.35 Q31.4 2.0 31.35 3.4 32.3 16.45 31.45 29.7 30.1 31.7 29.0 31.75 L25.7 32.1 24.6 32.15 Q15.3 32.7 5.75 32.1 L4.7 32.05 1.75 31.7 0.6 31.1 Q-0.5 30.45 -0.5 29.55 L-1.15 17.35 Q-1.6 4.45 -0.4 0.85 L-0.15 0.3 0.85 -0.45 4.4 -0.95 4.4 -0.9 8.65 -1.15 Q16.8 -1.4 24.6 -0.9 L27.45 -0.65"
         fill="#002f3f"
         fill-rule="evenodd"
         stroke="none"
         id="path12" />
      <path
         d="M19.9 1.15 L9.65 1.2 9.7 6.5 9.8 6.5 Q10.1 5.4 10.95 4.55 14.0 1.4 23.6 1.1 L20.6 1.15 21.1 1.1 19.9 1.15 M23.9 0.5 Q24.55 5.3 23.9 10.15 23.35 11.25 22.15 12.15 15.6 12.6 9.0 12.2 8.5 6.25 9.0 0.35 L9.2 0.2 Q16.75 -0.05 23.9 0.5 M20.1 2.5 L17.2 2.45 Q16.9 6.3 17.2 10.1 L20.1 10.15 Q20.5 6.4 20.1 2.5"
         fill="#c5c5c5"
         fill-rule="evenodd"
         stroke="none"
         id="path13" />
      <path
         d="M9.0 12.2 Q15.6 12.6 22.15 12.15 23.35 11.25 23.9 10.15 24.55 5.3 23.9 0.5 L26.5 0.65 28.2 1.6 Q30.15 3.1 30.1 4.4 30.9 16.4 30.2 28.6 28.95 30.45 27.95 30.5 L24.9 30.75 Q25.55 23.75 25.15 17.2 15.45 16.35 5.3 17.0 4.85 23.75 5.65 30.7 L2.8 30.45 1.85 29.9 Q0.8 29.25 0.8 28.4 L0.2 17.2 Q-0.25 5.35 0.9 2.05 L1.15 1.55 2.05 0.85 5.3 0.45 5.3 0.5 Q4.75 5.2 5.3 10.3 5.5 11.45 6.7 11.95 L9.0 12.2"
         fill="#0099cc"
         fill-rule="evenodd"
         stroke="none"
         id="path14" />
      <path
         d="M9.2 0.2 L9.0 0.35 Q8.5 6.25 9.0 12.2 L6.7 11.95 Q5.5 11.45 5.3 10.3 4.75 5.2 5.3 0.5 L9.0 0.2 9.2 0.2 M20.1 2.5 Q20.5 6.4 20.1 10.15 L17.2 10.1 Q16.9 6.3 17.2 2.45 L20.1 2.5"
         fill="#00465d"
         fill-rule="evenodd"
         stroke="none"
         id="path15" />
      <path
         d="M5.65 30.7 Q4.85 23.75 5.3 17.0 15.45 16.35 25.15 17.2 25.55 23.75 24.9 30.75 L23.9 30.8 Q24.5 27.75 24.3 17.8 18.2 17.35 11.5 17.55 L6.1 17.85 Q5.7 19.25 6.15 25.55 L6.55 30.75 5.65 30.7 M8.85 27.75 L23.1 27.8 23.15 28.0 23.05 28.15 15.7 28.15 8.25 28.1 8.25 28.0 8.35 27.7 8.85 27.75 M8.1 25.85 Q8.1 25.5 8.65 25.65 L22.8 25.7 22.85 25.85 22.75 26.05 8.15 26.05 8.1 25.85"
         fill="#002f3f"
         fill-rule="evenodd"
         stroke="none"
         id="path16" />
      <path
         d="M21.85 18.25 L22.05 18.25 23.05 18.35 23.1 18.6 22.95 18.85 Q23.2 18.9 23.2 19.05 L23.15 19.35 23.05 19.5 21.2 19.85 19.05 19.7 16.85 19.8 Q11.45 19.95 9.55 21.45 L7.8 23.65 Q7.8 24.65 7.55 24.65 7.35 24.65 7.3 23.8 L7.3 22.85 7.4 19.95 7.3 19.7 7.4 19.55 7.35 19.4 7.45 19.15 7.45 19.1 7.35 18.85 7.45 18.7 7.4 18.55 7.5 18.3 7.85 18.25 9.5 18.2 21.75 18.2 21.85 18.25"
         fill="#ffffff"
         fill-rule="evenodd"
         stroke="none"
         id="path17" />
      <path
         d="M21.85 18.25 L21.75 18.2 9.5 18.2 7.85 18.25 7.5 18.3 7.4 18.55 7.45 18.7 7.35 18.85 7.45 19.1 7.45 19.15 7.35 19.4 7.4 19.55 7.3 19.7 7.4 19.95 7.3 22.85 7.3 23.8 Q7.35 24.65 7.55 24.65 7.8 24.65 7.8 23.65 L9.55 21.45 Q11.45 19.95 16.85 19.8 L19.05 19.7 21.2 19.85 23.05 19.5 23.15 19.35 23.2 19.05 Q23.2 18.9 22.95 18.85 L23.1 18.6 23.05 18.35 22.05 18.25 21.85 18.25 M6.55 30.75 L6.15 25.55 Q5.7 19.25 6.1 17.85 L11.5 17.55 Q18.2 17.35 24.3 17.8 24.5 27.75 23.9 30.8 15.3 31.35 6.55 30.75 M8.1 25.85 L8.15 26.05 22.75 26.05 22.85 25.85 22.8 25.7 8.65 25.65 Q8.1 25.5 8.1 25.85 M8.85 27.75 L8.35 27.7 8.25 28.0 8.25 28.1 15.7 28.15 23.05 28.15 23.15 28.0 23.1 27.8 8.85 27.75"
         fill="#d0d0d0"
         fill-rule="evenodd"
         stroke="none"
         id="path18" />
      <path
         d="M20.6 1.15 L23.6 1.1 Q14.0 1.4 10.95 4.55 10.1 5.4 9.8 6.5 L9.7 6.5 9.65 1.2 19.9 1.15 20.6 1.15"
         fill="#eeeeee"
         fill-rule="evenodd"
         stroke="none"
         id="path19" />
      <path
         d="M9.0 12.2 Q15.6 12.6 22.15 12.15 23.35 11.25 23.9 10.15 24.55 5.3 23.9 0.5 M9.0 12.2 L6.7 11.95 Q5.5 11.45 5.3 10.3 4.75 5.2 5.3 0.5 L5.3 0.45"
         fill="none"
         stroke="#002f3f"
         stroke-linecap="butt"
         stroke-linejoin="miter-clip"
         stroke-miterlimit="3.0"
         stroke-width="1.0"
         id="path20" />
    </g>
  </defs>
</svg>
