<?xml version="1.0" encoding="UTF-8" standalone="no"?>
<svg xmlns:ffdec="https://www.free-decompiler.com/flash" xmlns:xlink="http://www.w3.org/1999/xlink" ffdec:objectType="frame" height="70.8px" width="45.85px" xmlns="http://www.w3.org/2000/svg">
  <g transform="matrix(1.0, 0.0, 0.0, 1.0, 30.55, 3.35)">
    <use ffdec:characterId="701" height="10.45" transform="matrix(1.0, 0.0, 0.0, 1.0, -23.95, 52.05)" width="30.35" xlink:href="#shape0"/>
    <use ffdec:characterId="692" height="301.35" transform="matrix(-0.1426, 0.0, 0.0, 0.1426, 5.4319, -3.3318)" width="165.85" xlink:href="#shape1"/>
  </g>
  <defs>
    <g id="shape0" transform="matrix(1.0, 0.0, 0.0, 1.0, 16.95, -34.4)">
      <path d="M-4.3 40.35 Q-3.4 41.0 -3.4 41.9 -3.4 42.8 -4.3 43.45 -5.2 44.1 -6.5 44.1 -7.75 44.1 -8.65 43.45 -9.55 42.8 -9.55 41.9 -9.55 41.0 -8.65 40.35 -7.75 39.7 -6.5 39.7 -5.2 39.7 -4.3 40.35" fill="#696565" fill-rule="evenodd" stroke="none"/>
      <path d="M-13.65 35.9 Q-13.1 36.4 -13.1 37.05 -13.1 37.7 -13.65 38.2 -14.25 38.65 -15.0 38.65 L-16.35 38.2 Q-16.95 37.7 -16.95 37.05 -16.95 36.4 -16.35 35.9 -15.8 35.4 -15.0 35.4 -14.25 35.4 -13.65 35.9" fill="#696565" fill-rule="evenodd" stroke="none"/>
      <path d="M12.9 39.4 Q13.4 39.8 13.4 40.3 13.4 40.85 12.9 41.2 12.45 41.6 11.8 41.6 11.15 41.6 10.65 41.2 10.2 40.85 10.2 40.3 10.2 39.8 10.65 39.4 11.15 39.0 11.8 39.0 12.45 39.0 12.9 39.4" fill="#696565" fill-rule="evenodd" stroke="none"/>
      <path d="M-12.05 37.45 Q-11.5 37.9 -11.5 38.5 -11.5 39.15 -12.05 39.55 -12.55 40.0 -13.3 40.0 L-14.55 39.55 Q-15.1 39.15 -15.1 38.5 -15.1 37.9 -14.55 37.45 -14.05 37.0 -13.3 37.0 -12.55 37.0 -12.05 37.45" fill="#696565" fill-rule="evenodd" stroke="none"/>
      <path d="M-11.15 34.85 Q-10.45 35.25 -10.45 35.85 -10.45 36.4 -11.15 36.8 -11.85 37.25 -12.8 37.25 L-14.5 36.8 Q-15.15 36.4 -15.15 35.85 -15.15 35.25 -14.5 34.85 -13.8 34.4 -12.8 34.4 -11.85 34.4 -11.15 34.85" fill="#696565" fill-rule="evenodd" stroke="none"/>
      <path d="M12.85 37.95 Q13.3 38.3 13.3 38.8 L12.85 39.6 11.9 39.95 Q11.3 39.95 10.9 39.6 10.5 39.25 10.5 38.8 10.5 38.3 10.9 37.95 11.3 37.6 11.9 37.6 12.45 37.6 12.85 37.95" fill="#696565" fill-rule="evenodd" stroke="none"/>
      <path d="M3.4 41.95 Q3.95 42.3 3.95 42.85 3.95 43.35 3.4 43.75 L2.15 44.1 Q1.4 44.1 0.85 43.75 0.3 43.35 0.3 42.85 0.3 42.3 0.85 41.95 1.4 41.55 2.15 41.55 2.9 41.55 3.4 41.95" fill="#696565" fill-rule="evenodd" stroke="none"/>
      <path d="M-6.1 42.9 Q-5.7 43.25 -5.7 43.7 -5.7 44.2 -6.1 44.5 -6.5 44.85 -7.05 44.85 -7.65 44.85 -8.05 44.5 -8.45 44.2 -8.45 43.7 -8.45 43.25 -8.05 42.9 -7.65 42.6 -7.05 42.6 -6.5 42.6 -6.1 42.9" fill="#696565" fill-rule="evenodd" stroke="none"/>
      <path d="M-13.5 36.3 Q-13.05 36.7 -12.95 37.25 -12.85 37.85 -13.2 38.3 -13.5 38.8 -14.1 38.9 L-15.15 38.6 Q-15.6 38.25 -15.7 37.65 L-15.45 36.6 Q-15.1 36.15 -14.55 36.05 -13.95 35.95 -13.5 36.3" fill="#95847e" fill-rule="evenodd" stroke="none"/>
      <path d="M-11.95 37.2 Q-11.5 37.55 -11.45 38.05 -11.35 38.55 -11.7 38.95 L-12.5 39.5 Q-13.0 39.6 -13.4 39.25 L-13.9 38.45 Q-13.95 37.95 -13.65 37.5 -13.35 37.15 -12.85 37.05 L-11.95 37.2" fill="#95847e" fill-rule="evenodd" stroke="none"/>
      <path d="M-11.5 35.3 Q-11.0 35.65 -10.9 36.15 -10.85 36.65 -11.25 37.05 -11.55 37.45 -12.2 37.55 L-13.4 37.4 Q-13.85 37.1 -13.9 36.6 -14.0 36.1 -13.65 35.65 -13.25 35.25 -12.6 35.1 L-11.5 35.3" fill="#95847e" fill-rule="evenodd" stroke="none"/>
      <path d="M-5.7 41.55 Q-5.25 41.9 -5.15 42.45 -5.05 43.0 -5.4 43.55 L-6.3 44.1 -7.35 43.85 -7.85 42.9 Q-7.95 42.35 -7.65 41.85 -7.25 41.35 -6.7 41.3 -6.15 41.2 -5.7 41.55" fill="#95847e" fill-rule="evenodd" stroke="none"/>
      <path d="M-10.25 35.4 Q-9.8 35.8 -9.7 36.4 -9.6 37.05 -9.9 37.5 L-10.8 38.1 Q-11.35 38.2 -11.8 37.8 -12.3 37.5 -12.4 36.85 L-12.15 35.7 Q-11.8 35.25 -11.25 35.15 -10.7 35.1 -10.25 35.4" fill="#95847e" fill-rule="evenodd" stroke="none"/>
      <path d="M7.45 41.65 Q7.9 41.85 7.95 42.25 8.0 42.7 7.65 43.1 7.35 43.45 6.8 43.5 L5.85 43.35 Q5.4 43.1 5.35 42.65 5.3 42.25 5.65 41.9 6.0 41.55 6.5 41.45 L7.45 41.65" fill="#95847e" fill-rule="evenodd" stroke="none"/>
      <path d="M-4.75 40.3 Q-4.4 40.6 -4.35 41.1 -4.25 41.6 -4.5 41.95 L-5.2 42.45 Q-5.65 42.5 -6.0 42.2 L-6.45 41.45 -6.25 40.55 Q-6.05 40.15 -5.6 40.1 L-4.75 40.3" fill="#95847e" fill-rule="evenodd" stroke="none"/>
      <path d="M12.1 37.7 Q12.55 38.0 12.65 38.5 12.7 38.95 12.35 39.35 11.95 39.75 11.35 39.85 L10.25 39.7 Q9.8 39.4 9.75 38.95 9.65 38.45 10.0 38.05 10.4 37.6 11.0 37.5 L12.1 37.7" fill="#95847e" fill-rule="evenodd" stroke="none"/>
      <path d="M12.6 38.8 L13.0 39.4 12.8 40.1 12.1 40.45 11.3 40.35 Q10.95 40.15 10.9 39.75 10.85 39.35 11.1 39.05 11.35 38.75 11.8 38.65 L12.6 38.8" fill="#95847e" fill-rule="evenodd" stroke="none"/>
      <path d="M-13.3 36.75 Q-12.95 37.0 -12.9 37.35 -12.85 37.75 -13.1 38.05 L-13.7 38.4 -14.4 38.2 -14.75 37.6 -14.6 36.9 Q-14.3 36.6 -13.9 36.55 -13.55 36.5 -13.3 36.75" fill="#a8a491" fill-rule="evenodd" stroke="none"/>
      <path d="M-11.75 37.2 Q-11.45 37.45 -11.4 37.85 L-11.55 38.55 -12.25 38.95 -12.95 38.75 -13.3 38.1 -13.15 37.4 Q-12.9 37.1 -12.5 37.05 L-11.75 37.2" fill="#a8a491" fill-rule="evenodd" stroke="none"/>
      <path d="M-11.55 35.6 Q-11.2 35.85 -11.15 36.3 -11.1 36.7 -11.35 37.05 L-12.05 37.45 -12.8 37.25 -13.2 36.6 -13.0 35.8 Q-12.75 35.45 -12.35 35.4 -11.9 35.35 -11.55 35.6" fill="#a8a491" fill-rule="evenodd" stroke="none"/>
      <path d="M-5.75 40.85 Q-5.4 41.2 -5.35 41.7 -5.3 42.2 -5.55 42.6 -5.8 43.0 -6.25 43.05 L-7.0 42.8 -7.4 41.95 -7.2 41.05 -6.55 40.55 Q-6.1 40.5 -5.75 40.85" fill="#a8a491" fill-rule="evenodd" stroke="none"/>
      <path d="M-7.05 43.0 L-7.0 43.1 -7.05 43.2 -7.15 43.3 -7.25 43.25 -7.3 43.15 -7.25 43.05 -7.15 43.0 -7.05 43.0" fill="#a8a491" fill-rule="evenodd" stroke="none"/>
      <path d="M7.25 42.05 L7.5 42.5 7.4 42.95 6.85 43.25 6.25 43.1 5.95 42.7 Q5.95 42.4 6.1 42.2 6.35 42.0 6.7 41.95 L7.25 42.05" fill="#a8a491" fill-rule="evenodd" stroke="none"/>
      <path d="M-6.6 40.4 Q-6.2 40.6 -6.15 40.95 -6.1 41.3 -6.45 41.6 -6.7 41.9 -7.15 41.95 L-7.95 41.8 -8.3 41.25 -8.1 40.6 Q-7.8 40.3 -7.35 40.25 L-6.6 40.4" fill="#a8a491" fill-rule="evenodd" stroke="none"/>
      <path d="M11.6 38.05 Q11.85 38.2 11.9 38.5 L11.7 39.0 11.05 39.25 10.4 39.15 Q10.05 39.0 10.05 38.75 10.0 38.45 10.3 38.2 10.5 38.0 10.9 37.95 L11.6 38.05" fill="#a8a491" fill-rule="evenodd" stroke="none"/>
      <path d="M11.8 38.9 L12.15 39.35 11.95 39.95 11.5 40.2 10.9 40.1 10.65 39.55 10.75 39.05 11.3 38.75 11.8 38.9" fill="#a8a491" fill-rule="evenodd" stroke="none"/>
    </g>
    <g id="shape1" transform="matrix(1.0, 0.0, 0.0, 1.0, 82.95, 148.85)">
      <path d="M13.7 -130.15 Q13.7 -123.45 8.95 -118.7 6.75 -116.5 4.1 -115.3 L4.1 -91.15 -10.3 -91.15 -10.3 -115.9 Q-12.25 -117.0 -13.95 -118.7 -18.7 -123.45 -18.7 -130.15 -18.7 -136.85 -13.95 -141.6 -9.2 -146.35 -2.5 -146.35 4.2 -146.35 8.95 -141.6 13.7 -136.85 13.7 -130.15" fill="#0f1015" fill-rule="evenodd" stroke="none"/>
      <path d="M13.7 -130.15 Q13.7 -123.45 8.95 -118.7 6.75 -116.5 4.1 -115.3 L4.1 -91.15 -10.3 -91.15 -10.3 -115.9 Q-12.25 -117.0 -13.95 -118.7 -18.7 -123.45 -18.7 -130.15 -18.7 -136.85 -13.95 -141.6 -9.2 -146.35 -2.5 -146.35 4.2 -146.35 8.95 -141.6 13.7 -136.85 13.7 -130.15 Z" ffdec:has-small-stroke="true" ffdec:original-stroke-width="5.0" fill="none" stroke="#000000" stroke-linecap="round" stroke-linejoin="round" stroke-width="7.010697475395808"/>
      <path d="M-48.1 103.55 Q-52.4 93.1 -57.05 79.65 -70.85 39.6 -75.15 6.25 -81.15 -40.5 -67.2 -67.2 -49.8 -100.55 -2.0 -100.55 45.8 -100.55 64.75 -67.2 79.95 -40.5 76.15 6.25 73.4 39.6 61.4 79.65 57.25 93.6 53.35 104.3 59.0 110.15 59.0 117.2 59.0 129.35 42.35 137.85 25.75 146.5 2.25 146.5 -21.3 146.5 -37.9 137.85 -54.5 129.35 -54.5 117.2 -54.5 109.7 -48.1 103.55 L-44.05 113.0 -41.85 114.55 Q-38.7 116.4 -34.25 117.95 -19.9 122.9 2.75 122.9 25.4 122.9 39.95 117.95 47.25 115.5 50.0 113.0 L53.35 104.3 50.0 113.0 Q47.25 115.5 39.95 117.95 25.4 122.9 2.75 122.9 -19.9 122.9 -34.25 117.95 -38.7 116.4 -41.85 114.55 L-44.05 113.0 -48.1 103.55" fill="#000000" fill-rule="evenodd" stroke="none"/>
      <path d="M-48.1 103.55 Q-52.4 93.1 -57.05 79.65 -70.85 39.6 -75.15 6.25 -81.15 -40.5 -67.2 -67.2 -49.8 -100.55 -2.0 -100.55 45.8 -100.55 64.75 -67.2 79.95 -40.5 76.15 6.25 73.4 39.6 61.4 79.65 57.25 93.6 53.35 104.3 59.0 110.15 59.0 117.2 59.0 129.35 42.35 137.85 25.75 146.5 2.25 146.5 -21.3 146.5 -37.9 137.85 -54.5 129.35 -54.5 117.2 -54.5 109.7 -48.1 103.55 L-44.05 113.0 -41.85 114.55 Q-38.7 116.4 -34.25 117.95 -19.9 122.9 2.75 122.9 25.4 122.9 39.95 117.95 47.25 115.5 50.0 113.0 L53.35 104.3" fill="none" stroke="#000000" stroke-linecap="round" stroke-linejoin="round" stroke-width="12.0"/>
      <path d="M-54.5 117.2 Q-54.5 105.1 -37.9 96.5 -21.3 87.95 2.25 87.95 25.75 87.95 42.35 96.5 59.0 105.1 59.0 117.2 59.0 129.35 42.35 137.85 25.75 146.5 2.25 146.5 -21.3 146.5 -37.9 137.85 -54.5 129.35 -54.5 117.2" fill="#0f1015" fill-rule="evenodd" stroke="none"/>
      <path d="M-37.9 96.5 Q-21.3 87.95 2.25 87.95 L3.15 87.95 Q-12.0 100.95 -12.0 118.9 L-11.95 120.5 -17.85 124.0 Q-26.5 129.95 -26.5 135.25 -26.5 139.45 -21.2 144.0 -30.3 141.8 -37.9 137.85 -54.5 129.35 -54.5 117.2 -54.5 105.1 -37.9 96.5" fill="#7e7f8c" fill-rule="evenodd" stroke="none"/>
      <path d="M-37.9 96.5 Q-33.65 94.3 -28.9 92.7 -36.0 102.65 -36.0 114.9 L-35.95 116.5 -41.85 120.0 Q-48.55 124.6 -50.05 128.8 -54.5 123.5 -54.5 117.2 -54.5 105.1 -37.9 96.5" fill="#1a1c23" fill-rule="evenodd" stroke="none"/>
      <path d="M59.7 110.6 Q55.9 118.05 44.1 123.85 26.8 132.5 2.25 132.5 -22.3 132.5 -39.65 123.85 -51.4 118.05 -55.2 110.6 -51.4 103.15 -39.65 97.3 -22.3 88.75 2.25 88.75 26.8 88.75 44.1 97.3 55.9 103.15 59.7 110.6" fill="#000000" fill-rule="evenodd" stroke="none"/>
      <path d="M76.15 6.25 Q73.4 39.6 61.4 79.65 55.45 99.65 50.0 113.0 47.25 115.5 39.95 117.95 25.4 122.9 2.75 122.9 -19.9 122.9 -34.25 117.95 -38.7 116.4 -41.85 114.55 L-44.05 113.0 Q-50.1 99.65 -57.05 79.65 -70.85 39.6 -75.15 6.25 -81.15 -40.5 -67.2 -67.2 -49.8 -100.55 -2.0 -100.55 45.8 -100.55 64.75 -67.2 79.95 -40.5 76.15 6.25" fill="#0f1015" fill-rule="evenodd" stroke="none"/>
      <path d="M5.6 -100.3 Q-20.25 -92.15 -32.05 -66.7 -46.0 -36.75 -40.0 15.75 -35.7 53.2 -21.9 98.2 -17.8 111.45 -14.0 122.1 -25.65 120.9 -34.25 117.95 -38.7 116.4 -41.85 114.55 L-44.05 113.0 Q-50.1 99.65 -57.05 79.65 -70.85 39.6 -75.15 6.25 -81.15 -40.5 -67.2 -67.2 -49.8 -100.55 -2.0 -100.55 L5.6 -100.3" fill="#7e7f8c" fill-rule="evenodd" stroke="none"/>
      <path d="M4.65 -100.35 Q-37.95 -98.05 -54.15 -64.1 -68.1 -34.9 -62.1 16.2 -57.8 52.6 -44.0 96.4 -40.45 107.6 -37.1 116.85 L-41.85 114.55 -44.05 113.0 Q-50.1 99.65 -57.05 79.65 -70.85 39.6 -75.15 6.25 -81.15 -40.5 -67.2 -67.2 -49.8 -100.55 -2.0 -100.55 L4.65 -100.35" fill="#1a1c23" fill-rule="evenodd" stroke="none"/>
    </g>
  </defs>
</svg>
