<?xml version="1.0" encoding="UTF-8" standalone="no"?>
<svg
   ffdec:objectType="frame"
   height="47.65px"
   width="49.9px"
   version="1.1"
   id="svg34"
   sodipodi:docname="1.svg"
   inkscape:version="1.4.2 (f4327f4, 2025-05-13)"
   xmlns:inkscape="http://www.inkscape.org/namespaces/inkscape"
   xmlns:sodipodi="http://sodipodi.sourceforge.net/DTD/sodipodi-0.dtd"
   xmlns:xlink="http://www.w3.org/1999/xlink"
   xmlns="http://www.w3.org/2000/svg"
   xmlns:svg="http://www.w3.org/2000/svg"
   xmlns:ffdec="https://www.free-decompiler.com/flash">
  <sodipodi:namedview
     id="namedview34"
     pagecolor="#505050"
     bordercolor="#eeeeee"
     borderopacity="1"
     inkscape:showpageshadow="0"
     inkscape:pageopacity="0"
     inkscape:pagecheckerboard="0"
     inkscape:deskcolor="#505050"
     inkscape:zoom="24.49108"
     inkscape:cx="24.968274"
     inkscape:cy="23.825001"
     inkscape:window-width="2560"
     inkscape:window-height="1369"
     inkscape:window-x="-8"
     inkscape:window-y="-8"
     inkscape:window-maximized="1"
     inkscape:current-layer="g5" />
  <g
     transform="matrix(1.0, 0.0, 0.0, 1.0, 1.8, 1.6)"
     id="g5">
    <filter
       id="filter0"
       x="-0.034640995"
       y="-0.01451093"
       width="1.0854275"
       height="1.0414565">
      <feOffset
         dx="1.41423199166404"
         dy="1.4141951328419862"
         in="SourceGraphic"
         result="filterResult0"
         id="feOffset1" />
      <feColorMatrix
         in="filterResult0"
         result="filterResult1"
         type="matrix"
         values="0 0 0 0 0.0,0 0 0 0 0.0,0 0 0 0 0.0,0 0 0 1 0"
         id="feColorMatrix1" />
      <feColorMatrix
         in="filterResult1"
         result="filterResult2"
         type="matrix"
         values="1 0 0 0 0,0 1 0 0 0,0 0 1 0 0,0 0 0 0.19921875 0"
         id="feColorMatrix2" />
      <feComposite
         in="SourceGraphic"
         in2="filterResult2"
         operator="over"
         result="filterResult3"
         id="feComposite2" />
    </filter>
    <g
       id="use2"
       transform="matrix(-0.35,0,0,-0.35,21.8996,19.8494)"
       style="filter:url(#filter0)">
      <g
         id="use36"
         transform="matrix(1.2137,0.7007,-0.7007,1.2137,15.500185,18.549195)">
        <path
           d="m 0.75,-12.5 -4.75,-4.4 -5,5.95 2.9,4.4 q 3.3,5.2 5,9.15 0.8,1.85 1.2,5.1 l 0.5,4.9 q 0.85,5.1 4.55,4.45 4.1,-0.8 4,-9.15 Q 9.1,1.1 7,-4.3 5.7,-7.45 0.75,-12.5"
           fill="#3d91af"
           fill-rule="evenodd"
           stroke="none"
           id="path41" />
        <path
           d="m 0.6,-12.65 -4.8,-4.4 -4.95,5.9 2.9,4.45 q 3.3,5.15 5,9.1 0.75,1.85 1.2,5.05 Q 5.05,7.7 9,9.1 V 7.75 Q 8.95,0.95 6.8,-4.45 5.5,-7.6 0.6,-12.65"
           fill="#ffffff"
           fill-rule="evenodd"
           stroke="none"
           id="path42" />
        <path
           d="M 0.8,-12.5 Q 5.7,-7.45 7,-4.25 9.15,1.1 9.2,7.9 v 1.35 q -0.25,7.05 -4,7.8 -3.7,0.65 -4.55,-4.5 L 0.15,7.7 0.1,7.6 -0.1,6.2 -0.35,4.9 -1.05,2.55 q -1.7,-3.95 -5,-9.1 l -2.9,-4.45 5,-5.9 z"
           ffdec:has-small-stroke="true"
           ffdec:original-stroke-width="2.0"
           fill="none"
           stroke="#ade8fc"
           stroke-linecap="round"
           stroke-linejoin="round"
           stroke-width="2.03871"
           id="path43" />
      </g>
      <g
         id="use37"
         transform="matrix(1.2137,-0.7007,0.7007,1.2137,-17.750815,18.699725)">
        <path
           d="m -0.8,-12.5 4.7,-4.4 5.05,5.95 -2.85,4.4 Q 2.8,-1.35 1.15,2.55 0.3,4.5 -0.1,7.7 l -0.45,4.9 q -0.8,5.1 -4.45,4.5 -4.15,-0.8 -4.1,-9.15 0.05,-6.8 2.1,-12.2 1.25,-3.2 6.2,-8.25"
           fill="#3d91af"
           fill-rule="evenodd"
           stroke="none"
           id="path44" />
        <path
           d="m -0.6,-12.75 4.7,-4.35 5.05,5.9 -2.85,4.4 Q 3,-1.6 1.35,2.35 0.5,4.2 0.15,7.4 -5,7.65 -8.9,9.1 V 7.7 q 0.05,-6.8 2.1,-12.15 1.25,-3.25 6.2,-8.3"
           fill="#ffffff"
           fill-rule="evenodd"
           stroke="none"
           id="path45" />
        <path
           d="m -0.85,-12.5 q -4.9,5.05 -6.2,8.25 -2.05,5.4 -2.1,12.2 V 9.3 q 0.3,7.05 4.1,7.75 3.65,0.65 4.5,-4.45 L -0.1,7.65 V 7.6 L 0.1,6.2 0.35,4.9 1.1,2.55 Q 2.75,-1.4 6.05,-6.55 L 8.9,-11 3.85,-16.9 Z"
           ffdec:has-small-stroke="true"
           ffdec:original-stroke-width="2.0"
           fill="none"
           stroke="#ade8fc"
           stroke-linecap="round"
           stroke-linejoin="round"
           stroke-width="2.03871"
           id="path46" />
      </g>
      <g
         id="use38"
         transform="matrix(1.0105,0,0,1.0105,-0.900075,-14.048525)">
        <path
           d="m 11.3,-46.65 q 1.45,0 2.5,1.05 1.85,1.85 3.15,4.4 3.25,6.45 -1,10.45 l -0.05,0.05 q -1.9,1.95 -4.95,2.85 l -0.05,0.05 -4.6,0.85 -3.6,0.8 q -1.55,0.6 -2.55,1.8 L 0.1,-24.3 q -1.3,1.9 0.2,4.8 v 0.05 l 1.8,2.6 1.15,1.35 q 0.9,1.05 0.8,2.5 -0.1,1.45 -1.15,2.4 -1.1,0.9 -2.55,0.8 -1.4,-0.1 -2.35,-1.15 l -1.15,-1.35 -0.05,-0.1 q -1.55,-1.85 -2.6,-3.75 l -0.05,-0.05 q -3.95,-7.65 0.7,-12.6 l 0.05,-0.05 q 2.1,-2.55 5.3,-3.8 L 5.3,-33.8 9,-34.5 h 0.05 q 1.15,-0.35 1.9,-1.05 0.6,-0.95 -0.2,-2.5 v -0.05 l -1.9,-2.6 q -1,-1 -1,-2.45 0,-1.45 1,-2.45 1.05,-1.05 2.45,-1.05"
           fill="#ffffff"
           fill-rule="evenodd"
           stroke="none"
           id="path47" />
        <path
           d="m 11.3,-46.65 q -1.4,0 -2.45,1.05 -1,1 -1,2.45 0,1.45 1,2.45 l 1.9,2.6 v 0.05 q 0.8,1.55 0.2,2.5 -0.75,0.7 -1.9,1.05 H 9 l -3.7,0.7 -5.1,1.15 q -3.2,1.25 -5.3,3.8 l -0.05,0.05 q -4.65,4.95 -0.7,12.6 l 0.05,0.05 q 1.05,1.9 2.6,3.75 l 0.05,0.1 1.15,1.35 q 0.95,1.05 2.35,1.15 1.45,0.1 2.55,-0.8 1.05,-0.95 1.15,-2.4 0.1,-1.45 -0.8,-2.5 l -1.15,-1.35 -1.8,-2.6 v -0.05 q -1.5,-2.9 -0.2,-4.8 l 0.05,-0.05 q 1,-1.2 2.55,-1.8 l 3.6,-0.8 4.6,-0.85 0.05,-0.05 q 3.05,-0.9 4.95,-2.85 l 0.05,-0.05 q 4.25,-4 1,-10.45 -1.3,-2.55 -3.15,-4.4 -1.05,-1.05 -2.5,-1.05 z"
           fill="none"
           stroke="#ade8fc"
           stroke-linecap="round"
           stroke-linejoin="round"
           stroke-width="3"
           id="path48" />
        <path
           d="m -19.65,39.05 q 7.75,-4.35 18.35,-4.85 12.8,0.45 20.45,4.95 l 0.25,0.2 v 0.05 l -0.05,0.7 q 0,2.75 -5.75,4.6 -5.7,1.95 -13.85,1.95 -8.05,0 -13.8,-1.95 -5.7,-1.85 -5.7,-4.6 l -0.15,-0.9 z"
           fill="none"
           stroke="#ade8fc"
           stroke-linecap="round"
           stroke-linejoin="round"
           stroke-width="6"
           id="path49" />
        <path
           d="M 14.05,-12.85 Q 7.4,-15.5 -0.2,-15.5 q -7.6,0 -14.25,2.65 -6.8,2.7 -12.05,7.95 -5.05,5.05 -7.65,12.85 -2.3,7 -2.3,15 0,8.7 7.7,14.05 9.4,6.6 28.55,6.6 19.15,0 28.55,-6.6 7.7,-5.35 7.7,-14.05 0,-8 -2.3,-15 -2.6,-7.8 -7.65,-12.85 -5.25,-5.25 -12.05,-7.95 z"
           fill="none"
           stroke="#ade8fc"
           stroke-linecap="round"
           stroke-linejoin="round"
           stroke-width="6"
           id="path50" />
      </g>
      <g
         id="use39"
         transform="matrix(1.0105,0,0,1.0105,-35.89995,3.750425)">
        <path
           d="m 1.75,-8.7 6.9,0.85 V 7.7 l -6.75,1 q -7.1,0.65 -8.8,-1 -1.9,-1.95 -1.8,-7.95 0.1,-5.85 1.8,-7.6 1.45,-1.4 8.65,-0.85 z"
           fill="none"
           stroke="#ade8fc"
           stroke-linecap="round"
           stroke-linejoin="round"
           stroke-width="6"
           id="path51" />
        <path
           d="m 1.75,-8.7 6.9,0.85 V 7.7 l -6.75,1 q -7.1,0.65 -8.8,-1 -1.9,-1.95 -1.8,-7.95 0.1,-5.85 1.8,-7.6 1.45,-1.4 8.65,-0.85"
           fill="#ffffff"
           fill-rule="evenodd"
           stroke="none"
           id="path52" />
        <path
           d="M -7.25,7.25 V 5.9 q 0.1,-5.85 1.85,-7.6 1.4,-1.4 8.6,-0.85 l 5.45,0.6 V 7.7 l -6.75,1 q -7.1,0.65 -8.8,-1 L -7.25,7.25"
           fill="#3d91af"
           fill-rule="evenodd"
           stroke="none"
           id="path53" />
      </g>
      <g
         id="use40"
         transform="matrix(1.0105,0,0,1.0105,34.100025,3.750425)">
        <path
           d="m -1.75,-8.7 -6.9,0.85 V 7.7 l 6.75,1 Q 5.2,9.35 6.9,7.7 8.8,5.75 8.7,-0.25 8.6,-6.1 6.9,-7.85 5.45,-9.25 -1.75,-8.7 Z"
           fill="none"
           stroke="#ade8fc"
           stroke-linecap="round"
           stroke-linejoin="round"
           stroke-width="6"
           id="path54" />
        <path
           d="m -1.75,-8.7 -6.9,0.85 V 7.7 l 6.75,1 Q 5.2,9.35 6.9,7.7 8.8,5.75 8.7,-0.25 8.6,-6.1 6.9,-7.85 5.45,-9.25 -1.75,-8.7"
           fill="#ffffff"
           fill-rule="evenodd"
           stroke="none"
           id="path55" />
        <path
           d="M 7.25,5.9 Q 7.15,0.05 5.4,-1.7 4,-3.1 -3.2,-2.55 l -5.45,0.6 V 7.7 l 6.75,1 q 7.1,0.65 8.8,-1 L 7.25,7.25 V 5.9"
           fill="#3d91af"
           fill-rule="evenodd"
           stroke="none"
           id="path56" />
      </g>
      <g
         id="use41"
         transform="matrix(1.0105,0,0,1.0105,-0.899625,-14.0492)">
        <path
           d="m 14.05,-12.85 q 6.8,2.7 12.05,7.95 5.05,5.05 7.65,12.85 2.3,7 2.3,15 0,8.7 -7.7,14.05 -9.4,6.6 -28.55,6.6 -19.15,0 -28.55,-6.6 -7.7,-5.35 -7.7,-14.05 0,-8 2.3,-15 2.6,-7.8 7.65,-12.85 5.25,-5.25 12.05,-7.95 6.65,-2.65 14.25,-2.65 7.6,0 14.25,2.65"
           fill="#ffffff"
           fill-rule="evenodd"
           stroke="none"
           id="path57" />
        <path
           d="M 14.05,-12.85 Q 7.4,-15.5 -0.2,-15.5 q -7.6,0 -14.25,2.65 -6.8,2.7 -12.05,7.95 -5.05,5.05 -7.65,12.85 -2.3,7 -2.3,15 0,8.7 7.7,14.05 9.4,6.6 28.55,6.6 19.15,0 28.55,-6.6 7.7,-5.35 7.7,-14.05 0,-8 -2.3,-15 -2.6,-7.8 -7.65,-12.85 -5.25,-5.25 -12.05,-7.95 z"
           ffdec:has-small-stroke="true"
           ffdec:original-stroke-width="1.0"
           fill="none"
           stroke="#ade8fc"
           stroke-linecap="round"
           stroke-linejoin="round"
           stroke-width="2.82758"
           id="path58" />
        <path
           d="m -8.55,-12.8 -3.75,1.2 q -6.8,2.55 -12.05,7.55 Q -29.4,0.8 -32,8.2 q -2.3,6.7 -2.3,14.3 0,8.3 7.7,13.4 4.1,2.7 10.05,4.25 -7.7,-6.1 -7.7,-15.95 0,-9.15 2.3,-17.1 2.6,-8.85 7.65,-14.6 2.65,-3.05 5.75,-5.3"
           fill="#a8e9ff"
           fill-rule="evenodd"
           stroke="none"
           id="path59" />
        <path
           d="m 13.6,44.8 q -5.7,1.95 -13.8,1.95 -8.1,0 -13.85,-1.95 -5.7,-1.85 -5.7,-4.55 l -0.1,-1 -1.1,-0.4 q -3.9,-1.55 -6.95,-3.9 -2.9,-2.2 -4.65,-4.8 1.65,-1.1 3.7,-2.15 4.1,-2.1 7.9,-2.65 3.6,-0.55 10.5,1.75 7.55,2.5 10.25,2.5 2.85,0 10.25,-2.55 6.8,-2.35 10.45,-1.85 3.7,0.55 8,2.55 3.65,2 3.85,2.05 -3.9,6.15 -11.85,9.05 l -1.1,0.35 -0.1,1.05 q 0,2.7 -5.7,4.55"
           fill="#1d6f8c"
           fill-rule="evenodd"
           stroke="none"
           id="path60" />
        <path
           d="m 16.45,35.3 q 0,1.2 0.85,2.1 0.9,0.85 2.1,0.85 1.25,0 2.1,-0.85 0.9,-0.9 0.9,-2.1 0,-1.25 -0.9,-2.1 -0.85,-0.9 -2.1,-0.9 -1.2,0 -2.1,0.9 -0.85,0.85 -0.85,2.1"
           fill="#000000"
           fill-rule="evenodd"
           stroke="none"
           id="path61" />
        <path
           d="M -22.6,34.05 -22,33.2 q 0.9,-0.9 2.1,-0.9 1.25,0 2.1,0.9 l 0.65,0.85 q 0.25,0.55 0.25,1.25 0,1.2 -0.9,2.1 -0.85,0.85 -2.1,0.85 -1.2,0 -2.1,-0.85 -0.85,-0.9 -0.85,-2.1 l 0.25,-1.25"
           fill="#000000"
           fill-rule="evenodd"
           stroke="none"
           id="path62" />
        <path
           d="m 19.35,40.2 q 0,2.75 -5.75,4.6 -5.7,1.95 -13.85,1.95 -8.05,0 -13.8,-1.95 -5.7,-1.85 -5.7,-4.6 l -0.15,-0.9 0.25,-0.15 q 7.75,-4.35 18.35,-4.85 12.8,0.45 20.45,4.95 l 0.25,0.2 v 0.05 l -0.05,0.7"
           fill="#3d91af"
           fill-rule="evenodd"
           stroke="none"
           id="path63" />
      </g>
    </g>
    <filter
       id="filter1"
       x="0"
       y="0"
       width="1"
       height="1">
      <feColorMatrix
         in="SourceGraphic"
         result="filterResult4"
         type="matrix"
         values="0 0 0 0 0.2,0 0 0 0 0.2,0 0 0 0 0.2,0 0 0 1 0"
         id="feColorMatrix3" />
      <feConvolveMatrix
         divisor="9.0"
         in="filterResult4"
         kernelMatrix="1 1 1 1 1 1 1 1 1"
         order="3 3"
         result="filterResult5"
         id="feConvolveMatrix3" />
      <feConvolveMatrix
         divisor="9.0"
         in="filterResult5"
         kernelMatrix="1 1 1 1 1 1 1 1 1"
         order="3 3"
         result="filterResult6"
         id="feConvolveMatrix4" />
      <feConvolveMatrix
         divisor="9.0"
         in="filterResult6"
         kernelMatrix="1 1 1 1 1 1 1 1 1"
         order="3 3"
         result="filterResult7"
         id="feConvolveMatrix5" />
      <feComposite
         in="SourceGraphic"
         in2="filterResult7"
         operator="over"
         result="filterResult8"
         id="feComposite5" />
    </filter>
  </g>
  <defs
     id="defs34">
    <g
       id="shape0"
       transform="matrix(1.0, 0.0, 0.0, 1.0, 1.25, 1.05)">
      <path
         d="M42.55 43.05 L1.45 44.5 -0.25 0.0 46.45 3.0 42.55 43.05"
         fill="#ffffff"
         fill-opacity="0.49803922"
         fill-rule="evenodd"
         stroke="none"
         id="path5" />
      <path
         d="M42.55 43.05 L1.45 44.5 -0.25 0.0 46.45 3.0 42.55 43.05 Z"
         fill="none"
         stroke="#000000"
         stroke-linecap="butt"
         stroke-linejoin="miter-clip"
         stroke-miterlimit="3.0"
         stroke-opacity="0.49803922"
         stroke-width="2.0"
         id="path6" />
    </g>
    <g
       id="sprite0"
       transform="matrix(1.0, 0.0, 0.0, 1.0, 47.7, 62.7)">
      <use
         ffdec:characterId="5062"
         height="36.0"
         transform="matrix(1.2137, 0.7007, -0.7007, 1.2137, 15.9664, -10.148)"
         width="20.15"
         xlink:href="#shape1"
         id="use6" />
      <use
         ffdec:characterId="5063"
         height="36.0"
         transform="matrix(1.2137, -0.7007, 0.7007, 1.2137, -42.6124, 4.0866)"
         width="20.05"
         xlink:href="#shape2"
         id="use7" />
      <use
         ffdec:characterId="5064"
         height="97.8"
         transform="matrix(1.0105, 0.0, 0.0, 1.0105, -40.7643, -62.7041)"
         width="78.5"
         xlink:href="#shape3"
         id="use8" />
      <use
         ffdec:characterId="5065"
         height="23.75"
         transform="matrix(1.0105, 0.0, 0.0, 1.0105, -47.7228, -8.224)"
         width="23.35"
         xlink:href="#shape4"
         id="use9" />
      <use
         ffdec:characterId="5066"
         height="23.75"
         transform="matrix(1.0105, 0.0, 0.0, 1.0105, 22.3277, -8.224)"
         width="23.35"
         xlink:href="#shape5"
         id="use10" />
      <use
         ffdec:characterId="5067"
         height="62.75"
         transform="matrix(1.0105, 0.0, 0.0, 1.0105, -38.2376, -30.2172)"
         width="73.5"
         xlink:href="#shape6"
         id="use11" />
    </g>
    <g
       id="shape1"
       transform="matrix(1.0, 0.0, 0.0, 1.0, 9.95, 17.9)">
      <path
         d="M0.75 -12.5 L-4.0 -16.9 -9.0 -10.95 -6.1 -6.55 Q-2.8 -1.35 -1.1 2.6 -0.3 4.45 0.1 7.7 L0.6 12.6 Q1.45 17.7 5.15 17.05 9.25 16.25 9.15 7.9 9.1 1.1 7.0 -4.3 5.7 -7.45 0.75 -12.5"
         fill="#3d91af"
         fill-rule="evenodd"
         stroke="none"
         id="path11" />
      <path
         d="M0.6 -12.65 L-4.2 -17.05 -9.15 -11.15 -6.25 -6.7 Q-2.95 -1.55 -1.25 2.4 -0.5 4.25 -0.05 7.45 5.05 7.7 9.0 9.1 L9.0 7.75 Q8.95 0.95 6.8 -4.45 5.5 -7.6 0.6 -12.65"
         fill="#ffffff"
         fill-rule="evenodd"
         stroke="none"
         id="path12" />
      <path
         d="M0.8 -12.5 Q5.7 -7.45 7.0 -4.25 9.15 1.1 9.2 7.9 L9.2 9.25 Q8.95 16.3 5.2 17.05 1.5 17.7 0.65 12.55 L0.15 7.7 0.1 7.6 -0.1 6.2 -0.35 4.9 -1.05 2.55 Q-2.75 -1.4 -6.05 -6.55 L-8.95 -11.0 -3.95 -16.9 0.8 -12.5 Z"
         ffdec:has-small-stroke="true"
         ffdec:original-stroke-width="2.0"
         fill="none"
         stroke="#ade8fc"
         stroke-linecap="round"
         stroke-linejoin="round"
         stroke-width="2.038706387893496"
         id="path13" />
    </g>
    <g
       id="shape2"
       transform="matrix(1.0, 0.0, 0.0, 1.0, 10.15, 17.9)">
      <path
         d="M-0.8 -12.5 L3.9 -16.9 8.95 -10.95 6.1 -6.55 Q2.8 -1.35 1.15 2.55 0.3 4.5 -0.1 7.7 L-0.55 12.6 Q-1.35 17.7 -5.0 17.1 -9.15 16.3 -9.1 7.95 -9.05 1.15 -7.0 -4.25 -5.75 -7.45 -0.8 -12.5"
         fill="#3d91af"
         fill-rule="evenodd"
         stroke="none"
         id="path14" />
      <path
         d="M-0.6 -12.75 L4.1 -17.1 9.15 -11.2 6.3 -6.8 Q3.0 -1.6 1.35 2.35 0.5 4.2 0.15 7.4 -5.0 7.65 -8.9 9.1 L-8.9 7.7 Q-8.85 0.9 -6.8 -4.45 -5.55 -7.7 -0.6 -12.75"
         fill="#ffffff"
         fill-rule="evenodd"
         stroke="none"
         id="path15" />
      <path
         d="M-0.85 -12.5 Q-5.75 -7.45 -7.05 -4.25 -9.1 1.15 -9.15 7.95 L-9.15 9.3 Q-8.85 16.35 -5.05 17.05 -1.4 17.7 -0.55 12.6 L-0.1 7.65 -0.1 7.6 0.1 6.2 0.35 4.9 1.1 2.55 Q2.75 -1.4 6.05 -6.55 L8.9 -11.0 3.85 -16.9 -0.85 -12.5 Z"
         ffdec:has-small-stroke="true"
         ffdec:original-stroke-width="2.0"
         fill="none"
         stroke="#ade8fc"
         stroke-linecap="round"
         stroke-linejoin="round"
         stroke-width="2.038706387893496"
         id="path16" />
    </g>
    <g
       id="shape3"
       transform="matrix(1.0, 0.0, 0.0, 1.0, 39.45, 48.15)">
      <path
         d="M11.3 -46.65 Q12.75 -46.65 13.8 -45.6 15.65 -43.75 16.95 -41.2 20.2 -34.75 15.95 -30.75 L15.9 -30.7 Q14.0 -28.75 10.95 -27.85 L10.9 -27.8 6.3 -26.95 2.7 -26.15 Q1.15 -25.55 0.15 -24.35 L0.1 -24.3 Q-1.2 -22.4 0.3 -19.5 L0.3 -19.45 2.1 -16.85 3.25 -15.5 Q4.15 -14.45 4.05 -13.0 3.95 -11.55 2.9 -10.6 1.8 -9.7 0.35 -9.8 -1.05 -9.9 -2.0 -10.95 L-3.15 -12.3 -3.2 -12.4 Q-4.75 -14.25 -5.8 -16.15 L-5.85 -16.2 Q-9.8 -23.85 -5.15 -28.8 L-5.1 -28.85 Q-3.0 -31.4 0.2 -32.65 L5.3 -33.8 9.0 -34.5 9.05 -34.5 Q10.2 -34.85 10.95 -35.55 11.55 -36.5 10.75 -38.05 L10.75 -38.1 8.85 -40.7 Q7.85 -41.7 7.85 -43.15 7.85 -44.6 8.85 -45.6 9.9 -46.65 11.3 -46.65"
         fill="#ffffff"
         fill-rule="evenodd"
         stroke="none"
         id="path17" />
      <path
         d="M11.3 -46.65 Q9.9 -46.65 8.85 -45.6 7.85 -44.6 7.85 -43.15 7.85 -41.7 8.85 -40.7 L10.75 -38.1 10.75 -38.05 Q11.55 -36.5 10.95 -35.55 10.2 -34.85 9.05 -34.5 L9.0 -34.5 5.3 -33.8 0.2 -32.65 Q-3.0 -31.4 -5.1 -28.85 L-5.15 -28.8 Q-9.8 -23.85 -5.85 -16.2 L-5.8 -16.15 Q-4.75 -14.25 -3.2 -12.4 L-3.15 -12.3 -2.0 -10.95 Q-1.05 -9.9 0.35 -9.8 1.8 -9.7 2.9 -10.6 3.95 -11.55 4.05 -13.0 4.15 -14.45 3.25 -15.5 L2.1 -16.85 0.3 -19.45 0.3 -19.5 Q-1.2 -22.4 0.1 -24.3 L0.15 -24.35 Q1.15 -25.55 2.7 -26.15 L6.3 -26.95 10.9 -27.8 10.95 -27.85 Q14.0 -28.75 15.9 -30.7 L15.95 -30.75 Q20.2 -34.75 16.95 -41.2 15.65 -43.75 13.8 -45.6 12.75 -46.65 11.3 -46.65 Z"
         fill="none"
         stroke="#ade8fc"
         stroke-linecap="round"
         stroke-linejoin="round"
         stroke-width="3.0"
         id="path18" />
      <path
         d="M-19.65 39.05 Q-11.9 34.7 -1.3 34.2 11.5 34.65 19.15 39.15 L19.4 39.35 19.4 39.4 19.35 40.1 Q19.35 42.85 13.6 44.7 7.9 46.65 -0.25 46.65 -8.3 46.65 -14.05 44.7 -19.75 42.85 -19.75 40.1 L-19.9 39.2 -19.65 39.05 Z"
         fill="none"
         stroke="#ade8fc"
         stroke-linecap="round"
         stroke-linejoin="round"
         stroke-width="6.0"
         id="path19" />
      <path
         d="M14.05 -12.85 Q7.4 -15.5 -0.2 -15.5 -7.8 -15.5 -14.45 -12.85 -21.25 -10.15 -26.5 -4.9 -31.55 0.15 -34.15 7.95 -36.45 14.95 -36.45 22.95 -36.45 31.65 -28.75 37.0 -19.35 43.6 -0.2 43.6 18.95 43.6 28.35 37.0 36.05 31.65 36.05 22.95 36.05 14.95 33.75 7.95 31.15 0.15 26.1 -4.9 20.85 -10.15 14.05 -12.85 Z"
         fill="none"
         stroke="#ade8fc"
         stroke-linecap="round"
         stroke-linejoin="round"
         stroke-width="6.0"
         id="path20" />
    </g>
    <g
       id="shape4"
       transform="matrix(1.0, 0.0, 0.0, 1.0, 11.7, 11.85)">
      <path
         d="M1.75 -8.7 L8.65 -7.85 8.65 7.7 1.9 8.7 Q-5.2 9.35 -6.9 7.7 -8.8 5.75 -8.7 -0.25 -8.6 -6.1 -6.9 -7.85 -5.45 -9.25 1.75 -8.7 Z"
         fill="none"
         stroke="#ade8fc"
         stroke-linecap="round"
         stroke-linejoin="round"
         stroke-width="6.0"
         id="path21" />
      <path
         d="M1.75 -8.7 L8.65 -7.85 8.65 7.7 1.9 8.7 Q-5.2 9.35 -6.9 7.7 -8.8 5.75 -8.7 -0.25 -8.6 -6.1 -6.9 -7.85 -5.45 -9.25 1.75 -8.7"
         fill="#ffffff"
         fill-rule="evenodd"
         stroke="none"
         id="path22" />
      <path
         d="M-7.25 7.25 L-7.25 5.9 Q-7.15 0.05 -5.4 -1.7 -4.0 -3.1 3.2 -2.55 L8.65 -1.95 8.65 7.7 1.9 8.7 Q-5.2 9.35 -6.9 7.7 L-7.25 7.25"
         fill="#3d91af"
         fill-rule="evenodd"
         stroke="none"
         id="path23" />
    </g>
    <g
       id="shape5"
       transform="matrix(1.0, 0.0, 0.0, 1.0, 11.65, 11.85)">
      <path
         d="M-1.75 -8.7 L-8.65 -7.85 -8.65 7.7 -1.9 8.7 Q5.2 9.35 6.9 7.7 8.8 5.75 8.7 -0.25 8.6 -6.1 6.9 -7.85 5.45 -9.25 -1.75 -8.7 Z"
         fill="none"
         stroke="#ade8fc"
         stroke-linecap="round"
         stroke-linejoin="round"
         stroke-width="6.0"
         id="path24" />
      <path
         d="M-1.75 -8.7 L-8.65 -7.85 -8.65 7.7 -1.9 8.7 Q5.2 9.35 6.9 7.7 8.8 5.75 8.7 -0.25 8.6 -6.1 6.9 -7.85 5.45 -9.25 -1.75 -8.7"
         fill="#ffffff"
         fill-rule="evenodd"
         stroke="none"
         id="path25" />
      <path
         d="M7.25 5.9 Q7.15 0.05 5.4 -1.7 4.0 -3.1 -3.2 -2.55 L-8.65 -1.95 -8.65 7.7 -1.9 8.7 Q5.2 9.35 6.9 7.7 L7.25 7.25 7.25 5.9"
         fill="#3d91af"
         fill-rule="evenodd"
         stroke="none"
         id="path26" />
    </g>
    <g
       id="shape6"
       transform="matrix(1.0, 0.0, 0.0, 1.0, 36.95, 16.0)">
      <path
         d="M14.05 -12.85 Q20.85 -10.15 26.1 -4.9 31.15 0.15 33.75 7.95 36.05 14.95 36.05 22.95 36.05 31.65 28.35 37.0 18.95 43.6 -0.2 43.6 -19.35 43.6 -28.75 37.0 -36.45 31.65 -36.45 22.95 -36.45 14.95 -34.15 7.95 -31.55 0.15 -26.5 -4.9 -21.25 -10.15 -14.45 -12.85 -7.8 -15.5 -0.2 -15.5 7.4 -15.5 14.05 -12.85"
         fill="#ffffff"
         fill-rule="evenodd"
         stroke="none"
         id="path27" />
      <path
         d="M14.05 -12.85 Q7.4 -15.5 -0.2 -15.5 -7.8 -15.5 -14.45 -12.85 -21.25 -10.15 -26.5 -4.9 -31.55 0.15 -34.15 7.95 -36.45 14.95 -36.45 22.95 -36.45 31.65 -28.75 37.0 -19.35 43.6 -0.2 43.6 18.95 43.6 28.35 37.0 36.05 31.65 36.05 22.95 36.05 14.95 33.75 7.95 31.15 0.15 26.1 -4.9 20.85 -10.15 14.05 -12.85 Z"
         ffdec:has-small-stroke="true"
         ffdec:original-stroke-width="1.0"
         fill="none"
         stroke="#ade8fc"
         stroke-linecap="round"
         stroke-linejoin="round"
         stroke-width="2.827576708268621"
         id="path28" />
      <path
         d="M-8.55 -12.8 L-12.3 -11.6 Q-19.1 -9.05 -24.35 -4.05 -29.4 0.8 -32.0 8.2 -34.3 14.9 -34.3 22.5 -34.3 30.8 -26.6 35.9 -22.5 38.6 -16.55 40.15 -24.25 34.05 -24.25 24.2 -24.25 15.05 -21.95 7.1 -19.35 -1.75 -14.3 -7.5 -11.65 -10.55 -8.55 -12.8"
         fill="#a8e9ff"
         fill-rule="evenodd"
         stroke="none"
         id="path29" />
      <path
         d="M13.6 44.8 Q7.9 46.75 -0.2 46.75 -8.3 46.75 -14.05 44.8 -19.75 42.95 -19.75 40.25 L-19.85 39.25 -20.95 38.85 Q-24.85 37.3 -27.9 34.95 -30.8 32.75 -32.55 30.15 -30.9 29.05 -28.85 28.0 -24.75 25.9 -20.95 25.35 -17.35 24.8 -10.45 27.1 -2.9 29.6 -0.2 29.6 2.65 29.6 10.05 27.05 16.85 24.7 20.5 25.2 24.2 25.75 28.5 27.75 32.15 29.75 32.35 29.8 28.45 35.95 20.5 38.85 L19.4 39.2 19.3 40.25 Q19.3 42.95 13.6 44.8"
         fill="#1d6f8c"
         fill-rule="evenodd"
         stroke="none"
         id="path30" />
      <path
         d="M16.45 35.3 Q16.45 36.5 17.3 37.4 18.2 38.25 19.4 38.25 20.65 38.25 21.5 37.4 22.4 36.5 22.4 35.3 22.4 34.05 21.5 33.2 20.65 32.3 19.4 32.3 18.2 32.3 17.3 33.2 16.45 34.05 16.45 35.3"
         fill="#000000"
         fill-rule="evenodd"
         stroke="none"
         id="path31" />
      <path
         d="M-22.6 34.05 L-22.0 33.2 Q-21.1 32.3 -19.9 32.3 -18.65 32.3 -17.8 33.2 L-17.15 34.05 Q-16.9 34.6 -16.9 35.3 -16.9 36.5 -17.8 37.4 -18.65 38.25 -19.9 38.25 -21.1 38.25 -22.0 37.4 -22.85 36.5 -22.85 35.3 L-22.6 34.05"
         fill="#000000"
         fill-rule="evenodd"
         stroke="none"
         id="path32" />
      <path
         d="M19.35 40.2 Q19.35 42.95 13.6 44.8 7.9 46.75 -0.25 46.75 -8.3 46.75 -14.05 44.8 -19.75 42.95 -19.75 40.2 L-19.9 39.3 -19.65 39.15 Q-11.9 34.8 -1.3 34.3 11.5 34.75 19.15 39.25 L19.4 39.45 19.4 39.5 19.35 40.2"
         fill="#3d91af"
         fill-rule="evenodd"
         stroke="none"
         id="path33" />
    </g>
    <g
       id="sprite1"
       transform="matrix(1.0, 0.0, 0.0, 1.0, 0.0, 0.0)">
      <use
         ffdec:characterId="5057"
         height="31.1"
         transform="matrix(1.0, 0.0, 0.0, 1.0, 0.0, 0.0)"
         width="19.35"
         xlink:href="#shape7"
         id="use33" />
    </g>
    <g
       id="shape7"
       transform="matrix(1.0, 0.0, 0.0, 1.0, 0.0, 0.0)">
      <path
         d="M7.1 23.35 L9.65 22.45 10.2 22.45 Q10.9 22.65 11.2 22.95 L12.15 23.8 12.7 24.5 12.7 29.6 Q12.7 30.15 12.1 30.45 10.75 31.1 8.05 31.1 7.15 31.1 6.05 29.7 5.0 28.4 5.0 27.35 5.0 26.1 5.3 25.3 5.75 24.05 7.1 23.35 M10.65 10.2 Q10.95 6.7 11.7 5.1 L11.2 5.1 9.3 6.2 6.65 7.95 Q3.15 10.3 2.25 10.3 1.3 10.3 0.6 8.8 0.0 7.5 0.0 6.4 L0.0 6.15 Q0.15 5.45 0.45 5.1 L2.95 1.95 Q4.85 0.0 6.45 0.0 L7.6 0.0 9.45 0.1 12.2 0.25 16.8 0.5 Q17.8 1.2 18.6 2.75 19.35 4.3 19.35 5.6 L19.35 6.15 18.6 9.2 17.8 12.3 Q17.55 13.45 15.95 14.0 L13.25 14.8 12.45 15.1 11.95 15.35 11.95 18.9 11.5 19.1 9.8 19.6 6.6 20.45 5.55 20.5 5.55 15.8 10.65 10.2"
         fill="#cccccc"
         fill-rule="evenodd"
         stroke="none"
         id="path34" />
    </g>
  </defs>
</svg>
