<?xml version="1.0" encoding="UTF-8" standalone="no"?>
<svg
   ffdec:objectType="frame"
   height="41.9px"
   width="42.15px"
   version="1.1"
   id="svg6"
   sodipodi:docname="8.svg"
   xmlns:inkscape="http://www.inkscape.org/namespaces/inkscape"
   xmlns:sodipodi="http://sodipodi.sourceforge.net/DTD/sodipodi-0.dtd"
   xmlns:xlink="http://www.w3.org/1999/xlink"
   xmlns="http://www.w3.org/2000/svg"
   xmlns:svg="http://www.w3.org/2000/svg"
   xmlns:ffdec="https://www.free-decompiler.com/flash">
  <sodipodi:namedview
     id="namedview6"
     pagecolor="#505050"
     bordercolor="#eeeeee"
     borderopacity="1"
     inkscape:showpageshadow="0"
     inkscape:pageopacity="0"
     inkscape:pagecheckerboard="0"
     inkscape:deskcolor="#505050" />
  <g
     transform="matrix(1.0, 0.0, 0.0, 1.0, 21.0, 23.55)"
     id="g1">
    <g
       id="use1"
       transform="matrix(1.2156,0,0,1.2177,-5e-4,-2.1e-4)">
      <g
         id="use6">
        <path
           d="m 7.6,-8.55 q 0.2,0.6 0.75,1.35 l 1,1.3 0.45,0.5 0.1,-0.05 -0.2,-0.65 -0.8,-1.35 -1,-1.3 Q 7.5,-9.25 7.35,-9.2 l 0.25,0.65 m 1.3,-3.3 q 0,0.6 -1.05,1.9 l 2.5,4.3 0.6,-0.65 q 0.35,-0.35 0.6,-0.1 l 0.25,1 -0.05,1.3 V -4 q 0,2.75 -1.75,6.35 L 9.35,4.15 8.5,5.2 Q 7.95,5.2 6.55,3.95 5.05,2.55 5.05,1.85 5.05,0.75 6.5,0.75 8.2,0.7 8.35,0.2 8.55,-0.35 8.2,-1.75 7.8,-3.15 8.2,-3.8 L 9,-4.75 Q 8.1,-6.9 6.45,-8.95 l -1.4,0.2 q -1.65,0 -3.95,-0.9 l -2.55,-1.05 q -2.7,-0.9 -3.45,0.2 -0.85,1.45 0.6,4.65 1.45,3.05 0.75,3.7 -0.65,0.55 -2.7,1 0.6,2.2 0.65,3.5 Q -5.55,4.5 -6.1,5 l 0.55,0.85 Q -5,6.35 -4,6.15 -3.15,6 -2.95,6.8 q 0.25,0.95 0.25,2.65 0.1,1.9 -0.4,1.9 L -3.95,11 -4.65,10.3 -6.3,8.6 -8.4,5.55 -9.6,3.25 -8.65,3.2 -7.3,3.6 -6.9,3.8 -7,-1 -9.3,-0.45 q -1.4,0.35 -1.8,0 Q -11.75,-1 -11.75,-4 v -0.1 q 0.1,-4.95 3.4,-8.35 3.5,-3.5 8.35,-3.5 4.9,0 8.35,3.5 l 0.35,0.2 0.2,0.4"
           fill="#ffcc00"
           fill-rule="evenodd"
           stroke="none"
           id="path7" />
        <path
           d="M 7.6,-8.55 7.35,-9.2 Q 7.5,-9.25 7.9,-8.75 l 1,1.3 0.8,1.35 0.2,0.65 -0.1,0.05 -0.45,-0.5 -1,-1.3 Q 7.8,-7.95 7.6,-8.55 m 1.3,-3.3 q 0,0.6 -1.05,1.9 l 2.5,4.3 0.6,-0.65 q 0.35,-0.35 0.6,-0.1 l 0.25,1 -0.05,1.3 V -4 q 0,2.75 -1.75,6.35 L 9.35,4.15 8.5,5.2 Q 7.95,5.2 6.55,3.95 5.05,2.55 5.05,1.85 5.05,0.75 6.5,0.75 8.2,0.7 8.35,0.2 8.55,-0.35 8.2,-1.75 7.8,-3.15 8.2,-3.8 L 9,-4.75 Q 8.1,-6.9 6.45,-8.95 l -1.4,0.2 q -1.65,0 -3.95,-0.9 l -2.55,-1.05 q -2.7,-0.9 -3.45,0.2 -0.85,1.45 0.6,4.65 1.45,3.05 0.75,3.7 -0.65,0.55 -2.7,1 0.6,2.2 0.65,3.5 Q -5.55,4.5 -6.1,5 l 0.55,0.85 Q -5,6.35 -4,6.15 -3.15,6 -2.95,6.8 q 0.25,0.95 0.25,2.65 0.1,1.9 -0.4,1.9 L -3.95,11 -4.65,10.3 -6.3,8.6 -8.4,5.55 -9.6,3.25 -8.65,3.2 -7.3,3.6 -6.9,3.8 -7,-1 -9.3,-0.45 q -1.4,0.35 -1.8,0 Q -11.75,-1 -11.75,-4 v -0.1 q 0.1,-4.95 3.4,-8.35 3.5,-3.5 8.35,-3.5 4.9,0 8.35,3.5 l 0.35,0.2 z"
           fill="none"
           stroke="#c67903"
           stroke-linecap="round"
           stroke-linejoin="round"
           stroke-width="1.5"
           id="path8" />
        <path
           d="m 8.7,-12.25 0.2,0.4 q 0,0.6 -1.05,1.9 l 2.5,4.3 0.6,-0.65 q 0.35,-0.35 0.6,-0.1 l 0.25,1 -0.05,1.3 V -4 q 0,2.75 -1.75,6.35 L 9.35,4.15 8.5,5.2 Q 7.95,5.2 6.55,3.95 5.05,2.55 5.05,1.85 5.05,0.75 6.5,0.75 8.2,0.7 8.35,0.2 8.55,-0.35 8.2,-1.75 7.8,-3.15 8.2,-3.8 L 9,-4.75 Q 8.1,-6.9 6.45,-8.95 l -1.4,0.2 q -1.65,0 -3.95,-0.9 l -2.55,-1.05 q -2.7,-0.9 -3.45,0.2 -0.85,1.45 0.6,4.65 1.45,3.05 0.75,3.7 -0.65,0.55 -2.7,1 0.6,2.2 0.65,3.5 Q -5.55,4.5 -6.1,5 l 0.55,0.85 Q -5,6.35 -4,6.15 -3.15,6 -2.95,6.8 q 0.25,0.95 0.25,2.65 0.1,1.9 -0.4,1.9 L -3.95,11 -4.65,10.3 -6.3,8.6 -8.4,5.55 -9.6,3.25 -8.65,3.2 -7.3,3.6 -6.9,3.8 -7,-1 -9.3,-0.45 q -1.4,0.35 -1.8,0 Q -11.75,-1 -11.75,-4 v -0.1 q 0.1,-4.95 3.4,-8.35 3.5,-3.5 8.35,-3.5 4.9,0 8.35,3.5 l 0.35,0.2 m -1.1,3.7 q 0.2,0.6 0.75,1.35 l 1,1.3 0.45,0.5 0.1,-0.05 -0.2,-0.65 -0.8,-1.35 -1,-1.3 Q 7.5,-9.25 7.35,-9.2 l 0.25,0.65"
           fill="#ffcc00"
           fill-rule="evenodd"
           stroke="none"
           id="path9" />
        <path
           d="m -9.65,-3.8 q 0,-5.6 4.85,-9.6"
           fill="none"
           stroke="#ffffff"
           stroke-linecap="round"
           stroke-linejoin="round"
           stroke-width="1.5"
           id="path10" />
        <path
           d="m -1.6,-13.6 q -0.25,0.3 -0.7,0.3 l -0.7,-0.3 -0.3,-0.6 0.3,-0.6 0.7,-0.25 0.7,0.25 0.3,0.6 q 0,0.35 -0.3,0.6"
           fill="#ffffff"
           fill-rule="evenodd"
           stroke="none"
           id="path11" />
      </g>
    </g>
  </g>
  <defs
     id="defs6">
    <g
       id="sprite0"
       transform="matrix(1.0, 0.0, 0.0, 1.0, 12.5, 16.7)">
      <use
         ffdec:characterId="6690"
         height="28.8"
         transform="matrix(1.0, 0.0, 0.0, 1.0, -12.5, -16.7)"
         width="25.05"
         xlink:href="#shape0"
         id="use2" />
    </g>
    <g
       id="shape0"
       transform="matrix(1.0, 0.0, 0.0, 1.0, 12.5, 16.7)">
      <path
         d="M7.6 -8.55 Q7.8 -7.95 8.35 -7.2 L9.35 -5.9 9.8 -5.4 9.9 -5.45 9.7 -6.1 8.9 -7.45 7.9 -8.75 Q7.5 -9.25 7.35 -9.2 L7.6 -8.55 M8.9 -11.85 Q8.9 -11.25 7.85 -9.95 L10.35 -5.65 10.95 -6.3 Q11.3 -6.65 11.55 -6.4 L11.8 -5.4 11.75 -4.1 11.75 -4.0 Q11.75 -1.25 10.0 2.35 L9.35 4.15 8.5 5.2 Q7.95 5.2 6.55 3.95 5.05 2.55 5.05 1.85 5.05 0.75 6.5 0.75 8.2 0.7 8.35 0.2 8.55 -0.35 8.2 -1.75 7.8 -3.15 8.2 -3.8 L9.0 -4.75 Q8.1 -6.9 6.45 -8.95 L5.05 -8.75 Q3.4 -8.75 1.1 -9.65 L-1.45 -10.7 Q-4.15 -11.6 -4.9 -10.5 -5.75 -9.05 -4.3 -5.85 -2.85 -2.8 -3.55 -2.15 -4.2 -1.6 -6.25 -1.15 -5.65 1.05 -5.6 2.35 -5.55 4.5 -6.1 5.0 L-5.55 5.85 Q-5.0 6.35 -4.0 6.15 -3.15 6.0 -2.95 6.8 -2.7 7.75 -2.7 9.45 -2.6 11.35 -3.1 11.35 L-3.95 11.0 -4.65 10.3 -6.3 8.6 -8.4 5.55 -9.6 3.25 -8.65 3.2 -7.3 3.6 -6.9 3.8 -7.0 -1.0 -9.3 -0.45 Q-10.7 -0.1 -11.1 -0.45 -11.75 -1.0 -11.75 -4.0 L-11.75 -4.1 Q-11.65 -9.05 -8.35 -12.45 -4.85 -15.95 0.0 -15.95 4.9 -15.95 8.35 -12.45 L8.7 -12.25 8.9 -11.85"
         fill="#ffcc00"
         fill-rule="evenodd"
         stroke="none"
         id="path2" />
      <path
         d="M7.6 -8.55 L7.35 -9.2 Q7.5 -9.25 7.9 -8.75 L8.9 -7.45 9.7 -6.1 9.9 -5.45 9.8 -5.4 9.35 -5.9 8.35 -7.2 Q7.8 -7.95 7.6 -8.55 M8.9 -11.85 Q8.9 -11.25 7.85 -9.95 L10.35 -5.65 10.95 -6.3 Q11.3 -6.65 11.55 -6.4 L11.8 -5.4 11.75 -4.1 11.75 -4.0 Q11.75 -1.25 10.0 2.35 L9.35 4.15 8.5 5.2 Q7.95 5.2 6.55 3.95 5.05 2.55 5.05 1.85 5.05 0.75 6.5 0.75 8.2 0.7 8.35 0.2 8.55 -0.35 8.2 -1.75 7.8 -3.15 8.2 -3.8 L9.0 -4.75 Q8.1 -6.9 6.45 -8.95 L5.05 -8.75 Q3.4 -8.75 1.1 -9.65 L-1.45 -10.7 Q-4.15 -11.6 -4.9 -10.5 -5.75 -9.05 -4.3 -5.85 -2.85 -2.8 -3.55 -2.15 -4.2 -1.6 -6.25 -1.15 -5.65 1.05 -5.6 2.35 -5.55 4.5 -6.1 5.0 L-5.55 5.85 Q-5.0 6.35 -4.0 6.15 -3.15 6.0 -2.95 6.8 -2.7 7.75 -2.7 9.45 -2.6 11.35 -3.1 11.35 L-3.95 11.0 -4.65 10.3 -6.3 8.6 -8.4 5.55 -9.6 3.25 -8.65 3.2 -7.3 3.6 -6.9 3.8 -7.0 -1.0 -9.3 -0.45 Q-10.7 -0.1 -11.1 -0.45 -11.75 -1.0 -11.75 -4.0 L-11.75 -4.1 Q-11.65 -9.05 -8.35 -12.45 -4.85 -15.95 0.0 -15.95 4.9 -15.95 8.35 -12.45 L8.7 -12.25 8.9 -11.85 Z"
         fill="none"
         stroke="#c67903"
         stroke-linecap="round"
         stroke-linejoin="round"
         stroke-width="1.5"
         id="path3" />
      <path
         d="M8.7 -12.25 L8.9 -11.85 Q8.9 -11.25 7.85 -9.95 L10.35 -5.65 10.95 -6.3 Q11.3 -6.65 11.55 -6.4 L11.8 -5.4 11.75 -4.1 11.75 -4.0 Q11.75 -1.25 10.0 2.35 L9.35 4.15 8.5 5.2 Q7.95 5.2 6.55 3.95 5.05 2.55 5.05 1.85 5.05 0.75 6.5 0.75 8.2 0.7 8.35 0.2 8.55 -0.35 8.2 -1.75 7.8 -3.15 8.2 -3.8 L9.0 -4.75 Q8.1 -6.9 6.45 -8.95 L5.05 -8.75 Q3.4 -8.75 1.1 -9.65 L-1.45 -10.7 Q-4.15 -11.6 -4.9 -10.5 -5.75 -9.05 -4.3 -5.85 -2.85 -2.8 -3.55 -2.15 -4.2 -1.6 -6.25 -1.15 -5.65 1.05 -5.6 2.35 -5.55 4.5 -6.1 5.0 L-5.55 5.85 Q-5.0 6.35 -4.0 6.15 -3.15 6.0 -2.95 6.8 -2.7 7.75 -2.7 9.45 -2.6 11.35 -3.1 11.35 L-3.95 11.0 -4.65 10.3 -6.3 8.6 -8.4 5.55 -9.6 3.25 -8.65 3.2 -7.3 3.6 -6.9 3.8 -7.0 -1.0 -9.3 -0.45 Q-10.7 -0.1 -11.1 -0.45 -11.75 -1.0 -11.75 -4.0 L-11.75 -4.1 Q-11.65 -9.05 -8.35 -12.45 -4.85 -15.95 0.0 -15.95 4.9 -15.95 8.35 -12.45 L8.7 -12.25 M7.6 -8.55 Q7.8 -7.95 8.35 -7.2 L9.35 -5.9 9.8 -5.4 9.9 -5.45 9.7 -6.1 8.9 -7.45 7.9 -8.75 Q7.5 -9.25 7.35 -9.2 L7.6 -8.55"
         fill="#ffcc00"
         fill-rule="evenodd"
         stroke="none"
         id="path4" />
      <path
         d="M-9.65 -3.8 Q-9.65 -9.4 -4.8 -13.4"
         fill="none"
         stroke="#ffffff"
         stroke-linecap="round"
         stroke-linejoin="round"
         stroke-width="1.5"
         id="path5" />
      <path
         d="M-1.6 -13.6 Q-1.85 -13.3 -2.3 -13.3 L-3.0 -13.6 -3.3 -14.2 -3.0 -14.8 -2.3 -15.05 -1.6 -14.8 -1.3 -14.2 Q-1.3 -13.85 -1.6 -13.6"
         fill="#ffffff"
         fill-rule="evenodd"
         stroke="none"
         id="path6" />
    </g>
  </defs>
</svg>
