<?xml version="1.0" encoding="UTF-8" standalone="no"?>
<svg
   ffdec:objectType="frame"
   height="49.35px"
   width="50.8px"
   version="1.1"
   id="svg62"
   sodipodi:docname="1.svg"
   inkscape:version="1.4.2 (f4327f4, 2025-05-13)"
   xmlns:inkscape="http://www.inkscape.org/namespaces/inkscape"
   xmlns:sodipodi="http://sodipodi.sourceforge.net/DTD/sodipodi-0.dtd"
   xmlns:xlink="http://www.w3.org/1999/xlink"
   xmlns="http://www.w3.org/2000/svg"
   xmlns:svg="http://www.w3.org/2000/svg"
   xmlns:ffdec="https://www.free-decompiler.com/flash">
  <sodipodi:namedview
     id="namedview62"
     pagecolor="#505050"
     bordercolor="#eeeeee"
     borderopacity="1"
     inkscape:showpageshadow="0"
     inkscape:pageopacity="0"
     inkscape:pagecheckerboard="0"
     inkscape:deskcolor="#505050"
     inkscape:zoom="23.647417"
     inkscape:cx="25.393894"
     inkscape:cy="24.674999"
     inkscape:window-width="2560"
     inkscape:window-height="1369"
     inkscape:window-x="-8"
     inkscape:window-y="-8"
     inkscape:window-maximized="1"
     inkscape:current-layer="g5" />
  <g
     transform="matrix(1.0, 0.0, 0.0, 1.0, 1.8, 2.35)"
     id="g5">
    <filter
       id="filter0"
       x="-0.011026725"
       y="-0.010414658"
       width="1.0321273"
       height="1.0405066">
      <feOffset
         dx="1.41423199166404"
         dy="1.4141951328419862"
         in="SourceGraphic"
         result="filterResult0"
         id="feOffset1" />
      <feColorMatrix
         in="filterResult0"
         result="filterResult1"
         type="matrix"
         values="0 0 0 0 0.0,0 0 0 0 0.0,0 0 0 0 0.0,0 0 0 1 0"
         id="feColorMatrix1" />
      <feColorMatrix
         in="filterResult1"
         result="filterResult2"
         type="matrix"
         values="1 0 0 0 0,0 1 0 0 0,0 0 1 0 0,0 0 0 0.19921875 0"
         id="feColorMatrix2" />
      <feComposite
         in="SourceGraphic"
         in2="filterResult2"
         operator="over"
         result="filterResult3"
         id="feComposite2" />
    </filter>
    <g
       id="use2"
       transform="matrix(-0.35,0,0,-0.35,21.8993,19.8493)"
       style="filter:url(#filter0)">
      <g
         id="use62"
         transform="matrix(0,-0.258,-0.258,0,-38.1461,-17.4478)">
        <path
           d="m 13.7,-130.15 q 0,6.7 -4.75,11.45 -2.2,2.2 -4.85,3.4 v 24.15 h -14.4 v -24.75 q -1.95,-1.1 -3.65,-2.8 -4.75,-4.75 -4.75,-11.45 0,-6.7 4.75,-11.45 4.75,-4.75 11.45,-4.75 6.7,0 11.45,4.75 4.75,4.75 4.75,11.45"
           fill="#0f1015"
           fill-rule="evenodd"
           stroke="none"
           id="path64" />
        <path
           d="m 13.7,-130.15 q 0,6.7 -4.75,11.45 -2.2,2.2 -4.85,3.4 v 24.15 h -14.4 v -24.75 q -1.95,-1.1 -3.65,-2.8 -4.75,-4.75 -4.75,-11.45 0,-6.7 4.75,-11.45 4.75,-4.75 11.45,-4.75 6.7,0 11.45,4.75 4.75,4.75 4.75,11.45 z"
           ffdec:has-small-stroke="true"
           ffdec:original-stroke-width="5.0"
           fill="none"
           stroke="#000000"
           stroke-linecap="round"
           stroke-linejoin="round"
           stroke-width="11.0734"
           id="path65" />
        <path
           d="m -48.1,103.55 q -4.3,-10.45 -8.95,-23.9 -13.8,-40.05 -18.1,-73.4 -6,-46.75 7.95,-73.45 17.4,-33.35 65.2,-33.35 47.8,0 66.75,33.35 15.2,26.7 11.4,73.45 Q 73.4,39.6 61.4,79.65 57.25,93.6 53.35,104.3 59,110.15 59,117.2 q 0,12.15 -16.65,20.65 -16.6,8.65 -40.1,8.65 -23.55,0 -40.15,-8.65 -16.6,-8.5 -16.6,-20.65 0,-7.5 6.4,-13.65 l 4.05,9.45 2.2,1.55 q 3.15,1.85 7.6,3.4 14.35,4.95 37,4.95 22.65,0 37.2,-4.95 Q 47.25,115.5 50,113 L 53.35,104.3 50,113 q -2.75,2.5 -10.05,4.95 -14.55,4.95 -37.2,4.95 -22.65,0 -37,-4.95 -4.45,-1.55 -7.6,-3.4 l -2.2,-1.55 -4.05,-9.45"
           fill="#000000"
           fill-rule="evenodd"
           stroke="none"
           id="path66" />
        <path
           d="m -48.1,103.55 q -4.3,-10.45 -8.95,-23.9 -13.8,-40.05 -18.1,-73.4 -6,-46.75 7.95,-73.45 17.4,-33.35 65.2,-33.35 47.8,0 66.75,33.35 15.2,26.7 11.4,73.45 Q 73.4,39.6 61.4,79.65 57.25,93.6 53.35,104.3 59,110.15 59,117.2 q 0,12.15 -16.65,20.65 -16.6,8.65 -40.1,8.65 -23.55,0 -40.15,-8.65 -16.6,-8.5 -16.6,-20.65 0,-7.5 6.4,-13.65 l 4.05,9.45 2.2,1.55 q 3.15,1.85 7.6,3.4 14.35,4.95 37,4.95 22.65,0 37.2,-4.95 Q 47.25,115.5 50,113 l 3.35,-8.7"
           fill="none"
           stroke="#000000"
           stroke-linecap="round"
           stroke-linejoin="round"
           stroke-width="12"
           id="path67" />
        <path
           d="m -54.5,117.2 q 0,-12.1 16.6,-20.7 16.6,-8.55 40.15,-8.55 23.5,0 40.1,8.55 16.65,8.6 16.65,20.7 0,12.15 -16.65,20.65 -16.6,8.65 -40.1,8.65 -23.55,0 -40.15,-8.65 -16.6,-8.5 -16.6,-20.65"
           fill="#0f1015"
           fill-rule="evenodd"
           stroke="none"
           id="path68" />
        <path
           d="m -37.9,96.5 q 16.6,-8.55 40.15,-8.55 h 0.9 Q -12,100.95 -12,118.9 l 0.05,1.6 -5.9,3.5 q -8.65,5.95 -8.65,11.25 0,4.2 5.3,8.75 -9.1,-2.2 -16.7,-6.15 -16.6,-8.5 -16.6,-20.65 0,-12.1 16.6,-20.7"
           fill="#7e7f8c"
           fill-rule="evenodd"
           stroke="none"
           id="path69" />
        <path
           d="m -37.9,96.5 q 4.25,-2.2 9,-3.8 -7.1,9.95 -7.1,22.2 l 0.05,1.6 -5.9,3.5 q -6.7,4.6 -8.2,8.8 -4.45,-5.3 -4.45,-11.6 0,-12.1 16.6,-20.7"
           fill="#1a1c23"
           fill-rule="evenodd"
           stroke="none"
           id="path70" />
        <path
           d="m 59.7,110.6 q -3.8,7.45 -15.6,13.25 -17.3,8.65 -41.85,8.65 -24.55,0 -41.9,-8.65 -11.75,-5.8 -15.55,-13.25 3.8,-7.45 15.55,-13.3 17.35,-8.55 41.9,-8.55 24.55,0 41.85,8.55 11.8,5.85 15.6,13.3"
           fill="#000000"
           fill-rule="evenodd"
           stroke="none"
           id="path71" />
        <path
           d="m -2,-100.55 q 47.8,0 66.75,33.35 15.2,26.7 11.4,73.45 Q 73.4,39.6 61.4,79.65 55.45,99.65 50,113 q -2.75,2.5 -10.05,4.95 -14.55,4.95 -37.2,4.95 -22.65,0 -37,-4.95 -4.45,-1.55 -7.6,-3.4 l -2.2,-1.55 q -6.05,-13.35 -13,-33.35 -13.8,-40.05 -18.1,-73.4 -6,-46.75 7.95,-73.45 17.4,-33.35 65.2,-33.35"
           fill="#0f1015"
           fill-rule="evenodd"
           stroke="none"
           id="path72" />
        <path
           d="m 5.6,-100.3 q -25.85,8.15 -37.65,33.6 -13.95,29.95 -7.95,82.45 4.3,37.45 18.1,82.45 4.1,13.25 7.9,23.9 -11.65,-1.2 -20.25,-4.15 -4.45,-1.55 -7.6,-3.4 l -2.2,-1.55 q -6.05,-13.35 -13,-33.35 -13.8,-40.05 -18.1,-73.4 -6,-46.75 7.95,-73.45 17.4,-33.35 65.2,-33.35 l 7.6,0.25"
           fill="#7e7f8c"
           fill-rule="evenodd"
           stroke="none"
           id="path73" />
        <path
           d="m 4.65,-100.35 q -42.6,2.3 -58.8,36.25 -13.95,29.2 -7.95,80.3 4.3,36.4 18.1,80.2 3.55,11.2 6.9,20.45 l -4.75,-2.3 -2.2,-1.55 q -6.05,-13.35 -13,-33.35 -13.8,-40.05 -18.1,-73.4 -6,-46.75 7.95,-73.45 17.4,-33.35 65.2,-33.35 l 6.65,0.2"
           fill="#1a1c23"
           fill-rule="evenodd"
           stroke="none"
           id="path74" />
      </g>
      <g
         id="use63"
         transform="matrix(0,-0.258,0.258,0,26.6461,-17.4478)">
        <path
           d="m 13.7,-130.15 q 0,6.7 -4.75,11.45 -2.2,2.2 -4.85,3.4 v 24.15 h -14.4 v -24.75 q -1.95,-1.1 -3.65,-2.8 -4.75,-4.75 -4.75,-11.45 0,-6.7 4.75,-11.45 4.75,-4.75 11.45,-4.75 6.7,0 11.45,4.75 4.75,4.75 4.75,11.45"
           fill="#0f1015"
           fill-rule="evenodd"
           stroke="none"
           id="path75" />
        <path
           d="m 13.7,-130.15 q 0,6.7 -4.75,11.45 -2.2,2.2 -4.85,3.4 v 24.15 h -14.4 v -24.75 q -1.95,-1.1 -3.65,-2.8 -4.75,-4.75 -4.75,-11.45 0,-6.7 4.75,-11.45 4.75,-4.75 11.45,-4.75 6.7,0 11.45,4.75 4.75,4.75 4.75,11.45 z"
           ffdec:has-small-stroke="true"
           ffdec:original-stroke-width="5.0"
           fill="none"
           stroke="#000000"
           stroke-linecap="round"
           stroke-linejoin="round"
           stroke-width="11.0734"
           id="path76" />
        <path
           d="m -48.1,103.55 q -4.3,-10.45 -8.95,-23.9 -13.8,-40.05 -18.1,-73.4 -6,-46.75 7.95,-73.45 17.4,-33.35 65.2,-33.35 47.8,0 66.75,33.35 15.2,26.7 11.4,73.45 Q 73.4,39.6 61.4,79.65 57.25,93.6 53.35,104.3 59,110.15 59,117.2 q 0,12.15 -16.65,20.65 -16.6,8.65 -40.1,8.65 -23.55,0 -40.15,-8.65 -16.6,-8.5 -16.6,-20.65 0,-7.5 6.4,-13.65 l 4.05,9.45 2.2,1.55 q 3.15,1.85 7.6,3.4 14.35,4.95 37,4.95 22.65,0 37.2,-4.95 Q 47.25,115.5 50,113 L 53.35,104.3 50,113 q -2.75,2.5 -10.05,4.95 -14.55,4.95 -37.2,4.95 -22.65,0 -37,-4.95 -4.45,-1.55 -7.6,-3.4 l -2.2,-1.55 -4.05,-9.45"
           fill="#000000"
           fill-rule="evenodd"
           stroke="none"
           id="path77" />
        <path
           d="m -48.1,103.55 q -4.3,-10.45 -8.95,-23.9 -13.8,-40.05 -18.1,-73.4 -6,-46.75 7.95,-73.45 17.4,-33.35 65.2,-33.35 47.8,0 66.75,33.35 15.2,26.7 11.4,73.45 Q 73.4,39.6 61.4,79.65 57.25,93.6 53.35,104.3 59,110.15 59,117.2 q 0,12.15 -16.65,20.65 -16.6,8.65 -40.1,8.65 -23.55,0 -40.15,-8.65 -16.6,-8.5 -16.6,-20.65 0,-7.5 6.4,-13.65 l 4.05,9.45 2.2,1.55 q 3.15,1.85 7.6,3.4 14.35,4.95 37,4.95 22.65,0 37.2,-4.95 Q 47.25,115.5 50,113 l 3.35,-8.7"
           fill="none"
           stroke="#000000"
           stroke-linecap="round"
           stroke-linejoin="round"
           stroke-width="12"
           id="path78" />
        <path
           d="m -54.5,117.2 q 0,-12.1 16.6,-20.7 16.6,-8.55 40.15,-8.55 23.5,0 40.1,8.55 16.65,8.6 16.65,20.7 0,12.15 -16.65,20.65 -16.6,8.65 -40.1,8.65 -23.55,0 -40.15,-8.65 -16.6,-8.5 -16.6,-20.65"
           fill="#0f1015"
           fill-rule="evenodd"
           stroke="none"
           id="path79" />
        <path
           d="m -37.9,96.5 q 16.6,-8.55 40.15,-8.55 h 0.9 Q -12,100.95 -12,118.9 l 0.05,1.6 -5.9,3.5 q -8.65,5.95 -8.65,11.25 0,4.2 5.3,8.75 -9.1,-2.2 -16.7,-6.15 -16.6,-8.5 -16.6,-20.65 0,-12.1 16.6,-20.7"
           fill="#7e7f8c"
           fill-rule="evenodd"
           stroke="none"
           id="path80" />
        <path
           d="m -37.9,96.5 q 4.25,-2.2 9,-3.8 -7.1,9.95 -7.1,22.2 l 0.05,1.6 -5.9,3.5 q -6.7,4.6 -8.2,8.8 -4.45,-5.3 -4.45,-11.6 0,-12.1 16.6,-20.7"
           fill="#1a1c23"
           fill-rule="evenodd"
           stroke="none"
           id="path81" />
        <path
           d="m 59.7,110.6 q -3.8,7.45 -15.6,13.25 -17.3,8.65 -41.85,8.65 -24.55,0 -41.9,-8.65 -11.75,-5.8 -15.55,-13.25 3.8,-7.45 15.55,-13.3 17.35,-8.55 41.9,-8.55 24.55,0 41.85,8.55 11.8,5.85 15.6,13.3"
           fill="#000000"
           fill-rule="evenodd"
           stroke="none"
           id="path82" />
        <path
           d="m -2,-100.55 q 47.8,0 66.75,33.35 15.2,26.7 11.4,73.45 Q 73.4,39.6 61.4,79.65 55.45,99.65 50,113 q -2.75,2.5 -10.05,4.95 -14.55,4.95 -37.2,4.95 -22.65,0 -37,-4.95 -4.45,-1.55 -7.6,-3.4 l -2.2,-1.55 q -6.05,-13.35 -13,-33.35 -13.8,-40.05 -18.1,-73.4 -6,-46.75 7.95,-73.45 17.4,-33.35 65.2,-33.35"
           fill="#0f1015"
           fill-rule="evenodd"
           stroke="none"
           id="path83" />
        <path
           d="m 5.6,-100.3 q -25.85,8.15 -37.65,33.6 -13.95,29.95 -7.95,82.45 4.3,37.45 18.1,82.45 4.1,13.25 7.9,23.9 -11.65,-1.2 -20.25,-4.15 -4.45,-1.55 -7.6,-3.4 l -2.2,-1.55 q -6.05,-13.35 -13,-33.35 -13.8,-40.05 -18.1,-73.4 -6,-46.75 7.95,-73.45 17.4,-33.35 65.2,-33.35 l 7.6,0.25"
           fill="#7e7f8c"
           fill-rule="evenodd"
           stroke="none"
           id="path84" />
        <path
           d="m 4.65,-100.35 q -42.6,2.3 -58.8,36.25 -13.95,29.2 -7.95,80.3 4.3,36.4 18.1,80.2 3.55,11.2 6.9,20.45 l -4.75,-2.3 -2.2,-1.55 q -6.05,-13.35 -13,-33.35 -13.8,-40.05 -18.1,-73.4 -6,-46.75 7.95,-73.45 17.4,-33.35 65.2,-33.35 l 6.65,0.2"
           fill="#1a1c23"
           fill-rule="evenodd"
           stroke="none"
           id="path85" />
      </g>
      <g
         id="use64"
         transform="matrix(0,1.809,-1.809,0,-5.95115,-5.79845)">
        <g
           id="use85"
           transform="translate(0,0.05)">
          <path
             d="m 36.8,-1.05 q -8,-14.5 -26.8,-20.9 -19.05,-6.45 -45.9,-3.5 v 24.4 24.4 Q -9.05,26.25 10,19.8 28.8,13.4 36.8,-1.05 Z"
             fill="none"
             stroke="#5d3c16"
             stroke-linecap="round"
             stroke-linejoin="round"
             stroke-width="3"
             id="path86" />
          <path
             d="M 36.8,-1.05 Q 28.8,13.4 10,19.8 -9.05,26.25 -35.9,23.35 v -24.4 -24.4 q 26.85,-2.95 45.9,3.5 18.8,6.4 26.8,20.9"
             fill="#d0a067"
             fill-rule="evenodd"
             stroke="none"
             id="path87" />
          <path
             d="m 14.9,-20.05 -6.95,0.15 -18.4,0.6 -17.95,0.95 -7.5,0.6 v -0.35 l 6.5,-0.55 4,-0.25 22.25,-1.1 17.7,-0.45 H 14 l 0.9,0.4 m -4.5,-1.75 0.75,0.25 q -23.7,0 -47.05,0.6 v -0.4 l 5.25,-0.1 23.1,-0.3 17.95,-0.05 m 9.3,6.25 -2.5,0.2 H -5.5 l -6.15,-0.4 q -1.05,-0.1 -0.45,-0.25 3.5,-1.1 11,-1.4 h -0.1 l 0.1,-0.05 h 0.25 l 1.1,-0.05 9.65,0.15 h 0.05 l 0.25,0.05 h 0.5 l 0.4,0.05 h 0.15 L 10.3,-17.2 H 9.9 l 7.05,0.7 q 3.4,0.35 2.75,0.95 m 0.8,-1.75 0.8,0.45 -5.1,-0.3 -2.85,-0.2 q -13.05,-0.95 -25,0.25 l -1.15,0.2 -1.25,0.3 -0.2,0.05 -0.05,0.05 h -0.25 -0.4 -0.25 l -0.05,0.05 h -0.35 l -0.1,0.05 h -0.25 q 0,0.05 -0.1,0.05 h -0.45 v 0.05 h -0.2 l -0.1,0.05 h -0.4 l -0.2,0.05 -0.6,0.1 -0.25,0.05 h -0.2 l -0.25,0.05 -2.55,0.15 -14.65,0.8 v -0.15 l 17,-1.05 1.3,-0.25 2.65,-0.45 0.7,-0.1 0.4,-0.1 0.7,-0.15 1.9,-0.2 0.3,-0.05 0.25,-0.05 0.25,-0.05 h 0.7 l 1.7,-0.1 h 0.35 l 0.45,-0.05 h 0.15 0.2 0.2 l 3.15,-0.15 8.95,-0.1 2.55,0.1 5.95,0.25 4.35,0.25 2.25,0.15 m -2.25,1.45 v -0.05 q -0.1,0 -0.1,-0.05 l -2.9,-0.35 -9.65,-0.8 -8.85,0.2 h -0.2 l -0.2,0.05 -1.4,0.25 -1.15,0.05 -0.1,0.05 h -0.2 l -1.15,0.05 -0.4,0.05 -0.25,0.1 -0.95,0.15 -0.7,0.1 3.45,0.25 q 12.6,0.25 24.75,0.05 v -0.1 m -11.15,-7 H 5.15 l -15,0.2 -6.25,0.1 -7.35,0.1 H -35.9 v -0.15 l 5,-0.05 14.5,-0.2 10.35,-0.25 12.55,-0.2 -0.9,0.05 1.5,0.4 m 11.85,15 -6.85,0.05 q -16.3,0.25 -32.7,0.35 h -3.05 -12.25 v -0.2 h 0.45 l 4.95,-0.05 22.55,-0.15 20.8,-0.45 18.75,-0.2 0.35,0.45 -13,0.2 m -9.15,-8.45 0.1,0.1 0.05,0.05 0.25,0.05 v 0.05 l -0.4,0.1 -0.75,0.15 q -6.2,0.25 -12.35,-0.05 l -0.45,-0.1 -0.3,-0.05 -0.15,-0.05 -0.05,-0.05 v -0.05 h 0.05 l 0.35,-0.1 0.3,-0.05 h 0.25 l 0.05,-0.05 q 0.1,0 0.1,-0.05 l 0.2,-0.05 1.4,-0.1 2.65,-0.25 0.1,-0.05 h 0.15 l 0.7,-0.05 h 0.4 l 7.1,0.55 0.25,0.05 m -1.15,0.25 h 0.1 l -0.1,-0.05 -0.05,-0.1 -1.15,-0.15 -2.8,-0.15 -5.35,0.15 h -0.2 l -0.8,0.1 -0.95,0.2 q 5.7,0.25 11.3,0 m 18.4,2.45 -27.9,-0.4 -25.45,-0.2 -10.55,0.25 0.95,-0.05 v -0.3 q 8.85,-0.35 18.1,-0.2 l 41.65,0.6 1.85,0.05 0.35,0.2 1,0.05 M 29.4,8.55 28.85,9.05 20.9,8.6 3.1,7.25 -22.15,6.45 -24.55,6.5 -35.9,6.85 v -0.2 l 3.55,-0.1 3.1,-0.1 14.55,-0.4 22.2,1 4.2,0.3 17.7,1.2 M 32.05,5.75 31.9,5.95 13.6,5.2 -2.3,4.4 -21.7,3.75 H -35.9 V 3.5 l 5.65,-0.1 Q -18.5,3.3 -7.5,3.75 l 10.1,0.6 4.6,0.3 22.55,1 2.3,0.1 M 33.9,2.4 V 2.6 L 29.25,2.45 8.6,1.55 l -28.2,-2 -16.3,-0.85 v -0.4 h -0.4 l 13.65,0.75 4.05,0.3 L 2.9,0.75 25.2,2 33.9,2.4 M 33.2,4.4 33.1,4.55 18,4 0.05,3.3 -26.8,2.05 -29.35,2 -29.55,1.95 -29.75,1.9 -30.1,1.85 -30.6,1.75 -30.85,1.7 h -0.4 l -0.1,-0.05 h -0.2 V 1.6 H -32 l -0.1,-0.05 h -0.25 -0.05 -0.4 L -32.9,1.5 h -0.2 l -0.4,-0.05 h -0.2 L -33.8,1.4 -34.05,1.35 -35.3,1.1 -35.9,0.95 v -0.4 l 1,0.1 0.65,0.15 0.45,0.1 0.7,0.15 2.65,0.45 1.3,0.2 L -8.4,2.8 6.3,3.3 22.25,3.95 33.2,4.4 m 0.7,-9.8 v 0.35 l -52.6,-0.2 h -0.6 l -16.6,0.2 v -0.5 l 9.5,-0.1 22.35,-0.1 33.35,0.25 4.6,0.1 M 25.75,-1.9 23.1,-1.95 12.5,-2.3 -7.7,-2.9 -35.9,-3.4 v -0.35 l 18.55,0.25 22.9,0.65 22.1,0.75 6.25,0.15 v 0.3 l -6.25,-0.15 -1.9,-0.1 m 2.65,-9.75 0.3,0.25 -21.55,-0.25 -30.05,-0.45 -13,-0.15 v -0.25 h 1.85 l 18.8,0.25 36.85,0.5 6.8,0.1 m 1.75,1.6 L 27.1,-10 Q 21.35,-9.95 16,-10.05 l -16.1,-0.45 -23.35,-0.9 -2.45,-0.05 -10.75,0.1 0.75,-0.05 v -0.4 l 2.6,-0.05 14.5,0.4 3.1,0.1 10,0.5 2.25,0.05 5,0.1 12,0.35 16.4,0.1 0.2,0.2 M 26.6,6.85 19.15,6.55 1.55,5.9 Q -11.6,5.5 -25.2,5.8 l -11.65,0.15 h 0.95 V 5.7 l 3.1,-0.05 18.85,-0.2 Q -2.5,5.4 8.4,5.9 L 27.1,6.8 31.05,6.9 30.9,7 31.5,7.05 26.6,6.85 m 0.3,3.75 h 0.15 l -0.2,0.2 -7.6,-0.2 -7.7,-0.1 -35.95,-0.05 h -3.05 L -35.9,10.4 v -0.35 l 18.4,0.2 4.95,0.05 24,0.05 q 7.8,0.05 15.45,0.25 m -3.65,2.35 Q 13.85,12.85 4.1,12.9 l -32.8,-0.25 h -0.65 -6.55 V 12.1 l 14.3,0.1 21.95,0.2 23.05,0.2 h 1 L 24,12.95 H 23.25 M 5.5,19.6 H 5.45 5.25 L 5.2,19.55 H 5.1 V 19.5 H 4.95 L 4.9,19.45 H 4.8 L 4.75,19.4 H 4.6 L 4.55,19.35 H 4.45 L 4.2,19.3 H 4.15 L 4.1,19.25 4,19.2 3.45,19 2.95,18.75 Q -2.4,17.5 -8.25,18.55 l -1.3,0.15 -5.45,0.7 -11.75,1.05 -6.45,0.3 -1.75,0.05 h -1.4 0.45 v -0.35 l 7.8,-0.35 4,-0.25 13.6,-1.45 1.9,-0.25 2.75,-0.3 1.15,-0.05 4,0.05 1.4,0.15 h 0.1 l 0.1,0.05 h 0.05 l 0.2,0.05 H 1.3 l 0.8,0.1 0.35,0.05 0.05,0.05 h 0.15 l 0.15,0.05 0.85,0.25 0.25,0.1 0.2,0.1 0.35,0.15 1.15,0.4 0.6,0.25 2.95,0.45 L 8.75,20.2 7.25,20 6.1,19.85 6,19.8 5.95,19.75 5.8,19.7 5.5,19.6 m -41.4,-45 v -0.1 l 2.55,-0.25 q 5.95,-0.05 11.9,-0.25 l 5.75,-0.1 0.25,-0.05 3,-0.05 3.65,0.35 -10.4,0.2 -5.4,0.1 h -0.3 l -11,0.15 M 20.75,14.95 20.15,15.3 15.85,15 Q -1.5,14 -19.1,14.4 q -8.95,0.3 -17.75,-0.1 l 0.95,0.05 V 14.1 l -0.95,-0.05 4.4,0.1 5.8,0.05 9.7,-0.05 9.4,-0.1 8.65,0.1 10.4,0.2 9.25,0.6 m -11.65,2 1.85,0.25 3.95,0.7 -0.6,0.25 -3.8,-0.7 -8.05,-0.9 -8.3,-0.55 -12,-0.7 -6.6,0.05 -2.85,0.15 -9,0.35 0.4,-0.05 v -0.35 l 14.3,-0.65 10.45,0.4 10.25,0.65 10,1.1 M -10.5,20 v 0.05 q 5.45,0.25 11.15,0 L 2.2,19.8 1.9,19.65 1.45,19.55 1.3,19.45 1.1,19.4 0.65,19.3 H 0.55 L 0.5,19.25 0,19.2 -0.65,19.05 -0.75,19 H -0.9 l -3.9,-0.25 -4.35,0.8 -1.3,0.35 -0.05,0.05 V 20 m 0.55,-0.65 3.2,-0.65 H -6.9 l -0.4,-0.05 h 0.05 L -7.1,18.6 h 0.25 l 0.05,-0.05 h 0.05 l 4.35,-0.2 0.45,0.05 h 0.15 l 0.05,0.05 -0.05,0.05 q 3.35,0.25 4.95,1.35 l -0.2,0.2 -2.75,0.45 h -10.25 l -1.15,-0.2 q -0.25,-0.65 1.25,-0.95 m 3.1,0.35 0.05,-0.05 0.05,-0.05 0.05,-0.05 0.1,-0.05 Q -5.25,19 -3.35,19 h 0.1 l 0.4,0.05 0.05,0.05 1.2,0.15 0.6,0.15 0.1,0.05 v 0.05 l 0.05,0.05 h 0.15 l 0.15,0.05 0.15,0.05 h 0.05 v 0.05 l -0.05,0.1 -0.05,0.05 -0.2,0.05 -0.2,0.1 Q -3.6,20.3 -6.4,20.05 L -6.7,19.9 -6.85,19.75 V 19.7 m 0.65,0.1 q 2.5,0.25 5.1,-0.05 L -1.55,19.6 -1.9,19.5 h -0.05 l -2.45,-0.15 -1.25,0.15 -0.5,0.1 -0.05,0.1 -0.05,0.05 0.05,0.05 m 9.5,1.9 h 0.8 l -6.05,0.1 q -12.85,0.6 -25.75,0.35 l -8.1,-0.3 q 5.8,-0.1 11.65,0.05 5.6,0.2 11.1,0 L 4.9,21.4 H 4.45 L 3.3,21.7 M -35.9,2 q 0.4,0 0,0.1 V 2"
             fill="#8a5c28"
             fill-rule="evenodd"
             stroke="none"
             id="path88" />
          <path
             d="m 27.9,-1.15 q -6.35,-10.6 -21.2,-15.3 -15,-4.75 -36.2,-2.6 V -1.15 16.8 Q -8.3,18.95 6.7,14.2 21.55,9.5 27.9,-1.15 Z"
             fill="none"
             stroke="#5d3c16"
             stroke-linecap="round"
             stroke-linejoin="round"
             stroke-width="3"
             id="path89" />
          <path
             d="M 27.9,-1.15 Q 21.55,9.5 6.7,14.2 q -15,4.75 -36.2,2.6 v -17.95 -17.9 q 21.2,-2.15 36.2,2.6 14.85,4.7 21.2,15.3"
             fill="#724c20"
             fill-rule="evenodd"
             stroke="none"
             id="path90" />
          <path
             d="m 0.75,-13 h 0.4 l 6.55,0.45 0.15,0.05 0.1,0.1 0.1,0.05 0.2,0.05 v 0.05 l -0.4,0.15 -0.65,0.05 q -5.65,0.3 -11.4,-0.05 h -0.4 l -0.2,-0.05 -0.15,-0.05 -0.1,-0.1 v -0.05 h 0.1 l 0.3,-0.1 0.3,-0.05 h 0.15 l 0.1,-0.05 H -4 l 0.2,-0.05 1.3,-0.1 2.4,-0.25 L 0,-13 h 0.15 0.6 m 2.1,-4.5 0.9,0.2 q -16.75,0.05 -33.3,0.45 v -0.35 h 0.3 l 21.2,-0.25 10.9,-0.05 m 8.8,3.75 2.15,0.1 0.85,0.45 -0.85,-0.05 -2.65,-0.15 q -11.95,-0.9 -23,0.2 l -1,0.2 -1.15,0.25 -0.2,0.05 -0.1,0.05 h -0.15 l -0.4,0.05 h -0.2 -0.1 -0.3 l -0.1,0.05 h -0.2 -0.1 -0.4 v 0.05 h -0.2 l -0.05,0.05 h -0.4 l -0.15,0.05 -0.6,0.1 -0.2,0.05 -0.2,0.05 -0.2,0.05 -2.35,0.05 -8.95,0.55 v -0.15 l 11.1,-0.75 1.15,-0.15 2.45,-0.45 0.65,-0.1 0.35,-0.1 0.65,-0.15 1.75,-0.2 h 0.25 l 0.3,-0.05 0.15,-0.05 h 0.7 l 1.55,-0.1 h 0.3 l 0.45,-0.05 h 0.1 0.2 0.2 l 2.9,-0.15 8.15,-0.1 2.4,0.1 5.45,0.25 m -4.05,-2.4 1,0.35 -2.4,0.05 -16.95,0.55 -16.45,0.85 -2.35,0.2 v -0.3 l 1.45,-0.15 3.65,-0.25 L -4,-15.9 7.55,-16.15 H 7.6 M 22,4.3 23.65,4.4 23.45,4.65 6.8,3.9 -19.1,2.05 -29.55,1.5 V 1.15 h -0.2 l 7.9,0.45 3.65,0.3 L 1.55,3.2 22,4.3 m -0.05,-12.55 0.3,0.2 -16.8,-0.15 -27.6,-0.4 -7.4,-0.15 v -0.2 l 14.4,0.2 33.85,0.45 3.25,0.05 m 3.85,5.7 H 27 l 0.25,0.45 -45.5,-0.25 h -0.6 l -10.7,0.15 v -0.45 l 4.2,-0.05 20.55,-0.1 30.6,0.25 m -9.5,-2.15 -6.3,0.05 -30.05,0.3 h -2.8 -6.7 V -4.6 h 0.45 l 20.7,-0.1 19.1,-0.4 14.2,-0.2 0.35,0.4 -8.95,0.2 M 0.25,-7.3 11.3,-7 l 12.1,0.1 0.2,0.2 Q 18.45,-6.65 13.55,-6.75 L -1.2,-7.15 -22.65,-8 l -2.2,-0.05 h -4.7 v -0.3 l 11.2,0.3 2.8,0.1 9.2,0.45 2.05,0.1 4.55,0.1 m 15.4,-4.7 v -0.1 h -0.1 L 12.9,-12.5 4.05,-13.2 -4.1,-13 h -0.2 -0.15 l -1.35,0.25 -1,0.05 -0.05,0.05 H -7.1 l -1.05,0.05 -0.35,0.05 -0.25,0.05 -0.85,0.15 -0.7,0.15 3.2,0.15 q 11.6,0.3 22.75,0.05 m 3.75,1.7 0.3,0.25 -21.6,-0.3 -23.4,-0.2 -4.25,0.1 v -0.35 h 12.15 l 36.8,0.5 M 7.95,-13.4 h 0.3 0.45 l 0.35,0.05 H 9.2 L 8.3,-13.3 H 7.95 l 6.5,0.7 q 2.9,0.25 2.6,0.75 l -0.1,0.1 -2.25,0.15 H -6.15 l -5.7,-0.4 q -0.95,-0.1 -0.4,-0.15 3.25,-1.05 10.1,-1.3 l -0.1,-0.05 0.1,-0.05 h 0.25 l 1,-0.05 8.85,0.2 m -1.2,1 -1,-0.15 -2.55,-0.05 -5,0.05 h -0.15 l -0.75,0.1 -0.85,0.2 q 5.25,0.2 10.4,0.05 L 6.9,-12.25 6.85,-12.3 6.75,-12.4 M 21.55,6.4 15.4,6.15 -1.1,5.5 -25.75,4.4 -28.05,4.3 -28.25,4.25 -28.4,4.2 h -0.35 l -0.5,-0.1 -0.15,-0.05 h -0.15 V 3.8 l 0.5,0.05 1.15,0.2 19.05,1 13.5,0.45 14.65,0.6 2.45,0.15 -0.2,0.15 M 24.3,0.85 22.5,0.75 20.05,0.65 10.35,0.4 -8.2,-0.2 -29.55,-0.6 v -0.3 l 12.55,0.2 21,0.55 20.3,0.7 2.5,0.1 -0.2,0.3 -2.3,-0.1 M 16.05,10.25 1.7,9.1 Q -9.25,8.3 -21.4,8.45 l -2.25,0.05 -5.9,0.15 V 8.5 l 1.6,-0.05 13.35,-0.4 20.35,0.95 3.9,0.25 7.2,0.55 -0.8,0.45 M 20,7.65 11.35,7.3 -3.25,6.5 -21,5.95 h -8.55 V 5.6 h 0.65 Q -18.1,5.5 -8,5.95 l 9.25,0.5 4.25,0.3 14.75,0.7 -0.25,0.2 m -7.85,4.5 -2.7,-0.05 h -32.95 -2.8 -3.25 v -0.35 l 12.35,0.15 4.6,0.05 22,0.05 3.1,0.05 -0.35,0.1 m -23.5,4.35 5.8,0.35 -2.3,0.2 -9.6,-0.55 -6.1,0.05 -2.65,0.15 -3.05,0.15 -0.3,-0.05 v -0.3 l 8.65,-0.4 9.55,0.4 m -18.2,-34.65 v -0.15 h 0.1 q 6.7,0.05 13.3,-0.2 l 9.45,-0.2 3.15,-0.05 2.1,0.35 -8.7,0.1 -5.75,0.1 -6.75,0.05 h -6.9 M 7.5,13.95 6.75,14.2 6.4,14.3 H 2.65 l -30.1,-0.2 h -0.6 -1.5 v -0.45 l 8.65,0.05 20.1,0.2 8.3,0.05 m -5.65,1.6 -1,0.2 q -9.7,-0.25 -19.5,-0.05 l -10.9,0.1 v -0.25 h 3.95 l 8.95,-0.05 8.6,-0.1 7.9,0.1 2,0.05 M 18.65,8.6 16.45,8.5 0.3,7.9 Q -11.75,7.5 -24.25,7.8 l -5.3,0.15 V 7.7 H -30.4 L -13.9,7.5 Q -3.4,7.45 6.6,7.9 l 12.25,0.55 -0.2,0.15"
             fill="#5d3c16"
             fill-rule="evenodd"
             stroke="none"
             id="path91" />
          <path
             d="M -30.1,-10.6 H 18.6 M -31.5,7.7 h 51.85"
             ffdec:has-small-stroke="true"
             ffdec:original-stroke-width="1.0"
             fill="none"
             stroke="#432a0d"
             stroke-linecap="square"
             stroke-linejoin="miter-clip"
             stroke-miterlimit="3"
             stroke-width="1.57948"
             id="path92" />
          <path
             d="m -14.25,17.45 10,-0.8 V -18.9 l -10,-0.8 z"
             fill="none"
             stroke="#5d3c16"
             stroke-linecap="round"
             stroke-linejoin="round"
             stroke-width="3"
             id="path93" />
          <path
             d="m -4.25,-18.9 v 35.55 l -10,0.8 V -19.7 l 10,0.8"
             fill="#8a5c28"
             fill-rule="evenodd"
             stroke="none"
             id="path94" />
          <path
             d="m -29.2,23.95 -6.75,-0.6 V -1.1 -25.5 l 6.75,-0.55 V -1.1 Z"
             fill="none"
             stroke="#5d3c16"
             stroke-linecap="round"
             stroke-linejoin="round"
             stroke-width="3"
             id="path95" />
          <path
             d="m -29.2,23.95 -6.75,-0.6 V -1.1 -25.5 l 6.75,-0.55 V -1.1 23.95"
             fill="#d0a067"
             fill-rule="evenodd"
             stroke="none"
             id="path96" />
          <path
             d="m -33.25,-25.75 0.45,-0.05 -1.7,10.2 q -0.65,3.9 -0.9,8.05 l -0.55,8.25 v -1.8 -4.85 l 0.95,-8.3 0.25,-1.8 q 0.9,-4.75 1.5,-9.65 v -0.05 m 1.1,14.6 -0.05,0.1 -0.05,0.15 -0.1,0.25 v 0.1 0.2 h -0.05 v 0.1 h -0.05 v 0.2 L -32.5,-10 v 0.1 h -0.05 v 0.2 l -0.05,0.05 v 0.1 l -0.05,0.2 v 0.1 l -0.05,0.05 -0.05,0.1 -0.2,0.55 -0.25,0.45 q -1.25,5.4 -0.2,11.25 l 0.15,1.3 0.7,5.45 q 0.65,5.75 1.05,11.75 l 0.05,2.1 H -31.8 L -31.85,23 -32.1,19 q -0.5,-6.95 -1.45,-13.6 l -0.25,-1.95 -0.3,-2.75 -0.05,-1.1 0.05,-4 0.15,-1.45 v -0.1 L -33.9,-6 v -0.05 l 0.05,-0.25 v -0.1 l 0.1,-0.85 0.05,-0.3 v -0.1 l 0.05,-0.1 0.05,-0.15 0.25,-0.85 0.1,-0.25 0.1,-0.2 0.15,-0.35 0.4,-1.2 0.25,-0.55 q 0.75,-4.45 1.15,-9.35 l 0.4,-5.3 0.25,-0.05 0.05,-0.45 -0.15,2.1 q -0.5,6.1 -1.3,11.95 l -0.15,1.2 -0.05,0.05 m 0.25,3.05 q 0.4,1.3 0.4,2.8 V 4.95 q 0,0.65 -0.15,1.1 -0.65,0.3 -0.95,-1.2 L -33.25,1.6 V 1.8 L -33.3,2.2 V 2.15 L -33.35,2 V 1.75 L -33.4,1.65 V 1.6 l -0.2,-4.35 0.05,-0.45 v -0.1 l 0.05,-0.05 0.05,0.05 q 0.25,-3.4 1.35,-4.95 0.15,-0.3 0.2,0.15 m -0.6,1.7 -0.05,0.15 -0.1,0.5 v 0.1 l -0.05,0.05 -0.05,0.5 -0.15,0.65 -0.05,0.1 v 0.15 l -0.25,3.9 q 0.2,2.3 0.8,4.35 l 0.35,1.3 0.05,0.05 h 0.05 0.05 q 0.25,-5.5 0,-11.15 -0.05,-0.85 -0.25,-1.55 l -0.15,0.3 -0.1,0.45 -0.1,0.15 m 0.4,1.75 0.05,0.15 0.1,0.25 q 0.3,2.7 0.05,5.5 l -0.15,0.3 -0.15,0.2 h -0.05 L -32.3,1.65 -32.35,1.6 -32.4,1.55 -32.45,1.5 q -0.5,-1.35 -0.5,-3.25 V -1.9 l 0.05,-0.35 V -2.3 l 0.05,-0.05 0.15,-1.15 0.15,-0.65 0.05,-0.05 h 0.05 l 0.05,-0.05 V -4.4 l 0.05,-0.2 0.05,-0.1 v -0.05 h 0.05 l 0.1,0.05 0.05,0.05 m -0.35,1.4 v 0.1 q -0.25,1.1 -0.15,2.45 l 0.15,1.25 0.1,0.5 0.1,0.05 h 0.05 0.05 Q -31.9,-1.45 -32.2,-4 l -0.15,0.4 -0.1,0.35 m 2.85,-22.8 0.35,-0.05 -0.4,2.7 q -0.6,4.25 -0.65,8.7 l 0.15,11.5 q 0.6,12.9 0.35,25.8 v 1.3 h -0.35 l 0.1,-4.85 q 0.2,-5.6 0,-11.1 L -30.6,-10.8 q -0.1,-5.3 0.3,-10.25 l 0.6,-4.5 0.1,-0.5"
             fill="#8a5c28"
             fill-rule="evenodd"
             stroke="none"
             id="path97" />
        </g>
        <g
           id="use86"
           transform="matrix(0,-0.4271,0.4271,0,-19.101135,-0.148725)">
          <path
             d="m 13.8,-45.6 q 1.85,1.85 3.15,4.4 3.25,6.45 -1,10.45 l -0.05,0.05 q -1.9,1.95 -4.95,2.85 l -0.05,0.05 -4.6,0.85 -3.6,0.8 q -1.55,0.6 -2.55,1.8 L 0.1,-24.3 q -1.3,1.9 0.2,4.8 v 0.05 l 1.8,2.6 1.15,1.35 q 0.9,1.05 0.8,2.5 -0.1,1.45 -1.15,2.4 -1.1,0.9 -2.55,0.8 -1.4,-0.1 -2.35,-1.15 l -1.15,-1.35 -0.05,-0.1 q -1.55,-1.85 -2.6,-3.75 l -0.05,-0.05 q -3.95,-7.65 0.7,-12.6 l 0.05,-0.05 q 2.1,-2.55 5.3,-3.8 L 5.3,-33.8 9,-34.5 h 0.05 q 1.15,-0.35 1.9,-1.05 0.6,-0.95 -0.2,-2.5 v -0.05 l -1.9,-2.6 q -1,-1 -1,-2.45 0,-1.45 1,-2.45 1.05,-1.05 2.45,-1.05 1.45,0 2.5,1.05"
             fill="#70381f"
             fill-rule="evenodd"
             stroke="none"
             id="path98" />
          <path
             d="m 13.8,-45.6 q -1.05,-1.05 -2.5,-1.05 -1.4,0 -2.45,1.05 -1,1 -1,2.45 0,1.45 1,2.45 l 1.9,2.6 v 0.05 q 0.8,1.55 0.2,2.5 -0.75,0.7 -1.9,1.05 H 9 l -3.7,0.7 -5.1,1.15 q -3.2,1.25 -5.3,3.8 l -0.05,0.05 q -4.65,4.95 -0.7,12.6 l 0.05,0.05 q 1.05,1.9 2.6,3.75 l 0.05,0.1 1.15,1.35 q 0.95,1.05 2.35,1.15 1.45,0.1 2.55,-0.8 1.05,-0.95 1.15,-2.4 0.1,-1.45 -0.8,-2.5 l -1.15,-1.35 -1.8,-2.6 v -0.05 q -1.5,-2.9 -0.2,-4.8 l 0.05,-0.05 q 1,-1.2 2.55,-1.8 l 3.6,-0.8 4.6,-0.85 0.05,-0.05 q 3.05,-0.9 4.95,-2.85 l 0.05,-0.05 q 4.25,-4 1,-10.45 -1.3,-2.55 -3.15,-4.4 z"
             ffdec:has-small-stroke="true"
             ffdec:original-stroke-width="3.0"
             fill="none"
             stroke="#3c190a"
             stroke-linecap="round"
             stroke-linejoin="round"
             stroke-width="3.69794"
             id="path99" />
          <path
             d="M -41.55,9.75 Q -40.3,8.5 -34.5,8.8 l 0.35,-0.85 q 2.55,-7.8 7.6,-12.85 5.25,-5.25 12.1,-7.95 6.6,-2.65 14.2,-2.65 7.6,0 14.25,2.65 6.8,2.7 12.05,7.95 5.05,5.05 7.65,12.85 l 0.25,0.9 q 6.25,-0.4 7.6,0.9 1.75,1.75 1.85,7.6 0.1,6 -1.85,7.95 -1.3,1.3 -5.9,1.2 -1.25,6.3 -7.35,10.5 -3.8,2.7 -9.3,4.3 -0.95,1.95 -5.4,3.4 -5.7,1.95 -13.85,1.95 -8.05,0 -13.8,-1.95 -4.45,-1.45 -5.45,-3.4 -5.45,-1.6 -9.3,-4.3 -6.05,-4.2 -7.35,-10.5 -4.15,0.05 -5.4,-1.2 -1.9,-1.95 -1.85,-7.95 0.1,-5.85 1.85,-7.6 z"
             fill="none"
             stroke="#3c190a"
             stroke-linecap="round"
             stroke-linejoin="round"
             stroke-width="6"
             id="path100" />
          <path
             d="M 32.9,8.9 26,9.75 V 25.3 l 6.75,1 q 7.1,0.65 8.8,-1 1.9,-1.95 1.8,-7.95 -0.1,-5.85 -1.8,-7.6 Q 40.1,8.35 32.9,8.9"
             fill="#70381f"
             fill-rule="evenodd"
             stroke="none"
             id="path101" />
          <path
             d="M -32.9,8.9 -26,9.75 V 25.3 l -6.75,1 q -7.1,0.65 -8.8,-1 -1.9,-1.95 -1.8,-7.95 0.1,-5.85 1.8,-7.6 1.45,-1.4 8.65,-0.85"
             fill="#70381f"
             fill-rule="evenodd"
             stroke="none"
             id="path102" />
          <path
             d="M 41.9,24.85 V 23.5 q -0.1,-5.85 -1.85,-7.6 -1.4,-1.4 -8.6,-0.85 L 26,15.65 v 9.65 l 6.75,1 q 7.1,0.65 8.8,-1 l 0.35,-0.45"
             fill="#bf7926"
             fill-rule="evenodd"
             stroke="none"
             id="path103" />
          <path
             d="m -31.45,15.05 5.45,0.6 v 9.65 l -6.75,1 q -7.1,0.65 -8.8,-1 L -41.9,24.85 V 23.5 q 0.1,-5.85 1.85,-7.6 1.4,-1.4 8.6,-0.85"
             fill="#bf7926"
             fill-rule="evenodd"
             stroke="none"
             id="path104" />
          <path
             d="m 14.05,-12.85 q 6.8,2.7 12.05,7.95 5.05,5.05 7.65,12.85 2.3,7 2.3,15 0,8.7 -7.7,14.05 -9.4,6.6 -28.55,6.6 -19.15,0 -28.55,-6.6 -7.7,-5.35 -7.7,-14.05 0,-8 2.3,-15 2.6,-7.8 7.65,-12.85 5.25,-5.25 12.05,-7.95 6.65,-2.65 14.25,-2.65 7.6,0 14.25,2.65"
             fill="#70381f"
             fill-rule="evenodd"
             stroke="none"
             id="path105" />
          <path
             d="M 14.05,-12.85 Q 7.4,-15.5 -0.2,-15.5 q -7.6,0 -14.25,2.65 -6.8,2.7 -12.05,7.95 -5.05,5.05 -7.65,12.85 -2.3,7 -2.3,15 0,8.7 7.7,14.05 9.4,6.6 28.55,6.6 19.15,0 28.55,-6.6 7.7,-5.35 7.7,-14.05 0,-8 -2.3,-15 -2.6,-7.8 -7.65,-12.85 -5.25,-5.25 -12.05,-7.95 z"
             ffdec:has-small-stroke="true"
             ffdec:original-stroke-width="1.0"
             fill="none"
             stroke="#3c190a"
             stroke-linecap="round"
             stroke-linejoin="round"
             stroke-width="3.69794"
             id="path106" />
          <path
             d="m -12.3,-11.6 q -6.8,2.55 -12.05,7.55 Q -29.4,0.8 -32,8.2 q -2.3,6.7 -2.3,14.3 0,8.3 7.7,13.4 4.1,2.7 10.05,4.25 -7.7,-6.1 -7.7,-15.95 0,-9.15 2.3,-17.1 2.6,-8.85 7.65,-14.6 2.65,-3.05 5.75,-5.3 l -3.75,1.2"
             fill="#54230d"
             fill-rule="evenodd"
             stroke="none"
             id="path107" />
          <path
             d="m 13.6,44.7 q -5.7,1.95 -13.8,1.95 -8.1,0 -13.85,-1.95 -5.7,-1.85 -5.7,-4.55 l -0.1,-1 -1.1,-0.4 q -3.9,-1.55 -6.95,-3.9 -2.9,-2.2 -4.65,-4.8 1.65,-1.1 3.7,-2.15 4.1,-2.1 7.9,-2.65 3.6,-0.55 10.5,1.75 7.55,2.5 10.25,2.5 2.85,0 10.25,-2.55 6.8,-2.35 10.45,-1.85 3.7,0.55 8,2.55 3.65,2 3.85,2.05 -3.9,6.15 -11.85,9.05 l -1.1,0.35 -0.1,1.05 q 0,2.7 -5.7,4.55"
             fill="#a35d0d"
             fill-rule="evenodd"
             stroke="none"
             id="path108" />
          <path
             d="m 17.3,33.1 q -0.85,0.85 -0.85,2.1 0,1.2 0.85,2.1 0.9,0.85 2.1,0.85 1.25,0 2.1,-0.85 0.9,-0.9 0.9,-2.1 0,-1.25 -0.9,-2.1 -0.85,-0.9 -2.1,-0.9 -1.2,0 -2.1,0.9"
             fill="#000000"
             fill-rule="evenodd"
             stroke="none"
             id="path109" />
          <path
             d="m -22,33.1 q -0.85,0.85 -0.85,2.1 0,1.2 0.85,2.1 0.9,0.85 2.1,0.85 1.25,0 2.1,-0.85 0.9,-0.9 0.9,-2.1 0,-1.25 -0.9,-2.1 -0.85,-0.9 -2.1,-0.9 -1.2,0 -2.1,0.9"
             fill="#000000"
             fill-rule="evenodd"
             stroke="none"
             id="path110" />
          <path
             d="m -1.3,34.2 q 12.8,0.45 20.45,4.95 l 0.25,0.2 v 0.05 l -0.05,0.7 q 0,2.75 -5.75,4.6 -5.7,1.95 -13.85,1.95 -8.05,0 -13.8,-1.95 -5.7,-1.85 -5.7,-4.6 l -0.15,-0.9 0.25,-0.15 Q -11.9,34.7 -1.3,34.2"
             fill="#bf7926"
             fill-rule="evenodd"
             stroke="none"
             id="path111" />
          <path
             d="m 26.25,35.7 q -3.9,3.9 -9.55,3.9 -5.6,0 -9.55,-3.9 -3.6,-3.6 -3.9,-8.8 h 26.9 q -0.25,5.15 -3.9,8.8"
             fill="#000000"
             fill-rule="evenodd"
             stroke="none"
             id="path112" />
          <path
             d="M 36,-7.75 Q 30,-23.7 -0.2,-23.7 q -30.2,0 -36.2,15.95 -3.05,7.9 -0.05,15.85 L -39.8,4.7 q -4.15,-2.9 -8.05,-0.45 -3.9,2.45 -2.55,11.15 0.7,4.35 2.15,8.15 49.25,9.9 96.1,0 Q 49.3,19.75 50,15.4 51.35,6.7 47.45,4.25 43.55,1.8 39.45,4.7 l -3.4,3.4 Q 39.1,0.15 36,-7.75 Z"
             fill="none"
             stroke="#000000"
             stroke-linecap="round"
             stroke-linejoin="round"
             stroke-width="6"
             id="path113" />
          <path
             d="m 36,-7.75 q 3.1,7.9 0.05,15.85 l 3.4,-3.4 q 4.1,-2.9 8,-0.45 3.9,2.45 2.55,11.15 -0.7,4.35 -2.15,8.15 -46.85,9.9 -96.1,0 -1.45,-3.8 -2.15,-8.15 -1.35,-8.7 2.55,-11.15 3.9,-2.45 8.05,0.45 l 3.35,3.4 q -3,-7.95 0.05,-15.85 6,-15.95 36.2,-15.95 30.2,0 36.2,15.95"
             fill="#1c1e27"
             fill-rule="evenodd"
             stroke="none"
             id="path114" />
          <path
             d="M 48.55,8.65 Q 49.6,9.2 50.3,10.15 50.45,12.4 50,15.4 49.3,19.75 47.85,23.55 32.9,26.7 17.7,27.9 l 3.2,-0.15 q -20.5,1.45 -41.45,0 l 3.3,0.15 q -15.4,-1.2 -31,-4.35 -1.45,-3.8 -2.15,-8.15 -0.45,-3 -0.3,-5.2 0.7,-1 1.8,-1.55 4,-1.95 8.25,0.4 l 3.4,2.75 q -3.1,-6.45 0.05,-12.95 6.15,-13 37,-13 30.9,0 37.05,13 3.15,6.5 0.05,12.95 l 3.45,-2.75 q 4.2,-2.35 8.2,-0.4"
             fill="#40444f"
             fill-rule="evenodd"
             stroke="none"
             id="path115" />
          <path
             d="M 17.6,3 17.25,5.6 16.9,6.9 q -1.3,4.15 -4.95,9.05 H 6.7 l 0.65,2.5 H 1.5 l 0.1,-2.5 h -2.25 l 0.05,2.5 h -5.85 l 0.5,-2.5 h -5.4 Q -15.1,11.3 -16.35,7 L -16.7,5.6 -17.05,3.05 Q -17.6,-8.25 0.3,-8.25 18.1,-8.25 17.6,3 M -0.05,10.6 -1.5,13 h 3.05 l -1.6,-2.4 m -3.2,-1.2 q -0.2,-2 -1.95,-3.45 -2,-1.6 -4.55,-1.55 -2.6,-0.05 -4.05,1.55 -1.35,1.45 -0.75,3.45 0.5,1.85 2.4,3.05 1.8,1.1 4,1.1 2.15,0 3.55,-1.1 1.45,-1.2 1.35,-3.05 m 18.65,0 Q 15.95,7.4 14.65,5.95 13.2,4.35 10.65,4.4 8.1,4.35 6.1,5.95 4.25,7.4 4.15,9.4 q -0.2,1.85 1.25,3.05 1.45,1.1 3.65,1.1 2.15,0 3.95,-1.1 1.85,-1.2 2.4,-3.05"
             fill="#ffffff"
             fill-rule="evenodd"
             stroke="none"
             id="path116" />
          <path
             d="m 15.4,9.4 q -0.55,1.85 -2.4,3.05 -1.8,1.1 -3.95,1.1 -2.2,0 -3.65,-1.1 -1.45,-1.2 -1.25,-3.05 0.1,-2 1.95,-3.45 2,-1.6 4.55,-1.55 2.55,-0.05 4,1.55 1.3,1.45 0.75,3.45 m -18.65,0 q 0.1,1.85 -1.35,3.05 -1.4,1.1 -3.55,1.1 -2.2,0 -4,-1.1 -1.9,-1.2 -2.4,-3.05 -0.6,-2 0.75,-3.45 1.45,-1.6 4.05,-1.55 2.55,-0.05 4.55,1.55 1.75,1.45 1.95,3.45 m 3.2,1.2 1.6,2.4 H -1.5 l 1.45,-2.4"
             fill="#40444f"
             fill-rule="evenodd"
             stroke="none"
             id="path117" />
        </g>
      </g>
    </g>
    <filter
       id="filter1"
       x="0"
       y="0"
       width="1"
       height="1">
      <feColorMatrix
         in="SourceGraphic"
         result="filterResult4"
         type="matrix"
         values="0 0 0 0 0.2,0 0 0 0 0.2,0 0 0 0 0.2,0 0 0 1 0"
         id="feColorMatrix3" />
      <feConvolveMatrix
         divisor="9.0"
         in="filterResult4"
         kernelMatrix="1 1 1 1 1 1 1 1 1"
         order="3 3"
         result="filterResult5"
         id="feConvolveMatrix3" />
      <feConvolveMatrix
         divisor="9.0"
         in="filterResult5"
         kernelMatrix="1 1 1 1 1 1 1 1 1"
         order="3 3"
         result="filterResult6"
         id="feConvolveMatrix4" />
      <feConvolveMatrix
         divisor="9.0"
         in="filterResult6"
         kernelMatrix="1 1 1 1 1 1 1 1 1"
         order="3 3"
         result="filterResult7"
         id="feConvolveMatrix5" />
      <feComposite
         in="SourceGraphic"
         in2="filterResult7"
         operator="over"
         result="filterResult8"
         id="feComposite5" />
    </filter>
  </g>
  <defs
     id="defs62">
    <g
       id="shape0"
       transform="matrix(1.0, 0.0, 0.0, 1.0, 1.25, 1.05)">
      <path
         d="M42.55 43.05 L1.45 44.5 -0.25 0.0 46.45 3.0 42.55 43.05"
         fill="#ffffff"
         fill-opacity="0.49803922"
         fill-rule="evenodd"
         stroke="none"
         id="path5" />
      <path
         d="M42.55 43.05 L1.45 44.5 -0.25 0.0 46.45 3.0 42.55 43.05 Z"
         fill="none"
         stroke="#000000"
         stroke-linecap="butt"
         stroke-linejoin="miter-clip"
         stroke-miterlimit="3.0"
         stroke-opacity="0.49803922"
         stroke-width="2.0"
         id="path6" />
    </g>
    <g
       id="sprite0"
       transform="matrix(1.0, 0.0, 0.0, 1.0, 77.5, 77.55)">
      <use
         ffdec:characterId="5119"
         height="301.35"
         transform="matrix(0.0, -0.258, -0.258, 0.0, 0.2572, 3.9533)"
         width="165.85"
         xlink:href="#shape1"
         id="use6" />
      <use
         ffdec:characterId="5119"
         height="301.35"
         transform="matrix(0.0, -0.258, 0.258, 0.0, -11.7572, 3.9533)"
         width="165.85"
         xlink:href="#shape2"
         id="use7" />
      <use
         ffdec:characterId="5122"
         height="53.65"
         transform="matrix(0.0, 1.809, -1.809, 0.0, 44.4295, -77.5253)"
         width="77.95"
         xlink:href="#sprite1"
         id="use8" />
    </g>
    <g
       id="shape1"
       transform="matrix(1.0, 0.0, 0.0, 1.0, 82.95, 148.85)">
      <path
         d="M13.7 -130.15 Q13.7 -123.45 8.95 -118.7 6.75 -116.5 4.1 -115.3 L4.1 -91.15 -10.3 -91.15 -10.3 -115.9 Q-12.25 -117.0 -13.95 -118.7 -18.7 -123.45 -18.7 -130.15 -18.7 -136.85 -13.95 -141.6 -9.2 -146.35 -2.5 -146.35 4.2 -146.35 8.95 -141.6 13.7 -136.85 13.7 -130.15"
         fill="#0f1015"
         fill-rule="evenodd"
         stroke="none"
         id="path8" />
      <path
         d="M13.7 -130.15 Q13.7 -123.45 8.95 -118.7 6.75 -116.5 4.1 -115.3 L4.1 -91.15 -10.3 -91.15 -10.3 -115.9 Q-12.25 -117.0 -13.95 -118.7 -18.7 -123.45 -18.7 -130.15 -18.7 -136.85 -13.95 -141.6 -9.2 -146.35 -2.5 -146.35 4.2 -146.35 8.95 -141.6 13.7 -136.85 13.7 -130.15 Z"
         ffdec:has-small-stroke="true"
         ffdec:original-stroke-width="5.0"
         fill="none"
         stroke="#000000"
         stroke-linecap="round"
         stroke-linejoin="round"
         stroke-width="11.073365604554809"
         id="path9" />
      <path
         d="M-48.1 103.55 Q-52.4 93.1 -57.05 79.65 -70.85 39.6 -75.15 6.25 -81.15 -40.5 -67.2 -67.2 -49.8 -100.55 -2.0 -100.55 45.8 -100.55 64.75 -67.2 79.95 -40.5 76.15 6.25 73.4 39.6 61.4 79.65 57.25 93.6 53.35 104.3 59.0 110.15 59.0 117.2 59.0 129.35 42.35 137.85 25.75 146.5 2.25 146.5 -21.3 146.5 -37.9 137.85 -54.5 129.35 -54.5 117.2 -54.5 109.7 -48.1 103.55 L-44.05 113.0 -41.85 114.55 Q-38.7 116.4 -34.25 117.95 -19.9 122.9 2.75 122.9 25.4 122.9 39.95 117.95 47.25 115.5 50.0 113.0 L53.35 104.3 50.0 113.0 Q47.25 115.5 39.95 117.95 25.4 122.9 2.75 122.9 -19.9 122.9 -34.25 117.95 -38.7 116.4 -41.85 114.55 L-44.05 113.0 -48.1 103.55"
         fill="#000000"
         fill-rule="evenodd"
         stroke="none"
         id="path10" />
      <path
         d="M-48.1 103.55 Q-52.4 93.1 -57.05 79.65 -70.85 39.6 -75.15 6.25 -81.15 -40.5 -67.2 -67.2 -49.8 -100.55 -2.0 -100.55 45.8 -100.55 64.75 -67.2 79.95 -40.5 76.15 6.25 73.4 39.6 61.4 79.65 57.25 93.6 53.35 104.3 59.0 110.15 59.0 117.2 59.0 129.35 42.35 137.85 25.75 146.5 2.25 146.5 -21.3 146.5 -37.9 137.85 -54.5 129.35 -54.5 117.2 -54.5 109.7 -48.1 103.55 L-44.05 113.0 -41.85 114.55 Q-38.7 116.4 -34.25 117.95 -19.9 122.9 2.75 122.9 25.4 122.9 39.95 117.95 47.25 115.5 50.0 113.0 L53.35 104.3"
         fill="none"
         stroke="#000000"
         stroke-linecap="round"
         stroke-linejoin="round"
         stroke-width="12.0"
         id="path11" />
      <path
         d="M-54.5 117.2 Q-54.5 105.1 -37.9 96.5 -21.3 87.95 2.25 87.95 25.75 87.95 42.35 96.5 59.0 105.1 59.0 117.2 59.0 129.35 42.35 137.85 25.75 146.5 2.25 146.5 -21.3 146.5 -37.9 137.85 -54.5 129.35 -54.5 117.2"
         fill="#0f1015"
         fill-rule="evenodd"
         stroke="none"
         id="path12" />
      <path
         d="M-37.9 96.5 Q-21.3 87.95 2.25 87.95 L3.15 87.95 Q-12.0 100.95 -12.0 118.9 L-11.95 120.5 -17.85 124.0 Q-26.5 129.95 -26.5 135.25 -26.5 139.45 -21.2 144.0 -30.3 141.8 -37.9 137.85 -54.5 129.35 -54.5 117.2 -54.5 105.1 -37.9 96.5"
         fill="#7e7f8c"
         fill-rule="evenodd"
         stroke="none"
         id="path13" />
      <path
         d="M-37.9 96.5 Q-33.65 94.3 -28.9 92.7 -36.0 102.65 -36.0 114.9 L-35.95 116.5 -41.85 120.0 Q-48.55 124.6 -50.05 128.8 -54.5 123.5 -54.5 117.2 -54.5 105.1 -37.9 96.5"
         fill="#1a1c23"
         fill-rule="evenodd"
         stroke="none"
         id="path14" />
      <path
         d="M59.7 110.6 Q55.9 118.05 44.1 123.85 26.8 132.5 2.25 132.5 -22.3 132.5 -39.65 123.85 -51.4 118.05 -55.2 110.6 -51.4 103.15 -39.65 97.3 -22.3 88.75 2.25 88.75 26.8 88.75 44.1 97.3 55.9 103.15 59.7 110.6"
         fill="#000000"
         fill-rule="evenodd"
         stroke="none"
         id="path15" />
      <path
         d="M-2.0 -100.55 Q45.8 -100.55 64.75 -67.2 79.95 -40.5 76.15 6.25 73.4 39.6 61.4 79.65 55.45 99.65 50.0 113.0 47.25 115.5 39.95 117.95 25.4 122.9 2.75 122.9 -19.9 122.9 -34.25 117.95 -38.7 116.4 -41.85 114.55 L-44.05 113.0 Q-50.1 99.65 -57.05 79.65 -70.85 39.6 -75.15 6.25 -81.15 -40.5 -67.2 -67.2 -49.8 -100.55 -2.0 -100.55"
         fill="#0f1015"
         fill-rule="evenodd"
         stroke="none"
         id="path16" />
      <path
         d="M5.6 -100.3 Q-20.25 -92.15 -32.05 -66.7 -46.0 -36.75 -40.0 15.75 -35.7 53.2 -21.9 98.2 -17.8 111.45 -14.0 122.1 -25.65 120.9 -34.25 117.95 -38.7 116.4 -41.85 114.55 L-44.05 113.0 Q-50.1 99.65 -57.05 79.65 -70.85 39.6 -75.15 6.25 -81.15 -40.5 -67.2 -67.2 -49.8 -100.55 -2.0 -100.55 L5.6 -100.3"
         fill="#7e7f8c"
         fill-rule="evenodd"
         stroke="none"
         id="path17" />
      <path
         d="M4.65 -100.35 Q-37.95 -98.05 -54.15 -64.1 -68.1 -34.9 -62.1 16.2 -57.8 52.6 -44.0 96.4 -40.45 107.6 -37.1 116.85 L-41.85 114.55 -44.05 113.0 Q-50.1 99.65 -57.05 79.65 -70.85 39.6 -75.15 6.25 -81.15 -40.5 -67.2 -67.2 -49.8 -100.55 -2.0 -100.55 L4.65 -100.35"
         fill="#1a1c23"
         fill-rule="evenodd"
         stroke="none"
         id="path18" />
    </g>
    <g
       id="shape2"
       transform="matrix(1.0, 0.0, 0.0, 1.0, 82.95, 148.85)">
      <path
         d="M13.7 -130.15 Q13.7 -123.45 8.95 -118.7 6.75 -116.5 4.1 -115.3 L4.1 -91.15 -10.3 -91.15 -10.3 -115.9 Q-12.25 -117.0 -13.95 -118.7 -18.7 -123.45 -18.7 -130.15 -18.7 -136.85 -13.95 -141.6 -9.2 -146.35 -2.5 -146.35 4.2 -146.35 8.95 -141.6 13.7 -136.85 13.7 -130.15"
         fill="#0f1015"
         fill-rule="evenodd"
         stroke="none"
         id="path19" />
      <path
         d="M13.7 -130.15 Q13.7 -123.45 8.95 -118.7 6.75 -116.5 4.1 -115.3 L4.1 -91.15 -10.3 -91.15 -10.3 -115.9 Q-12.25 -117.0 -13.95 -118.7 -18.7 -123.45 -18.7 -130.15 -18.7 -136.85 -13.95 -141.6 -9.2 -146.35 -2.5 -146.35 4.2 -146.35 8.95 -141.6 13.7 -136.85 13.7 -130.15 Z"
         ffdec:has-small-stroke="true"
         ffdec:original-stroke-width="5.0"
         fill="none"
         stroke="#000000"
         stroke-linecap="round"
         stroke-linejoin="round"
         stroke-width="11.073365604554809"
         id="path20" />
      <path
         d="M-48.1 103.55 Q-52.4 93.1 -57.05 79.65 -70.85 39.6 -75.15 6.25 -81.15 -40.5 -67.2 -67.2 -49.8 -100.55 -2.0 -100.55 45.8 -100.55 64.75 -67.2 79.95 -40.5 76.15 6.25 73.4 39.6 61.4 79.65 57.25 93.6 53.35 104.3 59.0 110.15 59.0 117.2 59.0 129.35 42.35 137.85 25.75 146.5 2.25 146.5 -21.3 146.5 -37.9 137.85 -54.5 129.35 -54.5 117.2 -54.5 109.7 -48.1 103.55 L-44.05 113.0 -41.85 114.55 Q-38.7 116.4 -34.25 117.95 -19.9 122.9 2.75 122.9 25.4 122.9 39.95 117.95 47.25 115.5 50.0 113.0 L53.35 104.3 50.0 113.0 Q47.25 115.5 39.95 117.95 25.4 122.9 2.75 122.9 -19.9 122.9 -34.25 117.95 -38.7 116.4 -41.85 114.55 L-44.05 113.0 -48.1 103.55"
         fill="#000000"
         fill-rule="evenodd"
         stroke="none"
         id="path21" />
      <path
         d="M-48.1 103.55 Q-52.4 93.1 -57.05 79.65 -70.85 39.6 -75.15 6.25 -81.15 -40.5 -67.2 -67.2 -49.8 -100.55 -2.0 -100.55 45.8 -100.55 64.75 -67.2 79.95 -40.5 76.15 6.25 73.4 39.6 61.4 79.65 57.25 93.6 53.35 104.3 59.0 110.15 59.0 117.2 59.0 129.35 42.35 137.85 25.75 146.5 2.25 146.5 -21.3 146.5 -37.9 137.85 -54.5 129.35 -54.5 117.2 -54.5 109.7 -48.1 103.55 L-44.05 113.0 -41.85 114.55 Q-38.7 116.4 -34.25 117.95 -19.9 122.9 2.75 122.9 25.4 122.9 39.95 117.95 47.25 115.5 50.0 113.0 L53.35 104.3"
         fill="none"
         stroke="#000000"
         stroke-linecap="round"
         stroke-linejoin="round"
         stroke-width="12.0"
         id="path22" />
      <path
         d="M-54.5 117.2 Q-54.5 105.1 -37.9 96.5 -21.3 87.95 2.25 87.95 25.75 87.95 42.35 96.5 59.0 105.1 59.0 117.2 59.0 129.35 42.35 137.85 25.75 146.5 2.25 146.5 -21.3 146.5 -37.9 137.85 -54.5 129.35 -54.5 117.2"
         fill="#0f1015"
         fill-rule="evenodd"
         stroke="none"
         id="path23" />
      <path
         d="M-37.9 96.5 Q-21.3 87.95 2.25 87.95 L3.15 87.95 Q-12.0 100.95 -12.0 118.9 L-11.95 120.5 -17.85 124.0 Q-26.5 129.95 -26.5 135.25 -26.5 139.45 -21.2 144.0 -30.3 141.8 -37.9 137.85 -54.5 129.35 -54.5 117.2 -54.5 105.1 -37.9 96.5"
         fill="#7e7f8c"
         fill-rule="evenodd"
         stroke="none"
         id="path24" />
      <path
         d="M-37.9 96.5 Q-33.65 94.3 -28.9 92.7 -36.0 102.65 -36.0 114.9 L-35.95 116.5 -41.85 120.0 Q-48.55 124.6 -50.05 128.8 -54.5 123.5 -54.5 117.2 -54.5 105.1 -37.9 96.5"
         fill="#1a1c23"
         fill-rule="evenodd"
         stroke="none"
         id="path25" />
      <path
         d="M59.7 110.6 Q55.9 118.05 44.1 123.85 26.8 132.5 2.25 132.5 -22.3 132.5 -39.65 123.85 -51.4 118.05 -55.2 110.6 -51.4 103.15 -39.65 97.3 -22.3 88.75 2.25 88.75 26.8 88.75 44.1 97.3 55.9 103.15 59.7 110.6"
         fill="#000000"
         fill-rule="evenodd"
         stroke="none"
         id="path26" />
      <path
         d="M-2.0 -100.55 Q45.8 -100.55 64.75 -67.2 79.95 -40.5 76.15 6.25 73.4 39.6 61.4 79.65 55.45 99.65 50.0 113.0 47.25 115.5 39.95 117.95 25.4 122.9 2.75 122.9 -19.9 122.9 -34.25 117.95 -38.7 116.4 -41.85 114.55 L-44.05 113.0 Q-50.1 99.65 -57.05 79.65 -70.85 39.6 -75.15 6.25 -81.15 -40.5 -67.2 -67.2 -49.8 -100.55 -2.0 -100.55"
         fill="#0f1015"
         fill-rule="evenodd"
         stroke="none"
         id="path27" />
      <path
         d="M5.6 -100.3 Q-20.25 -92.15 -32.05 -66.7 -46.0 -36.75 -40.0 15.75 -35.7 53.2 -21.9 98.2 -17.8 111.45 -14.0 122.1 -25.65 120.9 -34.25 117.95 -38.7 116.4 -41.85 114.55 L-44.05 113.0 Q-50.1 99.65 -57.05 79.65 -70.85 39.6 -75.15 6.25 -81.15 -40.5 -67.2 -67.2 -49.8 -100.55 -2.0 -100.55 L5.6 -100.3"
         fill="#7e7f8c"
         fill-rule="evenodd"
         stroke="none"
         id="path28" />
      <path
         d="M4.65 -100.35 Q-37.95 -98.05 -54.15 -64.1 -68.1 -34.9 -62.1 16.2 -57.8 52.6 -44.0 96.4 -40.45 107.6 -37.1 116.85 L-41.85 114.55 -44.05 113.0 Q-50.1 99.65 -57.05 79.65 -70.85 39.6 -75.15 6.25 -81.15 -40.5 -67.2 -67.2 -49.8 -100.55 -2.0 -100.55 L4.65 -100.35"
         fill="#1a1c23"
         fill-rule="evenodd"
         stroke="none"
         id="path29" />
    </g>
    <g
       id="sprite1"
       transform="matrix(1.0, 0.0, 0.0, 1.0, 39.65, 27.85)">
      <use
         ffdec:characterId="5120"
         height="53.65"
         transform="matrix(1.0, 0.0, 0.0, 1.0, -37.45, -27.85)"
         width="75.75"
         xlink:href="#shape3"
         id="use29" />
      <use
         ffdec:characterId="5121"
         height="97.8"
         transform="matrix(0.0, -0.4271, 0.4271, 0.0, -39.666, 22.8079)"
         width="107.1"
         xlink:href="#shape4"
         id="use30" />
    </g>
    <g
       id="shape3"
       transform="matrix(1.0, 0.0, 0.0, 1.0, 37.45, 27.9)">
      <path
         d="M36.8 -1.05 Q28.8 -15.55 10.0 -21.95 -9.05 -28.4 -35.9 -25.45 L-35.9 -1.05 -35.9 23.35 Q-9.05 26.25 10.0 19.8 28.8 13.4 36.8 -1.05 Z"
         fill="none"
         stroke="#5d3c16"
         stroke-linecap="round"
         stroke-linejoin="round"
         stroke-width="3.0"
         id="path30" />
      <path
         d="M36.8 -1.05 Q28.8 13.4 10.0 19.8 -9.05 26.25 -35.9 23.35 L-35.9 -1.05 -35.9 -25.45 Q-9.05 -28.4 10.0 -21.95 28.8 -15.55 36.8 -1.05"
         fill="#d0a067"
         fill-rule="evenodd"
         stroke="none"
         id="path31" />
      <path
         d="M14.9 -20.05 L7.95 -19.9 -10.45 -19.3 -28.4 -18.35 -35.9 -17.75 -35.9 -18.1 -29.4 -18.65 -25.4 -18.9 -3.15 -20.0 14.55 -20.45 14.0 -20.45 14.9 -20.05 M10.4 -21.8 L11.15 -21.55 Q-12.55 -21.55 -35.9 -20.95 L-35.9 -21.35 -30.65 -21.45 -7.55 -21.75 10.4 -21.8 M19.7 -15.55 L17.2 -15.35 -5.5 -15.35 -11.65 -15.75 Q-12.7 -15.85 -12.1 -16.0 -8.6 -17.1 -1.1 -17.4 L-1.2 -17.4 -1.1 -17.45 -0.85 -17.45 0.25 -17.5 9.9 -17.35 9.95 -17.35 10.2 -17.3 10.7 -17.3 11.1 -17.25 11.25 -17.25 10.3 -17.2 9.9 -17.2 16.95 -16.5 Q20.35 -16.15 19.7 -15.55 M20.5 -17.3 L21.3 -16.85 16.2 -17.15 13.35 -17.35 Q0.3 -18.3 -11.65 -17.1 L-12.8 -16.9 -14.05 -16.6 -14.25 -16.55 -14.3 -16.5 -14.55 -16.5 -14.95 -16.5 -15.2 -16.5 -15.25 -16.45 -15.6 -16.45 -15.7 -16.4 -15.95 -16.4 Q-15.95 -16.35 -16.05 -16.35 L-16.5 -16.35 -16.5 -16.3 -16.7 -16.3 -16.8 -16.25 -17.2 -16.25 -17.4 -16.2 -18.0 -16.1 -18.25 -16.05 -18.45 -16.05 -18.7 -16.0 -21.25 -15.85 -35.9 -15.05 -35.9 -15.2 -18.9 -16.25 -17.6 -16.5 -14.95 -16.95 -14.25 -17.05 -13.85 -17.15 -13.15 -17.3 -11.25 -17.5 -10.95 -17.55 -10.7 -17.6 -10.45 -17.65 -9.75 -17.65 -8.05 -17.75 -7.7 -17.75 -7.25 -17.8 -7.1 -17.8 -6.9 -17.8 -6.7 -17.8 -3.55 -17.95 5.4 -18.05 7.95 -17.95 13.9 -17.7 18.25 -17.45 20.5 -17.3 M18.25 -15.85 L18.25 -15.9 Q18.15 -15.9 18.15 -15.95 L15.25 -16.3 5.6 -17.1 -3.25 -16.9 -3.45 -16.9 -3.65 -16.85 -5.05 -16.6 -6.2 -16.55 -6.3 -16.5 -6.5 -16.5 -7.65 -16.45 -8.05 -16.4 -8.3 -16.3 -9.25 -16.15 -9.95 -16.05 -6.5 -15.8 Q6.1 -15.55 18.25 -15.75 L18.25 -15.85 M7.1 -22.85 L5.15 -22.85 -9.85 -22.65 -16.1 -22.55 -23.45 -22.45 -35.9 -22.45 -35.9 -22.6 -30.9 -22.65 -16.4 -22.85 -6.05 -23.1 6.5 -23.3 5.6 -23.25 7.1 -22.85 M18.95 -7.85 L12.1 -7.8 Q-4.2 -7.55 -20.6 -7.45 L-23.65 -7.45 -35.9 -7.45 -35.9 -7.65 -35.45 -7.65 -30.5 -7.7 -7.95 -7.85 12.85 -8.3 31.6 -8.5 31.95 -8.05 18.95 -7.85 M9.8 -16.3 L9.9 -16.2 9.95 -16.15 10.2 -16.1 10.2 -16.05 9.8 -15.95 9.05 -15.8 Q2.85 -15.55 -3.3 -15.85 L-3.75 -15.95 -4.05 -16.0 -4.2 -16.05 -4.25 -16.1 -4.25 -16.15 -4.2 -16.15 -3.85 -16.25 -3.55 -16.3 -3.3 -16.3 -3.25 -16.35 Q-3.15 -16.35 -3.15 -16.4 L-2.95 -16.45 -1.55 -16.55 1.1 -16.8 1.2 -16.85 1.35 -16.85 2.05 -16.9 2.45 -16.9 9.55 -16.35 9.8 -16.3 M8.65 -16.05 L8.75 -16.05 8.65 -16.1 8.6 -16.2 7.45 -16.35 4.65 -16.5 -0.7 -16.35 -0.9 -16.35 -1.7 -16.25 -2.65 -16.05 Q3.05 -15.8 8.65 -16.05 M27.05 -13.6 L-0.85 -14.0 -26.3 -14.2 -36.85 -13.95 -35.9 -14.0 -35.9 -14.3 Q-27.05 -14.65 -17.8 -14.5 L23.85 -13.9 25.7 -13.85 26.05 -13.65 27.05 -13.6 M29.4 8.55 L28.85 9.05 20.9 8.6 3.1 7.25 -22.15 6.45 -24.55 6.5 -35.9 6.85 -35.9 6.65 -32.35 6.55 -29.25 6.45 -14.7 6.05 7.5 7.05 11.7 7.35 29.4 8.55 M32.05 5.75 L31.9 5.95 13.6 5.2 -2.3 4.4 -21.7 3.75 -35.9 3.75 -35.9 3.5 -30.25 3.4 Q-18.5 3.3 -7.5 3.75 L2.6 4.35 7.2 4.65 29.75 5.65 32.05 5.75 M33.9 2.4 L33.9 2.6 29.25 2.45 8.6 1.55 -19.6 -0.45 -35.9 -1.3 -35.9 -1.7 -36.3 -1.7 -22.65 -0.95 -18.6 -0.65 2.9 0.75 25.2 2.0 33.9 2.4 M33.2 4.4 L33.1 4.55 18.0 4.0 0.05 3.3 -26.8 2.05 -29.35 2.0 -29.55 1.95 -29.75 1.9 -30.1 1.85 -30.6 1.75 -30.85 1.7 -31.25 1.7 -31.35 1.65 -31.55 1.65 -31.55 1.6 -32.0 1.6 -32.1 1.55 -32.35 1.55 -32.4 1.55 -32.8 1.55 -32.9 1.5 -33.1 1.5 -33.5 1.45 -33.7 1.45 -33.8 1.4 -34.05 1.35 -35.3 1.1 -35.9 0.95 -35.9 0.55 -34.9 0.65 -34.25 0.8 -33.8 0.9 -33.1 1.05 -30.45 1.5 -29.15 1.7 -8.4 2.8 6.3 3.3 22.25 3.95 33.2 4.4 M33.9 -5.4 L33.9 -5.05 -18.7 -5.25 -19.3 -5.25 -35.9 -5.05 -35.9 -5.55 -26.4 -5.65 -4.05 -5.75 29.3 -5.5 33.9 -5.4 M25.75 -1.9 L23.1 -1.95 12.5 -2.3 -7.7 -2.9 -35.9 -3.4 -35.9 -3.75 -17.35 -3.5 5.55 -2.85 27.65 -2.1 33.9 -1.95 33.9 -1.65 27.65 -1.8 25.75 -1.9 M28.4 -11.65 L28.7 -11.4 7.15 -11.65 -22.9 -12.1 -35.9 -12.25 -35.9 -12.5 -34.05 -12.5 -15.25 -12.25 21.6 -11.75 28.4 -11.65 M30.15 -10.05 L27.1 -10.0 Q21.35 -9.95 16.0 -10.05 L-0.1 -10.5 -23.45 -11.4 -25.9 -11.45 -36.65 -11.35 -35.9 -11.4 -35.9 -11.8 -33.3 -11.85 -18.8 -11.45 -15.7 -11.35 -5.7 -10.85 -3.45 -10.8 1.55 -10.7 13.55 -10.35 29.95 -10.25 30.15 -10.05 M26.6 6.85 L19.15 6.55 1.55 5.9 Q-11.6 5.5 -25.2 5.8 L-36.85 5.95 -35.9 5.95 -35.9 5.7 -32.8 5.65 -13.95 5.45 Q-2.5 5.4 8.4 5.9 L27.1 6.8 31.05 6.9 30.9 7.0 31.5 7.05 26.6 6.85 M26.9 10.6 L27.05 10.6 26.85 10.8 19.25 10.6 11.55 10.5 -24.4 10.45 -27.45 10.45 -35.9 10.4 -35.9 10.05 -17.5 10.25 -12.55 10.3 11.45 10.35 Q19.25 10.4 26.9 10.6 M23.25 12.95 Q13.85 12.85 4.1 12.9 L-28.7 12.65 -29.35 12.65 -35.9 12.65 -35.9 12.1 -21.6 12.2 0.35 12.4 23.4 12.6 24.4 12.6 24.0 12.95 23.25 12.95 M5.5 19.6 L5.45 19.6 5.25 19.6 5.2 19.55 5.1 19.55 5.1 19.5 4.95 19.5 4.9 19.45 4.8 19.45 4.75 19.4 4.6 19.4 4.55 19.35 4.45 19.35 4.2 19.3 4.15 19.3 4.1 19.25 4.0 19.2 3.45 19.0 2.95 18.75 Q-2.4 17.5 -8.25 18.55 L-9.55 18.7 -15.0 19.4 -26.75 20.45 -33.2 20.75 -34.95 20.8 -36.35 20.8 -35.9 20.8 -35.9 20.45 -28.1 20.1 -24.1 19.85 -10.5 18.4 -8.6 18.15 -5.85 17.85 -4.7 17.8 -0.7 17.85 0.7 18.0 0.8 18.0 0.9 18.05 0.95 18.05 1.15 18.1 1.3 18.1 2.1 18.2 2.45 18.25 2.5 18.3 2.65 18.3 2.8 18.35 3.65 18.6 3.9 18.7 4.1 18.8 4.45 18.95 5.6 19.35 6.2 19.6 9.15 20.05 8.75 20.2 7.25 20.0 6.1 19.85 6.0 19.8 5.95 19.75 5.8 19.7 5.5 19.6 M-35.9 -25.4 L-35.9 -25.5 -33.35 -25.75 Q-27.4 -25.8 -21.45 -26.0 L-15.7 -26.1 -15.45 -26.15 -12.45 -26.2 -8.8 -25.85 -19.2 -25.65 -24.6 -25.55 -24.9 -25.55 -35.9 -25.4 M20.75 14.95 L20.15 15.3 15.85 15.0 Q-1.5 14.0 -19.1 14.4 -28.05 14.7 -36.85 14.3 L-35.9 14.35 -35.9 14.1 -36.85 14.05 -32.45 14.15 -26.65 14.2 -16.95 14.15 -7.55 14.05 1.1 14.15 11.5 14.35 20.75 14.95 M9.1 16.95 L10.95 17.2 14.9 17.9 14.3 18.15 10.5 17.45 2.45 16.55 -5.85 16.0 -17.85 15.3 -24.45 15.35 -27.3 15.5 -36.3 15.85 -35.9 15.8 -35.9 15.45 -21.6 14.8 -11.15 15.2 -0.9 15.85 9.1 16.95 M-10.5 20.0 L-10.5 20.05 Q-5.05 20.3 0.65 20.05 L2.2 19.8 1.9 19.65 1.45 19.55 1.3 19.45 1.1 19.4 0.65 19.3 0.55 19.3 0.5 19.25 0.0 19.2 -0.65 19.05 -0.75 19.0 -0.9 19.0 -4.8 18.75 -9.15 19.55 -10.45 19.9 -10.5 19.95 -10.5 20.0 M-9.95 19.35 L-6.75 18.7 -6.9 18.7 -7.3 18.65 -7.25 18.65 -7.1 18.6 -6.85 18.6 -6.8 18.55 -6.75 18.55 -2.4 18.35 -1.95 18.4 -1.8 18.4 -1.75 18.45 -1.8 18.5 Q1.55 18.75 3.15 19.85 L2.95 20.05 0.2 20.5 -10.05 20.5 -11.2 20.3 Q-11.45 19.65 -9.95 19.35 M-6.85 19.7 L-6.8 19.65 -6.75 19.6 -6.7 19.55 -6.6 19.5 Q-5.25 19.0 -3.35 19.0 L-3.25 19.0 -2.85 19.05 -2.8 19.1 -1.6 19.25 -1.0 19.4 -0.9 19.45 -0.9 19.5 -0.85 19.55 -0.7 19.55 -0.55 19.6 -0.4 19.65 -0.35 19.65 -0.35 19.7 -0.4 19.8 -0.45 19.85 -0.65 19.9 -0.85 20.0 Q-3.6 20.3 -6.4 20.05 L-6.7 19.9 -6.85 19.75 -6.85 19.7 M-6.2 19.8 Q-3.7 20.05 -1.1 19.75 L-1.55 19.6 -1.9 19.5 -1.95 19.5 -4.4 19.35 -5.65 19.5 -6.15 19.6 -6.2 19.7 -6.25 19.75 -6.2 19.8 M3.3 21.7 L4.1 21.7 -1.95 21.8 Q-14.8 22.4 -27.7 22.15 L-35.8 21.85 Q-30.0 21.75 -24.15 21.9 -18.55 22.1 -13.05 21.9 L4.9 21.4 4.45 21.4 3.3 21.7 M-35.9 2.0 Q-35.5 2.0 -35.9 2.1 L-35.9 2.0"
         fill="#8a5c28"
         fill-rule="evenodd"
         stroke="none"
         id="path32" />
      <path
         d="M27.9 -1.15 Q21.55 -11.75 6.7 -16.45 -8.3 -21.2 -29.5 -19.05 L-29.5 -1.15 -29.5 16.8 Q-8.3 18.95 6.7 14.2 21.55 9.5 27.9 -1.15 Z"
         fill="none"
         stroke="#5d3c16"
         stroke-linecap="round"
         stroke-linejoin="round"
         stroke-width="3.0"
         id="path33" />
      <path
         d="M27.9 -1.15 Q21.55 9.5 6.7 14.2 -8.3 18.95 -29.5 16.8 L-29.5 -1.15 -29.5 -19.05 Q-8.3 -21.2 6.7 -16.45 21.55 -11.75 27.9 -1.15"
         fill="#724c20"
         fill-rule="evenodd"
         stroke="none"
         id="path34" />
      <path
         d="M0.75 -13.0 L1.15 -13.0 7.7 -12.55 7.85 -12.5 7.95 -12.4 8.05 -12.35 8.25 -12.3 8.25 -12.25 7.85 -12.1 7.2 -12.05 Q1.55 -11.75 -4.2 -12.1 L-4.6 -12.1 -4.8 -12.15 -4.95 -12.2 -5.05 -12.3 -5.05 -12.35 -4.95 -12.35 -4.65 -12.45 -4.35 -12.5 -4.2 -12.5 -4.1 -12.55 -4.0 -12.55 -3.8 -12.6 -2.5 -12.7 -0.1 -12.95 0.0 -13.0 0.15 -13.0 0.75 -13.0 M2.85 -17.5 L3.75 -17.3 Q-13.0 -17.25 -29.55 -16.85 L-29.55 -17.2 -29.25 -17.2 -8.05 -17.45 2.85 -17.5 M11.65 -13.75 L13.8 -13.65 14.65 -13.2 13.8 -13.25 11.15 -13.4 Q-0.8 -14.3 -11.85 -13.2 L-12.85 -13.0 -14.0 -12.75 -14.2 -12.7 -14.3 -12.65 -14.45 -12.65 -14.85 -12.6 -15.05 -12.6 -15.15 -12.6 -15.45 -12.6 -15.55 -12.55 -15.75 -12.55 -15.85 -12.55 -16.25 -12.55 -16.25 -12.5 -16.45 -12.5 -16.5 -12.45 -16.9 -12.45 -17.05 -12.4 -17.65 -12.3 -17.85 -12.25 -18.05 -12.2 -18.25 -12.15 -20.6 -12.1 -29.55 -11.55 -29.55 -11.7 -18.45 -12.45 -17.3 -12.6 -14.85 -13.05 -14.2 -13.15 -13.85 -13.25 -13.2 -13.4 -11.45 -13.6 -11.2 -13.6 -10.9 -13.65 -10.75 -13.7 -10.05 -13.7 -8.5 -13.8 -8.2 -13.8 -7.75 -13.85 -7.65 -13.85 -7.45 -13.85 -7.25 -13.85 -4.35 -14.0 3.8 -14.1 6.2 -14.0 11.65 -13.75 M7.6 -16.15 L8.6 -15.8 6.2 -15.75 -10.75 -15.2 -27.2 -14.35 -29.55 -14.15 -29.55 -14.45 -28.1 -14.6 -24.45 -14.85 -4.0 -15.9 7.55 -16.15 7.6 -16.15 M22.0 4.3 L23.65 4.4 23.45 4.65 6.8 3.9 -19.1 2.05 -29.55 1.5 -29.55 1.15 -29.75 1.15 -21.85 1.6 -18.2 1.9 1.55 3.2 22.0 4.3 M21.95 -8.25 L22.25 -8.05 5.45 -8.2 -22.15 -8.6 -29.55 -8.75 -29.55 -8.95 -15.15 -8.75 18.7 -8.3 21.95 -8.25 M25.8 -2.55 L27.0 -2.55 27.25 -2.1 -18.25 -2.35 -18.85 -2.35 -29.55 -2.2 -29.55 -2.65 -25.35 -2.7 -4.8 -2.8 25.8 -2.55 M16.3 -4.7 L10.0 -4.65 -20.05 -4.35 -22.85 -4.35 -29.55 -4.35 -29.55 -4.6 -29.1 -4.6 -8.4 -4.7 10.7 -5.1 24.9 -5.3 25.25 -4.9 16.3 -4.7 M0.25 -7.3 L11.3 -7.0 23.4 -6.9 23.6 -6.7 Q18.45 -6.65 13.55 -6.75 L-1.2 -7.15 -22.65 -8.0 -24.85 -8.05 -29.55 -8.05 -29.55 -8.35 -18.35 -8.05 -15.55 -7.95 -6.35 -7.5 -4.3 -7.4 0.25 -7.3 M15.65 -12.0 L15.65 -12.1 15.55 -12.1 12.9 -12.5 4.05 -13.2 -4.1 -13.0 -4.3 -13.0 -4.45 -13.0 -5.8 -12.75 -6.8 -12.7 -6.85 -12.65 -7.1 -12.65 -8.15 -12.6 -8.5 -12.55 -8.75 -12.5 -9.6 -12.35 -10.3 -12.2 -7.1 -12.05 Q4.5 -11.75 15.65 -12.0 M19.4 -10.3 L19.7 -10.05 -1.9 -10.35 -25.3 -10.55 -29.55 -10.45 -29.55 -10.8 -17.4 -10.8 19.4 -10.3 M7.95 -13.4 L8.25 -13.4 8.7 -13.4 9.05 -13.35 9.2 -13.35 8.3 -13.3 7.95 -13.3 14.45 -12.6 Q17.35 -12.35 17.05 -11.85 L16.95 -11.75 14.7 -11.6 -6.15 -11.6 -11.85 -12.0 Q-12.8 -12.1 -12.25 -12.15 -9.0 -13.2 -2.15 -13.45 L-2.25 -13.5 -2.15 -13.55 -1.9 -13.55 -0.9 -13.6 7.95 -13.4 M6.75 -12.4 L5.75 -12.55 3.2 -12.6 -1.8 -12.55 -1.95 -12.55 -2.7 -12.45 -3.55 -12.25 Q1.7 -12.05 6.85 -12.2 L6.9 -12.25 6.85 -12.3 6.75 -12.4 M21.55 6.4 L15.4 6.15 -1.1 5.5 -25.75 4.4 -28.05 4.3 -28.25 4.25 -28.4 4.2 -28.75 4.2 -29.25 4.1 -29.4 4.05 -29.55 4.05 -29.55 3.8 -29.05 3.85 -27.9 4.05 -8.85 5.05 4.65 5.5 19.3 6.1 21.75 6.25 21.55 6.4 M24.3 0.85 L22.5 0.75 20.05 0.65 10.35 0.4 -8.2 -0.2 -29.55 -0.6 -29.55 -0.9 -17.0 -0.7 4.0 -0.15 24.3 0.55 26.8 0.65 26.6 0.95 24.3 0.85 M16.05 10.25 L1.7 9.1 Q-9.25 8.3 -21.4 8.45 L-23.65 8.5 -29.55 8.65 -29.55 8.5 -27.95 8.45 -14.6 8.05 5.75 9.0 9.65 9.25 16.85 9.8 16.05 10.25 M20.0 7.65 L11.35 7.3 -3.25 6.5 -21.0 5.95 -29.55 5.95 -29.55 5.6 -28.9 5.6 Q-18.1 5.5 -8.0 5.95 L1.25 6.45 5.5 6.75 20.25 7.45 20.0 7.65 M12.15 12.15 L9.45 12.1 -23.5 12.1 -26.3 12.1 -29.55 12.1 -29.55 11.75 -17.2 11.9 -12.6 11.95 9.4 12.0 12.5 12.05 12.15 12.15 M-11.35 16.5 L-5.55 16.85 -7.85 17.05 -17.45 16.5 -23.55 16.55 -26.2 16.7 -29.25 16.85 -29.55 16.8 -29.55 16.5 -20.9 16.1 -11.35 16.5 M-29.55 -18.15 L-29.55 -18.3 -29.45 -18.3 Q-22.75 -18.25 -16.15 -18.5 L-6.7 -18.7 -3.55 -18.75 -1.45 -18.4 -10.15 -18.3 -15.9 -18.2 -22.65 -18.15 -29.55 -18.15 M7.5 13.95 L6.75 14.2 6.4 14.3 2.65 14.3 -27.45 14.1 -28.05 14.1 -29.55 14.1 -29.55 13.65 -20.9 13.7 -0.8 13.9 7.5 13.95 M1.85 15.55 L0.85 15.75 Q-8.85 15.5 -18.65 15.7 L-29.55 15.8 -29.55 15.55 -25.6 15.55 -16.65 15.5 -8.05 15.4 -0.15 15.5 1.85 15.55 M18.65 8.6 L16.45 8.5 0.3 7.9 Q-11.75 7.5 -24.25 7.8 L-29.55 7.95 -29.55 7.7 -30.4 7.7 -13.9 7.5 Q-3.4 7.45 6.6 7.9 L18.85 8.45 18.65 8.6"
         fill="#5d3c16"
         fill-rule="evenodd"
         stroke="none"
         id="path35" />
      <path
         d="M-30.1 -10.6 L18.6 -10.6 M-31.5 7.7 L20.35 7.7"
         ffdec:has-small-stroke="true"
         ffdec:original-stroke-width="1.0"
         fill="none"
         stroke="#432a0d"
         stroke-linecap="square"
         stroke-linejoin="miter-clip"
         stroke-miterlimit="3.0"
         stroke-width="1.579480838560478"
         id="path36" />
      <path
         d="M-14.25 17.45 L-4.25 16.65 -4.25 -18.9 -14.25 -19.7 -14.25 17.45 Z"
         fill="none"
         stroke="#5d3c16"
         stroke-linecap="round"
         stroke-linejoin="round"
         stroke-width="3.0"
         id="path37" />
      <path
         d="M-4.25 -18.9 L-4.25 16.65 -14.25 17.45 -14.25 -19.7 -4.25 -18.9"
         fill="#8a5c28"
         fill-rule="evenodd"
         stroke="none"
         id="path38" />
      <path
         d="M-29.2 23.95 L-35.95 23.35 -35.95 -1.1 -35.95 -25.5 -29.2 -26.05 -29.2 -1.1 -29.2 23.95 Z"
         fill="none"
         stroke="#5d3c16"
         stroke-linecap="round"
         stroke-linejoin="round"
         stroke-width="3.0"
         id="path39" />
      <path
         d="M-29.2 23.95 L-35.95 23.35 -35.95 -1.1 -35.95 -25.5 -29.2 -26.05 -29.2 -1.1 -29.2 23.95"
         fill="#d0a067"
         fill-rule="evenodd"
         stroke="none"
         id="path40" />
      <path
         d="M-33.25 -25.75 L-32.8 -25.8 -34.5 -15.6 Q-35.15 -11.7 -35.4 -7.55 L-35.95 0.7 -35.95 -1.1 -35.95 -5.95 -35.0 -14.25 -34.75 -16.05 Q-33.85 -20.8 -33.25 -25.7 L-33.25 -25.75 M-32.15 -11.15 L-32.2 -11.05 -32.25 -10.9 -32.35 -10.65 -32.35 -10.55 -32.35 -10.35 -32.4 -10.35 -32.4 -10.25 -32.45 -10.25 -32.45 -10.05 -32.5 -10.0 -32.5 -9.9 -32.55 -9.9 -32.55 -9.7 -32.6 -9.65 -32.6 -9.55 -32.65 -9.35 -32.65 -9.25 -32.7 -9.2 -32.75 -9.1 -32.95 -8.55 -33.2 -8.1 Q-34.45 -2.7 -33.4 3.15 L-33.25 4.45 -32.55 9.9 Q-31.9 15.65 -31.5 21.65 L-31.45 23.75 -31.8 23.75 -31.85 23.0 -32.1 19.0 Q-32.6 12.05 -33.55 5.4 L-33.8 3.45 -34.1 0.7 -34.15 -0.4 -34.1 -4.4 -33.95 -5.85 -33.95 -5.95 -33.9 -6.0 -33.9 -6.05 -33.85 -6.3 -33.85 -6.4 -33.75 -7.25 -33.7 -7.55 -33.7 -7.65 -33.65 -7.75 -33.6 -7.9 -33.35 -8.75 -33.25 -9.0 -33.15 -9.2 -33.0 -9.55 -32.6 -10.75 -32.35 -11.3 Q-31.6 -15.75 -31.2 -20.65 L-30.8 -25.95 -30.55 -26.0 -30.5 -26.45 -30.65 -24.35 Q-31.15 -18.25 -31.95 -12.4 L-32.1 -11.2 -32.15 -11.15 M-31.9 -8.1 Q-31.5 -6.8 -31.5 -5.3 L-31.5 4.95 Q-31.5 5.6 -31.65 6.05 -32.3 6.35 -32.6 4.85 L-33.25 1.6 -33.25 1.8 -33.3 2.2 -33.3 2.15 -33.35 2.0 -33.35 1.75 -33.4 1.65 -33.4 1.6 -33.6 -2.75 -33.55 -3.2 -33.55 -3.3 -33.5 -3.35 -33.45 -3.3 Q-33.2 -6.7 -32.1 -8.25 -31.95 -8.55 -31.9 -8.1 M-32.5 -6.4 L-32.55 -6.25 -32.65 -5.75 -32.65 -5.65 -32.7 -5.6 -32.75 -5.1 -32.9 -4.45 -32.95 -4.35 -32.95 -4.2 -33.2 -0.3 Q-33.0 2.0 -32.4 4.05 L-32.05 5.35 -32.0 5.4 -31.95 5.4 -31.9 5.4 Q-31.65 -0.1 -31.9 -5.75 -31.95 -6.6 -32.15 -7.3 L-32.3 -7.0 -32.4 -6.55 -32.5 -6.4 M-32.1 -4.65 L-32.05 -4.5 -31.95 -4.25 Q-31.65 -1.55 -31.9 1.25 L-32.05 1.55 -32.2 1.75 -32.25 1.75 -32.3 1.65 -32.35 1.6 -32.4 1.55 -32.45 1.5 Q-32.95 0.15 -32.95 -1.75 L-32.95 -1.9 -32.9 -2.25 -32.9 -2.3 -32.85 -2.35 -32.7 -3.5 -32.55 -4.15 -32.5 -4.2 -32.45 -4.2 -32.4 -4.25 -32.4 -4.4 -32.35 -4.6 -32.3 -4.7 -32.3 -4.75 -32.25 -4.75 -32.15 -4.7 -32.1 -4.65 M-32.45 -3.25 L-32.45 -3.15 Q-32.7 -2.05 -32.6 -0.7 L-32.45 0.55 -32.35 1.05 -32.25 1.1 -32.2 1.1 -32.15 1.1 Q-31.9 -1.45 -32.2 -4.0 L-32.35 -3.6 -32.45 -3.25 M-29.6 -26.05 L-29.25 -26.1 -29.65 -23.4 Q-30.25 -19.15 -30.3 -14.7 L-30.15 -3.2 Q-29.55 9.7 -29.8 22.6 L-29.8 23.9 -30.15 23.9 -30.05 19.05 Q-29.85 13.45 -30.05 7.95 L-30.6 -10.8 Q-30.7 -16.1 -30.3 -21.05 L-29.7 -25.55 -29.6 -26.05"
         fill="#8a5c28"
         fill-rule="evenodd"
         stroke="none"
         id="path41" />
    </g>
    <g
       id="shape4"
       transform="matrix(1.0, 0.0, 0.0, 1.0, 53.75, 48.15)">
      <path
         d="M13.8 -45.6 Q15.65 -43.75 16.95 -41.2 20.2 -34.75 15.95 -30.75 L15.9 -30.7 Q14.0 -28.75 10.95 -27.85 L10.9 -27.8 6.3 -26.95 2.7 -26.15 Q1.15 -25.55 0.15 -24.35 L0.1 -24.3 Q-1.2 -22.4 0.3 -19.5 L0.3 -19.45 2.1 -16.85 3.25 -15.5 Q4.15 -14.45 4.05 -13.0 3.95 -11.55 2.9 -10.6 1.8 -9.7 0.35 -9.8 -1.05 -9.9 -2.0 -10.95 L-3.15 -12.3 -3.2 -12.4 Q-4.75 -14.25 -5.8 -16.15 L-5.85 -16.2 Q-9.8 -23.85 -5.15 -28.8 L-5.1 -28.85 Q-3.0 -31.4 0.2 -32.65 L5.3 -33.8 9.0 -34.5 9.05 -34.5 Q10.2 -34.85 10.95 -35.55 11.55 -36.5 10.75 -38.05 L10.75 -38.1 8.85 -40.7 Q7.85 -41.7 7.85 -43.15 7.85 -44.6 8.85 -45.6 9.9 -46.65 11.3 -46.65 12.75 -46.65 13.8 -45.6"
         fill="#70381f"
         fill-rule="evenodd"
         stroke="none"
         id="path42" />
      <path
         d="M13.8 -45.6 Q12.75 -46.65 11.3 -46.65 9.9 -46.65 8.85 -45.6 7.85 -44.6 7.85 -43.15 7.85 -41.7 8.85 -40.7 L10.75 -38.1 10.75 -38.05 Q11.55 -36.5 10.95 -35.55 10.2 -34.85 9.05 -34.5 L9.0 -34.5 5.3 -33.8 0.2 -32.65 Q-3.0 -31.4 -5.1 -28.85 L-5.15 -28.8 Q-9.8 -23.85 -5.85 -16.2 L-5.8 -16.15 Q-4.75 -14.25 -3.2 -12.4 L-3.15 -12.3 -2.0 -10.95 Q-1.05 -9.9 0.35 -9.8 1.8 -9.7 2.9 -10.6 3.95 -11.55 4.05 -13.0 4.15 -14.45 3.25 -15.5 L2.1 -16.85 0.3 -19.45 0.3 -19.5 Q-1.2 -22.4 0.1 -24.3 L0.15 -24.35 Q1.15 -25.55 2.7 -26.15 L6.3 -26.95 10.9 -27.8 10.95 -27.85 Q14.0 -28.75 15.9 -30.7 L15.95 -30.75 Q20.2 -34.75 16.95 -41.2 15.65 -43.75 13.8 -45.6 Z"
         ffdec:has-small-stroke="true"
         ffdec:original-stroke-width="3.0"
         fill="none"
         stroke="#3c190a"
         stroke-linecap="round"
         stroke-linejoin="round"
         stroke-width="3.697944278218758"
         id="path43" />
      <path
         d="M-41.55 9.75 Q-40.3 8.5 -34.5 8.8 L-34.15 7.95 Q-31.6 0.15 -26.55 -4.9 -21.3 -10.15 -14.45 -12.85 -7.85 -15.5 -0.25 -15.5 7.35 -15.5 14.0 -12.85 20.8 -10.15 26.05 -4.9 31.1 0.15 33.7 7.95 L33.95 8.85 Q40.2 8.45 41.55 9.75 43.3 11.5 43.4 17.35 43.5 23.35 41.55 25.3 40.25 26.6 35.65 26.5 34.4 32.8 28.3 37.0 24.5 39.7 19.0 41.3 18.05 43.25 13.6 44.7 7.9 46.65 -0.25 46.65 -8.3 46.65 -14.05 44.7 -18.5 43.25 -19.5 41.3 -24.95 39.7 -28.8 37.0 -34.85 32.8 -36.15 26.5 -40.3 26.55 -41.55 25.3 -43.45 23.35 -43.4 17.35 -43.3 11.5 -41.55 9.75 Z"
         fill="none"
         stroke="#3c190a"
         stroke-linecap="round"
         stroke-linejoin="round"
         stroke-width="6.0"
         id="path44" />
      <path
         d="M32.9 8.9 L26.0 9.75 26.0 25.3 32.75 26.3 Q39.85 26.95 41.55 25.3 43.45 23.35 43.35 17.35 43.25 11.5 41.55 9.75 40.1 8.35 32.9 8.9"
         fill="#70381f"
         fill-rule="evenodd"
         stroke="none"
         id="path45" />
      <path
         d="M-32.9 8.9 L-26.0 9.75 -26.0 25.3 -32.75 26.3 Q-39.85 26.95 -41.55 25.3 -43.45 23.35 -43.35 17.35 -43.25 11.5 -41.55 9.75 -40.1 8.35 -32.9 8.9"
         fill="#70381f"
         fill-rule="evenodd"
         stroke="none"
         id="path46" />
      <path
         d="M41.9 24.85 L41.9 23.5 Q41.8 17.65 40.05 15.9 38.65 14.5 31.45 15.05 L26.0 15.65 26.0 25.3 32.75 26.3 Q39.85 26.95 41.55 25.3 L41.9 24.85"
         fill="#bf7926"
         fill-rule="evenodd"
         stroke="none"
         id="path47" />
      <path
         d="M-31.45 15.05 L-26.0 15.65 -26.0 25.3 -32.75 26.3 Q-39.85 26.95 -41.55 25.3 L-41.9 24.85 -41.9 23.5 Q-41.8 17.65 -40.05 15.9 -38.65 14.5 -31.45 15.05"
         fill="#bf7926"
         fill-rule="evenodd"
         stroke="none"
         id="path48" />
      <path
         d="M14.05 -12.85 Q20.85 -10.15 26.1 -4.9 31.15 0.15 33.75 7.95 36.05 14.95 36.05 22.95 36.05 31.65 28.35 37.0 18.95 43.6 -0.2 43.6 -19.35 43.6 -28.75 37.0 -36.45 31.65 -36.45 22.95 -36.45 14.95 -34.15 7.95 -31.55 0.15 -26.5 -4.9 -21.25 -10.15 -14.45 -12.85 -7.8 -15.5 -0.2 -15.5 7.4 -15.5 14.05 -12.85"
         fill="#70381f"
         fill-rule="evenodd"
         stroke="none"
         id="path49" />
      <path
         d="M14.05 -12.85 Q7.4 -15.5 -0.2 -15.5 -7.8 -15.5 -14.45 -12.85 -21.25 -10.15 -26.5 -4.9 -31.55 0.15 -34.15 7.95 -36.45 14.95 -36.45 22.95 -36.45 31.65 -28.75 37.0 -19.35 43.6 -0.2 43.6 18.95 43.6 28.35 37.0 36.05 31.65 36.05 22.95 36.05 14.95 33.75 7.95 31.15 0.15 26.1 -4.9 20.85 -10.15 14.05 -12.85 Z"
         ffdec:has-small-stroke="true"
         ffdec:original-stroke-width="1.0"
         fill="none"
         stroke="#3c190a"
         stroke-linecap="round"
         stroke-linejoin="round"
         stroke-width="3.697944278218758"
         id="path50" />
      <path
         d="M-12.3 -11.6 Q-19.1 -9.05 -24.35 -4.05 -29.4 0.8 -32.0 8.2 -34.3 14.9 -34.3 22.5 -34.3 30.8 -26.6 35.9 -22.5 38.6 -16.55 40.15 -24.25 34.05 -24.25 24.2 -24.25 15.05 -21.95 7.1 -19.35 -1.75 -14.3 -7.5 -11.65 -10.55 -8.55 -12.8 L-12.3 -11.6"
         fill="#54230d"
         fill-rule="evenodd"
         stroke="none"
         id="path51" />
      <path
         d="M13.6 44.7 Q7.9 46.65 -0.2 46.65 -8.3 46.65 -14.05 44.7 -19.75 42.85 -19.75 40.15 L-19.85 39.15 -20.95 38.75 Q-24.85 37.2 -27.9 34.85 -30.8 32.65 -32.55 30.05 -30.9 28.95 -28.85 27.9 -24.75 25.8 -20.95 25.25 -17.35 24.7 -10.45 27.0 -2.9 29.5 -0.2 29.5 2.65 29.5 10.05 26.95 16.85 24.6 20.5 25.1 24.2 25.65 28.5 27.65 32.15 29.65 32.35 29.7 28.45 35.85 20.5 38.75 L19.4 39.1 19.3 40.15 Q19.3 42.85 13.6 44.7"
         fill="#a35d0d"
         fill-rule="evenodd"
         stroke="none"
         id="path52" />
      <path
         d="M17.3 33.1 Q16.45 33.95 16.45 35.2 16.45 36.4 17.3 37.3 18.2 38.15 19.4 38.15 20.65 38.15 21.5 37.3 22.4 36.4 22.4 35.2 22.4 33.95 21.5 33.1 20.65 32.2 19.4 32.2 18.2 32.2 17.3 33.1"
         fill="#000000"
         fill-rule="evenodd"
         stroke="none"
         id="path53" />
      <path
         d="M-22.0 33.1 Q-22.85 33.95 -22.85 35.2 -22.85 36.4 -22.0 37.3 -21.1 38.15 -19.9 38.15 -18.65 38.15 -17.8 37.3 -16.9 36.4 -16.9 35.2 -16.9 33.95 -17.8 33.1 -18.65 32.2 -19.9 32.2 -21.1 32.2 -22.0 33.1"
         fill="#000000"
         fill-rule="evenodd"
         stroke="none"
         id="path54" />
      <path
         d="M-1.3 34.2 Q11.5 34.65 19.15 39.15 L19.4 39.35 19.4 39.4 19.35 40.1 Q19.35 42.85 13.6 44.7 7.9 46.65 -0.25 46.65 -8.3 46.65 -14.05 44.7 -19.75 42.85 -19.75 40.1 L-19.9 39.2 -19.65 39.05 Q-11.9 34.7 -1.3 34.2"
         fill="#bf7926"
         fill-rule="evenodd"
         stroke="none"
         id="path55" />
      <path
         d="M26.25 35.7 Q22.35 39.6 16.7 39.6 11.1 39.6 7.15 35.7 3.55 32.1 3.25 26.9 L30.15 26.9 Q29.9 32.05 26.25 35.7"
         fill="#000000"
         fill-rule="evenodd"
         stroke="none"
         id="path56" />
      <path
         d="M36.0 -7.75 Q30.0 -23.7 -0.2 -23.7 -30.4 -23.7 -36.4 -7.75 -39.45 0.15 -36.45 8.1 L-39.8 4.7 Q-43.95 1.8 -47.85 4.25 -51.75 6.7 -50.4 15.4 -49.7 19.75 -48.25 23.55 1.0 33.45 47.85 23.55 49.3 19.75 50.0 15.4 51.35 6.7 47.45 4.25 43.55 1.8 39.45 4.7 L36.05 8.1 Q39.1 0.15 36.0 -7.75 Z"
         fill="none"
         stroke="#000000"
         stroke-linecap="round"
         stroke-linejoin="round"
         stroke-width="6.0"
         id="path57" />
      <path
         d="M36.0 -7.75 Q39.1 0.15 36.05 8.1 L39.45 4.7 Q43.55 1.8 47.45 4.25 51.35 6.7 50.0 15.4 49.3 19.75 47.85 23.55 1.0 33.45 -48.25 23.55 -49.7 19.75 -50.4 15.4 -51.75 6.7 -47.85 4.25 -43.95 1.8 -39.8 4.7 L-36.45 8.1 Q-39.45 0.15 -36.4 -7.75 -30.4 -23.7 -0.2 -23.7 30.0 -23.7 36.0 -7.75"
         fill="#1c1e27"
         fill-rule="evenodd"
         stroke="none"
         id="path58" />
      <path
         d="M48.55 8.65 Q49.6 9.2 50.3 10.15 50.45 12.4 50.0 15.4 49.3 19.75 47.85 23.55 32.9 26.7 17.7 27.9 L20.9 27.75 Q0.4 29.2 -20.55 27.75 L-17.25 27.9 Q-32.65 26.7 -48.25 23.55 -49.7 19.75 -50.4 15.4 -50.85 12.4 -50.7 10.2 -50.0 9.2 -48.9 8.65 -44.9 6.7 -40.65 9.05 L-37.25 11.8 Q-40.35 5.35 -37.2 -1.15 -31.05 -14.15 -0.2 -14.15 30.7 -14.15 36.85 -1.15 40.0 5.35 36.9 11.8 L40.35 9.05 Q44.55 6.7 48.55 8.65"
         fill="#40444f"
         fill-rule="evenodd"
         stroke="none"
         id="path59" />
      <path
         d="M17.6 3.0 L17.25 5.6 16.9 6.9 Q15.6 11.05 11.95 15.95 L6.7 15.95 7.35 18.45 1.5 18.45 1.6 15.95 -0.65 15.95 -0.6 18.45 -6.45 18.45 -5.95 15.95 -11.35 15.95 Q-15.1 11.3 -16.35 7.0 L-16.7 5.6 -17.05 3.05 Q-17.6 -8.25 0.3 -8.25 18.1 -8.25 17.6 3.0 M-0.05 10.6 L-1.5 13.0 1.55 13.0 -0.05 10.6 M-3.25 9.4 Q-3.45 7.4 -5.2 5.95 -7.2 4.35 -9.75 4.4 -12.35 4.35 -13.8 5.95 -15.15 7.4 -14.55 9.4 -14.05 11.25 -12.15 12.45 -10.35 13.55 -8.15 13.55 -6.0 13.55 -4.6 12.45 -3.15 11.25 -3.25 9.4 M15.4 9.4 Q15.95 7.4 14.65 5.95 13.2 4.35 10.65 4.4 8.1 4.35 6.1 5.95 4.25 7.4 4.15 9.4 3.95 11.25 5.4 12.45 6.85 13.55 9.05 13.55 11.2 13.55 13.0 12.45 14.85 11.25 15.4 9.4"
         fill="#ffffff"
         fill-rule="evenodd"
         stroke="none"
         id="path60" />
      <path
         d="M15.4 9.4 Q14.85 11.25 13.0 12.45 11.2 13.55 9.05 13.55 6.85 13.55 5.4 12.45 3.95 11.25 4.15 9.4 4.25 7.4 6.1 5.95 8.1 4.35 10.65 4.4 13.2 4.35 14.65 5.95 15.95 7.4 15.4 9.4 M-3.25 9.4 Q-3.15 11.25 -4.6 12.45 -6.0 13.55 -8.15 13.55 -10.35 13.55 -12.15 12.45 -14.05 11.25 -14.55 9.4 -15.15 7.4 -13.8 5.95 -12.35 4.35 -9.75 4.4 -7.2 4.35 -5.2 5.95 -3.45 7.4 -3.25 9.4 M-0.05 10.6 L1.55 13.0 -1.5 13.0 -0.05 10.6"
         fill="#40444f"
         fill-rule="evenodd"
         stroke="none"
         id="path61" />
    </g>
    <g
       id="sprite2"
       transform="matrix(1.0, 0.0, 0.0, 1.0, 0.0, 0.0)">
      <use
         ffdec:characterId="5057"
         height="31.1"
         transform="matrix(1.0, 0.0, 0.0, 1.0, 0.0, 0.0)"
         width="19.35"
         xlink:href="#shape5"
         id="use61" />
    </g>
    <g
       id="shape5"
       transform="matrix(1.0, 0.0, 0.0, 1.0, 0.0, 0.0)">
      <path
         d="M7.1 23.35 L9.65 22.45 10.2 22.45 Q10.9 22.65 11.2 22.95 L12.15 23.8 12.7 24.5 12.7 29.6 Q12.7 30.15 12.1 30.45 10.75 31.1 8.05 31.1 7.15 31.1 6.05 29.7 5.0 28.4 5.0 27.35 5.0 26.1 5.3 25.3 5.75 24.05 7.1 23.35 M10.65 10.2 Q10.95 6.7 11.7 5.1 L11.2 5.1 9.3 6.2 6.65 7.95 Q3.15 10.3 2.25 10.3 1.3 10.3 0.6 8.8 0.0 7.5 0.0 6.4 L0.0 6.15 Q0.15 5.45 0.45 5.1 L2.95 1.95 Q4.85 0.0 6.45 0.0 L7.6 0.0 9.45 0.1 12.2 0.25 16.8 0.5 Q17.8 1.2 18.6 2.75 19.35 4.3 19.35 5.6 L19.35 6.15 18.6 9.2 17.8 12.3 Q17.55 13.45 15.95 14.0 L13.25 14.8 12.45 15.1 11.95 15.35 11.95 18.9 11.5 19.1 9.8 19.6 6.6 20.45 5.55 20.5 5.55 15.8 10.65 10.2"
         fill="#cccccc"
         fill-rule="evenodd"
         stroke="none"
         id="path62" />
    </g>
  </defs>
</svg>
