<?xml version="1.0" encoding="UTF-8" standalone="no"?>
<svg
   ffdec:objectType="frame"
   height="100.55px"
   width="99.1px"
   version="1.1"
   id="svg19"
   sodipodi:docname="1.svg"
   inkscape:version="1.4.2 (f4327f4, 2025-05-13)"
   xmlns:inkscape="http://www.inkscape.org/namespaces/inkscape"
   xmlns:sodipodi="http://sodipodi.sourceforge.net/DTD/sodipodi-0.dtd"
   xmlns="http://www.w3.org/2000/svg"
   xmlns:svg="http://www.w3.org/2000/svg"
   xmlns:ffdec="https://www.free-decompiler.com/flash">
  <sodipodi:namedview
     id="namedview19"
     pagecolor="#505050"
     bordercolor="#eeeeee"
     borderopacity="1"
     inkscape:showpageshadow="0"
     inkscape:pageopacity="0"
     inkscape:pagecheckerboard="0"
     inkscape:deskcolor="#505050"
     inkscape:zoom="11.606166"
     inkscape:cx="49.585713"
     inkscape:cy="50.275002"
     inkscape:window-width="2560"
     inkscape:window-height="1369"
     inkscape:window-x="-8"
     inkscape:window-y="-8"
     inkscape:window-maximized="1"
     inkscape:current-layer="svg19" />
  <g
     transform="matrix(1.0, 0.0, 0.0, 1.0, 49.55, 49.55)"
     id="g7">
    <g
       id="use1"
       transform="matrix(0.7216,0,0,0.7215,5.2e-4,8e-4)">
      <path
         d="m 22.45,-22.5 q -9.3,-9.3 -22.45,-9.3 -13.15,0 -22.5,9.3 -9.3,9.35 -9.3,22.5 0,13.15 9.3,22.45 9.35,9.35 22.5,9.35 13.15,0 22.45,-9.35 9.35,-9.3 9.35,-22.45 0,-13.15 -9.35,-22.5 m 6.65,-6.65 Q 41.2,-17.05 41.2,0 41.2,17 29.1,29.05 17.05,41.2 0,41.2 -17,41.2 -29.15,29.05 -41.2,17 -41.2,0 q 0,-17.05 12.05,-29.15 Q -17,-41.2 0,-41.2 q 17.05,0 29.1,12.05"
         fill="#ffffff"
         fill-opacity="0.498039"
         fill-rule="evenodd"
         stroke="none"
         id="path20" />
      <path
         d="m 22.45,-22.5 q 9.35,9.35 9.35,22.5 0,13.15 -9.35,22.45 -9.3,9.35 -22.45,9.35 -13.15,0 -22.5,-9.35 -9.3,-9.3 -9.3,-22.45 0,-13.15 9.3,-22.5 9.35,-9.3 22.5,-9.3 13.15,0 22.45,9.3"
         fill="#d0f3ff"
         fill-opacity="0.498039"
         fill-rule="evenodd"
         stroke="none"
         id="path21" />
    </g>
    <g
       id="use2"
       transform="matrix(0.4389,0,0,0.4388,6.200125,-2.15034)">
      <path
         d="m 5.85,-7.3 q -0.55,0 -1,0.4 L 1.4,-3.4 v -4.9 l -0.45,-1 q -0.4,-0.4 -1,-0.4 -0.55,0 -1,0.4 l -0.4,1 v 4.9 l -3.5,-3.5 q -0.4,-0.4 -0.95,-0.4 -0.6,0 -1,0.4 l -0.45,1 0.45,1 3.45,3.45 h -4.9 q -0.55,0 -0.95,0.45 -0.45,0.4 -0.45,1 0,0.55 0.45,1 0.4,0.4 0.95,0.4 h 4.9 l -3.45,3.5 -0.45,1 q 0,0.55 0.45,0.95 0.4,0.45 1,0.45 l 0.95,-0.35 3.5,-3.5 V 8.3 q 0,0.55 0.4,1 0.45,0.4 1,0.4 0.6,0 1,-0.4 L 1.4,8.3 V 3.4 l 3.45,3.45 q 0.45,0.45 1,0.45 0.55,0 1,-0.45 0.4,-0.4 0.4,-0.95 0,-0.6 -0.4,-1 L 3.35,1.4 h 4.9 q 0.6,0 1,-0.4 L 9.7,0 q 0,-0.6 -0.45,-1 -0.4,-0.45 -1,-0.45 h -4.8 l 3.4,-3.4 q 0.4,-0.5 0.4,-1.05 L 6.9,-6.9 Q 6.4,-7.3 5.85,-7.3 Z"
         fill="none"
         stroke="#5fd6ff"
         stroke-linecap="round"
         stroke-linejoin="round"
         stroke-width="5"
         id="path22" />
      <path
         d="m 5.85,-7.3 q 0.55,0 1.05,0.4 l 0.35,1 q 0,0.55 -0.4,1.05 l -3.4,3.4 h 4.8 q 0.6,0 1,0.45 0.45,0.4 0.45,1 L 9.25,1 q -0.4,0.4 -1,0.4 h -4.9 l 3.5,3.5 q 0.4,0.4 0.4,1 0,0.55 -0.4,0.95 -0.45,0.45 -1,0.45 -0.55,0 -1,-0.45 L 1.4,3.4 v 4.9 l -0.45,1 q -0.4,0.4 -1,0.4 -0.55,0 -1,-0.4 -0.4,-0.45 -0.4,-1 V 3.45 l -3.5,3.5 -0.95,0.35 q -0.6,0 -1,-0.45 -0.45,-0.4 -0.45,-0.95 l 0.45,-1 3.45,-3.5 h -4.9 Q -8.9,1.4 -9.3,1 -9.75,0.55 -9.75,0 q 0,-0.6 0.45,-1 0.4,-0.45 0.95,-0.45 h 4.9 l -3.45,-3.45 -0.45,-1 0.45,-1 q 0.4,-0.4 1,-0.4 0.55,0 0.95,0.4 l 3.5,3.5 v -4.9 l 0.4,-1 q 0.45,-0.4 1,-0.4 0.6,0 1,0.4 l 0.45,1 v 4.9 l 3.45,-3.5 q 0.45,-0.4 1,-0.4"
         fill="#ffffff"
         fill-rule="evenodd"
         stroke="none"
         id="path23" />
    </g>
    <g
       id="use3"
       transform="matrix(0.4896,0,0,0.4896,0.24966,5.25036)">
      <path
         d="M -3.85,5.35 0.05,1.45 3.9,5.3 4.6,5.6 Q 5,5.6 5.3,5.3 L 5.6,4.6 5.3,3.9 1.45,0.05 l 3.9,-3.9 0.3,-0.7 -0.3,-0.7 -0.7,-0.3 -0.7,0.3 -3.9,3.9 -3.95,-3.95 -0.7,-0.3 q -0.4,0 -0.7,0.3 l -0.3,0.7 0.3,0.7 3.95,3.95 -3.9,3.9 -0.3,0.7 0.3,0.7 0.7,0.3 q 0.4,0 0.7,-0.3 z"
         fill="none"
         stroke="#5fd6ff"
         stroke-linecap="round"
         stroke-linejoin="round"
         stroke-width="6"
         id="path24" />
      <path
         d="m -3.85,5.35 q -0.3,0.3 -0.7,0.3 l -0.7,-0.3 -0.3,-0.7 0.3,-0.7 3.9,-3.9 -3.95,-3.95 -0.3,-0.7 0.3,-0.7 q 0.3,-0.3 0.7,-0.3 l 0.7,0.3 3.95,3.95 3.9,-3.9 0.7,-0.3 0.7,0.3 0.3,0.7 -0.3,0.7 -3.9,3.9 L 5.3,3.9 5.6,4.6 5.3,5.3 Q 5,5.6 4.6,5.6 L 3.9,5.3 0.05,1.45 l -3.9,3.9"
         fill="#ffffff"
         fill-rule="evenodd"
         stroke="none"
         id="path25" />
      <path
         d="M -3.85,5.35 0.05,1.45 3.9,5.3 4.6,5.6 Q 5,5.6 5.3,5.3 L 5.6,4.6 5.3,3.9 1.45,0.05 l 3.9,-3.9 0.3,-0.7 -0.3,-0.7 -0.7,-0.3 -0.7,0.3 -3.9,3.9 -3.95,-3.95 -0.7,-0.3 q -0.4,0 -0.7,0.3 l -0.3,0.7 0.3,0.7 3.95,3.95 -3.9,3.9 -0.3,0.7 0.3,0.7 0.7,0.3 q 0.4,0 0.7,-0.3 z"
         ffdec:has-small-stroke="true"
         ffdec:original-stroke-width="1.0"
         fill="none"
         stroke="#ffffff"
         stroke-linecap="round"
         stroke-linejoin="round"
         stroke-width="2.04248"
         id="path26" />
    </g>
    <g
       id="use4"
       transform="matrix(0.4389,0,0,0.4388,2.300125,0.19966)">
      <path
         d="m 5.85,-7.3 q -0.55,0 -1,0.4 L 1.4,-3.4 v -4.9 l -0.45,-1 q -0.4,-0.4 -1,-0.4 -0.55,0 -1,0.4 l -0.4,1 v 4.9 l -3.5,-3.5 q -0.4,-0.4 -0.95,-0.4 -0.6,0 -1,0.4 l -0.45,1 0.45,1 3.45,3.45 h -4.9 q -0.55,0 -0.95,0.45 -0.45,0.4 -0.45,1 0,0.55 0.45,1 0.4,0.4 0.95,0.4 h 4.9 l -3.45,3.5 -0.45,1 q 0,0.55 0.45,0.95 0.4,0.45 1,0.45 l 0.95,-0.35 3.5,-3.5 V 8.3 q 0,0.55 0.4,1 0.45,0.4 1,0.4 0.6,0 1,-0.4 L 1.4,8.3 V 3.4 l 3.45,3.45 q 0.45,0.45 1,0.45 0.55,0 1,-0.45 0.4,-0.4 0.4,-0.95 0,-0.6 -0.4,-1 L 3.35,1.4 h 4.9 q 0.6,0 1,-0.4 L 9.7,0 q 0,-0.6 -0.45,-1 -0.4,-0.45 -1,-0.45 h -4.8 l 3.4,-3.4 q 0.4,-0.5 0.4,-1.05 L 6.9,-6.9 Q 6.4,-7.3 5.85,-7.3 Z"
         fill="none"
         stroke="#5fd6ff"
         stroke-linecap="round"
         stroke-linejoin="round"
         stroke-width="5"
         id="path27" />
      <path
         d="m 5.85,-7.3 q 0.55,0 1.05,0.4 l 0.35,1 q 0,0.55 -0.4,1.05 l -3.4,3.4 h 4.8 q 0.6,0 1,0.45 0.45,0.4 0.45,1 L 9.25,1 q -0.4,0.4 -1,0.4 h -4.9 l 3.5,3.5 q 0.4,0.4 0.4,1 0,0.55 -0.4,0.95 -0.45,0.45 -1,0.45 -0.55,0 -1,-0.45 L 1.4,3.4 v 4.9 l -0.45,1 q -0.4,0.4 -1,0.4 -0.55,0 -1,-0.4 -0.4,-0.45 -0.4,-1 V 3.45 l -3.5,3.5 -0.95,0.35 q -0.6,0 -1,-0.45 -0.45,-0.4 -0.45,-0.95 l 0.45,-1 3.45,-3.5 h -4.9 Q -8.9,1.4 -9.3,1 -9.75,0.55 -9.75,0 q 0,-0.6 0.45,-1 0.4,-0.45 0.95,-0.45 h 4.9 l -3.45,-3.45 -0.45,-1 0.45,-1 q 0.4,-0.4 1,-0.4 0.55,0 0.95,0.4 l 3.5,3.5 v -4.9 l 0.4,-1 q 0.45,-0.4 1,-0.4 0.6,0 1,0.4 l 0.45,1 v 4.9 l 3.45,-3.5 q 0.45,-0.4 1,-0.4"
         fill="#ffffff"
         fill-rule="evenodd"
         stroke="none"
         id="path28" />
    </g>
    <g
       id="use5"
       transform="matrix(0.4389,0,0,0.4388,-5.849875,1.89966)">
      <path
         d="m 5.85,-7.3 q -0.55,0 -1,0.4 L 1.4,-3.4 v -4.9 l -0.45,-1 q -0.4,-0.4 -1,-0.4 -0.55,0 -1,0.4 l -0.4,1 v 4.9 l -3.5,-3.5 q -0.4,-0.4 -0.95,-0.4 -0.6,0 -1,0.4 l -0.45,1 0.45,1 3.45,3.45 h -4.9 q -0.55,0 -0.95,0.45 -0.45,0.4 -0.45,1 0,0.55 0.45,1 0.4,0.4 0.95,0.4 h 4.9 l -3.45,3.5 -0.45,1 q 0,0.55 0.45,0.95 0.4,0.45 1,0.45 l 0.95,-0.35 3.5,-3.5 V 8.3 q 0,0.55 0.4,1 0.45,0.4 1,0.4 0.6,0 1,-0.4 L 1.4,8.3 V 3.4 l 3.45,3.45 q 0.45,0.45 1,0.45 0.55,0 1,-0.45 0.4,-0.4 0.4,-0.95 0,-0.6 -0.4,-1 L 3.35,1.4 h 4.9 q 0.6,0 1,-0.4 L 9.7,0 q 0,-0.6 -0.45,-1 -0.4,-0.45 -1,-0.45 h -4.8 l 3.4,-3.4 q 0.4,-0.5 0.4,-1.05 L 6.9,-6.9 Q 6.4,-7.3 5.85,-7.3 Z"
         fill="none"
         stroke="#5fd6ff"
         stroke-linecap="round"
         stroke-linejoin="round"
         stroke-width="5"
         id="path29" />
      <path
         d="m 5.85,-7.3 q 0.55,0 1.05,0.4 l 0.35,1 q 0,0.55 -0.4,1.05 l -3.4,3.4 h 4.8 q 0.6,0 1,0.45 0.45,0.4 0.45,1 L 9.25,1 q -0.4,0.4 -1,0.4 h -4.9 l 3.5,3.5 q 0.4,0.4 0.4,1 0,0.55 -0.4,0.95 -0.45,0.45 -1,0.45 -0.55,0 -1,-0.45 L 1.4,3.4 v 4.9 l -0.45,1 q -0.4,0.4 -1,0.4 -0.55,0 -1,-0.4 -0.4,-0.45 -0.4,-1 V 3.45 l -3.5,3.5 -0.95,0.35 q -0.6,0 -1,-0.45 -0.45,-0.4 -0.45,-0.95 l 0.45,-1 3.45,-3.5 h -4.9 Q -8.9,1.4 -9.3,1 -9.75,0.55 -9.75,0 q 0,-0.6 0.45,-1 0.4,-0.45 0.95,-0.45 h 4.9 l -3.45,-3.45 -0.45,-1 0.45,-1 q 0.4,-0.4 1,-0.4 0.55,0 0.95,0.4 l 3.5,3.5 v -4.9 l 0.4,-1 q 0.45,-0.4 1,-0.4 0.6,0 1,0.4 l 0.45,1 v 4.9 l 3.45,-3.5 q 0.45,-0.4 1,-0.4"
         fill="#ffffff"
         fill-rule="evenodd"
         stroke="none"
         id="path30" />
    </g>
    <g
       id="use6"
       transform="matrix(0.4896,0,0,0.4896,-5.90034,-3.94964)">
      <path
         d="M -3.85,5.35 0.05,1.45 3.9,5.3 4.6,5.6 Q 5,5.6 5.3,5.3 L 5.6,4.6 5.3,3.9 1.45,0.05 l 3.9,-3.9 0.3,-0.7 -0.3,-0.7 -0.7,-0.3 -0.7,0.3 -3.9,3.9 -3.95,-3.95 -0.7,-0.3 q -0.4,0 -0.7,0.3 l -0.3,0.7 0.3,0.7 3.95,3.95 -3.9,3.9 -0.3,0.7 0.3,0.7 0.7,0.3 q 0.4,0 0.7,-0.3 z"
         fill="none"
         stroke="#5fd6ff"
         stroke-linecap="round"
         stroke-linejoin="round"
         stroke-width="6"
         id="path31" />
      <path
         d="m -3.85,5.35 q -0.3,0.3 -0.7,0.3 l -0.7,-0.3 -0.3,-0.7 0.3,-0.7 3.9,-3.9 -3.95,-3.95 -0.3,-0.7 0.3,-0.7 q 0.3,-0.3 0.7,-0.3 l 0.7,0.3 3.95,3.95 3.9,-3.9 0.7,-0.3 0.7,0.3 0.3,0.7 -0.3,0.7 -3.9,3.9 L 5.3,3.9 5.6,4.6 5.3,5.3 Q 5,5.6 4.6,5.6 L 3.9,5.3 0.05,1.45 l -3.9,3.9"
         fill="#ffffff"
         fill-rule="evenodd"
         stroke="none"
         id="path32" />
      <path
         d="M -3.85,5.35 0.05,1.45 3.9,5.3 4.6,5.6 Q 5,5.6 5.3,5.3 L 5.6,4.6 5.3,3.9 1.45,0.05 l 3.9,-3.9 0.3,-0.7 -0.3,-0.7 -0.7,-0.3 -0.7,0.3 -3.9,3.9 -3.95,-3.95 -0.7,-0.3 q -0.4,0 -0.7,0.3 l -0.3,0.7 0.3,0.7 3.95,3.95 -3.9,3.9 -0.3,0.7 0.3,0.7 0.7,0.3 q 0.4,0 0.7,-0.3 z"
         ffdec:has-small-stroke="true"
         ffdec:original-stroke-width="1.0"
         fill="none"
         stroke="#ffffff"
         stroke-linecap="round"
         stroke-linejoin="round"
         stroke-width="2.04248"
         id="path33" />
    </g>
    <g
       id="use7"
       transform="matrix(0.4896,0,0,0.4896,1.44966,-7.59964)">
      <path
         d="M -3.85,5.35 0.05,1.45 3.9,5.3 4.6,5.6 Q 5,5.6 5.3,5.3 L 5.6,4.6 5.3,3.9 1.45,0.05 l 3.9,-3.9 0.3,-0.7 -0.3,-0.7 -0.7,-0.3 -0.7,0.3 -3.9,3.9 -3.95,-3.95 -0.7,-0.3 q -0.4,0 -0.7,0.3 l -0.3,0.7 0.3,0.7 3.95,3.95 -3.9,3.9 -0.3,0.7 0.3,0.7 0.7,0.3 q 0.4,0 0.7,-0.3 z"
         fill="none"
         stroke="#5fd6ff"
         stroke-linecap="round"
         stroke-linejoin="round"
         stroke-width="6"
         id="path34" />
      <path
         d="m -3.85,5.35 q -0.3,0.3 -0.7,0.3 l -0.7,-0.3 -0.3,-0.7 0.3,-0.7 3.9,-3.9 -3.95,-3.95 -0.3,-0.7 0.3,-0.7 q 0.3,-0.3 0.7,-0.3 l 0.7,0.3 3.95,3.95 3.9,-3.9 0.7,-0.3 0.7,0.3 0.3,0.7 -0.3,0.7 -3.9,3.9 L 5.3,3.9 5.6,4.6 5.3,5.3 Q 5,5.6 4.6,5.6 L 3.9,5.3 0.05,1.45 l -3.9,3.9"
         fill="#ffffff"
         fill-rule="evenodd"
         stroke="none"
         id="path35" />
      <path
         d="M -3.85,5.35 0.05,1.45 3.9,5.3 4.6,5.6 Q 5,5.6 5.3,5.3 L 5.6,4.6 5.3,3.9 1.45,0.05 l 3.9,-3.9 0.3,-0.7 -0.3,-0.7 -0.7,-0.3 -0.7,0.3 -3.9,3.9 -3.95,-3.95 -0.7,-0.3 q -0.4,0 -0.7,0.3 l -0.3,0.7 0.3,0.7 3.95,3.95 -3.9,3.9 -0.3,0.7 0.3,0.7 0.7,0.3 q 0.4,0 0.7,-0.3 z"
         ffdec:has-small-stroke="true"
         ffdec:original-stroke-width="1.0"
         fill="none"
         stroke="#ffffff"
         stroke-linecap="round"
         stroke-linejoin="round"
         stroke-width="2.04248"
         id="path36" />
    </g>
  </g>
  <defs
     id="defs19">
    <g
       id="shape0"
       transform="matrix(1.0, 0.0, 0.0, 1.0, 41.2, 41.2)">
      <path
         d="M22.45 -22.5 Q13.15 -31.8 0.0 -31.8 -13.15 -31.8 -22.5 -22.5 -31.8 -13.15 -31.8 0.0 -31.8 13.15 -22.5 22.45 -13.15 31.8 0.0 31.8 13.15 31.8 22.45 22.45 31.8 13.15 31.8 0.0 31.8 -13.15 22.45 -22.5 M29.1 -29.15 Q41.2 -17.05 41.2 0.0 41.2 17.0 29.1 29.05 17.05 41.2 0.0 41.2 -17.0 41.2 -29.15 29.05 -41.2 17.0 -41.2 0.0 -41.2 -17.05 -29.15 -29.15 -17.0 -41.2 0.0 -41.2 17.05 -41.2 29.1 -29.15"
         fill="#ffffff"
         fill-opacity="0.49803922"
         fill-rule="evenodd"
         stroke="none"
         id="path7" />
      <path
         d="M22.45 -22.5 Q31.8 -13.15 31.8 0.0 31.8 13.15 22.45 22.45 13.15 31.8 0.0 31.8 -13.15 31.8 -22.5 22.45 -31.8 13.15 -31.8 0.0 -31.8 -13.15 -22.5 -22.5 -13.15 -31.8 0.0 -31.8 13.15 -31.8 22.45 -22.5"
         fill="#d0f3ff"
         fill-opacity="0.49803922"
         fill-rule="evenodd"
         stroke="none"
         id="path8" />
    </g>
    <g
       id="shape1"
       transform="matrix(1.0, 0.0, 0.0, 1.0, 12.25, 12.2)">
      <path
         d="M5.85 -7.3 Q5.3 -7.3 4.85 -6.9 L1.4 -3.4 1.4 -8.3 0.95 -9.3 Q0.55 -9.7 -0.05 -9.7 -0.6 -9.7 -1.05 -9.3 L-1.45 -8.3 -1.45 -3.4 -4.95 -6.9 Q-5.35 -7.3 -5.9 -7.3 -6.5 -7.3 -6.9 -6.9 L-7.35 -5.9 -6.9 -4.9 -3.45 -1.45 -8.35 -1.45 Q-8.9 -1.45 -9.3 -1.0 -9.75 -0.6 -9.75 0.0 -9.75 0.55 -9.3 1.0 -8.9 1.4 -8.35 1.4 L-3.45 1.4 -6.9 4.9 -7.35 5.9 Q-7.35 6.45 -6.9 6.85 -6.5 7.3 -5.9 7.3 L-4.95 6.95 -1.45 3.45 -1.45 8.3 Q-1.45 8.85 -1.05 9.3 -0.6 9.7 -0.05 9.7 0.55 9.7 0.95 9.3 L1.4 8.3 1.4 3.4 4.85 6.85 Q5.3 7.3 5.85 7.3 6.4 7.3 6.85 6.85 7.25 6.45 7.25 5.9 7.25 5.3 6.85 4.9 L3.35 1.4 8.25 1.4 Q8.85 1.4 9.25 1.0 L9.7 0.0 Q9.7 -0.6 9.25 -1.0 8.85 -1.45 8.25 -1.45 L3.45 -1.45 6.85 -4.85 Q7.25 -5.35 7.25 -5.9 L6.9 -6.9 Q6.4 -7.3 5.85 -7.3 Z"
         fill="none"
         stroke="#5fd6ff"
         stroke-linecap="round"
         stroke-linejoin="round"
         stroke-width="5.0"
         id="path9" />
      <path
         d="M5.85 -7.3 Q6.4 -7.3 6.9 -6.9 L7.25 -5.9 Q7.25 -5.35 6.85 -4.85 L3.45 -1.45 8.25 -1.45 Q8.85 -1.45 9.25 -1.0 9.7 -0.6 9.7 0.0 L9.25 1.0 Q8.85 1.4 8.25 1.4 L3.35 1.4 6.85 4.9 Q7.25 5.3 7.25 5.9 7.25 6.45 6.85 6.85 6.4 7.3 5.85 7.3 5.3 7.3 4.85 6.85 L1.4 3.4 1.4 8.3 0.95 9.3 Q0.55 9.7 -0.05 9.7 -0.6 9.7 -1.05 9.3 -1.45 8.85 -1.45 8.3 L-1.45 3.45 -4.95 6.95 -5.9 7.3 Q-6.5 7.3 -6.9 6.85 -7.35 6.45 -7.35 5.9 L-6.9 4.9 -3.45 1.4 -8.35 1.4 Q-8.9 1.4 -9.3 1.0 -9.75 0.55 -9.75 0.0 -9.75 -0.6 -9.3 -1.0 -8.9 -1.45 -8.35 -1.45 L-3.45 -1.45 -6.9 -4.9 -7.35 -5.9 -6.9 -6.9 Q-6.5 -7.3 -5.9 -7.3 -5.35 -7.3 -4.95 -6.9 L-1.45 -3.4 -1.45 -8.3 -1.05 -9.3 Q-0.6 -9.7 -0.05 -9.7 0.55 -9.7 0.95 -9.3 L1.4 -8.3 1.4 -3.4 4.85 -6.9 Q5.3 -7.3 5.85 -7.3"
         fill="#ffffff"
         fill-rule="evenodd"
         stroke="none"
         id="path10" />
    </g>
    <g
       id="shape2"
       transform="matrix(1.0, 0.0, 0.0, 1.0, 8.6, 8.6)">
      <path
         d="M-3.85 5.35 L0.05 1.45 3.9 5.3 4.6 5.6 Q5.0 5.6 5.3 5.3 L5.6 4.6 5.3 3.9 1.45 0.05 5.35 -3.85 5.65 -4.55 5.35 -5.25 4.65 -5.55 3.95 -5.25 0.05 -1.35 -3.9 -5.3 -4.6 -5.6 Q-5.0 -5.6 -5.3 -5.3 L-5.6 -4.6 -5.3 -3.9 -1.35 0.05 -5.25 3.95 -5.55 4.65 -5.25 5.35 -4.55 5.65 Q-4.15 5.65 -3.85 5.35 Z"
         fill="none"
         stroke="#5fd6ff"
         stroke-linecap="round"
         stroke-linejoin="round"
         stroke-width="6.0"
         id="path11" />
      <path
         d="M-3.85 5.35 Q-4.15 5.65 -4.55 5.65 L-5.25 5.35 -5.55 4.65 -5.25 3.95 -1.35 0.05 -5.3 -3.9 -5.6 -4.6 -5.3 -5.3 Q-5.0 -5.6 -4.6 -5.6 L-3.9 -5.3 0.05 -1.35 3.95 -5.25 4.65 -5.55 5.35 -5.25 5.65 -4.55 5.35 -3.85 1.45 0.05 5.3 3.9 5.6 4.6 5.3 5.3 Q5.0 5.6 4.6 5.6 L3.9 5.3 0.05 1.45 -3.85 5.35"
         fill="#ffffff"
         fill-rule="evenodd"
         stroke="none"
         id="path12" />
      <path
         d="M-3.85 5.35 L0.05 1.45 3.9 5.3 4.6 5.6 Q5.0 5.6 5.3 5.3 L5.6 4.6 5.3 3.9 1.45 0.05 5.35 -3.85 5.65 -4.55 5.35 -5.25 4.65 -5.55 3.95 -5.25 0.05 -1.35 -3.9 -5.3 -4.6 -5.6 Q-5.0 -5.6 -5.3 -5.3 L-5.6 -4.6 -5.3 -3.9 -1.35 0.05 -5.25 3.95 -5.55 4.65 -5.25 5.35 -4.55 5.65 Q-4.15 5.65 -3.85 5.35 Z"
         ffdec:has-small-stroke="true"
         ffdec:original-stroke-width="1.0"
         fill="none"
         stroke="#ffffff"
         stroke-linecap="round"
         stroke-linejoin="round"
         stroke-width="2.042478917958546"
         id="path13" />
    </g>
    <g
       id="shape3"
       transform="matrix(1.0, 0.0, 0.0, 1.0, 8.6, 8.6)">
      <path
         d="M-3.85 5.35 L0.05 1.45 3.9 5.3 4.6 5.6 Q5.0 5.6 5.3 5.3 L5.6 4.6 5.3 3.9 1.45 0.05 5.35 -3.85 5.65 -4.55 5.35 -5.25 4.65 -5.55 3.95 -5.25 0.05 -1.35 -3.9 -5.3 -4.6 -5.6 Q-5.0 -5.6 -5.3 -5.3 L-5.6 -4.6 -5.3 -3.9 -1.35 0.05 -5.25 3.95 -5.55 4.65 -5.25 5.35 -4.55 5.65 Q-4.15 5.65 -3.85 5.35 Z"
         fill="none"
         stroke="#5fd6ff"
         stroke-linecap="round"
         stroke-linejoin="round"
         stroke-width="6.0"
         id="path14" />
      <path
         d="M-3.85 5.35 Q-4.15 5.65 -4.55 5.65 L-5.25 5.35 -5.55 4.65 -5.25 3.95 -1.35 0.05 -5.3 -3.9 -5.6 -4.6 -5.3 -5.3 Q-5.0 -5.6 -4.6 -5.6 L-3.9 -5.3 0.05 -1.35 3.95 -5.25 4.65 -5.55 5.35 -5.25 5.65 -4.55 5.35 -3.85 1.45 0.05 5.3 3.9 5.6 4.6 5.3 5.3 Q5.0 5.6 4.6 5.6 L3.9 5.3 0.05 1.45 -3.85 5.35"
         fill="#ffffff"
         fill-rule="evenodd"
         stroke="none"
         id="path15" />
      <path
         d="M-3.85 5.35 L0.05 1.45 3.9 5.3 4.6 5.6 Q5.0 5.6 5.3 5.3 L5.6 4.6 5.3 3.9 1.45 0.05 5.35 -3.85 5.65 -4.55 5.35 -5.25 4.65 -5.55 3.95 -5.25 0.05 -1.35 -3.9 -5.3 -4.6 -5.6 Q-5.0 -5.6 -5.3 -5.3 L-5.6 -4.6 -5.3 -3.9 -1.35 0.05 -5.25 3.95 -5.55 4.65 -5.25 5.35 -4.55 5.65 Q-4.15 5.65 -3.85 5.35 Z"
         ffdec:has-small-stroke="true"
         ffdec:original-stroke-width="1.0"
         fill="none"
         stroke="#ffffff"
         stroke-linecap="round"
         stroke-linejoin="round"
         stroke-width="2.042478917958546"
         id="path16" />
    </g>
    <g
       id="shape4"
       transform="matrix(1.0, 0.0, 0.0, 1.0, 8.6, 8.6)">
      <path
         d="M-3.85 5.35 L0.05 1.45 3.9 5.3 4.6 5.6 Q5.0 5.6 5.3 5.3 L5.6 4.6 5.3 3.9 1.45 0.05 5.35 -3.85 5.65 -4.55 5.35 -5.25 4.65 -5.55 3.95 -5.25 0.05 -1.35 -3.9 -5.3 -4.6 -5.6 Q-5.0 -5.6 -5.3 -5.3 L-5.6 -4.6 -5.3 -3.9 -1.35 0.05 -5.25 3.95 -5.55 4.65 -5.25 5.35 -4.55 5.65 Q-4.15 5.65 -3.85 5.35 Z"
         fill="none"
         stroke="#5fd6ff"
         stroke-linecap="round"
         stroke-linejoin="round"
         stroke-width="6.0"
         id="path17" />
      <path
         d="M-3.85 5.35 Q-4.15 5.65 -4.55 5.65 L-5.25 5.35 -5.55 4.65 -5.25 3.95 -1.35 0.05 -5.3 -3.9 -5.6 -4.6 -5.3 -5.3 Q-5.0 -5.6 -4.6 -5.6 L-3.9 -5.3 0.05 -1.35 3.95 -5.25 4.65 -5.55 5.35 -5.25 5.65 -4.55 5.35 -3.85 1.45 0.05 5.3 3.9 5.6 4.6 5.3 5.3 Q5.0 5.6 4.6 5.6 L3.9 5.3 0.05 1.45 -3.85 5.35"
         fill="#ffffff"
         fill-rule="evenodd"
         stroke="none"
         id="path18" />
      <path
         d="M-3.85 5.35 L0.05 1.45 3.9 5.3 4.6 5.6 Q5.0 5.6 5.3 5.3 L5.6 4.6 5.3 3.9 1.45 0.05 5.35 -3.85 5.65 -4.55 5.35 -5.25 4.65 -5.55 3.95 -5.25 0.05 -1.35 -3.9 -5.3 -4.6 -5.6 Q-5.0 -5.6 -5.3 -5.3 L-5.6 -4.6 -5.3 -3.9 -1.35 0.05 -5.25 3.95 -5.55 4.65 -5.25 5.35 -4.55 5.65 Q-4.15 5.65 -3.85 5.35 Z"
         ffdec:has-small-stroke="true"
         ffdec:original-stroke-width="1.0"
         fill="none"
         stroke="#ffffff"
         stroke-linecap="round"
         stroke-linejoin="round"
         stroke-width="2.042478917958546"
         id="path19" />
    </g>
  </defs>
</svg>
