<?xml version="1.0" encoding="UTF-8" standalone="no"?>
<svg xmlns:ffdec="https://www.free-decompiler.com/flash" xmlns:xlink="http://www.w3.org/1999/xlink" ffdec:objectType="frame" height="100.55px" width="99.1px" xmlns="http://www.w3.org/2000/svg">
  <g transform="matrix(1.0, 0.0, 0.0, 1.0, 49.55, 49.55)">
    <use ffdec:characterId="1812" height="82.4" transform="matrix(1.0822, 0.0, 0.0, 1.082, -44.5885, -44.5791)" width="82.4" xlink:href="#morphshape0"/>
    <use ffdec:characterId="1348" height="24.4" transform="matrix(0.1968, 0.0, 0.0, 0.1967, 34.1393, -32.9003)" width="24.45" xlink:href="#shape0"/>
    <use ffdec:characterId="1347" height="17.25" transform="matrix(0.2295, 0.0, 0.0, 0.2294, 4.2765, 47.0269)" width="17.25" xlink:href="#shape1"/>
    <use ffdec:characterId="1348" height="24.4" transform="matrix(0.1832, 0.0, 0.0, 0.1832, 41.3555, 15.965)" width="24.45" xlink:href="#shape2"/>
    <use ffdec:characterId="1348" height="24.4" transform="matrix(0.173, 0.0, 0.0, 0.173, -41.9197, 31.7393)" width="24.45" xlink:href="#shape3"/>
    <use ffdec:characterId="1347" height="17.25" transform="matrix(0.277, 0.0, 0.0, 0.2769, -43.9321, -28.8816)" width="17.25" xlink:href="#shape4"/>
    <use ffdec:characterId="1347" height="17.25" transform="matrix(0.2349, 0.0, 0.0, 0.2348, -4.7198, -47.1194)" width="17.25" xlink:href="#shape5"/>
  </g>
  <defs>
    <g id="morphshape0" transform="matrix(1.0, 0.0, 0.0, 1.0, 41.2, 41.2)">
      <path d="M-38.05 0.0 Q-38.05 15.7 -26.9 26.85 -15.7 38.05 0.0 38.05 15.75 38.05 26.9 26.85 38.1 15.7 38.1 0.0 38.1 -15.75 26.9 -26.95 15.75 -38.1 0.0 -38.1 -15.7 -38.1 -26.9 -26.95 -38.05 -15.75 -38.05 0.0 M-41.2 0.0 Q-41.2 17.0 -29.15 29.05 -17.0 41.2 0.0 41.2 17.05 41.2 29.1 29.05 41.2 17.0 41.2 0.0 41.2 -17.05 29.1 -29.15 17.05 -41.2 0.0 -41.2 -17.0 -41.2 -29.15 -29.15 -41.2 -17.05 -41.2 0.0" fill="#ffffff" fill-opacity="0.16470589" fill-rule="evenodd" stroke="none"/>
      <path d="M-38.05 0.0 Q-38.05 15.7 -26.9 26.85 -15.7 38.05 0.0 38.05 15.75 38.05 26.9 26.85 38.1 15.7 38.1 0.0 38.1 -15.75 26.9 -26.95 15.75 -38.1 0.0 -38.1 -15.7 -38.1 -26.9 -26.95 -38.05 -15.75 -38.05 0.0" fill="#effbff" fill-opacity="0.16470589" fill-rule="evenodd" stroke="none"/>
      <path d="M-41.2 0.0 Q-41.2 -17.05 -29.15 -29.15 -17.0 -41.2 0.0 -41.2 17.05 -41.2 29.1 -29.15 41.2 -17.05 41.2 0.0 41.2 17.0 29.1 29.05 17.05 41.2 0.0 41.2 -17.0 41.2 -29.15 29.05 -41.2 17.0 -41.2 0.0 M-38.05 0.0 Q-38.05 -15.75 -26.9 -26.95 -15.7 -38.1 0.0 -38.1 15.75 -38.1 26.9 -26.95 38.1 -15.75 38.1 0.0 38.1 15.7 26.9 26.85 15.75 38.05 0.0 38.05 -15.7 38.05 -26.9 26.85 -38.05 15.7 -38.05 0.0 -38.05 -15.75 -26.9 -26.95 -15.7 -38.1 0.0 -38.1 15.75 -38.1 26.9 -26.95 38.1 -15.75 38.1 0.0 38.1 15.7 26.9 26.85 15.75 38.05 0.0 38.05 -15.7 38.05 -26.9 26.85 -38.05 15.7 -38.05 0.0 Z" ffdec:has-small-stroke="true" ffdec:original-stroke-width="0.0" fill="none" stroke="#000000" stroke-linecap="round" stroke-linejoin="round" stroke-opacity="0.0" stroke-width="0.9241030144957576"/>
    </g>
    <g id="shape0" transform="matrix(1.0, 0.0, 0.0, 1.0, 12.25, 12.2)">
      <path d="M5.85 -7.3 Q5.3 -7.3 4.85 -6.9 L1.4 -3.4 1.4 -8.3 0.95 -9.3 Q0.55 -9.7 -0.05 -9.7 -0.6 -9.7 -1.05 -9.3 L-1.45 -8.3 -1.45 -3.4 -4.95 -6.9 Q-5.35 -7.3 -5.9 -7.3 -6.5 -7.3 -6.9 -6.9 L-7.35 -5.9 -6.9 -4.9 -3.45 -1.45 -8.35 -1.45 Q-8.9 -1.45 -9.3 -1.0 -9.75 -0.6 -9.75 0.0 -9.75 0.55 -9.3 1.0 -8.9 1.4 -8.35 1.4 L-3.45 1.4 -6.9 4.9 -7.35 5.9 Q-7.35 6.45 -6.9 6.85 -6.5 7.3 -5.9 7.3 L-4.95 6.95 -1.45 3.45 -1.45 8.3 Q-1.45 8.85 -1.05 9.3 -0.6 9.7 -0.05 9.7 0.55 9.7 0.95 9.3 L1.4 8.3 1.4 3.4 4.85 6.85 Q5.3 7.3 5.85 7.3 6.4 7.3 6.85 6.85 7.25 6.45 7.25 5.9 7.25 5.3 6.85 4.9 L3.35 1.4 8.25 1.4 Q8.85 1.4 9.25 1.0 L9.7 0.0 Q9.7 -0.6 9.25 -1.0 8.85 -1.45 8.25 -1.45 L3.45 -1.45 6.85 -4.85 Q7.25 -5.35 7.25 -5.9 L6.9 -6.9 Q6.4 -7.3 5.85 -7.3 Z" ffdec:has-small-stroke="true" ffdec:original-stroke-width="5.0" fill="none" stroke="#5fd6ff" stroke-linecap="round" stroke-linejoin="round" stroke-width="5.082082862753708"/>
      <path d="M5.85 -7.3 Q6.4 -7.3 6.9 -6.9 L7.25 -5.9 Q7.25 -5.35 6.85 -4.85 L3.45 -1.45 8.25 -1.45 Q8.85 -1.45 9.25 -1.0 9.7 -0.6 9.7 0.0 L9.25 1.0 Q8.85 1.4 8.25 1.4 L3.35 1.4 6.85 4.9 Q7.25 5.3 7.25 5.9 7.25 6.45 6.85 6.85 6.4 7.3 5.85 7.3 5.3 7.3 4.85 6.85 L1.4 3.4 1.4 8.3 0.95 9.3 Q0.55 9.7 -0.05 9.7 -0.6 9.7 -1.05 9.3 -1.45 8.85 -1.45 8.3 L-1.45 3.45 -4.95 6.95 -5.9 7.3 Q-6.5 7.3 -6.9 6.85 -7.35 6.45 -7.35 5.9 L-6.9 4.9 -3.45 1.4 -8.35 1.4 Q-8.9 1.4 -9.3 1.0 -9.75 0.55 -9.75 0.0 -9.75 -0.6 -9.3 -1.0 -8.9 -1.45 -8.35 -1.45 L-3.45 -1.45 -6.9 -4.9 -7.35 -5.9 -6.9 -6.9 Q-6.5 -7.3 -5.9 -7.3 -5.35 -7.3 -4.95 -6.9 L-1.45 -3.4 -1.45 -8.3 -1.05 -9.3 Q-0.6 -9.7 -0.05 -9.7 0.55 -9.7 0.95 -9.3 L1.4 -8.3 1.4 -3.4 4.85 -6.9 Q5.3 -7.3 5.85 -7.3" fill="#ffffff" fill-rule="evenodd" stroke="none"/>
    </g>
    <g id="shape1" transform="matrix(1.0, 0.0, 0.0, 1.0, 8.6, 8.6)">
      <path d="M-3.85 5.35 L0.05 1.45 3.9 5.3 4.6 5.6 Q5.0 5.6 5.3 5.3 L5.6 4.6 5.3 3.9 1.45 0.05 5.35 -3.85 5.65 -4.55 5.35 -5.25 4.65 -5.55 3.95 -5.25 0.05 -1.35 -3.9 -5.3 -4.6 -5.6 Q-5.0 -5.6 -5.3 -5.3 L-5.6 -4.6 -5.3 -3.9 -1.35 0.05 -5.25 3.95 -5.55 4.65 -5.25 5.35 -4.55 5.65 Q-4.15 5.65 -3.85 5.35 Z" fill="none" stroke="#5fd6ff" stroke-linecap="round" stroke-linejoin="round" stroke-width="6.0"/>
      <path d="M-3.85 5.35 Q-4.15 5.65 -4.55 5.65 L-5.25 5.35 -5.55 4.65 -5.25 3.95 -1.35 0.05 -5.3 -3.9 -5.6 -4.6 -5.3 -5.3 Q-5.0 -5.6 -4.6 -5.6 L-3.9 -5.3 0.05 -1.35 3.95 -5.25 4.65 -5.55 5.35 -5.25 5.65 -4.55 5.35 -3.85 1.45 0.05 5.3 3.9 5.6 4.6 5.3 5.3 Q5.0 5.6 4.6 5.6 L3.9 5.3 0.05 1.45 -3.85 5.35" fill="#ffffff" fill-rule="evenodd" stroke="none"/>
      <path d="M-3.85 5.35 L0.05 1.45 3.9 5.3 4.6 5.6 Q5.0 5.6 5.3 5.3 L5.6 4.6 5.3 3.9 1.45 0.05 5.35 -3.85 5.65 -4.55 5.35 -5.25 4.65 -5.55 3.95 -5.25 0.05 -1.35 -3.9 -5.3 -4.6 -5.6 Q-5.0 -5.6 -5.3 -5.3 L-5.6 -4.6 -5.3 -3.9 -1.35 0.05 -5.25 3.95 -5.55 4.65 -5.25 5.35 -4.55 5.65 Q-4.15 5.65 -3.85 5.35 Z" ffdec:has-small-stroke="true" ffdec:original-stroke-width="1.0" fill="none" stroke="#ffffff" stroke-linecap="round" stroke-linejoin="round" stroke-width="4.358171216887933"/>
    </g>
    <g id="shape2" transform="matrix(1.0, 0.0, 0.0, 1.0, 12.25, 12.2)">
      <path d="M5.85 -7.3 Q5.3 -7.3 4.85 -6.9 L1.4 -3.4 1.4 -8.3 0.95 -9.3 Q0.55 -9.7 -0.05 -9.7 -0.6 -9.7 -1.05 -9.3 L-1.45 -8.3 -1.45 -3.4 -4.95 -6.9 Q-5.35 -7.3 -5.9 -7.3 -6.5 -7.3 -6.9 -6.9 L-7.35 -5.9 -6.9 -4.9 -3.45 -1.45 -8.35 -1.45 Q-8.9 -1.45 -9.3 -1.0 -9.75 -0.6 -9.75 0.0 -9.75 0.55 -9.3 1.0 -8.9 1.4 -8.35 1.4 L-3.45 1.4 -6.9 4.9 -7.35 5.9 Q-7.35 6.45 -6.9 6.85 -6.5 7.3 -5.9 7.3 L-4.95 6.95 -1.45 3.45 -1.45 8.3 Q-1.45 8.85 -1.05 9.3 -0.6 9.7 -0.05 9.7 0.55 9.7 0.95 9.3 L1.4 8.3 1.4 3.4 4.85 6.85 Q5.3 7.3 5.85 7.3 6.4 7.3 6.85 6.85 7.25 6.45 7.25 5.9 7.25 5.3 6.85 4.9 L3.35 1.4 8.25 1.4 Q8.85 1.4 9.25 1.0 L9.7 0.0 Q9.7 -0.6 9.25 -1.0 8.85 -1.45 8.25 -1.45 L3.45 -1.45 6.85 -4.85 Q7.25 -5.35 7.25 -5.9 L6.9 -6.9 Q6.4 -7.3 5.85 -7.3 Z" ffdec:has-small-stroke="true" ffdec:original-stroke-width="5.0" fill="none" stroke="#5fd6ff" stroke-linecap="round" stroke-linejoin="round" stroke-width="5.458149393912692"/>
      <path d="M5.85 -7.3 Q6.4 -7.3 6.9 -6.9 L7.25 -5.9 Q7.25 -5.35 6.85 -4.85 L3.45 -1.45 8.25 -1.45 Q8.85 -1.45 9.25 -1.0 9.7 -0.6 9.7 0.0 L9.25 1.0 Q8.85 1.4 8.25 1.4 L3.35 1.4 6.85 4.9 Q7.25 5.3 7.25 5.9 7.25 6.45 6.85 6.85 6.4 7.3 5.85 7.3 5.3 7.3 4.85 6.85 L1.4 3.4 1.4 8.3 0.95 9.3 Q0.55 9.7 -0.05 9.7 -0.6 9.7 -1.05 9.3 -1.45 8.85 -1.45 8.3 L-1.45 3.45 -4.95 6.95 -5.9 7.3 Q-6.5 7.3 -6.9 6.85 -7.35 6.45 -7.35 5.9 L-6.9 4.9 -3.45 1.4 -8.35 1.4 Q-8.9 1.4 -9.3 1.0 -9.75 0.55 -9.75 0.0 -9.75 -0.6 -9.3 -1.0 -8.9 -1.45 -8.35 -1.45 L-3.45 -1.45 -6.9 -4.9 -7.35 -5.9 -6.9 -6.9 Q-6.5 -7.3 -5.9 -7.3 -5.35 -7.3 -4.95 -6.9 L-1.45 -3.4 -1.45 -8.3 -1.05 -9.3 Q-0.6 -9.7 -0.05 -9.7 0.55 -9.7 0.95 -9.3 L1.4 -8.3 1.4 -3.4 4.85 -6.9 Q5.3 -7.3 5.85 -7.3" fill="#ffffff" fill-rule="evenodd" stroke="none"/>
    </g>
    <g id="shape3" transform="matrix(1.0, 0.0, 0.0, 1.0, 12.25, 12.2)">
      <path d="M5.85 -7.3 Q5.3 -7.3 4.85 -6.9 L1.4 -3.4 1.4 -8.3 0.95 -9.3 Q0.55 -9.7 -0.05 -9.7 -0.6 -9.7 -1.05 -9.3 L-1.45 -8.3 -1.45 -3.4 -4.95 -6.9 Q-5.35 -7.3 -5.9 -7.3 -6.5 -7.3 -6.9 -6.9 L-7.35 -5.9 -6.9 -4.9 -3.45 -1.45 -8.35 -1.45 Q-8.9 -1.45 -9.3 -1.0 -9.75 -0.6 -9.75 0.0 -9.75 0.55 -9.3 1.0 -8.9 1.4 -8.35 1.4 L-3.45 1.4 -6.9 4.9 -7.35 5.9 Q-7.35 6.45 -6.9 6.85 -6.5 7.3 -5.9 7.3 L-4.95 6.95 -1.45 3.45 -1.45 8.3 Q-1.45 8.85 -1.05 9.3 -0.6 9.7 -0.05 9.7 0.55 9.7 0.95 9.3 L1.4 8.3 1.4 3.4 4.85 6.85 Q5.3 7.3 5.85 7.3 6.4 7.3 6.85 6.85 7.25 6.45 7.25 5.9 7.25 5.3 6.85 4.9 L3.35 1.4 8.25 1.4 Q8.85 1.4 9.25 1.0 L9.7 0.0 Q9.7 -0.6 9.25 -1.0 8.85 -1.45 8.25 -1.45 L3.45 -1.45 6.85 -4.85 Q7.25 -5.35 7.25 -5.9 L6.9 -6.9 Q6.4 -7.3 5.85 -7.3 Z" ffdec:has-small-stroke="true" ffdec:original-stroke-width="5.0" fill="none" stroke="#5fd6ff" stroke-linecap="round" stroke-linejoin="round" stroke-width="5.779698363624724"/>
      <path d="M5.85 -7.3 Q6.4 -7.3 6.9 -6.9 L7.25 -5.9 Q7.25 -5.35 6.85 -4.85 L3.45 -1.45 8.25 -1.45 Q8.85 -1.45 9.25 -1.0 9.7 -0.6 9.7 0.0 L9.25 1.0 Q8.85 1.4 8.25 1.4 L3.35 1.4 6.85 4.9 Q7.25 5.3 7.25 5.9 7.25 6.45 6.85 6.85 6.4 7.3 5.85 7.3 5.3 7.3 4.85 6.85 L1.4 3.4 1.4 8.3 0.95 9.3 Q0.55 9.7 -0.05 9.7 -0.6 9.7 -1.05 9.3 -1.45 8.85 -1.45 8.3 L-1.45 3.45 -4.95 6.95 -5.9 7.3 Q-6.5 7.3 -6.9 6.85 -7.35 6.45 -7.35 5.9 L-6.9 4.9 -3.45 1.4 -8.35 1.4 Q-8.9 1.4 -9.3 1.0 -9.75 0.55 -9.75 0.0 -9.75 -0.6 -9.3 -1.0 -8.9 -1.45 -8.35 -1.45 L-3.45 -1.45 -6.9 -4.9 -7.35 -5.9 -6.9 -6.9 Q-6.5 -7.3 -5.9 -7.3 -5.35 -7.3 -4.95 -6.9 L-1.45 -3.4 -1.45 -8.3 -1.05 -9.3 Q-0.6 -9.7 -0.05 -9.7 0.55 -9.7 0.95 -9.3 L1.4 -8.3 1.4 -3.4 4.85 -6.9 Q5.3 -7.3 5.85 -7.3" fill="#ffffff" fill-rule="evenodd" stroke="none"/>
    </g>
    <g id="shape4" transform="matrix(1.0, 0.0, 0.0, 1.0, 8.6, 8.6)">
      <path d="M-3.85 5.35 L0.05 1.45 3.9 5.3 4.6 5.6 Q5.0 5.6 5.3 5.3 L5.6 4.6 5.3 3.9 1.45 0.05 5.35 -3.85 5.65 -4.55 5.35 -5.25 4.65 -5.55 3.95 -5.25 0.05 -1.35 -3.9 -5.3 -4.6 -5.6 Q-5.0 -5.6 -5.3 -5.3 L-5.6 -4.6 -5.3 -3.9 -1.35 0.05 -5.25 3.95 -5.55 4.65 -5.25 5.35 -4.55 5.65 Q-4.15 5.65 -3.85 5.35 Z" fill="none" stroke="#5fd6ff" stroke-linecap="round" stroke-linejoin="round" stroke-width="6.0"/>
      <path d="M-3.85 5.35 Q-4.15 5.65 -4.55 5.65 L-5.25 5.35 -5.55 4.65 -5.25 3.95 -1.35 0.05 -5.3 -3.9 -5.6 -4.6 -5.3 -5.3 Q-5.0 -5.6 -4.6 -5.6 L-3.9 -5.3 0.05 -1.35 3.95 -5.25 4.65 -5.55 5.35 -5.25 5.65 -4.55 5.35 -3.85 1.45 0.05 5.3 3.9 5.6 4.6 5.3 5.3 Q5.0 5.6 4.6 5.6 L3.9 5.3 0.05 1.45 -3.85 5.35" fill="#ffffff" fill-rule="evenodd" stroke="none"/>
      <path d="M-3.85 5.35 L0.05 1.45 3.9 5.3 4.6 5.6 Q5.0 5.6 5.3 5.3 L5.6 4.6 5.3 3.9 1.45 0.05 5.35 -3.85 5.65 -4.55 5.35 -5.25 4.65 -5.55 3.95 -5.25 0.05 -1.35 -3.9 -5.3 -4.6 -5.6 Q-5.0 -5.6 -5.3 -5.3 L-5.6 -4.6 -5.3 -3.9 -1.35 0.05 -5.25 3.95 -5.55 4.65 -5.25 5.35 -4.55 5.65 Q-4.15 5.65 -3.85 5.35 Z" ffdec:has-small-stroke="true" ffdec:original-stroke-width="1.0" fill="none" stroke="#ffffff" stroke-linecap="round" stroke-linejoin="round" stroke-width="3.610599945025601"/>
    </g>
    <g id="shape5" transform="matrix(1.0, 0.0, 0.0, 1.0, 8.6, 8.6)">
      <path d="M-3.85 5.35 L0.05 1.45 3.9 5.3 4.6 5.6 Q5.0 5.6 5.3 5.3 L5.6 4.6 5.3 3.9 1.45 0.05 5.35 -3.85 5.65 -4.55 5.35 -5.25 4.65 -5.55 3.95 -5.25 0.05 -1.35 -3.9 -5.3 -4.6 -5.6 Q-5.0 -5.6 -5.3 -5.3 L-5.6 -4.6 -5.3 -3.9 -1.35 0.05 -5.25 3.95 -5.55 4.65 -5.25 5.35 -4.55 5.65 Q-4.15 5.65 -3.85 5.35 Z" fill="none" stroke="#5fd6ff" stroke-linecap="round" stroke-linejoin="round" stroke-width="6.0"/>
      <path d="M-3.85 5.35 Q-4.15 5.65 -4.55 5.65 L-5.25 5.35 -5.55 4.65 -5.25 3.95 -1.35 0.05 -5.3 -3.9 -5.6 -4.6 -5.3 -5.3 Q-5.0 -5.6 -4.6 -5.6 L-3.9 -5.3 0.05 -1.35 3.95 -5.25 4.65 -5.55 5.35 -5.25 5.65 -4.55 5.35 -3.85 1.45 0.05 5.3 3.9 5.6 4.6 5.3 5.3 Q5.0 5.6 4.6 5.6 L3.9 5.3 0.05 1.45 -3.85 5.35" fill="#ffffff" fill-rule="evenodd" stroke="none"/>
      <path d="M-3.85 5.35 L0.05 1.45 3.9 5.3 4.6 5.6 Q5.0 5.6 5.3 5.3 L5.6 4.6 5.3 3.9 1.45 0.05 5.35 -3.85 5.65 -4.55 5.35 -5.25 4.65 -5.55 3.95 -5.25 0.05 -1.35 -3.9 -5.3 -4.6 -5.6 Q-5.0 -5.6 -5.3 -5.3 L-5.6 -4.6 -5.3 -3.9 -1.35 0.05 -5.25 3.95 -5.55 4.65 -5.25 5.35 -4.55 5.65 Q-4.15 5.65 -3.85 5.35 Z" ffdec:has-small-stroke="true" ffdec:original-stroke-width="1.0" fill="none" stroke="#ffffff" stroke-linecap="round" stroke-linejoin="round" stroke-width="4.258211213978583"/>
    </g>
  </defs>
</svg>
