<?xml version="1.0" encoding="UTF-8" standalone="no"?>
<svg xmlns:ffdec="https://www.free-decompiler.com/flash" xmlns:xlink="http://www.w3.org/1999/xlink" ffdec:objectType="frame" height="11.9px" width="27.15px" xmlns="http://www.w3.org/2000/svg">
  <g transform="matrix(1.0, 0.0, 0.0, 1.0, 23.7, 5.95)">
    <use ffdec:characterId="3496" height="6.85" transform="matrix(0.3241, 0.0, 0.0, 0.3241, -20.5527, 0.4982)" width="10.2" xlink:href="#shape0"/>
    <use ffdec:characterId="3497" height="7.6" transform="matrix(0.4191, 0.0, 0.0, 0.3978, -22.7532, -3.2616)" width="12.9" xlink:href="#shape1"/>
    <use ffdec:characterId="3498" height="17.0" transform="matrix(0.8407, 0.0, 0.0, 0.4803, -16.7701, -4.0824)" width="23.55" xlink:href="#shape2"/>
    <use ffdec:characterId="2202" height="5.8" transform="matrix(0.4302, 0.0, 0.0, 0.243, -20.1476, 0.8952)" width="5.8" xlink:href="#shape3"/>
    <use ffdec:characterId="2202" height="5.8" transform="matrix(0.7515, 0.0, 0.0, 0.3498, -22.2293, -2.7643)" width="5.8" xlink:href="#shape3"/>
    <use ffdec:characterId="2202" height="5.8" transform="matrix(2.8337, 0.0, 0.0, 1.0765, -15.0677, -3.1218)" width="5.8" xlink:href="#shape3"/>
  </g>
  <defs>
    <g id="shape0" transform="matrix(1.0, 0.0, 0.0, 1.0, 5.1, 3.4)">
      <path d="M2.75 1.55 Q1.6 2.2 0.0 2.2 -1.55 2.2 -2.7 1.55 -3.85 0.95 -3.85 0.05 -3.85 -0.9 -2.7 -1.55 -1.55 -2.15 0.0 -2.15 1.6 -2.15 2.75 -1.55 3.85 -0.9 3.85 0.05 3.85 0.95 2.75 1.55 Z" ffdec:has-small-stroke="true" ffdec:original-stroke-width="2.5" fill="none" stroke="#c67903" stroke-linecap="round" stroke-linejoin="round" stroke-width="3.0857896223749886"/>
    </g>
    <g id="shape1" transform="matrix(1.0, 0.0, 0.0, 1.0, 6.45, 3.8)">
      <path d="M0.0 -2.55 Q2.15 -2.55 3.7 -1.8 5.2 -1.05 5.2 0.0 5.2 1.05 3.7 1.8 2.15 2.55 0.0 2.55 -2.15 2.55 -3.65 1.8 -5.2 1.05 -5.2 0.0 -5.2 -1.05 -3.65 -1.8 -2.15 -2.55 0.0 -2.55 Z" fill="none" stroke="#c67903" stroke-linecap="round" stroke-linejoin="round" stroke-width="2.5"/>
    </g>
    <g id="shape2" transform="matrix(1.0, 0.0, 0.0, 1.0, 11.8, 8.5)">
      <path d="M9.75 0.0 Q9.75 2.7 6.8 4.6 4.05 6.5 -0.05 6.5 -4.1 6.5 -7.0 4.6 -9.8 2.7 -9.8 0.0 -9.8 -2.7 -7.0 -4.65 -4.1 -6.5 -0.05 -6.5 4.05 -6.5 6.8 -4.65 9.75 -2.7 9.75 0.0 Z" fill="none" stroke="#c67903" stroke-linecap="round" stroke-linejoin="round" stroke-width="4.0"/>
    </g>
    <g id="shape3" transform="matrix(1.0, 0.0, 0.0, 1.0, 2.9, 2.9)">
      <path d="M0.0 -2.9 Q1.2 -2.9 2.05 -2.05 2.9 -1.2 2.9 0.0 2.9 1.2 2.05 2.05 1.2 2.9 0.0 2.9 -1.2 2.9 -2.05 2.05 -2.9 1.2 -2.9 0.0 -2.9 -1.2 -2.05 -2.05 -1.2 -2.9 0.0 -2.9" fill="#ffcc00" fill-rule="evenodd" stroke="none"/>
    </g>
  </defs>
</svg>
