<?xml version="1.0" encoding="UTF-8" standalone="no"?>
<svg xmlns:ffdec="https://www.free-decompiler.com/flash" xmlns:xlink="http://www.w3.org/1999/xlink" ffdec:objectType="frame" height="11.9px" width="27.15px" xmlns="http://www.w3.org/2000/svg">
  <g transform="matrix(1.0, 0.0, 0.0, 1.0, 23.7, 5.95)">
    <use ffdec:characterId="3498" height="17.0" transform="matrix(0.7352, 0.0, 0.0, 0.6451, -15.4748, -5.4831)" width="23.55" xlink:href="#shape0"/>
    <use ffdec:characterId="2202" height="5.8" transform="matrix(2.478, 0.0, 0.0, 1.4458, -13.9861, -4.1929)" width="5.8" xlink:href="#shape1"/>
  </g>
  <defs>
    <g id="shape0" transform="matrix(1.0, 0.0, 0.0, 1.0, 11.8, 8.5)">
      <path d="M9.75 0.0 Q9.75 2.7 6.8 4.6 4.05 6.5 -0.05 6.5 -4.1 6.5 -7.0 4.6 -9.8 2.7 -9.8 0.0 -9.8 -2.7 -7.0 -4.65 -4.1 -6.5 -0.05 -6.5 4.05 -6.5 6.8 -4.65 9.75 -2.7 9.75 0.0 Z" fill="none" stroke="#c67903" stroke-linecap="round" stroke-linejoin="round" stroke-width="4.0"/>
    </g>
    <g id="shape1" transform="matrix(1.0, 0.0, 0.0, 1.0, 2.9, 2.9)">
      <path d="M0.0 -2.9 Q1.2 -2.9 2.05 -2.05 2.9 -1.2 2.9 0.0 2.9 1.2 2.05 2.05 1.2 2.9 0.0 2.9 -1.2 2.9 -2.05 2.05 -2.9 1.2 -2.9 0.0 -2.9 -1.2 -2.05 -2.05 -1.2 -2.9 0.0 -2.9" fill="#ffcc00" fill-rule="evenodd" stroke="none"/>
    </g>
  </defs>
</svg>
