<?xml version="1.0" encoding="UTF-8" standalone="no"?>
<svg xmlns:ffdec="https://www.free-decompiler.com/flash" xmlns:xlink="http://www.w3.org/1999/xlink" ffdec:objectType="frame" height="19.35px" width="21.1px" xmlns="http://www.w3.org/2000/svg">
  <g transform="matrix(1.0, 0.0, 0.0, 1.0, 0.3, 0.15)">
    <use ffdec:characterId="59" height="19.35" transform="matrix(1.0, 0.0, 0.0, 1.0, -0.3, -0.15)" width="21.1" xlink:href="#shape0"/>
  </g>
  <defs>
    <g id="shape0" transform="matrix(1.0, 0.0, 0.0, 1.0, 0.3, 0.15)">
      <path d="M6.4 3.1 Q8.5 1.2 12.75 2.35 L20.05 13.9 19.45 14.9 20.55 15.7 18.45 18.95 16.1 17.3 Q11.7 16.5 7.85 12.9 4.35 7.75 -0.05 7.65 L1.7 2.45 Q2.6 0.75 4.45 0.1 L6.4 3.1 M16.1 17.3 L18.0 17.5 19.45 14.9 18.0 17.5 16.1 17.3" fill="#000000" fill-rule="evenodd" stroke="none"/>
      <path d="M6.4 3.1 Q8.5 1.2 12.75 2.35 L20.05 13.9 19.45 14.9 20.55 15.7 18.45 18.95 16.1 17.3 Q11.7 16.5 7.85 12.9 4.35 7.75 -0.05 7.65 L1.7 2.45 Q2.6 0.75 4.45 0.1 L6.4 3.1 M19.45 14.9 L18.0 17.5 16.1 17.3" ffdec:has-small-stroke="true" ffdec:original-stroke-width="0.5" fill="none" stroke="#000000" stroke-linecap="round" stroke-linejoin="round" stroke-width="1.0"/>
      <path d="M3.0 5.95 Q1.65 5.95 0.8 5.15 L1.5 2.95 Q3.35 3.75 3.0 5.95 M6.0 7.1 Q11.65 4.75 15.85 10.25 10.95 9.65 6.0 7.1" fill="#ffffff" fill-rule="evenodd" stroke="none"/>
    </g>
  </defs>
</svg>
