<?xml version="1.0" encoding="UTF-8" standalone="no"?>
<svg xmlns:ffdec="https://www.free-decompiler.com/flash" xmlns:xlink="http://www.w3.org/1999/xlink" ffdec:objectType="frame" height="37.3px" width="37.45px" xmlns="http://www.w3.org/2000/svg">
  <g transform="matrix(1.0, 0.0, 0.0, 1.0, 18.7, 18.4)">
    <use ffdec:characterId="6618" height="36.75" transform="matrix(1.0, 0.0, 0.0, 1.0, -18.2, -18.4)" width="36.45" xlink:href="#shape0"/>
    <use ffdec:characterId="6674" height="36.75" transform="matrix(1.0, 0.0, 0.0, 1.0, -18.2, -18.35)" width="36.45" xlink:href="#shape1"/>
  </g>
  <defs>
    <g id="shape0" transform="matrix(1.0, 0.0, 0.0, 1.0, 18.2, 18.35)">
      <path d="M-1.1 -11.95 L1.3 -11.95 0.95 -11.65 Q0.55 -11.3 0.05 -11.3 -0.45 -11.3 -0.8 -11.65 L-1.1 -11.95" fill="#ff9f00" fill-rule="evenodd" stroke="none"/>
      <path d="M-13.65 -13.2 L-12.85 -14.15 -12.8 -14.15 Q-10.0 -17.05 -5.35 -14.85 L-5.4 -14.85 Q-3.0 -13.65 -1.1 -11.95 L-12.15 -12.9 -13.65 -13.15 -13.65 -13.2" fill="#cc0000" fill-rule="evenodd" stroke="none"/>
      <path d="M1.3 -11.95 Q3.05 -13.7 5.45 -14.85 10.05 -17.05 12.9 -14.15 L13.7 -13.2 Q15.6 -10.7 15.75 -7.65 15.8 -5.65 15.1 -3.35 L13.95 -0.75 Q13.05 0.85 11.6 2.45 L11.6 2.5 7.6 6.35 6.1 7.6 Q4.3 9.0 2.15 11.7 L1.6 12.4 0.1 14.05 0.05 14.0 -1.45 12.4 -1.5 12.35 -2.0 11.75 Q-4.35 9.05 -6.05 7.6 L-7.4 6.45 -11.5 2.5 -11.5 2.45 Q-12.95 0.85 -13.85 -0.7 -14.65 -2.05 -15.05 -3.35 -15.75 -5.65 -15.65 -7.7 -15.5 -10.7 -13.65 -13.15 L-12.15 -12.9 -1.1 -11.95 -0.8 -11.65 Q-0.45 -11.3 0.05 -11.3 0.55 -11.3 0.95 -11.65 L1.3 -11.95" fill="#ff9f00" fill-rule="evenodd" stroke="none"/>
      <path d="M-15.65 -7.7 Q-15.75 -5.65 -15.05 -3.35 -14.65 -2.05 -13.85 -0.7 L-17.0 -1.45 -17.45 -2.65 -17.45 -2.6 Q-18.35 -5.65 -18.15 -8.35 L-15.65 -7.7 M13.95 -0.75 L15.1 -3.35 Q15.8 -5.65 15.75 -7.65 L18.2 -8.15 Q18.4 -5.55 17.5 -2.6 L17.5 -2.65 17.05 -1.3 13.95 -0.75" fill="#956a00" fill-rule="evenodd" stroke="none"/>
      <path d="M-13.85 -0.7 Q-12.95 0.85 -11.5 2.45 L-11.5 2.5 -7.4 6.45 -11.7 5.9 -13.35 4.15 Q-15.9 1.35 -17.0 -1.45 L-13.85 -0.7 M7.6 6.35 L11.6 2.5 11.6 2.45 Q13.05 0.85 13.95 -0.75 L17.05 -1.3 Q15.9 1.4 13.45 4.15 L11.9 5.8 11.85 5.8 7.6 6.35" fill="#296900" fill-rule="evenodd" stroke="none"/>
      <path d="M-7.4 6.45 L-6.05 7.6 Q-4.35 9.05 -2.0 11.75 L-5.45 11.6 -7.65 9.5 -11.7 5.9 -7.4 6.45 M2.15 11.7 Q4.3 9.0 6.1 7.6 L7.6 6.35 11.85 5.8 7.7 9.5 7.7 9.55 5.65 11.5 2.15 11.7" fill="#004577" fill-rule="evenodd" stroke="none"/>
      <path d="M-2.0 11.75 L-1.5 12.35 -1.45 12.4 0.05 14.0 0.1 14.05 1.6 12.4 2.15 11.7 5.65 11.5 3.55 13.95 2.0 15.7 2.4 16.45 2.55 17.15 2.25 17.85 1.6 18.25 Q-1.6 19.0 -3.6 16.5 L-3.9 15.8 -3.7 15.0 -3.05 14.55 -2.95 14.5 -3.4 13.95 -5.45 11.6 -2.0 11.75" fill="#771f9d" fill-rule="evenodd" stroke="none"/>
      <path d="M13.7 -13.2 L16.4 -13.7 16.4 -13.65 Q18.0 -11.15 18.2 -8.15 L15.75 -7.65 Q15.6 -10.7 13.7 -13.2 M-16.3 -13.75 L-13.65 -13.2 -13.65 -13.15 Q-15.5 -10.7 -15.65 -7.7 L-18.15 -8.35 Q-17.9 -11.25 -16.3 -13.75" fill="#c24000" fill-rule="evenodd" stroke="none"/>
      <path d="M13.7 -13.2 L12.9 -14.15 Q10.05 -17.05 5.45 -14.85 3.05 -13.7 1.3 -11.95 L-1.1 -11.95 Q-3.0 -13.65 -5.4 -14.85 L-5.35 -14.85 Q-10.0 -17.05 -12.8 -14.15 L-12.85 -14.15 -13.65 -13.2 -16.3 -13.75 -14.65 -15.85 Q-10.8 -20.15 -4.3 -17.1 -1.9 -15.9 0.05 -14.25 1.95 -15.9 4.35 -17.1 L4.4 -17.1 Q10.75 -20.15 14.7 -15.85 L16.4 -13.7 13.7 -13.2" fill="#620505" fill-rule="evenodd" stroke="none"/>
      <path d="M0.0 14.65 L1.3 17.0 Q-1.1 17.6 -2.65 15.7 L0.0 14.65" fill="#a600a6" fill-rule="evenodd" stroke="none"/>
      <path d="M13.8 -15.0 Q18.45 -10.05 16.3 -3.0 15.35 0.15 12.5 3.3 10.55 5.5 6.9 8.55 5.0 10.1 2.55 13.15 0.75 15.4 0.05 15.4 -0.65 15.4 -2.45 13.15 -5.0 10.1 -6.85 8.55 -10.5 5.5 -12.45 3.3 -15.3 0.15 -16.25 -3.0 -18.4 -10.05 -13.75 -15.0 -10.4 -18.6 -4.85 -16.0 -2.05 -14.6 0.05 -12.55 2.1 -14.6 4.9 -16.0 10.4 -18.6 13.8 -15.0" fill="#ff00ff" fill-rule="evenodd" stroke="none"/>
      <path d="M-15.0 -13.45 L-13.75 -15.0 Q-10.4 -18.6 -4.85 -16.0 -2.05 -14.6 0.05 -12.55 2.1 -14.6 4.9 -16.0 10.4 -18.6 13.8 -15.0 L15.05 -13.45 Q-1.45 -10.45 -15.0 -13.45" fill="#cc0000" fill-rule="evenodd" stroke="none"/>
      <path d="M15.05 -13.45 Q16.8 -10.9 16.95 -7.9 -1.85 -4.15 -16.9 -8.0 -16.7 -10.95 -15.0 -13.45 -1.45 -10.45 15.05 -13.45" fill="#ff9f00" fill-rule="evenodd" stroke="none"/>
      <path d="M16.95 -7.9 Q17.1 -5.6 16.3 -3.0 L15.55 -1.0 Q-1.55 2.15 -15.5 -1.05 L-16.25 -3.0 Q-17.05 -5.65 -16.9 -8.0 -1.85 -4.15 16.95 -7.9" fill="#ffe000" fill-rule="evenodd" stroke="none"/>
      <path d="M9.75 6.1 L6.9 8.55 3.85 11.65 -3.7 11.7 Q-5.45 9.7 -6.85 8.55 L-9.55 6.2 Q-0.5 7.35 9.75 6.1" fill="#3494d4" fill-rule="evenodd" stroke="none"/>
      <path d="M3.85 11.65 L2.55 13.15 Q0.75 15.4 0.05 15.4 -0.65 15.4 -2.45 13.15 L-3.7 11.7 3.85 11.65" fill="#ff00ff" fill-rule="evenodd" stroke="none"/>
      <path d="M15.55 -1.0 Q14.45 1.15 12.5 3.3 L9.75 6.1 Q-0.5 7.35 -9.55 6.2 L-12.45 3.3 Q-14.45 1.1 -15.5 -1.05 -1.55 2.15 15.55 -1.0" fill="#7ab400" fill-rule="evenodd" stroke="none"/>
      <path d="M13.55 -0.5 Q15.85 -7.9 10.9 -13.1 8.65 -15.5 5.55 -15.3 10.35 -17.5 13.35 -14.35 17.55 -9.9 15.6 -3.55 14.85 -1.1 12.75 1.45 L13.55 -0.5" fill="#ffffff" fill-rule="evenodd" stroke="none"/>
      <path d="M-1.0 -11.7 L-2.9 -10.0 Q-5.75 -12.85 -9.6 -14.75 L-11.7 -15.6 Q-9.05 -16.45 -5.55 -14.8 -3.0 -13.5 -1.0 -11.7" fill="#ffffff" fill-rule="evenodd" stroke="none"/>
      <path d="M-15.0 -0.3 Q-12.35 3.0 -9.25 4.95 L-12.05 2.15 Q-14.9 -1.0 -15.85 -4.15 -16.45 -6.2 -16.5 -8.05 -15.3 -4.35 -11.85 -0.6 -9.4 2.05 -4.85 5.75 L-3.0 7.35 0.3 7.65 Q8.1 7.65 13.9 1.6 L12.5 3.3 Q10.55 5.5 6.9 8.55 5.0 10.1 2.55 13.15 0.75 15.4 0.05 15.4 -0.65 15.4 -2.45 13.15 -5.0 10.1 -6.85 8.55 -10.5 5.5 -12.45 3.3 -14.25 1.3 -15.25 -0.65 L-15.0 -0.3" fill="#333333" fill-opacity="0.4" fill-rule="evenodd" stroke="none"/>
    </g>
    <g id="shape1" transform="matrix(1.0, 0.0, 0.0, 1.0, 18.2, 18.35)">
      <path d="M4.9 -16.0 Q10.4 -18.6 13.8 -15.0 18.45 -10.05 16.3 -3.0 15.35 0.15 12.5 3.3 10.55 5.5 6.9 8.55 5.0 10.1 2.55 13.15 1.1 14.95 0.4 15.35 L1.3 17.0 Q-1.1 17.6 -2.65 15.7 L-0.75 14.95 -2.45 13.15 Q-5.0 10.1 -6.85 8.55 -10.5 5.5 -12.45 3.3 -15.3 0.15 -16.25 -3.0 -18.4 -10.05 -13.75 -15.0 -10.4 -18.6 -4.85 -16.0 -2.05 -14.6 0.05 -12.55 2.1 -14.6 4.9 -16.0" fill="#ffffff" fill-rule="evenodd" stroke="none"/>
      <path d="M4.9 -16.0 Q10.4 -18.6 13.8 -15.0 18.45 -10.05 16.3 -3.0 15.35 0.15 12.5 3.3 10.55 5.5 6.9 8.55 5.0 10.1 2.55 13.15 1.1 14.95 0.4 15.35 L1.3 17.0 Q-1.1 17.6 -2.65 15.7 L-0.75 14.95 -2.45 13.15 Q-5.0 10.1 -6.85 8.55 -10.5 5.5 -12.45 3.3 -15.3 0.15 -16.25 -3.0 -18.4 -10.05 -13.75 -15.0 -10.4 -18.6 -4.85 -16.0 -2.05 -14.6 0.05 -12.55 2.1 -14.6 4.9 -16.0 Z" fill="none" stroke="#5b2e03" stroke-linecap="round" stroke-linejoin="round" stroke-width="2.5"/>
      <path d="M0.0 14.65 L1.3 17.0 Q-1.1 17.6 -2.65 15.7 L0.0 14.65" fill="#7b4a1b" fill-rule="evenodd" stroke="none"/>
      <path d="M13.8 -15.0 Q18.45 -10.05 16.3 -3.0 15.35 0.15 12.5 3.3 10.55 5.5 6.9 8.55 5.0 10.1 2.55 13.15 0.75 15.4 0.05 15.4 -0.65 15.4 -2.45 13.15 -5.0 10.1 -6.85 8.55 -10.5 5.5 -12.45 3.3 -15.3 0.15 -16.25 -3.0 -18.4 -10.05 -13.75 -15.0 -10.4 -18.6 -4.85 -16.0 -2.05 -14.6 0.05 -12.55 2.1 -14.6 4.9 -16.0 10.4 -18.6 13.8 -15.0" fill="#bd6918" fill-rule="evenodd" stroke="none"/>
      <path d="M13.55 -0.5 Q15.85 -7.9 10.9 -13.1 8.65 -15.5 5.55 -15.3 10.35 -17.5 13.35 -14.35 17.55 -9.9 15.6 -3.55 14.85 -1.1 12.75 1.45 L13.55 -0.5" fill="#ffffff" fill-opacity="0.4" fill-rule="evenodd" stroke="none"/>
      <path d="M-1.0 -11.7 L-2.9 -10.0 Q-5.75 -12.85 -9.6 -14.75 L-11.7 -15.6 Q-9.05 -16.45 -5.55 -14.8 -3.0 -13.5 -1.0 -11.7" fill="#ffffff" fill-opacity="0.4" fill-rule="evenodd" stroke="none"/>
      <path d="M-15.0 -0.3 Q-12.35 3.0 -9.25 4.95 L-12.05 2.15 Q-14.9 -1.0 -15.85 -4.15 -16.45 -6.2 -16.5 -8.05 -15.3 -4.35 -11.85 -0.6 -9.4 2.05 -4.85 5.75 L-3.0 7.35 0.3 7.65 Q8.1 7.65 13.9 1.6 L12.5 3.3 Q10.55 5.5 6.9 8.55 5.0 10.1 2.55 13.15 0.75 15.4 0.05 15.4 -0.65 15.4 -2.45 13.15 -5.0 10.1 -6.85 8.55 -10.5 5.5 -12.45 3.3 -14.25 1.3 -15.25 -0.65 L-15.0 -0.3" fill="#7b4a1b" fill-rule="evenodd" stroke="none"/>
      <path d="M16.65 -4.2 Q-1.1 0.45 -16.6 -4.35 -17.1 -6.65 -16.85 -8.65 -1.2 -3.3 16.95 -8.4 17.15 -6.4 16.65 -4.2 M16.6 -10.25 Q-1.05 -5.65 -16.45 -10.4 -15.9 -12.35 -14.55 -14.05 -0.85 -10.1 14.7 -13.95 16.0 -12.25 16.6 -10.25 M-6.85 8.55 L-7.9 8.1 Q-4.7 8.55 2.15 8.3 L8.0 8.05 6.9 8.55 Q5.2 9.95 3.1 12.5 L-2.95 12.55 -6.85 8.55" fill="#00ff00" fill-rule="evenodd" stroke="none"/>
      <path d="M16.65 -4.2 Q-1.1 0.45 -16.6 -4.35 -17.1 -6.65 -16.85 -8.65 -1.2 -3.3 16.95 -8.4 17.15 -6.4 16.65 -4.2 M16.6 -10.25 Q-1.05 -5.65 -16.45 -10.4 -15.9 -12.35 -14.55 -14.05 -0.85 -10.1 14.7 -13.95 16.0 -12.25 16.6 -10.25 M-6.85 8.55 L-2.95 12.55 3.1 12.5 Q5.2 9.95 6.9 8.55 L8.0 8.05 2.15 8.3 Q-4.7 8.55 -7.9 8.1 L-6.85 8.55 Z" fill="none" stroke="#5b2e03" stroke-linecap="round" stroke-linejoin="round" stroke-width="1.0"/>
      <path d="M16.6 -10.25 Q-1.05 -5.65 -16.45 -10.4 -15.9 -12.35 -14.55 -14.05 -0.85 -10.1 14.7 -13.95 16.0 -12.25 16.6 -10.25 M16.65 -4.2 Q-1.1 0.45 -16.6 -4.35 -17.1 -6.65 -16.85 -8.65 -1.2 -3.3 16.95 -8.4 17.15 -6.4 16.65 -4.2 M-2.95 12.55 L-6.85 8.55 -7.4 8.1 Q-4.2 8.55 2.15 8.3 L7.5 8.05 6.9 8.55 Q5.2 9.95 3.1 12.5 L-2.95 12.55" fill="#bd6918" fill-rule="evenodd" stroke="none"/>
      <path d="M9.15 -0.5 Q10.0 0.65 10.0 2.3 10.0 3.95 9.15 5.1 8.3 6.2 7.15 6.2 6.0 6.2 5.15 5.1 4.3 3.95 4.3 2.3 4.3 0.65 5.15 -0.5 6.0 -1.65 7.15 -1.65 8.3 -1.65 9.15 -0.5 M15.8 -1.55 Q14.7 0.85 12.5 3.3 L11.8 4.1 Q11.0 2.95 11.0 1.35 11.0 -0.3 11.85 -1.45 12.7 -2.6 13.85 -2.6 14.95 -2.6 15.8 -1.55 M2.2 5.9 Q1.35 7.0 0.2 7.0 -0.95 7.0 -1.8 5.9 -2.65 4.75 -2.65 3.1 -2.65 1.45 -1.8 0.3 -0.95 -0.85 0.2 -0.85 1.35 -0.85 2.2 0.3 3.05 1.45 3.05 3.1 3.05 4.75 2.2 5.9 M-4.75 -0.5 Q-3.9 0.65 -3.9 2.3 -3.9 3.95 -4.75 5.1 -5.6 6.2 -6.75 6.2 -7.9 6.2 -8.75 5.1 -9.6 3.95 -9.6 2.3 -9.6 0.65 -8.75 -0.5 -7.9 -1.65 -6.75 -1.65 -5.6 -1.65 -4.75 -0.5 M-15.4 -1.7 Q-14.55 -2.85 -13.4 -2.85 -12.25 -2.85 -11.4 -1.7 -10.55 -0.55 -10.55 1.1 -10.55 2.75 -11.4 3.9 L-11.6 4.2 -12.45 3.3 Q-14.55 0.95 -15.6 -1.35 L-15.4 -1.7 Z" fill="none" stroke="#5b2e03" stroke-linecap="round" stroke-linejoin="round" stroke-width="1.0"/>
      <path d="M13.85 -1.6 Q12.7 -1.6 11.85 -0.45 11.0 0.7 11.0 2.35 11.0 3.5 11.45 4.45 L12.5 3.3 Q14.4 1.2 15.45 -0.9 14.55 -1.6 13.85 -1.6 M9.15 6.1 Q8.3 7.2 7.15 7.2 6.0 7.2 5.15 6.1 4.3 4.95 4.3 3.3 4.3 1.65 5.15 0.5 6.0 -0.65 7.15 -0.65 8.3 -0.65 9.15 0.5 10.0 1.65 10.0 3.3 10.0 4.95 9.15 6.1 M3.05 4.1 Q3.05 5.75 2.2 6.9 1.35 8.0 0.2 8.0 -0.95 8.0 -1.8 6.9 -2.65 5.75 -2.65 4.1 -2.65 2.45 -1.8 1.3 -0.95 0.15 0.2 0.15 1.35 0.15 2.2 1.3 3.05 2.45 3.05 4.1 M-11.4 -0.7 Q-10.55 0.45 -10.55 2.1 -10.55 3.55 -11.2 4.65 L-12.45 3.3 Q-14.3 1.25 -15.35 -0.75 -14.5 -1.85 -13.4 -1.85 -12.25 -1.85 -11.4 -0.7 M-4.75 6.1 Q-5.6 7.2 -6.75 7.2 -7.9 7.2 -8.75 6.1 -9.6 4.95 -9.6 3.3 -9.6 1.65 -8.75 0.5 -7.9 -0.65 -6.75 -0.65 -5.6 -0.65 -4.75 0.5 -3.9 1.65 -3.9 3.3 -3.9 4.95 -4.75 6.1 Z" fill="none" stroke="#5b2e03" stroke-linecap="round" stroke-linejoin="round" stroke-width="1.0"/>
      <path d="M15.8 -1.55 Q14.7 0.85 12.5 3.3 L11.8 4.1 Q11.0 2.95 11.0 1.35 11.0 -0.3 11.85 -1.45 12.7 -2.6 13.85 -2.6 14.95 -2.6 15.8 -1.55 M9.15 -0.5 Q10.0 0.65 10.0 2.3 10.0 3.95 9.15 5.1 8.3 6.2 7.15 6.2 6.0 6.2 5.15 5.1 4.3 3.95 4.3 2.3 4.3 0.65 5.15 -0.5 6.0 -1.65 7.15 -1.65 8.3 -1.65 9.15 -0.5 M2.2 5.9 Q1.35 7.0 0.2 7.0 -0.95 7.0 -1.8 5.9 -2.65 4.75 -2.65 3.1 -2.65 1.45 -1.8 0.3 -0.95 -0.85 0.2 -0.85 1.35 -0.85 2.2 0.3 3.05 1.45 3.05 3.1 3.05 4.75 2.2 5.9 M-15.4 -1.7 Q-14.55 -2.85 -13.4 -2.85 -12.25 -2.85 -11.4 -1.7 -10.55 -0.55 -10.55 1.1 -10.55 2.75 -11.4 3.9 L-11.6 4.2 -12.45 3.3 Q-14.55 0.95 -15.6 -1.35 L-15.4 -1.7 M-4.75 -0.5 Q-3.9 0.65 -3.9 2.3 -3.9 3.95 -4.75 5.1 -5.6 6.2 -6.75 6.2 -7.9 6.2 -8.75 5.1 -9.6 3.95 -9.6 2.3 -9.6 0.65 -8.75 -0.5 -7.9 -1.65 -6.75 -1.65 -5.6 -1.65 -4.75 -0.5" fill="#db9a5a" fill-opacity="0.9882353" fill-rule="evenodd" stroke="none"/>
      <path d="M13.85 -1.6 Q14.55 -1.6 15.45 -0.9 14.4 1.2 12.5 3.3 L11.45 4.45 Q11.0 3.5 11.0 2.35 11.0 0.7 11.85 -0.45 12.7 -1.6 13.85 -1.6 M10.0 3.3 Q10.0 4.95 9.15 6.1 8.3 7.2 7.15 7.2 6.0 7.2 5.15 6.1 4.3 4.95 4.3 3.3 4.3 1.65 5.15 0.5 6.0 -0.65 7.15 -0.65 8.3 -0.65 9.15 0.5 10.0 1.65 10.0 3.3 M3.05 4.1 Q3.05 5.75 2.2 6.9 1.35 8.0 0.2 8.0 -0.95 8.0 -1.8 6.9 -2.65 5.75 -2.65 4.1 -2.65 2.45 -1.8 1.3 -0.95 0.15 0.2 0.15 1.35 0.15 2.2 1.3 3.05 2.45 3.05 4.1 M-11.4 -0.7 Q-10.55 0.45 -10.55 2.1 -10.55 3.55 -11.2 4.65 L-12.45 3.3 Q-14.3 1.25 -15.35 -0.75 -14.5 -1.85 -13.4 -1.85 -12.25 -1.85 -11.4 -0.7 M-4.75 6.1 Q-5.6 7.2 -6.75 7.2 -7.9 7.2 -8.75 6.1 -9.6 4.95 -9.6 3.3 -9.6 1.65 -8.75 0.5 -7.9 -0.65 -6.75 -0.65 -5.6 -0.65 -4.75 0.5 -3.9 1.65 -3.9 3.3 -3.9 4.95 -4.75 6.1" fill="#bd6918" fill-opacity="0.9882353" fill-rule="evenodd" stroke="none"/>
      <path d="M-13.4 -1.85 L-12.9 -1.8 -11.85 -0.6 -10.75 0.55 -10.55 2.1 -10.7 3.55 -12.05 2.15 Q-13.65 0.35 -14.65 -1.4 -14.1 -1.85 -13.4 -1.85 M-15.0 -0.3 Q-13.05 2.15 -10.8 3.85 L-11.2 4.65 -12.45 3.3 Q-14.25 1.3 -15.25 -0.65 L-15.0 -0.3 M-16.5 -8.05 Q-15.8 -5.9 -14.35 -3.7 L-15.85 -4.15 Q-16.45 -6.2 -16.5 -8.05 M-4.6 5.95 L-4.75 6.1 Q-5.6 7.2 -6.75 7.2 -7.9 7.2 -8.75 6.1 L-9.4 4.85 -9.25 4.95 -9.4 4.8 -9.6 3.3 -9.4 1.85 -4.85 5.75 -4.6 5.95 M-7.4 8.1 Q-4.2 8.55 2.15 8.3 L7.5 8.05 6.9 8.55 Q5.2 9.95 3.1 12.5 L-2.95 12.55 -6.85 8.55 -7.4 8.1 M13.9 1.6 L12.5 3.3 11.45 4.45 11.25 4.0 13.9 1.6 M9.15 6.1 Q8.3 7.2 7.15 7.2 6.45 7.2 5.9 6.8 8.25 6.05 10.4 4.6 L9.75 5.05 9.15 6.1 M2.05 7.6 L1.45 7.65 0.2 8.0 Q-0.5 8.0 -1.05 7.6 L0.3 7.65 2.05 7.6" fill="#7b4a1b" fill-rule="evenodd" stroke="none"/>
      <path d="M14.7 -13.95 Q16.0 -12.25 16.6 -10.25 L14.25 -9.7 Q13.4 -11.5 11.9 -13.1 L11.75 -13.25 14.7 -13.95 M15.25 -3.85 Q15.4 -5.95 14.95 -7.85 L16.95 -8.4 Q17.15 -6.4 16.65 -4.2 L15.25 -3.85" fill="#ffffff" fill-opacity="0.4" fill-rule="evenodd" stroke="none"/>
      <path d="M17.0 -7.05 Q-1.15 -2.25 -16.9 -7.25 L-16.85 -8.65 Q-1.2 -3.35 16.95 -8.4 L17.0 -7.05 M15.55 -12.65 Q-0.95 -8.55 -15.5 -12.65 L-14.55 -14.05 Q-0.85 -10.1 14.7 -13.95 L15.55 -12.65 M-5.75 9.55 L-6.85 8.55 -7.4 8.1 Q-4.2 8.55 2.15 8.3 L7.5 8.05 6.9 8.55 5.85 9.5 Q-0.1 10.1 -5.75 9.55" fill="#db9a5a" fill-rule="evenodd" stroke="none"/>
      <path d="M2.15 8.3 L7.5 8.05 6.9 8.55 5.85 9.5 Q-0.1 10.1 -5.75 9.55 L-6.85 8.55 -7.4 8.1 Q-4.2 8.55 2.15 8.3" fill="#bd6918" fill-rule="evenodd" stroke="none"/>
    </g>
  </defs>
</svg>
