<?xml version="1.0" encoding="UTF-8" standalone="no"?>
<!-- Created with Inkscape (http://www.inkscape.org/) -->

<svg
   width="264.50723mm"
   height="257.63062mm"
   viewBox="0 0 264.50723 257.63062"
   version="1.1"
   id="svg1"
   xml:space="preserve"
   inkscape:version="1.4 (e7c3feb1, 2024-10-09)"
   sodipodi:docname="btd5-restored-icon2.svg"
   xmlns:inkscape="http://www.inkscape.org/namespaces/inkscape"
   xmlns:sodipodi="http://sodipodi.sourceforge.net/DTD/sodipodi-0.dtd"
   xmlns="http://www.w3.org/2000/svg"
   xmlns:svg="http://www.w3.org/2000/svg"><sodipodi:namedview
     id="namedview1"
     pagecolor="#505050"
     bordercolor="#ffffff"
     borderopacity="1"
     inkscape:showpageshadow="0"
     inkscape:pageopacity="0"
     inkscape:pagecheckerboard="1"
     inkscape:deskcolor="#505050"
     inkscape:document-units="mm"
     inkscape:zoom="0.32203205"
     inkscape:cx="409.89709"
     inkscape:cy="566.71378"
     inkscape:window-width="1440"
     inkscape:window-height="740"
     inkscape:window-x="0"
     inkscape:window-y="30"
     inkscape:window-maximized="1"
     inkscape:current-layer="layer1" /><defs
     id="defs1" /><g
     inkscape:label="Layer 1"
     inkscape:groupmode="layer"
     id="layer1"
     transform="translate(-320.57592,-37.037597)"><g
       id="g11031"
       transform="translate(51.280761,1.971015)"><path
         style="display:inline;fill:#000000;fill-opacity:1"
         d="m 413.85217,292.6947 c -1.89177,-0.0199 -5.16599,-0.12675 -7.27604,-0.23742 -2.11006,-0.11067 -5.6224,-0.39567 -7.80521,-0.63334 -2.18281,-0.23766 -5.57609,-0.67319 -7.54063,-0.96784 -1.96453,-0.29465 -5.35781,-0.89006 -7.54062,-1.32315 -2.18281,-0.43308 -5.33797,-1.14536 -7.01146,-1.58283 -1.67349,-0.43748 -4.41193,-1.25354 -6.08541,-1.81347 -1.6735,-0.55993 -4.47146,-1.63113 -6.21771,-2.38045 -1.74625,-0.74932 -4.76139,-2.1919 -6.7003,-3.20572 -1.93891,-1.01383 -4.975,-2.76076 -6.74687,-3.88208 -1.77187,-1.12131 -4.5908,-3.06934 -6.26429,-4.32896 -1.67349,-1.25961 -4.11427,-3.2199 -5.42396,-4.35621 -1.30969,-1.1363 -3.92906,-3.60924 -5.82083,-5.49541 l -3.43958,-3.4294 -4.36563,-0.0665 c -3.50698,-0.0534 -4.96407,-0.19765 -7.40833,-0.73345 -1.67349,-0.36684 -4.11427,-1.04527 -5.42396,-1.50762 -1.30969,-0.46234 -3.92906,-1.59184 -5.82083,-2.50999 -1.89178,-0.91814 -4.44827,-2.35347 -5.68109,-3.18961 -1.23283,-0.83614 -2.84018,-1.9849 -3.57188,-2.55279 -0.7317,-0.5679 -2.58052,-2.1869 -4.10849,-3.59778 -1.52797,-1.41088 -4.11252,-3.99399 -5.74346,-5.74024 -1.63093,-1.74625 -3.96284,-4.42516 -5.18203,-5.95313 -1.21919,-1.52797 -2.98683,-3.84969 -3.9281,-5.15937 -0.94127,-1.30969 -2.37809,-3.46272 -3.19293,-4.78451 -0.81485,-1.32179 -1.8948,-3.22679 -2.3999,-4.23333 -0.50509,-1.00654 -1.23227,-2.704 -1.61595,-3.77212 -0.38368,-1.06813 -1.00362,-3.56844 -1.37764,-5.55625 -0.48697,-2.5881 -0.71981,-4.89121 -0.82011,-8.11212 -0.10429,-3.34897 -0.0286,-5.34037 0.29622,-7.79594 0.23996,-1.81392 0.77993,-4.73095 1.19993,-6.4823 0.42001,-1.75134 1.26495,-4.61301 1.87765,-6.35926 0.61271,-1.74625 1.61123,-4.3061 2.21895,-5.68854 l 1.10493,-2.51355 -0.63476,-1.83526 c -0.34912,-1.0094 -1.03312,-3.41691 -1.51999,-5.35004 -0.48688,-1.93313 -1.09667,-4.79819 -1.3551,-6.36682 -0.27061,-1.64255 -0.47126,-4.25459 -0.47316,-6.15933 -0.003,-2.88233 0.10875,-3.74464 0.86864,-6.71096 0.47956,-1.87202 1.28964,-4.61046 1.80018,-6.08542 0.51053,-1.47496 1.52006,-4.09461 2.2434,-5.82144 0.72334,-1.72683 2.25719,-5.00105 3.40855,-7.27604 1.15137,-2.27499 2.64781,-5.14838 3.32542,-6.38531 0.67761,-1.23693 2.20118,-3.79677 3.38571,-5.68854 1.18453,-1.89177 3.15822,-4.84757 4.38598,-6.56844 1.22777,-1.72088 3.2965,-4.45932 4.59719,-6.08542 1.30069,-1.62611 3.52577,-4.266247 4.94463,-5.866976 1.41885,-1.60073 4.58843,-4.874948 7.0435,-7.276042 2.45508,-2.401093 6.18932,-5.771275 8.29832,-7.489293 2.10901,-1.718018 5.2892,-4.158799 7.06711,-5.423958 1.7779,-1.265159 4.57587,-3.108277 6.2177,-4.095817 1.64184,-0.98754 5.36641,-2.968567 8.27683,-4.402283 2.91041,-1.433716 7.14492,-3.389999 9.41002,-4.347296 2.2651,-0.957297 6.95872,-2.826854 10.43026,-4.154571 3.47155,-1.327716 7.98813,-3.00253 10.03685,-3.721807 2.04872,-0.719278 6.56309,-2.199102 10.03192,-3.2885 3.46884,-1.089397 8.56389,-2.629175 11.32235,-3.421729 2.75846,-0.792554 7.83797,-2.152516 11.28782,-3.022138 3.44984,-0.869621 8.83228,-2.175384 11.96098,-2.901694 3.1287,-0.726311 8.06979,-1.801194 10.98021,-2.388631 2.91041,-0.587436 7.79198,-1.483237 10.84791,-1.990669 3.05594,-0.507431 6.80641,-1.102237 8.33438,-1.32179 1.52797,-0.219553 5.04031,-0.639787 7.80521,-0.933854 2.76489,-0.294066 6.15817,-0.666025 7.54062,-0.826574 1.38245,-0.160549 6.32354,-0.356146 10.98021,-0.43466 5.45199,-0.09192 9.78152,-0.03228 12.15942,0.1675 2.03102,0.170639 5.36477,0.651503 7.40833,1.068585 2.04357,0.417083 4.78714,1.135569 6.09683,1.596635 1.30969,0.461067 3.33375,1.294944 4.49792,1.85306 1.16416,0.558117 2.9501,1.632508 3.96875,2.387536 1.01864,0.755028 2.36767,1.866701 2.99784,2.470385 0.63016,0.603684 1.95368,2.109638 2.94115,3.346565 0.98747,1.236927 2.32349,3.082396 2.96893,4.101042 0.64544,1.018646 1.66134,2.747227 2.25756,3.841292 0.59621,1.094065 1.61691,3.177659 2.26823,4.630208 0.65131,1.45255 1.61953,3.806421 2.1516,5.230825 0.53207,1.424404 1.56095,4.635678 2.28641,7.136163 0.72545,2.500485 1.72766,6.454751 2.22713,8.787257 0.49947,2.332506 1.14927,5.66967 1.444,7.41592 0.29473,1.74625 0.89064,5.972968 1.32425,9.392707 0.43361,3.419742 0.96627,8.479902 1.18369,11.244792 0.21742,2.7649 0.53891,9.07521 0.71442,14.02292 0.24665,6.95291 0.24851,10.88854 0.008,17.33021 -0.17103,4.5839 -0.48893,10.17984 -0.70645,12.43541 -0.21752,2.25558 -0.64434,5.64886 -0.9485,7.54063 -0.30415,1.89177 -0.84025,4.43157 -1.19133,5.64399 l -0.63834,2.20441 1.2302,1.36747 c 0.67661,0.7521 1.67496,2.0223 2.21856,2.82267 0.5436,0.80036 1.52504,2.52677 2.18097,3.83646 0.65594,1.30968 1.50305,3.24518 1.88248,4.3011 0.37943,1.05591 0.93585,3.07997 1.2365,4.49791 0.35752,1.68613 0.60098,4.09359 0.70371,6.95853 0.0954,2.66216 0.035,5.56818 -0.15404,7.40833 -0.17111,1.66533 -0.49153,4.09944 -0.71204,5.40913 -0.22052,1.30968 -0.70077,3.75046 -1.06723,5.42395 -0.36647,1.67349 -1.19403,4.90159 -1.83903,7.17356 -0.645,2.27197 -1.63259,5.36759 -2.19465,6.87917 -0.56206,1.51157 -1.46535,3.81988 -2.00732,5.12956 -0.54198,1.30969 -1.94934,4.27328 -3.12747,6.58575 -1.17814,2.31247 -3.09381,5.64622 -4.25706,7.40833 -1.43456,2.17311 -2.92978,4.01343 -4.64762,5.72031 -1.39295,1.38406 -3.15308,2.84748 -3.9114,3.25206 -0.75833,0.40457 -3.06183,1.32764 -5.11889,2.05125 -2.05707,0.72362 -5.18709,1.60472 -6.9556,1.95799 -1.76852,0.35327 -3.55471,0.67905 -3.9693,0.72394 -0.65208,0.0706 -0.96974,0.45659 -2.35358,2.85975 -0.87986,1.52797 -2.29699,3.8156 -3.14916,5.08363 -0.85217,1.26803 -2.42202,3.35162 -3.48856,4.63021 -1.06654,1.27858 -2.9655,3.29392 -4.21992,4.47852 -1.25441,1.1846 -3.13024,2.71856 -4.1685,3.40879 -1.03827,0.69024 -3.09796,1.8837 -4.57711,2.65214 -1.47915,0.76844 -4.17764,2.01757 -5.99665,2.77585 -1.81901,0.75827 -4.8551,1.8873 -6.74688,2.50895 -1.89177,0.62165 -5.16598,1.5552 -7.27604,2.07456 -2.11005,0.51936 -5.86052,1.29921 -8.33437,1.73301 -2.47386,0.4338 -5.92667,0.96823 -7.67292,1.18763 -1.74625,0.2194 -4.54422,0.52418 -6.21771,0.67729 -1.67348,0.15311 -5.1263,0.39492 -7.67291,0.53735 -2.54662,0.14243 -6.17802,0.24267 -8.06979,0.22276 z"
         id="path11019"
         sodipodi:nodetypes="csssssssssssscssssssssssssssssssscssscsssssssssssssssssssssssssssssssssssssssssssscssscsssssssssssssssssssssssssssssssscc" /><path
         style="display:inline;fill:#70381f;fill-opacity:1"
         d="m 415.43967,278.92846 c -3.92907,-0.024 -7.73906,-0.0828 -8.46667,-0.13083 -0.7276,-0.048 -3.52557,-0.32833 -6.21771,-0.623 -2.69213,-0.29468 -6.85932,-0.89733 -9.26041,-1.33923 -2.4011,-0.44189 -6.15156,-1.26052 -8.33438,-1.81917 -2.18281,-0.55865 -5.15937,-1.3957 -6.61458,-1.86011 -1.45521,-0.46441 -4.31271,-1.50143 -6.35,-2.30449 -2.03729,-0.80306 -5.20763,-2.21322 -7.04521,-3.1337 -1.83757,-0.92047 -4.39741,-2.29501 -5.68854,-3.05454 -1.29112,-0.75952 -3.38828,-2.07805 -4.66036,-2.93007 -1.27207,-0.85201 -3.47472,-2.487 -4.89479,-3.63331 -1.42006,-1.14631 -3.76292,-3.25728 -5.20635,-4.69105 -1.44344,-1.43376 -3.4675,-3.62789 -4.49792,-4.87585 -1.03042,-1.24796 -2.11605,-2.60591 -2.41252,-3.01767 l -0.53902,-0.74865 -2.2391,0.37184 c -1.24849,0.20732 -3.99494,0.36817 -6.20786,0.36356 -2.29403,-0.005 -4.63863,-0.15655 -5.55624,-0.35967 -0.87313,-0.19328 -2.54,-0.64895 -3.70417,-1.0126 -1.16417,-0.36365 -3.18823,-1.19517 -4.49792,-1.84782 -1.30968,-0.65266 -3.69094,-2.04852 -5.29166,-3.10193 -1.60073,-1.05341 -3.80339,-2.6312 -4.8948,-3.50621 -1.0914,-0.875 -2.85359,-2.39998 -3.91596,-3.38884 -1.06238,-0.98885 -2.89067,-2.94206 -4.06287,-4.34046 -1.1722,-1.39839 -3.06689,-3.95139 -4.21043,-5.67332 -1.14354,-1.72193 -2.67267,-4.3413 -3.39806,-5.82083 -0.7254,-1.47953 -1.73362,-3.94021 -2.2405,-5.46818 -0.50687,-1.52797 -1.10729,-3.69105 -1.33427,-4.80685 -0.22697,-1.11581 -0.52437,-3.31507 -0.66089,-4.88725 -0.15253,-1.75668 -0.15457,-4.00731 -0.005,-5.8389 0.13361,-1.63923 0.47493,-4.04344 0.7585,-5.3427 0.28357,-1.29926 0.88724,-3.47382 1.34149,-4.83235 0.45425,-1.35854 1.4337,-3.75172 2.17655,-5.31818 l 1.35065,-2.8481 5.45995,-1.31646 c 1.49218,-0.35978 6.63448,0.71474 7.58773,1.38878 0.95326,0.67404 2.42456,3.88433 3.8724,4.60205 1.44784,0.71771 2.38247,1.47688 3.76492,1.92817 1.38244,0.45129 1.19267,0.37627 2.47192,0.67727 1.27926,0.301 1.7284,-1.28749 3.65061,-0.99806 2.23635,0.33674 4.75089,2.16182 8.56022,2.26349 3.58915,0.0958 6.95006,0.23309 9.66186,0.0462 2.47385,-0.17051 5.23891,-1.48086 5.55583,-0.86151 l 2.24168,4.38085 -0.9141,1.97847 c -0.50276,1.08815 -1.22079,3.03675 -1.59562,4.33021 -0.37483,1.29346 -0.87854,3.48426 -1.11935,4.86843 -0.31604,1.81655 -0.43958,4.13605 -0.44407,8.33752 -0.005,4.27788 0.11758,6.6174 0.46084,8.82589 0.25688,1.65277 0.77119,3.97449 1.14292,5.15937 0.37172,1.18488 1.07111,3.01482 1.55419,4.06653 0.48307,1.05172 1.49801,2.80862 2.25541,3.90424 0.7574,1.09562 2.13421,2.70028 3.05957,3.56591 0.92537,0.86564 2.36851,2.03937 3.20697,2.60829 0.83847,0.56893 2.35793,1.4536 3.37658,1.96594 1.01864,0.51234 2.92364,1.31067 4.23333,1.77406 1.30969,0.4634 3.33375,1.06743 4.49792,1.34229 1.16416,0.27487 3.62437,0.68332 5.46712,0.90768 1.93743,0.23589 5.47457,0.40793 8.38697,0.40793 3.02176,0 6.28556,-0.16368 8.15892,-0.40917 1.71732,-0.22505 4.18482,-0.64099 5.48333,-0.92432 1.29852,-0.28332 2.40101,-0.47506 2.45,-0.42607 0.049,0.049 -0.14832,1.4776 -0.43845,3.1747 -0.29014,1.6971 -0.83651,4.30538 -1.21416,5.79618 -0.37765,1.49081 -1.10893,3.84165 -1.62507,5.22409 -0.51614,1.38245 -1.47412,3.58511 -2.12885,4.8948 -0.65472,1.30968 -1.69159,3.15515 -2.30414,4.10104 -0.61255,0.94588 -1.83965,2.63045 -2.72688,3.74348 l -1.61315,2.02369 0.84176,0.12245 c 0.46297,0.0673 3.93738,0.55317 7.72093,1.07961 3.78354,0.52643 9.08182,1.14437 11.77396,1.37319 2.69213,0.22882 8.49708,0.48642 12.89988,0.57245 5.15223,0.10067 9.63113,0.0433 12.56771,-0.16108 2.50944,-0.17462 6.52432,-0.55821 8.92195,-0.85241 2.39764,-0.2942 6.02904,-0.82769 8.06979,-1.18554 2.04075,-0.35785 5.37733,-1.05379 7.41462,-1.54653 2.03729,-0.49275 5.67619,-1.4921 8.08644,-2.22077 2.41025,-0.72867 5.96509,-1.94168 7.89965,-2.69557 l 3.51739,-1.37072 -0.17938,-2.02081 c -0.0987,-1.11145 -0.41389,-3.19436 -0.70051,-4.6287 -0.28663,-1.43433 -0.94077,-3.87511 -1.45364,-5.42395 -0.51288,-1.54885 -1.63407,-4.24483 -2.49153,-5.99108 -0.85747,-1.74625 -2.27848,-4.2831 -3.15779,-5.63744 -0.87931,-1.35434 -1.59875,-2.49986 -1.59875,-2.5456 0,-0.0457 0.58497,-0.16077 1.29995,-0.25561 0.71497,-0.0948 2.7934,-0.58175 4.61873,-1.08202 1.82533,-0.50027 4.63818,-1.49832 6.25079,-2.2179 1.6126,-0.71957 3.95629,-1.94464 5.20819,-2.72237 1.25191,-0.77774 3.34438,-2.42265 4.64995,-3.65536 1.30557,-1.23271 2.84687,-2.93796 3.4251,-3.78946 0.57824,-0.85149 1.39396,-2.28368 1.81271,-3.18266 0.41876,-0.89897 1.06314,-2.76559 1.43197,-4.14804 0.36882,-1.38245 0.87463,-3.82323 1.12401,-5.42396 0.32183,-2.0657 0.45103,-4.48465 0.44516,-8.33437 -0.006,-4.021 -0.13082,-6.10833 -0.48209,-8.06979 -0.2606,-1.45521 -0.76643,-3.65787 -1.12406,-4.8948 -0.35764,-1.23692 -0.99207,-3.10282 -1.40985,-4.14643 -0.41778,-1.04362 -1.27296,-2.73557 -1.9004,-3.75989 -0.62743,-1.02432 -1.7162,-2.52543 -2.41949,-3.33578 -0.70328,-0.81035 -1.85781,-1.86337 -2.56561,-2.34003 l -1.2869,-0.86665 3.84801,-3.38623 c 1.9632,-1.72761 1.46891,-1.02328 7.6332,-1.17564 3.4925,-0.0863 6.51332,-0.81428 7.67749,-1.01484 1.16416,-0.20055 2.94715,2.92773 2.99764,2.97299 0.0505,0.0452 -0.16544,2.62066 -0.47984,5.72312 -0.3144,3.10246 -0.86715,7.78397 -1.22834,10.40334 -0.36119,2.61938 -1.01181,6.88424 -1.44583,9.47747 -0.43402,2.59323 -1.20954,6.76042 -1.72337,9.26041 -0.51384,2.5 -1.40971,6.45045 -1.99082,8.77879 -0.58112,2.32833 -1.59201,6.05791 -2.24644,8.28795 -0.65443,2.23004 -1.70413,5.50426 -2.33268,7.27604 -0.62854,1.77178 -1.94607,5.24549 -2.92783,7.71934 -0.98177,2.47385 -2.64493,6.28385 -3.69593,8.46667 -1.05099,2.18281 -2.8378,5.57609 -3.97068,7.54062 -1.13287,1.96453 -2.77622,4.61903 -3.65188,5.8989 -0.87565,1.27986 -2.20049,2.8641 -2.94409,3.52053 -0.74359,0.65644 -2.12589,1.70573 -3.07177,2.33177 -0.94589,0.62603 -2.43364,1.52436 -3.30613,1.99628 -0.87248,0.47192 -2.78493,1.36999 -4.2499,1.99572 -1.46496,0.62572 -4.34222,1.6782 -6.39391,2.33885 -2.05169,0.66064 -5.19939,1.56088 -6.99489,2.00053 -1.7955,0.43964 -4.90642,1.10096 -6.91315,1.46959 -2.00673,0.36863 -5.16189,0.84611 -7.01146,1.06108 -1.84957,0.21497 -5.14879,0.51136 -7.3316,0.65866 -2.18282,0.1473 -7.18344,0.2482 -11.1125,0.22422 z m 75.36287,-35.1424 -1.63088,0.005 1.43244,-3.56938 c 0.78784,-1.96316 1.43244,-3.7491 1.43244,-3.96875 0,-0.21965 0.10244,-0.37112 0.22664,-0.33322 0.74843,0.22838 12.00252,-36.71591 9.85091,-39.88593 l 0.53244,-3.43959 c 0.29285,-1.89177 0.85574,-6.17802 1.25087,-9.525 l 0.71843,-6.08541 h 2.91102 c 2.76207,0 3.00225,0.0449 4.6938,0.87807 1.0329,0.50873 2.35024,1.45454 3.13186,2.24859 0.74199,0.75378 1.69572,2.05723 2.11941,2.89655 0.42369,0.83932 1.03223,2.56589 1.35232,3.83683 0.50236,1.99463 0.58244,3.03478 0.58535,7.60246 0.002,2.97092 -0.14774,6.336 -0.34119,7.67291 -0.18951,1.30969 -0.63971,3.84064 -1.00045,5.62433 -0.36075,1.78369 -1.12747,4.85576 -1.70385,6.82682 -0.57637,1.97106 -1.59711,4.97652 -2.26831,6.6788 -0.6712,1.70228 -1.93217,4.5238 -2.80215,6.27005 -0.86998,1.74625 -2.35898,4.36563 -3.3089,5.82083 -1.07678,1.64954 -2.68601,3.60232 -4.2736,5.18594 -1.98995,1.98498 -2.98016,2.75213 -4.53085,3.51026 -1.34562,0.65786 -2.75089,1.09496 -4.36563,1.35788 -1.30968,0.21325 -3.11514,0.3898 -4.01212,0.39235 z m -59.37807,-33.59747 c -0.091,0 -0.64631,-0.68461 -1.23406,-1.52135 -0.58775,-0.83675 -1.92533,-2.59292 -2.9724,-3.9026 -1.04707,-1.30969 -3.40729,-4.10766 -5.24494,-6.21771 -1.83764,-2.11005 -5.39888,-5.89029 -7.91386,-8.40052 l -4.5727,-4.56407 5.09325,-2.96141 c 2.80128,-10e-4 7.31631,-0.77151 10.15396,-0.98878 2.83766,-0.21727 6.29047,0.36606 7.67292,0.21118 1.38245,-0.15488 4.81031,-1.36597 7.61747,-1.72676 2.80716,-0.36079 -2.54641,-4.06202 5.86364,-0.23847 l 4.60694,2.0945 -1.80443,1.87095 c -0.99244,1.02902 -2.79921,3.1211 -4.01506,4.64907 -1.21584,1.52797 -3.30163,4.445 -4.63509,6.48229 -1.33345,2.03729 -3.08867,4.89479 -3.90049,6.35 -0.81181,1.45521 -2.16761,4.04482 -3.01287,5.75469 -0.84527,1.70987 -1.61129,3.10885 -1.70228,3.10885 z"
         id="path11023"
         sodipodi:nodetypes="sssssssssssssscscsssssssssssscssscssssssssscssscsssssssssssssssssssscsssssssssscssssssssssssssscsssssscssssssssssssssssssssssssssccssscsscssssssssssssssscccssssccsssscssssscc" /><path
         style="display:inline;fill:#bf7926;fill-opacity:1"
         d="m 414.77821,273.63915 c -3.8563,-0.0253 -7.60677,-0.0841 -8.33438,-0.13072 -0.7276,-0.0466 -3.76319,-0.27132 -6.74575,-0.49932 -2.98256,-0.228 -8.3999,-0.82974 -12.03854,-1.33721 -3.63864,-0.50746 -7.05223,-0.99002 -7.58575,-1.07235 l -0.97005,-0.1497 1.60915,-2.01865 c 0.88502,-1.11026 2.11032,-2.79256 2.72287,-3.73844 0.61256,-0.94589 1.64942,-2.79136 2.30414,-4.10104 0.65473,-1.30969 1.61271,-3.51235 2.12885,-4.8948 0.51614,-1.38244 1.24742,-3.73328 1.62507,-5.22409 0.37765,-1.4908 0.92402,-4.09908 1.21416,-5.79618 0.29013,-1.6971 0.48743,-3.12572 0.43845,-3.1747 -0.049,-0.049 -1.15148,0.14275 -2.45,0.42607 -1.29851,0.28333 -3.76601,0.69927 -5.48333,0.92432 -1.87336,0.24549 -5.13716,0.40917 -8.15892,0.40917 -2.9124,0 -6.44954,-0.17204 -8.38697,-0.40793 -1.84275,-0.22436 -4.30296,-0.63281 -5.46712,-0.90768 -1.16417,-0.27486 -3.18823,-0.87889 -4.49792,-1.34229 -1.30969,-0.46339 -3.21469,-1.26172 -4.23333,-1.77406 -1.01865,-0.51234 -2.53811,-1.39701 -3.37657,-1.96594 -0.83847,-0.56892 -2.28161,-1.74265 -3.20698,-2.60829 -0.92536,-0.86563 -2.30217,-2.47029 -3.05957,-3.56591 -0.7574,-1.09562 -1.77233,-2.85252 -2.25541,-3.90424 -0.48308,-1.05171 -1.18246,-2.88165 -1.55419,-4.06653 -0.37173,-1.18488 -0.88604,-3.5066 -1.14292,-5.15937 -0.34326,-2.20849 -0.46541,-4.54801 -0.46084,-8.82589 0.005,-4.20147 0.12804,-6.52097 0.44407,-8.33752 0.24081,-1.38417 0.74452,-3.57497 1.11935,-4.86843 0.37483,-1.29346 1.08235,-3.21931 1.57226,-4.27967 0.80561,-1.74363 0.90123,-2.98697 1.71049,-2.94696 8.37823,0.41423 16.39522,-2.85179 33.13309,-5.35936 14.02218,1.06705 23.33853,1.81981 34.07675,2.53238 l 4.62676,4.70831 c 2.47104,2.51459 6.0403,6.25475 7.87794,8.3648 1.83765,2.11005 4.19787,4.90802 5.24494,6.21771 1.04707,1.30968 2.38465,3.06585 2.9724,3.9026 0.58775,0.83674 1.14308,1.52135 1.23406,1.52135 0.091,0 0.85701,-1.39898 1.70228,-3.10885 0.84526,-1.70987 2.20106,-4.29948 3.01287,-5.75469 0.81182,-1.45521 2.56561,-4.31271 3.89733,-6.35 1.33171,-2.03729 3.62368,-5.19245 5.09326,-7.01146 1.46958,-1.81901 3.30806,-3.91127 4.0855,-4.64948 l 1.66257,-2.15154 c 5.77816,0.51209 23.68854,-6.46482 27.01083,-6.10733 0.4651,0.05 1.16113,0.47624 2.02379,1.11768 0.6808,0.50622 1.83615,1.63937 2.56745,2.51811 0.7313,0.87875 1.795,2.40182 2.36377,3.38462 0.56878,0.9828 1.34014,2.56099 1.71414,3.50709 0.37399,0.9461 0.97263,2.73204 1.3303,3.96875 0.35766,1.23671 0.86352,3.43919 1.12412,4.8944 0.35127,1.96146 0.47596,4.04879 0.48209,8.06979 0.006,3.84972 -0.12333,6.26867 -0.44516,8.33437 -0.24938,1.60073 -0.75519,4.04151 -1.12401,5.42396 -0.36883,1.38245 -1.01321,3.24907 -1.43197,4.14804 -0.41875,0.89898 -1.23447,2.33117 -1.81271,3.18266 -0.57823,0.8515 -2.11953,2.55675 -3.4251,3.78946 -1.30557,1.23271 -3.39804,2.87762 -4.64995,3.65536 -1.2519,0.77773 -3.59559,2.0028 -5.20819,2.72237 -1.61261,0.71958 -4.42546,1.71763 -6.25079,2.2179 -1.82533,0.50027 -3.90376,0.98718 -4.61873,1.08202 -0.71498,0.0948 -1.29995,0.20987 -1.29995,0.25561 0,0.0457 0.71944,1.19126 1.59875,2.5456 0.87931,1.35434 2.30032,3.89119 3.15779,5.63744 0.85746,1.74625 1.97865,4.44223 2.49153,5.99108 0.51287,1.54884 1.16701,3.98962 1.45364,5.42395 0.28662,1.43434 0.60186,3.51725 0.70051,4.6287 l 0.17938,2.02081 -3.51739,1.37072 c -1.93456,0.75389 -5.4894,1.9669 -7.89965,2.69557 -2.41025,0.72867 -6.05097,1.72856 -8.09048,2.22197 -2.03952,0.4934 -5.4328,1.19457 -7.54063,1.55815 -2.10782,0.36358 -5.20163,0.8451 -6.87512,1.07003 -1.67349,0.22494 -5.30489,0.58553 -8.06979,0.80131 -3.01975,0.23567 -7.82678,0.37399 -12.03854,0.34639 z m -86.18802,-35.15278 c -1.81089,-0.009 -3.26047,-0.1929 -4.86407,-0.6175 -1.25641,-0.33267 -3.218,-1.04822 -4.35909,-1.59013 -1.1411,-0.5419 -3.08147,-1.65514 -4.31194,-2.47387 -1.23048,-0.81873 -3.2014,-2.44897 -4.37983,-3.62275 -1.17842,-1.17379 -2.75792,-2.96309 -3.50998,-3.97624 -0.75207,-1.01315 -1.95896,-2.97768 -2.68197,-4.36562 -0.72302,-1.38795 -1.72809,-3.71736 -2.2335,-5.17648 -0.5054,-1.45912 -1.12681,-3.66177 -1.3809,-4.89479 -0.25408,-1.23302 -0.46499,-3.37295 -0.46868,-4.7554 -0.004,-1.38244 0.14363,-3.22791 0.32738,-4.10104 0.18375,-0.87312 0.58264,-2.18281 0.88642,-2.91041 0.30378,-0.72761 1.01213,-2.05997 1.57411,-2.96082 0.56198,-0.90084 1.72443,-2.28842 2.58321,-3.0835 1.01643,-0.94103 2.05057,-1.61559 2.96279,-1.9326 0.96436,-0.33513 2.06144,-0.47505 3.51803,-0.44868 1.26964,0.023 2.69103,0.23418 3.55197,0.52778 l 1.4353,0.48948 0.9737,5.82084 c 0.53553,3.20145 1.29341,7.24958 1.68418,8.99583 0.39077,1.74625 1.25244,5.13232 1.91484,7.52461 0.6624,2.39228 1.74462,5.90463 2.40495,7.80521 0.66033,1.90057 1.84796,4.94388 2.63919,6.76289 0.79122,1.81901 2.08546,4.54796 2.87608,6.06435 0.79063,1.51638 1.4375,2.7963 1.4375,2.84427 0,0.048 -1.16086,0.0815 -2.57969,0.0746 z m 164.93626,-3.21207 c -0.67393,0.48199 -1.22533,0.82941 -1.22533,0.77205 0,-0.0574 0.48513,-1.46374 1.07806,-3.12529 0.59293,-1.66156 1.73648,-5.34273 2.54121,-8.18038 0.80474,-2.83766 1.97808,-7.36204 2.60741,-10.05417 0.62934,-2.69214 1.56032,-7.03792 2.06884,-9.65729 0.50852,-2.61938 1.06808,-5.67921 1.24346,-6.79962 l 0.31888,-2.03712 0.60182,0.44962 c 0.33099,0.24729 0.96455,0.9854 1.4079,1.64024 0.44335,0.65485 1.13235,2.14313 1.53111,3.3073 0.64767,1.89082 0.72583,2.49777 0.73249,5.68854 0.005,2.48905 -0.13887,4.24927 -0.47524,5.80637 -0.26549,1.22898 -0.95677,3.61023 -1.53619,5.29167 -0.57941,1.68144 -1.66416,4.24779 -2.41055,5.703 -0.74639,1.45521 -2.03953,3.65786 -2.87365,4.89479 -0.83411,1.23693 -2.16195,2.96333 -2.95073,3.83646 -0.78879,0.87312 -1.98556,1.98185 -2.65949,2.46383 z M 359.51721,132.90127 c -1.83931,-0.0159 -3.87104,-0.13235 -4.51494,-0.25868 -0.6439,-0.12633 -1.77499,-0.4274 -2.51354,-0.66905 -0.73855,-0.24165 -1.93812,-0.73714 -2.66573,-1.10109 -0.7276,-0.36395 -1.998,-1.18056 -2.82311,-1.81469 -0.82512,-0.63412 -2.02631,-1.7784 -2.66933,-2.54283 -0.64302,-0.76443 -1.52949,-1.92566 -1.96994,-2.5805 -0.44044,-0.65484 -1.1006,-1.78594 -1.46701,-2.51354 -0.36641,-0.7276 -0.96806,-2.28068 -1.33699,-3.45127 -0.36894,-1.1706 -0.80924,-2.89187 -0.97846,-3.82506 -0.16922,-0.93319 -0.40023,-3.55351 -0.51336,-5.82295 -0.11313,-2.26943 -0.34574,-4.38792 -0.51691,-4.70775 -0.23531,-0.43969 -0.55093,-0.58089 -1.29409,-0.57893 -0.54058,10e-4 -1.62655,0.30221 -2.41326,0.66843 -0.88315,0.41111 -2.10454,1.35215 -3.19256,2.45977 -1.33493,1.35897 -2.05635,2.39973 -2.97544,4.29251 -0.6673,1.37422 -2.04938,5.07531 -3.07131,8.22464 -1.02193,3.14933 -2.09427,6.18542 -2.383,6.74687 -0.28872,0.56145 -0.90037,1.53595 -1.35922,2.16555 -0.48992,0.67222 -1.29168,1.35239 -1.94243,1.64783 -0.60949,0.27671 -1.58441,0.5029 -2.16649,0.50264 -0.58208,-2.5e-4 -1.74916,-0.28453 -2.59351,-0.63172 -0.84435,-0.3472 -2.21356,-1.02898 -3.04271,-1.51508 -0.82914,-0.4861 -2.4696,-1.84051 -3.64547,-3.00979 -1.64625,-1.63705 -2.39239,-2.63436 -3.24433,-4.33648 l -1.10639,-2.2105 0.61685,-0.8229 c 0.33927,-0.45259 1.14306,-1.53727 1.78621,-2.41039 0.64314,-0.87313 2.23827,-2.95672 3.54473,-4.63021 1.30645,-1.67349 3.52138,-4.41193 4.92206,-6.08542 1.40067,-1.67349 3.47717,-4.03172 4.61443,-5.240512 1.13727,-1.208791 3.26944,-3.23491 4.73815,-4.502485 1.46872,-1.267575 3.62289,-3.028508 4.78706,-3.913182 1.16417,-0.884675 3.37067,-2.447558 4.90335,-3.473073 1.53267,-1.025515 4.50799,-2.852176 6.61182,-4.059246 2.10383,-1.20707 6.20763,-3.351542 9.11957,-4.765493 2.91193,-1.413952 7.25896,-3.400236 9.66005,-4.413965 2.40109,-1.01373 6.44922,-2.618174 8.99583,-3.565431 2.54662,-0.947258 6.47568,-2.323734 8.73125,-3.058837 2.25558,-0.735102 5.70839,-1.814296 7.67292,-2.398209 1.96453,-0.583913 5.06016,-1.476236 6.87917,-1.982941 1.81901,-0.506704 5.50994,-1.461817 8.20208,-2.122473 2.69213,-0.660656 7.69276,-1.788762 11.1125,-2.506904 3.41974,-0.718141 7.88458,-1.615184 9.92187,-1.993429 2.0373,-0.378245 5.96636,-1.035947 8.73125,-1.461562 2.7649,-0.425614 6.60819,-0.979201 8.54065,-1.230193 3.42598,-0.444973 3.52332,-0.443813 3.90481,0.04652 0.21519,0.27658 0.92772,1.574435 1.58341,2.884122 0.65569,1.309687 1.44147,3.380865 1.74617,4.602617 0.4326,1.73459 0.5317,2.807204 0.45222,4.894791 -0.0812,2.131857 -0.2286,2.933947 -0.72782,3.959482 -0.44763,0.919548 -0.87676,1.390814 -1.5058,1.653645 -0.48387,0.202174 -1.34913,0.367589 -1.9228,0.367589 -0.57366,0 -3.1671,-0.537221 -5.76318,-1.193825 -3.27245,-0.82767 -5.53165,-1.24292 -7.36599,-1.353894 -1.54006,-0.09317 -3.28881,-0.03898 -4.18432,0.129676 -0.84616,0.159359 -2.8529,0.844558 -4.45942,1.522663 -1.60652,0.678105 -3.23592,1.506669 -3.62089,1.841252 -0.64165,0.557664 -0.66482,0.644071 -0.2781,1.037385 0.23202,0.235978 2.25608,0.905577 4.49792,1.487998 2.24183,0.582421 4.96903,1.356189 6.06043,1.719484 1.09141,0.363295 2.42985,0.95236 2.97431,1.309033 0.54446,0.356673 1.28808,1.09903 1.65248,1.649682 0.3644,0.550653 0.78611,1.669549 0.93712,2.486436 0.2169,1.173341 0.18679,1.87113 -0.14337,3.322738 -0.23134,1.017147 -0.85542,2.578274 -1.39788,3.496776 -0.53897,0.912608 -1.67011,2.413184 -2.51364,3.334615 -0.84353,0.92143 -2.35364,2.220433 -3.35581,2.886673 -1.00217,0.666239 -2.60683,1.567148 -3.56592,2.002019 -0.95909,0.434871 -2.72319,1.025479 -3.92023,1.312461 -1.3069,0.313321 -3.10582,0.522527 -4.50269,0.52364 -1.27944,0.001 -3.22424,-0.18363 -4.32177,-0.410332 -1.09754,-0.226702 -3.00796,-0.769532 -4.24539,-1.20629 -1.23742,-0.436758 -4.59091,-1.905867 -7.45218,-3.264687 -2.86127,-1.35882 -6.01853,-2.720989 -7.01612,-3.027043 -0.9976,-0.306053 -2.41852,-0.556461 -3.15761,-0.556461 -0.81776,0 -1.78625,0.214184 -2.47405,0.54714 -0.62163,0.300928 -1.50832,0.977751 -1.97042,1.504052 -0.4621,0.526301 -1.12101,1.56001 -1.46425,2.29713 -0.34324,0.737121 -0.62523,1.713045 -0.62666,2.168721 -0.002,0.577813 0.24283,1.068434 0.80848,1.621461 0.44608,0.436128 2.08319,1.431126 3.63802,2.211106 2.00611,1.00636 3.25622,1.84215 4.30529,2.8784 1.05275,1.0399 1.65316,1.91671 2.08567,3.04582 0.35543,0.92789 0.6612,2.42664 0.73717,3.61333 0.10089,1.57602 0.007,2.43072 -0.42021,3.83646 -0.30252,0.99477 -1.00183,2.55144 -1.55404,3.45926 -0.5522,0.90782 -1.62787,2.35698 -2.39037,3.22036 -0.7625,0.86338 -2.36985,2.35957 -3.57188,3.32487 -1.20202,0.96529 -3.07847,2.17788 -4.16988,2.69463 -1.0914,0.51675 -2.34156,1.20556 -2.77812,1.53069 -0.43656,0.32512 -1.92484,1.02602 -3.30729,1.55754 -1.38245,0.53153 -3.10886,1.13857 -3.83646,1.34899 -0.72761,0.21042 -2.31834,0.56848 -3.53496,0.79569 -1.34608,0.25138 -3.52122,0.40176 -5.55625,0.38411 z"
         id="path11027"
         sodipodi:nodetypes="ssssscsssssssssssssssssssssssssccsssssssssscssssssscssssssssssssssscsssssssssssssssssssssssscsssssssssssssssscssscssssssssssssssssssssssssssssssscsssssssssssssssssssssssssssssssssssssssssssssssssssssssssssssssssssss" /><path
         style="display:inline;fill:#24435f;fill-opacity:1"
         d="m 326.09322,190.03404 c -2.81039,-0.0254 -5.64558,-0.0859 -6.30042,-0.13434 -0.65485,-0.0485 -2.61938,-0.27374 -4.36563,-0.50064 -1.74625,-0.22689 -4.30609,-0.65367 -5.68854,-0.94839 -1.38245,-0.29472 -3.82323,-0.95399 -5.42396,-1.46504 -1.60073,-0.51105 -4.09501,-1.51859 -5.54285,-2.23898 -1.44784,-0.72039 -3.41237,-1.86095 -4.36562,-2.53457 -0.95326,-0.67362 -2.72831,-2.18518 -3.94455,-3.35902 -1.21625,-1.17384 -2.71676,-2.7891 -3.33446,-3.58946 -0.6177,-0.80037 -1.67165,-2.40771 -2.34212,-3.57188 -0.67046,-1.16417 -1.57249,-3.18823 -2.00451,-4.49792 -0.43201,-1.30968 -0.92949,-3.38241 -1.10549,-4.60604 -0.20413,-1.41921 -0.26442,-3.67063 -0.1665,-6.21771 0.11047,-2.87347 0.33766,-4.78275 0.81037,-6.81018 0.36127,-1.54949 1.0766,-4.07165 1.58962,-5.60479 0.51303,-1.53314 1.42959,-3.95631 2.03681,-5.38482 0.60722,-1.42851 1.75942,-3.90698 2.56045,-5.5077 0.80102,-1.60073 2.52881,-4.69636 3.83952,-6.87917 1.3107,-2.18281 3.45956,-5.51656 4.77523,-7.40833 1.31567,-1.89177 3.46511,-4.86834 4.77653,-6.61459 1.31143,-1.74625 3.33893,-4.36562 4.50557,-5.82083 1.16664,-1.45521 3.37392,-4.13412 4.90506,-5.95313 1.53115,-1.819009 4.11291,-4.629191 5.73726,-6.244848 1.62434,-1.615657 4.24656,-3.969948 5.82714,-5.231758 1.58059,-1.261809 4.30254,-3.28817 6.04879,-4.503024 1.74625,-1.214854 4.72281,-3.133882 6.61458,-4.264508 1.89177,-1.130626 5.34459,-3.042138 7.67292,-4.247804 2.32833,-1.205667 6.01927,-2.989952 8.20208,-3.965078 2.18282,-0.975126 6.42291,-2.761704 9.42243,-3.970173 2.99952,-1.208469 7.58343,-2.927114 10.18646,-3.819211 2.60303,-0.892097 7.70934,-2.517806 11.34736,-3.612686 3.63802,-1.09488 9.59115,-2.743009 13.22917,-3.662509 3.63802,-0.919499 9.53161,-2.271253 13.09687,-3.003897 3.56526,-0.732643 8.74448,-1.747729 11.50938,-2.255745 2.76489,-0.508017 6.99161,-1.227887 9.3927,-1.599713 2.4011,-0.371825 6.15157,-0.911776 8.33438,-1.19989 2.18281,-0.288114 5.57609,-0.701497 7.54062,-0.91863 1.96454,-0.217132 4.88157,-0.516974 6.4823,-0.666316 1.60072,-0.149341 6.48229,-0.465647 10.84791,-0.702901 5.43171,-0.295192 9.90037,-0.382067 14.15521,-0.27519 3.41974,0.0859 7.28927,0.290173 8.59896,0.453939 1.30968,0.163767 3.48622,0.57741 4.83673,0.919206 1.69201,0.428223 3.10619,1.008513 4.54827,1.866325 1.15103,0.684682 2.82449,1.9631 3.71879,2.840927 0.8943,0.877828 2.13176,2.258333 2.7499,3.06779 0.61815,0.809457 1.70006,2.42424 2.40425,3.588406 0.70419,1.164167 1.84669,3.324024 2.53888,4.799684 0.69219,1.475659 1.8537,4.273628 2.58112,6.217708 0.72743,1.94408 1.74779,4.940346 2.26747,6.65837 0.51969,1.718023 1.31081,4.573137 1.75806,6.344697 0.44725,1.77156 1.15544,4.890279 1.57375,6.930487 0.41832,2.040208 1.05821,5.495406 1.42199,7.678219 0.36377,2.182812 0.90465,5.933283 1.20194,8.334383 0.2973,2.40109 0.74733,6.68734 1.00007,9.52499 0.34201,3.83985 0.46109,7.89994 0.46561,15.875 0.004,6.90026 -0.11869,12.03452 -0.34435,14.41979 -0.19273,2.0373 -0.63247,5.37105 -0.97718,7.40834 -0.34472,2.03729 -0.93908,4.77507 -1.32081,6.08396 -0.38172,1.30889 -1.15369,3.36066 -1.71548,4.55948 -0.64002,1.36576 -1.53037,2.71781 -2.38433,3.62075 -0.86797,0.91775 -2.1,1.82323 -3.39274,2.4935 -1.11642,0.57885 -2.8633,1.29982 -3.88194,1.60216 -1.01865,0.30234 -3.3999,0.79523 -5.29167,1.09532 -2.4189,0.3837 -5.28467,0.58838 -9.65729,0.68976 l -6.21771,0.14415 -4.36562,1.41689 c -2.4011,0.77929 -6.54241,2.01469 -9.20292,2.74534 -2.66051,0.73065 -6.70864,1.74266 -8.99583,2.24892 -2.2872,0.50626 -5.05151,1.10035 -6.14292,1.32021 -1.09141,0.21986 -3.71078,0.702 -5.82083,1.07141 -2.11005,0.36942 -6.09865,0.96223 -8.86354,1.31736 -2.7649,0.35513 -6.15818,0.77231 -7.54063,0.92706 -1.38245,0.15476 -4.83526,0.45915 -7.67292,0.67642 -2.96826,0.22727 -8.53031,0.39472 -13.09687,0.3943 -4.36562,-4.1e-4 -10.795,-0.17835 -14.2875,-0.39544 -3.4925,-0.21709 -8.13594,-0.57573 -10.31875,-0.79697 -2.18281,-0.22125 -5.72508,-0.64795 -7.87171,-0.94823 l -3.90297,-0.54597 -4.5637,1.06695 c -2.51004,0.58682 -6.29515,1.42422 -8.41137,1.86088 -2.11621,0.43666 -5.92621,1.15535 -8.46666,1.59709 -2.54045,0.44174 -6.94072,1.09774 -9.77838,1.45779 -2.83765,0.36005 -6.90809,0.77875 -9.04541,0.93046 -2.13732,0.1517 -6.18545,0.25502 -8.99583,0.2296 z"
         id="path11022"
         sodipodi:nodetypes="sssssssssssssssssssssssssssssssssssssssssssssssssssssssssssssssscsssssssssssscssssss" /><path
         style="display:inline;fill:#478cbf;fill-opacity:1"
         d="m 326.27509,185.55226 c -2.91042,-0.0158 -6.77995,-0.19033 -8.59896,-0.38775 -1.81901,-0.19743 -4.7634,-0.6636 -6.54308,-1.03594 -1.77969,-0.37235 -4.45075,-1.09989 -5.9357,-1.61677 -1.48494,-0.51687 -3.42211,-1.30066 -4.30483,-1.74176 -0.88271,-0.44109 -2.55743,-1.43268 -3.7216,-2.20353 -1.16416,-0.77085 -2.8988,-2.15678 -3.85474,-3.07984 -0.95594,-0.92305 -2.24301,-2.36749 -2.86016,-3.20986 -0.61716,-0.84237 -1.52326,-2.33065 -2.01357,-3.30729 -0.49031,-0.97664 -1.12722,-2.50669 -1.41536,-3.4001 -0.28814,-0.89342 -0.67114,-2.53716 -0.8511,-3.65277 -0.21364,-1.32435 -0.27194,-3.28598 -0.16795,-5.65165 0.10672,-2.42781 0.37422,-4.5399 0.81074,-6.4014 0.35831,-1.52797 1.08972,-4.02828 1.62536,-5.55625 0.53564,-1.52797 1.62479,-4.22375 2.42034,-5.99061 0.79556,-1.76687 2.2273,-4.61662 3.18166,-6.33279 0.95436,-1.71616 2.58375,-4.43773 3.62087,-6.04793 1.03711,-1.6102 2.64891,-4.03803 3.58178,-5.39518 l 1.69612,-2.46756 1.01207,1.93839 c 0.55664,1.06611 1.60333,2.66887 2.32598,3.56168 0.72265,0.8928 2.16638,2.24333 3.2083,3.00116 1.04192,0.75782 2.74085,1.78352 3.7754,2.27931 1.47577,0.70725 2.21319,0.90144 3.42296,0.90144 0.84807,0 1.87241,-0.17088 2.2763,-0.37974 0.4039,-0.20886 1.16772,-0.85943 1.69739,-1.44571 0.52966,-0.58628 1.25095,-1.63578 1.60285,-2.33223 0.3519,-0.69645 1.37676,-3.56932 2.27747,-6.38416 0.9007,-2.81484 2.0314,-6.05153 2.51266,-7.19266 0.48127,-1.14112 1.44334,-2.92962 2.13794,-3.97445 0.81579,-1.22712 1.81076,-2.30299 2.81031,-3.03882 0.85107,-0.62653 2.14825,-1.33871 2.88263,-1.58263 0.73438,-0.24392 1.61371,-0.3736 1.95407,-0.28818 0.4393,0.11026 0.66581,0.40579 0.7808,1.01871 0.0891,0.47486 0.27586,2.82746 0.41506,5.22799 0.1771,3.05403 0.44585,5.12025 0.89502,6.88117 0.35306,1.38412 1.00931,3.32682 1.45832,4.31711 0.44902,0.99028 1.35233,2.60667 2.00735,3.59197 0.65503,0.98529 2.13731,2.69559 3.29398,3.80066 1.55295,1.48368 2.67969,2.28792 4.30775,3.07475 1.21261,0.58604 2.97864,1.24904 3.92452,1.47333 0.94589,0.2243 2.73349,0.4832 3.97245,0.57533 1.25118,0.0931 3.44494,0.0289 4.93451,-0.14426 1.47503,-0.17148 3.79509,-0.6096 5.15569,-0.9736 1.36059,-0.36399 3.45465,-1.05552 4.65345,-1.53673 l 2.17964,-0.87493 -1.8028,1.89789 c -0.99154,1.04383 -2.58634,3.08022 -3.544,4.52531 -0.95765,1.44508 -1.94706,3.10368 -2.19869,3.68576 -0.27791,0.64287 -0.45768,1.73345 -0.45795,2.77812 -3.7e-4,1.42956 0.19425,2.18864 1.15321,4.49792 1.07862,2.59744 1.15267,2.93299 1.1387,5.15937 -0.0118,1.8773 -0.16844,2.82922 -0.74021,4.49792 -0.3989,1.16417 -1.02017,2.50375 -1.3806,2.97684 -0.36043,0.4731 -1.03019,1.05402 -1.48836,1.29095 -0.6415,0.33173 -1.29229,0.39851 -2.83059,0.29044 -1.10371,-0.0775 -2.64874,-0.39692 -3.45278,-0.71375 -0.80036,-0.31539 -4.4913,-2.0495 -8.20208,-3.85358 -3.71078,-1.80409 -7.87797,-3.65899 -9.26042,-4.12201 -2.14853,-0.71959 -2.91697,-0.84577 -5.29166,-0.86891 -2.53147,-0.0247 -2.92405,0.0403 -4.42161,0.73212 -1.0667,0.49273 -2.14221,1.28203 -3.06451,2.24897 -0.93061,0.97564 -1.86445,2.38301 -2.70588,4.07799 -0.98215,1.97845 -1.31159,2.95792 -1.39836,4.15753 -0.0624,0.86314 -0.0383,1.86915 0.0537,2.23558 0.092,0.36644 0.54173,1.0928 0.99947,1.61414 0.45774,0.52133 1.39599,1.23355 2.085,1.5827 0.68902,0.34915 2.79433,1.23556 4.67848,1.96981 1.88415,0.73425 3.98281,1.70399 4.6637,2.15499 0.70854,0.46932 1.54468,1.34335 1.95513,2.04374 0.64442,1.09961 0.7349,1.57303 0.89214,4.66767 0.10187,2.005 0.34444,3.90453 0.58056,4.54629 l 0.40558,1.10234 -1.23723,0.15795 c -0.68047,0.0869 -2.84456,0.27514 -4.80909,0.41837 -1.96453,0.14323 -5.95313,0.24746 -8.86354,0.23162 z M 487.14175,168.7804 c -4.07459,0.0394 -7.94412,0.0281 -8.59896,-0.0252 -0.65484,-0.0533 -3.27422,-0.2185 -5.82083,-0.36709 -2.54662,-0.14858 -6.23756,-0.40098 -8.20209,-0.56089 -1.96453,-0.1599 -3.73264,-0.33891 -3.92913,-0.3978 -0.22514,-0.0675 0.12487,-0.54053 0.9465,-1.27925 0.71706,-0.6447 1.67148,-1.86425 2.12092,-2.7101 0.44944,-0.84585 1.00578,-2.26947 1.23631,-3.1636 0.27073,-1.05002 0.41915,-2.76859 0.41915,-4.85323 0,-2.19558 -0.17078,-4.06557 -0.53412,-5.84854 -0.29377,-1.44154 -0.89502,-3.72243 -1.33611,-5.06864 -0.4411,-1.34621 -1.67714,-4.23359 -2.74676,-6.4164 -1.06962,-2.18281 -2.74233,-5.15938 -3.71712,-6.61458 -0.9748,-1.45521 -2.4452,-3.47275 -3.26756,-4.48342 -0.82236,-1.01068 -2.53466,-2.86792 -3.80512,-4.12721 -1.27045,-1.25929 -3.35405,-3.03269 -4.63021,-3.94089 -1.27616,-0.9082 -3.27279,-2.11187 -4.43695,-2.67484 -1.16417,-0.56296 -2.89058,-1.20534 -3.83646,-1.42751 -0.94589,-0.22216 -2.9324,-0.4057 -4.41448,-0.40785 -1.48207,-0.002 -3.55891,0.17789 -4.61519,0.40008 -1.05628,0.2222 -2.99883,0.83007 -4.31677,1.35084 -1.31795,0.52076 -3.4083,1.48987 -4.64523,2.15358 -1.23693,0.6637 -3.02286,1.69075 -3.96875,2.28234 -0.94588,0.59159 -4.10104,2.78732 -7.01146,4.87941 -2.91041,2.09209 -6.48229,4.51007 -7.9375,5.3733 -1.4552,0.86322 -3.45407,1.81581 -4.44192,2.11687 -1.54532,0.47096 -1.96542,0.50474 -3.00899,0.24197 -0.66709,-0.16798 -1.79236,-0.59905 -2.5006,-0.95795 -0.70824,-0.35889 -2.39029,-1.381 -3.73789,-2.27135 -1.3476,-0.89035 -3.04549,-1.89985 -3.77309,-2.24333 -0.72761,-0.34347 -1.7172,-0.62566 -2.1991,-0.62708 -0.85585,-0.003 -0.82718,-0.0395 1.23512,-1.5935 1.16122,-0.87501 3.10332,-2.64716 4.31577,-3.93812 1.30388,-1.38831 2.61447,-3.11091 3.20811,-4.21665 0.55625,-1.0361 1.18134,-2.72164 1.40225,-3.78113 0.31824,-1.52626 0.3414,-2.28031 0.11491,-3.74009 -0.15602,-1.00562 -0.45538,-2.23933 -0.66523,-2.74158 -0.20986,-0.50225 -0.75472,-1.43281 -1.21082,-2.06791 -0.4561,-0.63511 -1.33479,-1.51777 -1.95265,-1.96149 -0.61786,-0.44371 -2.18293,-1.35642 -3.47793,-2.02823 -1.29499,-0.67182 -2.74225,-1.517208 -3.21613,-1.878652 -0.74685,-0.569648 -0.8616,-0.815347 -0.8616,-1.84487 0,-0.673953 0.23386,-1.646087 0.54063,-2.247415 0.29735,-0.582844 0.97169,-1.536846 1.49853,-2.120005 0.52685,-0.583159 1.18205,-1.180245 1.456,-1.326859 0.27395,-0.146613 1.13652,-0.370477 1.91683,-0.497474 1.01066,-0.16449 1.87748,-0.123885 3.01368,0.141172 0.87723,0.204643 2.76336,0.897561 4.19142,1.539818 1.42805,0.642257 4.38239,1.995782 6.5652,3.007834 2.18282,1.012051 4.56407,2.028345 5.29167,2.25843 0.72761,0.230085 2.09682,0.626595 3.04271,0.881134 1.17864,0.317173 2.67722,0.460555 4.7625,0.455669 2.28278,-0.0053 3.55737,-0.149375 5.10342,-0.576678 1.13338,-0.313252 2.8166,-0.912287 3.74046,-1.331188 0.92387,-0.418902 2.41315,-1.259676 3.30952,-1.868385 0.89636,-0.60871 2.29857,-1.783126 3.11602,-2.609813 0.81744,-0.826687 1.94471,-2.208855 2.50503,-3.071483 0.56033,-0.862629 1.25514,-2.333686 1.54404,-3.269016 0.28889,-0.93533 0.52526,-2.262161 0.52526,-2.948514 0,-0.686353 -0.18931,-1.803505 -0.42069,-2.482561 -0.28777,-0.844573 -0.83797,-1.609823 -1.74146,-2.422135 -1.08387,-0.974492 -1.82705,-1.351013 -4.14337,-2.099171 -1.55243,-0.501426 -4.07276,-1.223811 -5.60073,-1.605299 -1.52797,-0.381489 -3.16508,-0.816714 -3.63802,-0.967167 -0.47294,-0.150453 -0.8599,-0.434269 -0.8599,-0.630703 0,-0.196434 0.30169,-0.594456 0.67041,-0.884495 0.36872,-0.290038 2.00583,-1.102351 3.63802,-1.80514 l 2.96761,-1.277799 4.23334,0.01208 c 4.11855,0.01175 4.34619,0.04224 8.39584,1.124479 2.84699,0.760836 4.7011,1.112402 5.86668,1.112402 1.43707,0 1.82883,-0.104897 2.49955,-0.669269 0.46161,-0.388417 0.996,-1.248895 1.27345,-2.05052 0.34406,-0.994072 0.47302,-2.12291 0.46004,-4.027085 -0.0112,-1.64059 -0.19466,-3.299242 -0.48293,-4.365625 -0.25569,-0.945886 -0.86477,-2.586227 -1.35351,-3.645204 -0.48874,-1.058977 -1.23808,-2.443211 -1.6652,-3.076078 l -0.77657,-1.150665 1.49028,-0.176915 c 0.81966,-0.0973 3.69294,-0.406891 6.38507,-0.687972 2.69214,-0.281081 6.61147,-0.592412 8.70962,-0.691847 3.688,-0.17478 3.80772,-0.163992 3.60092,0.324466 -0.11764,0.277891 -0.49669,1.259852 -0.84232,2.182134 -0.34564,0.922283 -0.7172,2.529627 -0.82571,3.571875 -0.1085,1.042249 -0.10962,2.760772 -0.002,3.818941 0.11367,1.122771 0.53249,2.767298 1.00574,3.949181 0.44602,1.11388 1.34019,2.821335 1.98704,3.794345 0.64686,0.97301 1.96038,2.616201 2.91894,3.651535 0.95856,1.035334 2.62691,2.593622 3.70743,3.462862 1.08053,0.869241 2.99751,2.092356 4.25996,2.718035 l 2.29536,1.137597 3.19535,-9.23e-4 c 3.16143,-9.13e-4 3.24006,-0.01597 7.40539,-1.418272 3.53881,-1.191374 4.43334,-1.398832 5.61063,-1.301202 0.93772,0.07776 1.81713,0.373668 2.66095,0.895366 0.6932,0.42857 1.62123,1.292672 2.06229,1.920229 0.68423,0.973534 0.80143,1.380387 0.79852,2.771865 -0.002,1.129888 -0.17227,1.955953 -0.55312,2.689187 -0.30234,0.582083 -1.77756,2.963333 -3.27826,5.291667 -1.5007,2.328333 -2.80663,5.551044 -2.96109,5.522737 -15.8847,-2.911038 -2.03869,40.943499 2.19703,22.042689 l 1.90271,1.86363 c 0.75246,0.73701 2.10302,1.54155 3.1508,2.34132 1.04779,0.79977 3.21284,2.50753 4.65505,3.24834 1.44221,0.74082 3.68056,1.69835 4.97411,2.12786 1.29355,0.42951 3.38756,0.98364 4.65335,1.23141 2.11325,0.41364 2.31387,0.50724 2.45352,1.14459 0.0837,0.38176 0.0335,3.55161 -0.11144,7.04411 -0.14494,3.4925 -0.3888,7.60015 -0.54193,9.12812 -0.15312,1.52797 -0.51861,4.22757 -0.8122,5.99911 -0.29359,1.77155 -0.77331,4.08526 -1.06603,5.14158 -0.29272,1.05632 -0.92631,2.77355 -1.40798,3.81606 -0.48167,1.0425 -1.3022,2.36748 -1.82341,2.9444 -0.52121,0.57692 -1.61409,1.37526 -2.42862,1.7741 -0.81453,0.39883 -2.37397,0.95355 -3.46541,1.23269 -1.09145,0.27915 -3.37827,0.70311 -5.08182,0.94213 -2.1227,0.29784 -5.42859,0.45717 -10.5057,0.50632 z m -78.78828,-0.51901 c -0.44373,0.17524 -0.44145,0.11004 0.0385,-1.10213 0.28056,-0.7086 0.82997,-2.08479 1.22091,-3.0582 0.4932,-1.22804 1.12367,-2.1827 2.05951,-3.11854 0.7418,-0.7418 2.01764,-1.75507 2.83521,-2.25171 0.81756,-0.49665 2.01658,-1.02516 2.66449,-1.17447 0.6479,-0.14931 1.73769,-0.27439 2.42175,-0.27794 0.68406,-0.004 1.87469,0.12433 2.64583,0.2842 0.77115,0.15987 2.71178,0.92896 4.31251,1.70909 1.60073,0.78013 4.2201,2.1658 5.82083,3.07926 1.93402,1.10365 2.73289,1.68456 2.38125,1.73155 -0.29104,0.0389 -2.89044,-0.3293 -5.77643,-0.81823 l -5.24727,-0.88894 -4.27773,1.68998 c -2.35276,0.92948 -5.70649,2.21194 -7.45274,2.8499 -1.74625,0.63796 -3.38722,1.24374 -3.64661,1.34618 z"
         id="path11025"
         sodipodi:nodetypes="sssssssssssssssssscsssssssssssssssssssssssssscsssssssssssssssssssssssssscssssssssssssssssssssscssssssssssscsssssssssssssssssssssssssssssssssssscssssssssscsssssscssssscssssscssscssssssssssssssssssssssscssssscssss" /><path
         style="display:inline;fill:#315d84;fill-opacity:1"
         d="m 341.58721,184.7886 c -0.18256,0 -0.39599,-0.10364 -0.47428,-0.23031 -0.0783,-0.12668 -0.32344,-0.9256 -0.54478,-1.77538 -0.22601,-0.86771 -0.40244,-2.66738 -0.40244,-4.1051 0,-2.27899 -0.0799,-2.71299 -0.72792,-3.95342 -0.48506,-0.92852 -1.14848,-1.68323 -1.98849,-2.2621 -0.69331,-0.47779 -2.81906,-1.47604 -4.72388,-2.21835 -1.90482,-0.7423 -4.02704,-1.6353 -4.71605,-1.98445 -0.68901,-0.34915 -1.62726,-1.06137 -2.085,-1.5827 -0.45775,-0.52134 -0.90751,-1.2477 -0.99948,-1.61414 -0.092,-0.36643 -0.11613,-1.37244 -0.0537,-2.23558 0.0868,-1.19961 0.41621,-2.17908 1.39837,-4.15753 0.84143,-1.69498 1.77526,-3.10235 2.70587,-4.07799 0.9223,-0.96694 1.99782,-1.75624 3.06451,-2.24897 1.49757,-0.69178 1.89014,-0.75678 4.42161,-0.73212 2.3747,0.0231 3.14313,0.14932 5.29167,0.86891 1.38244,0.46302 5.54963,2.31792 9.26041,4.12201 3.71078,1.80408 7.40172,3.53819 8.20209,3.85358 0.80404,0.31683 2.34906,0.63622 3.45277,0.71375 1.5383,0.10807 2.18909,0.0413 2.83059,-0.29044 0.45817,-0.23693 1.12793,-0.81785 1.48836,-1.29095 0.36044,-0.47309 0.9817,-1.81267 1.3806,-2.97684 0.57178,-1.6687 0.72843,-2.62062 0.74021,-4.49792 0.014,-2.22638 -0.0601,-2.56193 -1.1387,-5.15937 -0.95895,-2.30928 -1.15358,-3.06836 -1.15321,-4.49792 2.7e-4,-1.04467 0.18004,-2.13525 0.45795,-2.77812 0.25163,-0.58208 1.24128,-2.24896 2.19923,-3.70417 0.98158,-1.4911 2.73175,-3.63718 4.01018,-4.91731 1.50413,-1.50613 2.78238,-2.52015 3.79368,-3.0095 0.83887,-0.40591 2.0414,-0.7962 2.67229,-0.86731 0.81303,-0.0916 1.51208,0.0322 2.40039,0.4251 0.68931,0.30492 2.43822,1.33077 3.88647,2.27967 1.44824,0.9489 3.20924,2.0172 3.91333,2.37399 0.70409,0.35679 1.82597,0.78614 2.49307,0.95412 1.04356,0.26277 1.46366,0.22899 3.00898,-0.24197 0.98785,-0.30106 2.98672,-1.25365 4.44192,-2.11687 1.45521,-0.86323 5.02709,-3.28121 7.9375,-5.3733 2.91042,-2.09209 6.06558,-4.28782 7.01146,-4.87941 0.94589,-0.59159 2.73182,-1.61864 3.96875,-2.28234 1.23693,-0.66371 3.32728,-1.63282 4.64523,-2.15358 1.31794,-0.52077 3.26049,-1.12864 4.31677,-1.35084 1.05628,-0.22219 3.13312,-0.40223 4.61519,-0.40008 1.48208,0.002 3.46859,0.18569 4.41448,0.40785 0.94588,0.22217 2.67229,0.86455 3.83646,1.42751 1.16416,0.56297 3.16079,1.76664 4.43695,2.67484 1.27616,0.9082 3.35976,2.6816 4.63021,3.94089 1.27046,1.25929 2.98276,3.11653 3.80512,4.12721 0.82236,1.01067 2.29276,3.02821 3.26756,4.48342 0.97479,1.4552 2.6475,4.43177 3.71712,6.61458 1.06962,2.18281 2.30566,5.07019 2.74676,6.4164 0.44109,1.34621 1.04234,3.6271 1.33611,5.06864 0.36334,1.78297 0.53412,3.65296 0.53412,5.84854 0,2.08464 -0.14842,3.80321 -0.41915,4.85323 -0.23053,0.89413 -0.78303,2.31055 -1.22778,3.1476 -0.44475,0.83705 -1.35741,2.02767 -2.02815,2.64583 -0.67073,0.61816 -1.18896,1.2157 -1.15163,1.32786 0.0373,0.11217 -0.20084,0.14436 -0.52927,0.0715 -0.32843,-0.0728 -1.6687,-0.2458 -2.97839,-0.3844 -1.30969,-0.13859 -4.9411,-0.56251 -8.06979,-0.94203 -3.1287,-0.37953 -7.59354,-0.95798 -9.92188,-1.28544 -2.32833,-0.32747 -4.1738,-0.69015 -4.10104,-0.80596 0.0728,-0.1158 -1.35599,-1.04938 -3.175,-2.07461 -1.81901,-1.02523 -4.37885,-2.36944 -5.68854,-2.98713 -1.30969,-0.61768 -3.01219,-1.25688 -3.78334,-1.42042 -0.77114,-0.16355 -1.96177,-0.29445 -2.64583,-0.29089 -0.68406,0.004 -1.77385,0.12863 -2.42175,0.27794 -0.64791,0.14931 -1.84693,0.67782 -2.66449,1.17447 -0.81757,0.49664 -2.09602,1.51252 -2.84099,2.25749 -1.14127,1.14127 -1.54844,1.84257 -2.58636,4.45471 l -1.23185,3.1002 -5.33249,1.76444 c -2.93286,0.97044 -7.05889,2.29549 -9.16894,2.94455 -2.11005,0.64906 -5.93476,1.78171 -8.49936,2.51699 -2.5646,0.73529 -7.49844,2.05748 -10.96409,2.9382 -3.46566,0.88072 -9.22548,2.18645 -12.7996,2.90162 -3.57412,0.71516 -8.04622,1.55019 -9.93799,1.8556 -1.89177,0.30542 -4.7417,0.72826 -6.33317,0.93964 -1.59148,0.21139 -3.04297,0.38434 -3.22554,0.38434 z m 172.83853,-54.50417 c -0.0903,0 -0.1642,-0.1623 -0.1642,-0.36067 0,-0.24249 -0.75856,-0.50916 -2.31511,-0.81386 -1.2733,-0.24926 -3.37346,-0.80461 -4.66701,-1.23412 -1.29355,-0.42951 -3.53371,-1.38797 -4.97813,-2.12992 -1.44443,-0.74195 -3.66029,-2.15409 -4.92414,-3.1381 -1.26384,-0.984 -2.74095,-2.2582 -3.29115,-2.82314 l -1.52243,-1.56322 c 1.03187,-7.26032 -5.60486,-9.66081 -2.28213,-22.765024 l 2.99735,-4.612536 c 1.64855,-2.536895 3.19756,-5.029255 3.44225,-5.538578 0.26055,-0.542324 0.45111,-1.601807 0.45989,-2.556895 0.0129,-1.401796 -0.0977,-1.791113 -0.78695,-2.771865 -0.44106,-0.627557 -1.36909,-1.491659 -2.06229,-1.920229 -0.84382,-0.521698 -1.72323,-0.817603 -2.66095,-0.895366 -1.17729,-0.09763 -2.07182,0.109828 -5.61063,1.301202 -4.16533,1.4023 -4.24396,1.417359 -7.40539,1.418272 l -3.19535,9.23e-4 -2.29536,-1.137597 c -1.26245,-0.625679 -3.17943,-1.848794 -4.25996,-2.718035 -1.08052,-0.86924 -2.74887,-2.427528 -3.70743,-3.462862 -0.95856,-1.035334 -2.27208,-2.678525 -2.91894,-3.651535 -0.64685,-0.97301 -1.53759,-2.671894 -1.97942,-3.775297 -0.46308,-1.156486 -0.88905,-2.829126 -1.00574,-3.949181 -0.11133,-1.068645 -0.11693,-2.786681 -0.0125,-3.817857 0.10449,-1.031176 0.47606,-2.638519 0.82571,-3.571875 0.34965,-0.933355 0.72469,-1.905368 0.83343,-2.16003 0.16005,-0.374857 0.0538,-0.471325 -0.55822,-0.506636 -0.41575,-0.02399 0.43472,-0.129066 1.88992,-0.233506 1.45521,-0.10444 6.33678,-0.202899 10.84792,-0.218797 4.51115,-0.0159 9.26882,0.09329 10.57261,0.24265 1.3038,0.149357 3.26833,0.450454 4.36563,0.669105 1.0973,0.218652 2.82853,0.804296 3.84718,1.301431 1.01864,0.497136 2.46037,1.439767 3.20384,2.094737 0.74347,0.654969 2.01168,2.059507 2.81825,3.121195 0.80657,1.061688 2.0654,2.982765 2.79741,4.269061 0.732,1.286296 1.88684,3.608015 2.5663,5.159375 0.67945,1.55136 1.8774,4.743571 2.66209,7.093801 0.78469,2.350231 1.9044,6.156464 2.48825,8.458296 0.58384,2.301832 1.47039,6.272509 1.97011,8.823728 0.49971,2.551218 1.21048,6.60311 1.57947,9.004205 0.369,2.40109 0.84862,5.91344 1.06582,7.80521 0.21721,1.89177 0.57017,5.88036 0.78437,8.86354 0.21419,2.98318 0.47052,7.06107 0.56961,9.06198 0.0991,2.00091 0.10628,3.63802 0.016,3.63802 z"
         id="path11024"
         sodipodi:nodetypes="ssssssssssssssssssssssssssssssssssssssssscsssssssssssssssssssssscsssscssssssssssssssssccsssssssscssssssssssssssssssssssssssss" /><path
         style="display:inline;fill:#3c190a;fill-opacity:1"
         d="m 415.70425,283.43916 c -2.91042,-0.0201 -6.66088,-0.13466 -8.33437,-0.25457 -1.67349,-0.1199 -5.18584,-0.46941 -7.80521,-0.77669 -2.61938,-0.30727 -6.60797,-0.89735 -8.86354,-1.31128 -2.25558,-0.41393 -5.3512,-1.05089 -6.87917,-1.41547 -1.52797,-0.36457 -4.80219,-1.27247 -7.27604,-2.01755 -2.47386,-0.74507 -6.16479,-2.0188 -8.20208,-2.8305 -2.0373,-0.81169 -5.34036,-2.29457 -7.34015,-3.29528 -1.99979,-1.00071 -4.91682,-2.58124 -6.48229,-3.51229 -1.56547,-0.93106 -3.97595,-2.49401 -5.35661,-3.47324 -1.38066,-0.97923 -3.40473,-2.50467 -4.49792,-3.38987 -1.09319,-0.88519 -3.42712,-3.0426 -5.18651,-4.79424 -1.75939,-1.75164 -3.82896,-3.95404 -4.59905,-4.89422 l -1.40015,-1.70942 -6.11658,-0.0254 c -5.72842,-0.0237 -6.28768,-0.0701 -8.8128,-0.73008 -1.48293,-0.3876 -3.72123,-1.11804 -4.97401,-1.6232 -1.25278,-0.50517 -3.02918,-1.33868 -3.94755,-1.85227 -0.91837,-0.51358 -2.96631,-1.78806 -4.55099,-2.83218 -1.58467,-1.04412 -3.98252,-2.7839 -5.32854,-3.86617 -1.34603,-1.08227 -3.68191,-3.19637 -5.19084,-4.698 -1.50893,-1.50164 -3.80469,-4.14088 -5.10168,-5.86499 -1.297,-1.72411 -3.16888,-4.53191 -4.15975,-6.23955 -0.99086,-1.70764 -2.31258,-4.26748 -2.93716,-5.68854 -0.62458,-1.42106 -1.44384,-3.56149 -1.82059,-4.75652 -0.37674,-1.19503 -0.93374,-3.33815 -1.23777,-4.7625 -0.3619,-1.69544 -0.6054,-4.0647 -0.70515,-6.86108 -0.0974,-2.72945 -0.0345,-5.21275 0.17411,-6.87917 0.17956,-1.43429 0.66331,-3.94483 1.075,-5.57898 0.4117,-1.63414 1.35647,-4.4866 2.09951,-6.33879 0.74303,-1.85219 1.89051,-4.35741 2.54994,-5.56716 l 1.19897,-2.19953 1.4628,1.89325 1.4628,1.89325 -1.3319,2.80862 c -0.73254,1.54474 -1.70355,3.92015 -2.1578,5.27869 -0.45425,1.35853 -1.05792,3.53309 -1.34149,4.83235 -0.28356,1.29926 -0.62489,3.70347 -0.7585,5.3427 -0.14928,1.83159 -0.14724,4.08222 0.005,5.8389 0.13652,1.57218 0.43392,3.77144 0.66089,4.88725 0.22698,1.1158 0.8274,3.27888 1.33427,4.80685 0.50688,1.52797 1.5151,3.98865 2.2405,5.46818 0.72539,1.47953 2.25452,4.0989 3.39806,5.82083 1.14354,1.72193 3.03823,4.27493 4.21043,5.67332 1.1722,1.3984 3.00049,3.35161 4.06287,4.34046 1.06237,0.98886 2.82456,2.51384 3.91597,3.38884 1.0914,0.87501 3.29406,2.4528 4.89479,3.50621 1.60073,1.05341 3.98198,2.44927 5.29166,3.10193 1.30969,0.65265 3.33375,1.48417 4.49792,1.84782 1.16417,0.36365 2.83104,0.81932 3.70417,1.0126 0.91761,0.20312 3.26222,0.3549 5.55625,0.35967 2.21291,0.005 4.95936,-0.15624 6.20785,-0.36356 l 2.2391,-0.37184 0.53902,0.74865 c 0.29647,0.41176 1.3821,1.76971 2.41252,3.01767 1.03042,1.24796 3.05448,3.44209 4.49792,4.87585 1.44343,1.43377 3.78629,3.54474 5.20635,4.69105 1.42007,1.14631 3.62273,2.7813 4.8948,3.63331 1.27207,0.85202 3.36923,2.17055 4.66035,2.93007 1.29113,0.75953 3.85097,2.13407 5.68854,3.05454 1.83758,0.92048 5.00792,2.33064 7.04521,3.1337 2.03729,0.80306 4.89479,1.84008 6.35,2.30449 1.45521,0.46441 4.43177,1.30146 6.61458,1.86011 2.18282,0.55865 5.93328,1.37697 8.33438,1.81849 2.40109,0.44152 6.50875,1.0565 9.12812,1.36662 3.39882,0.40241 7.0353,0.60358 12.7,0.70257 4.70928,0.0823 9.82063,0.0161 12.56771,-0.16265 2.54661,-0.16575 6.14349,-0.47802 7.99306,-0.69394 1.84957,-0.21592 5.00473,-0.69419 7.01146,-1.06282 2.00673,-0.36863 5.11765,-1.02995 6.91315,-1.46959 1.7955,-0.43965 4.9432,-1.33989 6.99489,-2.00053 2.05169,-0.66065 4.92895,-1.71313 6.39391,-2.33885 1.46497,-0.62573 3.37742,-1.5238 4.2499,-1.99572 0.87249,-0.47192 2.36024,-1.37025 3.30613,-1.99628 0.94588,-0.62604 2.32818,-1.67533 3.07177,-2.33177 0.7436,-0.65643 2.06844,-2.24067 2.94409,-3.52053 0.87566,-1.27987 2.51901,-3.93437 3.65188,-5.8989 1.13288,-1.96453 2.91969,-5.35781 3.97068,-7.54062 1.051,-2.18282 2.71416,-5.99282 3.69593,-8.46667 0.98176,-2.47385 2.29929,-5.94756 2.92783,-7.71934 0.62855,-1.77178 1.67825,-5.046 2.33268,-7.27604 0.65443,-2.23004 1.66532,-5.95962 2.24644,-8.28795 0.58111,-2.32834 1.47698,-6.27879 1.99082,-8.77879 0.51383,-2.49999 1.28948,-6.66718 1.72365,-9.26041 0.43417,-2.59323 1.09109,-6.91762 1.45982,-9.60976 0.36874,-2.69213 0.90982,-7.24356 1.20242,-10.11427 0.29259,-2.87072 0.53198,-5.38022 0.53198,-5.57666 0,-0.22857 0.59546,-0.46922 1.65365,-0.66832 0.90951,-0.17112 1.92154,-0.38418 2.24896,-0.47347 0.43881,-0.11965 0.59531,-0.0499 0.59531,0.2654 0,0.36511 0.38333,0.42774 2.61796,0.42774 1.85457,0 3.1083,0.1515 4.29948,0.51956 0.92484,0.28575 2.39589,0.94728 3.26902,1.47006 0.87312,0.52278 2.38602,1.73919 3.36199,2.70314 0.97598,0.96395 2.13879,2.4361 2.58403,3.27146 0.44524,0.83536 0.99278,2.03428 1.21675,2.66428 0.22398,0.63 0.58019,1.96156 0.79159,2.95901 0.21139,0.99746 0.50853,3.24364 0.6603,4.99153 0.19258,2.21789 0.19136,4.38215 -0.004,7.16388 -0.154,2.19224 -0.52347,5.42293 -0.82106,7.1793 -0.29758,1.75637 -0.94291,4.86028 -1.43407,6.89757 -0.49116,2.03729 -1.50548,5.4718 -2.25404,7.63224 -0.74857,2.16044 -1.99623,5.34931 -2.77257,7.08637 -0.77634,1.73706 -2.03357,4.25568 -2.79384,5.59692 -0.76028,1.34125 -2.1103,3.45066 -3.00005,4.68759 -0.88975,1.23693 -2.45125,3.12702 -3.46999,4.2002 -1.01875,1.07318 -2.56717,2.45794 -3.44093,3.07724 -0.87376,0.6193 -2.21267,1.43935 -2.97535,1.82233 -0.76269,0.38298 -2.13191,0.86355 -3.04271,1.06793 -0.91081,0.20438 -2.90617,0.50417 -4.43414,0.66621 -1.52796,0.16203 -3.54312,0.32077 -4.47813,0.35274 l -1.7,0.0581 -1.55783,3.04271 c -0.8568,1.67349 -2.21237,4.20441 -3.01237,5.62426 -0.79999,1.41986 -2.41629,4.03923 -3.59176,5.82084 -1.18209,1.79163 -2.92031,4.00786 -3.88946,4.95907 -0.96373,0.94588 -2.70344,2.34974 -3.86603,3.11968 -1.16258,0.76994 -3.42348,2.03985 -5.02421,2.82202 -1.60072,0.78216 -4.18134,1.90454 -5.73469,2.49416 -1.55335,0.58962 -4.47039,1.54757 -6.48229,2.12877 -2.01191,0.58121 -4.67005,1.29001 -5.90697,1.57512 -1.23693,0.28511 -4.27302,0.8829 -6.74688,1.32842 -2.47385,0.44553 -6.10526,0.98946 -8.06979,1.20875 -1.96453,0.21928 -5.5364,0.51847 -7.9375,0.66487 -2.40109,0.14639 -6.74687,0.24971 -9.65729,0.22961 z m 75.09332,-39.6531 c 0.89971,-0.003 2.70741,-0.1791 4.01709,-0.39235 1.61474,-0.26292 3.02001,-0.70002 4.36563,-1.35788 1.55069,-0.75813 2.5409,-1.52528 4.53085,-3.51026 1.58759,-1.58362 3.19682,-3.5364 4.2736,-5.18594 0.94992,-1.4552 2.43892,-4.07458 3.3089,-5.82083 0.86998,-1.74625 2.13095,-4.56777 2.80215,-6.27005 0.6712,-1.70228 1.69194,-4.70774 2.26831,-6.6788 0.57638,-1.97106 1.3431,-5.04313 1.70385,-6.82682 0.36074,-1.78369 0.81094,-4.31464 1.00045,-5.62433 0.19345,-1.33691 0.34308,-4.70199 0.34119,-7.67291 -0.003,-4.56768 -0.083,-5.60783 -0.58535,-7.60246 -0.32009,-1.27094 -0.92863,-2.99751 -1.35232,-3.83683 -0.42369,-0.83932 -1.37742,-2.14277 -2.11941,-2.89655 -0.78162,-0.79405 -2.09896,-1.73986 -3.13186,-2.24859 -1.6922,-0.83346 -1.93096,-0.87807 -4.69959,-0.87807 h -2.91681 l -0.20786,1.85208 c -0.11432,1.01865 -0.50927,4.29286 -0.87766,7.27604 -0.3684,2.98318 -1.14559,8.22193 -1.72709,11.64167 -0.58151,3.41974 -1.41374,7.94411 -1.84941,10.05416 -0.43567,2.11006 -1.20494,5.56287 -1.70949,7.67292 -0.50455,2.11005 -1.44912,5.75034 -2.09906,8.08954 -0.64993,2.33919 -2.00898,6.68497 -3.0201,9.65729 -1.01112,2.97232 -2.31392,6.56507 -2.89512,7.9839 l -1.05673,2.57968 z m -58.92991,9.77679 c -2.32247,-0.0109 -4.25025,-0.15807 -5.11321,-0.39047 -0.76186,-0.20518 -1.96528,-0.667 -2.67426,-1.02627 -0.70897,-0.35926 -1.66321,-0.96804 -2.12051,-1.35284 -0.4987,-0.41962 -0.83147,-0.94895 -0.83147,-1.32257 0,-0.34379 0.26351,-0.80751 0.58804,-1.03481 0.32854,-0.23013 1.13361,-0.41188 1.82438,-0.41188 0.78281,0 1.92058,0.29117 3.10162,0.79375 1.13522,0.48308 2.32553,0.79375 3.04119,0.79375 0.64674,0 2.12489,-0.18002 3.28478,-0.40005 1.15988,-0.22003 2.9292,-0.67928 3.93183,-1.02057 1.00262,-0.34129 2.59686,-1.00915 3.54274,-1.48414 0.94589,-0.47499 3.04598,-1.80167 4.66686,-2.94818 1.62089,-1.14651 3.1262,-2.08456 3.34513,-2.08456 0.21894,0 0.47033,0.18833 0.55866,0.41851 0.0883,0.23019 0.1606,0.9493 0.1606,1.59804 0,0.64874 -0.22851,1.62127 -0.50779,2.16118 -0.27929,0.5399 -1.08296,1.52496 -1.78594,2.18902 -0.70298,0.66406 -1.72397,1.53282 -2.26886,1.93058 -0.54489,0.39775 -1.85458,1.13246 -2.91042,1.63268 -1.05583,0.50022 -2.86148,1.14951 -4.01254,1.44286 -1.63519,0.41674 -2.90807,0.52957 -5.82083,0.51597 z m 79.26915,-85.17842 c -0.0728,0 0.0832,-0.23813 0.3466,-0.52917 0.26339,-0.29104 0.53842,-0.52916 0.61118,-0.52916 0.0728,0 -0.0832,0.23812 -0.34659,0.52916 -0.26339,0.29104 -0.53843,0.52917 -0.61119,0.52917 z M 314.33644,96.946929 c -0.0549,0 -0.0999,-0.04495 -0.0999,-0.0999 0,-0.05494 0.20836,-0.263302 0.46302,-0.463021 0.41965,-0.329108 0.42901,-0.319749 0.0999,0.0999 -0.19972,0.254661 -0.40808,0.463021 -0.46302,0.463021 z"
         id="path11021"
         sodipodi:nodetypes="cssssssssssssccsssssssssssssssscccsssscssssssssssscscsssssssssssssssssssssssssssssssssssssssssssssssssssssssssscsssssssssssscccssssssssssssssscssssssssccssssssssssssssssssssssssssssssss" /><ellipse
         style="display:inline;fill:#ffffff;fill-opacity:1;stroke:none;stroke-width:0.25;stroke-dasharray:none;stroke-opacity:1"
         id="path11031"
         cx="384.72427"
         cy="211.20197"
         rx="4.5120926"
         ry="5.5476551" /><ellipse
         style="display:inline;fill:#ffffff;fill-opacity:1;stroke:none;stroke-width:0.25;stroke-dasharray:none;stroke-opacity:1"
         id="path11031-5"
         cx="465.875"
         cy="206.93794"
         rx="4.5120926"
         ry="5.5476551" /><path
         style="display:inline;fill:#bcd5e7;fill-opacity:1"
         d="m 480.99868,137.95154 c -0.55037,-0.003 -1.48186,-0.22438 -2.06996,-0.49152 -0.58811,-0.26714 -1.41079,-0.8896 -1.82818,-1.38325 -0.41739,-0.49365 -1.09698,-1.61749 -1.51018,-2.49742 -0.41321,-0.87993 -0.99542,-2.66587 -1.2938,-3.96875 -0.35778,-1.56228 -0.59288,-3.76528 -0.69046,-6.46992 -0.10782,-2.98858 -0.033,-4.97055 0.2758,-7.30644 0.23307,-1.76297 0.76638,-4.56094 1.18514,-6.21771 0.41877,-1.65677 1.20428,-4.08387 1.74559,-5.39356 0.54131,-1.30969 1.52975,-3.30031 2.19653,-4.423609 0.66679,-1.123297 1.81689,-2.652561 2.5558,-3.398365 0.7389,-0.745804 1.78519,-1.582914 2.3251,-1.860245 0.63386,-0.325592 1.52438,-0.503759 2.51354,-0.502883 1.12078,9.91e-4 1.79278,0.160755 2.504,0.595312 0.53466,0.326676 1.20319,0.891613 1.48563,1.255415 0.28244,0.363802 0.82011,1.268476 1.19483,2.010387 0.37471,0.741911 0.93195,2.330618 1.2383,3.530458 0.30634,1.19985 0.69292,3.48159 0.85906,5.07054 0.22695,2.17053 0.22634,3.76002 -0.002,6.39141 -0.16748,1.92633 -0.48915,4.57398 -0.71481,5.88367 -0.22566,1.30968 -0.77437,3.6314 -1.21936,5.15937 -0.44499,1.52797 -1.25963,3.74053 -1.81032,4.9168 -0.55069,1.17627 -1.59738,3.02174 -2.32599,4.10104 -0.72861,1.0793 -1.88392,2.47746 -2.56736,3.10702 -0.68345,0.62957 -1.64833,1.31417 -2.1442,1.52136 -0.49586,0.20718 -1.35187,0.37408 -1.90225,0.37089 z"
         id="path11029" /><path
         style="display:inline;fill:#191c1e;fill-opacity:1"
         d="m 383.57393,232.82848 c -0.80947,0.0501 -1.84895,-0.006 -2.30997,-0.12402 -0.46101,-0.11834 -1.37381,-0.52905 -2.02844,-0.91269 -0.65463,-0.38363 -1.73549,-1.32084 -2.40193,-2.08267 -0.66643,-0.76184 -1.62676,-2.17503 -2.13406,-3.14042 -0.50731,-0.9654 -1.16177,-2.7539 -1.45437,-3.97445 -0.38142,-1.5911 -0.53122,-3.11778 -0.52925,-5.39418 10e-4,-1.75091 0.17608,-4.00571 0.38919,-5.02708 0.21255,-1.01865 0.92239,-2.938 1.57742,-4.26524 0.82456,-1.67073 1.64516,-2.86733 2.66724,-3.88942 1.02225,-1.02225 1.93937,-1.65113 2.98205,-2.04485 1.17062,-0.44203 1.89443,-0.5418 3.25191,-0.44823 1.25821,0.0867 2.13561,0.33232 3.13991,0.87893 0.76657,0.41722 1.9176,1.35713 2.55785,2.0887 0.64025,0.73156 1.62791,2.28261 2.19479,3.44678 0.56689,1.16416 1.23828,2.9501 1.49199,3.96874 0.32434,1.30224 0.45801,2.87323 0.45024,5.29167 -0.008,2.63549 -0.14219,3.93441 -0.57201,5.55625 -0.30852,1.16417 -0.9119,2.83439 -1.34084,3.71161 -0.42894,0.87722 -1.45537,2.34138 -2.28096,3.25369 -0.86148,0.95197 -2.0716,1.94785 -2.84004,2.33725 -0.8206,0.41583 -1.90872,0.71378 -2.81072,0.76963 z m 0.82416,-17.34822 c 0.49149,0 1.15984,-0.18646 1.48521,-0.41436 0.32537,-0.2279 0.84045,-0.90218 1.14462,-1.49841 0.44265,-0.86766 0.5328,-1.44215 0.45167,-2.87802 -0.0862,-1.52556 -0.22307,-1.94464 -0.91478,-2.80107 -0.44738,-0.5539 -1.13718,-1.12244 -1.53289,-1.26341 -0.56222,-0.2003 -0.92765,-0.14246 -1.6719,0.26458 -0.53382,0.29196 -1.17584,0.9561 -1.46077,1.5111 -0.2796,0.54462 -0.56867,1.43987 -0.64239,1.98945 -0.0737,0.54958 0.008,1.52554 0.18091,2.16881 0.17975,0.66753 0.69091,1.54555 1.19081,2.04545 0.64568,0.64568 1.11075,0.87588 1.76951,0.87588 z m 78.81788,14.00203 c -0.51978,-0.0115 -1.48084,-0.20919 -2.13568,-0.43934 -0.77128,-0.27107 -1.71855,-0.95691 -2.68951,-1.94726 -0.92391,-0.94236 -1.8617,-2.27088 -2.4447,-3.46327 -0.52019,-1.06395 -1.15538,-2.70836 -1.41153,-3.65424 -0.36131,-1.33425 -0.46572,-2.75781 -0.46572,-6.35 0,-4.11423 0.069,-4.85135 0.61962,-6.61459 0.34079,-1.0914 1.041,-2.78966 1.55601,-3.7739 0.58019,-1.10878 1.51015,-2.32072 2.44466,-3.18591 0.87849,-0.81333 1.95397,-1.52992 2.57572,-1.7162 0.58711,-0.1759 1.51609,-0.31982 2.06441,-0.31982 0.54831,0 1.4773,0.14392 2.0644,0.31982 0.62175,0.18628 1.69723,0.90287 2.57573,1.7162 0.93451,0.86519 1.86447,2.07713 2.44465,3.18591 0.51502,0.98424 1.21523,2.6825 1.55602,3.7739 0.55056,1.76324 0.61961,2.50036 0.61961,6.61459 0,3.59219 -0.1044,5.01575 -0.46571,6.35 -0.25615,0.94588 -0.89134,2.59029 -1.41154,3.65424 -0.58418,1.19482 -1.51891,2.51817 -2.4447,3.46113 -1.04933,1.06879 -1.88995,1.65908 -2.80278,1.96815 -0.71715,0.24281 -1.72918,0.43208 -2.24896,0.42059 z m 2.86503,-17.97078 c 0.64092,0 1.19736,-0.19791 1.59314,-0.56664 0.33452,-0.31165 0.77369,-0.96267 0.97593,-1.44671 0.20225,-0.48404 0.36772,-1.54256 0.36772,-2.35227 0,-0.80972 -0.16816,-1.87467 -0.37369,-2.36656 -0.20552,-0.4919 -0.62224,-1.14292 -0.92604,-1.44671 -0.37178,-0.37179 -0.89065,-0.55236 -1.58717,-0.55236 -0.82734,0 -1.17011,0.16079 -1.70962,0.80197 -0.37115,0.44108 -0.79779,1.24475 -0.94809,1.78593 -0.1503,0.54119 -0.27327,1.34116 -0.27327,1.77773 0,0.43656 0.12297,1.23653 0.27327,1.77772 0.1503,0.54118 0.57694,1.34485 0.94809,1.78593 0.52878,0.62843 0.88794,0.80197 1.65973,0.80197 z"
         id="path11020"
         sodipodi:nodetypes="scsssssssssssssscsssssssssssssssssssssssssssssssssssssssssssssssssss" /></g></g></svg>
