<?xml version="1.0" encoding="UTF-8" standalone="no"?>
<svg xmlns:ffdec="https://www.free-decompiler.com/flash" xmlns:xlink="http://www.w3.org/1999/xlink" ffdec:objectType="frame" height="31.8px" width="31.05px" xmlns="http://www.w3.org/2000/svg">
  <g transform="matrix(1.0, 0.0, 0.0, 1.0, 1.5, 1.85)">
    <use ffdec:characterId="5550" height="31.8" transform="matrix(1.0, 0.0, 0.0, 1.0, -1.5, -1.85)" width="31.05" xlink:href="#shape0"/>
  </g>
  <defs>
    <g id="shape0" transform="matrix(1.0, 0.0, 0.0, 1.0, 1.5, 1.85)">
      <path d="M27.75 14.05 Q26.05 16.85 17.05 22.05 8.1 27.3 2.75 28.3 -0.5 19.2 0.1 12.35 0.7 5.55 2.75 0.0 12.45 3.65 19.1 7.5 25.65 11.35 27.75 14.05" fill="#7cb421" fill-rule="evenodd" stroke="none"/>
      <path d="M27.75 14.05 Q25.65 11.35 19.1 7.5 12.45 3.65 2.75 0.0 0.7 5.55 0.1 12.35 -0.5 19.2 2.75 28.3 8.1 27.3 17.05 22.05 26.05 16.85 27.75 14.05 Z" fill="none" stroke="#2d4307" stroke-linecap="butt" stroke-linejoin="miter-clip" stroke-miterlimit="3.0" stroke-width="3.0"/>
      <path d="M25.35 13.95 Q15.2 7.95 8.95 8.45 2.65 8.9 2.35 15.95 1.6 12.9 2.55 7.35 3.05 4.55 3.7 2.45 7.8 3.5 17.05 8.85 L25.35 13.95" fill="#d3f59b" fill-rule="evenodd" stroke="none"/>
    </g>
  </defs>
</svg>
