<?xml version="1.0" encoding="UTF-8" standalone="no"?>
<svg xmlns:ffdec="https://www.free-decompiler.com/flash" xmlns:xlink="http://www.w3.org/1999/xlink" ffdec:objectType="frame" height="610.65px" width="810.0px" xmlns="http://www.w3.org/2000/svg">
  <g transform="matrix(1.0, 0.0, 0.0, 1.0, 5.1, 13.0)">
    <use ffdec:characterId="8942" height="610.65" transform="matrix(1.0, 0.0, 0.0, 1.0, -5.1, -13.0)" width="810.0" xlink:href="#shape0"/>
  </g>
  <defs>
    <g id="shape0" transform="matrix(1.0, 0.0, 0.0, 1.0, 5.1, 13.0)">
      <path d="M81.2 -9.1 L82.7 -8.9 Q91.05 4.9 98.05 19.45 L101.25 26.35 Q105.15 35.05 99.75 42.75 L98.65 44.35 Q101.8 53.35 101.6 62.65 L101.4 66.1 Q101.15 69.0 98.8 72.05 85.55 89.4 67.95 95.1 59.3 97.85 49.65 97.85 L42.7 97.15 Q37.8 98.85 32.65 99.8 15.7 80.35 -5.1 64.15 -3.7 46.75 -4.25 28.8 -4.85 8.8 -2.5 -10.9 L49.1 -13.0 81.2 -9.1 M95.25 25.4 Q95.65 24.15 94.5 21.15 L95.25 25.4 M56.05 182.95 Q63.05 208.8 32.55 214.6 16.75 217.6 1.9 216.05 1.45 208.6 1.6 201.05 1.85 186.25 0.45 171.8 -1.2 154.85 2.15 142.3 45.3 143.45 56.05 182.95 M294.4 543.45 L294.6 544.0 Q328.95 545.65 319.55 577.5 311.9 603.65 280.85 595.85 243.8 586.55 260.85 556.0 263.8 550.7 268.5 545.7 272.95 540.95 278.1 538.25 L286.95 539.15 Q291.45 540.05 294.4 543.45 M718.4 193.5 Q718.25 192.55 718.55 192.0 724.7 183.95 734.6 179.15 744.85 174.25 755.4 171.3 810.55 169.45 804.25 223.5 799.75 263.0 763.1 263.0 744.7 263.0 730.7 249.55 706.15 225.95 719.65 194.3 L718.4 193.5 M709.1 335.3 Q751.05 336.5 746.4 375.8 744.8 389.5 731.3 394.0 691.9 407.05 683.8 373.5 682.65 368.7 682.6 364.4 682.3 345.5 703.55 336.55 705.5 335.7 709.1 335.3" fill="#ff00ee" fill-rule="evenodd" stroke="none"/>
    </g>
  </defs>
</svg>
