<?xml version="1.0" encoding="UTF-8" standalone="no"?>
<svg xmlns:ffdec="https://www.free-decompiler.com/flash" xmlns:xlink="http://www.w3.org/1999/xlink" ffdec:objectType="frame" height="560.85px" width="661.8px" xmlns="http://www.w3.org/2000/svg">
  <g transform="matrix(1.0, 0.0, 0.0, 1.0, 3.8, -50.45)">
    <use ffdec:characterId="8940" height="560.85" transform="matrix(1.0, 0.0, 0.0, 1.0, -3.8, 50.45)" width="661.8" xlink:href="#shape0"/>
  </g>
  <defs>
    <g id="shape0" transform="matrix(1.0, 0.0, 0.0, 1.0, 3.8, -50.45)">
      <path d="M158.55 392.6 Q158.6 389.7 159.5 386.2 160.55 382.0 162.1 380.5 165.5 377.2 170.35 377.25 L183.9 376.75 196.05 376.2 Q200.0 375.75 203.15 378.3 206.25 380.8 206.7 384.75 206.9 387.05 206.4 390.5 205.8 394.4 204.65 395.85 202.15 398.95 198.2 399.4 L181.5 401.25 177.65 600.0 Q177.55 604.75 174.1 608.05 170.65 611.4 165.9 611.3 161.1 611.2 157.8 607.75 154.45 604.3 154.55 599.55 L158.55 392.6 M154.15 294.35 L161.75 222.65 Q162.65 217.95 166.65 215.25 170.65 212.55 175.3 213.5 L177.9 214.3 Q199.35 211.25 226.65 212.0 254.15 212.75 281.4 217.2 283.55 216.25 286.1 216.25 290.9 216.25 294.3 219.65 297.65 223.0 297.65 227.8 L297.65 480.3 437.1 482.05 438.5 462.15 Q438.75 458.2 441.8 455.55 443.3 454.2 451.15 454.6 459.05 455.0 460.35 456.5 461.05 457.3 465.75 458.75 469.85 460.0 469.75 461.5 L467.75 490.5 Q467.45 494.25 464.65 496.9 463.3 498.15 458.05 499.85 453.0 501.5 451.0 501.45 L292.4 499.55 Q289.6 501.35 286.1 501.35 281.3 501.35 277.95 498.0 274.55 494.6 274.55 489.8 L274.55 235.65 Q227.05 228.3 189.3 233.1 L181.45 305.95 Q180.55 310.65 176.6 313.35 172.6 316.05 167.95 315.15 166.45 314.85 -1.65 316.45 -3.65 316.5 -3.8 306.85 -4.0 297.2 -2.0 297.15 L154.15 294.35 M649.6 138.4 Q653.6 139.55 653.75 140.55 657.6 164.45 657.95 181.25 658.4 202.4 654.1 224.25 653.7 226.3 651.05 228.45 643.2 234.1 641.25 234.4 L559.1 244.2 553.65 365.65 Q553.45 368.45 550.45 377.5 548.65 382.95 548.75 384.65 547.1 385.15 544.0 386.35 535.35 389.65 532.75 390.1 493.6 394.1 451.65 396.2 410.35 398.3 369.15 398.45 367.15 398.45 367.15 384.3 367.1 370.15 369.1 370.15 L448.75 370.0 Q494.75 369.45 527.15 366.25 L532.6 235.0 Q533.0 230.15 536.55 227.1 540.2 223.95 544.95 224.3 547.3 224.45 549.3 225.5 L633.05 215.95 Q644.25 182.4 632.65 153.95 L551.6 147.0 Q549.45 148.15 546.8 148.35 542.0 148.6 538.45 145.45 534.85 142.25 534.6 137.45 L531.05 75.75 Q356.1 64.6 184.05 74.1 182.5 75.25 180.5 75.85 179.85 78.3 179.5 95.25 179.05 116.05 180.6 131.35 L436.3 136.15 Q438.0 136.2 439.65 136.85 442.4 137.95 448.6 139.9 453.95 141.6 456.5 142.8 464.5 146.45 466.3 154.05 467.6 155.5 468.1 161.75 468.4 165.55 468.3 170.05 L465.65 306.05 Q465.6 308.4 452.55 308.2 439.5 307.95 439.55 305.55 L435.2 167.55 Q435.3 165.25 436.1 163.3 433.85 156.65 427.05 153.45 L176.3 150.6 Q174.3 151.8 171.85 152.2 167.1 152.9 163.3 150.1 159.4 147.25 158.7 142.55 155.8 123.5 156.4 94.8 157.2 55.9 173.7 53.75 178.25 52.35 182.5 54.6 L182.9 54.85 Q358.15 45.2 536.4 56.75 538.65 55.45 541.45 55.3 546.2 55.0 549.75 58.2 L554.55 61.75 Q557.55 64.15 557.65 66.15 L561.2 128.05 639.95 135.2 Q642.45 135.4 644.55 136.85 L649.6 138.4" fill="#ff00ee" fill-rule="evenodd" stroke="none"/>
    </g>
  </defs>
</svg>
