<?xml version="1.0" encoding="UTF-8" standalone="no"?>
<svg xmlns:ffdec="https://www.free-decompiler.com/flash" xmlns:xlink="http://www.w3.org/1999/xlink" ffdec:objectType="frame" height="17.35px" width="5.85px" xmlns="http://www.w3.org/2000/svg">
  <g transform="matrix(1.0, 0.0, 0.0, 1.0, 0.25, -0.3)">
    <use ffdec:characterId="75" height="17.35" transform="matrix(1.0, 0.0, 0.0, 1.0, -0.25, 0.3)" width="5.85" xlink:href="#shape0"/>
  </g>
  <defs>
    <g id="shape0" transform="matrix(1.0, 0.0, 0.0, 1.0, 0.25, -0.3)">
      <path d="M0.0 15.0 L0.2 14.85 Q3.85 13.9 2.4 8.6 0.65 4.25 3.75 0.55 L5.15 1.6 Q2.65 4.5 4.7 9.2 6.8 15.95 2.0 17.4 L1.9 17.4 0.0 15.0" fill="#000000" fill-rule="evenodd" stroke="none"/>
      <path d="M0.2 14.85 Q3.85 13.9 2.4 8.6 0.65 4.25 3.75 0.55 L5.15 1.6 Q2.65 4.5 4.7 9.2 6.8 15.95 2.0 17.4 L1.9 17.4 0.0 15.0" ffdec:has-small-stroke="true" ffdec:original-stroke-width="0.5" fill="none" stroke="#000000" stroke-linecap="round" stroke-linejoin="round" stroke-width="1.0"/>
    </g>
  </defs>
</svg>
