<?xml version="1.0" encoding="UTF-8" standalone="no"?>
<svg xmlns:ffdec="https://www.free-decompiler.com/flash" xmlns:xlink="http://www.w3.org/1999/xlink" ffdec:objectType="frame" height="15.4px" width="10.65px" xmlns="http://www.w3.org/2000/svg">
  <g transform="matrix(1.0, 0.0, 0.0, 1.0, -3.85, 0.6)">
    <use ffdec:characterId="33" height="15.4" transform="matrix(1.0, 0.0, 0.0, 1.0, 3.85, -0.6)" width="10.65" xlink:href="#shape0"/>
  </g>
  <defs>
    <g id="shape0" transform="matrix(1.0, 0.0, 0.0, 1.0, -3.85, 0.6)">
      <path d="M4.6 -0.3 L5.0 -0.55 5.15 -0.6 6.25 0.25 Q7.35 1.5 7.55 3.6 7.6 4.75 9.1 8.75 9.6 10.05 10.5 10.8 11.3 11.45 12.2 11.45 12.85 11.45 13.35 11.1 L14.3 10.2 14.5 12.0 14.45 13.35 14.2 13.6 13.15 14.25 Q12.1 14.8 11.35 14.8 7.0 14.8 5.35 6.65 L3.85 0.3 4.6 -0.3" fill="#000000" fill-rule="evenodd" stroke="none"/>
    </g>
  </defs>
</svg>
