<?xml version="1.0" encoding="UTF-8" standalone="no"?>
<svg xmlns:ffdec="https://www.free-decompiler.com/flash" xmlns:xlink="http://www.w3.org/1999/xlink" ffdec:objectType="frame" height="70.4px" width="99.2px" xmlns="http://www.w3.org/2000/svg">
  <g transform="matrix(1.0, 0.0, 0.0, 1.0, 35.7, 35.4)">
    <use ffdec:characterId="1121" height="169.35" transform="matrix(0.0, -0.1894, 0.1894, 0.0, -17.432, 25.3893)" width="62.8" xlink:href="#shape0"/>
    <use ffdec:characterId="1121" height="169.35" transform="matrix(0.0, 0.1894, 0.1894, 0.0, -17.432, -25.3893)" width="62.8" xlink:href="#shape0"/>
    <use ffdec:characterId="692" height="301.35" transform="matrix(0.0, -0.1894, 0.1894, 0.0, -29.641, 15.8101)" width="165.85" xlink:href="#shape1"/>
  </g>
  <defs>
    <g id="shape0" transform="matrix(1.0, 0.0, 0.0, 1.0, 40.6, 84.65)">
      <path d="M-17.6 -25.6 L-17.6 21.6 -37.6 21.6 -37.6 -25.6 -17.6 -25.6" fill="#7b5930" fill-rule="evenodd" stroke="none"/>
      <path d="M-17.6 -25.6 L-17.6 21.6 -37.6 21.6 -37.6 -25.6 -17.6 -25.6 Z" fill="none" stroke="#412709" stroke-linecap="round" stroke-linejoin="round" stroke-width="6.0"/>
      <path d="M0.5 -81.65 Q10.5 -81.4 14.5 -77.4 16.3 -75.55 17.65 -52.25 18.95 -30.45 19.15 -1.45 19.4 28.9 18.3 49.85 17.05 73.65 14.5 76.2 9.0 81.7 -0.15 81.7 -9.25 81.7 -14.3 76.2 -16.7 73.6 -18.05 50.0 -19.25 28.75 -19.2 -1.0 -19.1 -30.45 -17.9 -51.8 -16.55 -75.15 -14.3 -77.4 -9.85 -81.9 0.5 -81.65" fill="#7b5930" fill-rule="evenodd" stroke="none"/>
      <path d="M7.05 -80.95 Q11.95 -79.95 14.5 -77.4 16.3 -75.55 17.65 -52.25 18.95 -30.45 19.15 -1.45 19.4 28.9 18.3 49.85 17.05 73.65 14.5 76.2 11.4 79.3 7.15 80.7 2.95 79.3 0.1 76.2 -2.3 73.6 -3.65 50.0 -4.85 28.75 -4.8 -1.0 -4.7 -30.45 -3.5 -51.8 -2.15 -75.15 0.1 -77.4 2.6 -79.95 7.05 -80.95" fill="#4a361c" fill-rule="evenodd" stroke="none"/>
      <path d="M-14.3 -77.4 Q-16.55 -75.15 -17.9 -51.8 -19.1 -30.45 -19.2 -1.0 -19.25 28.75 -18.05 50.0 -16.7 73.6 -14.3 76.2 -9.25 81.7 -0.15 81.7 9.0 81.7 14.5 76.2 17.05 73.65 18.3 49.85 19.4 28.9 19.15 -1.45 18.95 -30.45 17.65 -52.25 16.3 -75.55 14.5 -77.4 10.5 -81.4 0.5 -81.65 -9.85 -81.9 -14.3 -77.4 Z" fill="none" stroke="#412709" stroke-linecap="round" stroke-linejoin="round" stroke-width="6.0"/>
    </g>
    <g id="shape1" transform="matrix(1.0, 0.0, 0.0, 1.0, 82.95, 148.85)">
      <path d="M13.7 -130.15 Q13.7 -123.45 8.95 -118.7 6.75 -116.5 4.1 -115.3 L4.1 -91.15 -10.3 -91.15 -10.3 -115.9 Q-12.25 -117.0 -13.95 -118.7 -18.7 -123.45 -18.7 -130.15 -18.7 -136.85 -13.95 -141.6 -9.2 -146.35 -2.5 -146.35 4.2 -146.35 8.95 -141.6 13.7 -136.85 13.7 -130.15" fill="#0f1015" fill-rule="evenodd" stroke="none"/>
      <path d="M13.7 -130.15 Q13.7 -123.45 8.95 -118.7 6.75 -116.5 4.1 -115.3 L4.1 -91.15 -10.3 -91.15 -10.3 -115.9 Q-12.25 -117.0 -13.95 -118.7 -18.7 -123.45 -18.7 -130.15 -18.7 -136.85 -13.95 -141.6 -9.2 -146.35 -2.5 -146.35 4.2 -146.35 8.95 -141.6 13.7 -136.85 13.7 -130.15 Z" ffdec:has-small-stroke="true" ffdec:original-stroke-width="5.0" fill="none" stroke="#000000" stroke-linecap="round" stroke-linejoin="round" stroke-width="5.280051563003546"/>
      <path d="M-48.1 103.55 Q-52.4 93.1 -57.05 79.65 -70.85 39.6 -75.15 6.25 -81.15 -40.5 -67.2 -67.2 -49.8 -100.55 -2.0 -100.55 45.8 -100.55 64.75 -67.2 79.95 -40.5 76.15 6.25 73.4 39.6 61.4 79.65 57.25 93.6 53.35 104.3 59.0 110.15 59.0 117.2 59.0 129.35 42.35 137.85 25.75 146.5 2.25 146.5 -21.3 146.5 -37.9 137.85 -54.5 129.35 -54.5 117.2 -54.5 109.7 -48.1 103.55 L-44.05 113.0 -41.85 114.55 Q-38.7 116.4 -34.25 117.95 -19.9 122.9 2.75 122.9 25.4 122.9 39.95 117.95 47.25 115.5 50.0 113.0 L53.35 104.3 50.0 113.0 Q47.25 115.5 39.95 117.95 25.4 122.9 2.75 122.9 -19.9 122.9 -34.25 117.95 -38.7 116.4 -41.85 114.55 L-44.05 113.0 -48.1 103.55" fill="#000000" fill-rule="evenodd" stroke="none"/>
      <path d="M-48.1 103.55 Q-52.4 93.1 -57.05 79.65 -70.85 39.6 -75.15 6.25 -81.15 -40.5 -67.2 -67.2 -49.8 -100.55 -2.0 -100.55 45.8 -100.55 64.75 -67.2 79.95 -40.5 76.15 6.25 73.4 39.6 61.4 79.65 57.25 93.6 53.35 104.3 59.0 110.15 59.0 117.2 59.0 129.35 42.35 137.85 25.75 146.5 2.25 146.5 -21.3 146.5 -37.9 137.85 -54.5 129.35 -54.5 117.2 -54.5 109.7 -48.1 103.55 L-44.05 113.0 -41.85 114.55 Q-38.7 116.4 -34.25 117.95 -19.9 122.9 2.75 122.9 25.4 122.9 39.95 117.95 47.25 115.5 50.0 113.0 L53.35 104.3" fill="none" stroke="#000000" stroke-linecap="round" stroke-linejoin="round" stroke-width="12.0"/>
      <path d="M-54.5 117.2 Q-54.5 105.1 -37.9 96.5 -21.3 87.95 2.25 87.95 25.75 87.95 42.35 96.5 59.0 105.1 59.0 117.2 59.0 129.35 42.35 137.85 25.75 146.5 2.25 146.5 -21.3 146.5 -37.9 137.85 -54.5 129.35 -54.5 117.2" fill="#0f1015" fill-rule="evenodd" stroke="none"/>
      <path d="M-37.9 96.5 Q-21.3 87.95 2.25 87.95 L3.15 87.95 Q-12.0 100.95 -12.0 118.9 L-11.95 120.5 -17.85 124.0 Q-26.5 129.95 -26.5 135.25 -26.5 139.45 -21.2 144.0 -30.3 141.8 -37.9 137.85 -54.5 129.35 -54.5 117.2 -54.5 105.1 -37.9 96.5" fill="#7e7f8c" fill-rule="evenodd" stroke="none"/>
      <path d="M-37.9 96.5 Q-33.65 94.3 -28.9 92.7 -36.0 102.65 -36.0 114.9 L-35.95 116.5 -41.85 120.0 Q-48.55 124.6 -50.05 128.8 -54.5 123.5 -54.5 117.2 -54.5 105.1 -37.9 96.5" fill="#1a1c23" fill-rule="evenodd" stroke="none"/>
      <path d="M59.7 110.6 Q55.9 118.05 44.1 123.85 26.8 132.5 2.25 132.5 -22.3 132.5 -39.65 123.85 -51.4 118.05 -55.2 110.6 -51.4 103.15 -39.65 97.3 -22.3 88.75 2.25 88.75 26.8 88.75 44.1 97.3 55.9 103.15 59.7 110.6" fill="#000000" fill-rule="evenodd" stroke="none"/>
      <path d="M76.15 6.25 Q73.4 39.6 61.4 79.65 55.45 99.65 50.0 113.0 47.25 115.5 39.95 117.95 25.4 122.9 2.75 122.9 -19.9 122.9 -34.25 117.95 -38.7 116.4 -41.85 114.55 L-44.05 113.0 Q-50.1 99.65 -57.05 79.65 -70.85 39.6 -75.15 6.25 -81.15 -40.5 -67.2 -67.2 -49.8 -100.55 -2.0 -100.55 45.8 -100.55 64.75 -67.2 79.95 -40.5 76.15 6.25" fill="#0f1015" fill-rule="evenodd" stroke="none"/>
      <path d="M5.6 -100.3 Q-20.25 -92.15 -32.05 -66.7 -46.0 -36.75 -40.0 15.75 -35.7 53.2 -21.9 98.2 -17.8 111.45 -14.0 122.1 -25.65 120.9 -34.25 117.95 -38.7 116.4 -41.85 114.55 L-44.05 113.0 Q-50.1 99.65 -57.05 79.65 -70.85 39.6 -75.15 6.25 -81.15 -40.5 -67.2 -67.2 -49.8 -100.55 -2.0 -100.55 L5.6 -100.3" fill="#7e7f8c" fill-rule="evenodd" stroke="none"/>
      <path d="M4.65 -100.35 Q-37.95 -98.05 -54.15 -64.1 -68.1 -34.9 -62.1 16.2 -57.8 52.6 -44.0 96.4 -40.45 107.6 -37.1 116.85 L-41.85 114.55 -44.05 113.0 Q-50.1 99.65 -57.05 79.65 -70.85 39.6 -75.15 6.25 -81.15 -40.5 -67.2 -67.2 -49.8 -100.55 -2.0 -100.55 L4.65 -100.35" fill="#1a1c23" fill-rule="evenodd" stroke="none"/>
    </g>
  </defs>
</svg>
