<?xml version="1.0" encoding="UTF-8" standalone="no"?>
<svg xmlns:ffdec="https://www.free-decompiler.com/flash" xmlns:xlink="http://www.w3.org/1999/xlink" ffdec:objectType="frame" height="70.4px" width="99.2px" xmlns="http://www.w3.org/2000/svg">
  <g transform="matrix(1.0, 0.0, 0.0, 1.0, 35.7, 35.4)">
    <use ffdec:characterId="1121" height="169.35" transform="matrix(0.0, -0.1894, 0.1894, 0.0, -16.0333, 25.3899)" width="62.8" xlink:href="#shape0"/>
    <use ffdec:characterId="1121" height="169.35" transform="matrix(0.0, 0.1894, 0.1894, 0.0, -16.0333, -25.3899)" width="62.8" xlink:href="#shape0"/>
    <use ffdec:characterId="693" height="14.4" transform="matrix(0.0, -1.5358, 1.5358, 0.0, 12.5062, 25.0351)" width="32.9" xlink:href="#shape1"/>
    <use ffdec:characterId="694" height="24.25" transform="matrix(0.0, -1.5358, 1.5358, 0.0, 4.2129, 17.7401)" width="25.4" xlink:href="#shape2"/>
    <use ffdec:characterId="692" height="301.35" transform="matrix(0.0, -0.3472, 0.095, 0.0, -13.9932, 28.9026)" width="165.85" xlink:href="#shape3"/>
  </g>
  <defs>
    <g id="shape0" transform="matrix(1.0, 0.0, 0.0, 1.0, 40.6, 84.65)">
      <path d="M-17.6 -25.6 L-17.6 21.6 -37.6 21.6 -37.6 -25.6 -17.6 -25.6" fill="#7b5930" fill-rule="evenodd" stroke="none"/>
      <path d="M-17.6 -25.6 L-17.6 21.6 -37.6 21.6 -37.6 -25.6 -17.6 -25.6 Z" fill="none" stroke="#412709" stroke-linecap="round" stroke-linejoin="round" stroke-width="6.0"/>
      <path d="M0.5 -81.65 Q10.5 -81.4 14.5 -77.4 16.3 -75.55 17.65 -52.25 18.95 -30.45 19.15 -1.45 19.4 28.9 18.3 49.85 17.05 73.65 14.5 76.2 9.0 81.7 -0.15 81.7 -9.25 81.7 -14.3 76.2 -16.7 73.6 -18.05 50.0 -19.25 28.75 -19.2 -1.0 -19.1 -30.45 -17.9 -51.8 -16.55 -75.15 -14.3 -77.4 -9.85 -81.9 0.5 -81.65" fill="#7b5930" fill-rule="evenodd" stroke="none"/>
      <path d="M7.05 -80.95 Q11.95 -79.95 14.5 -77.4 16.3 -75.55 17.65 -52.25 18.95 -30.45 19.15 -1.45 19.4 28.9 18.3 49.85 17.05 73.65 14.5 76.2 11.4 79.3 7.15 80.7 2.95 79.3 0.1 76.2 -2.3 73.6 -3.65 50.0 -4.85 28.75 -4.8 -1.0 -4.7 -30.45 -3.5 -51.8 -2.15 -75.15 0.1 -77.4 2.6 -79.95 7.05 -80.95" fill="#4a361c" fill-rule="evenodd" stroke="none"/>
      <path d="M-14.3 -77.4 Q-16.55 -75.15 -17.9 -51.8 -19.1 -30.45 -19.2 -1.0 -19.25 28.75 -18.05 50.0 -16.7 73.6 -14.3 76.2 -9.25 81.7 -0.15 81.7 9.0 81.7 14.5 76.2 17.05 73.65 18.3 49.85 19.4 28.9 19.15 -1.45 18.95 -30.45 17.65 -52.25 16.3 -75.55 14.5 -77.4 10.5 -81.4 0.5 -81.65 -9.85 -81.9 -14.3 -77.4 Z" fill="none" stroke="#412709" stroke-linecap="round" stroke-linejoin="round" stroke-width="6.0"/>
    </g>
    <g id="shape1" transform="matrix(1.0, 0.0, 0.0, 1.0, 17.05, -12.05)">
      <path d="M15.85 19.15 Q14.2 18.2 12.45 17.55 L8.4 17.4 Q7.55 18.5 8.8 21.05 L10.45 23.65 Q9.15 22.25 7.1 21.0 3.45 18.7 -0.45 18.7 -4.3 18.7 -6.35 22.35 -7.45 24.25 -7.8 26.45 L-7.45 21.85 Q-7.3 17.75 -8.2 16.85 -9.15 15.95 -12.95 17.55 -15.0 18.4 -17.05 19.5 L-9.8 12.05 9.3 12.05 15.85 19.15" fill="#f73600" fill-rule="evenodd" stroke="none"/>
    </g>
    <g id="shape2" transform="matrix(1.0, 0.0, 0.0, 1.0, 12.3, -6.65)">
      <path d="M6.75 14.0 Q8.65 16.5 8.65 19.9 8.65 23.3 6.75 25.7 4.85 28.2 2.15 28.2 -0.55 28.2 -2.45 25.7 -4.35 23.3 -4.35 19.9 -4.35 16.5 -2.45 14.0 -0.55 11.6 2.15 11.6 4.85 11.6 6.75 14.0" fill="#696565" fill-rule="evenodd" stroke="none"/>
      <path d="M-5.65 14.5 Q-4.5 16.25 -4.5 18.7 -4.5 21.15 -5.65 22.85 -6.8 24.6 -8.4 24.6 -10.0 24.6 -11.15 22.85 -12.3 21.15 -12.3 18.7 -12.3 16.25 -11.15 14.5 -10.0 12.75 -8.4 12.75 -6.8 12.75 -5.65 14.5" fill="#696565" fill-rule="evenodd" stroke="none"/>
      <path d="M12.0 20.45 Q13.1 22.0 13.1 24.2 13.1 26.35 12.0 27.95 10.95 29.5 9.4 29.5 7.85 29.5 6.75 27.95 5.7 26.35 5.7 24.2 5.7 22.0 6.75 20.45 7.85 18.85 9.4 18.85 10.95 18.85 12.0 20.45" fill="#696565" fill-rule="evenodd" stroke="none"/>
      <path d="M-2.25 20.05 Q-1.15 21.6 -1.15 23.9 -1.15 26.15 -2.25 27.7 -3.3 29.3 -4.75 29.3 -6.25 29.3 -7.35 27.7 -8.4 26.15 -8.4 23.9 -8.4 21.6 -7.35 20.05 -6.25 18.45 -4.75 18.45 -3.3 18.45 -2.25 20.05" fill="#696565" fill-rule="evenodd" stroke="none"/>
      <path d="M-0.5 10.55 Q0.95 12.15 0.95 14.25 0.95 16.35 -0.5 17.8 -1.9 19.4 -3.85 19.4 -5.85 19.4 -7.3 17.8 -8.65 16.35 -8.65 14.25 -8.65 12.15 -7.3 10.55 -5.85 9.1 -3.85 9.1 -1.9 9.1 -0.5 10.55" fill="#696565" fill-rule="evenodd" stroke="none"/>
      <path d="M11.8 14.7 Q12.75 16.1 12.75 18.1 12.75 20.1 11.8 21.5 10.85 22.9 9.55 22.9 8.2 22.9 7.3 21.5 6.35 20.1 6.35 18.1 6.35 16.1 7.3 14.7 8.2 13.3 9.55 13.3 10.85 13.3 11.8 14.7" fill="#696565" fill-rule="evenodd" stroke="none"/>
      <path d="M7.1 8.3 Q8.45 9.95 8.45 12.3 8.45 14.65 7.1 16.35 5.8 18.0 3.9 18.0 2.05 18.0 0.7 16.35 -0.6 14.65 -0.6 12.3 -0.6 9.95 0.7 8.3 2.05 6.65 3.9 6.65 5.8 6.65 7.1 8.3" fill="#696565" fill-rule="evenodd" stroke="none"/>
      <path d="M2.9 23.55 Q3.8 24.9 3.8 26.6 3.8 28.35 2.9 29.6 2.1 30.9 0.9 30.9 -0.35 30.9 -1.2 29.6 -2.05 28.35 -2.05 26.6 -2.05 24.9 -1.2 23.55 -0.35 22.35 0.9 22.35 2.1 22.35 2.9 23.55" fill="#696565" fill-rule="evenodd" stroke="none"/>
      <path d="M-4.9 14.5 Q-4.1 16.05 -4.1 18.2 -4.1 20.4 -4.9 21.85 -5.75 23.45 -6.95 23.45 -8.15 23.45 -9.0 21.85 -9.8 20.4 -9.8 18.2 -9.8 16.05 -9.0 14.5 -8.15 13.0 -6.95 13.0 -5.75 13.0 -4.9 14.5" fill="#95847e" fill-rule="evenodd" stroke="none"/>
      <path d="M-2.1 18.8 Q-1.3 20.2 -1.3 22.05 -1.3 23.95 -2.1 25.2 -2.8 26.6 -3.85 26.6 -4.9 26.6 -5.7 25.2 -6.4 23.95 -6.4 22.05 -6.4 20.2 -5.7 18.8 -4.9 17.55 -3.85 17.55 -2.8 17.55 -2.1 18.8" fill="#95847e" fill-rule="evenodd" stroke="none"/>
      <path d="M-0.55 12.1 Q0.4 13.5 0.4 15.35 0.4 17.25 -0.55 18.5 -1.45 19.9 -2.75 19.9 -4.1 19.9 -5.0 18.5 -5.9 17.25 -5.9 15.35 -5.9 13.5 -5.0 12.1 -4.1 10.85 -2.75 10.85 -1.45 10.85 -0.55 12.1" fill="#95847e" fill-rule="evenodd" stroke="none"/>
      <path d="M3.75 19.3 Q4.65 20.9 4.65 23.05 4.65 25.2 3.75 26.8 2.95 28.4 1.7 28.4 0.5 28.4 -0.4 26.8 -1.2 25.2 -1.2 23.05 -1.2 20.9 -0.4 19.3 0.5 17.75 1.7 17.75 2.95 17.75 3.75 19.3" fill="#95847e" fill-rule="evenodd" stroke="none"/>
      <path d="M1.95 13.2 Q2.75 14.85 2.75 17.15 2.75 19.4 1.95 21.0 1.1 22.65 -0.05 22.65 -1.2 22.65 -2.05 21.0 -2.85 19.4 -2.85 17.15 -2.85 14.85 -2.05 13.2 -1.2 11.6 -0.05 11.6 1.1 11.6 1.95 13.2" fill="#95847e" fill-rule="evenodd" stroke="none"/>
      <path d="M6.7 9.55 Q7.7 10.95 7.7 12.8 7.7 14.65 6.7 16.05 5.75 17.45 4.45 17.45 3.1 17.45 2.1 16.05 1.15 14.65 1.15 12.8 1.15 10.95 2.1 9.55 3.1 8.15 4.45 8.15 5.75 8.15 6.7 9.55" fill="#95847e" fill-rule="evenodd" stroke="none"/>
      <path d="M6.1 15.25 Q6.75 16.55 6.75 18.4 6.75 20.3 6.1 21.55 5.4 22.85 4.5 22.85 3.55 22.85 2.9 21.55 2.2 20.3 2.2 18.4 2.2 16.55 2.9 15.25 3.55 14.0 4.5 14.0 5.4 14.0 6.1 15.25" fill="#95847e" fill-rule="evenodd" stroke="none"/>
      <path d="M10.35 16.25 Q11.35 17.75 11.35 19.7 11.35 21.65 10.35 23.05 9.35 24.55 7.9 24.55 6.45 24.55 5.5 23.05 4.5 21.65 4.5 19.7 4.5 17.75 5.5 16.25 6.45 14.85 7.9 14.85 9.35 14.85 10.35 16.25" fill="#95847e" fill-rule="evenodd" stroke="none"/>
      <path d="M11.1 21.0 Q11.85 22.15 11.85 23.75 11.85 25.3 11.1 26.4 10.4 27.6 9.35 27.6 8.3 27.6 7.55 26.4 6.85 25.3 6.85 23.75 6.85 22.15 7.55 21.0 8.3 19.9 9.35 19.9 10.4 19.9 11.1 21.0" fill="#95847e" fill-rule="evenodd" stroke="none"/>
      <path d="M-4.75 16.4 Q-4.2 17.4 -4.2 18.8 -4.2 20.2 -4.75 21.1 -5.3 22.1 -6.1 22.1 -6.85 22.1 -7.4 21.1 -7.95 20.2 -7.95 18.8 -7.95 17.4 -7.4 16.4 -6.85 15.45 -6.1 15.45 -5.3 15.45 -4.75 16.4" fill="#a8a491" fill-rule="evenodd" stroke="none"/>
      <path d="M-1.8 18.75 Q-1.2 19.8 -1.2 21.3 -1.2 22.8 -1.8 23.75 -2.35 24.8 -3.15 24.8 -4.0 24.8 -4.6 23.75 -5.15 22.8 -5.15 21.3 -5.15 19.8 -4.6 18.75 -4.0 17.8 -3.15 17.8 -2.35 17.8 -1.8 18.75" fill="#a8a491" fill-rule="evenodd" stroke="none"/>
      <path d="M-0.95 13.0 Q-0.3 14.1 -0.3 15.7 -0.3 17.25 -0.95 18.3 -1.55 19.45 -2.45 19.45 -3.3 19.45 -3.95 18.3 -4.55 17.25 -4.55 15.7 -4.55 14.1 -3.95 13.0 -3.3 11.95 -2.45 11.95 -1.55 11.95 -0.95 13.0" fill="#a8a491" fill-rule="evenodd" stroke="none"/>
      <path d="M3.65 16.55 Q4.3 17.95 4.3 19.9 4.3 21.85 3.65 23.25 3.0 24.65 2.15 24.65 1.25 24.65 0.6 23.25 0.0 21.85 0.0 19.9 0.0 17.95 0.6 16.55 1.25 15.15 2.15 15.15 3.0 15.15 3.65 16.55" fill="#a8a491" fill-rule="evenodd" stroke="none"/>
      <path d="M0.35 23.95 L0.45 24.35 0.35 24.8 0.15 25.0 0.0 24.8 -0.1 24.35 0.0 23.95 0.15 23.75 0.35 23.95" fill="#a8a491" fill-rule="evenodd" stroke="none"/>
      <path d="M5.8 10.85 Q6.4 11.75 6.4 13.0 6.4 14.2 5.8 15.1 5.3 15.95 4.45 15.95 3.6 15.95 3.0 15.1 2.5 14.2 2.5 13.0 2.5 11.75 3.0 10.85 3.6 10.0 4.45 10.0 5.3 10.0 5.8 10.85" fill="#a8a491" fill-rule="evenodd" stroke="none"/>
      <path d="M2.15 14.55 Q2.8 15.5 2.8 16.85 2.8 18.15 2.15 19.1 1.45 20.1 0.5 20.1 -0.4 20.1 -1.1 19.1 -1.8 18.15 -1.8 16.85 -1.8 15.5 -1.1 14.55 -0.4 13.6 0.5 13.6 1.45 13.6 2.15 14.55" fill="#a8a491" fill-rule="evenodd" stroke="none"/>
      <path d="M9.0 16.9 Q9.65 17.7 9.65 18.85 9.65 20.0 9.0 20.8 8.35 21.55 7.5 21.55 6.6 21.55 5.95 20.8 5.35 20.0 5.35 18.85 5.35 17.7 5.95 16.9 6.6 16.15 7.5 16.15 8.35 16.15 9.0 16.9" fill="#a8a491" fill-rule="evenodd" stroke="none"/>
      <path d="M9.4 20.5 Q9.95 21.45 9.95 22.65 9.95 23.9 9.4 24.75 8.9 25.75 8.15 25.75 7.45 25.75 6.9 24.75 6.4 23.9 6.4 22.65 6.4 21.45 6.9 20.5 7.45 19.6 8.15 19.6 8.9 19.6 9.4 20.5" fill="#a8a491" fill-rule="evenodd" stroke="none"/>
    </g>
    <g id="shape3" transform="matrix(1.0, 0.0, 0.0, 1.0, 82.95, 148.85)">
      <path d="M13.7 -130.15 Q13.7 -123.45 8.95 -118.7 6.75 -116.5 4.1 -115.3 L4.1 -91.15 -10.3 -91.15 -10.3 -115.9 Q-12.25 -117.0 -13.95 -118.7 -18.7 -123.45 -18.7 -130.15 -18.7 -136.85 -13.95 -141.6 -9.2 -146.35 -2.5 -146.35 4.2 -146.35 8.95 -141.6 13.7 -136.85 13.7 -130.15" fill="#0f1015" fill-rule="evenodd" stroke="none"/>
      <path d="M13.7 -130.15 Q13.7 -123.45 8.95 -118.7 6.75 -116.5 4.1 -115.3 L4.1 -91.15 -10.3 -91.15 -10.3 -115.9 Q-12.25 -117.0 -13.95 -118.7 -18.7 -123.45 -18.7 -130.15 -18.7 -136.85 -13.95 -141.6 -9.2 -146.35 -2.5 -146.35 4.2 -146.35 8.95 -141.6 13.7 -136.85 13.7 -130.15 Z" fill="none" stroke="#000000" stroke-linecap="round" stroke-linejoin="round" stroke-width="5.0"/>
      <path d="M-48.1 103.55 Q-52.4 93.1 -57.05 79.65 -70.85 39.6 -75.15 6.25 -81.15 -40.5 -67.2 -67.2 -49.8 -100.55 -2.0 -100.55 45.8 -100.55 64.75 -67.2 79.95 -40.5 76.15 6.25 73.4 39.6 61.4 79.65 57.25 93.6 53.35 104.3 59.0 110.15 59.0 117.2 59.0 129.35 42.35 137.85 25.75 146.5 2.25 146.5 -21.3 146.5 -37.9 137.85 -54.5 129.35 -54.5 117.2 -54.5 109.7 -48.1 103.55 L-44.05 113.0 -41.85 114.55 Q-38.7 116.4 -34.25 117.95 -19.9 122.9 2.75 122.9 25.4 122.9 39.95 117.95 47.25 115.5 50.0 113.0 L53.35 104.3 50.0 113.0 Q47.25 115.5 39.95 117.95 25.4 122.9 2.75 122.9 -19.9 122.9 -34.25 117.95 -38.7 116.4 -41.85 114.55 L-44.05 113.0 -48.1 103.55" fill="#000000" fill-rule="evenodd" stroke="none"/>
      <path d="M-48.1 103.55 Q-52.4 93.1 -57.05 79.65 -70.85 39.6 -75.15 6.25 -81.15 -40.5 -67.2 -67.2 -49.8 -100.55 -2.0 -100.55 45.8 -100.55 64.75 -67.2 79.95 -40.5 76.15 6.25 73.4 39.6 61.4 79.65 57.25 93.6 53.35 104.3 59.0 110.15 59.0 117.2 59.0 129.35 42.35 137.85 25.75 146.5 2.25 146.5 -21.3 146.5 -37.9 137.85 -54.5 129.35 -54.5 117.2 -54.5 109.7 -48.1 103.55 L-44.05 113.0 -41.85 114.55 Q-38.7 116.4 -34.25 117.95 -19.9 122.9 2.75 122.9 25.4 122.9 39.95 117.95 47.25 115.5 50.0 113.0 L53.35 104.3" fill="none" stroke="#000000" stroke-linecap="round" stroke-linejoin="round" stroke-width="12.0"/>
      <path d="M-54.5 117.2 Q-54.5 105.1 -37.9 96.5 -21.3 87.95 2.25 87.95 25.75 87.95 42.35 96.5 59.0 105.1 59.0 117.2 59.0 129.35 42.35 137.85 25.75 146.5 2.25 146.5 -21.3 146.5 -37.9 137.85 -54.5 129.35 -54.5 117.2" fill="#0f1015" fill-rule="evenodd" stroke="none"/>
      <path d="M-37.9 96.5 Q-21.3 87.95 2.25 87.95 L3.15 87.95 Q-12.0 100.95 -12.0 118.9 L-11.95 120.5 -17.85 124.0 Q-26.5 129.95 -26.5 135.25 -26.5 139.45 -21.2 144.0 -30.3 141.8 -37.9 137.85 -54.5 129.35 -54.5 117.2 -54.5 105.1 -37.9 96.5" fill="#7e7f8c" fill-rule="evenodd" stroke="none"/>
      <path d="M-37.9 96.5 Q-33.65 94.3 -28.9 92.7 -36.0 102.65 -36.0 114.9 L-35.95 116.5 -41.85 120.0 Q-48.55 124.6 -50.05 128.8 -54.5 123.5 -54.5 117.2 -54.5 105.1 -37.9 96.5" fill="#1a1c23" fill-rule="evenodd" stroke="none"/>
      <path d="M59.7 110.6 Q55.9 118.05 44.1 123.85 26.8 132.5 2.25 132.5 -22.3 132.5 -39.65 123.85 -51.4 118.05 -55.2 110.6 -51.4 103.15 -39.65 97.3 -22.3 88.75 2.25 88.75 26.8 88.75 44.1 97.3 55.9 103.15 59.7 110.6" fill="#000000" fill-rule="evenodd" stroke="none"/>
      <path d="M76.15 6.25 Q73.4 39.6 61.4 79.65 55.45 99.65 50.0 113.0 47.25 115.5 39.95 117.95 25.4 122.9 2.75 122.9 -19.9 122.9 -34.25 117.95 -38.7 116.4 -41.85 114.55 L-44.05 113.0 Q-50.1 99.65 -57.05 79.65 -70.85 39.6 -75.15 6.25 -81.15 -40.5 -67.2 -67.2 -49.8 -100.55 -2.0 -100.55 45.8 -100.55 64.75 -67.2 79.95 -40.5 76.15 6.25" fill="#0f1015" fill-rule="evenodd" stroke="none"/>
      <path d="M5.6 -100.3 Q-20.25 -92.15 -32.05 -66.7 -46.0 -36.75 -40.0 15.75 -35.7 53.2 -21.9 98.2 -17.8 111.45 -14.0 122.1 -25.65 120.9 -34.25 117.95 -38.7 116.4 -41.85 114.55 L-44.05 113.0 Q-50.1 99.65 -57.05 79.65 -70.85 39.6 -75.15 6.25 -81.15 -40.5 -67.2 -67.2 -49.8 -100.55 -2.0 -100.55 L5.6 -100.3" fill="#7e7f8c" fill-rule="evenodd" stroke="none"/>
      <path d="M4.65 -100.35 Q-37.95 -98.05 -54.15 -64.1 -68.1 -34.9 -62.1 16.2 -57.8 52.6 -44.0 96.4 -40.45 107.6 -37.1 116.85 L-41.85 114.55 -44.05 113.0 Q-50.1 99.65 -57.05 79.65 -70.85 39.6 -75.15 6.25 -81.15 -40.5 -67.2 -67.2 -49.8 -100.55 -2.0 -100.55 L4.65 -100.35" fill="#1a1c23" fill-rule="evenodd" stroke="none"/>
    </g>
  </defs>
</svg>
