<?xml version="1.0" encoding="UTF-8" standalone="no"?>
<svg xmlns:ffdec="https://www.free-decompiler.com/flash" xmlns:xlink="http://www.w3.org/1999/xlink" ffdec:objectType="frame" height="489.65px" width="742.25px" xmlns="http://www.w3.org/2000/svg">
  <g transform="matrix(1.0, 0.0, 0.0, 1.0, 14.2, -35.75)">
    <use ffdec:characterId="9807" height="489.65" transform="matrix(1.0, 0.0, 0.0, 1.0, -14.2, 35.75)" width="742.25" xlink:href="#shape0"/>
  </g>
  <defs>
    <g id="shape0" transform="matrix(1.0, 0.0, 0.0, 1.0, 14.2, -35.75)">
      <path d="M668.25 252.15 Q677.65 245.55 692.6 248.75 706.2 251.7 717.0 260.65 728.05 269.9 728.05 278.75 728.05 280.45 726.65 285.0 724.75 291.05 721.7 296.15 712.35 311.65 688.5 313.65 664.6 315.7 660.55 302.15 656.45 288.55 656.75 274.25 657.1 259.95 668.25 252.15 M660.0 416.9 Q660.0 425.6 658.05 430.45 653.95 440.4 642.0 440.4 634.1 440.4 630.8 433.2 629.7 430.9 629.25 428.1 L629.0 425.65 Q629.0 418.2 631.2 414.45 635.35 407.4 647.5 407.4 658.05 407.4 660.05 411.7 661.05 413.9 660.0 416.9 M28.55 42.55 Q36.45 49.65 36.45 61.15 36.45 66.8 32.7 72.35 26.45 81.55 12.85 81.55 -2.95 81.55 -10.15 70.65 -12.4 67.25 -13.5 63.15 L-14.2 59.8 Q-14.2 48.0 -6.25 41.4 0.85 35.4 11.15 35.8 21.45 36.15 28.55 42.55 M589.25 455.15 Q597.65 449.55 610.4 456.95 614.95 459.6 624.5 467.9 632.15 475.75 634.1 479.3 636.0 482.8 636.0 488.9 636.0 498.35 631.05 508.45 622.7 525.4 604.5 525.4 576.85 525.4 566.3 511.7 561.0 504.75 561.0 495.9 561.0 486.1 568.1 475.5 575.65 464.15 589.25 455.15" fill="#d04018" fill-rule="evenodd" stroke="none"/>
    </g>
  </defs>
</svg>
