<?xml version="1.0" encoding="UTF-8" standalone="no"?>
<svg xmlns:ffdec="https://www.free-decompiler.com/flash" xmlns:xlink="http://www.w3.org/1999/xlink" ffdec:objectType="frame" height="621.6px" width="844.8px" xmlns="http://www.w3.org/2000/svg">
  <g transform="matrix(1.0, 0.0, 0.0, 1.0, -53.8, -19.15)">
    <use ffdec:characterId="9803" height="621.6" transform="matrix(1.0, 0.0, 0.0, 1.0, 53.8, 19.15)" width="844.8" xlink:href="#shape0"/>
  </g>
  <defs>
    <g id="shape0" transform="matrix(1.0, 0.0, 0.0, 1.0, -53.8, -19.15)">
      <path d="M133.5 356.75 Q120.45 360.7 110.4 368.1 89.3 383.7 89.3 409.85 89.3 436.7 107.55 451.45 L107.6 451.45 Q127.2 466.1 160.25 466.1 192.85 466.1 213.0 450.65 231.7 435.65 231.5 409.8 L231.4 352.75 160.4 352.8 Q146.55 352.8 133.5 356.75 M231.4 167.85 L231.5 111.0 Q231.8 84.8 213.05 69.9 193.0 54.65 160.25 54.65 127.9 54.65 107.8 70.3 L107.75 70.3 Q89.1 85.3 89.3 110.9 89.25 123.2 94.95 133.8 L95.0 133.85 Q100.55 143.95 110.55 151.65 L110.6 151.65 Q120.8 159.4 133.85 163.65 L133.9 163.65 Q146.9 167.9 160.4 167.9 L231.4 167.85 M413.85 317.35 L413.95 203.3 266.95 203.35 266.9 317.25 413.85 317.35 M547.2 163.9 L547.15 163.9 Q560.25 159.85 570.35 152.4 591.4 136.6 591.5 110.9 591.5 84.4 573.2 69.55 553.45 54.65 520.55 54.65 487.3 54.65 467.65 69.25 449.3 84.0 449.3 111.0 L449.35 167.85 520.45 167.9 Q534.2 167.9 547.2 163.9 M893.4 322.5 Q898.6 327.7 898.6 335.05 898.6 342.4 893.4 347.6 888.2 352.8 880.85 352.8 L449.45 352.8 449.3 623.0 Q449.25 630.35 444.05 635.55 438.85 640.75 431.55 640.75 424.2 640.75 419.0 635.5 413.8 630.3 413.8 623.0 L413.95 352.85 266.9 352.75 267.0 409.75 Q266.75 453.15 235.15 478.4 206.75 501.6 160.25 501.6 113.3 501.6 85.75 479.45 53.8 455.1 53.8 409.85 53.8 365.9 89.25 339.6 103.95 328.6 123.2 322.8 L123.25 322.75 Q141.25 317.3 160.4 317.3 L231.4 317.25 231.35 203.35 160.4 203.4 Q141.3 203.4 122.85 197.4 L122.9 197.4 Q103.9 191.2 89.05 179.9 L89.05 179.85 Q72.7 167.35 63.75 150.7 L63.75 150.65 Q53.85 132.25 53.8 110.9 54.0 67.95 85.55 42.65 L85.55 42.6 Q114.0 19.15 160.25 19.15 206.9 19.15 235.1 42.1 266.7 67.2 267.0 111.0 L267.0 167.85 413.85 167.8 413.8 111.0 Q413.8 65.5 445.9 41.2 473.4 19.15 520.55 19.15 567.4 19.15 595.15 41.65 627.0 66.25 627.0 110.9 627.1 154.3 591.6 180.85 576.85 191.85 557.65 197.8 539.55 203.4 520.4 203.4 L449.45 203.35 449.35 317.3 880.85 317.3 Q888.2 317.3 893.4 322.5" fill="#ff77ee" fill-rule="evenodd" stroke="none"/>
    </g>
  </defs>
</svg>
