<?xml version="1.0" encoding="UTF-8" standalone="no"?>
<svg xmlns:ffdec="https://www.free-decompiler.com/flash" xmlns:xlink="http://www.w3.org/1999/xlink" ffdec:objectType="frame" height="84.65px" width="99.15px" xmlns="http://www.w3.org/2000/svg">
  <g transform="matrix(1.0, 0.0, 0.0, 1.0, -480.6, -67.2)">
    <use ffdec:characterId="9805" height="84.65" transform="matrix(1.0, 0.0, 0.0, 1.0, 480.6, 67.2)" width="99.15" xlink:href="#shape0"/>
  </g>
  <defs>
    <g id="shape0" transform="matrix(1.0, 0.0, 0.0, 1.0, -480.6, -67.2)">
      <path d="M579.55 91.85 L579.6 92.1 575.25 128.55 576.8 133.6 Q555.3 141.5 535.2 151.8 L535.15 151.85 519.8 141.65 519.75 141.6 519.75 141.7 Q516.1 143.15 512.5 144.65 L481.0 134.7 480.6 134.35 483.6 97.55 501.8 67.2 524.65 68.15 537.95 68.95 550.7 69.05 551.2 69.05 550.1 82.25 579.75 91.9 579.55 91.85 M564.8 108.1 L563.3 108.4 563.15 108.4 Q561.6 108.4 557.9 107.3 L556.4 106.85 559.85 115.8 563.1 125.25 563.25 125.35 Q563.9 125.75 564.6 125.75 L566.25 125.4 567.3 125.0 Q567.8 124.75 568.6 124.4 L568.35 123.2 568.2 121.55 567.95 117.6 569.55 111.1 569.55 110.8 Q569.55 110.5 565.0 108.0 L564.8 108.1" fill="#d04018" fill-rule="evenodd" stroke="none"/>
    </g>
  </defs>
</svg>
