<?xml version="1.0" encoding="UTF-8" standalone="no"?>
<svg xmlns:ffdec="https://www.free-decompiler.com/flash" xmlns:xlink="http://www.w3.org/1999/xlink" ffdec:objectType="frame" height="123.2px" width="109.5px" xmlns="http://www.w3.org/2000/svg">
  <g transform="matrix(1.0, 0.0, 0.0, 1.0, 0.0, 0.0)">
    <use ffdec:characterId="4966" height="123.2" transform="matrix(1.0, 0.0, 0.0, 1.0, 0.0, 0.0)" width="109.5" xlink:href="#shape0"/>
  </g>
  <defs>
    <g id="shape0" transform="matrix(1.0, 0.0, 0.0, 1.0, 0.0, 0.0)">
      <path d="M100.25 24.7 L100.25 24.6 106.5 29.5 106.05 30.25 105.8 30.3 100.5 26.0 100.25 24.7" fill="#e9e8dd" fill-rule="evenodd" stroke="none"/>
      <path d="M100.25 24.6 L100.25 24.7 61.9 17.05 88.7 5.75 91.35 7.75 Q94.4 10.55 96.4 13.9 99.5 18.65 100.25 24.6" fill="#cdccc2" fill-rule="evenodd" stroke="none"/>
      <path d="M100.25 24.7 L100.5 26.0 100.55 26.45 100.65 27.5 100.65 29.85 100.35 32.85 Q99.95 35.3 99.15 37.65 L98.95 38.2 98.5 39.25 96.4 43.2 96.35 43.3 95.9 43.95 92.7 47.85 91.2 49.35 61.15 17.3 61.9 17.05 100.25 24.7 M60.8 16.95 L60.75 16.9 60.65 16.75 60.8 16.85 60.95 16.85 60.8 16.95" fill="#b8b69b" fill-rule="evenodd" stroke="none"/>
      <path d="M100.55 26.45 Q101.25 26.7 101.55 27.0 104.3 29.15 106.1 31.15 L106.3 44.35 106.1 31.15 106.55 31.7 107.85 33.6 Q109.6 36.7 109.5 40.0 108.85 46.5 107.95 48.75 L107.45 49.85 105.4 53.45 Q103.85 55.95 100.15 59.25 96.45 62.55 91.45 65.25 L90.5 65.8 Q85.05 68.75 79.5 70.1 L78.1 70.4 72.3 71.0 71.55 71.0 69.15 71.0 66.3 70.75 Q62.7 70.35 60.15 69.25 58.3 68.45 57.0 67.3 53.95 64.4 52.55 61.9 L52.5 61.8 67.9 67.45 52.5 61.8 52.4 61.65 52.4 61.55 52.4 61.65 52.1 61.1 51.9 60.55 51.7 60.05 50.9 57.2 50.85 56.95 50.25 53.3 Q50.35 50.9 50.75 49.2 L50.85 49.25 Q53.7 51.8 56.95 53.5 L57.25 54.9 Q62.25 63.9 68.7 64.4 L73.65 64.35 75.2 64.15 80.8 62.85 80.2 63.35 67.8 66.55 67.9 67.45 67.9 67.5 68.0 67.5 69.0 67.85 68.0 67.5 80.0 64.3 79.9 64.45 80.55 64.45 92.85 64.45 93.35 63.6 92.6 63.6 91.85 61.55 92.6 63.6 83.65 63.55 81.15 63.5 81.8 63.1 83.85 61.7 Q86.9 60.3 89.9 58.25 94.95 54.75 98.3 50.3 L98.25 50.35 98.25 50.5 101.35 50.1 107.25 49.3 107.6 48.45 106.9 48.55 106.3 45.1 106.9 48.55 102.35 48.95 98.95 49.3 101.1 45.55 102.7 40.7 Q103.35 38.3 101.4 32.1 L101.0 30.8 100.65 29.85 100.65 27.5 100.55 26.45 M106.3 44.35 L102.35 48.95 106.3 44.35 M108.15 36.7 L106.55 31.7 108.15 36.7 M69.0 67.85 L80.55 64.45 69.0 67.85 M60.3 68.4 L52.55 61.9 60.3 68.4 M91.85 61.1 L83.65 63.55 91.85 61.1 101.35 50.1 91.85 61.1 M52.4 61.55 L52.1 61.1 52.4 61.55 M70.15 69.5 L69.2 68.15 70.15 69.5 68.0 69.05 Q67.8 69.45 67.75 70.0 L67.75 70.2 71.15 70.85 71.85 69.85 70.15 69.5" fill="url(#gradient0)" fill-rule="evenodd" stroke="none"/>
      <path d="M107.45 49.85 Q108.5 56.8 105.2 63.95 102.35 70.3 97.5 74.05 93.7 77.25 87.3 79.05 L86.3 79.25 84.95 79.8 76.6 80.85 74.3 80.5 Q70.6 79.45 66.3 76.0 62.25 72.75 60.15 69.25 62.7 70.35 66.3 70.75 L66.4 71.0 66.5 71.0 Q66.7 71.0 67.0 71.35 L67.4 72.0 67.15 72.15 68.0 73.55 68.2 73.7 68.65 74.7 69.95 76.05 70.35 76.0 71.5 75.65 73.6 74.95 73.55 75.15 74.0 75.35 74.8 75.4 76.7 75.05 76.95 74.85 76.6 74.1 75.25 74.4 76.6 73.9 78.35 73.05 79.65 72.55 80.75 71.85 Q82.45 71.25 83.6 70.5 L86.95 68.6 90.5 65.8 91.45 65.25 Q96.45 62.55 100.15 59.25 103.85 55.95 105.4 53.45 L107.45 49.85 M100.65 29.85 L101.0 30.8 101.4 32.1 Q103.35 38.3 102.7 40.7 L101.1 45.55 98.95 49.3 98.75 49.3 98.35 50.2 98.3 50.3 Q94.95 54.75 89.9 58.25 86.9 60.3 83.85 61.7 L84.0 61.55 80.9 62.75 80.8 62.85 75.2 64.15 73.65 64.35 68.7 64.4 Q62.25 63.9 57.25 54.9 L56.95 53.5 59.15 54.55 60.2 55.0 62.35 58.8 66.8 60.85 64.6 56.25 65.05 56.35 72.1 56.9 Q76.45 56.75 80.35 55.6 L82.25 60.2 87.5 57.6 85.75 53.3 Q88.65 51.65 91.2 49.35 L92.7 47.85 95.9 43.95 97.6 47.75 100.8 41.45 99.15 37.65 Q99.95 35.3 100.35 32.85 L100.65 29.85 M101.9 62.95 L101.4 62.9 Q101.0 63.25 100.7 63.75 99.6 64.95 99.75 65.3 L99.9 65.3 100.15 65.0 101.3 63.85 Q102.05 63.15 101.9 62.95 M103.6 62.8 L103.6 62.75 103.3 62.2 102.15 63.55 101.65 64.3 101.65 64.45 101.5 64.7 101.7 65.0 101.95 64.85 103.6 62.8 M103.85 60.25 L102.6 61.8 Q102.15 62.3 102.45 62.65 L102.5 62.75 102.75 62.65 104.45 60.25 104.3 60.0 103.85 60.25 M103.0 59.95 L102.7 59.65 101.95 60.15 101.7 61.0 100.85 61.9 Q100.2 62.3 100.3 62.45 L100.5 62.65 Q100.8 62.9 100.95 62.75 L102.6 61.2 Q103.3 60.25 103.0 59.95" fill="url(#gradient1)" fill-rule="evenodd" stroke="none"/>
      <path d="M88.7 5.75 L61.9 17.05 61.15 17.3 60.8 16.95 60.95 16.85 73.7 0.15 Q82.05 0.8 88.7 5.75 M99.15 37.65 L100.8 41.45 97.6 47.75 95.9 43.95 96.35 43.3 97.6 46.2 100.25 41.05 98.95 38.2 99.15 37.65 M60.6 17.4 L60.65 17.55 60.35 17.65 60.6 17.25 60.6 17.4" fill="#e0d7cb" fill-rule="evenodd" stroke="none"/>
      <path d="M98.95 38.2 L100.25 41.05 97.6 46.2 96.35 43.3 96.4 43.2 97.25 45.25 99.25 41.15 98.5 39.25 98.95 38.2 M85.05 53.7 L85.3 53.55 86.9 57.15 82.55 58.95 80.95 55.4 81.1 55.35 82.25 57.9 86.15 56.1 85.05 53.7 M61.0 55.3 L62.05 57.3 65.5 58.8 64.05 56.15 64.15 56.2 65.45 58.65 66.0 59.8 62.4 58.25 60.65 55.15 61.0 55.3" fill="#747474" fill-rule="evenodd" stroke="none"/>
      <path d="M98.5 39.25 L99.25 41.15 97.25 45.25 96.4 43.2 98.5 39.25 M81.1 55.35 L85.05 53.7 86.15 56.1 82.25 57.9 81.1 55.35 M64.05 56.15 L65.5 58.8 62.05 57.3 61.0 55.3 64.05 56.15" fill="#000000" fill-rule="evenodd" stroke="none"/>
      <path d="M98.95 49.3 L102.35 48.95 106.9 48.55 106.95 48.9 106.9 48.55 107.6 48.45 107.25 49.3 101.35 50.1 98.25 50.5 98.25 50.35 98.3 50.3 98.35 50.2 98.75 49.3 98.95 49.3 M80.8 62.85 L80.9 62.75 84.0 61.55 83.85 61.7 81.8 63.1 81.15 63.5 83.65 63.55 92.6 63.6 93.35 63.6 92.85 64.45 80.55 64.45 83.65 63.55 80.55 64.45 79.9 64.45 80.0 64.3 68.0 67.5 67.9 67.5 67.9 67.45 68.0 67.5 67.9 67.45 67.8 66.55 80.2 63.35 80.8 62.85 M102.35 48.95 L101.35 50.1 102.35 48.95 M92.7 63.9 L92.6 63.6 92.7 63.9 M70.75 70.35 L70.15 69.5 70.75 70.35 M70.15 69.5 L71.85 69.85 71.15 70.85 67.75 70.2 67.75 70.0 Q67.8 69.45 68.0 69.05 L70.15 69.5" fill="#afaba7" fill-rule="evenodd" stroke="none"/>
      <path d="M103.0 59.95 Q103.3 60.25 102.6 61.2 L100.95 62.75 Q100.8 62.9 100.5 62.65 L100.3 62.45 Q100.2 62.3 100.85 61.9 L101.7 61.0 101.95 60.15 102.7 59.65 103.0 59.95 M103.85 60.25 L104.3 60.0 104.45 60.25 102.75 62.65 102.5 62.75 102.45 62.65 Q102.15 62.3 102.6 61.8 L103.85 60.25 M103.6 62.8 L101.95 64.85 101.7 65.0 101.5 64.7 101.65 64.45 101.65 64.3 102.15 63.55 103.3 62.2 103.6 62.75 103.6 62.8 M101.9 62.95 Q102.05 63.15 101.3 63.85 L100.15 65.0 99.9 65.3 99.75 65.3 Q99.6 64.95 100.7 63.75 101.0 63.25 101.4 62.9 L101.9 62.95" fill="#878787" fill-rule="evenodd" stroke="none"/>
      <path d="M91.2 49.35 Q88.65 51.65 85.75 53.3 L85.3 53.55 85.05 53.7 81.1 55.35 80.95 55.4 Q80.6 55.45 80.35 55.6 76.45 56.75 72.1 56.9 L65.05 56.35 60.65 17.55 60.6 17.4 60.85 17.35 60.75 16.9 60.8 16.95 61.15 17.3 91.2 49.35" fill="#adab92" fill-rule="evenodd" stroke="none"/>
      <path d="M85.75 53.3 L87.5 57.6 82.25 60.2 80.35 55.6 Q80.6 55.45 80.95 55.4 L82.55 58.95 86.9 57.15 85.3 53.55 85.75 53.3" fill="#c6c0b8" fill-rule="evenodd" stroke="none"/>
      <path d="M90.5 65.8 L86.95 68.6 83.6 70.5 Q82.45 71.25 80.75 71.85 L79.65 72.55 78.35 73.05 76.6 73.9 75.25 74.4 75.1 74.45 73.85 74.65 73.6 74.95 71.5 75.65 70.35 76.0 69.95 76.05 68.65 74.7 68.2 73.7 68.25 73.7 69.85 73.9 70.2 74.25 71.0 74.2 71.1 74.0 70.4 72.7 70.45 72.5 68.5 72.2 68.55 72.15 67.4 71.95 67.4 72.0 67.0 71.35 Q66.7 71.0 66.5 71.0 L66.4 71.0 66.3 70.75 69.15 71.0 69.1 71.55 Q69.05 71.95 69.15 72.1 L70.5 72.35 72.35 72.2 72.3 71.0 78.1 70.4 79.5 70.1 Q85.05 68.75 90.5 65.8 M72.0 74.0 L72.1 74.0 72.3 74.2 72.95 74.15 73.3 74.15 73.9 74.0 74.1 74.05 75.0 73.95 75.15 73.85 74.55 72.45 74.45 72.45 74.3 72.5 73.85 72.5 73.7 72.45 71.25 72.65 71.1 72.75 72.0 74.0" fill="#6b6a67" fill-rule="evenodd" stroke="none"/>
      <path d="M80.1 85.65 L81.45 85.6 82.15 86.35 79.8 86.9 78.2 87.05 78.2 87.15 77.7 87.15 74.9 87.3 73.05 87.4 57.05 88.05 56.2 89.1 56.1 89.1 56.1 89.2 54.95 90.75 36.75 113.4 34.8 115.8 16.65 94.95 17.2 94.45 17.7 94.0 35.0 113.6 55.85 87.45 56.55 86.75 80.1 85.65" fill="#96918b" fill-rule="evenodd" stroke="none"/>
      <path d="M54.3 4.95 Q61.25 0.3 69.95 0.0 L73.7 0.15 60.95 16.85 60.8 16.85 60.65 16.75 60.75 16.9 60.85 17.35 60.55 16.5 60.8 16.5 54.3 4.95" fill="#e5e3d4" fill-rule="evenodd" stroke="none"/>
      <path d="M42.2 22.6 Q43.75 14.95 49.4 9.05 51.75 6.7 54.3 4.95 L60.8 16.5 60.55 16.5 60.85 17.35 60.6 17.4 60.6 17.25 60.6 17.1 60.4 17.45 42.2 22.6" fill="#eeede1" fill-rule="evenodd" stroke="none"/>
      <path d="M47.1 45.15 Q45.7 43.3 44.65 41.3 L60.4 17.45 60.6 17.1 60.6 17.25 60.35 17.65 60.65 17.55 65.05 56.35 64.6 56.25 64.15 56.2 64.05 56.15 61.0 55.3 60.65 55.15 60.2 55.0 59.15 54.55 56.95 53.5 Q53.7 51.8 50.85 49.25 L50.75 49.2 48.85 47.2 47.1 45.15" fill="#bfbeaf" fill-rule="evenodd" stroke="none"/>
      <path d="M44.65 41.3 Q41.75 35.9 41.55 29.5 41.4 25.8 42.2 22.6 L60.4 17.45 44.65 41.3" fill="#e0dfd2" fill-rule="evenodd" stroke="none"/>
      <path d="M74.3 80.5 L80.1 85.65 56.55 86.75 55.85 87.45 16.95 53.3 17.0 53.2 43.6 53.15 51.65 60.35 51.9 60.55 52.1 61.1 52.4 61.65 52.5 61.8 52.55 61.9 52.35 61.75 52.55 61.9 Q53.95 64.4 57.0 67.3 58.3 68.45 60.15 69.25 62.25 72.75 66.3 76.0 70.6 79.45 74.3 80.5 M52.35 61.75 L52.5 61.8 52.35 61.75 52.4 61.65 52.35 61.75 M52.1 61.1 L51.65 60.35 52.1 61.1" fill="#5f5e4b" fill-rule="evenodd" stroke="none"/>
      <path d="M2.2 77.7 L0.0 75.2 16.95 53.3 55.85 87.45 35.0 113.6 17.7 94.0 17.2 94.45 15.85 92.95 2.2 77.7" fill="#85836f" fill-rule="evenodd" stroke="none"/>
      <path d="M36.5 120.65 L21.0 107.05 20.45 106.4 20.25 106.4 5.75 89.55 2.2 77.7 15.85 92.95 17.2 94.45 16.65 94.95 34.8 115.8 36.75 113.4 38.35 119.25 37.45 119.75 36.45 120.45 36.5 120.65 M31.8 112.7 Q30.8 111.65 30.7 112.9 30.7 113.4 31.3 114.15 L32.25 115.35 32.7 115.35 32.75 114.45 Q32.75 113.7 31.8 112.7 M28.7 112.65 L30.2 114.8 30.6 114.4 30.8 114.0 30.05 112.8 Q29.25 111.9 28.7 111.85 L28.7 112.65 M22.25 105.55 L22.05 105.55 21.8 106.2 22.6 107.85 Q23.55 109.4 23.95 109.4 L24.15 109.3 24.25 109.15 Q24.05 108.9 24.15 108.7 L24.45 108.15 Q22.65 105.55 22.25 105.55 M21.25 104.15 Q21.25 103.55 20.45 102.6 19.85 101.25 19.35 101.25 19.0 101.25 19.0 101.6 L19.0 102.55 19.35 103.4 Q20.4 105.05 20.85 105.1 21.2 105.1 21.25 104.15" fill="#d2ccbf" fill-rule="evenodd" stroke="none"/>
      <path d="M64.6 56.25 L66.8 60.85 62.35 58.8 60.2 55.0 60.65 55.15 62.4 58.25 66.0 59.8 65.45 58.65 64.15 56.2 64.6 56.25" fill="#95918a" fill-rule="evenodd" stroke="none"/>
      <path d="M72.3 71.0 L72.35 72.2 70.5 72.35 69.15 72.1 Q69.05 71.95 69.1 71.55 L69.15 71.0 71.55 71.0 72.3 71.0 M67.4 72.0 L67.4 71.95 68.55 72.15 68.5 72.2 70.45 72.5 70.4 72.7 71.1 74.0 71.0 74.2 70.2 74.25 69.85 73.9 68.25 73.7 68.2 73.7 68.0 73.55 67.15 72.15 67.4 72.0 M73.6 74.95 L73.85 74.65 75.1 74.45 75.25 74.4 76.6 74.1 76.95 74.85 76.7 75.05 74.8 75.4 74.0 75.35 73.55 75.15 73.6 74.95 M72.0 74.0 L71.1 72.75 71.25 72.65 73.7 72.45 73.85 72.5 74.3 72.5 74.45 72.45 74.55 72.45 75.15 73.85 75.0 73.95 74.1 74.05 73.9 74.0 73.3 74.15 72.95 74.15 72.3 74.2 72.1 74.0 72.0 74.0" fill="#4d4b4a" fill-rule="evenodd" stroke="none"/>
      <path d="M54.95 90.75 L56.1 89.2 56.1 89.1 56.2 89.1 56.4 89.15 56.4 89.3 Q56.4 89.9 56.1 90.1 L54.95 90.75 M64.25 89.65 Q64.25 90.1 63.55 90.6 L62.2 91.45 62.1 91.0 Q62.1 90.4 62.75 90.0 L64.05 89.15 Q64.25 89.15 64.25 89.65 M59.2 105.05 Q59.15 105.65 58.7 105.95 L57.4 106.75 57.2 106.45 Q57.2 105.75 58.25 105.0 L59.2 105.05 M51.9 103.0 L51.05 104.3 49.7 105.15 49.45 105.1 49.5 104.75 Q49.7 103.55 51.85 102.75 L51.9 103.0 M48.95 104.25 L48.0 105.45 46.75 106.4 46.45 106.35 46.45 106.0 Q46.75 104.8 48.9 103.95 L48.95 104.25" fill="#a89e8b" fill-rule="evenodd" stroke="none"/>
      <path d="M77.7 87.15 L74.5 96.25 39.45 123.2 39.0 121.75 38.95 121.55 38.75 119.35 38.75 119.15 38.35 119.25 36.75 113.4 54.95 90.75 56.1 90.1 Q56.4 89.9 56.4 89.3 L56.4 89.15 56.2 89.1 57.05 88.05 73.05 87.4 72.25 88.1 Q72.05 88.65 72.6 88.65 73.05 88.7 74.05 88.0 L74.9 87.3 77.7 87.15 M60.25 90.85 L59.4 91.6 59.4 92.3 59.6 92.35 Q59.95 92.35 60.75 91.8 L61.6 91.0 61.45 90.8 61.25 90.6 60.25 90.85 M64.25 89.65 Q64.25 89.15 64.05 89.15 L62.75 90.0 Q62.1 90.4 62.1 91.0 L62.2 91.45 63.55 90.6 Q64.25 90.1 64.25 89.65 M63.15 88.85 Q63.2 88.15 62.85 88.3 62.65 88.35 62.0 88.7 61.2 89.0 60.75 89.85 L60.75 90.35 60.95 90.4 Q61.35 90.4 62.2 89.8 L63.15 88.85 M59.2 105.05 L58.25 105.0 Q57.2 105.75 57.2 106.45 L57.4 106.75 58.7 105.95 Q59.15 105.65 59.2 105.05 M53.45 100.5 L53.45 100.3 Q53.1 100.3 52.15 100.9 L51.15 101.65 51.3 101.9 51.2 102.65 51.4 102.65 Q52.05 102.0 53.05 101.4 53.45 101.1 53.45 100.5 M54.15 101.15 L54.15 101.0 Q52.05 101.85 52.0 102.85 L52.2 103.2 Q52.45 102.85 53.45 102.1 54.15 101.65 54.15 101.15 M51.9 103.0 L51.85 102.75 Q49.7 103.55 49.5 104.75 L49.45 105.1 49.7 105.15 51.05 104.3 51.9 103.0 M50.5 101.75 L50.5 101.55 Q50.15 101.55 49.2 102.15 48.15 102.7 48.15 102.9 L48.3 103.15 48.2 103.9 48.4 103.9 Q49.0 103.2 50.05 102.6 50.45 102.35 50.5 101.75 M51.1 102.4 L51.15 102.25 Q49.0 103.1 49.0 104.1 L49.2 104.45 50.45 103.35 51.1 102.4 M48.95 104.25 L48.9 103.95 Q46.75 104.8 46.45 106.0 L46.45 106.35 46.75 106.4 48.0 105.45 48.95 104.25" fill="#a39985" fill-rule="evenodd" stroke="none"/>
      <path d="M73.05 87.4 L74.9 87.3 74.05 88.0 Q73.05 88.7 72.6 88.65 72.05 88.65 72.25 88.1 L73.05 87.4 M60.25 90.85 L61.25 90.6 61.45 90.8 61.6 91.0 60.75 91.8 Q59.95 92.35 59.6 92.35 L59.4 92.3 59.4 91.6 60.25 90.85 M63.15 88.85 L62.2 89.8 Q61.35 90.4 60.95 90.4 L60.75 90.35 60.75 89.85 Q61.2 89.0 62.0 88.7 62.65 88.35 62.85 88.3 63.2 88.15 63.15 88.85 M54.15 101.15 Q54.15 101.65 53.45 102.1 52.45 102.85 52.2 103.2 L52.0 102.85 Q52.05 101.85 54.15 101.0 L54.15 101.15 M53.45 100.5 Q53.45 101.1 53.05 101.4 52.05 102.0 51.4 102.65 L51.2 102.65 51.3 101.9 51.15 101.65 52.15 100.9 Q53.1 100.3 53.45 100.3 L53.45 100.5 M51.1 102.4 L50.45 103.35 49.2 104.45 49.0 104.1 Q49.0 103.1 51.15 102.25 L51.1 102.4 M50.5 101.75 Q50.45 102.35 50.05 102.6 49.0 103.2 48.4 103.9 L48.2 103.9 48.3 103.15 48.15 102.9 Q48.15 102.7 49.2 102.15 50.15 101.55 50.5 101.55 L50.5 101.75" fill="#c9bba0" fill-rule="evenodd" stroke="none"/>
      <path d="M21.25 104.15 Q21.2 105.1 20.85 105.1 20.4 105.05 19.35 103.4 L19.0 102.55 19.0 101.6 Q19.0 101.25 19.35 101.25 19.85 101.25 20.45 102.6 21.25 103.55 21.25 104.15 M22.25 105.55 Q22.65 105.55 24.45 108.15 L24.15 108.7 Q24.05 108.9 24.25 109.15 L24.15 109.3 23.95 109.4 Q23.55 109.4 22.6 107.85 L21.8 106.2 22.05 105.55 22.25 105.55 M28.7 112.65 L28.7 111.85 Q29.25 111.9 30.05 112.8 L30.8 114.0 30.6 114.4 30.2 114.8 28.7 112.65 M31.8 112.7 Q32.75 113.7 32.75 114.45 L32.7 115.35 32.25 115.35 31.3 114.15 Q30.7 113.4 30.7 112.9 30.8 111.65 31.8 112.7" fill="#a39579" fill-rule="evenodd" stroke="none"/>
      <path d="M38.95 122.8 L38.5 122.35 38.2 122.05 38.1 121.9 37.8 121.65 37.35 121.3 37.05 121.1 36.6 120.7 36.5 120.65 36.45 120.45 37.45 119.75 38.35 119.25 38.75 119.15 38.75 119.35 38.95 121.55 39.0 121.75 Q39.15 122.7 38.95 122.8" fill="#cbbfa4" fill-rule="evenodd" stroke="none"/>
      <path d="M37.8 121.7 L37.35 121.3 37.8 121.65 37.8 121.7" fill="#dbcdb1" fill-rule="evenodd" stroke="none"/>
      <path d="M39.45 123.2 L38.95 122.8 Q39.15 122.7 39.0 121.75 L39.45 123.2 M38.1 121.9 L37.8 121.7 37.8 121.65 38.1 121.9" fill="url(#gradient2)" fill-rule="evenodd" stroke="none"/>
      <path d="M106.1 31.15 L106.05 30.25 106.55 31.7 108.15 36.7 M106.3 44.35 L106.1 31.15 M106.9 48.55 L106.95 48.9 M106.9 48.55 L106.3 45.1" fill="none" stroke="#e9e8dd" stroke-linecap="square" stroke-linejoin="round" stroke-width="1.0"/>
      <path d="M102.35 48.95 L106.3 44.35 M101.35 50.1 L102.35 48.95 M91.85 61.1 L101.35 50.1" fill="none" stroke="#eeede3" stroke-linecap="square" stroke-linejoin="round" stroke-width="1.0"/>
      <path d="M92.6 63.6 L92.7 63.9 M91.85 61.55 L92.6 63.6" fill="none" stroke="#e7e6dc" stroke-linecap="square" stroke-linejoin="round" stroke-width="1.0"/>
      <path d="M83.65 63.55 L80.55 64.45 69.0 67.85 M83.65 63.55 L91.85 61.1" fill="none" stroke="#e7e7e7" stroke-linecap="square" stroke-linejoin="round" stroke-width="1.0"/>
      <path d="M17.2 94.45 L15.85 92.95" fill="none" stroke="#96918b" stroke-linecap="square" stroke-linejoin="round" stroke-width="1.0"/>
      <path d="M69.0 67.85 L68.0 67.5 67.9 67.45 52.5 61.8 52.35 61.75 52.4 61.65 52.4 61.55" fill="none" stroke="#cdccbe" stroke-linecap="square" stroke-linejoin="round" stroke-width="1.0"/>
      <path d="M52.55 61.9 L60.3 68.4 M52.35 61.75 L52.55 61.9 M70.15 69.5 L70.75 70.35 M69.2 68.15 L70.15 69.5" fill="none" stroke="#d9d8cf" stroke-linecap="square" stroke-linejoin="round" stroke-width="1.0"/>
      <path d="M50.85 56.95 L50.9 57.2 M46.95 51.3 L50.85 56.95" fill="none" stroke="#bdbdba" stroke-linecap="square" stroke-linejoin="round" stroke-width="1.0"/>
      <path d="M51.65 60.35 L46.35 51.6 M52.1 61.1 L52.4 61.55 M51.65 60.35 L52.1 61.1" fill="none" stroke="#b8b8b5" stroke-linecap="square" stroke-linejoin="round" stroke-width="1.0"/>
      <path d="M46.35 51.6 L47.1 45.15" fill="none" stroke="#a6a6a6" stroke-linecap="square" stroke-linejoin="round" stroke-width="1.0"/>
    </g>
    <linearGradient gradientTransform="matrix(0.0352, -0.0074, 0.0043, 0.0182, 47.8, 57.45)" gradientUnits="userSpaceOnUse" id="gradient0" spreadMethod="pad" x1="-819.2" x2="819.2">
      <stop offset="0.0" stop-color="#000000"/>
      <stop offset="1.0" stop-color="#e0d9d0"/>
    </linearGradient>
    <linearGradient gradientTransform="matrix(-0.0308, 0.0135, -0.0076, -0.0176, 82.15, 52.55)" gradientUnits="userSpaceOnUse" id="gradient1" spreadMethod="pad" x1="-819.2" x2="819.2">
      <stop offset="0.0196078431372549" stop-color="#d2ceca"/>
      <stop offset="0.3176470588235294" stop-color="#6a6968"/>
      <stop offset="0.5764705882352941" stop-color="#777675"/>
      <stop offset="0.8941176470588236" stop-color="#aaaaaa"/>
      <stop offset="1.0" stop-color="#d0d0d0"/>
    </linearGradient>
    <linearGradient gradientTransform="matrix(0.0483, 0.0185, -0.0107, 0.0278, 11.75, 97.4)" gradientUnits="userSpaceOnUse" id="gradient2" spreadMethod="pad" x1="-819.2" x2="819.2">
      <stop offset="0.0" stop-color="#5f5e4b"/>
      <stop offset="1.0" stop-color="#dbcdb1"/>
    </linearGradient>
  </defs>
</svg>
