<?xml version="1.0" encoding="UTF-8" standalone="no"?>
<svg xmlns:ffdec="https://www.free-decompiler.com/flash" xmlns:xlink="http://www.w3.org/1999/xlink" ffdec:objectType="frame" height="9.1px" width="15.05px" xmlns="http://www.w3.org/2000/svg">
  <g transform="matrix(1.0, 0.0, 0.0, 1.0, -4.05, 1.15)">
    <use ffdec:characterId="35" height="9.1" transform="matrix(1.0, 0.0, 0.0, 1.0, 4.05, -1.15)" width="15.05" xlink:href="#shape0"/>
  </g>
  <defs>
    <g id="shape0" transform="matrix(1.0, 0.0, 0.0, 1.0, -4.05, 1.15)">
      <path d="M5.3 -0.15 Q5.3 0.55 5.85 1.2 6.5 2.0 7.75 2.0 8.85 2.0 10.6 0.45 12.35 -1.15 14.45 -1.15 16.4 -1.15 17.6 0.1 19.1 1.6 19.1 4.7 19.1 6.2 17.85 7.95 L17.8 7.95 17.15 7.85 14.45 7.7 15.65 6.25 Q16.65 4.75 16.65 4.05 L16.6 3.3 Q16.6 2.65 15.65 2.1 14.7 1.55 13.8 1.55 11.8 1.55 10.6 3.2 9.4 4.85 7.9 4.85 6.5 4.85 5.5 4.0 4.2 2.9 4.1 0.9 L4.05 0.7 Q4.5 0.35 4.5 -0.4 L5.3 -0.15" fill="#000000" fill-rule="evenodd" stroke="none"/>
    </g>
  </defs>
</svg>
