<?xml version="1.0" encoding="UTF-8" standalone="no"?>
<svg xmlns:ffdec="https://www.free-decompiler.com/flash" xmlns:xlink="http://www.w3.org/1999/xlink" ffdec:objectType="frame" height="17.7px" width="6.05px" xmlns="http://www.w3.org/2000/svg">
  <g transform="matrix(1.0, 0.0, 0.0, 1.0, 0.25, 0.2)">
    <use ffdec:characterId="23" height="17.7" transform="matrix(1.0, 0.0, 0.0, 1.0, -0.25, -0.2)" width="6.05" xlink:href="#shape0"/>
  </g>
  <defs>
    <g id="shape0" transform="matrix(1.0, 0.0, 0.0, 1.0, 0.25, 0.2)">
      <path d="M3.7 1.6 L3.65 0.1 4.0 0.1 4.8 0.05 5.5 0.55 5.55 3.1 Q5.55 7.1 5.1 9.9 4.45 13.75 2.9 17.25 L1.95 16.75 0.3 15.85 0.0 15.65 0.3 15.05 1.95 11.2 Q3.7 6.3 3.7 1.6" fill="#000000" fill-rule="evenodd" stroke="none"/>
      <path d="M3.7 1.6 L3.65 0.1 4.0 0.1 4.8 0.05 5.5 0.55 5.55 3.1 Q5.55 7.1 5.1 9.9 4.45 13.75 2.9 17.25 L1.95 16.75 0.3 15.85 0.0 15.65 0.3 15.05 1.95 11.2 Q3.7 6.3 3.7 1.6 Z" ffdec:has-small-stroke="true" ffdec:original-stroke-width="0.5" fill="none" stroke="#000000" stroke-linecap="round" stroke-linejoin="round" stroke-width="1.0"/>
    </g>
  </defs>
</svg>
