<?xml version="1.0" encoding="UTF-8" standalone="no"?>
<svg xmlns:ffdec="https://www.free-decompiler.com/flash" xmlns:xlink="http://www.w3.org/1999/xlink" ffdec:objectType="frame" height="36.15px" width="44.85px" xmlns="http://www.w3.org/2000/svg">
  <g transform="matrix(1.0, 0.0, 0.0, 1.0, 0.25, 0.25)">
    <use ffdec:characterId="63" height="36.15" transform="matrix(1.0, 0.0, 0.0, 1.0, -0.25, -0.25)" width="44.85" xlink:href="#shape0"/>
  </g>
  <defs>
    <g id="shape0" transform="matrix(1.0, 0.0, 0.0, 1.0, 0.25, 0.25)">
      <path d="M14.6 2.0 L20.8 1.0 Q25.05 0.0 26.7 0.0 30.2 0.0 37.35 5.4 44.35 10.7 44.35 12.95 L42.7 21.6 41.6 27.05 40.35 32.45 Q32.1 35.9 22.7 35.65 18.65 34.3 17.5 33.65 L17.0 33.2 10.6 27.3 Q5.05 22.45 0.5 21.1 L0.55 19.8 Q0.65 13.3 0.0 12.2 4.8 6.4 14.35 2.15 L14.6 2.0" fill="#76533d" fill-rule="evenodd" stroke="none"/>
      <path d="M14.6 2.0 L20.8 1.0 Q25.05 0.0 26.7 0.0 30.2 0.0 37.35 5.4 44.35 10.7 44.35 12.95 L42.7 21.6 41.6 27.05 40.35 32.45 M22.7 35.65 Q18.65 34.3 17.5 33.65 L17.0 33.2 10.6 27.3 Q5.05 22.45 0.5 21.1 L0.55 19.8 Q0.65 13.3 0.0 12.2" ffdec:has-small-stroke="true" ffdec:original-stroke-width="0.5" fill="none" stroke="#000000" stroke-linecap="round" stroke-linejoin="round" stroke-width="1.0"/>
      <path d="M42.55 14.15 L40.95 22.35 39.9 27.5 38.7 32.6 Q30.8 35.9 21.8 35.65 L20.0 35.05 Q17.6 34.2 16.8 33.75 L16.3 33.35 10.15 27.75 Q4.85 23.15 0.5 21.9 L0.55 21.1 0.55 20.65 0.55 19.8 0.55 18.95 0.55 18.65 0.55 17.6 Q0.45 14.2 0.0 13.45 L0.3 13.15 Q4.9 7.85 13.75 3.95 L14.0 3.8 19.95 2.85 25.6 1.9 Q28.95 1.9 35.85 7.0 41.75 11.45 42.45 13.6 L42.55 14.15" fill="#000000" fill-opacity="0.49803922" fill-rule="evenodd" stroke="none"/>
    </g>
  </defs>
</svg>
