<?xml version="1.0" encoding="UTF-8" standalone="no"?>
<svg xmlns:ffdec="https://www.free-decompiler.com/flash" xmlns:xlink="http://www.w3.org/1999/xlink" ffdec:objectType="frame" height="36.55px" width="47.2px" xmlns="http://www.w3.org/2000/svg">
  <g transform="matrix(1.0, 0.0, 0.0, 1.0, 0.25, 0.25)">
    <use ffdec:characterId="103" height="36.55" transform="matrix(1.0, 0.0, 0.0, 1.0, -0.25, -0.25)" width="47.2" xlink:href="#shape0"/>
  </g>
  <defs>
    <g id="shape0" transform="matrix(1.0, 0.0, 0.0, 1.0, 0.25, 0.25)">
      <path d="M41.8 33.05 L41.4 33.25 25.9 36.05 Q20.1 33.7 12.8 33.15 L12.15 33.25 4.15 26.1 3.95 25.6 3.3 24.65 Q1.45 21.7 0.95 20.15 0.4 18.6 0.1 16.65 -0.2 14.65 0.45 10.05 L0.75 9.55 14.8 -0.05 15.6 0.0 Q19.75 2.0 26.55 3.25 L26.8 3.35 Q32.8 3.55 38.15 5.0 52.85 28.05 42.3 32.8 L41.8 33.05" fill="#76533d" fill-rule="evenodd" stroke="none"/>
      <path d="M25.9 36.05 Q20.1 33.7 12.8 33.15 M3.95 25.6 L3.3 24.65 Q1.45 21.7 0.95 20.15 0.4 18.6 0.1 16.65 -0.2 14.65 0.45 10.05 M15.6 0.0 Q19.75 2.0 26.55 3.25 L26.8 3.35 Q32.8 3.55 38.15 5.0 52.85 28.05 42.3 32.8 L41.8 33.05" ffdec:has-small-stroke="true" ffdec:original-stroke-width="0.5" fill="none" stroke="#000000" stroke-linecap="round" stroke-linejoin="round" stroke-width="1.0"/>
      <path d="M40.95 33.25 L40.55 33.45 25.75 36.05 Q20.25 33.85 13.25 33.35 L12.7 33.45 5.0 26.8 4.8 26.35 4.25 25.45 Q2.4 22.7 2.0 21.25 1.45 19.8 1.15 18.0 0.85 16.15 1.5 11.85 L0.5 9.5 12.45 1.3 15.95 2.5 Q19.9 4.35 26.4 5.5 L26.65 5.6 Q32.35 5.8 37.5 7.15 51.5 28.6 41.45 33.05 L40.95 33.25" fill="#000000" fill-opacity="0.49803922" fill-rule="evenodd" stroke="none"/>
    </g>
  </defs>
</svg>
