<?xml version="1.0" encoding="UTF-8" standalone="no"?>
<svg xmlns:ffdec="https://www.free-decompiler.com/flash" xmlns:xlink="http://www.w3.org/1999/xlink" ffdec:objectType="frame" height="34.8px" width="46.95px" xmlns="http://www.w3.org/2000/svg">
  <g transform="matrix(1.0, 0.0, 0.0, 1.0, 0.25, -1.5)">
    <use ffdec:characterId="117" height="34.8" transform="matrix(1.0, 0.0, 0.0, 1.0, -0.25, 1.5)" width="46.95" xlink:href="#shape0"/>
  </g>
  <defs>
    <g id="shape0" transform="matrix(1.0, 0.0, 0.0, 1.0, 0.25, -1.5)">
      <path d="M41.8 33.05 L41.4 33.25 25.9 36.05 Q20.1 33.7 12.8 33.15 L12.15 33.25 4.15 26.1 3.95 25.6 3.3 24.65 1.1 20.9 Q0.7 20.1 0.55 19.15 L0.0 15.2 1.3 10.15 Q5.1 4.55 10.1 1.75 18.05 4.45 26.1 4.25 L28.25 4.35 Q32.8 3.55 36.7 6.0 52.85 28.05 42.3 32.8 L41.8 33.05" fill="#76533d" fill-rule="evenodd" stroke="none"/>
      <path d="M25.9 36.05 Q20.1 33.7 12.8 33.15 M3.95 25.6 L3.3 24.65 1.1 20.9 Q0.7 20.1 0.55 19.15 L0.0 15.2 M10.1 1.75 Q18.05 4.45 26.1 4.25 L28.25 4.35 Q32.8 3.55 36.7 6.0 52.85 28.05 42.3 32.8 L41.8 33.05" ffdec:has-small-stroke="true" ffdec:original-stroke-width="0.5" fill="none" stroke="#000000" stroke-linecap="round" stroke-linejoin="round" stroke-width="1.0"/>
      <path d="M40.65 33.4 L26.1 36.05 Q20.65 33.85 13.8 33.3 L13.15 33.4 5.65 26.7 5.45 26.2 4.85 25.35 2.8 21.8 2.25 20.15 0.15 13.05 1.1 10.15 Q4.4 5.1 8.55 2.4 18.7 6.35 26.25 6.15 L28.3 6.25 Q32.55 5.5 36.25 7.8 51.4 28.5 41.5 33.0 L41.0 33.2 40.65 33.4" fill="#000000" fill-opacity="0.49803922" fill-rule="evenodd" stroke="none"/>
    </g>
  </defs>
</svg>
