<?xml version="1.0" encoding="UTF-8" standalone="no"?>
<svg xmlns:ffdec="https://www.free-decompiler.com/flash" xmlns:xlink="http://www.w3.org/1999/xlink" ffdec:objectType="frame" height="70.8px" width="45.85px" xmlns="http://www.w3.org/2000/svg">
  <g transform="matrix(1.0, 0.0, 0.0, 1.0, 30.55, 67.45)">
    <use ffdec:characterId="699" height="18.35" transform="matrix(1.0, 0.0, 0.0, -1.0, -30.55, -49.1)" width="45.85" xlink:href="#shape0"/>
    <use ffdec:characterId="700" height="13.75" transform="matrix(1.0, 0.0, 0.0, -1.0, -24.75, -44.4)" width="33.1" xlink:href="#shape1"/>
    <use ffdec:characterId="692" height="301.35" transform="matrix(-0.1857, 0.0, 0.0, -0.1142, 9.05, -1.445)" width="165.85" xlink:href="#shape2"/>
  </g>
  <defs>
    <g id="shape0" transform="matrix(1.0, 0.0, 0.0, 1.0, 23.55, -31.45)">
      <path d="M-18.5 31.95 L-21.2 35.45 -23.55 36.7 -18.5 31.95 M-16.5 33.05 Q-11.5 30.55 -10.3 31.95 -9.1 33.4 -9.35 39.95 L-9.4 42.15 Q-11.3 45.7 -12.25 49.8 L-10.65 40.75 Q-9.75 33.85 -10.75 32.5 -11.85 31.2 -17.3 33.5 L-17.85 33.75 -16.5 33.05 M11.05 39.65 L10.45 39.25 Q4.95 35.35 -0.35 35.35 -3.2 35.35 -5.5 37.15 -3.35 34.9 -0.15 34.9 4.9 34.9 9.7 38.55 L11.05 39.65 M21.05 35.4 L19.6 33.55 22.3 36.05 21.05 35.4 M11.45 32.85 Q12.35 31.1 16.7 33.05 18.4 33.85 20.1 34.9 L17.0 33.5 11.5 33.35 Q10.5 35.05 12.95 39.35 14.4 41.75 16.2 44.05 L13.2 41.2 12.35 39.65 12.3 39.55 11.95 38.7 Q10.3 34.65 11.45 32.85" fill="#f73600" fill-rule="evenodd" stroke="none"/>
    </g>
    <g id="shape1" transform="matrix(1.0, 0.0, 0.0, 1.0, 17.75, -26.75)">
      <path d="M-0.6 33.1 Q0.8 34.15 0.8 35.55 0.8 36.95 -0.6 37.95 -2.05 39.0 -4.0 39.0 -6.0 39.0 -7.45 37.95 -8.85 36.95 -8.85 35.55 -8.85 34.15 -7.45 33.1 -6.0 32.1 -4.0 32.1 -2.05 32.1 -0.6 33.1" fill="#696565" fill-rule="evenodd" stroke="none"/>
      <path d="M-12.6 29.05 Q-11.75 29.8 -11.75 30.85 -11.75 31.9 -12.6 32.65 -13.5 33.4 -14.75 33.4 -16.0 33.4 -16.85 32.65 -17.75 31.9 -17.75 30.85 -17.75 29.8 -16.85 29.05 -16.0 28.3 -14.75 28.3 -13.5 28.3 -12.6 29.05" fill="#696565" fill-rule="evenodd" stroke="none"/>
      <path d="M14.5 32.3 Q15.35 32.95 15.35 33.9 15.35 34.85 14.5 35.55 13.7 36.2 12.5 36.2 11.3 36.2 10.45 35.55 9.65 34.85 9.65 33.9 9.65 32.95 10.45 32.3 11.3 31.6 12.5 31.6 13.7 31.6 14.5 32.3" fill="#696565" fill-rule="evenodd" stroke="none"/>
      <path d="M-10.1 31.5 Q-9.25 32.2 -9.25 33.15 -9.25 34.15 -10.1 34.85 -10.9 35.5 -12.05 35.5 -13.2 35.5 -14.05 34.85 -14.85 34.15 -14.85 33.15 -14.85 32.2 -14.05 31.5 -13.2 30.85 -12.05 30.85 -10.9 30.85 -10.1 31.5" fill="#696565" fill-rule="evenodd" stroke="none"/>
      <path d="M-8.65 27.35 Q-7.55 28.05 -7.55 28.95 -7.55 29.85 -8.65 30.5 -9.75 31.15 -11.25 31.15 -12.8 31.15 -13.9 30.5 -14.95 29.85 -14.95 28.95 -14.95 28.05 -13.9 27.35 -12.8 26.75 -11.25 26.75 -9.75 26.75 -8.65 27.35" fill="#696565" fill-rule="evenodd" stroke="none"/>
      <path d="M14.35 29.75 Q15.1 30.35 15.1 31.2 15.1 32.05 14.35 32.65 13.65 33.25 12.65 33.25 11.6 33.25 10.9 32.65 10.15 32.05 10.15 31.2 10.15 30.35 10.9 29.75 11.6 29.1 12.65 29.1 13.65 29.1 14.35 29.75" fill="#696565" fill-rule="evenodd" stroke="none"/>
      <path d="M5.4 36.0 Q6.3 36.6 6.3 37.5 6.3 38.4 5.4 39.0 4.55 39.65 3.25 39.65 2.0 39.65 1.1 39.0 0.2 38.4 0.2 37.5 0.2 36.6 1.1 36.0 2.0 35.35 3.25 35.35 4.55 35.35 5.4 36.0" fill="#696565" fill-rule="evenodd" stroke="none"/>
      <path d="M-3.4 37.15 Q-2.75 37.7 -2.75 38.4 -2.75 39.15 -3.4 39.65 -4.0 40.2 -4.9 40.2 -5.8 40.2 -6.45 39.65 -7.1 39.15 -7.1 38.4 -7.1 37.7 -6.45 37.15 -5.8 36.65 -4.9 36.65 -4.0 36.65 -3.4 37.15" fill="#696565" fill-rule="evenodd" stroke="none"/>
      <path d="M-12.35 29.65 Q-11.65 30.2 -11.5 31.15 -11.35 32.05 -11.85 32.8 -12.4 33.55 -13.3 33.7 -14.25 33.85 -15.0 33.3 -15.7 32.75 -15.85 31.85 -16.0 30.9 -15.5 30.15 -14.95 29.4 -14.0 29.25 -13.1 29.1 -12.35 29.65" fill="#95847e" fill-rule="evenodd" stroke="none"/>
      <path d="M-9.95 31.2 Q-9.25 31.65 -9.15 32.45 -9.0 33.25 -9.5 33.9 -9.9 34.55 -10.7 34.7 -11.5 34.8 -12.2 34.3 -12.85 33.85 -13.0 33.05 -13.1 32.25 -12.65 31.6 -12.15 30.95 -11.35 30.85 -10.55 30.7 -9.95 31.2" fill="#95847e" fill-rule="evenodd" stroke="none"/>
      <path d="M-9.2 28.1 Q-8.4 28.6 -8.3 29.4 -8.15 30.2 -8.75 30.85 -9.35 31.55 -10.35 31.7 L-12.15 31.4 Q-12.95 30.95 -13.1 30.15 -13.2 29.35 -12.6 28.65 -12.0 28.0 -11.0 27.85 -10.0 27.7 -9.2 28.1" fill="#95847e" fill-rule="evenodd" stroke="none"/>
      <path d="M-2.75 35.05 Q-2.0 35.6 -1.9 36.5 -1.75 37.4 -2.3 38.15 -2.8 38.85 -3.7 38.95 L-5.35 38.6 Q-6.05 38.05 -6.2 37.15 -6.3 36.25 -5.8 35.5 -5.3 34.75 -4.4 34.6 -3.5 34.5 -2.75 35.05" fill="#95847e" fill-rule="evenodd" stroke="none"/>
      <path d="M-7.2 28.3 Q-6.5 28.9 -6.35 29.85 -6.2 30.85 -6.7 31.6 -7.25 32.4 -8.15 32.55 -9.0 32.7 -9.75 32.05 -10.45 31.5 -10.6 30.5 -10.75 29.55 -10.25 28.75 -9.75 28.0 -8.9 27.85 -8.0 27.7 -7.2 28.3" fill="#95847e" fill-rule="evenodd" stroke="none"/>
      <path d="M8.05 31.65 Q8.8 32.05 8.9 32.75 9.0 33.45 8.45 34.05 7.9 34.65 7.0 34.8 L5.4 34.55 Q4.7 34.15 4.6 33.45 4.5 32.75 5.0 32.15 5.55 31.5 6.45 31.35 7.35 31.2 8.05 31.65" fill="#95847e" fill-rule="evenodd" stroke="none"/>
      <path d="M-1.35 33.1 Q-0.75 33.55 -0.65 34.35 -0.5 35.1 -0.95 35.7 -1.3 36.3 -2.0 36.4 L-3.3 36.1 Q-3.8 35.6 -3.95 34.85 -4.05 34.05 -3.7 33.5 -3.25 32.85 -2.55 32.75 -1.85 32.65 -1.35 33.1" fill="#95847e" fill-rule="evenodd" stroke="none"/>
      <path d="M13.05 29.3 Q13.9 29.8 14.0 30.65 14.15 31.45 13.5 32.2 12.8 32.95 11.75 33.15 10.65 33.3 9.8 32.75 8.9 32.3 8.75 31.5 8.65 30.65 9.35 29.85 10.0 29.15 11.1 29.0 12.15 28.8 13.05 29.3" fill="#95847e" fill-rule="evenodd" stroke="none"/>
      <path d="M13.9 31.25 Q14.55 31.65 14.65 32.3 14.75 33.0 14.25 33.55 L13.0 34.25 Q12.2 34.4 11.55 33.95 11.0 33.6 10.9 32.9 10.8 32.25 11.2 31.65 11.7 31.1 12.5 30.95 13.3 30.85 13.9 31.25" fill="#95847e" fill-rule="evenodd" stroke="none"/>
      <path d="M-12.0 30.4 Q-11.5 30.75 -11.4 31.35 -11.35 31.95 -11.75 32.4 L-12.7 32.95 Q-13.3 33.05 -13.75 32.65 -14.2 32.3 -14.25 31.7 -14.35 31.1 -14.0 30.65 -13.65 30.2 -13.05 30.1 -12.45 30.05 -12.0 30.4" fill="#a8a491" fill-rule="evenodd" stroke="none"/>
      <path d="M-9.6 31.1 Q-9.05 31.5 -9.0 32.1 -8.9 32.75 -9.3 33.2 -9.7 33.75 -10.3 33.8 L-11.45 33.5 Q-11.9 33.15 -12.0 32.5 -12.05 31.9 -11.75 31.4 -11.35 30.9 -10.7 30.8 -10.1 30.75 -9.6 31.1" fill="#a8a491" fill-rule="evenodd" stroke="none"/>
      <path d="M-9.3 28.55 Q-8.75 29.0 -8.65 29.65 -8.55 30.35 -9.0 30.85 -9.4 31.4 -10.05 31.5 -10.75 31.6 -11.25 31.15 -11.75 30.75 -11.85 30.05 -11.95 29.4 -11.55 28.85 -11.15 28.35 -10.45 28.25 -9.8 28.15 -9.3 28.55" fill="#a8a491" fill-rule="evenodd" stroke="none"/>
      <path d="M-2.9 33.9 Q-2.35 34.45 -2.25 35.25 -2.15 36.05 -2.5 36.65 L-3.6 37.4 Q-4.25 37.45 -4.75 36.95 -5.35 36.45 -5.45 35.65 -5.55 34.85 -5.15 34.2 -4.75 33.55 -4.1 33.5 -3.45 33.4 -2.9 33.9" fill="#a8a491" fill-rule="evenodd" stroke="none"/>
      <path d="M-6.55 40.05 Q-6.4 40.1 -6.4 40.25 L-6.5 40.4 -6.6 40.5 -6.8 40.45 -6.85 40.3 -6.85 40.1 -6.7 40.0 -6.55 40.05" fill="#a8a491" fill-rule="evenodd" stroke="none"/>
      <path d="M7.7 32.35 Q8.15 32.65 8.2 33.1 L7.9 33.95 7.05 34.4 6.05 34.2 Q5.65 33.9 5.6 33.45 5.55 33.0 5.85 32.6 6.2 32.25 6.75 32.2 L7.7 32.35" fill="#a8a491" fill-rule="evenodd" stroke="none"/>
      <path d="M-4.15 33.25 Q-3.6 33.55 -3.5 34.05 -3.45 34.6 -3.9 35.1 -4.35 35.55 -5.05 35.65 L-6.3 35.4 Q-6.85 35.05 -6.9 34.5 -7.0 34.0 -6.55 33.55 -6.1 33.1 -5.4 33.0 -4.7 32.9 -4.15 33.25" fill="#a8a491" fill-rule="evenodd" stroke="none"/>
      <path d="M12.1 29.85 L12.7 30.65 12.35 31.5 Q11.9 31.9 11.2 32.0 L10.0 31.8 Q9.45 31.55 9.4 31.05 9.3 30.55 9.75 30.15 10.25 29.8 10.9 29.7 L12.1 29.85" fill="#a8a491" fill-rule="evenodd" stroke="none"/>
      <path d="M12.6 31.35 Q13.05 31.75 13.1 32.25 13.15 32.8 12.8 33.2 12.45 33.65 11.9 33.75 11.35 33.8 10.85 33.45 10.45 33.15 10.4 32.6 10.35 32.1 10.65 31.6 11.05 31.2 11.6 31.15 L12.6 31.35" fill="#a8a491" fill-rule="evenodd" stroke="none"/>
    </g>
    <g id="shape2" transform="matrix(1.0, 0.0, 0.0, 1.0, 82.95, 148.85)">
      <path d="M13.7 -130.15 Q13.7 -123.45 8.95 -118.7 6.75 -116.5 4.1 -115.3 L4.1 -91.15 -10.3 -91.15 -10.3 -115.9 Q-12.25 -117.0 -13.95 -118.7 -18.7 -123.45 -18.7 -130.15 -18.7 -136.85 -13.95 -141.6 -9.2 -146.35 -2.5 -146.35 4.2 -146.35 8.95 -141.6 13.7 -136.85 13.7 -130.15" fill="#0f1015" fill-rule="evenodd" stroke="none"/>
      <path d="M13.7 -130.15 Q13.7 -123.45 8.95 -118.7 6.75 -116.5 4.1 -115.3 L4.1 -91.15 -10.3 -91.15 -10.3 -115.9 Q-12.25 -117.0 -13.95 -118.7 -18.7 -123.45 -18.7 -130.15 -18.7 -136.85 -13.95 -141.6 -9.2 -146.35 -2.5 -146.35 4.2 -146.35 8.95 -141.6 13.7 -136.85 13.7 -130.15 Z" ffdec:has-small-stroke="true" ffdec:original-stroke-width="5.0" fill="none" stroke="#000000" stroke-linecap="round" stroke-linejoin="round" stroke-width="6.487583191467703"/>
      <path d="M-48.1 103.55 Q-52.4 93.1 -57.05 79.65 -70.85 39.6 -75.15 6.25 -81.15 -40.5 -67.2 -67.2 -49.8 -100.55 -2.0 -100.55 45.8 -100.55 64.75 -67.2 79.95 -40.5 76.15 6.25 73.4 39.6 61.4 79.65 57.25 93.6 53.35 104.3 59.0 110.15 59.0 117.2 59.0 129.35 42.35 137.85 25.75 146.5 2.25 146.5 -21.3 146.5 -37.9 137.85 -54.5 129.35 -54.5 117.2 -54.5 109.7 -48.1 103.55 L-44.05 113.0 -41.85 114.55 Q-38.7 116.4 -34.25 117.95 -19.9 122.9 2.75 122.9 25.4 122.9 39.95 117.95 47.25 115.5 50.0 113.0 L53.35 104.3 50.0 113.0 Q47.25 115.5 39.95 117.95 25.4 122.9 2.75 122.9 -19.9 122.9 -34.25 117.95 -38.7 116.4 -41.85 114.55 L-44.05 113.0 -48.1 103.55" fill="#000000" fill-rule="evenodd" stroke="none"/>
      <path d="M-48.1 103.55 Q-52.4 93.1 -57.05 79.65 -70.85 39.6 -75.15 6.25 -81.15 -40.5 -67.2 -67.2 -49.8 -100.55 -2.0 -100.55 45.8 -100.55 64.75 -67.2 79.95 -40.5 76.15 6.25 73.4 39.6 61.4 79.65 57.25 93.6 53.35 104.3 59.0 110.15 59.0 117.2 59.0 129.35 42.35 137.85 25.75 146.5 2.25 146.5 -21.3 146.5 -37.9 137.85 -54.5 129.35 -54.5 117.2 -54.5 109.7 -48.1 103.55 L-44.05 113.0 -41.85 114.55 Q-38.7 116.4 -34.25 117.95 -19.9 122.9 2.75 122.9 25.4 122.9 39.95 117.95 47.25 115.5 50.0 113.0 L53.35 104.3" fill="none" stroke="#000000" stroke-linecap="round" stroke-linejoin="round" stroke-width="12.0"/>
      <path d="M-54.5 117.2 Q-54.5 105.1 -37.9 96.5 -21.3 87.95 2.25 87.95 25.75 87.95 42.35 96.5 59.0 105.1 59.0 117.2 59.0 129.35 42.35 137.85 25.75 146.5 2.25 146.5 -21.3 146.5 -37.9 137.85 -54.5 129.35 -54.5 117.2" fill="#0f1015" fill-rule="evenodd" stroke="none"/>
      <path d="M-37.9 96.5 Q-21.3 87.95 2.25 87.95 L3.15 87.95 Q-12.0 100.95 -12.0 118.9 L-11.95 120.5 -17.85 124.0 Q-26.5 129.95 -26.5 135.25 -26.5 139.45 -21.2 144.0 -30.3 141.8 -37.9 137.85 -54.5 129.35 -54.5 117.2 -54.5 105.1 -37.9 96.5" fill="#7e7f8c" fill-rule="evenodd" stroke="none"/>
      <path d="M-37.9 96.5 Q-33.65 94.3 -28.9 92.7 -36.0 102.65 -36.0 114.9 L-35.95 116.5 -41.85 120.0 Q-48.55 124.6 -50.05 128.8 -54.5 123.5 -54.5 117.2 -54.5 105.1 -37.9 96.5" fill="#1a1c23" fill-rule="evenodd" stroke="none"/>
      <path d="M59.7 110.6 Q55.9 118.05 44.1 123.85 26.8 132.5 2.25 132.5 -22.3 132.5 -39.65 123.85 -51.4 118.05 -55.2 110.6 -51.4 103.15 -39.65 97.3 -22.3 88.75 2.25 88.75 26.8 88.75 44.1 97.3 55.9 103.15 59.7 110.6" fill="#000000" fill-rule="evenodd" stroke="none"/>
      <path d="M76.15 6.25 Q73.4 39.6 61.4 79.65 55.45 99.65 50.0 113.0 47.25 115.5 39.95 117.95 25.4 122.9 2.75 122.9 -19.9 122.9 -34.25 117.95 -38.7 116.4 -41.85 114.55 L-44.05 113.0 Q-50.1 99.65 -57.05 79.65 -70.85 39.6 -75.15 6.25 -81.15 -40.5 -67.2 -67.2 -49.8 -100.55 -2.0 -100.55 45.8 -100.55 64.75 -67.2 79.95 -40.5 76.15 6.25" fill="#0f1015" fill-rule="evenodd" stroke="none"/>
      <path d="M5.6 -100.3 Q-20.25 -92.15 -32.05 -66.7 -46.0 -36.75 -40.0 15.75 -35.7 53.2 -21.9 98.2 -17.8 111.45 -14.0 122.1 -25.65 120.9 -34.25 117.95 -38.7 116.4 -41.85 114.55 L-44.05 113.0 Q-50.1 99.65 -57.05 79.65 -70.85 39.6 -75.15 6.25 -81.15 -40.5 -67.2 -67.2 -49.8 -100.55 -2.0 -100.55 L5.6 -100.3" fill="#7e7f8c" fill-rule="evenodd" stroke="none"/>
      <path d="M4.65 -100.35 Q-37.95 -98.05 -54.15 -64.1 -68.1 -34.9 -62.1 16.2 -57.8 52.6 -44.0 96.4 -40.45 107.6 -37.1 116.85 L-41.85 114.55 -44.05 113.0 Q-50.1 99.65 -57.05 79.65 -70.85 39.6 -75.15 6.25 -81.15 -40.5 -67.2 -67.2 -49.8 -100.55 -2.0 -100.55 L4.65 -100.35" fill="#1a1c23" fill-rule="evenodd" stroke="none"/>
    </g>
  </defs>
</svg>
