<?xml version="1.0" encoding="UTF-8" standalone="no"?>
<svg
   ns1:objectType="frame"
   height="69.55px"
   width="100.05px"
   version="1.1"
   id="svg8"
   sodipodi:docname="2_fixed.svg"
   inkscape:version="1.4.2 (f4327f4, 2025-05-13)"
   xmlns:inkscape="http://www.inkscape.org/namespaces/inkscape"
   xmlns:sodipodi="http://sodipodi.sourceforge.net/DTD/sodipodi-0.dtd"
   xmlns:xlink="http://www.w3.org/1999/xlink"
   xmlns="http://www.w3.org/2000/svg"
   xmlns:svg="http://www.w3.org/2000/svg"
   xmlns:ns1="https://www.free-decompiler.com/flash">
  <sodipodi:namedview
     id="namedview8"
     pagecolor="#505050"
     bordercolor="#eeeeee"
     borderopacity="1"
     inkscape:showpageshadow="0"
     inkscape:pageopacity="0"
     inkscape:pagecheckerboard="0"
     inkscape:deskcolor="#505050"
     inkscape:zoom="16.779295"
     inkscape:cx="50.0319"
     inkscape:cy="34.775002"
     inkscape:window-width="2560"
     inkscape:window-height="1369"
     inkscape:window-x="-8"
     inkscape:window-y="-8"
     inkscape:window-maximized="1"
     inkscape:current-layer="g3" />
  <g
     transform="matrix(1.0, 0.0, 0.0, 1.0, 0.05, 0.75)"
     id="g3">
    <g
       id="use2"
       transform="translate(23,20.55)">
      <g
         id="use12">
        <path
           d="m 27.75,14.05 q -1.7,2.8 -10.7,8 Q 8.1,27.3 2.75,28.3 -0.5,19.2 0.1,12.35 0.7,5.55 2.75,0 q 9.7,3.65 16.35,7.5 6.55,3.85 8.65,6.55"
           fill="#618e18"
           fill-rule="evenodd"
           stroke="none"
           id="path13"
           style="fill:#5285aa;fill-opacity:1" />
        <path
           d="M 27.75,14.05 Q 25.65,11.35 19.1,7.5 12.45,3.65 2.75,0 0.7,5.55 0.1,12.35 -0.5,19.2 2.75,28.3"
           fill="none"
           stroke="#39560b"
           stroke-linecap="butt"
           stroke-linejoin="miter-clip"
           stroke-miterlimit="3"
           stroke-width="3"
           id="path14"
           style="stroke:#2e4f67;stroke-opacity:1" />
        <path
           d="m 2.75,28.3 q 5.35,-1 14.3,-6.25 9,-5.2 10.7,-8"
           fill="none"
           stroke="#bbdb87"
           stroke-linecap="butt"
           stroke-linejoin="miter-clip"
           stroke-miterlimit="3"
           stroke-width="3"
           id="path15"
           style="stroke:#a1d6f7;stroke-opacity:1" />
        <path
           d="m 21.15,11.3 4.2,2.65 Q 15.2,7.95 8.95,8.45 2.65,8.9 2.35,15.95 1.6,12.9 2.55,7.35 3.05,4.55 3.7,2.45 7.8,3.5 17.05,8.85 l 0.3,0.2 1.45,0.85 2.35,1.4"
           fill="#39560b"
           fill-rule="evenodd"
           stroke="none"
           id="path16"
           style="fill:#2e4f67;fill-opacity:1" />
      </g>
    </g>
    <g
       id="use3"
       transform="translate(52,20.55)">
      <g
         id="use8">
        <path
           d="m 27.75,14.05 q -1.7,2.8 -10.7,8 Q 8.1,27.3 2.75,28.3 -0.5,19.2 0.1,12.35 0.7,5.55 2.75,0 q 9.7,3.65 16.35,7.5 6.55,3.85 8.65,6.55"
           fill="#618e18"
           fill-rule="evenodd"
           stroke="none"
           id="path9"
           style="fill:#5285aa;fill-opacity:1" />
        <path
           d="M 27.75,14.05 Q 25.65,11.35 19.1,7.5 12.45,3.65 2.75,0 0.7,5.55 0.1,12.35 -0.5,19.2 2.75,28.3"
           fill="none"
           stroke="#39560b"
           stroke-linecap="butt"
           stroke-linejoin="miter-clip"
           stroke-miterlimit="3"
           stroke-width="3"
           id="path10"
           style="stroke:#2e4f67;stroke-opacity:1" />
        <path
           d="m 2.75,28.3 q 5.35,-1 14.3,-6.25 9,-5.2 10.7,-8"
           fill="none"
           stroke="#bbdb87"
           stroke-linecap="butt"
           stroke-linejoin="miter-clip"
           stroke-miterlimit="3"
           stroke-width="3"
           id="path11"
           style="stroke:#a1d6f7;stroke-opacity:1" />
        <path
           d="m 21.15,11.3 4.2,2.65 Q 15.2,7.95 8.95,8.45 2.65,8.9 2.35,15.95 1.6,12.9 2.55,7.35 3.05,4.55 3.7,2.45 7.8,3.5 17.05,8.85 l 0.3,0.2 1.45,0.85 2.35,1.4"
           fill="#39560b"
           fill-rule="evenodd"
           stroke="none"
           id="path12"
           style="fill:#2e4f67;fill-opacity:1" />
      </g>
    </g>
  </g>
  <defs
     id="defs8">
    <g
       id="shape0"
       transform="matrix(1.0, 0.0, 0.0, 1.0, -0.4, 0.7)">
      <path
         d="M94.95 1.15 L98.45 64.55 1.5 66.9 4.75 1.15 94.95 1.15"
         fill="#ffffff"
         fill-opacity="0.49803922"
         fill-rule="evenodd"
         stroke="none"
         id="path3" />
      <path
         d="M94.95 1.15 L4.75 1.15 1.5 66.9 98.45 64.55 94.95 1.15 Z"
         fill="none"
         stroke="#000000"
         stroke-linecap="butt"
         stroke-linejoin="miter-clip"
         stroke-miterlimit="3.0"
         stroke-opacity="0.49803922"
         stroke-width="2.0"
         id="path4" />
    </g>
    <g
       id="sprite0"
       transform="matrix(1.0, 0.0, 0.0, 1.0, 1.5, 1.85)">
      <use
         ns1:characterId="5546"
         height="31.65"
         transform="matrix(1.0, 0.0, 0.0, 1.0, -1.5, -1.85)"
         width="30.75"
         xlink:href="#shape1"
         id="use4" />
    </g>
    <g
       id="shape1"
       transform="matrix(1.0, 0.0, 0.0, 1.0, 1.5, 1.85)">
      <path
         d="M27.75 14.05 Q26.05 16.85 17.05 22.05 8.1 27.3 2.75 28.3 -0.5 19.2 0.1 12.35 0.7 5.55 2.75 0.0 12.45 3.65 19.1 7.5 25.65 11.35 27.75 14.05"
         fill="#618e18"
         fill-rule="evenodd"
         stroke="none"
         id="path5" />
      <path
         d="M27.75 14.05 Q25.65 11.35 19.1 7.5 12.45 3.65 2.75 0.0 0.7 5.55 0.1 12.35 -0.5 19.2 2.75 28.3"
         fill="none"
         stroke="#39560b"
         stroke-linecap="butt"
         stroke-linejoin="miter-clip"
         stroke-miterlimit="3.0"
         stroke-width="3.0"
         id="path6" />
      <path
         d="M2.75 28.3 Q8.1 27.3 17.05 22.05 26.05 16.85 27.75 14.05"
         fill="none"
         stroke="#bbdb87"
         stroke-linecap="butt"
         stroke-linejoin="miter-clip"
         stroke-miterlimit="3.0"
         stroke-width="3.0"
         id="path7" />
      <path
         d="M21.15 11.3 L25.35 13.95 Q15.2 7.95 8.95 8.45 2.65 8.9 2.35 15.95 1.6 12.9 2.55 7.35 3.05 4.55 3.7 2.45 7.8 3.5 17.05 8.85 L17.35 9.05 18.8 9.9 21.15 11.3"
         fill="#39560b"
         fill-rule="evenodd"
         stroke="none"
         id="path8" />
    </g>
  </defs>
</svg>
