<?xml version="1.0" encoding="UTF-8" standalone="no"?>
<svg xmlns:ffdec="https://www.free-decompiler.com/flash" xmlns:xlink="http://www.w3.org/1999/xlink" ffdec:objectType="frame" height="20.95px" width="21.45px" xmlns="http://www.w3.org/2000/svg">
  <g transform="matrix(1.0, 0.0, 0.0, 1.0, 3.25, 1.5)">
    <use ffdec:characterId="115" height="20.95" transform="matrix(1.0, 0.0, 0.0, 1.0, -3.25, -1.5)" width="21.45" xlink:href="#shape0"/>
  </g>
  <defs>
    <g id="shape0" transform="matrix(1.0, 0.0, 0.0, 1.0, 3.25, 1.5)">
      <path d="M-3.0 0.25 L-3.05 0.05 Q-3.05 -0.3 -0.35 -0.8 L4.7 -1.5 6.5 -1.5 Q10.75 -1.2 11.3 -0.3 L11.25 -0.2 11.4 0.0 Q11.0 5.3 17.55 8.7 L17.45 8.9 17.6 8.9 17.75 9.05 17.65 9.5 17.9 8.9 17.95 8.9 18.1 9.05 18.05 9.5 16.95 11.8 16.85 11.95 15.5 14.05 15.0 14.65 14.6 14.95 Q12.15 16.5 3.6 19.4 L3.05 19.4 2.9 19.2 2.7 19.2 Q3.4 11.9 -3.0 0.25" fill="#76533d" fill-rule="evenodd" stroke="none"/>
      <path d="M11.4 0.0 Q11.0 5.3 17.55 8.7 L17.95 8.9 M2.7 19.2 Q3.4 11.9 -3.0 0.25" ffdec:has-small-stroke="true" ffdec:original-stroke-width="0.5" fill="none" stroke="#000000" stroke-linecap="round" stroke-linejoin="round" stroke-width="1.0"/>
      <path d="M17.85 9.0 L17.9 8.9 17.95 8.9 18.1 9.05 18.05 9.5 16.95 11.8 16.85 11.95 15.5 14.05 15.0 14.65 14.6 14.95 Q12.15 16.5 3.6 19.4 L3.05 19.4 2.9 19.2 2.7 19.2 2.75 18.7 Q6.2 10.15 -3.0 0.2 L-3.05 0.05 Q-3.05 -0.3 -0.35 -0.8 L2.0 -1.2 4.7 -1.5 6.5 -1.5 9.15 -1.2 Q10.95 -0.85 11.3 -0.3 L11.25 -0.2 11.3 -0.15 Q9.15 7.25 17.75 9.0 L17.75 9.05 17.65 9.5 17.85 9.0 M2.0 -1.2 L9.15 -1.2 2.0 -1.2" fill="#000000" fill-opacity="0.49803922" fill-rule="evenodd" stroke="none"/>
      <path d="M17.75 9.0 L17.85 9.0" ffdec:has-small-stroke="true" ffdec:original-stroke-width="0.5" fill="none" stroke="#000000" stroke-linecap="round" stroke-linejoin="round" stroke-width="1.0"/>
    </g>
  </defs>
</svg>
