<?xml version="1.0" encoding="UTF-8" standalone="no"?>
<svg xmlns:ffdec="https://www.free-decompiler.com/flash" xmlns:xlink="http://www.w3.org/1999/xlink" ffdec:objectType="frame" height="22.35px" width="25.4px" xmlns="http://www.w3.org/2000/svg">
  <g transform="matrix(1.0, 0.0, 0.0, 1.0, 3.35, 1.5)">
    <use ffdec:characterId="107" height="22.35" transform="matrix(1.0, 0.0, 0.0, 1.0, -3.35, -1.5)" width="25.4" xlink:href="#shape0"/>
  </g>
  <defs>
    <g id="shape0" transform="matrix(1.0, 0.0, 0.0, 1.0, 3.35, 1.5)">
      <path d="M11.25 -0.2 L11.4 0.0 Q11.05 4.75 22.0 19.7 18.9 20.75 12.8 20.75 6.7 20.7 3.6 19.4 L3.05 19.4 2.9 19.2 2.7 19.2 Q3.4 11.9 -3.0 0.25 L-3.05 0.05 Q-3.05 -0.3 -0.35 -0.8 L4.7 -1.5 6.5 -1.5 Q10.75 -1.2 11.3 -0.3 L11.25 -0.2" fill="#76533d" fill-rule="evenodd" stroke="none"/>
      <path d="M10.95 -1.0 Q11.25 10.3 22.05 19.8 17.65 21.0 12.85 20.85 8.05 20.7 2.8 19.55 5.8 10.5 -3.35 -0.15 L-0.35 -0.8 4.7 -1.5 6.5 -1.5 10.95 -1.0" fill="#000000" fill-opacity="0.49803922" fill-rule="evenodd" stroke="none"/>
    </g>
  </defs>
</svg>
