<?xml version="1.0" encoding="UTF-8" standalone="no"?>
<svg xmlns:ffdec="https://www.free-decompiler.com/flash" xmlns:xlink="http://www.w3.org/1999/xlink" ffdec:objectType="frame" height="27.85px" width="25.4px" xmlns="http://www.w3.org/2000/svg">
  <g transform="matrix(1.0, 0.0, 0.0, 1.0, -0.2, 13.15)">
    <use ffdec:characterId="81" height="27.85" transform="matrix(1.0, 0.0, 0.0, 1.0, 0.2, -13.15)" width="25.4" xlink:href="#shape0"/>
  </g>
  <defs>
    <g id="shape0" transform="matrix(1.0, 0.0, 0.0, 1.0, -0.2, 13.15)">
      <path d="M15.2 -4.1 L15.25 -3.3 Q15.75 5.2 25.35 7.25 18.0 16.85 5.75 14.05 -0.55 1.7 0.65 -12.3 L15.2 -4.1" fill="#76533d" fill-rule="evenodd" stroke="none"/>
      <path d="M25.35 7.25 Q15.75 5.2 15.25 -3.3 L15.2 -4.1 M0.65 -12.3 Q-0.55 1.7 5.75 14.05 M0.65 -12.3 L0.7 -12.55" ffdec:has-small-stroke="true" ffdec:original-stroke-width="0.5" fill="none" stroke="#000000" stroke-linecap="round" stroke-linejoin="round" stroke-width="1.0"/>
      <path d="M1.45 -11.9 L1.3 -12.2 0.9 -13.15 15.2 -4.1 15.2 -4.0 Q14.1 -2.35 14.6 1.4 15.1 5.7 25.2 7.45 18.25 16.4 6.95 14.3 L6.55 14.25 5.75 14.05 5.75 14.0 5.55 13.7 4.85 7.55 4.75 7.15 Q2.15 -2.2 0.9 -12.2 L1.45 -11.9" fill="#000000" fill-opacity="0.49803922" fill-rule="evenodd" stroke="none"/>
    </g>
  </defs>
</svg>
