<?xml version="1.0" encoding="UTF-8" standalone="no"?>
<svg xmlns:ffdec="https://www.free-decompiler.com/flash" xmlns:xlink="http://www.w3.org/1999/xlink" ffdec:objectType="frame" height="32.6px" width="34.15px" xmlns="http://www.w3.org/2000/svg">
  <g transform="matrix(1.0, 0.0, 0.0, 1.0, 1.8, 1.6)">
    <use ffdec:characterId="5711" height="31.55" transform="matrix(1.0, 0.0, 0.0, 1.0, -1.25, -1.05)" width="33.05" xlink:href="#shape0"/>
    <use ffdec:characterId="5713" height="32.6" transform="matrix(1.0, 0.0, 0.0, 1.0, -1.8, -1.6)" width="34.15" xlink:href="#shape1"/>
    <use ffdec:characterId="5854" height="21.45" transform="matrix(1.0, 0.0, 0.0, 1.0, 2.95, 4.2)" width="23.1" xlink:href="#shape2"/>
  </g>
  <defs>
    <g id="shape0" transform="matrix(1.0, 0.0, 0.0, 1.0, 1.25, 1.05)">
      <path d="M0.85 29.5 L-0.25 0.0 30.7 2.0 28.1 28.55 0.85 29.5" fill="#ffffff" fill-opacity="0.49803922" fill-rule="evenodd" stroke="none"/>
      <path d="M0.85 29.5 L-0.25 0.0 30.7 2.0 28.1 28.55 0.85 29.5 Z" fill="none" stroke="#000000" stroke-linecap="butt" stroke-linejoin="miter-clip" stroke-miterlimit="3.0" stroke-opacity="0.49803922" stroke-width="2.0"/>
    </g>
    <g id="shape1" transform="matrix(1.0, 0.0, 0.0, 1.0, 1.8, 1.6)">
      <path d="M0.85 29.5 L-0.25 0.0 30.7 2.0 28.1 28.55 0.85 29.5 Z" fill="none" stroke="#ffffff" stroke-linecap="butt" stroke-linejoin="miter-clip" stroke-miterlimit="3.0" stroke-width="3.0"/>
    </g>
    <g id="shape2" transform="matrix(1.0, 0.0, 0.0, 1.0, -2.95, -4.2)">
      <path d="M23.4 20.1 Q23.2 22.0 21.05 23.15 18.85 24.25 16.7 23.15 14.45 22.1 14.9 20.5 15.3 18.85 20.1 17.8 L21.3 10.5 13.35 11.75 12.95 22.2 Q12.2 23.3 9.25 24.35 6.2 25.4 4.35 22.75 3.95 21.85 4.3 20.95 5.1 19.05 10.0 18.85 L9.45 7.15 24.95 5.2 23.4 20.1" fill="#7cb421" fill-rule="evenodd" stroke="none"/>
      <path d="M23.4 20.1 Q23.2 22.0 21.05 23.15 18.85 24.25 16.7 23.15 14.45 22.1 14.9 20.5 15.3 18.85 20.1 17.8 L21.3 10.5 13.35 11.75 12.95 22.2 Q12.2 23.3 9.25 24.35 6.2 25.4 4.35 22.75 3.95 21.85 4.3 20.95 5.1 19.05 10.0 18.85 L9.45 7.15 24.95 5.2 23.4 20.1 Z" fill="none" stroke="#2d4307" stroke-linecap="butt" stroke-linejoin="miter-clip" stroke-miterlimit="3.0" stroke-opacity="0.9882353" stroke-width="2.0"/>
    </g>
  </defs>
</svg>
