<?xml version="1.0" encoding="UTF-8" standalone="no"?>
<svg
   ffdec:objectType="frame"
   height="231.95px"
   width="283.45px"
   version="1.1"
   id="svg10"
   sodipodi:docname="3.svg"
   xmlns:inkscape="http://www.inkscape.org/namespaces/inkscape"
   xmlns:sodipodi="http://sodipodi.sourceforge.net/DTD/sodipodi-0.dtd"
   xmlns:xlink="http://www.w3.org/1999/xlink"
   xmlns="http://www.w3.org/2000/svg"
   xmlns:svg="http://www.w3.org/2000/svg"
   xmlns:ffdec="https://www.free-decompiler.com/flash">
  <sodipodi:namedview
     id="namedview10"
     pagecolor="#505050"
     bordercolor="#eeeeee"
     borderopacity="1"
     inkscape:showpageshadow="0"
     inkscape:pageopacity="0"
     inkscape:pagecheckerboard="0"
     inkscape:deskcolor="#505050" />
  <g
     transform="matrix(1.0, 0.0, 0.0, 1.0, 49.35, 81.9)"
     id="g3">
    <g
       id="use1"
       transform="matrix(1.2154,-0.8474,-0.0339,-0.4912,-4.3501,140.75037)">
      <g
         id="use10">
        <path
           d="m 67.55,-7.3 15,0.8 -0.4,82.05 21.4,-6.9 -2.45,-8.75 57.2,-20 3.85,14.55 -79.05,25.05 13.4,17.9 7.45,-5.2 37.6,47.6 -12.45,8.35 -49.35,-66.35 -12.7,18 7.25,5.45 L 40.6,155.7 28.8,146.45 76.7,79.1 56.3,72.6 53.2,81.15 -4.95,64.3 0.35,50.25 78.1,75.3 78.15,53.6 69.05,53.25 67.55,-7.3"
           fill="#000000"
           fill-rule="evenodd"
           stroke="none"
           id="path11" />
        <path
           d="m 137.15,59.15 -2.1,0.6 -5.8,-10.05 2.65,-0.9 5.25,10.35 m -26.6,7.6 -2.3,0.65 -3.25,-9.1 3.55,-1.25 v 0.1 l 2,9.6 m -1.5,31.7 -0.05,0.05 -8.45,4.95 -1.4,-1.95 7.6,-6.05 2.3,3 M 79.15,18.85 79.1,21 67.75,23.55 v -2.8 l 11.4,-1.9 M 78.4,46.5 v 2.35 l -9.75,0.4 -0.05,-3.75 h 0.05 l 9.75,1 m -54.9,14.55 2.05,0.75 -1.1,11.6 -2.65,-0.9 1.7,-11.45 m 26.1,9.3 2.2,0.75 -2.65,9.35 -3.55,-1.1 V 79.3 l 4,-8.95 m 22.45,38.55 -2.15,3 h -0.05 l -7.3,-6.55 1.4,-1.9 8.1,5.45 m -14.35,21.3 -1.65,2.25 -10.4,-5.15 1.35,-1.7 10.7,4.6 m 65,-14.5 1.7,2.2 -8.1,8.3 -1.25,-1.8 7.65,-8.7"
           fill="#c2b6a5"
           fill-rule="evenodd"
           stroke="none"
           id="path12" />
        <path
           d="m 66.95,-0.9 12.7,-0.4 -0.05,4.25 -12.5,0.15 -0.15,-4 m 12.8,-2.8 -12.9,-0.3 -0.15,-3.1 13.15,0.6 -0.1,2.8 m 52.15,52.5 3.3,-1.15 6.25,10.25 -4.3,1.25 -5.25,-10.35 m 7.9,-2.8 3.6,-1.25 4.85,11.2 -4.7,1.35 L 139.8,46 m 5.2,-1.8 1.75,-0.65 4.3,11.6 -1.55,0.45 -4.5,-11.4 m 3.55,-1.3 3.8,-1.3 4.2,12 -4.15,1.2 -3.85,-11.9 m 6.7,-2.35 2.9,-1.05 3.35,12.7 -2.65,0.75 -3.6,-12.4 M 128.8,61.5 127,62.05 122.75,52 l 2.3,-0.8 3.75,10.3 m -3.15,0.95 -3.9,1.1 -3.85,-9.8 1.9,-0.7 1.35,-0.45 4.5,9.85 m -6.95,1.95 -0.05,0.05 -2.85,0.8 -0.3,0.1 -2.3,-9.95 h 0.05 l 2.1,-0.75 0.05,0.05 3.3,9.7 m -5.7,1.65 -2.45,0.7 -2,-9.6 v -0.1 l 2.4,-0.85 0.05,0.1 2,9.75 m -4.75,1.35 -2.2,0.6 -3.5,-8.8 2.45,-0.9 3.25,9.1 m -7.7,36.05 8.45,-4.95 0.05,-0.05 1.6,2 -0.05,0.1 -8.6,5 -1.45,-2.1 m 6.2,-8 -7.6,6.05 -1.25,-1.9 7.2,-6.15 1.65,2 M 79.4,7.3 79.3,12.2 67.4,12.35 67.3,8.6 79.4,7.3 m -0.15,7.1 -0.1,4.45 -11.4,1.9 -0.15,-3.5 11.65,-2.85 M 78.9,27.5 v 1.85 L 68,30.45 67.95,28 78.9,27.5 m -0.05,3.35 -0.1,4.05 -10.5,0.7 L 68.2,33.55 68.1,32.1 78.85,30.85 M 78.7,38 v 0.1 L 78.55,41 78.6,41.3 68.4,40.55 68.35,38.3 78.7,38 m -0.2,5.95 -0.1,2.55 -9.75,-1 H 68.6 l -0.1,-2.6 h 0.1 l 9.9,1.05 m -0.1,4.9 -0.15,2.3 -9.4,0.7 -0.2,-2.6 9.75,-0.4 M 67.25,6.8 67.15,5 79.5,4.4 79.45,6 67.25,6.8 m -35.6,57.2 1.75,0.55 -2.35,10.7 -2.3,-0.7 2.9,-10.55 m 3.15,1.1 3.85,1.35 -2.6,10.2 -1.95,-0.6 -1.4,-0.35 2.1,-10.6 m 6.8,2.35 h 0.1 l 2.7,1.05 0.3,0.05 -3.9,9.5 -2.1,-0.65 2.9,-9.95 m 5.55,2.05 2.45,0.85 -4,8.95 v 0.05 l -2.55,-0.7 4.1,-9.15 m 4.65,1.6 2.15,0.8 -2.25,9.15 -2.55,-0.6 2.65,-9.35 m -30,1.4 -3.4,-0.9 0.9,-12 4.2,1.45 -1.7,11.45 m -8.1,-2.25 -3.6,-1.05 2.5,-11.9 4.6,1.6 -3.5,11.35 M 8.4,68.7 6.6,68.25 9.85,56.3 11.35,56.85 8.4,68.7 M 4.8,67.7 0.95,66.55 4.45,54.4 8.5,55.75 4.8,67.7 m -6.85,-2 -3,-0.8 4.7,-12.3 2.6,0.95 -4.3,12.15 m 75.45,40.95 -1.35,2.25 -8.1,-5.45 1.4,-1.8 8.05,5 m -3.5,5.25 -1.45,2.25 -7.45,-6.75 1.55,-2.05 7.3,6.55 h 0.05 m -2.75,4.2 -1.25,1.8 -8.55,-5.85 0.05,-0.05 1.8,-2.3 0.15,-0.3 7.8,6.7 m -2.75,4.05 -1.2,1.7 -0.75,1.25 -9.45,-5.3 2.5,-3.2 8.9,5.55 m -2.9,4.35 -1.35,1.95 -9.15,-6 1.05,-1.5 9.45,5.55 m -5.45,7.95 -1.9,2.95 -11.15,-4.55 2.65,-3.55 10.4,5.15 m -4.65,7 -2.1,3.1 -10.55,-6.05 2.95,-3.85 9.7,6.8 m -3.1,4.55 -1,1.6 -10.35,-6.8 1,-1.25 10.35,6.45 m -2.05,3.15 -2.3,3.3 -10.5,-7.1 2.55,-3.4 10.25,7.2 m -4.05,5.9 -1.7,2.6 -10.25,-8.25 1.7,-2.2 10.25,7.85 m 82.2,-35.15 2.15,2.75 -7.7,9.25 -2.55,-3.7 8.1,-8.3 m 5.2,6.55 2.3,3 -9,8.2 -2.8,-4 9.5,-7.2 m 3.4,4.4 1.15,1.4 -9.6,7.8 -0.9,-1.3 9.35,-7.9 m 2.3,2.9 2.5,3.2 -10,7.8 -2.5,-3.5 10,-7.5 m 4.45,5.6 1.9,2.4 -10.95,7.25 -1.55,-2.25 10.6,-7.4 m -28.4,-18.3 -1.05,-1.5 8.1,-7.3 1.5,1.95 -8.55,6.85 m -1.9,-2.7 -2.3,-3.35 8.05,-6.75 1.25,1.6 0.9,1.1 -7.9,7.4 m -4.1,-5.9 -0.05,-0.05 -1.65,-2.45 -0.2,-0.25 8.7,-5.35 v 0.05 l 1.4,1.7 -0.05,0.05 -8.15,6.3"
           fill="#9faaa4"
           fill-rule="evenodd"
           stroke="none"
           id="path13" />
        <path
           d="m 79.65,-1.3 -12.7,0.4 -0.1,-3.1 12.9,0.3 -0.1,2.4 M 67.1,3.1 79.6,2.95 79.5,4.4 67.15,5 67.1,3.1 m 68.1,44.55 4.6,-1.65 3.75,11.3 -2.1,0.6 -6.25,-10.25 m 8.2,-2.9 1.6,-0.55 4.5,11.4 -1.25,0.35 -4.85,-11.2 m 3.35,-1.2 1.8,-0.65 3.85,11.9 -1.35,0.35 -4.3,-11.6 m 5.6,-1.95 2.9,-1.05 3.6,12.4 -2.3,0.65 -4.2,-12 m -17.3,18.15 -3.6,1 -2.65,0.75 -3.75,-10.3 2.35,-0.8 1.85,-0.7 5.8,10.05 m -8.05,2.3 h -0.05 l -1.3,0.4 -4.5,-9.85 1.6,-0.6 4.25,10.05 m -5.25,1.5 -0.1,0.05 -2.95,0.8 -3.3,-9.7 -0.05,-0.05 2.55,-0.9 3.85,9.8 m -6.25,1.8 -2.5,0.7 -2,-9.75 -0.05,-0.1 2.25,-0.8 2.3,9.95 M 106.05,68 H 106 l -1.95,0.55 -3.1,-8.8 1.6,-0.55 3.5,8.8 m -4.05,37.55 8.6,-5 0.05,-0.1 1.5,1.9 -8.7,5.35 -1.45,-2.15 M 97.9,99.6 v -0.05 l -1.15,-1.7 7.3,-5.7 1.05,1.3 -7.2,6.15 M 79.3,12.2 79.25,14.4 67.6,17.25 67.4,12.35 79.3,12.2 M 79.1,21 79,24.8 78.9,27.5 67.95,28 67.9,25.5 67.75,23.55 79.1,21 m -0.2,8.35 V 29.4 L 78.85,30.85 68.1,32.1 68,30.45 78.9,29.35 M 78.75,34.9 78.8,34.95 78.7,38 68.35,38.3 v -0.05 l -0.1,-2.65 10.5,-0.7 m -0.15,6.4 -0.1,2.65 -9.9,-1.05 h -0.1 l -0.1,-2.35 10.2,0.75 m -0.35,9.85 v 0.05 l -0.05,2.05 -9.3,0.25 -0.05,-1.65 9.4,-0.7 M 67.3,8.6 67.25,6.8 79.45,6 79.4,7.3 67.3,8.6 m -41.75,53.2 3.55,1.25 2.55,0.95 -2.9,10.55 -2.4,-0.7 -1.9,-0.45 1.1,-11.6 m 7.85,2.75 0.05,0.05 1.35,0.5 -2.1,10.6 -1.65,-0.45 2.35,-10.7 m 5.25,1.9 0.05,-0.05 2.9,1.05 -2.9,9.95 -0.05,-0.05 -2.6,-0.7 2.6,-10.2 m 6.05,2.1 2.45,0.95 -4.1,9.15 -2.25,-0.6 3.9,-9.5 m 9.25,3.35 H 54 l 1.9,0.7 -2.6,8.95 -1.6,-0.5 2.25,-9.15 M 18.4,71.6 13.7,70.25 17.2,58.9 l 2.1,0.7 -0.9,12 M 10.1,69.2 8.4,68.7 11.35,56.85 12.6,57.3 10.1,69.2 M 6.6,68.25 5.45,67.85 4.8,67.7 8.5,55.75 9.85,56.3 6.6,68.25 m -5.65,-1.7 -3,-0.85 4.3,-12.15 0.6,0.2 1.6,0.65 -3.5,12.15 m 67.5,47.6 -1.3,1.95 -7.8,-6.7 1.65,-2 7.45,6.75 m -2.55,3.75 -0.05,0.05 -1.45,2.2 -8.9,-5.55 -0.05,-0.1 1.9,-2.45 8.55,5.85 m -3.45,5.2 -0.95,1.4 -9.45,-5.55 0.1,-0.05 0.85,-1.1 9.45,5.3 m -2.3,3.35 -1.4,2.1 -1.05,1.65 -10.7,-4.6 2.3,-3 1.7,-2.15 9.15,6 m -6,8.95 -2.75,4.05 -9.7,-6.8 1.3,-1.8 11.15,4.55 m -4.85,7.15 -1,1.45 -10.35,-6.45 0.8,-1.05 10.55,6.05 m -2,3.05 -0.75,0.95 -0.3,0.6 -10.25,-7.2 0.95,-1.15 10.35,6.8 m -3.35,4.85 -1.75,2.6 -10.25,-7.85 0.4,-0.5 1.1,-1.35 10.5,7.1 m 21.4,-48.8 v -0.05 l 1.3,-1.6 7.7,5.3 -0.95,1.35 -8.05,-5 m 61.2,19 3.05,3.8 -9.5,7.2 -1.25,-1.75 7.7,-9.25 m 5.35,6.8 1.1,1.4 -9.35,7.9 -0.75,-1.1 9,-8.2 m 2.25,2.8 1.15,1.5 -10,7.5 -0.75,-1.2 9.6,-7.8 m 3.65,4.7 1.95,2.4 -10.6,7.4 -1.35,-2 10,-7.8 m -22.75,-10.55 -2.15,-3.1 -1.55,-2.25 8.55,-6.85 1.5,1.95 1.3,1.55 -7.65,8.7 m -4.75,-6.85 -0.05,-0.05 -0.8,-1.15 7.9,-7.4 1.05,1.3 -8.1,7.3 M 107.15,113 h -0.1 l -1.7,-2.55 8.15,-6.3 0.05,-0.05 1.65,2.15 -8.05,6.75"
           fill="#d0c9bf"
           fill-rule="evenodd"
           stroke="none"
           id="path14" />
      </g>
    </g>
    <g
       id="use2"
       transform="matrix(1.216,-0.8295,0.0096,-0.5213,-13.89996,149.54995)">
      <path
         d="m 74.7,-0.2 0.85,0.1 v -0.3 l 15,1.35 -3.35,82 21.6,-6.15 -2.3,-9 1.65,-0.5 2.45,-0.8 3.6,-1.1 2.45,-0.8 2.25,-0.7 h 0.05 l 2.15,-0.7 2.6,-0.8 1.9,-0.6 1.35,-0.4 1.65,-0.55 2.3,-0.75 2.4,-0.7 1.9,-0.65 2.65,-0.8 3.35,-1 4.65,-1.5 3.65,-1.15 1.6,-0.45 1.8,-0.6 1.8,-0.6 3.85,-1.15 2.95,-0.95 2.9,-0.95 0.1,0.45 0.05,-0.05 3.3,14.7 -79.85,22.2 12.7,18.35 7.65,-4.9 v 0.05 l 0.1,-0.1 1,1.35 1.6,2 2.2,3.1 1.5,2.05 1.45,1.95 v 0.05 l 1.35,1.75 1.55,2.2 1.2,1.65 0.85,1.15 1,1.35 1.45,2 1.4,2 1.25,1.6 1.65,2.25 2.05,2.8 2.9,3.95 2.2,3.05 1.05,1.45 1.1,1.45 1.1,1.55 2.4,3.25 1.85,2.5 1.8,2.45 -12.85,7.95 -46.9,-68.05 -13.35,17.5 7.05,5.7 0.05,0.05 -1,1.3 -1.45,2.2 -2.25,2.95 -1.55,2.2 -1.35,1.9 -1.3,1.75 -0.05,0.05 -1.55,2.15 -0.55,0.75 -0.9,1.25 -0.6,0.9 -1,1.35 -2.65,3.65 -0.45,0.65 -0.9,1.25 -0.45,0.6 -17.55,24.3 -0.05,-0.05 H 42.7 l -11.35,-9.6 50.3,-65.6 -20.2,-7.25 -3.3,8.85 -1.6,-0.55 -2.5,-0.7 -3.55,-1.2 -2.5,-0.8 -2.25,-0.7 -2.05,-0.7 -0.05,-0.05 -2.6,-0.8 -1.9,-0.7 -1.4,-0.4 -1.6,-0.5 L 33.9,80.05 31.5,79.25 29.65,78.7 27,77.75 23.65,76.7 19,75.2 15.45,74 13.75,73.45 11.95,72.95 10.85,72.5 10.2,72.3 6.35,71.05 3.4,70.1 0.45,69.15 0.7,68.6 0.55,68.55 6.35,54.7 83.15,82.55 84,60.85 74.75,60.4 v -1.65 l -0.1,-2.6 0.1,-3.75 -0.05,-2.6 V 47.45 L 74.75,45.2 V 45.15 42.5 40.45 L 74.7,39 l -0.05,-1.6 0.05,-2.45 0.05,-2.55 -0.1,-1.95 0.1,-2.8 v -3.5 L 74.7,19.25 74.75,15.5 V 13.7 L 74.7,11.9 74.75,10 V 6 2.9 L 74.7,-0.2"
         fill="url(#gradient0)"
         fill-rule="evenodd"
         stroke="none"
         id="path15"
         style="fill:url(#linearGradient15)" />
    </g>
    <g
       id="use3">
      <path
         d="M 84.1,45.1 83,45.25 q -2.15,-0.1 -1.65,-2.7 0.55,-2.75 3.65,-6.15 3,-3.3 6.3,-5.15 1.9,-1.1 3.2,-1.1 h 0.25 q 0.55,-0.15 1.1,0.25 0.9,0.4 0.85,1.7 -1.35,-0.25 -3.45,1.1 -3.05,1.7 -5.85,4.8 -2.75,3.2 -3.25,5.75 -0.2,0.75 -0.05,1.35"
         fill="#565656"
         fill-rule="evenodd"
         stroke="none"
         id="path16" />
      <path
         d="m 96.7,32.1 0.6,0.1 q 0.7,0.4 0.65,1.45 l -0.2,1.4 q -0.7,2.05 -2.85,4.6 -2.2,2.6 -4.75,4.55 -1.9,1.2 -3.25,1.7 l -1.4,0.3 q -1.3,-0.15 -1.4,-1.1 -0.15,-0.6 0.05,-1.35 0.5,-2.55 3.25,-5.75 2.8,-3.1 5.85,-4.8 2.1,-1.35 3.45,-1.1"
         fill="#777777"
         fill-rule="evenodd"
         stroke="none"
         id="path17" />
    </g>
  </g>
  <defs
     id="defs10">
    <g
       id="sprite0"
       transform="matrix(1.0, 0.0, 0.0, 1.0, 5.05, 7.3)">
      <use
         ffdec:characterId="4973"
         height="163.0"
         transform="matrix(1.0, 0.0, 0.0, 1.0, -5.05, -7.3)"
         width="167.2"
         xlink:href="#shape0"
         id="use4" />
    </g>
    <g
       id="shape0"
       transform="matrix(1.0, 0.0, 0.0, 1.0, 5.05, 7.3)">
      <path
         d="M67.55 -7.3 L82.55 -6.5 82.15 75.55 103.55 68.65 101.1 59.9 158.3 39.9 162.15 54.45 83.1 79.5 96.5 97.4 103.95 92.2 141.55 139.8 129.1 148.15 79.75 81.8 67.05 99.8 74.3 105.25 40.6 155.7 28.8 146.45 76.7 79.1 56.3 72.6 53.2 81.15 -4.95 64.3 0.35 50.25 78.1 75.3 78.15 53.6 69.05 53.25 67.55 -7.3"
         fill="#000000"
         fill-rule="evenodd"
         stroke="none"
         id="path4" />
      <path
         d="M137.15 59.15 L135.05 59.75 129.25 49.7 131.9 48.8 137.15 59.15 M110.55 66.75 L108.25 67.4 105.0 58.3 108.55 57.05 108.55 57.15 110.55 66.75 M109.05 98.45 L109.0 98.5 100.55 103.45 99.15 101.5 106.75 95.45 109.05 98.45 M79.15 18.85 L79.1 21.0 67.75 23.55 67.75 20.75 79.15 18.85 M78.4 46.5 L78.4 48.85 68.65 49.25 68.6 45.5 68.65 45.5 78.4 46.5 M23.5 61.05 L25.55 61.8 24.45 73.4 21.8 72.5 23.5 61.05 M49.6 70.35 L51.8 71.1 49.15 80.45 45.6 79.35 45.6 79.3 49.6 70.35 M72.05 108.9 L69.9 111.9 69.85 111.9 62.55 105.35 63.95 103.45 72.05 108.9 M57.7 130.2 L56.05 132.45 45.65 127.3 47.0 125.6 57.7 130.2 M122.7 115.7 L124.4 117.9 116.3 126.2 115.05 124.4 122.7 115.7"
         fill="#c2b6a5"
         fill-rule="evenodd"
         stroke="none"
         id="path5" />
      <path
         d="M66.95 -0.9 L79.65 -1.3 79.6 2.95 67.1 3.1 66.95 -0.9 M79.75 -3.7 L66.85 -4.0 66.7 -7.1 79.85 -6.5 79.75 -3.7 M131.9 48.8 L135.2 47.65 141.45 57.9 137.15 59.15 131.9 48.8 M139.8 46.0 L143.4 44.75 148.25 55.95 143.55 57.3 139.8 46.0 M145.0 44.2 L146.75 43.55 151.05 55.15 149.5 55.6 145.0 44.2 M148.55 42.9 L152.35 41.6 156.55 53.6 152.4 54.8 148.55 42.9 M155.25 40.55 L158.15 39.5 161.5 52.2 158.85 52.95 155.25 40.55 M128.8 61.5 L127.0 62.05 122.75 52.0 125.05 51.2 128.8 61.5 M125.65 62.45 L121.75 63.55 117.9 53.75 119.8 53.05 121.15 52.6 125.65 62.45 M118.7 64.4 L118.65 64.45 115.8 65.25 115.5 65.35 113.2 55.4 113.25 55.4 115.35 54.65 115.4 54.7 118.7 64.4 M113.0 66.05 L110.55 66.75 108.55 57.15 108.55 57.05 110.95 56.2 111.0 56.3 113.0 66.05 M108.25 67.4 L106.05 68.0 102.55 59.2 105.0 58.3 108.25 67.4 M100.55 103.45 L109.0 98.5 109.05 98.45 110.65 100.45 110.6 100.55 102.0 105.55 100.55 103.45 M106.75 95.45 L99.15 101.5 97.9 99.6 105.1 93.45 106.75 95.45 M79.4 7.3 L79.3 12.2 67.4 12.35 67.3 8.6 79.4 7.3 M79.25 14.4 L79.15 18.85 67.75 20.75 67.6 17.25 79.25 14.4 M78.9 27.5 L78.9 29.35 68.0 30.45 67.95 28.0 78.9 27.5 M78.85 30.85 L78.75 34.9 68.25 35.6 68.2 33.55 68.1 32.1 78.85 30.85 M78.7 38.0 L78.7 38.1 78.55 41.0 78.6 41.3 68.4 40.55 68.35 38.3 78.7 38.0 M78.5 43.95 L78.4 46.5 68.65 45.5 68.6 45.5 68.5 42.9 68.6 42.9 78.5 43.95 M78.4 48.85 L78.25 51.15 68.85 51.85 68.65 49.25 78.4 48.85 M67.25 6.8 L67.15 5.0 79.5 4.4 79.45 6.0 67.25 6.8 M31.65 64.0 L33.4 64.55 31.05 75.25 28.75 74.55 31.65 64.0 M34.8 65.1 L38.65 66.45 36.05 76.65 34.1 76.05 32.7 75.7 34.8 65.1 M41.6 67.45 L41.7 67.45 44.4 68.5 44.7 68.55 40.8 78.05 38.7 77.4 41.6 67.45 M47.15 69.5 L49.6 70.35 45.6 79.3 45.6 79.35 43.05 78.65 47.15 69.5 M51.8 71.1 L53.95 71.9 51.7 81.05 49.15 80.45 51.8 71.1 M21.8 72.5 L18.4 71.6 19.3 59.6 23.5 61.05 21.8 72.5 M13.7 70.25 L10.1 69.2 12.6 57.3 17.2 58.9 13.7 70.25 M8.4 68.7 L6.6 68.25 9.85 56.3 11.35 56.85 8.4 68.7 M4.8 67.7 L0.95 66.55 4.45 54.4 8.5 55.75 4.8 67.7 M-2.05 65.7 L-5.05 64.9 -0.35 52.6 2.25 53.55 -2.05 65.7 M73.4 106.65 L72.05 108.9 63.95 103.45 65.35 101.65 73.4 106.65 M69.9 111.9 L68.45 114.15 61.0 107.4 62.55 105.35 69.85 111.9 69.9 111.9 M67.15 116.1 L65.9 117.9 57.35 112.05 57.4 112.0 59.2 109.7 59.35 109.4 67.15 116.1 M64.4 120.15 L63.2 121.85 62.45 123.1 53.0 117.8 55.5 114.6 64.4 120.15 M61.5 124.5 L60.15 126.45 51.0 120.45 52.05 118.95 61.5 124.5 M56.05 132.45 L54.15 135.4 43.0 130.85 45.65 127.3 56.05 132.45 M51.4 139.45 L49.3 142.55 38.75 136.5 41.7 132.65 51.4 139.45 M48.3 144.0 L47.3 145.6 36.95 138.8 37.95 137.55 48.3 144.0 M46.25 147.15 L43.95 150.45 33.45 143.35 36.0 139.95 46.25 147.15 M42.2 153.05 L40.5 155.65 30.25 147.4 31.95 145.2 42.2 153.05 M124.4 117.9 L126.55 120.65 118.85 129.9 116.3 126.2 124.4 117.9 M129.6 124.45 L131.9 127.45 122.9 135.65 120.1 131.65 129.6 124.45 M133.0 128.85 L134.15 130.25 124.55 138.05 123.65 136.75 133.0 128.85 M135.3 131.75 L137.8 134.95 127.8 142.75 125.3 139.25 135.3 131.75 M139.75 137.35 L141.65 139.75 130.7 147.0 129.15 144.75 139.75 137.35 M111.35 119.05 L110.3 117.55 118.4 110.25 119.9 112.2 111.35 119.05 M109.45 116.35 L107.15 113.0 115.2 106.25 116.45 107.85 117.35 108.95 109.45 116.35 M105.35 110.45 L105.3 110.4 103.65 107.95 103.45 107.7 112.15 102.35 112.15 102.4 113.55 104.1 113.5 104.15 105.35 110.45"
         fill="#9faaa4"
         fill-rule="evenodd"
         stroke="none"
         id="path6" />
      <path
         d="M79.65 -1.3 L66.95 -0.9 66.85 -4.0 79.75 -3.7 79.65 -1.3 M67.1 3.1 L79.6 2.95 79.5 4.4 67.15 5.0 67.1 3.1 M135.2 47.65 L139.8 46.0 143.55 57.3 141.45 57.9 135.2 47.65 M143.4 44.75 L145.0 44.2 149.5 55.6 148.25 55.95 143.4 44.75 M146.75 43.55 L148.55 42.9 152.4 54.8 151.05 55.15 146.75 43.55 M152.35 41.6 L155.25 40.55 158.85 52.95 156.55 53.6 152.35 41.6 M135.05 59.75 L131.45 60.75 128.8 61.5 125.05 51.2 127.4 50.4 129.25 49.7 135.05 59.75 M127.0 62.05 L126.95 62.05 125.65 62.45 121.15 52.6 122.75 52.0 127.0 62.05 M121.75 63.55 L121.65 63.6 118.7 64.4 115.4 54.7 115.35 54.65 117.9 53.75 121.75 63.55 M115.5 65.35 L113.0 66.05 111.0 56.3 110.95 56.2 113.2 55.4 115.5 65.35 M106.05 68.0 L106.0 68.0 104.05 68.55 100.95 59.75 102.55 59.2 106.05 68.0 M102.0 105.55 L110.6 100.55 110.65 100.45 112.15 102.35 103.45 107.7 102.0 105.55 M97.9 99.6 L97.9 99.55 96.75 97.85 104.05 92.15 105.1 93.45 97.9 99.6 M79.3 12.2 L79.25 14.4 67.6 17.25 67.4 12.35 79.3 12.2 M79.1 21.0 L79.0 24.8 78.9 27.5 67.95 28.0 67.9 25.5 67.75 23.55 79.1 21.0 M78.9 29.35 L78.9 29.4 78.85 30.85 68.1 32.1 68.0 30.45 78.9 29.35 M78.75 34.9 L78.8 34.95 78.7 38.0 68.35 38.3 68.35 38.25 68.25 35.6 78.75 34.9 M78.6 41.3 L78.5 43.95 68.6 42.9 68.5 42.9 68.4 40.55 78.6 41.3 M78.25 51.15 L78.25 51.2 78.2 53.25 68.9 53.5 68.85 51.85 78.25 51.15 M67.3 8.6 L67.25 6.8 79.45 6.0 79.4 7.3 67.3 8.6 M25.55 61.8 L29.1 63.05 31.65 64.0 28.75 74.55 26.35 73.85 24.45 73.4 25.55 61.8 M33.4 64.55 L33.45 64.6 34.8 65.1 32.7 75.7 31.05 75.25 33.4 64.55 M38.65 66.45 L38.7 66.4 41.6 67.45 38.7 77.4 38.65 77.35 36.05 76.65 38.65 66.45 M44.7 68.55 L47.15 69.5 43.05 78.65 40.8 78.05 44.7 68.55 M53.95 71.9 L54.0 71.9 55.9 72.6 53.3 81.55 51.7 81.05 53.95 71.9 M18.4 71.6 L13.7 70.25 17.2 58.9 19.3 59.6 18.4 71.6 M10.1 69.2 L8.4 68.7 11.35 56.85 12.6 57.3 10.1 69.2 M6.6 68.25 L5.45 67.85 4.8 67.7 8.5 55.75 9.85 56.3 6.6 68.25 M0.95 66.55 L-2.05 65.7 2.25 53.55 2.85 53.75 4.45 54.4 0.95 66.55 M68.45 114.15 L67.15 116.1 59.35 109.4 61.0 107.4 68.45 114.15 M65.9 117.9 L65.85 117.95 64.4 120.15 55.5 114.6 55.45 114.5 57.35 112.05 65.9 117.9 M62.45 123.1 L61.5 124.5 52.05 118.95 52.15 118.9 53.0 117.8 62.45 123.1 M60.15 126.45 L58.75 128.55 57.7 130.2 47.0 125.6 49.3 122.6 51.0 120.45 60.15 126.45 M54.15 135.4 L51.4 139.45 41.7 132.65 43.0 130.85 54.15 135.4 M49.3 142.55 L48.3 144.0 37.95 137.55 38.75 136.5 49.3 142.55 M47.3 145.6 L46.55 146.55 46.25 147.15 36.0 139.95 36.95 138.8 47.3 145.6 M43.95 150.45 L42.2 153.05 31.95 145.2 32.35 144.7 33.45 143.35 43.95 150.45 M65.35 101.65 L65.35 101.6 66.65 100.0 74.35 105.3 73.4 106.65 65.35 101.65 M126.55 120.65 L129.6 124.45 120.1 131.65 118.85 129.9 126.55 120.65 M131.9 127.45 L133.0 128.85 123.65 136.75 122.9 135.65 131.9 127.45 M134.15 130.25 L135.3 131.75 125.3 139.25 124.55 138.05 134.15 130.25 M137.8 134.95 L139.75 137.35 129.15 144.75 127.8 142.75 137.8 134.95 M115.05 124.4 L112.9 121.3 111.35 119.05 119.9 112.2 121.4 114.15 122.7 115.7 115.05 124.4 M110.3 117.55 L110.25 117.5 109.45 116.35 117.35 108.95 118.4 110.25 110.3 117.55 M107.15 113.0 L107.05 113.0 105.35 110.45 113.5 104.15 113.55 104.1 115.2 106.25 107.15 113.0"
         fill="#d0c9bf"
         fill-rule="evenodd"
         stroke="none"
         id="path7" />
    </g>
    <g
       id="shape1"
       transform="matrix(1.0, 0.0, 0.0, 1.0, -0.45, 0.4)">
      <path
         d="M74.7 -0.2 L75.55 -0.1 75.55 -0.4 90.55 0.95 87.2 82.95 108.8 76.8 106.5 67.8 108.15 67.3 110.6 66.5 114.2 65.4 116.65 64.6 118.9 63.9 118.95 63.9 121.1 63.2 123.7 62.4 125.6 61.8 126.95 61.4 128.6 60.85 130.9 60.1 133.3 59.4 135.2 58.75 137.85 57.95 141.2 56.95 145.85 55.45 149.5 54.3 151.1 53.85 152.9 53.25 154.7 52.65 158.55 51.5 161.5 50.55 164.4 49.6 164.5 50.05 164.55 50.0 167.85 64.7 88.0 86.9 100.7 105.25 108.35 100.35 108.35 100.4 108.45 100.3 109.45 101.65 111.05 103.65 113.25 106.75 114.75 108.8 116.2 110.75 116.2 110.8 117.55 112.55 119.1 114.75 120.3 116.4 121.15 117.55 122.15 118.9 123.6 120.9 125.0 122.9 126.25 124.5 127.9 126.75 129.95 129.55 132.85 133.5 135.05 136.55 136.1 138.0 137.2 139.45 138.3 141.0 140.7 144.25 142.55 146.75 144.35 149.2 131.5 157.15 84.6 89.1 71.25 106.6 78.3 112.3 78.35 112.35 77.35 113.65 75.9 115.85 73.65 118.8 72.1 121.0 70.75 122.9 69.45 124.65 69.4 124.7 67.85 126.85 67.3 127.6 66.4 128.85 65.8 129.75 64.8 131.1 62.15 134.75 61.7 135.4 60.8 136.65 60.35 137.25 42.8 161.55 42.75 161.5 42.7 161.5 31.35 151.9 81.65 86.3 61.45 79.05 58.15 87.9 56.55 87.35 54.05 86.65 50.5 85.45 48.0 84.65 45.75 83.95 43.7 83.25 43.65 83.2 41.05 82.4 39.15 81.7 37.75 81.3 36.15 80.8 33.9 80.05 31.5 79.25 29.65 78.7 27.0 77.75 23.65 76.7 19.0 75.2 15.45 74.0 13.75 73.45 11.95 72.95 10.85 72.5 10.2 72.3 6.35 71.05 3.4 70.1 0.45 69.15 0.7 68.6 0.55 68.55 6.35 54.7 83.15 82.55 84.0 60.85 74.75 60.4 74.75 58.75 74.65 56.15 74.75 52.4 74.7 49.8 74.7 47.45 74.75 45.2 74.75 45.15 74.75 42.5 74.75 40.45 74.7 39.0 74.65 37.4 74.7 34.95 74.75 32.4 74.65 30.45 74.75 27.65 74.75 24.15 74.7 19.25 74.75 15.5 74.75 13.7 74.7 11.9 74.75 10.0 74.75 6.0 74.75 2.9 74.7 -0.2"
         fill="url(#gradient0)"
         fill-rule="evenodd"
         stroke="none"
         id="path8" />
    </g>
    <linearGradient
       gradientTransform="matrix(0.1022, 0.0, 0.0, 0.0988, 84.15, 80.55)"
       gradientUnits="userSpaceOnUse"
       id="gradient0"
       spreadMethod="pad"
       x1="-819.2"
       x2="819.2">
      <stop
         offset="0.0196078431372549"
         stop-color="#000000"
         stop-opacity="0.0"
         id="stop8" />
      <stop
         offset="1.0"
         stop-color="#000000"
         id="stop9" />
    </linearGradient>
    <g
       id="shape2"
       transform="matrix(1.0, 0.0, 0.0, 1.0, -81.25, -30.1)">
      <path
         d="M84.1 45.1 L83.0 45.25 Q80.85 45.15 81.35 42.55 81.9 39.8 85.0 36.4 88.0 33.1 91.3 31.25 93.2 30.15 94.5 30.15 L94.75 30.15 Q95.3 30.0 95.85 30.4 96.75 30.8 96.7 32.1 95.35 31.85 93.25 33.2 90.2 34.9 87.4 38.0 84.65 41.2 84.15 43.75 83.95 44.5 84.1 45.1"
         fill="#565656"
         fill-rule="evenodd"
         stroke="none"
         id="path9" />
      <path
         d="M96.7 32.1 L97.3 32.2 Q98.0 32.6 97.95 33.65 L97.75 35.05 Q97.05 37.1 94.9 39.65 92.7 42.25 90.15 44.2 88.25 45.4 86.9 45.9 L85.5 46.2 Q84.2 46.05 84.1 45.1 83.95 44.5 84.15 43.75 84.65 41.2 87.4 38.0 90.2 34.9 93.25 33.2 95.35 31.85 96.7 32.1"
         fill="#777777"
         fill-rule="evenodd"
         stroke="none"
         id="path10" />
    </g>
    <linearGradient
       inkscape:collect="always"
       xlink:href="#gradient0"
       id="linearGradient15"
       gradientUnits="userSpaceOnUse"
       gradientTransform="matrix(0.1022,0,0,0.0988,84.15,80.55)"
       x1="-819.2"
       x2="819.2"
       spreadMethod="pad" />
  </defs>
</svg>
