<?xml version="1.0" encoding="UTF-8" standalone="no"?>
<svg
   ffdec:objectType="frame"
   height="13.6px"
   width="31.45px"
   version="1.1"
   id="svg64"
   sodipodi:docname="1.svg"
   inkscape:version="1.4.2 (f4327f4, 2025-05-13)"
   xmlns:inkscape="http://www.inkscape.org/namespaces/inkscape"
   xmlns:sodipodi="http://sodipodi.sourceforge.net/DTD/sodipodi-0.dtd"
   xmlns="http://www.w3.org/2000/svg"
   xmlns:svg="http://www.w3.org/2000/svg"
   xmlns:ffdec="https://www.free-decompiler.com/flash">
  <sodipodi:namedview
     id="namedview64"
     pagecolor="#505050"
     bordercolor="#eeeeee"
     borderopacity="1"
     inkscape:showpageshadow="0"
     inkscape:pageopacity="0"
     inkscape:pagecheckerboard="0"
     inkscape:deskcolor="#505050"
     inkscape:zoom="76.820348"
     inkscape:cx="15.731509"
     inkscape:cy="6.8015834"
     inkscape:window-width="2560"
     inkscape:window-height="1369"
     inkscape:window-x="-8"
     inkscape:window-y="-8"
     inkscape:window-maximized="1"
     inkscape:current-layer="svg64" />
  <g
     transform="matrix(1.0, 0.0, 0.0, 1.0, 31.05, 6.35)"
     id="g1">
    <g
       id="use1"
       transform="matrix(0,0.5537,-0.5537,0,-17.55068,0.550265)">
      <path
         d="m -4.25,-9.8 h 7.1 L -0.8,-32.4 -4.25,-9.8"
         fill="#000000"
         fill-rule="evenodd"
         stroke="none"
         id="path65" />
      <path
         d="m -6.15,23.4 2.95,-0.2 1,-0.15 1.35,-10.3 -9.3,2.1 -0.95,2.4 q -0.7,2.65 0.05,4.4 0.7,1.7 4.9,1.75"
         fill="#ffcc33"
         fill-rule="evenodd"
         stroke="none"
         id="path66" />
      <path
         d="m -6.15,23.4 2.95,-0.2 1,-0.15 1.35,-10.3 -9.3,2.1 -0.95,2.4 q -0.7,2.65 0.05,4.4 0.7,1.7 4.9,1.75 z"
         fill="none"
         stroke="#856301"
         stroke-linecap="round"
         stroke-linejoin="round"
         stroke-width="2"
         id="path67" />
      <path
         d="M 5.85,23.35 2.8,23.15 1.85,23 0.55,12.7 l 9.3,2.1 q 0.55,1 0.9,2.4 0.75,2.65 -0.05,4.4 -0.75,1.7 -4.85,1.75"
         fill="#ffcc33"
         fill-rule="evenodd"
         stroke="none"
         id="path68" />
      <path
         d="M 5.85,23.35 2.8,23.15 1.85,23 0.55,12.7 l 9.3,2.1 q 0.55,1 0.9,2.4 0.75,2.65 -0.05,4.4 -0.75,1.7 -4.85,1.75 z"
         fill="none"
         stroke="#856301"
         stroke-linecap="round"
         stroke-linejoin="round"
         stroke-width="2"
         id="path69" />
      <path
         d="m 1.05,6.25 h -2.3 L -3.1,23.85 H 2.85 L 1.05,6.25"
         fill="#000000"
         fill-rule="evenodd"
         stroke="none"
         id="path70" />
      <path
         d="m 3.8,0.75 q 2.6,-5.1 2.6,-7.8 0,-12.95 -6.55,-12.95 -6.55,0 -6.55,12.95 0,2.7 2.55,7.8 2.65,5.2 4,5.2 1.3,0 3.95,-5.2"
         fill="#333333"
         fill-rule="evenodd"
         stroke="none"
         id="path71" />
      <path
         d="m 3.8,0.75 q 2.6,-5.1 2.6,-7.8 0,-12.95 -6.55,-12.95 -6.55,0 -6.55,12.95 0,2.7 2.55,7.8 2.65,5.2 4,5.2 1.3,0 3.95,-5.2 z"
         fill="none"
         stroke="#000000"
         stroke-linecap="round"
         stroke-linejoin="round"
         stroke-width="2"
         id="path72" />
      <path
         d="m -4.25,-9.8 h 7.1 L -0.8,-32.4 -4.25,-9.8"
         fill="#000000"
         fill-rule="evenodd"
         stroke="none"
         id="path73" />
      <path
         d="m -6.15,23.4 2.95,-0.2 1,-0.15 1.35,-10.3 -9.3,2.1 -0.95,2.4 q -0.7,2.65 0.05,4.4 0.7,1.7 4.9,1.75"
         fill="#ffcc33"
         fill-rule="evenodd"
         stroke="none"
         id="path74" />
      <path
         d="m -6.15,23.4 2.95,-0.2 1,-0.15 1.35,-10.3 -9.3,2.1 -0.95,2.4 q -0.7,2.65 0.05,4.4 0.7,1.7 4.9,1.75 z"
         fill="none"
         stroke="#856301"
         stroke-linecap="round"
         stroke-linejoin="round"
         stroke-width="2"
         id="path75" />
      <path
         d="M 5.85,23.35 2.8,23.15 1.85,23 0.55,12.7 l 9.3,2.1 q 0.55,1 0.9,2.4 0.75,2.65 -0.05,4.4 -0.75,1.7 -4.85,1.75"
         fill="#ffcc33"
         fill-rule="evenodd"
         stroke="none"
         id="path76" />
      <path
         d="M 5.85,23.35 2.8,23.15 1.85,23 0.55,12.7 l 9.3,2.1 q 0.55,1 0.9,2.4 0.75,2.65 -0.05,4.4 -0.75,1.7 -4.85,1.75 z"
         fill="none"
         stroke="#856301"
         stroke-linecap="round"
         stroke-linejoin="round"
         stroke-width="2"
         id="path77" />
      <path
         d="m 1.05,6.25 h -2.3 L -3.1,23.85 H 2.85 L 1.05,6.25"
         fill="#000000"
         fill-rule="evenodd"
         stroke="none"
         id="path78" />
      <path
         d="m 3.8,0.75 q 2.6,-5.1 2.6,-7.8 0,-12.95 -6.55,-12.95 -6.55,0 -6.55,12.95 0,2.7 2.55,7.8 2.65,5.2 4,5.2 1.3,0 3.95,-5.2"
         fill="#333333"
         fill-rule="evenodd"
         stroke="none"
         id="path79" />
      <path
         d="m 3.8,0.75 q 2.6,-5.1 2.6,-7.8 0,-12.95 -6.55,-12.95 -6.55,0 -6.55,12.95 0,2.7 2.55,7.8 2.65,5.2 4,5.2 1.3,0 3.95,-5.2 z"
         fill="none"
         stroke="#000000"
         stroke-linecap="round"
         stroke-linejoin="round"
         stroke-width="2"
         id="path80" />
      <path
         d="m -4.25,-9.8 h 7.1 L -0.8,-32.4 -4.25,-9.8"
         fill="#000000"
         fill-rule="evenodd"
         stroke="none"
         id="path81" />
      <path
         d="m -6.15,23.4 2.95,-0.2 1,-0.15 1.35,-10.3 -9.3,2.1 -0.95,2.4 q -0.7,2.65 0.05,4.4 0.7,1.7 4.9,1.75"
         fill="#ffcc33"
         fill-rule="evenodd"
         stroke="none"
         id="path82" />
      <path
         d="m -6.15,23.4 2.95,-0.2 1,-0.15 1.35,-10.3 -9.3,2.1 -0.95,2.4 q -0.7,2.65 0.05,4.4 0.7,1.7 4.9,1.75 z"
         fill="none"
         stroke="#856301"
         stroke-linecap="round"
         stroke-linejoin="round"
         stroke-width="2"
         id="path83" />
      <path
         d="M 5.85,23.35 2.8,23.15 1.85,23 0.55,12.7 l 9.3,2.1 q 0.55,1 0.9,2.4 0.75,2.65 -0.05,4.4 -0.75,1.7 -4.85,1.75"
         fill="#ffcc33"
         fill-rule="evenodd"
         stroke="none"
         id="path84" />
      <path
         d="M 5.85,23.35 2.8,23.15 1.85,23 0.55,12.7 l 9.3,2.1 q 0.55,1 0.9,2.4 0.75,2.65 -0.05,4.4 -0.75,1.7 -4.85,1.75 z"
         fill="none"
         stroke="#856301"
         stroke-linecap="round"
         stroke-linejoin="round"
         stroke-width="2"
         id="path85" />
      <path
         d="m 1.05,6.25 h -2.3 L -3.1,23.85 H 2.85 L 1.05,6.25"
         fill="#000000"
         fill-rule="evenodd"
         stroke="none"
         id="path86" />
      <path
         d="m 3.8,0.75 q 2.6,-5.1 2.6,-7.8 0,-12.95 -6.55,-12.95 -6.55,0 -6.55,12.95 0,2.7 2.55,7.8 2.65,5.2 4,5.2 1.3,0 3.95,-5.2"
         fill="#333333"
         fill-rule="evenodd"
         stroke="none"
         id="path87" />
      <path
         d="m 3.8,0.75 q 2.6,-5.1 2.6,-7.8 0,-12.95 -6.55,-12.95 -6.55,0 -6.55,12.95 0,2.7 2.55,7.8 2.65,5.2 4,5.2 1.3,0 3.95,-5.2 z"
         fill="none"
         stroke="#000000"
         stroke-linecap="round"
         stroke-linejoin="round"
         stroke-width="2"
         id="path88" />
      <path
         d="m -4.25,-9.8 h 7.1 L -0.8,-32.4 -4.25,-9.8"
         fill="#000000"
         fill-rule="evenodd"
         stroke="none"
         id="path89" />
      <path
         d="m -6.15,23.4 2.95,-0.2 1,-0.15 1.35,-10.3 -9.3,2.1 -0.95,2.4 q -0.7,2.65 0.05,4.4 0.7,1.7 4.9,1.75"
         fill="#ffcc33"
         fill-rule="evenodd"
         stroke="none"
         id="path90" />
      <path
         d="m -6.15,23.4 2.95,-0.2 1,-0.15 1.35,-10.3 -9.3,2.1 -0.95,2.4 q -0.7,2.65 0.05,4.4 0.7,1.7 4.9,1.75 z"
         fill="none"
         stroke="#856301"
         stroke-linecap="round"
         stroke-linejoin="round"
         stroke-width="2"
         id="path91" />
      <path
         d="M 5.85,23.35 2.8,23.15 1.85,23 0.55,12.7 l 9.3,2.1 q 0.55,1 0.9,2.4 0.75,2.65 -0.05,4.4 -0.75,1.7 -4.85,1.75"
         fill="#ffcc33"
         fill-rule="evenodd"
         stroke="none"
         id="path92" />
      <path
         d="M 5.85,23.35 2.8,23.15 1.85,23 0.55,12.7 l 9.3,2.1 q 0.55,1 0.9,2.4 0.75,2.65 -0.05,4.4 -0.75,1.7 -4.85,1.75 z"
         fill="none"
         stroke="#856301"
         stroke-linecap="round"
         stroke-linejoin="round"
         stroke-width="2"
         id="path93" />
      <path
         d="m 1.05,6.25 h -2.3 L -3.1,23.85 H 2.85 L 1.05,6.25"
         fill="#000000"
         fill-rule="evenodd"
         stroke="none"
         id="path94" />
      <path
         d="m 3.8,0.75 q 2.6,-5.1 2.6,-7.8 0,-12.95 -6.55,-12.95 -6.55,0 -6.55,12.95 0,2.7 2.55,7.8 2.65,5.2 4,5.2 1.3,0 3.95,-5.2"
         fill="#333333"
         fill-rule="evenodd"
         stroke="none"
         id="path95" />
      <path
         d="m 3.8,0.75 q 2.6,-5.1 2.6,-7.8 0,-12.95 -6.55,-12.95 -6.55,0 -6.55,12.95 0,2.7 2.55,7.8 2.65,5.2 4,5.2 1.3,0 3.95,-5.2 z"
         fill="none"
         stroke="#000000"
         stroke-linecap="round"
         stroke-linejoin="round"
         stroke-width="2"
         id="path96" />
      <path
         d="m -4.25,-9.8 h 7.1 L -0.8,-32.4 -4.25,-9.8"
         fill="#000000"
         fill-rule="evenodd"
         stroke="none"
         id="path97" />
      <path
         d="m -6.15,23.4 2.95,-0.2 1,-0.15 1.35,-10.3 -9.3,2.1 -0.95,2.4 q -0.7,2.65 0.05,4.4 0.7,1.7 4.9,1.75"
         fill="#ffcc33"
         fill-rule="evenodd"
         stroke="none"
         id="path98" />
      <path
         d="m -6.15,23.4 2.95,-0.2 1,-0.15 1.35,-10.3 -9.3,2.1 -0.95,2.4 q -0.7,2.65 0.05,4.4 0.7,1.7 4.9,1.75 z"
         fill="none"
         stroke="#856301"
         stroke-linecap="round"
         stroke-linejoin="round"
         stroke-width="2"
         id="path99" />
      <path
         d="M 5.85,23.35 2.8,23.15 1.85,23 0.55,12.7 l 9.3,2.1 q 0.55,1 0.9,2.4 0.75,2.65 -0.05,4.4 -0.75,1.7 -4.85,1.75"
         fill="#ffcc33"
         fill-rule="evenodd"
         stroke="none"
         id="path100" />
      <path
         d="M 5.85,23.35 2.8,23.15 1.85,23 0.55,12.7 l 9.3,2.1 q 0.55,1 0.9,2.4 0.75,2.65 -0.05,4.4 -0.75,1.7 -4.85,1.75 z"
         fill="none"
         stroke="#856301"
         stroke-linecap="round"
         stroke-linejoin="round"
         stroke-width="2"
         id="path101" />
      <path
         d="m 1.05,6.25 h -2.3 L -3.1,23.85 H 2.85 L 1.05,6.25"
         fill="#000000"
         fill-rule="evenodd"
         stroke="none"
         id="path102" />
      <path
         d="m 3.8,0.75 q 2.6,-5.1 2.6,-7.8 0,-12.95 -6.55,-12.95 -6.55,0 -6.55,12.95 0,2.7 2.55,7.8 2.65,5.2 4,5.2 1.3,0 3.95,-5.2"
         fill="#333333"
         fill-rule="evenodd"
         stroke="none"
         id="path103" />
      <path
         d="m 3.8,0.75 q 2.6,-5.1 2.6,-7.8 0,-12.95 -6.55,-12.95 -6.55,0 -6.55,12.95 0,2.7 2.55,7.8 2.65,5.2 4,5.2 1.3,0 3.95,-5.2 z"
         fill="none"
         stroke="#000000"
         stroke-linecap="round"
         stroke-linejoin="round"
         stroke-width="2"
         id="path104" />
      <path
         d="m -4.25,-9.8 h 7.1 L -0.8,-32.4 -4.25,-9.8"
         fill="#000000"
         fill-rule="evenodd"
         stroke="none"
         id="path105" />
      <path
         d="m -6.15,23.4 2.95,-0.2 1,-0.15 1.35,-10.3 -9.3,2.1 -0.95,2.4 q -0.7,2.65 0.05,4.4 0.7,1.7 4.9,1.75"
         fill="#ffcc33"
         fill-rule="evenodd"
         stroke="none"
         id="path106" />
      <path
         d="m -6.15,23.4 2.95,-0.2 1,-0.15 1.35,-10.3 -9.3,2.1 -0.95,2.4 q -0.7,2.65 0.05,4.4 0.7,1.7 4.9,1.75 z"
         fill="none"
         stroke="#856301"
         stroke-linecap="round"
         stroke-linejoin="round"
         stroke-width="2"
         id="path107" />
      <path
         d="M 5.85,23.35 2.8,23.15 1.85,23 0.55,12.7 l 9.3,2.1 q 0.55,1 0.9,2.4 0.75,2.65 -0.05,4.4 -0.75,1.7 -4.85,1.75"
         fill="#ffcc33"
         fill-rule="evenodd"
         stroke="none"
         id="path108" />
      <path
         d="M 5.85,23.35 2.8,23.15 1.85,23 0.55,12.7 l 9.3,2.1 q 0.55,1 0.9,2.4 0.75,2.65 -0.05,4.4 -0.75,1.7 -4.85,1.75 z"
         fill="none"
         stroke="#856301"
         stroke-linecap="round"
         stroke-linejoin="round"
         stroke-width="2"
         id="path109" />
      <path
         d="m 1.05,6.25 h -2.3 L -3.1,23.85 H 2.85 L 1.05,6.25"
         fill="#000000"
         fill-rule="evenodd"
         stroke="none"
         id="path110" />
      <path
         d="m 3.8,0.75 q 2.6,-5.1 2.6,-7.8 0,-12.95 -6.55,-12.95 -6.55,0 -6.55,12.95 0,2.7 2.55,7.8 2.65,5.2 4,5.2 1.3,0 3.95,-5.2"
         fill="#333333"
         fill-rule="evenodd"
         stroke="none"
         id="path111" />
      <path
         d="m 3.8,0.75 q 2.6,-5.1 2.6,-7.8 0,-12.95 -6.55,-12.95 -6.55,0 -6.55,12.95 0,2.7 2.55,7.8 2.65,5.2 4,5.2 1.3,0 3.95,-5.2 z"
         fill="none"
         stroke="#000000"
         stroke-linecap="round"
         stroke-linejoin="round"
         stroke-width="2"
         id="path112" />
      <path
         d="m -4.25,-9.8 h 7.1 L -0.8,-32.4 -4.25,-9.8"
         fill="#000000"
         fill-rule="evenodd"
         stroke="none"
         id="path113" />
      <path
         d="m -6.15,23.4 2.95,-0.2 1,-0.15 1.35,-10.3 -9.3,2.1 -0.95,2.4 q -0.7,2.65 0.05,4.4 0.7,1.7 4.9,1.75"
         fill="#ffcc33"
         fill-rule="evenodd"
         stroke="none"
         id="path114" />
      <path
         d="m -6.15,23.4 2.95,-0.2 1,-0.15 1.35,-10.3 -9.3,2.1 -0.95,2.4 q -0.7,2.65 0.05,4.4 0.7,1.7 4.9,1.75 z"
         fill="none"
         stroke="#856301"
         stroke-linecap="round"
         stroke-linejoin="round"
         stroke-width="2"
         id="path115" />
      <path
         d="M 5.85,23.35 2.8,23.15 1.85,23 0.55,12.7 l 9.3,2.1 q 0.55,1 0.9,2.4 0.75,2.65 -0.05,4.4 -0.75,1.7 -4.85,1.75"
         fill="#ffcc33"
         fill-rule="evenodd"
         stroke="none"
         id="path116" />
      <path
         d="M 5.85,23.35 2.8,23.15 1.85,23 0.55,12.7 l 9.3,2.1 q 0.55,1 0.9,2.4 0.75,2.65 -0.05,4.4 -0.75,1.7 -4.85,1.75 z"
         fill="none"
         stroke="#856301"
         stroke-linecap="round"
         stroke-linejoin="round"
         stroke-width="2"
         id="path117" />
      <path
         d="m 1.05,6.25 h -2.3 L -3.1,23.85 H 2.85 L 1.05,6.25"
         fill="#000000"
         fill-rule="evenodd"
         stroke="none"
         id="path118" />
      <path
         d="m 3.8,0.75 q 2.6,-5.1 2.6,-7.8 0,-12.95 -6.55,-12.95 -6.55,0 -6.55,12.95 0,2.7 2.55,7.8 2.65,5.2 4,5.2 1.3,0 3.95,-5.2"
         fill="#333333"
         fill-rule="evenodd"
         stroke="none"
         id="path119" />
      <path
         d="m 3.8,0.75 q 2.6,-5.1 2.6,-7.8 0,-12.95 -6.55,-12.95 -6.55,0 -6.55,12.95 0,2.7 2.55,7.8 2.65,5.2 4,5.2 1.3,0 3.95,-5.2 z"
         fill="none"
         stroke="#000000"
         stroke-linecap="round"
         stroke-linejoin="round"
         stroke-width="2"
         id="path120" />
      <path
         d="m -4.25,-9.8 h 7.1 L -0.8,-32.4 -4.25,-9.8"
         fill="#000000"
         fill-rule="evenodd"
         stroke="none"
         id="path121" />
      <path
         d="m -6.15,23.4 2.95,-0.2 1,-0.15 1.35,-10.3 -9.3,2.1 -0.95,2.4 q -0.7,2.65 0.05,4.4 0.7,1.7 4.9,1.75"
         fill="#ffcc33"
         fill-rule="evenodd"
         stroke="none"
         id="path122" />
      <path
         d="m -6.15,23.4 2.95,-0.2 1,-0.15 1.35,-10.3 -9.3,2.1 -0.95,2.4 q -0.7,2.65 0.05,4.4 0.7,1.7 4.9,1.75 z"
         fill="none"
         stroke="#856301"
         stroke-linecap="round"
         stroke-linejoin="round"
         stroke-width="2"
         id="path123" />
      <path
         d="M 5.85,23.35 2.8,23.15 1.85,23 0.55,12.7 l 9.3,2.1 q 0.55,1 0.9,2.4 0.75,2.65 -0.05,4.4 -0.75,1.7 -4.85,1.75"
         fill="#ffcc33"
         fill-rule="evenodd"
         stroke="none"
         id="path124" />
      <path
         d="M 5.85,23.35 2.8,23.15 1.85,23 0.55,12.7 l 9.3,2.1 q 0.55,1 0.9,2.4 0.75,2.65 -0.05,4.4 -0.75,1.7 -4.85,1.75 z"
         fill="none"
         stroke="#856301"
         stroke-linecap="round"
         stroke-linejoin="round"
         stroke-width="2"
         id="path125" />
      <path
         d="m 1.05,6.25 h -2.3 L -3.1,23.85 H 2.85 L 1.05,6.25"
         fill="#000000"
         fill-rule="evenodd"
         stroke="none"
         id="path126" />
      <path
         d="m 3.8,0.75 q 2.6,-5.1 2.6,-7.8 0,-12.95 -6.55,-12.95 -6.55,0 -6.55,12.95 0,2.7 2.55,7.8 2.65,5.2 4,5.2 1.3,0 3.95,-5.2"
         fill="#333333"
         fill-rule="evenodd"
         stroke="none"
         id="path127" />
      <path
         d="m 3.8,0.75 q 2.6,-5.1 2.6,-7.8 0,-12.95 -6.55,-12.95 -6.55,0 -6.55,12.95 0,2.7 2.55,7.8 2.65,5.2 4,5.2 1.3,0 3.95,-5.2 z"
         fill="none"
         stroke="#000000"
         stroke-linecap="round"
         stroke-linejoin="round"
         stroke-width="2"
         id="path128" />
    </g>
  </g>
  <defs
     id="defs64">
    <g
       id="shape0"
       transform="matrix(1.0, 0.0, 0.0, 1.0, 12.45, 32.4)">
      <path
         d="M-4.25 -9.8 L2.85 -9.8 -0.8 -32.4 -4.25 -9.8"
         fill="#000000"
         fill-rule="evenodd"
         stroke="none"
         id="path1" />
      <path
         d="M-6.15 23.4 L-3.2 23.2 -2.2 23.05 -0.85 12.75 -10.15 14.85 -11.1 17.25 Q-11.8 19.9 -11.05 21.65 -10.35 23.35 -6.15 23.4"
         fill="#ffcc33"
         fill-rule="evenodd"
         stroke="none"
         id="path2" />
      <path
         d="M-6.15 23.4 L-3.2 23.2 -2.2 23.05 -0.85 12.75 -10.15 14.85 -11.1 17.25 Q-11.8 19.9 -11.05 21.65 -10.35 23.35 -6.15 23.4 Z"
         fill="none"
         stroke="#856301"
         stroke-linecap="round"
         stroke-linejoin="round"
         stroke-width="2.0"
         id="path3" />
      <path
         d="M5.85 23.35 L2.8 23.15 1.85 23.0 0.55 12.7 9.85 14.8 Q10.4 15.8 10.75 17.2 11.5 19.85 10.7 21.6 9.95 23.3 5.85 23.35"
         fill="#ffcc33"
         fill-rule="evenodd"
         stroke="none"
         id="path4" />
      <path
         d="M5.85 23.35 L2.8 23.15 1.85 23.0 0.55 12.7 9.85 14.8 Q10.4 15.8 10.75 17.2 11.5 19.85 10.7 21.6 9.95 23.3 5.85 23.35 Z"
         fill="none"
         stroke="#856301"
         stroke-linecap="round"
         stroke-linejoin="round"
         stroke-width="2.0"
         id="path5" />
      <path
         d="M1.05 6.25 L-1.25 6.25 -3.1 23.85 2.85 23.85 1.05 6.25"
         fill="#000000"
         fill-rule="evenodd"
         stroke="none"
         id="path6" />
      <path
         d="M3.8 0.75 Q6.4 -4.35 6.4 -7.05 6.4 -20.0 -0.15 -20.0 -6.7 -20.0 -6.7 -7.05 -6.7 -4.35 -4.15 0.75 -1.5 5.95 -0.15 5.95 1.15 5.95 3.8 0.75"
         fill="#333333"
         fill-rule="evenodd"
         stroke="none"
         id="path7" />
      <path
         d="M3.8 0.75 Q6.4 -4.35 6.4 -7.05 6.4 -20.0 -0.15 -20.0 -6.7 -20.0 -6.7 -7.05 -6.7 -4.35 -4.15 0.75 -1.5 5.95 -0.15 5.95 1.15 5.95 3.8 0.75 Z"
         fill="none"
         stroke="#000000"
         stroke-linecap="round"
         stroke-linejoin="round"
         stroke-width="2.0"
         id="path8" />
      <path
         d="M-4.25 -9.8 L2.85 -9.8 -0.8 -32.4 -4.25 -9.8"
         fill="#000000"
         fill-rule="evenodd"
         stroke="none"
         id="path9" />
      <path
         d="M-6.15 23.4 L-3.2 23.2 -2.2 23.05 -0.85 12.75 -10.15 14.85 -11.1 17.25 Q-11.8 19.9 -11.05 21.65 -10.35 23.35 -6.15 23.4"
         fill="#ffcc33"
         fill-rule="evenodd"
         stroke="none"
         id="path10" />
      <path
         d="M-6.15 23.4 L-3.2 23.2 -2.2 23.05 -0.85 12.75 -10.15 14.85 -11.1 17.25 Q-11.8 19.9 -11.05 21.65 -10.35 23.35 -6.15 23.4 Z"
         fill="none"
         stroke="#856301"
         stroke-linecap="round"
         stroke-linejoin="round"
         stroke-width="2.0"
         id="path11" />
      <path
         d="M5.85 23.35 L2.8 23.15 1.85 23.0 0.55 12.7 9.85 14.8 Q10.4 15.8 10.75 17.2 11.5 19.85 10.7 21.6 9.95 23.3 5.85 23.35"
         fill="#ffcc33"
         fill-rule="evenodd"
         stroke="none"
         id="path12" />
      <path
         d="M5.85 23.35 L2.8 23.15 1.85 23.0 0.55 12.7 9.85 14.8 Q10.4 15.8 10.75 17.2 11.5 19.85 10.7 21.6 9.95 23.3 5.85 23.35 Z"
         fill="none"
         stroke="#856301"
         stroke-linecap="round"
         stroke-linejoin="round"
         stroke-width="2.0"
         id="path13" />
      <path
         d="M1.05 6.25 L-1.25 6.25 -3.1 23.85 2.85 23.85 1.05 6.25"
         fill="#000000"
         fill-rule="evenodd"
         stroke="none"
         id="path14" />
      <path
         d="M3.8 0.75 Q6.4 -4.35 6.4 -7.05 6.4 -20.0 -0.15 -20.0 -6.7 -20.0 -6.7 -7.05 -6.7 -4.35 -4.15 0.75 -1.5 5.95 -0.15 5.95 1.15 5.95 3.8 0.75"
         fill="#333333"
         fill-rule="evenodd"
         stroke="none"
         id="path15" />
      <path
         d="M3.8 0.75 Q6.4 -4.35 6.4 -7.05 6.4 -20.0 -0.15 -20.0 -6.7 -20.0 -6.7 -7.05 -6.7 -4.35 -4.15 0.75 -1.5 5.95 -0.15 5.95 1.15 5.95 3.8 0.75 Z"
         fill="none"
         stroke="#000000"
         stroke-linecap="round"
         stroke-linejoin="round"
         stroke-width="2.0"
         id="path16" />
      <path
         d="M-4.25 -9.8 L2.85 -9.8 -0.8 -32.4 -4.25 -9.8"
         fill="#000000"
         fill-rule="evenodd"
         stroke="none"
         id="path17" />
      <path
         d="M-6.15 23.4 L-3.2 23.2 -2.2 23.05 -0.85 12.75 -10.15 14.85 -11.1 17.25 Q-11.8 19.9 -11.05 21.65 -10.35 23.35 -6.15 23.4"
         fill="#ffcc33"
         fill-rule="evenodd"
         stroke="none"
         id="path18" />
      <path
         d="M-6.15 23.4 L-3.2 23.2 -2.2 23.05 -0.85 12.75 -10.15 14.85 -11.1 17.25 Q-11.8 19.9 -11.05 21.65 -10.35 23.35 -6.15 23.4 Z"
         fill="none"
         stroke="#856301"
         stroke-linecap="round"
         stroke-linejoin="round"
         stroke-width="2.0"
         id="path19" />
      <path
         d="M5.85 23.35 L2.8 23.15 1.85 23.0 0.55 12.7 9.85 14.8 Q10.4 15.8 10.75 17.2 11.5 19.85 10.7 21.6 9.95 23.3 5.85 23.35"
         fill="#ffcc33"
         fill-rule="evenodd"
         stroke="none"
         id="path20" />
      <path
         d="M5.85 23.35 L2.8 23.15 1.85 23.0 0.55 12.7 9.85 14.8 Q10.4 15.8 10.75 17.2 11.5 19.85 10.7 21.6 9.95 23.3 5.85 23.35 Z"
         fill="none"
         stroke="#856301"
         stroke-linecap="round"
         stroke-linejoin="round"
         stroke-width="2.0"
         id="path21" />
      <path
         d="M1.05 6.25 L-1.25 6.25 -3.1 23.85 2.85 23.85 1.05 6.25"
         fill="#000000"
         fill-rule="evenodd"
         stroke="none"
         id="path22" />
      <path
         d="M3.8 0.75 Q6.4 -4.35 6.4 -7.05 6.4 -20.0 -0.15 -20.0 -6.7 -20.0 -6.7 -7.05 -6.7 -4.35 -4.15 0.75 -1.5 5.95 -0.15 5.95 1.15 5.95 3.8 0.75"
         fill="#333333"
         fill-rule="evenodd"
         stroke="none"
         id="path23" />
      <path
         d="M3.8 0.75 Q6.4 -4.35 6.4 -7.05 6.4 -20.0 -0.15 -20.0 -6.7 -20.0 -6.7 -7.05 -6.7 -4.35 -4.15 0.75 -1.5 5.95 -0.15 5.95 1.15 5.95 3.8 0.75 Z"
         fill="none"
         stroke="#000000"
         stroke-linecap="round"
         stroke-linejoin="round"
         stroke-width="2.0"
         id="path24" />
      <path
         d="M-4.25 -9.8 L2.85 -9.8 -0.8 -32.4 -4.25 -9.8"
         fill="#000000"
         fill-rule="evenodd"
         stroke="none"
         id="path25" />
      <path
         d="M-6.15 23.4 L-3.2 23.2 -2.2 23.05 -0.85 12.75 -10.15 14.85 -11.1 17.25 Q-11.8 19.9 -11.05 21.65 -10.35 23.35 -6.15 23.4"
         fill="#ffcc33"
         fill-rule="evenodd"
         stroke="none"
         id="path26" />
      <path
         d="M-6.15 23.4 L-3.2 23.2 -2.2 23.05 -0.85 12.75 -10.15 14.85 -11.1 17.25 Q-11.8 19.9 -11.05 21.65 -10.35 23.35 -6.15 23.4 Z"
         fill="none"
         stroke="#856301"
         stroke-linecap="round"
         stroke-linejoin="round"
         stroke-width="2.0"
         id="path27" />
      <path
         d="M5.85 23.35 L2.8 23.15 1.85 23.0 0.55 12.7 9.85 14.8 Q10.4 15.8 10.75 17.2 11.5 19.85 10.7 21.6 9.95 23.3 5.85 23.35"
         fill="#ffcc33"
         fill-rule="evenodd"
         stroke="none"
         id="path28" />
      <path
         d="M5.85 23.35 L2.8 23.15 1.85 23.0 0.55 12.7 9.85 14.8 Q10.4 15.8 10.75 17.2 11.5 19.85 10.7 21.6 9.95 23.3 5.85 23.35 Z"
         fill="none"
         stroke="#856301"
         stroke-linecap="round"
         stroke-linejoin="round"
         stroke-width="2.0"
         id="path29" />
      <path
         d="M1.05 6.25 L-1.25 6.25 -3.1 23.85 2.85 23.85 1.05 6.25"
         fill="#000000"
         fill-rule="evenodd"
         stroke="none"
         id="path30" />
      <path
         d="M3.8 0.75 Q6.4 -4.35 6.4 -7.05 6.4 -20.0 -0.15 -20.0 -6.7 -20.0 -6.7 -7.05 -6.7 -4.35 -4.15 0.75 -1.5 5.95 -0.15 5.95 1.15 5.95 3.8 0.75"
         fill="#333333"
         fill-rule="evenodd"
         stroke="none"
         id="path31" />
      <path
         d="M3.8 0.75 Q6.4 -4.35 6.4 -7.05 6.4 -20.0 -0.15 -20.0 -6.7 -20.0 -6.7 -7.05 -6.7 -4.35 -4.15 0.75 -1.5 5.95 -0.15 5.95 1.15 5.95 3.8 0.75 Z"
         fill="none"
         stroke="#000000"
         stroke-linecap="round"
         stroke-linejoin="round"
         stroke-width="2.0"
         id="path32" />
      <path
         d="M-4.25 -9.8 L2.85 -9.8 -0.8 -32.4 -4.25 -9.8"
         fill="#000000"
         fill-rule="evenodd"
         stroke="none"
         id="path33" />
      <path
         d="M-6.15 23.4 L-3.2 23.2 -2.2 23.05 -0.85 12.75 -10.15 14.85 -11.1 17.25 Q-11.8 19.9 -11.05 21.65 -10.35 23.35 -6.15 23.4"
         fill="#ffcc33"
         fill-rule="evenodd"
         stroke="none"
         id="path34" />
      <path
         d="M-6.15 23.4 L-3.2 23.2 -2.2 23.05 -0.85 12.75 -10.15 14.85 -11.1 17.25 Q-11.8 19.9 -11.05 21.65 -10.35 23.35 -6.15 23.4 Z"
         fill="none"
         stroke="#856301"
         stroke-linecap="round"
         stroke-linejoin="round"
         stroke-width="2.0"
         id="path35" />
      <path
         d="M5.85 23.35 L2.8 23.15 1.85 23.0 0.55 12.7 9.85 14.8 Q10.4 15.8 10.75 17.2 11.5 19.85 10.7 21.6 9.95 23.3 5.85 23.35"
         fill="#ffcc33"
         fill-rule="evenodd"
         stroke="none"
         id="path36" />
      <path
         d="M5.85 23.35 L2.8 23.15 1.85 23.0 0.55 12.7 9.85 14.8 Q10.4 15.8 10.75 17.2 11.5 19.85 10.7 21.6 9.95 23.3 5.85 23.35 Z"
         fill="none"
         stroke="#856301"
         stroke-linecap="round"
         stroke-linejoin="round"
         stroke-width="2.0"
         id="path37" />
      <path
         d="M1.05 6.25 L-1.25 6.25 -3.1 23.85 2.85 23.85 1.05 6.25"
         fill="#000000"
         fill-rule="evenodd"
         stroke="none"
         id="path38" />
      <path
         d="M3.8 0.75 Q6.4 -4.35 6.4 -7.05 6.4 -20.0 -0.15 -20.0 -6.7 -20.0 -6.7 -7.05 -6.7 -4.35 -4.15 0.75 -1.5 5.95 -0.15 5.95 1.15 5.95 3.8 0.75"
         fill="#333333"
         fill-rule="evenodd"
         stroke="none"
         id="path39" />
      <path
         d="M3.8 0.75 Q6.4 -4.35 6.4 -7.05 6.4 -20.0 -0.15 -20.0 -6.7 -20.0 -6.7 -7.05 -6.7 -4.35 -4.15 0.75 -1.5 5.95 -0.15 5.95 1.15 5.95 3.8 0.75 Z"
         fill="none"
         stroke="#000000"
         stroke-linecap="round"
         stroke-linejoin="round"
         stroke-width="2.0"
         id="path40" />
      <path
         d="M-4.25 -9.8 L2.85 -9.8 -0.8 -32.4 -4.25 -9.8"
         fill="#000000"
         fill-rule="evenodd"
         stroke="none"
         id="path41" />
      <path
         d="M-6.15 23.4 L-3.2 23.2 -2.2 23.05 -0.85 12.75 -10.15 14.85 -11.1 17.25 Q-11.8 19.9 -11.05 21.65 -10.35 23.35 -6.15 23.4"
         fill="#ffcc33"
         fill-rule="evenodd"
         stroke="none"
         id="path42" />
      <path
         d="M-6.15 23.4 L-3.2 23.2 -2.2 23.05 -0.85 12.75 -10.15 14.85 -11.1 17.25 Q-11.8 19.9 -11.05 21.65 -10.35 23.35 -6.15 23.4 Z"
         fill="none"
         stroke="#856301"
         stroke-linecap="round"
         stroke-linejoin="round"
         stroke-width="2.0"
         id="path43" />
      <path
         d="M5.85 23.35 L2.8 23.15 1.85 23.0 0.55 12.7 9.85 14.8 Q10.4 15.8 10.75 17.2 11.5 19.85 10.7 21.6 9.95 23.3 5.85 23.35"
         fill="#ffcc33"
         fill-rule="evenodd"
         stroke="none"
         id="path44" />
      <path
         d="M5.85 23.35 L2.8 23.15 1.85 23.0 0.55 12.7 9.85 14.8 Q10.4 15.8 10.75 17.2 11.5 19.85 10.7 21.6 9.95 23.3 5.85 23.35 Z"
         fill="none"
         stroke="#856301"
         stroke-linecap="round"
         stroke-linejoin="round"
         stroke-width="2.0"
         id="path45" />
      <path
         d="M1.05 6.25 L-1.25 6.25 -3.1 23.85 2.85 23.85 1.05 6.25"
         fill="#000000"
         fill-rule="evenodd"
         stroke="none"
         id="path46" />
      <path
         d="M3.8 0.75 Q6.4 -4.35 6.4 -7.05 6.4 -20.0 -0.15 -20.0 -6.7 -20.0 -6.7 -7.05 -6.7 -4.35 -4.15 0.75 -1.5 5.95 -0.15 5.95 1.15 5.95 3.8 0.75"
         fill="#333333"
         fill-rule="evenodd"
         stroke="none"
         id="path47" />
      <path
         d="M3.8 0.75 Q6.4 -4.35 6.4 -7.05 6.4 -20.0 -0.15 -20.0 -6.7 -20.0 -6.7 -7.05 -6.7 -4.35 -4.15 0.75 -1.5 5.95 -0.15 5.95 1.15 5.95 3.8 0.75 Z"
         fill="none"
         stroke="#000000"
         stroke-linecap="round"
         stroke-linejoin="round"
         stroke-width="2.0"
         id="path48" />
      <path
         d="M-4.25 -9.8 L2.85 -9.8 -0.8 -32.4 -4.25 -9.8"
         fill="#000000"
         fill-rule="evenodd"
         stroke="none"
         id="path49" />
      <path
         d="M-6.15 23.4 L-3.2 23.2 -2.2 23.05 -0.85 12.75 -10.15 14.85 -11.1 17.25 Q-11.8 19.9 -11.05 21.65 -10.35 23.35 -6.15 23.4"
         fill="#ffcc33"
         fill-rule="evenodd"
         stroke="none"
         id="path50" />
      <path
         d="M-6.15 23.4 L-3.2 23.2 -2.2 23.05 -0.85 12.75 -10.15 14.85 -11.1 17.25 Q-11.8 19.9 -11.05 21.65 -10.35 23.35 -6.15 23.4 Z"
         fill="none"
         stroke="#856301"
         stroke-linecap="round"
         stroke-linejoin="round"
         stroke-width="2.0"
         id="path51" />
      <path
         d="M5.85 23.35 L2.8 23.15 1.85 23.0 0.55 12.7 9.85 14.8 Q10.4 15.8 10.75 17.2 11.5 19.85 10.7 21.6 9.95 23.3 5.85 23.35"
         fill="#ffcc33"
         fill-rule="evenodd"
         stroke="none"
         id="path52" />
      <path
         d="M5.85 23.35 L2.8 23.15 1.85 23.0 0.55 12.7 9.85 14.8 Q10.4 15.8 10.75 17.2 11.5 19.85 10.7 21.6 9.95 23.3 5.85 23.35 Z"
         fill="none"
         stroke="#856301"
         stroke-linecap="round"
         stroke-linejoin="round"
         stroke-width="2.0"
         id="path53" />
      <path
         d="M1.05 6.25 L-1.25 6.25 -3.1 23.85 2.85 23.85 1.05 6.25"
         fill="#000000"
         fill-rule="evenodd"
         stroke="none"
         id="path54" />
      <path
         d="M3.8 0.75 Q6.4 -4.35 6.4 -7.05 6.4 -20.0 -0.15 -20.0 -6.7 -20.0 -6.7 -7.05 -6.7 -4.35 -4.15 0.75 -1.5 5.95 -0.15 5.95 1.15 5.95 3.8 0.75"
         fill="#333333"
         fill-rule="evenodd"
         stroke="none"
         id="path55" />
      <path
         d="M3.8 0.75 Q6.4 -4.35 6.4 -7.05 6.4 -20.0 -0.15 -20.0 -6.7 -20.0 -6.7 -7.05 -6.7 -4.35 -4.15 0.75 -1.5 5.95 -0.15 5.95 1.15 5.95 3.8 0.75 Z"
         fill="none"
         stroke="#000000"
         stroke-linecap="round"
         stroke-linejoin="round"
         stroke-width="2.0"
         id="path56" />
      <path
         d="M-4.25 -9.8 L2.85 -9.8 -0.8 -32.4 -4.25 -9.8"
         fill="#000000"
         fill-rule="evenodd"
         stroke="none"
         id="path57" />
      <path
         d="M-6.15 23.4 L-3.2 23.2 -2.2 23.05 -0.85 12.75 -10.15 14.85 -11.1 17.25 Q-11.8 19.9 -11.05 21.65 -10.35 23.35 -6.15 23.4"
         fill="#ffcc33"
         fill-rule="evenodd"
         stroke="none"
         id="path58" />
      <path
         d="M-6.15 23.4 L-3.2 23.2 -2.2 23.05 -0.85 12.75 -10.15 14.85 -11.1 17.25 Q-11.8 19.9 -11.05 21.65 -10.35 23.35 -6.15 23.4 Z"
         fill="none"
         stroke="#856301"
         stroke-linecap="round"
         stroke-linejoin="round"
         stroke-width="2.0"
         id="path59" />
      <path
         d="M5.85 23.35 L2.8 23.15 1.85 23.0 0.55 12.7 9.85 14.8 Q10.4 15.8 10.75 17.2 11.5 19.85 10.7 21.6 9.95 23.3 5.85 23.35"
         fill="#ffcc33"
         fill-rule="evenodd"
         stroke="none"
         id="path60" />
      <path
         d="M5.85 23.35 L2.8 23.15 1.85 23.0 0.55 12.7 9.85 14.8 Q10.4 15.8 10.75 17.2 11.5 19.85 10.7 21.6 9.95 23.3 5.85 23.35 Z"
         fill="none"
         stroke="#856301"
         stroke-linecap="round"
         stroke-linejoin="round"
         stroke-width="2.0"
         id="path61" />
      <path
         d="M1.05 6.25 L-1.25 6.25 -3.1 23.85 2.85 23.85 1.05 6.25"
         fill="#000000"
         fill-rule="evenodd"
         stroke="none"
         id="path62" />
      <path
         d="M3.8 0.75 Q6.4 -4.35 6.4 -7.05 6.4 -20.0 -0.15 -20.0 -6.7 -20.0 -6.7 -7.05 -6.7 -4.35 -4.15 0.75 -1.5 5.95 -0.15 5.95 1.15 5.95 3.8 0.75"
         fill="#333333"
         fill-rule="evenodd"
         stroke="none"
         id="path63" />
      <path
         d="M3.8 0.75 Q6.4 -4.35 6.4 -7.05 6.4 -20.0 -0.15 -20.0 -6.7 -20.0 -6.7 -7.05 -6.7 -4.35 -4.15 0.75 -1.5 5.95 -0.15 5.95 1.15 5.95 3.8 0.75 Z"
         fill="none"
         stroke="#000000"
         stroke-linecap="round"
         stroke-linejoin="round"
         stroke-width="2.0"
         id="path64" />
    </g>
  </defs>
</svg>
