<?xml version="1.0" encoding="UTF-8" standalone="no"?>
<svg
   ffdec:objectType="frame"
   height="47.65px"
   width="49.9px"
   version="1.1"
   id="svg29"
   sodipodi:docname="1.svg"
   inkscape:version="1.4.2 (f4327f4, 2025-05-13)"
   xmlns:inkscape="http://www.inkscape.org/namespaces/inkscape"
   xmlns:sodipodi="http://sodipodi.sourceforge.net/DTD/sodipodi-0.dtd"
   xmlns:xlink="http://www.w3.org/1999/xlink"
   xmlns="http://www.w3.org/2000/svg"
   xmlns:svg="http://www.w3.org/2000/svg"
   xmlns:ffdec="https://www.free-decompiler.com/flash">
  <sodipodi:namedview
     id="namedview29"
     pagecolor="#505050"
     bordercolor="#eeeeee"
     borderopacity="1"
     inkscape:showpageshadow="0"
     inkscape:pageopacity="0"
     inkscape:pagecheckerboard="0"
     inkscape:deskcolor="#505050"
     inkscape:zoom="17.317809"
     inkscape:cx="32.192295"
     inkscape:cy="26.879844"
     inkscape:window-width="2560"
     inkscape:window-height="1369"
     inkscape:window-x="-8"
     inkscape:window-y="-8"
     inkscape:window-maximized="1"
     inkscape:current-layer="g5" />
  <g
     transform="matrix(1.0, 0.0, 0.0, 1.0, 1.8, 1.6)"
     id="g5">
    <filter
       id="filter0"
       x="-0.016467954"
       y="-0.014764197"
       width="1.0492388"
       height="1.0498684">
      <feOffset
         dx="1.41423199166404"
         dy="1.4141951328419862"
         in="SourceGraphic"
         result="filterResult0"
         id="feOffset1" />
      <feColorMatrix
         in="filterResult0"
         result="filterResult1"
         type="matrix"
         values="0 0 0 0 0.0,0 0 0 0 0.0,0 0 0 0 0.0,0 0 0 1 0"
         id="feColorMatrix1" />
      <feColorMatrix
         in="filterResult1"
         result="filterResult2"
         type="matrix"
         values="1 0 0 0 0,0 1 0 0 0,0 0 1 0 0,0 0 0 0.19921875 0"
         id="feColorMatrix2" />
      <feComposite
         in="SourceGraphic"
         in2="filterResult2"
         operator="over"
         result="filterResult3"
         id="feComposite2" />
    </filter>
    <g
       id="use2"
       transform="matrix(-0.35,0,0,-0.35,21.8996,19.8495)"
       style="filter:url(#filter0)">
      <g
         id="use31"
         transform="matrix(0.3304,0,0,0.3304,-34.50056,-9.25114)">
        <path
           d="m -17.6,-25.6 v 47.2 h -20 v -47.2 h 20"
           fill="#7b5930"
           fill-rule="evenodd"
           stroke="none"
           id="path33" />
        <path
           d="m -17.6,-25.6 v 47.2 h -20 v -47.2 z"
           ffdec:has-small-stroke="true"
           ffdec:original-stroke-width="6.0"
           fill="none"
           stroke="#412709"
           stroke-linecap="round"
           stroke-linejoin="round"
           stroke-width="8.64739"
           id="path34" />
        <path
           d="m 0.5,-81.65 q 10,0.25 14,4.25 1.8,1.85 3.15,25.15 1.3,21.8 1.5,50.8 0.25,30.35 -0.85,51.3 -1.25,23.8 -3.8,26.35 -5.5,5.5 -14.65,5.5 -9.1,0 -14.15,-5.5 -2.4,-2.6 -3.75,-26.2 -1.2,-21.25 -1.15,-51 0.1,-29.45 1.3,-50.8 1.35,-23.35 3.6,-25.6 4.45,-4.5 14.8,-4.25"
           fill="#7b5930"
           fill-rule="evenodd"
           stroke="none"
           id="path35" />
        <path
           d="m 7.05,-80.95 q 4.9,1 7.45,3.55 1.8,1.85 3.15,25.15 1.3,21.8 1.5,50.8 Q 19.4,28.9 18.3,49.85 17.05,73.65 14.5,76.2 11.4,79.3 7.15,80.7 2.95,79.3 0.1,76.2 -2.3,73.6 -3.65,50 -4.85,28.75 -4.8,-1 q 0.1,-29.45 1.3,-50.8 1.35,-23.35 3.6,-25.6 2.5,-2.55 6.95,-3.55"
           fill="#4a361c"
           fill-rule="evenodd"
           stroke="none"
           id="path36" />
        <path
           d="m -14.3,-77.4 q -2.25,2.25 -3.6,25.6 -1.2,21.35 -1.3,50.8 -0.05,29.75 1.15,51 1.35,23.6 3.75,26.2 5.05,5.5 14.15,5.5 9.15,0 14.65,-5.5 2.55,-2.55 3.8,-26.35 1.1,-20.95 0.85,-51.3 -0.2,-29 -1.5,-50.8 -1.35,-23.3 -3.15,-25.15 -4,-4 -14,-4.25 -10.35,-0.25 -14.8,4.25 z"
           ffdec:has-small-stroke="true"
           ffdec:original-stroke-width="6.0"
           fill="none"
           stroke="#412709"
           stroke-linecap="round"
           stroke-linejoin="round"
           stroke-width="8.64739"
           id="path37" />
      </g>
      <g
         id="use32"
         transform="matrix(-0.3304,0,0,0.3304,27.40056,-9.25114)">
        <path
           d="m -17.6,-25.6 v 47.2 h -20 v -47.2 h 20"
           fill="#7b5930"
           fill-rule="evenodd"
           stroke="none"
           id="path38" />
        <path
           d="m -17.6,-25.6 v 47.2 h -20 v -47.2 z"
           ffdec:has-small-stroke="true"
           ffdec:original-stroke-width="6.0"
           fill="none"
           stroke="#412709"
           stroke-linecap="round"
           stroke-linejoin="round"
           stroke-width="8.64739"
           id="path39" />
        <path
           d="m 0.5,-81.65 q 10,0.25 14,4.25 1.8,1.85 3.15,25.15 1.3,21.8 1.5,50.8 0.25,30.35 -0.85,51.3 -1.25,23.8 -3.8,26.35 -5.5,5.5 -14.65,5.5 -9.1,0 -14.15,-5.5 -2.4,-2.6 -3.75,-26.2 -1.2,-21.25 -1.15,-51 0.1,-29.45 1.3,-50.8 1.35,-23.35 3.6,-25.6 4.45,-4.5 14.8,-4.25"
           fill="#7b5930"
           fill-rule="evenodd"
           stroke="none"
           id="path40" />
        <path
           d="m 7.05,-80.95 q 4.9,1 7.45,3.55 1.8,1.85 3.15,25.15 1.3,21.8 1.5,50.8 Q 19.4,28.9 18.3,49.85 17.05,73.65 14.5,76.2 11.4,79.3 7.15,80.7 2.95,79.3 0.1,76.2 -2.3,73.6 -3.65,50 -4.85,28.75 -4.8,-1 q 0.1,-29.45 1.3,-50.8 1.35,-23.35 3.6,-25.6 2.5,-2.55 6.95,-3.55"
           fill="#4a361c"
           fill-rule="evenodd"
           stroke="none"
           id="path41" />
        <path
           d="m -14.3,-77.4 q -2.25,2.25 -3.6,25.6 -1.2,21.35 -1.3,50.8 -0.05,29.75 1.15,51 1.35,23.6 3.75,26.2 5.05,5.5 14.15,5.5 9.15,0 14.65,-5.5 2.55,-2.55 3.8,-26.35 1.1,-20.95 0.85,-51.3 -0.2,-29 -1.5,-50.8 -1.35,-23.3 -3.15,-25.15 -4,-4 -14,-4.25 -10.35,-0.25 -14.8,4.25 z"
           ffdec:has-small-stroke="true"
           ffdec:original-stroke-width="6.0"
           fill="none"
           stroke="#412709"
           stroke-linecap="round"
           stroke-linejoin="round"
           stroke-width="8.64739"
           id="path42" />
      </g>
      <g
         id="use33"
         transform="matrix(0.3304,0,0,0.3304,-3.75112,-9.25206)">
        <path
           d="m 13.7,-130.15 q 0,6.7 -4.75,11.45 -2.2,2.2 -4.85,3.4 v 24.15 h -14.4 v -24.75 q -1.95,-1.1 -3.65,-2.8 -4.75,-4.75 -4.75,-11.45 0,-6.7 4.75,-11.45 4.75,-4.75 11.45,-4.75 6.7,0 11.45,4.75 4.75,4.75 4.75,11.45"
           fill="#0f1015"
           fill-rule="evenodd"
           stroke="none"
           id="path43" />
        <path
           d="m 13.7,-130.15 q 0,6.7 -4.75,11.45 -2.2,2.2 -4.85,3.4 v 24.15 h -14.4 v -24.75 q -1.95,-1.1 -3.65,-2.8 -4.75,-4.75 -4.75,-11.45 0,-6.7 4.75,-11.45 4.75,-4.75 11.45,-4.75 6.7,0 11.45,4.75 4.75,4.75 4.75,11.45 z"
           ffdec:has-small-stroke="true"
           ffdec:original-stroke-width="5.0"
           fill="none"
           stroke="#000000"
           stroke-linecap="round"
           stroke-linejoin="round"
           stroke-width="8.64739"
           id="path44" />
        <path
           d="m -48.1,103.55 q -4.3,-10.45 -8.95,-23.9 -13.8,-40.05 -18.1,-73.4 -6,-46.75 7.95,-73.45 17.4,-33.35 65.2,-33.35 47.8,0 66.75,33.35 15.2,26.7 11.4,73.45 Q 73.4,39.6 61.4,79.65 57.25,93.6 53.35,104.3 59,110.15 59,117.2 q 0,12.15 -16.65,20.65 -16.6,8.65 -40.1,8.65 -23.55,0 -40.15,-8.65 -16.6,-8.5 -16.6,-20.65 0,-7.5 6.4,-13.65 l 4.05,9.45 2.2,1.55 q 3.15,1.85 7.6,3.4 14.35,4.95 37,4.95 22.65,0 37.2,-4.95 Q 47.25,115.5 50,113 L 53.35,104.3 50,113 q -2.75,2.5 -10.05,4.95 -14.55,4.95 -37.2,4.95 -22.65,0 -37,-4.95 -4.45,-1.55 -7.6,-3.4 l -2.2,-1.55 -4.05,-9.45"
           fill="#000000"
           fill-rule="evenodd"
           stroke="none"
           id="path45" />
        <path
           d="m -48.1,103.55 q -4.3,-10.45 -8.95,-23.9 -13.8,-40.05 -18.1,-73.4 -6,-46.75 7.95,-73.45 17.4,-33.35 65.2,-33.35 47.8,0 66.75,33.35 15.2,26.7 11.4,73.45 Q 73.4,39.6 61.4,79.65 57.25,93.6 53.35,104.3 59,110.15 59,117.2 q 0,12.15 -16.65,20.65 -16.6,8.65 -40.1,8.65 -23.55,0 -40.15,-8.65 -16.6,-8.5 -16.6,-20.65 0,-7.5 6.4,-13.65 l 4.05,9.45 2.2,1.55 q 3.15,1.85 7.6,3.4 14.35,4.95 37,4.95 22.65,0 37.2,-4.95 Q 47.25,115.5 50,113 l 3.35,-8.7"
           fill="none"
           stroke="#000000"
           stroke-linecap="round"
           stroke-linejoin="round"
           stroke-width="12"
           id="path46" />
        <path
           d="m -54.5,117.2 q 0,-12.1 16.6,-20.7 16.6,-8.55 40.15,-8.55 23.5,0 40.1,8.55 16.65,8.6 16.65,20.7 0,12.15 -16.65,20.65 -16.6,8.65 -40.1,8.65 -23.55,0 -40.15,-8.65 -16.6,-8.5 -16.6,-20.65"
           fill="#0f1015"
           fill-rule="evenodd"
           stroke="none"
           id="path47" />
        <path
           d="m -37.9,96.5 q 16.6,-8.55 40.15,-8.55 h 0.9 Q -12,100.95 -12,118.9 l 0.05,1.6 -5.9,3.5 q -8.65,5.95 -8.65,11.25 0,4.2 5.3,8.75 -9.1,-2.2 -16.7,-6.15 -16.6,-8.5 -16.6,-20.65 0,-12.1 16.6,-20.7"
           fill="#7e7f8c"
           fill-rule="evenodd"
           stroke="none"
           id="path48" />
        <path
           d="m -37.9,96.5 q 4.25,-2.2 9,-3.8 -7.1,9.95 -7.1,22.2 l 0.05,1.6 -5.9,3.5 q -6.7,4.6 -8.2,8.8 -4.45,-5.3 -4.45,-11.6 0,-12.1 16.6,-20.7"
           fill="#1a1c23"
           fill-rule="evenodd"
           stroke="none"
           id="path49" />
        <path
           d="m 59.7,110.6 q -3.8,7.45 -15.6,13.25 -17.3,8.65 -41.85,8.65 -24.55,0 -41.9,-8.65 -11.75,-5.8 -15.55,-13.25 3.8,-7.45 15.55,-13.3 17.35,-8.55 41.9,-8.55 24.55,0 41.85,8.55 11.8,5.85 15.6,13.3"
           fill="#000000"
           fill-rule="evenodd"
           stroke="none"
           id="path50" />
        <path
           d="m -2,-100.55 q 47.8,0 66.75,33.35 15.2,26.7 11.4,73.45 Q 73.4,39.6 61.4,79.65 55.45,99.65 50,113 q -2.75,2.5 -10.05,4.95 -14.55,4.95 -37.2,4.95 -22.65,0 -37,-4.95 -4.45,-1.55 -7.6,-3.4 l -2.2,-1.55 q -6.05,-13.35 -13,-33.35 -13.8,-40.05 -18.1,-73.4 -6,-46.75 7.95,-73.45 17.4,-33.35 65.2,-33.35"
           fill="#0f1015"
           fill-rule="evenodd"
           stroke="none"
           id="path51" />
        <path
           d="m 5.6,-100.3 q -25.85,8.15 -37.65,33.6 -13.95,29.95 -7.95,82.45 4.3,37.45 18.1,82.45 4.1,13.25 7.9,23.9 -11.65,-1.2 -20.25,-4.15 -4.45,-1.55 -7.6,-3.4 l -2.2,-1.55 q -6.05,-13.35 -13,-33.35 -13.8,-40.05 -18.1,-73.4 -6,-46.75 7.95,-73.45 17.4,-33.35 65.2,-33.35 l 7.6,0.25"
           fill="#7e7f8c"
           fill-rule="evenodd"
           stroke="none"
           id="path52" />
        <path
           d="m 4.65,-100.35 q -42.6,2.3 -58.8,36.25 -13.95,29.2 -7.95,80.3 4.3,36.4 18.1,80.2 3.55,11.2 6.9,20.45 l -4.75,-2.3 -2.2,-1.55 q -6.05,-13.35 -13,-33.35 -13.8,-40.05 -18.1,-73.4 -6,-46.75 7.95,-73.45 17.4,-33.35 65.2,-33.35 l 6.65,0.2"
           fill="#1a1c23"
           fill-rule="evenodd"
           stroke="none"
           id="path53" />
      </g>
    </g>
    <filter
       id="filter1"
       x="0"
       y="0"
       width="1"
       height="1">
      <feColorMatrix
         in="SourceGraphic"
         result="filterResult4"
         type="matrix"
         values="0 0 0 0 0.2,0 0 0 0 0.2,0 0 0 0 0.2,0 0 0 1 0"
         id="feColorMatrix3" />
      <feConvolveMatrix
         divisor="9.0"
         in="filterResult4"
         kernelMatrix="1 1 1 1 1 1 1 1 1"
         order="3 3"
         result="filterResult5"
         id="feConvolveMatrix3" />
      <feConvolveMatrix
         divisor="9.0"
         in="filterResult5"
         kernelMatrix="1 1 1 1 1 1 1 1 1"
         order="3 3"
         result="filterResult6"
         id="feConvolveMatrix4" />
      <feConvolveMatrix
         divisor="9.0"
         in="filterResult6"
         kernelMatrix="1 1 1 1 1 1 1 1 1"
         order="3 3"
         result="filterResult7"
         id="feConvolveMatrix5" />
      <feComposite
         in="SourceGraphic"
         in2="filterResult7"
         operator="over"
         result="filterResult8"
         id="feComposite5" />
    </filter>
  </g>
  <defs
     id="defs29">
    <g
       id="shape0"
       transform="matrix(1.0, 0.0, 0.0, 1.0, 1.25, 1.05)">
      <path
         d="M42.55 43.05 L1.45 44.5 -0.25 0.0 46.45 3.0 42.55 43.05"
         fill="#ffffff"
         fill-opacity="0.49803922"
         fill-rule="evenodd"
         stroke="none"
         id="path5" />
      <path
         d="M42.55 43.05 L1.45 44.5 -0.25 0.0 46.45 3.0 42.55 43.05 Z"
         fill="none"
         stroke="#000000"
         stroke-linecap="butt"
         stroke-linejoin="miter-clip"
         stroke-miterlimit="3.0"
         stroke-opacity="0.49803922"
         stroke-width="2.0"
         id="path6" />
    </g>
    <g
       id="sprite0"
       transform="matrix(1.0, 0.0, 0.0, 1.0, 47.9, 58.45)">
      <use
         ffdec:characterId="5160"
         height="169.35"
         transform="matrix(0.3304, 0.0, 0.0, 0.3304, -47.9148, -37.2195)"
         width="62.8"
         xlink:href="#shape1"
         id="use6" />
      <use
         ffdec:characterId="5160"
         height="169.35"
         transform="matrix(-0.3304, 0.0, 0.0, 0.3304, 40.8148, -37.2195)"
         width="62.8"
         xlink:href="#shape2"
         id="use7" />
      <use
         ffdec:characterId="5119"
         height="301.35"
         transform="matrix(0.3304, 0.0, 0.0, 0.3304, -31.1578, -58.4321)"
         width="165.85"
         xlink:href="#shape3"
         id="use8" />
    </g>
    <g
       id="shape1"
       transform="matrix(1.0, 0.0, 0.0, 1.0, 40.6, 84.65)">
      <path
         d="M-17.6 -25.6 L-17.6 21.6 -37.6 21.6 -37.6 -25.6 -17.6 -25.6"
         fill="#7b5930"
         fill-rule="evenodd"
         stroke="none"
         id="path8" />
      <path
         d="M-17.6 -25.6 L-17.6 21.6 -37.6 21.6 -37.6 -25.6 -17.6 -25.6 Z"
         ffdec:has-small-stroke="true"
         ffdec:original-stroke-width="6.0"
         fill="none"
         stroke="#412709"
         stroke-linecap="round"
         stroke-linejoin="round"
         stroke-width="8.64739135370009"
         id="path9" />
      <path
         d="M0.5 -81.65 Q10.5 -81.4 14.5 -77.4 16.3 -75.55 17.65 -52.25 18.95 -30.45 19.15 -1.45 19.4 28.9 18.3 49.85 17.05 73.65 14.5 76.2 9.0 81.7 -0.15 81.7 -9.25 81.7 -14.3 76.2 -16.7 73.6 -18.05 50.0 -19.25 28.75 -19.2 -1.0 -19.1 -30.45 -17.9 -51.8 -16.55 -75.15 -14.3 -77.4 -9.85 -81.9 0.5 -81.65"
         fill="#7b5930"
         fill-rule="evenodd"
         stroke="none"
         id="path10" />
      <path
         d="M7.05 -80.95 Q11.95 -79.95 14.5 -77.4 16.3 -75.55 17.65 -52.25 18.95 -30.45 19.15 -1.45 19.4 28.9 18.3 49.85 17.05 73.65 14.5 76.2 11.4 79.3 7.15 80.7 2.95 79.3 0.1 76.2 -2.3 73.6 -3.65 50.0 -4.85 28.75 -4.8 -1.0 -4.7 -30.45 -3.5 -51.8 -2.15 -75.15 0.1 -77.4 2.6 -79.95 7.05 -80.95"
         fill="#4a361c"
         fill-rule="evenodd"
         stroke="none"
         id="path11" />
      <path
         d="M-14.3 -77.4 Q-16.55 -75.15 -17.9 -51.8 -19.1 -30.45 -19.2 -1.0 -19.25 28.75 -18.05 50.0 -16.7 73.6 -14.3 76.2 -9.25 81.7 -0.15 81.7 9.0 81.7 14.5 76.2 17.05 73.65 18.3 49.85 19.4 28.9 19.15 -1.45 18.95 -30.45 17.65 -52.25 16.3 -75.55 14.5 -77.4 10.5 -81.4 0.5 -81.65 -9.85 -81.9 -14.3 -77.4 Z"
         ffdec:has-small-stroke="true"
         ffdec:original-stroke-width="6.0"
         fill="none"
         stroke="#412709"
         stroke-linecap="round"
         stroke-linejoin="round"
         stroke-width="8.64739135370009"
         id="path12" />
    </g>
    <g
       id="shape2"
       transform="matrix(1.0, 0.0, 0.0, 1.0, 40.6, 84.65)">
      <path
         d="M-17.6 -25.6 L-17.6 21.6 -37.6 21.6 -37.6 -25.6 -17.6 -25.6"
         fill="#7b5930"
         fill-rule="evenodd"
         stroke="none"
         id="path13" />
      <path
         d="M-17.6 -25.6 L-17.6 21.6 -37.6 21.6 -37.6 -25.6 -17.6 -25.6 Z"
         ffdec:has-small-stroke="true"
         ffdec:original-stroke-width="6.0"
         fill="none"
         stroke="#412709"
         stroke-linecap="round"
         stroke-linejoin="round"
         stroke-width="8.64739135370009"
         id="path14" />
      <path
         d="M0.5 -81.65 Q10.5 -81.4 14.5 -77.4 16.3 -75.55 17.65 -52.25 18.95 -30.45 19.15 -1.45 19.4 28.9 18.3 49.85 17.05 73.65 14.5 76.2 9.0 81.7 -0.15 81.7 -9.25 81.7 -14.3 76.2 -16.7 73.6 -18.05 50.0 -19.25 28.75 -19.2 -1.0 -19.1 -30.45 -17.9 -51.8 -16.55 -75.15 -14.3 -77.4 -9.85 -81.9 0.5 -81.65"
         fill="#7b5930"
         fill-rule="evenodd"
         stroke="none"
         id="path15" />
      <path
         d="M7.05 -80.95 Q11.95 -79.95 14.5 -77.4 16.3 -75.55 17.65 -52.25 18.95 -30.45 19.15 -1.45 19.4 28.9 18.3 49.85 17.05 73.65 14.5 76.2 11.4 79.3 7.15 80.7 2.95 79.3 0.1 76.2 -2.3 73.6 -3.65 50.0 -4.85 28.75 -4.8 -1.0 -4.7 -30.45 -3.5 -51.8 -2.15 -75.15 0.1 -77.4 2.6 -79.95 7.05 -80.95"
         fill="#4a361c"
         fill-rule="evenodd"
         stroke="none"
         id="path16" />
      <path
         d="M-14.3 -77.4 Q-16.55 -75.15 -17.9 -51.8 -19.1 -30.45 -19.2 -1.0 -19.25 28.75 -18.05 50.0 -16.7 73.6 -14.3 76.2 -9.25 81.7 -0.15 81.7 9.0 81.7 14.5 76.2 17.05 73.65 18.3 49.85 19.4 28.9 19.15 -1.45 18.95 -30.45 17.65 -52.25 16.3 -75.55 14.5 -77.4 10.5 -81.4 0.5 -81.65 -9.85 -81.9 -14.3 -77.4 Z"
         ffdec:has-small-stroke="true"
         ffdec:original-stroke-width="6.0"
         fill="none"
         stroke="#412709"
         stroke-linecap="round"
         stroke-linejoin="round"
         stroke-width="8.64739135370009"
         id="path17" />
    </g>
    <g
       id="shape3"
       transform="matrix(1.0, 0.0, 0.0, 1.0, 82.95, 148.85)">
      <path
         d="M13.7 -130.15 Q13.7 -123.45 8.95 -118.7 6.75 -116.5 4.1 -115.3 L4.1 -91.15 -10.3 -91.15 -10.3 -115.9 Q-12.25 -117.0 -13.95 -118.7 -18.7 -123.45 -18.7 -130.15 -18.7 -136.85 -13.95 -141.6 -9.2 -146.35 -2.5 -146.35 4.2 -146.35 8.95 -141.6 13.7 -136.85 13.7 -130.15"
         fill="#0f1015"
         fill-rule="evenodd"
         stroke="none"
         id="path18" />
      <path
         d="M13.7 -130.15 Q13.7 -123.45 8.95 -118.7 6.75 -116.5 4.1 -115.3 L4.1 -91.15 -10.3 -91.15 -10.3 -115.9 Q-12.25 -117.0 -13.95 -118.7 -18.7 -123.45 -18.7 -130.15 -18.7 -136.85 -13.95 -141.6 -9.2 -146.35 -2.5 -146.35 4.2 -146.35 8.95 -141.6 13.7 -136.85 13.7 -130.15 Z"
         ffdec:has-small-stroke="true"
         ffdec:original-stroke-width="5.0"
         fill="none"
         stroke="#000000"
         stroke-linecap="round"
         stroke-linejoin="round"
         stroke-width="8.64739135370009"
         id="path19" />
      <path
         d="M-48.1 103.55 Q-52.4 93.1 -57.05 79.65 -70.85 39.6 -75.15 6.25 -81.15 -40.5 -67.2 -67.2 -49.8 -100.55 -2.0 -100.55 45.8 -100.55 64.75 -67.2 79.95 -40.5 76.15 6.25 73.4 39.6 61.4 79.65 57.25 93.6 53.35 104.3 59.0 110.15 59.0 117.2 59.0 129.35 42.35 137.85 25.75 146.5 2.25 146.5 -21.3 146.5 -37.9 137.85 -54.5 129.35 -54.5 117.2 -54.5 109.7 -48.1 103.55 L-44.05 113.0 -41.85 114.55 Q-38.7 116.4 -34.25 117.95 -19.9 122.9 2.75 122.9 25.4 122.9 39.95 117.95 47.25 115.5 50.0 113.0 L53.35 104.3 50.0 113.0 Q47.25 115.5 39.95 117.95 25.4 122.9 2.75 122.9 -19.9 122.9 -34.25 117.95 -38.7 116.4 -41.85 114.55 L-44.05 113.0 -48.1 103.55"
         fill="#000000"
         fill-rule="evenodd"
         stroke="none"
         id="path20" />
      <path
         d="M-48.1 103.55 Q-52.4 93.1 -57.05 79.65 -70.85 39.6 -75.15 6.25 -81.15 -40.5 -67.2 -67.2 -49.8 -100.55 -2.0 -100.55 45.8 -100.55 64.75 -67.2 79.95 -40.5 76.15 6.25 73.4 39.6 61.4 79.65 57.25 93.6 53.35 104.3 59.0 110.15 59.0 117.2 59.0 129.35 42.35 137.85 25.75 146.5 2.25 146.5 -21.3 146.5 -37.9 137.85 -54.5 129.35 -54.5 117.2 -54.5 109.7 -48.1 103.55 L-44.05 113.0 -41.85 114.55 Q-38.7 116.4 -34.25 117.95 -19.9 122.9 2.75 122.9 25.4 122.9 39.95 117.95 47.25 115.5 50.0 113.0 L53.35 104.3"
         fill="none"
         stroke="#000000"
         stroke-linecap="round"
         stroke-linejoin="round"
         stroke-width="12.0"
         id="path21" />
      <path
         d="M-54.5 117.2 Q-54.5 105.1 -37.9 96.5 -21.3 87.95 2.25 87.95 25.75 87.95 42.35 96.5 59.0 105.1 59.0 117.2 59.0 129.35 42.35 137.85 25.75 146.5 2.25 146.5 -21.3 146.5 -37.9 137.85 -54.5 129.35 -54.5 117.2"
         fill="#0f1015"
         fill-rule="evenodd"
         stroke="none"
         id="path22" />
      <path
         d="M-37.9 96.5 Q-21.3 87.95 2.25 87.95 L3.15 87.95 Q-12.0 100.95 -12.0 118.9 L-11.95 120.5 -17.85 124.0 Q-26.5 129.95 -26.5 135.25 -26.5 139.45 -21.2 144.0 -30.3 141.8 -37.9 137.85 -54.5 129.35 -54.5 117.2 -54.5 105.1 -37.9 96.5"
         fill="#7e7f8c"
         fill-rule="evenodd"
         stroke="none"
         id="path23" />
      <path
         d="M-37.9 96.5 Q-33.65 94.3 -28.9 92.7 -36.0 102.65 -36.0 114.9 L-35.95 116.5 -41.85 120.0 Q-48.55 124.6 -50.05 128.8 -54.5 123.5 -54.5 117.2 -54.5 105.1 -37.9 96.5"
         fill="#1a1c23"
         fill-rule="evenodd"
         stroke="none"
         id="path24" />
      <path
         d="M59.7 110.6 Q55.9 118.05 44.1 123.85 26.8 132.5 2.25 132.5 -22.3 132.5 -39.65 123.85 -51.4 118.05 -55.2 110.6 -51.4 103.15 -39.65 97.3 -22.3 88.75 2.25 88.75 26.8 88.75 44.1 97.3 55.9 103.15 59.7 110.6"
         fill="#000000"
         fill-rule="evenodd"
         stroke="none"
         id="path25" />
      <path
         d="M-2.0 -100.55 Q45.8 -100.55 64.75 -67.2 79.95 -40.5 76.15 6.25 73.4 39.6 61.4 79.65 55.45 99.65 50.0 113.0 47.25 115.5 39.95 117.95 25.4 122.9 2.75 122.9 -19.9 122.9 -34.25 117.95 -38.7 116.4 -41.85 114.55 L-44.05 113.0 Q-50.1 99.65 -57.05 79.65 -70.85 39.6 -75.15 6.25 -81.15 -40.5 -67.2 -67.2 -49.8 -100.55 -2.0 -100.55"
         fill="#0f1015"
         fill-rule="evenodd"
         stroke="none"
         id="path26" />
      <path
         d="M5.6 -100.3 Q-20.25 -92.15 -32.05 -66.7 -46.0 -36.75 -40.0 15.75 -35.7 53.2 -21.9 98.2 -17.8 111.45 -14.0 122.1 -25.65 120.9 -34.25 117.95 -38.7 116.4 -41.85 114.55 L-44.05 113.0 Q-50.1 99.65 -57.05 79.65 -70.85 39.6 -75.15 6.25 -81.15 -40.5 -67.2 -67.2 -49.8 -100.55 -2.0 -100.55 L5.6 -100.3"
         fill="#7e7f8c"
         fill-rule="evenodd"
         stroke="none"
         id="path27" />
      <path
         d="M4.65 -100.35 Q-37.95 -98.05 -54.15 -64.1 -68.1 -34.9 -62.1 16.2 -57.8 52.6 -44.0 96.4 -40.45 107.6 -37.1 116.85 L-41.85 114.55 -44.05 113.0 Q-50.1 99.65 -57.05 79.65 -70.85 39.6 -75.15 6.25 -81.15 -40.5 -67.2 -67.2 -49.8 -100.55 -2.0 -100.55 L4.65 -100.35"
         fill="#1a1c23"
         fill-rule="evenodd"
         stroke="none"
         id="path28" />
    </g>
    <g
       id="sprite1"
       transform="matrix(1.0, 0.0, 0.0, 1.0, 0.0, 0.0)">
      <use
         ffdec:characterId="5057"
         height="31.1"
         transform="matrix(1.0, 0.0, 0.0, 1.0, 0.0, 0.0)"
         width="19.35"
         xlink:href="#shape4"
         id="use28" />
    </g>
    <g
       id="shape4"
       transform="matrix(1.0, 0.0, 0.0, 1.0, 0.0, 0.0)">
      <path
         d="M7.1 23.35 L9.65 22.45 10.2 22.45 Q10.9 22.65 11.2 22.95 L12.15 23.8 12.7 24.5 12.7 29.6 Q12.7 30.15 12.1 30.45 10.75 31.1 8.05 31.1 7.15 31.1 6.05 29.7 5.0 28.4 5.0 27.35 5.0 26.1 5.3 25.3 5.75 24.05 7.1 23.35 M10.65 10.2 Q10.95 6.7 11.7 5.1 L11.2 5.1 9.3 6.2 6.65 7.95 Q3.15 10.3 2.25 10.3 1.3 10.3 0.6 8.8 0.0 7.5 0.0 6.4 L0.0 6.15 Q0.15 5.45 0.45 5.1 L2.95 1.95 Q4.85 0.0 6.45 0.0 L7.6 0.0 9.45 0.1 12.2 0.25 16.8 0.5 Q17.8 1.2 18.6 2.75 19.35 4.3 19.35 5.6 L19.35 6.15 18.6 9.2 17.8 12.3 Q17.55 13.45 15.95 14.0 L13.25 14.8 12.45 15.1 11.95 15.35 11.95 18.9 11.5 19.1 9.8 19.6 6.6 20.45 5.55 20.5 5.55 15.8 10.65 10.2"
         fill="#cccccc"
         fill-rule="evenodd"
         stroke="none"
         id="path29" />
    </g>
  </defs>
</svg>
