<?xml version="1.0" encoding="UTF-8" standalone="no"?>
<svg
   ffdec:objectType="frame"
   height="23.8px"
   width="97.1px"
   version="1.1"
   id="svg25"
   sodipodi:docname="outlined.svg"
   inkscape:version="1.4.2 (f4327f4, 2025-05-13)"
   xmlns:inkscape="http://www.inkscape.org/namespaces/inkscape"
   xmlns:sodipodi="http://sodipodi.sourceforge.net/DTD/sodipodi-0.dtd"
   xmlns:xlink="http://www.w3.org/1999/xlink"
   xmlns="http://www.w3.org/2000/svg"
   xmlns:svg="http://www.w3.org/2000/svg"
   xmlns:ffdec="https://www.free-decompiler.com/flash">
  <sodipodi:namedview
     id="namedview25"
     pagecolor="#505050"
     bordercolor="#eeeeee"
     borderopacity="1"
     inkscape:showpageshadow="0"
     inkscape:pageopacity="0"
     inkscape:pagecheckerboard="0"
     inkscape:deskcolor="#505050"
     inkscape:zoom="24.881566"
     inkscape:cx="48.570094"
     inkscape:cy="11.916453"
     inkscape:window-width="2560"
     inkscape:window-height="1369"
     inkscape:window-x="-8"
     inkscape:window-y="-8"
     inkscape:window-maximized="1"
     inkscape:current-layer="svg25" />
  <g
     transform="matrix(1.0, 0.0, 0.0, 1.0, 1.75, 1.6)"
     id="g6">
    <use
       ffdec:characterId="5560"
       height="22.05"
       transform="matrix(1.0, 0.0, 0.0, 1.0, -1.2, -1.05)"
       width="22.05"
       xlink:href="#shape0"
       id="use1" />
    <use
       ffdec:characterId="5563"
       height="23.1"
       transform="matrix(1.0, 0.0, 0.0, 1.0, -1.75, -1.6)"
       width="23.15"
       xlink:href="#shape1"
       id="use2" />
    <use
       ffdec:characterId="5561"
       height="23.7"
       transform="matrix(1.0, 0.0, 0.0, 1.0, 2.95, -1.5)"
       width="13.05"
       xlink:href="#shape2"
       id="use3" />
    <filter
       id="filter7"
       x="0"
       y="0"
       width="1"
       height="1">
      <feColorMatrix
         in="SourceGraphic"
         result="filterResult0"
         type="matrix"
         values="0 0 0 0 0.17254902,0 0 0 0 0.10980392,0 0 0 0 0.03137255,0 0 0 1 0"
         id="feColorMatrix3" />
      <feConvolveMatrix
         divisor="9.0"
         in="filterResult0"
         kernelMatrix="1 1 1 1 1 1 1 1 1"
         order="3 3"
         result="filterResult1"
         id="feConvolveMatrix3" />
      <feConvolveMatrix
         divisor="9.0"
         in="filterResult1"
         kernelMatrix="1 1 1 1 1 1 1 1 1"
         order="3 3"
         result="filterResult2"
         id="feConvolveMatrix4" />
      <feConvolveMatrix
         divisor="9.0"
         in="filterResult2"
         kernelMatrix="1 1 1 1 1 1 1 1 1"
         order="3 3"
         result="filterResult3"
         id="feConvolveMatrix5" />
      <feComposite
         in="SourceGraphic"
         in2="filterResult3"
         operator="over"
         result="filterResult4"
         id="feComposite5" />
    </filter>
    <use
       ffdec:characterId="5564"
       height="17.75"
       transform="matrix(1.0, 0.0, 0.0, 1.0, 77.6, 0.6)"
       width="17.75"
       xlink:href="#shape3"
       id="use5" />
    <use
       ffdec:characterId="5537"
       height="66.0"
       transform="matrix(1.6588, 0.0, 0.0, 0.3159, -0.2, 0.0)"
       width="57.0"
       xlink:href="#shape4"
       id="use6" />
  </g>
  <defs
     id="defs25">
    <g
       id="shape0"
       transform="matrix(1.0, 0.0, 0.0, 1.0, 1.2, 1.05)">
      <path
         d="M0.5 20.0 L-0.2 0.0 19.8 1.35 18.1 19.35 0.5 20.0"
         fill="#ffffff"
         fill-opacity="0.49803922"
         fill-rule="evenodd"
         stroke="none"
         id="path6" />
      <path
         d="M0.5 20.0 L-0.2 0.0 19.8 1.35 18.1 19.35 0.5 20.0 Z"
         fill="none"
         stroke="#000000"
         stroke-linecap="butt"
         stroke-linejoin="miter-clip"
         stroke-miterlimit="3.0"
         stroke-opacity="0.49803922"
         stroke-width="2.0"
         id="path7" />
    </g>
    <g
       id="shape1"
       transform="matrix(1.0, 0.0, 0.0, 1.0, 1.75, 1.6)">
      <path
         d="M0.5 20.0 L-0.2 0.0 19.8 1.35 18.1 19.35 0.5 20.0 Z"
         fill="none"
         stroke="#ffffff"
         stroke-linecap="butt"
         stroke-linejoin="miter-clip"
         stroke-miterlimit="3.0"
         stroke-width="3.0"
         id="path8" />
    </g>
    <g
       id="shape2"
       transform="matrix(1.0, 0.0, 0.0, 1.0, -2.95, 1.5)">
      <path
         d="M11.95 13.55 L11.75 12.65 Q11.5 12.3 10.65 12.1 L10.65 14.95 11.65 14.5 11.95 13.55 M8.25 5.65 Q7.55 5.8 7.2 6.15 6.9 6.45 6.9 7.05 6.9 7.6 7.2 7.9 7.5 8.2 8.25 8.35 L8.25 5.65 M8.25 -1.0 L10.65 -1.0 10.65 2.25 13.15 2.45 15.2 2.95 14.45 6.05 12.8 5.7 10.65 5.55 10.65 8.75 Q13.0 9.1 14.25 10.15 15.45 11.25 15.5 13.3 15.5 15.7 14.3 16.85 13.15 18.0 10.65 18.25 L10.65 21.7 8.25 21.7 8.25 18.35 5.7 18.15 3.6 17.65 4.4 14.5 6.1 14.85 8.25 15.05 8.25 11.75 Q6.0 11.45 4.75 10.5 3.45 9.5 3.45 7.5 3.45 5.15 4.65 3.9 5.85 2.65 8.25 2.35 L8.25 -1.0"
         fill="#ffcc00"
         fill-rule="evenodd"
         stroke="none"
         id="path9" />
      <path
         d="M8.25 -1.0 L8.25 2.35 Q5.85 2.65 4.65 3.9 3.45 5.15 3.45 7.5 3.45 9.5 4.75 10.5 6.0 11.45 8.25 11.75 L8.25 15.05 6.1 14.85 4.4 14.5 3.6 17.65 5.7 18.15 8.25 18.35 8.25 21.7 10.65 21.7 10.65 18.25 Q13.15 18.0 14.3 16.85 15.5 15.7 15.5 13.3 15.45 11.25 14.25 10.15 13.0 9.1 10.65 8.75 L10.65 5.55 12.8 5.7 14.45 6.05 15.2 2.95 13.15 2.45 10.65 2.25 10.65 -1.0 8.25 -1.0 M8.25 5.65 L8.25 8.35 Q7.5 8.2 7.2 7.9 6.9 7.6 6.9 7.05 6.9 6.45 7.2 6.15 7.55 5.8 8.25 5.65 M11.95 13.55 L11.65 14.5 10.65 14.95 10.65 12.1 Q11.5 12.3 11.75 12.65 L11.95 13.55 Z"
         fill="none"
         stroke="#2c1c08"
         stroke-linecap="butt"
         stroke-linejoin="miter-clip"
         stroke-miterlimit="3.0"
         stroke-width="1.0"
         id="path10" />
    </g>
    <g
       id="text0"
       transform="matrix(1.0, 0.0, 0.0, 1.0, 2.0, 2.0)">
      <g
         transform="matrix(1.0, 0.0, 0.0, 1.0, -2.0, -2.0)"
         id="g16">
        <use
           fill="#eee3d6"
           height="22.55"
           transform="matrix(0.0137, 0.0, 0.0, 0.0137, 0.0, 13.75)"
           width="74.15"
           xlink:href="#font_Oetztype_10"
           id="use10" />
        <use
           fill="#eee3d6"
           height="22.55"
           transform="matrix(0.0137, 0.0, 0.0, 0.0137, 5.5, 13.75)"
           width="74.15"
           xlink:href="#font_Oetztype_20"
           id="use11" />
        <use
           fill="#eee3d6"
           height="22.55"
           transform="matrix(0.0137, 0.0, 0.0, 0.0137, 13.55, 13.75)"
           width="74.15"
           xlink:href="#font_Oetztype_30"
           id="use12" />
        <use
           fill="#eee3d6"
           height="22.55"
           transform="matrix(0.0137, 0.0, 0.0, 0.0137, 20.3, 13.75)"
           width="74.15"
           xlink:href="#font_Oetztype_40"
           id="use13" />
        <use
           fill="#eee3d6"
           height="22.55"
           transform="matrix(0.0137, 0.0, 0.0, 0.0137, 29.95, 13.75)"
           width="74.15"
           xlink:href="#font_Oetztype_50"
           id="use14" />
        <use
           fill="#eee3d6"
           height="22.55"
           transform="matrix(0.0137, 0.0, 0.0, 0.0137, 38.45, 13.75)"
           width="74.15"
           xlink:href="#font_Oetztype_60"
           id="use15" />
        <use
           fill="#eee3d6"
           height="22.55"
           transform="matrix(0.0137, 0.0, 0.0, 0.0137, 47.4, 13.75)"
           width="74.15"
           xlink:href="#font_Oetztype_70"
           id="use16" />
      </g>
    </g>
    <g
       id="font_Oetztype_10">
      <path
         d="M74.15 -19.6 L74.15 -27.65 74.15 -39.2 Q73.0 -47.25 73.0 -51.1 L73.0 -59.15 Q73.0 -138.25 86.4 -217.8 L113.3 -373.75 Q117.9 -380.65 122.55 -393.3 124.45 -397.15 122.55 -402.9 L121.0 -408.3 34.55 -408.3 Q31.5 -416.0 29.95 -421.75 L26.9 -432.5 Q25.35 -437.5 24.2 -442.1 L17.3 -477.45 Q14.2 -490.1 14.2 -508.15 L14.2 -518.55 Q14.2 -521.6 16.5 -523.9 26.9 -528.5 34.55 -530.8 105.25 -554.65 176.3 -578.05 205.5 -588.45 211.65 -589.95 252.35 -601.9 270.8 -601.9 L270.8 2.3 261.2 2.3 231.25 0.75 220.85 0.0 192.05 -3.05 Q111.0 -12.7 74.15 -19.6"
         fill-rule="evenodd"
         stroke="none"
         id="path16" />
    </g>
    <g
       id="font_Oetztype_20">
      <path
         d="M255.05 -422.5 Q212.4 -405.2 159.0 -371.4 135.2 -356.85 111.75 -342.25 L67.6 -314.55 Q66.85 -314.55 65.3 -313.8 L63.0 -313.8 Q62.2 -313.8 60.7 -314.55 L58.4 -314.55 Q51.1 -318.4 48.0 -324.2 27.65 -403.7 27.65 -445.15 27.65 -449.0 28.4 -455.55 L28.4 -461.7 126.75 -560.0 Q126.75 -560.8 133.65 -562.3 151.7 -565.0 169.75 -568.1 L185.5 -570.4 205.5 -571.9 Q283.85 -579.6 303.8 -579.6 L314.55 -579.6 Q328.0 -579.6 333.4 -570.4 333.4 -568.85 336.1 -563.1 L347.6 -533.5 Q351.45 -524.7 353.35 -520.85 380.65 -457.85 394.85 -426.35 421.75 -365.65 421.75 -334.15 421.75 -313.8 412.15 -304.6 328.4 -220.85 244.65 -137.5 238.5 -131.35 235.05 -117.9 235.05 -116.4 235.85 -112.9 236.6 -109.45 236.6 -107.95 L244.65 -107.95 Q318.4 -132.5 392.55 -157.5 L414.45 -157.5 414.45 -123.7 Q414.45 -47.25 402.15 -9.6 397.15 0.0 392.55 0.0 L34.55 0.0 Q34.55 -14.2 38.4 -19.6 39.2 -22.65 44.95 -33.05 L68.35 -80.3 Q74.9 -93.7 77.95 -98.35 L146.35 -222.0 215.5 -343.75 Q227.4 -362.6 238.5 -381.4 250.8 -404.45 255.05 -422.5"
         fill-rule="evenodd"
         stroke="none"
         id="path17" />
    </g>
    <g
       id="font_Oetztype_30">
      <path
         d="M48.8 -99.85 Q48.8 -131.35 102.95 -162.85 152.5 -191.3 187.05 -196.65 184.75 -198.2 179.35 -202.8 160.55 -217.0 147.9 -225.85 121.75 -241.6 108.7 -249.3 77.95 -267.35 77.95 -280.0 77.95 -280.75 78.75 -282.3 79.5 -283.85 79.5 -284.6 93.7 -301.15 111.0 -320.35 185.5 -404.45 217.0 -432.5 L204.35 -433.25 192.05 -433.25 Q164.4 -433.25 111.0 -421.75 57.6 -409.85 29.95 -409.85 L29.95 -550.8 39.95 -560.0 Q41.85 -560.8 55.7 -563.85 117.15 -576.55 167.45 -579.6 170.55 -579.6 174.0 -580.35 189.0 -581.15 207.05 -581.15 L237.75 -581.15 Q255.05 -581.15 265.8 -570.4 268.85 -568.1 278.45 -557.7 L334.95 -491.65 Q355.65 -467.45 355.65 -452.45 L355.65 -447.45 Q354.9 -443.65 354.9 -442.1 345.3 -422.5 341.45 -412.15 336.85 -401.0 331.85 -390.25 L324.95 -373.75 Q312.25 -346.05 306.9 -332.65 291.9 -304.6 276.15 -295.0 L283.85 -289.6 Q309.2 -268.85 315.35 -265.05 324.95 -260.4 336.85 -252.35 354.9 -240.85 354.9 -231.25 L354.9 -225.85 Q351.05 -209.7 347.6 -193.6 327.25 -102.95 324.95 -89.1 322.65 -75.65 315.35 -68.35 L99.1 0.0 93.7 0.0 Q77.95 0.0 62.2 -43.4 48.8 -80.3 48.8 -99.85"
         fill-rule="evenodd"
         stroke="none"
         id="path18" />
    </g>
    <g
       id="font_Oetztype_40">
      <path
         d="M235.05 -154.0 Q229.7 -154.0 217.4 -155.55 205.5 -157.5 198.2 -157.5 168.25 -151.7 154.0 -149.4 105.65 -140.2 57.6 -130.6 44.95 -128.3 40.35 -127.15 36.1 -126.0 21.15 -126.0 L21.15 -166.7 89.5 -550.8 109.45 -570.4 187.8 -577.3 217.8 -579.6 230.45 -579.6 Q230.45 -530.8 220.1 -434.05 210.1 -337.6 210.1 -288.85 L222.0 -288.05 238.5 -286.15 266.55 -284.6 Q268.85 -284.6 273.1 -288.85 276.95 -292.7 276.95 -295.0 L307.65 -540.4 424.05 -540.4 424.05 -295.0 524.7 -295.0 Q524.7 -272.3 520.85 -250.8 517.0 -228.55 512.75 -206.25 512.0 -203.55 510.45 -195.9 L505.1 -172.45 Q503.55 -168.25 503.15 -166.7 502.8 -165.15 482.8 -157.5 475.15 -154.0 472.8 -153.25 433.25 -138.25 429.4 -137.5 L429.4 0.0 225.85 0.0 Q225.85 -26.1 230.45 -77.2 235.05 -128.3 235.05 -154.0"
         fill-rule="evenodd"
         stroke="none"
         id="path19" />
    </g>
    <g
       id="font_Oetztype_50">
      <path
         d="M29.95 -87.95 Q29.95 -89.5 30.75 -93.35 31.5 -96.8 31.5 -98.35 180.15 -117.9 247.75 -206.25 L220.1 -213.95 Q179.0 -225.85 137.5 -237.35 114.1 -243.9 110.25 -245.45 93.7 -250.8 77.2 -256.6 L51.1 -265.05 Q39.95 -269.65 39.95 -279.25 L39.95 -305.35 Q39.95 -307.65 41.1 -313.05 L41.1 -320.35 41.1 -324.2 Q46.5 -367.95 49.55 -391.0 L54.95 -438.25 Q66.05 -525.45 70.65 -550.8 70.65 -554.65 75.65 -568.85 79.5 -579.6 80.3 -579.6 L424.8 -579.6 Q427.9 -579.6 434.4 -570.4 L434.4 -560.0 Q430.95 -534.3 429.4 -520.85 424.8 -487.8 424.8 -491.65 424.8 -488.55 414.45 -481.25 375.25 -469.0 355.65 -461.7 314.2 -452.1 273.1 -442.1 217.0 -428.65 189.0 -422.5 189.0 -419.45 187.8 -412.5 187.05 -406.0 187.05 -402.9 187.05 -372.2 198.2 -354.15 L215.5 -353.35 232.75 -353.35 Q252.35 -353.35 290.4 -358.35 328.0 -363.35 347.6 -363.35 L355.65 -363.35 Q357.2 -362.6 361.05 -359.5 377.55 -343.0 385.65 -334.15 L399.45 -314.55 Q452.45 -238.5 453.25 -236.2 454.0 -234.3 454.75 -231.25 L454.75 -225.85 Q454.75 -212.4 444.4 -196.65 417.5 -156.7 403.7 -136.75 L376.05 -97.55 Q365.65 -81.8 355.65 -68.35 351.45 -63.0 349.9 -60.7 334.95 -41.85 326.5 -29.2 L321.1 -23.45 Q317.65 -20.35 316.1 -19.6 272.3 -4.6 212.4 -1.55 189.0 0.0 107.15 0.0 82.6 0.0 56.1 -33.05 29.95 -66.05 29.95 -87.95"
         fill-rule="evenodd"
         stroke="none"
         id="path20" />
    </g>
    <g
       id="font_Oetztype_60">
      <path
         d="M142.5 -260.4 L142.5 -255.8 Q152.1 -226.25 162.1 -196.65 L181.7 -137.5 191.3 -136.75 201.25 -136.75 Q226.6 -136.75 270.8 -159.8 314.55 -182.45 340.7 -182.45 340.7 -184.75 339.15 -186.3 L328.8 -202.05 319.2 -216.25 248.5 -287.3 230.45 -304.6 Q182.45 -290.4 179.35 -288.85 142.5 -274.65 142.5 -260.4 M22.65 -295.75 Q22.65 -317.65 27.65 -334.15 33.8 -357.2 51.85 -385.65 L83.35 -432.5 Q122.55 -497.8 123.7 -498.55 145.55 -528.5 181.7 -540.4 197.45 -545.8 212.4 -550.05 238.9 -557.7 265.05 -565.75 321.1 -581.15 348.4 -589.95 L354.15 -591.5 363.35 -594.6 Q377.55 -599.55 378.35 -599.55 L383.7 -599.55 Q394.85 -599.55 422.5 -564.6 447.45 -530.8 447.45 -520.85 L447.45 -515.85 Q446.7 -512.75 446.7 -511.25 439.8 -505.85 421.75 -493.2 L383.7 -466.3 Q349.9 -442.85 319.2 -422.5 L285.4 -399.45 Q267.35 -387.95 250.05 -378.35 L407.55 -378.35 Q415.2 -378.35 432.5 -324.2 451.7 -261.2 462.45 -212.4 477.45 -144.8 477.45 -125.2 L477.45 -114.85 476.65 -107.95 Q467.45 -98.35 446.7 -87.95 435.95 -82.6 424.8 -77.2 L389.45 -59.9 Q371.4 -50.7 353.35 -41.85 L329.95 -29.95 Q319.2 -24.2 313.8 -21.9 274.65 -4.6 260.4 0.0 L256.6 0.75 250.8 0.75 Q228.15 0.75 195.1 -14.2 169.0 -26.9 142.5 -39.2 140.2 -39.95 129.8 -44.95 92.95 -62.2 73.0 -68.35 61.45 -74.9 53.4 -78.75 50.3 -85.65 48.8 -92.2 44.15 -106.0 44.15 -107.95 22.65 -228.15 22.65 -295.75"
         fill-rule="evenodd"
         stroke="none"
         id="path21" />
    </g>
    <g
       id="font_Oetztype_70">
      <path
         d="M215.5 -412.9 L200.5 -412.9 Q171.3 -412.9 115.25 -396.75 59.15 -380.65 29.2 -380.65 L29.2 -570.4 382.95 -570.4 Q384.85 -564.25 387.15 -558.5 404.45 -493.95 412.15 -461.7 L412.15 -452.45 Q412.15 -435.95 402.9 -412.9 396.0 -395.6 389.45 -378.35 L367.95 -325.7 Q356.05 -295.35 343.75 -265.05 330.3 -232.75 319.2 -203.55 L284.6 -117.9 256.6 -51.1 Q234.3 0.0 225.85 0.0 L84.9 0.0 Q84.9 -37.65 96.0 -88.75 107.15 -132.9 117.15 -177.05 122.55 -207.05 128.3 -237.35 135.2 -273.1 147.1 -295.0 153.25 -306.9 160.55 -318.4 170.55 -336.45 180.9 -354.15 203.55 -393.3 215.5 -412.9"
         fill-rule="evenodd"
         stroke="none"
         id="path22" />
    </g>
    <g
       id="shape3"
       transform="matrix(1.0, 0.0, 0.0, 1.0, -77.6, -0.6)">
      <path
         d="M89.75 6.2 L94.35 6.2 94.35 12.7 89.75 12.7 89.75 17.35 83.25 17.35 83.25 12.7 78.6 12.7 78.6 6.2 83.25 6.2 83.25 1.6 89.75 1.6 89.75 6.2"
         fill="#ffcc00"
         fill-rule="evenodd"
         stroke="none"
         id="path23" />
      <path
         d="M89.75 6.2 L94.35 6.2 94.35 12.7 89.75 12.7 89.75 17.35 83.25 17.35 83.25 12.7 78.6 12.7 78.6 6.2 83.25 6.2 83.25 1.6 89.75 1.6 89.75 6.2 Z"
         fill="none"
         stroke="#ffffff"
         stroke-linecap="butt"
         stroke-linejoin="miter-clip"
         stroke-miterlimit="3.0"
         stroke-width="2.0"
         id="path24" />
    </g>
    <g
       id="shape4"
       transform="matrix(1.0, 0.0, 0.0, 1.0, 0.0, 0.0)">
      <path
         d="M57.0 0.0 L57.0 66.0 0.0 66.0 0.0 0.0 57.0 0.0"
         fill="#ff0000"
         fill-opacity="0.0"
         fill-rule="evenodd"
         stroke="none"
         id="path25" />
    </g>
  </defs>
</svg>
