<?xml version="1.0" encoding="UTF-8" standalone="no"?>
<svg xmlns:ffdec="https://www.free-decompiler.com/flash" xmlns:xlink="http://www.w3.org/1999/xlink" ffdec:objectType="frame" height="9.4px" width="8.55px" xmlns="http://www.w3.org/2000/svg">
  <g transform="matrix(1.0, 0.0, 0.0, 1.0, -0.45, 1.8)">
    <use ffdec:characterId="53" height="9.4" transform="matrix(1.0, 0.0, 0.0, 1.0, 0.45, -1.8)" width="8.55" xlink:href="#shape0"/>
  </g>
  <defs>
    <g id="shape0" transform="matrix(1.0, 0.0, 0.0, 1.0, -0.45, 1.8)">
      <path d="M5.9 -1.55 L6.15 -1.45 8.75 1.45 5.55 4.75 2.65 7.35 2.25 7.3 0.7 5.3 2.95 3.15 Q4.95 0.85 5.9 -1.55" fill="#aa9f97" fill-rule="evenodd" stroke="none"/>
      <path d="M5.9 -1.55 Q4.95 0.85 2.95 3.15 L0.7 5.3 M2.65 7.35 L5.55 4.75 8.75 1.45" ffdec:has-small-stroke="true" ffdec:original-stroke-width="0.5" fill="none" stroke="#000000" stroke-linecap="round" stroke-linejoin="round" stroke-width="1.0"/>
      <path d="M8.75 1.45 L5.55 4.75 2.65 7.35 2.25 7.3 1.3 6.05 Q4.75 3.85 7.05 -0.4 L8.75 1.45" fill="#000000" fill-opacity="0.49803922" fill-rule="evenodd" stroke="none"/>
    </g>
  </defs>
</svg>
