<?xml version="1.0" encoding="UTF-8" standalone="no"?>
<svg
   ffdec:objectType="frame"
   height="23.6px"
   width="97.1px"
   version="1.1"
   id="svg19"
   sodipodi:docname="default.svg"
   inkscape:version="1.4.2 (f4327f4, 2025-05-13)"
   xmlns:inkscape="http://www.inkscape.org/namespaces/inkscape"
   xmlns:sodipodi="http://sodipodi.sourceforge.net/DTD/sodipodi-0.dtd"
   xmlns:xlink="http://www.w3.org/1999/xlink"
   xmlns="http://www.w3.org/2000/svg"
   xmlns:svg="http://www.w3.org/2000/svg"
   xmlns:ffdec="https://www.free-decompiler.com/flash">
  <sodipodi:namedview
     id="namedview19"
     pagecolor="#505050"
     bordercolor="#eeeeee"
     borderopacity="1"
     inkscape:showpageshadow="0"
     inkscape:pageopacity="0"
     inkscape:pagecheckerboard="0"
     inkscape:deskcolor="#505050"
     inkscape:zoom="12.440783"
     inkscape:cx="44.330008"
     inkscape:cy="20.21577"
     inkscape:window-width="2560"
     inkscape:window-height="1369"
     inkscape:window-x="-8"
     inkscape:window-y="-8"
     inkscape:window-maximized="1"
     inkscape:current-layer="svg19" />
  <g
     transform="matrix(1.0, 0.0, 0.0, 1.0, 1.75, 1.6)"
     id="g4">
    <g
       id="use1">
      <path
         d="m 0.5,20 -0.7,-20 20,1.35 -1.7,18 L 0.5,20"
         fill="#ffffff"
         fill-opacity="0.498039"
         fill-rule="evenodd"
         stroke="none"
         id="path20" />
      <path
         d="m 0.5,20 -0.7,-20 20,1.35 -1.7,18 z"
         fill="none"
         stroke="#000000"
         stroke-linecap="butt"
         stroke-linejoin="miter-clip"
         stroke-miterlimit="3"
         stroke-opacity="0.498039"
         stroke-width="2"
         id="path21" />
    </g>
    <g
       id="use2">
      <path
         d="m 10.65,7.5 q 1,3.05 4.45,-2.65 Q 13.35,3.05 11.65,4.3 10.8,4.95 10.3,5.75 l 0.1,0.7 H 10.3 Q 8.9,5.85 8.3,4.75 7.65,3.6 6.05,3.7 4.4,3.75 3.25,6.7 2.05,9.65 3,10.45 3.9,11.25 6.75,9.6 9.55,7.9 10.65,7.5 M 17.6,6.85 17.9,8.6 q 0,1.65 -0.75,3.1 L 16.6,12.6 Q 9.75,17.75 9.7,18.85 9.65,17.75 2.8,12.6 L 2.25,11.7 Q 1.5,10.25 1.5,8.6 L 1.8,6.85 q 2.55,-5.2 5.5,-3.6 1.45,0.8 2.4,2.55 0.95,-1.75 2.4,-2.55 2.95,-1.6 5.5,3.6"
         fill="#f64a3f"
         fill-rule="evenodd"
         stroke="none"
         id="path22" />
      <path
         d="M 10.65,7.5 Q 9.55,7.9 6.75,9.6 3.9,11.25 3,10.45 2.05,9.65 3.25,6.7 4.4,3.75 6.05,3.7 7.65,3.6 8.3,4.75 q 0.6,1.1 2,1.7 h 0.1 l -0.1,-0.7 q 0.5,-0.8 1.35,-1.45 1.7,-1.25 3.45,0.55 -3.45,5.7 -4.45,2.65"
         fill="#ffaea8"
         fill-rule="evenodd"
         stroke="none"
         id="path23" />
      <path
         d="m 17.6,6.85 0.3,1.75 q 0,1.65 -0.75,3.1 L 16.6,12.6 Q 9.75,17.75 9.7,18.85 9.65,17.75 2.8,12.6 L 2.25,11.7 Q 1.5,10.25 1.5,8.6 L 1.8,6.85 q 2.55,-5.2 5.5,-3.6 1.45,0.8 2.4,2.55 0.95,-1.75 2.4,-2.55 2.95,-1.6 5.5,3.6 z"
         fill="none"
         stroke="#5b0e09"
         stroke-linecap="butt"
         stroke-linejoin="miter-clip"
         stroke-miterlimit="3"
         stroke-width="1"
         id="path24" />
    </g>
    <filter
       id="filter5"
       x="0"
       y="0"
       width="1"
       height="1">
      <feColorMatrix
         in="SourceGraphic"
         result="filterResult0"
         type="matrix"
         values="0 0 0 0 0.17254902,0 0 0 0 0.10980392,0 0 0 0 0.03137255,0 0 0 1 0"
         id="feColorMatrix2" />
      <feConvolveMatrix
         divisor="9.0"
         in="filterResult0"
         kernelMatrix="1 1 1 1 1 1 1 1 1"
         order="3 3"
         result="filterResult1"
         id="feConvolveMatrix2" />
      <feConvolveMatrix
         divisor="9.0"
         in="filterResult1"
         kernelMatrix="1 1 1 1 1 1 1 1 1"
         order="3 3"
         result="filterResult2"
         id="feConvolveMatrix3" />
      <feConvolveMatrix
         divisor="9.0"
         in="filterResult2"
         kernelMatrix="1 1 1 1 1 1 1 1 1"
         order="3 3"
         result="filterResult3"
         id="feConvolveMatrix4" />
      <feComposite
         in="SourceGraphic"
         in2="filterResult3"
         operator="over"
         result="filterResult4"
         id="feComposite4" />
    </filter>
    <g
       id="health_btn_plus"
       transform="translate(78.6,1.6)">
      <g
         id="use24">
        <path
           d="m 11.15,0 v 4.6 h 4.6 v 6.5 h -4.6 v 4.65 H 4.65 V 11.1 H 0 V 4.6 H 4.65 V 0 h 6.5"
           fill="#ffcc00"
           fill-rule="evenodd"
           stroke="none"
           id="path25" />
        <path
           d="m 11.15,0 v 4.6 h 4.6 v 6.5 h -4.6 v 4.65 H 4.65 V 11.1 H 0 V 4.6 H 4.65 V 0 Z"
           fill="none"
           stroke="#663e10"
           stroke-linecap="butt"
           stroke-linejoin="miter-clip"
           stroke-miterlimit="3"
           stroke-width="2"
           id="path26" />
      </g>
    </g>
    <g
       id="use4"
       transform="matrix(1.6588,0,0,0.3159,-0.2,0)">
      <path
         d="M 57,0 V 66 H 0 V 0 h 57"
         fill="#ff0000"
         fill-opacity="0"
         fill-rule="evenodd"
         stroke="none"
         id="path27" />
    </g>
  </g>
  <defs
     id="defs19">
    <g
       id="shape0"
       transform="matrix(1.0, 0.0, 0.0, 1.0, 1.2, 1.05)">
      <path
         d="M0.5 20.0 L-0.2 0.0 19.8 1.35 18.1 19.35 0.5 20.0"
         fill="#ffffff"
         fill-opacity="0.49803922"
         fill-rule="evenodd"
         stroke="none"
         id="path4" />
      <path
         d="M0.5 20.0 L-0.2 0.0 19.8 1.35 18.1 19.35 0.5 20.0 Z"
         fill="none"
         stroke="#000000"
         stroke-linecap="butt"
         stroke-linejoin="miter-clip"
         stroke-miterlimit="3.0"
         stroke-opacity="0.49803922"
         stroke-width="2.0"
         id="path5" />
    </g>
    <g
       id="shape1"
       transform="matrix(1.0, 0.0, 0.0, 1.0, -1.0, -2.35)">
      <path
         d="M10.65 7.5 Q11.65 10.55 15.1 4.85 13.35 3.05 11.65 4.3 10.8 4.95 10.3 5.75 L10.4 6.45 10.3 6.45 Q8.9 5.85 8.3 4.75 7.65 3.6 6.05 3.7 4.4 3.75 3.25 6.7 2.05 9.65 3.0 10.45 3.9 11.25 6.75 9.6 9.55 7.9 10.65 7.5 M17.6 6.85 L17.9 8.6 Q17.9 10.25 17.15 11.7 L16.6 12.6 Q9.75 17.75 9.7 18.85 9.65 17.75 2.8 12.6 L2.25 11.7 Q1.5 10.25 1.5 8.6 L1.8 6.85 Q4.35 1.65 7.3 3.25 8.75 4.05 9.7 5.8 10.65 4.05 12.1 3.25 15.05 1.65 17.6 6.85"
         fill="#f64a3f"
         fill-rule="evenodd"
         stroke="none"
         id="path6" />
      <path
         d="M10.65 7.5 Q9.55 7.9 6.75 9.6 3.9 11.25 3.0 10.45 2.05 9.65 3.25 6.7 4.4 3.75 6.05 3.7 7.65 3.6 8.3 4.75 8.9 5.85 10.3 6.45 L10.4 6.45 10.3 5.75 Q10.8 4.95 11.65 4.3 13.35 3.05 15.1 4.85 11.65 10.55 10.65 7.5"
         fill="#ffaea8"
         fill-rule="evenodd"
         stroke="none"
         id="path7" />
      <path
         d="M17.6 6.85 L17.9 8.6 Q17.9 10.25 17.15 11.7 L16.6 12.6 Q9.75 17.75 9.7 18.85 9.65 17.75 2.8 12.6 L2.25 11.7 Q1.5 10.25 1.5 8.6 L1.8 6.85 Q4.35 1.65 7.3 3.25 8.75 4.05 9.7 5.8 10.65 4.05 12.1 3.25 15.05 1.65 17.6 6.85 Z"
         fill="none"
         stroke="#5b0e09"
         stroke-linecap="butt"
         stroke-linejoin="miter-clip"
         stroke-miterlimit="3.0"
         stroke-width="1.0"
         id="path8" />
    </g>
    <g
       id="text0"
       transform="matrix(1.0, 0.0, 0.0, 1.0, 2.0, 2.0)">
      <g
         transform="matrix(1.0, 0.0, 0.0, 1.0, -2.0, -2.0)"
         id="g12">
        <use
           fill="#eee3d6"
           height="22.55"
           transform="matrix(0.0137, 0.0, 0.0, 0.0137, 0.0, 13.75)"
           width="55.65"
           xlink:href="#font_Oetztype_10"
           id="use8" />
        <use
           fill="#eee3d6"
           height="22.55"
           transform="matrix(0.0137, 0.0, 0.0, 0.0137, 5.5, 13.75)"
           width="55.65"
           xlink:href="#font_Oetztype_20"
           id="use9" />
        <use
           fill="#eee3d6"
           height="22.55"
           transform="matrix(0.0137, 0.0, 0.0, 0.0137, 13.55, 13.75)"
           width="55.65"
           xlink:href="#font_Oetztype_30"
           id="use10" />
        <use
           fill="#eee3d6"
           height="22.55"
           transform="matrix(0.0137, 0.0, 0.0, 0.0137, 20.3, 13.75)"
           width="55.65"
           xlink:href="#font_Oetztype_40"
           id="use11" />
        <use
           fill="#eee3d6"
           height="22.55"
           transform="matrix(0.0137, 0.0, 0.0, 0.0137, 29.95, 13.75)"
           width="55.65"
           xlink:href="#font_Oetztype_50"
           id="use12" />
      </g>
    </g>
    <g
       id="font_Oetztype_10">
      <path
         d="M74.15 -19.6 L74.15 -27.65 74.15 -39.2 Q73.0 -47.25 73.0 -51.1 L73.0 -59.15 Q73.0 -138.25 86.4 -217.8 L113.3 -373.75 Q117.9 -380.65 122.55 -393.3 124.45 -397.15 122.55 -402.9 L121.0 -408.3 34.55 -408.3 Q31.5 -416.0 29.95 -421.75 L26.9 -432.5 Q25.35 -437.5 24.2 -442.1 L17.3 -477.45 Q14.2 -490.1 14.2 -508.15 L14.2 -518.55 Q14.2 -521.6 16.5 -523.9 26.9 -528.5 34.55 -530.8 105.25 -554.65 176.3 -578.05 205.5 -588.45 211.65 -589.95 252.35 -601.9 270.8 -601.9 L270.8 2.3 261.2 2.3 231.25 0.75 220.85 0.0 192.05 -3.05 Q111.0 -12.7 74.15 -19.6"
         fill-rule="evenodd"
         stroke="none"
         id="path12" />
    </g>
    <g
       id="font_Oetztype_20">
      <path
         d="M255.05 -422.5 Q212.4 -405.2 159.0 -371.4 135.2 -356.85 111.75 -342.25 L67.6 -314.55 Q66.85 -314.55 65.3 -313.8 L63.0 -313.8 Q62.2 -313.8 60.7 -314.55 L58.4 -314.55 Q51.1 -318.4 48.0 -324.2 27.65 -403.7 27.65 -445.15 27.65 -449.0 28.4 -455.55 L28.4 -461.7 126.75 -560.0 Q126.75 -560.8 133.65 -562.3 151.7 -565.0 169.75 -568.1 L185.5 -570.4 205.5 -571.9 Q283.85 -579.6 303.8 -579.6 L314.55 -579.6 Q328.0 -579.6 333.4 -570.4 333.4 -568.85 336.1 -563.1 L347.6 -533.5 Q351.45 -524.7 353.35 -520.85 380.65 -457.85 394.85 -426.35 421.75 -365.65 421.75 -334.15 421.75 -313.8 412.15 -304.6 328.4 -220.85 244.65 -137.5 238.5 -131.35 235.05 -117.9 235.05 -116.4 235.85 -112.9 236.6 -109.45 236.6 -107.95 L244.65 -107.95 Q318.4 -132.5 392.55 -157.5 L414.45 -157.5 414.45 -123.7 Q414.45 -47.25 402.15 -9.6 397.15 0.0 392.55 0.0 L34.55 0.0 Q34.55 -14.2 38.4 -19.6 39.2 -22.65 44.95 -33.05 L68.35 -80.3 Q74.9 -93.7 77.95 -98.35 L146.35 -222.0 215.5 -343.75 Q227.4 -362.6 238.5 -381.4 250.8 -404.45 255.05 -422.5"
         fill-rule="evenodd"
         stroke="none"
         id="path13" />
    </g>
    <g
       id="font_Oetztype_30">
      <path
         d="M48.8 -99.85 Q48.8 -131.35 102.95 -162.85 152.5 -191.3 187.05 -196.65 184.75 -198.2 179.35 -202.8 160.55 -217.0 147.9 -225.85 121.75 -241.6 108.7 -249.3 77.95 -267.35 77.95 -280.0 77.95 -280.75 78.75 -282.3 79.5 -283.85 79.5 -284.6 93.7 -301.15 111.0 -320.35 185.5 -404.45 217.0 -432.5 L204.35 -433.25 192.05 -433.25 Q164.4 -433.25 111.0 -421.75 57.6 -409.85 29.95 -409.85 L29.95 -550.8 39.95 -560.0 Q41.85 -560.8 55.7 -563.85 117.15 -576.55 167.45 -579.6 170.55 -579.6 174.0 -580.35 189.0 -581.15 207.05 -581.15 L237.75 -581.15 Q255.05 -581.15 265.8 -570.4 268.85 -568.1 278.45 -557.7 L334.95 -491.65 Q355.65 -467.45 355.65 -452.45 L355.65 -447.45 Q354.9 -443.65 354.9 -442.1 345.3 -422.5 341.45 -412.15 336.85 -401.0 331.85 -390.25 L324.95 -373.75 Q312.25 -346.05 306.9 -332.65 291.9 -304.6 276.15 -295.0 L283.85 -289.6 Q309.2 -268.85 315.35 -265.05 324.95 -260.4 336.85 -252.35 354.9 -240.85 354.9 -231.25 L354.9 -225.85 Q351.05 -209.7 347.6 -193.6 327.25 -102.95 324.95 -89.1 322.65 -75.65 315.35 -68.35 L99.1 0.0 93.7 0.0 Q77.95 0.0 62.2 -43.4 48.8 -80.3 48.8 -99.85"
         fill-rule="evenodd"
         stroke="none"
         id="path14" />
    </g>
    <g
       id="font_Oetztype_40">
      <path
         d="M235.05 -154.0 Q229.7 -154.0 217.4 -155.55 205.5 -157.5 198.2 -157.5 168.25 -151.7 154.0 -149.4 105.65 -140.2 57.6 -130.6 44.95 -128.3 40.35 -127.15 36.1 -126.0 21.15 -126.0 L21.15 -166.7 89.5 -550.8 109.45 -570.4 187.8 -577.3 217.8 -579.6 230.45 -579.6 Q230.45 -530.8 220.1 -434.05 210.1 -337.6 210.1 -288.85 L222.0 -288.05 238.5 -286.15 266.55 -284.6 Q268.85 -284.6 273.1 -288.85 276.95 -292.7 276.95 -295.0 L307.65 -540.4 424.05 -540.4 424.05 -295.0 524.7 -295.0 Q524.7 -272.3 520.85 -250.8 517.0 -228.55 512.75 -206.25 512.0 -203.55 510.45 -195.9 L505.1 -172.45 Q503.55 -168.25 503.15 -166.7 502.8 -165.15 482.8 -157.5 475.15 -154.0 472.8 -153.25 433.25 -138.25 429.4 -137.5 L429.4 0.0 225.85 0.0 Q225.85 -26.1 230.45 -77.2 235.05 -128.3 235.05 -154.0"
         fill-rule="evenodd"
         stroke="none"
         id="path15" />
    </g>
    <g
       id="font_Oetztype_50">
      <path
         d="M29.95 -87.95 Q29.95 -89.5 30.75 -93.35 31.5 -96.8 31.5 -98.35 180.15 -117.9 247.75 -206.25 L220.1 -213.95 Q179.0 -225.85 137.5 -237.35 114.1 -243.9 110.25 -245.45 93.7 -250.8 77.2 -256.6 L51.1 -265.05 Q39.95 -269.65 39.95 -279.25 L39.95 -305.35 Q39.95 -307.65 41.1 -313.05 L41.1 -320.35 41.1 -324.2 Q46.5 -367.95 49.55 -391.0 L54.95 -438.25 Q66.05 -525.45 70.65 -550.8 70.65 -554.65 75.65 -568.85 79.5 -579.6 80.3 -579.6 L424.8 -579.6 Q427.9 -579.6 434.4 -570.4 L434.4 -560.0 Q430.95 -534.3 429.4 -520.85 424.8 -487.8 424.8 -491.65 424.8 -488.55 414.45 -481.25 375.25 -469.0 355.65 -461.7 314.2 -452.1 273.1 -442.1 217.0 -428.65 189.0 -422.5 189.0 -419.45 187.8 -412.5 187.05 -406.0 187.05 -402.9 187.05 -372.2 198.2 -354.15 L215.5 -353.35 232.75 -353.35 Q252.35 -353.35 290.4 -358.35 328.0 -363.35 347.6 -363.35 L355.65 -363.35 Q357.2 -362.6 361.05 -359.5 377.55 -343.0 385.65 -334.15 L399.45 -314.55 Q452.45 -238.5 453.25 -236.2 454.0 -234.3 454.75 -231.25 L454.75 -225.85 Q454.75 -212.4 444.4 -196.65 417.5 -156.7 403.7 -136.75 L376.05 -97.55 Q365.65 -81.8 355.65 -68.35 351.45 -63.0 349.9 -60.7 334.95 -41.85 326.5 -29.2 L321.1 -23.45 Q317.65 -20.35 316.1 -19.6 272.3 -4.6 212.4 -1.55 189.0 0.0 107.15 0.0 82.6 0.0 56.1 -33.05 29.95 -66.05 29.95 -87.95"
         fill-rule="evenodd"
         stroke="none"
         id="path16" />
    </g>
    <g
       id="sprite0"
       transform="matrix(1.0, 0.0, 0.0, 1.0, 1.0, 1.0)">
      <use
         ffdec:characterId="5562"
         height="17.75"
         transform="matrix(1.0, 0.0, 0.0, 1.0, -1.0, -1.0)"
         width="17.75"
         xlink:href="#shape2"
         id="use16" />
    </g>
    <g
       id="shape2"
       transform="matrix(1.0, 0.0, 0.0, 1.0, 1.0, 1.0)">
      <path
         d="M11.15 0.0 L11.15 4.6 15.75 4.6 15.75 11.1 11.15 11.1 11.15 15.75 4.65 15.75 4.65 11.1 0.0 11.1 0.0 4.6 4.65 4.6 4.65 0.0 11.15 0.0"
         fill="#ffcc00"
         fill-rule="evenodd"
         stroke="none"
         id="path17" />
      <path
         d="M11.15 0.0 L11.15 4.6 15.75 4.6 15.75 11.1 11.15 11.1 11.15 15.75 4.65 15.75 4.65 11.1 0.0 11.1 0.0 4.6 4.65 4.6 4.65 0.0 11.15 0.0 Z"
         fill="none"
         stroke="#663e10"
         stroke-linecap="butt"
         stroke-linejoin="miter-clip"
         stroke-miterlimit="3.0"
         stroke-width="2.0"
         id="path18" />
    </g>
    <g
       id="shape3"
       transform="matrix(1.0, 0.0, 0.0, 1.0, 0.0, 0.0)">
      <path
         d="M57.0 0.0 L57.0 66.0 0.0 66.0 0.0 0.0 57.0 0.0"
         fill="#ff0000"
         fill-opacity="0.0"
         fill-rule="evenodd"
         stroke="none"
         id="path19" />
    </g>
  </defs>
</svg>
