<?xml version="1.0" encoding="UTF-8" standalone="no"?>
<svg xmlns:ffdec="https://www.free-decompiler.com/flash" xmlns:xlink="http://www.w3.org/1999/xlink" ffdec:objectType="frame" height="21.75px" width="20.15px" xmlns="http://www.w3.org/2000/svg">
  <g transform="matrix(1.0, 0.0, 0.0, 1.0, 0.25, 0.25)">
    <use ffdec:characterId="57" height="21.75" transform="matrix(1.0, 0.0, 0.0, 1.0, -0.25, -0.25)" width="20.15" xlink:href="#shape0"/>
  </g>
  <defs>
    <g id="shape0" transform="matrix(1.0, 0.0, 0.0, 1.0, 0.25, 0.25)">
      <path d="M3.15 21.05 L1.45 17.0 Q0.0 13.55 0.0 9.65 0.0 5.25 3.4 2.45 6.4 0.0 10.25 0.0 13.4 0.0 16.25 1.35 19.65 3.05 19.65 5.75 19.65 8.3 18.35 12.5 L18.3 12.8 Q17.95 14.0 17.95 15.55 L18.15 18.05 17.0 18.65 Q11.7 22.25 4.45 21.3 L3.15 21.05" fill="#76533d" fill-rule="evenodd" stroke="none"/>
      <path d="M18.15 18.05 L17.95 15.55 Q17.95 14.0 18.3 12.8 L18.35 12.5 Q19.65 8.3 19.65 5.75 19.65 3.05 16.25 1.35 13.4 0.0 10.25 0.0 6.4 0.0 3.4 2.45 0.0 5.25 0.0 9.65 0.0 13.55 1.45 17.0 L3.15 21.05" ffdec:has-small-stroke="true" ffdec:original-stroke-width="0.5" fill="none" stroke="#000000" stroke-linecap="round" stroke-linejoin="round" stroke-width="1.0"/>
      <path d="M17.5 4.35 L19.65 5.85 Q19.65 8.4 18.35 12.5 L18.3 12.8 Q17.95 14.0 17.95 15.55 L18.15 18.05 17.0 18.65 Q11.7 22.25 4.45 21.3 L3.15 21.05 2.8 20.3 2.7 20.0 Q1.25 16.55 1.25 12.65 1.25 8.25 4.65 5.45 7.65 3.0 11.5 3.0 14.65 3.0 17.5 4.35" fill="#000000" fill-opacity="0.49803922" fill-rule="evenodd" stroke="none"/>
    </g>
  </defs>
</svg>
