<?xml version="1.0" encoding="UTF-8" standalone="no"?>
<svg xmlns:ffdec="https://www.free-decompiler.com/flash" xmlns:xlink="http://www.w3.org/1999/xlink" ffdec:objectType="frame" height="594.05px" width="838.65px" xmlns="http://www.w3.org/2000/svg">
  <g transform="matrix(1.0, 0.0, 0.0, 1.0, 17.8, 20.4)">
    <use ffdec:characterId="8150" height="594.05" transform="matrix(1.0, 0.0, 0.0, 1.0, -17.8, -20.4)" width="838.65" xlink:href="#shape0"/>
  </g>
  <defs>
    <g id="shape0" transform="matrix(1.0, 0.0, 0.0, 1.0, 17.8, 20.4)">
      <path d="M157.5 -19.65 L171.85 -20.3 Q176.6 -20.9 179.25 -17.0 178.85 -16.25 178.25 -16.05 L172.5 -13.65 Q159.6 -7.85 152.1 -16.65 150.05 -19.05 153.25 -20.0 L157.5 -19.65 M14.25 24.5 Q43.85 28.25 35.2 54.6 31.5 65.85 20.9 65.05 L19.0 64.8 Q16.55 64.4 13.8 63.4 -20.4 51.4 6.3 27.85 9.9 24.65 14.25 24.5 M21.95 195.05 Q-6.0 208.25 -15.35 183.15 -23.85 160.45 -2.75 152.75 34.95 157.0 26.65 189.6 25.75 193.25 21.95 195.05 M95.0 376.4 Q99.6 378.75 103.1 382.35 L104.25 383.7 Q106.45 413.9 78.0 405.85 68.25 403.05 69.9 392.15 71.85 379.05 85.25 374.95 90.45 374.05 95.0 376.4 M168.05 388.65 L168.9 387.95 168.45 389.25 168.05 388.65 M309.0 533.35 Q315.2 523.25 327.2 521.7 346.05 523.85 350.2 533.9 368.0 545.35 350.6 560.95 346.7 564.45 341.15 565.65 L338.05 566.2 Q329.0 571.05 315.25 562.45 297.85 551.6 309.0 533.35 M110.7 539.65 Q115.45 524.55 130.25 519.95 168.2 515.1 164.2 548.2 160.15 581.45 127.35 571.25 103.05 563.7 110.7 539.65 M613.9 494.6 Q609.3 475.8 629.2 473.95 L634.1 478.35 Q651.4 485.55 639.15 504.35 638.1 506.0 635.15 506.2 614.4 507.55 613.95 494.7 L613.9 494.6 M506.2 516.95 Q543.6 518.75 529.8 551.7 522.6 568.85 503.95 561.0 478.1 550.1 492.3 526.6 497.15 518.55 506.2 516.95 M517.6 522.8 Q521.7 525.35 524.65 528.0 521.45 524.6 517.6 522.8 M749.25 80.45 L749.2 80.75 749.25 80.75 749.25 80.45 M708.9 50.55 Q710.7 49.3 712.2 48.75 750.05 42.35 754.1 75.05 756.4 94.05 738.6 99.8 734.6 102.3 729.4 101.75 715.5 103.0 704.75 93.15 680.0 70.35 708.9 50.55 M788.1 138.35 Q792.9 137.55 796.15 138.4 799.7 139.3 801.45 142.05 832.05 150.55 814.4 180.25 800.5 203.65 779.85 184.75 776.45 181.65 774.4 178.35 771.2 177.1 768.85 173.55 766.5 169.95 766.0 165.35 764.15 148.65 777.35 140.45 778.95 139.45 780.2 139.0 L788.1 138.35" fill="#c8fa42" fill-rule="evenodd" stroke="none"/>
      <path d="M407.35 290.65 L407.6 290.4 408.7 291.7 407.35 290.65 M423.85 282.8 L423.8 282.75 423.95 282.35 423.85 282.8 M306.15 185.25 L307.5 185.65 306.15 185.55 306.15 185.25 M153.75 451.3 L153.5 451.6 153.65 451.15 153.75 451.3" fill="#698e03" fill-rule="evenodd" stroke="none"/>
      <path d="M640.95 291.0 Q661.7 303.85 646.4 317.05 L643.75 321.5 Q642.45 323.5 638.95 323.55 608.85 324.1 619.45 295.75 L620.5 295.15 Q625.3 293.25 630.4 292.55 L632.95 292.0 636.05 293.05 640.95 291.0" fill="#c8fa42" fill-rule="evenodd" stroke="none"/>
    </g>
  </defs>
</svg>
