<?xml version="1.0" encoding="UTF-8" standalone="no"?>
<svg xmlns:ffdec="https://www.free-decompiler.com/flash" xmlns:xlink="http://www.w3.org/1999/xlink" ffdec:objectType="frame" height="527.15px" width="730.95px" xmlns="http://www.w3.org/2000/svg">
  <g transform="matrix(1.0, 0.0, 0.0, 1.0, -100.4, 31.3)">
    <use ffdec:characterId="8148" height="527.15" transform="matrix(1.0, 0.0, 0.0, 1.0, 100.4, -31.3)" width="730.95" xlink:href="#shape0"/>
  </g>
  <defs>
    <g id="shape0" transform="matrix(1.0, 0.0, 0.0, 1.0, -100.4, 31.3)">
      <path d="M168.05 388.65 L168.9 387.95 168.45 389.25 168.05 388.65" fill="#c8fa42" fill-rule="evenodd" stroke="none"/>
      <path d="M423.85 282.8 L423.8 282.75 423.95 282.35 423.85 282.8 M407.35 290.65 L407.6 290.4 408.7 291.7 407.35 290.65 M306.15 185.25 L307.5 185.65 306.15 185.55 306.15 185.25 M153.75 451.3 L153.5 451.6 153.65 451.15 153.75 451.3" fill="#698e03" fill-rule="evenodd" stroke="none"/>
      <path d="M569.6 -31.3 L590.2 -31.25 589.9 73.55 589.9 74.05 Q589.35 84.8 584.3 96.95 L584.35 96.95 Q573.8 122.35 550.7 129.9 528.6 137.25 507.0 133.5 486.2 129.85 476.6 119.2 450.5 91.9 411.95 75.5 371.7 58.25 329.5 58.25 243.15 58.25 182.05 119.4 153.85 147.65 138.65 181.25 120.95 220.5 121.0 266.8 121.0 353.05 182.05 414.2 243.15 475.25 329.5 475.25 414.15 475.25 474.7 416.25 L475.2 415.8 Q479.85 410.35 482.2 402.65 L482.2 402.7 Q486.5 387.7 474.3 376.05 L474.3 376.0 Q461.25 363.7 448.3 366.05 440.45 368.0 433.5 375.0 388.85 419.5 325.9 419.5 262.95 419.5 218.3 375.0 L218.25 375.0 Q173.65 330.25 173.65 267.3 173.7 227.4 191.7 194.75 L191.65 194.75 Q201.75 176.2 218.3 159.75 240.05 137.95 267.6 126.9 293.25 116.5 325.45 115.05 350.05 113.9 363.55 128.85 L363.6 128.85 Q375.2 141.05 375.9 160.0 376.9 188.55 351.45 200.3 344.15 203.7 335.2 205.1 L334.65 205.15 326.95 205.85 326.8 205.85 Q301.0 205.75 282.5 224.3 264.05 242.65 264.05 268.65 264.05 294.65 282.5 313.1 300.85 331.5 326.85 331.5 341.15 331.5 350.95 327.75 L351.2 327.65 Q358.0 325.15 363.7 322.0 L363.75 321.95 Q374.85 315.65 380.45 307.6 L380.5 307.6 Q383.2 303.5 388.55 293.65 L388.55 293.6 Q393.4 284.6 397.6 280.6 412.45 263.5 434.1 264.3 L831.35 264.15 831.35 284.75 433.75 284.9 433.45 284.9 Q421.2 284.6 412.8 294.5 L412.15 295.25 Q409.7 297.8 406.65 303.4 L406.7 303.4 Q400.7 314.5 397.55 319.15 L397.55 319.1 Q389.75 330.9 373.85 339.95 L373.8 339.95 Q366.75 343.9 358.3 347.0 345.5 352.1 326.85 352.1 292.25 352.1 267.9 327.65 L267.95 327.65 Q243.45 303.15 243.45 268.65 243.45 234.15 267.95 209.7 L267.95 209.75 Q292.55 185.1 326.85 185.25 L326.95 185.25 332.2 184.7 332.4 184.7 332.55 184.65 Q338.15 183.7 342.8 181.6 355.9 175.55 355.3 160.75 354.9 149.95 348.55 142.95 340.55 135.0 326.4 135.65 L326.35 135.65 Q297.95 136.9 275.3 146.0 251.55 155.55 232.85 174.3 218.55 188.6 209.75 204.65 L209.75 204.7 Q194.2 232.9 194.25 267.3 194.25 321.75 232.85 360.4 L232.85 360.45 Q271.45 398.9 325.9 398.9 380.3 398.9 418.9 360.45 L418.95 360.4 Q430.45 348.8 443.7 345.95 466.4 340.1 488.5 361.1 L488.55 361.1 Q510.2 381.8 501.9 408.65 L501.9 408.7 Q498.0 421.45 489.95 430.25 L488.65 431.4 Q422.25 495.85 329.5 495.85 234.65 495.85 167.5 428.75 L167.45 428.75 Q100.4 361.55 100.4 266.8 100.45 215.9 119.85 172.8 136.45 135.85 167.45 104.85 L167.5 104.85 Q234.65 37.65 329.5 37.65 375.8 37.65 420.05 56.55 462.7 74.7 491.5 105.0 497.7 110.95 510.55 113.2 527.15 116.0 544.15 110.35 558.6 105.25 565.3 89.1 L565.3 89.05 Q568.75 80.7 569.3 73.3 L569.6 -31.3" fill="#ff77ee" fill-rule="evenodd" stroke="none"/>
    </g>
  </defs>
</svg>
