<?xml version="1.0" encoding="UTF-8" standalone="no"?>
<svg xmlns:ffdec="https://www.free-decompiler.com/flash" xmlns:xlink="http://www.w3.org/1999/xlink" ffdec:objectType="frame" height="607.7px" width="716.8px" xmlns="http://www.w3.org/2000/svg">
  <g transform="matrix(1.0, 0.0, 0.0, 1.0, 27.0, 33.0)">
    <use ffdec:characterId="8152" height="607.7" transform="matrix(1.0, 0.0, 0.0, 1.0, -27.0, -33.0)" width="716.8" xlink:href="#shape0"/>
  </g>
  <defs>
    <g id="shape0" transform="matrix(1.0, 0.0, 0.0, 1.0, 27.0, 33.0)">
      <path d="M686.25 -25.0 L685.05 -22.1 681.75 -22.6 669.75 2.65 669.5 15.15 665.75 21.9 654.5 63.65 630.75 120.4 609.0 148.2 577.75 177.45 523.25 206.2 509.75 210.6 509.4 209.9 509.3 210.75 489.2 217.3 487.9 219.25 Q475.6 237.0 456.65 237.0 443.1 237.0 435.3 232.55 L418.85 235.25 Q401.55 243.95 384.2 252.6 L370.8 302.35 337.95 316.75 338.2 315.65 291.3 305.75 294.7 304.15 293.0 301.65 292.95 301.3 Q289.9 283.65 276.4 273.8 L280.95 265.6 274.95 256.0 292.95 222.0 348.95 209.0 366.0 220.0 378.45 218.45 405.7 209.75 406.55 211.7 406.9 209.4 409.9 208.45 410.65 209.1 411.05 208.05 417.75 206.0 418.5 206.45 418.25 205.85 427.9 203.05 428.0 202.65 Q431.1 193.0 437.2 188.7 L445.5 182.7 Q449.7 180.05 453.6 178.65 L460.45 178.25 Q471.05 178.25 476.4 180.7 L477.2 181.05 477.05 181.05 477.3 181.1 Q482.2 183.15 486.8 183.15 492.0 183.15 495.8 181.9 L498.55 181.65 523.3 167.65 560.55 152.15 571.05 140.9 585.8 126.9 603.8 103.65 610.5 86.3 613.05 83.2 613.3 82.9 622.4 51.05 623.9 46.6 623.9 46.55 630.1 32.65 632.0 33.4 630.6 31.45 631.7 28.65 633.05 28.55 632.3 26.95 634.15 21.7 636.55 21.1 634.6 20.45 636.3 15.65 639.3 -0.85 646.3 -14.6 644.85 -18.4 645.8 -21.0 Q648.05 -27.15 650.45 -33.0 L689.8 -33.0 686.25 -25.0 M240.3 316.9 Q242.85 323.7 249.55 329.15 252.2 332.65 255.65 335.95 257.9 338.1 260.15 339.2 L246.4 355.9 Q243.0 340.2 227.05 332.05 L240.3 316.9 M197.1 368.05 Q203.25 382.45 216.3 392.9 L214.9 394.55 211.5 398.75 211.05 399.3 208.25 402.7 202.0 410.5 201.4 411.25 Q196.5 405.9 189.95 401.95 184.3 395.55 177.65 390.75 L197.1 368.05 M173.35 447.0 L173.15 447.2 173.1 447.0 173.35 447.0 M162.55 454.45 L159.0 457.25 Q158.55 457.65 158.05 458.0 L144.95 468.4 117.25 492.05 Q116.35 498.3 113.7 503.3 106.25 517.3 87.2 517.3 L76.05 516.3 16.4 551.8 -20.3 568.15 -19.35 571.2 -24.6 573.6 -27.0 574.7 -27.0 534.85 -17.3 530.2 -17.3 533.45 3.55 523.0 21.4 511.6 48.2 501.2 59.5 493.35 Q61.0 489.65 63.8 485.5 70.25 475.8 79.55 470.05 90.85 463.1 100.1 465.15 L101.75 463.95 143.5 430.1 Q149.35 443.0 161.65 452.45 L163.5 453.7 162.55 454.45" fill="#d04018" fill-rule="evenodd" stroke="none"/>
    </g>
  </defs>
</svg>
