<?xml version="1.0" encoding="UTF-8" standalone="no"?>
<svg xmlns:ffdec="https://www.free-decompiler.com/flash" xmlns:xlink="http://www.w3.org/1999/xlink" ffdec:objectType="frame" height="114.5px" width="418.25px" xmlns="http://www.w3.org/2000/svg">
  <g transform="matrix(1.0, 0.0, 0.0, 1.0, 1.95, 9.9)">
    <use ffdec:characterId="5" height="114.5" transform="matrix(1.0, 0.0, 0.0, 1.0, -1.95, -9.9)" width="418.25" xlink:href="#shape0"/>
  </g>
  <defs>
    <g id="shape0" transform="matrix(1.0, 0.0, 0.0, 1.0, 1.95, 9.9)">
      <path d="M338.7 51.2 L339.5 50.4 339.8 49.45 338.7 51.2 M129.2 -4.85 L129.5 -3.45 128.75 -0.35 127.95 3.05 125.65 2.95 125.75 3.95 Q125.75 4.85 124.95 5.55 L128.25 5.8 129.5 5.65 131.3 5.7 Q131.85 2.45 132.5 -0.15 133.7 -5.1 136.15 -8.8 L136.65 -8.2 Q137.2 -2.05 137.95 0.8 L138.55 2.9 137.05 7.7 146.4 9.8 146.85 8.0 Q146.45 8.15 145.9 8.65 L144.95 8.95 143.65 8.75 142.8 8.55 142.7 6.65 Q142.7 5.4 144.5 3.05 146.25 0.65 146.25 -1.15 146.25 -3.9 150.45 -3.9 151.65 -3.9 156.15 1.55 156.15 2.55 154.85 5.85 153.55 9.2 153.15 9.2 L152.25 9.15 150.25 10.8 163.4 14.8 163.85 12.45 Q162.05 13.8 161.25 12.6 160.8 11.85 160.8 10.6 161.15 7.3 162.15 4.1 164.2 -2.3 167.6 -2.3 169.25 -2.3 170.35 -1.6 171.45 -0.9 171.45 0.05 L171.2 1.15 Q170.9 1.8 170.9 2.25 171.5 2.0 172.15 2.25 172.95 2.6 172.95 3.45 172.95 9.1 170.7 12.5 L167.35 16.15 169.2 16.85 Q170.25 15.15 171.25 14.35 172.7 13.2 174.75 13.2 176.7 13.2 178.15 14.05 179.8 15.0 179.8 16.65 L179.45 17.95 Q179.1 18.75 179.1 19.45 180.55 19.35 181.05 20.1 L181.65 21.65 Q182.5 23.95 186.9 23.55 L185.9 23.0 Q186.1 17.25 186.55 14.85 187.3 11.05 190.9 6.7 L191.4 7.3 Q191.65 10.25 192.55 14.5 L193.35 18.4 Q193.35 19.9 192.25 22.3 191.25 24.5 190.85 24.5 190.7 24.5 189.65 25.85 194.65 28.4 204.1 32.65 204.25 30.5 204.5 29.85 L203.65 30.25 202.35 30.7 201.2 30.55 200.45 30.35 200.45 29.5 200.35 28.5 Q200.35 26.4 202.15 24.7 203.9 23.0 203.9 20.7 203.9 17.9 208.2 17.9 L210.3 19.85 212.25 21.8 213.55 21.75 213.8 22.75 212.2 29.05 Q211.75 31.0 210.65 31.0 210.4 31.0 208.9 32.4 207.4 33.8 206.85 33.8 L206.75 33.8 214.75 36.9 215.15 36.0 Q214.65 34.55 216.45 29.75 218.5 24.3 221.5 24.3 223.25 24.3 224.35 25.0 225.35 25.65 225.35 26.65 L225.1 27.8 224.8 28.9 Q226.85 28.9 226.85 30.05 226.85 31.15 226.1 34.25 L225.25 38.15 230.3 38.15 Q233.5 38.6 233.5 41.7 L233.3 42.55 Q233.1 42.65 233.05 42.7 L236.65 43.6 236.9 42.0 Q237.15 40.85 237.3 40.65 L234.0 40.65 234.05 39.1 233.95 37.85 Q234.7 35.3 235.85 32.8 238.15 27.85 240.3 27.85 242.05 27.85 243.1 28.45 244.25 29.1 244.25 30.3 244.25 31.3 243.8 32.3 245.0 32.3 245.45 32.7 245.9 33.1 245.9 34.1 L245.25 37.2 244.55 40.65 242.25 40.65 242.4 41.65 Q242.4 42.55 241.6 43.3 L244.4 43.4 245.95 43.2 Q247.0 43.05 248.05 43.2 L248.85 37.4 Q249.8 32.4 252.35 28.55 253.15 33.5 254.3 37.15 L255.2 40.2 Q255.2 43.25 254.45 44.55 L253.05 46.3 252.05 44.9 252.1 44.7 251.4 44.65 Q251.1 44.65 251.1 45.25 251.1 46.25 252.05 47.35 L263.25 47.85 Q263.35 45.75 263.65 44.95 L262.75 45.6 Q262.35 45.95 261.8 45.95 L260.5 45.8 259.6 45.6 Q259.45 44.75 259.45 43.75 259.45 41.8 261.1 39.85 262.75 37.95 262.75 36.25 262.75 34.7 262.95 34.35 263.7 32.95 266.85 32.95 268.15 32.95 272.65 38.35 272.65 41.45 269.8 45.95 268.5 45.95 266.75 48.1 L280.2 48.4 Q280.1 45.55 280.6 42.8 278.7 44.0 278.0 43.1 277.45 42.35 277.45 39.95 277.45 37.15 279.45 32.8 281.65 28.0 283.8 28.0 285.55 28.0 286.6 28.6 287.75 29.25 287.75 30.4 L287.5 31.4 287.25 32.4 Q288.5 31.9 289.0 32.55 289.35 33.0 289.35 34.45 289.35 35.45 288.6 38.45 L289.75 37.6 Q292.1 36.5 294.2 36.5 302.45 43.7 302.45 43.85 302.45 45.45 301.8 47.2 L302.9 47.25 303.15 46.1 Q303.3 42.15 303.55 40.35 303.9 37.25 307.3 32.2 L307.6 32.5 307.9 32.75 Q308.65 38.85 309.45 41.75 L310.1 43.85 309.8 45.45 309.15 47.5 320.95 48.45 Q320.95 44.25 321.25 42.8 L320.4 43.3 319.1 43.75 317.95 43.6 317.2 43.45 317.15 42.6 317.05 41.6 Q317.05 39.05 318.7 37.35 320.35 35.65 320.35 34.1 320.35 32.45 321.05 31.7 322.0 30.75 324.5 30.75 325.7 30.75 327.15 32.65 L328.4 34.5 329.4 34.45 Q330.35 34.65 330.35 36.0 330.35 38.05 328.9 41.1 L327.4 43.75 Q327.1 43.75 325.65 45.25 324.25 46.7 323.7 46.7 323.1 46.7 323.1 46.9 L323.1 48.7 331.75 49.95 Q332.75 46.5 333.1 43.15 L333.35 39.15 Q333.55 37.7 334.4 37.25 335.35 36.75 338.1 36.75 339.75 36.75 340.85 37.35 342.0 38.0 342.0 38.9 L341.75 40.05 341.5 41.15 Q342.75 40.7 343.25 41.3 343.6 41.75 343.6 43.2 343.6 44.95 342.3 50.4 L347.55 50.3 Q350.65 50.7 350.65 53.65 350.65 54.1 367.1 61.35 384.95 69.3 387.6 70.85 395.15 75.25 404.7 86.35 414.5 97.7 416.3 104.6 L-1.95 104.6 -1.95 17.4 Q43.35 2.9 88.3 2.9 L120.05 4.9 120.4 3.7 120.7 2.8 117.4 2.65 117.4 0.65 Q117.95 -2.2 119.0 -4.75 121.15 -9.9 124.15 -9.9 125.8 -9.9 126.9 -9.2 128.0 -8.55 128.0 -7.6 L127.75 -6.1 127.5 -5.35 Q128.85 -5.25 129.2 -4.85 M284.5 42.45 Q283.8 43.2 283.65 43.85 L283.15 45.4 284.5 43.5 Q285.6 41.8 285.55 40.7 285.25 41.65 284.5 42.45 M288.25 39.75 L288.1 40.3 Q288.85 42.15 286.15 44.55 282.85 47.4 282.55 48.35 L284.35 48.3 286.85 44.55 Q288.3 42.65 288.4 40.8 L288.25 39.75 M322.45 43.0 L322.75 42.1 322.4 42.85 322.45 43.0 M283.05 41.85 L282.9 41.35 Q281.6 42.1 281.7 42.8 L281.8 44.0 282.0 43.45 283.05 41.85 M206.05 29.2 L205.65 29.9 205.7 30.05 206.05 29.2 M207.75 30.2 L207.35 30.75 207.2 31.05 207.75 30.2 M241.45 40.65 L240.5 40.65 239.7 43.25 239.65 43.45 239.9 42.9 Q240.75 41.25 241.45 40.65 M238.95 40.65 L238.3 40.65 238.15 42.15 238.95 40.65 M227.6 41.15 L227.1 40.55 226.25 40.75 227.6 41.15 M221.25 39.2 L222.25 39.5 222.5 38.45 222.8 37.1 221.25 39.2 M188.35 23.0 L188.3 24.75 Q189.0 23.5 188.65 23.25 L188.35 23.0 M148.35 7.35 L148.05 7.6 148.0 8.3 148.35 7.35 M168.9 11.2 L167.6 12.1 Q166.75 12.7 166.35 15.1 167.95 13.2 168.9 11.2 M165.8 11.6 L165.75 11.85 Q165.1 11.85 165.1 12.45 L164.95 13.7 165.3 13.0 166.35 11.55 166.2 11.05 165.8 11.6 M121.55 4.45 L122.0 3.35 Q122.1 2.85 121.7 2.8 L121.5 4.3 121.55 4.45 M123.05 5.3 L123.2 5.3 124.85 2.95 Q124.0 3.55 123.65 4.3 L123.05 5.3" fill="#000000" fill-rule="evenodd" stroke="none"/>
    </g>
  </defs>
</svg>
