<?xml version="1.0" encoding="UTF-8" standalone="no"?>
<svg xmlns:ffdec="https://www.free-decompiler.com/flash" xmlns:xlink="http://www.w3.org/1999/xlink" ffdec:objectType="frame" height="32.6px" width="34.15px" xmlns="http://www.w3.org/2000/svg">
  <g transform="matrix(1.0, 0.0, 0.0, 1.0, 1.8, 1.6)">
    <use ffdec:characterId="5711" height="31.55" transform="matrix(1.0, 0.0, 0.0, 1.0, -1.25, -1.05)" width="33.05" xlink:href="#shape0"/>
    <use ffdec:characterId="5713" height="32.6" transform="matrix(1.0, 0.0, 0.0, 1.0, -1.8, -1.6)" width="34.15" xlink:href="#shape1"/>
    <use ffdec:characterId="5849" height="19.85" transform="matrix(1.0, 0.0, 0.0, 1.0, 3.95, 5.15)" width="21.8" xlink:href="#shape2"/>
  </g>
  <defs>
    <g id="shape0" transform="matrix(1.0, 0.0, 0.0, 1.0, 1.25, 1.05)">
      <path d="M0.85 29.5 L-0.25 0.0 30.7 2.0 28.1 28.55 0.85 29.5" fill="#ffffff" fill-opacity="0.49803922" fill-rule="evenodd" stroke="none"/>
      <path d="M0.85 29.5 L-0.25 0.0 30.7 2.0 28.1 28.55 0.85 29.5 Z" fill="none" stroke="#000000" stroke-linecap="butt" stroke-linejoin="miter-clip" stroke-miterlimit="3.0" stroke-opacity="0.49803922" stroke-width="2.0"/>
    </g>
    <g id="shape1" transform="matrix(1.0, 0.0, 0.0, 1.0, 1.8, 1.6)">
      <path d="M0.85 29.5 L-0.25 0.0 30.7 2.0 28.1 28.55 0.85 29.5 Z" fill="none" stroke="#ffffff" stroke-linecap="butt" stroke-linejoin="miter-clip" stroke-miterlimit="3.0" stroke-width="3.0"/>
    </g>
    <g id="shape2" transform="matrix(1.0, 0.0, 0.0, 1.0, -3.95, -5.15)">
      <path d="M10.35 11.85 L10.35 11.1 15.85 7.1 15.85 23.1 10.35 19.15 10.35 18.5 4.95 18.5 4.95 11.85 10.35 11.85 10.35 18.5 10.35 11.85" fill="#fe9800" fill-rule="evenodd" stroke="none"/>
      <path d="M22.45 6.9 Q27.1 14.2 22.45 21.8 M19.0 9.15 Q22.8 14.5 19.0 19.55" fill="none" stroke="#70381f" stroke-linecap="butt" stroke-linejoin="miter-clip" stroke-miterlimit="3.0" stroke-opacity="0.9882353" stroke-width="2.0"/>
      <path d="M10.35 11.85 L10.35 11.1 15.85 7.1 15.85 23.1 10.35 19.15 10.35 18.5 4.95 18.5 4.95 11.85 10.35 11.85 10.35 18.5" fill="none" stroke="#70381f" stroke-linecap="round" stroke-linejoin="miter-clip" stroke-miterlimit="3.0" stroke-opacity="0.9882353" stroke-width="2.0"/>
    </g>
  </defs>
</svg>
