<?xml version="1.0" encoding="UTF-8" standalone="no"?>
<svg xmlns:ffdec="https://www.free-decompiler.com/flash" xmlns:xlink="http://www.w3.org/1999/xlink" ffdec:objectType="frame" height="18.75px" width="29.35px" xmlns="http://www.w3.org/2000/svg">
  <g transform="matrix(1.0, 0.0, 0.0, 1.0, 0.25, 0.05)">
    <use ffdec:characterId="65" height="18.75" transform="matrix(1.0, 0.0, 0.0, 1.0, -0.25, -0.05)" width="29.35" xlink:href="#shape0"/>
  </g>
  <defs>
    <g id="shape0" transform="matrix(1.0, 0.0, 0.0, 1.0, 0.25, 0.05)">
      <path d="M4.55 5.4 Q15.9 1.0 28.3 0.1 L28.85 0.2 Q28.45 10.8 19.9 15.55 14.65 18.45 8.65 18.45 L3.65 18.15 2.65 17.85 Q1.65 17.45 1.0 16.7 0.2 15.75 0.0 14.2 L4.25 6.15 4.3 6.1 4.45 5.75 4.55 5.4" fill="#76533d" fill-rule="evenodd" stroke="none"/>
      <path d="M4.55 5.4 L4.45 5.75 4.3 6.1 4.25 6.15 0.0 14.2 Q0.2 15.75 1.0 16.7 1.65 17.45 2.65 17.85 L3.65 18.15 8.65 18.45 Q14.65 18.45 19.9 15.55 28.45 10.8 28.85 0.2" ffdec:has-small-stroke="true" ffdec:original-stroke-width="0.5" fill="none" stroke="#000000" stroke-linecap="round" stroke-linejoin="round" stroke-width="1.0"/>
      <path d="M28.3 0.1 L28.85 0.2 Q26.75 9.95 20.3 13.65 13.85 17.35 10.05 17.5 L4.55 17.35 3.6 17.05 Q2.65 16.7 2.0 15.95 1.25 15.05 1.65 13.95 L5.15 5.9 5.2 5.85 5.35 5.5 5.45 5.15 Q16.35 0.95 28.3 0.1" fill="#000000" fill-opacity="0.49803922" fill-rule="evenodd" stroke="none"/>
    </g>
  </defs>
</svg>
