<?xml version="1.0" encoding="UTF-8" standalone="no"?>
<svg xmlns:ffdec="https://www.free-decompiler.com/flash" xmlns:xlink="http://www.w3.org/1999/xlink" ffdec:objectType="frame" height="26.45px" width="30.9px" xmlns="http://www.w3.org/2000/svg">
  <g transform="matrix(1.0, 0.0, 0.0, 1.0, 2.55, 2.35)">
    <use ffdec:characterId="85" height="26.45" transform="matrix(1.0, 0.0, 0.0, 1.0, -2.55, -2.35)" width="30.9" xlink:href="#shape0"/>
  </g>
  <defs>
    <g id="shape0" transform="matrix(1.0, 0.0, 0.0, 1.0, 2.55, 2.35)">
      <path d="M28.1 5.45 Q16.95 19.65 1.15 23.85 L1.05 23.85 Q-2.6 22.8 -2.3 19.25 -2.3 9.1 5.0 -0.1 20.4 -6.55 28.1 5.45" fill="#76533d" fill-rule="evenodd" stroke="none"/>
      <path d="M28.1 5.45 Q16.95 19.65 1.15 23.85 L1.05 23.85 Q-2.6 22.8 -2.3 19.25 -2.3 9.1 5.0 -0.1" ffdec:has-small-stroke="true" ffdec:original-stroke-width="0.5" fill="none" stroke="#000000" stroke-linecap="round" stroke-linejoin="round" stroke-width="1.0"/>
      <path d="M2.45 20.9 L2.35 20.9 Q-0.75 20.05 -0.5 17.25 -0.5 9.45 6.05 -0.55 19.4 -5.65 26.75 3.6 15.95 17.55 2.45 20.9" fill="#000000" fill-opacity="0.49803922" fill-rule="evenodd" stroke="none"/>
    </g>
  </defs>
</svg>
