<?xml version="1.0" encoding="UTF-8" standalone="no"?>
<svg xmlns:ffdec="https://www.free-decompiler.com/flash" xmlns:xlink="http://www.w3.org/1999/xlink" ffdec:objectType="frame" height="21.0px" width="27.25px" xmlns="http://www.w3.org/2000/svg">
  <g transform="matrix(1.0, 0.0, 0.0, 1.0, -1.05, 2.3)">
    <use ffdec:characterId="79" height="21.0" transform="matrix(1.0, 0.0, 0.0, 1.0, 1.05, -2.3)" width="27.25" xlink:href="#shape0"/>
  </g>
  <defs>
    <g id="shape0" transform="matrix(1.0, 0.0, 0.0, 1.0, -1.05, 2.3)">
      <path d="M28.05 4.95 Q25.2 17.75 7.55 18.45 4.2 18.6 2.15 15.6 -0.45 8.2 5.1 -0.35 20.65 -6.05 28.05 4.95" fill="#76533d" fill-rule="evenodd" stroke="none"/>
      <path d="M28.05 4.95 Q25.2 17.75 7.55 18.45 4.2 18.6 2.15 15.6 -0.45 8.2 5.1 -0.35" ffdec:has-small-stroke="true" ffdec:original-stroke-width="0.5" fill="none" stroke="#000000" stroke-linecap="round" stroke-linejoin="round" stroke-width="1.0"/>
      <path d="M4.25 0.95 L5.1 -0.35 Q20.65 -6.05 28.05 4.95 L28.0 5.15 Q23.55 15.85 8.3 16.5 5.35 16.6 3.5 13.95 1.55 8.3 4.25 0.95" fill="#000000" fill-opacity="0.49803922" fill-rule="evenodd" stroke="none"/>
    </g>
  </defs>
</svg>
