<?xml version="1.0" encoding="UTF-8" standalone="no"?>
<svg xmlns:ffdec="https://www.free-decompiler.com/flash" xmlns:xlink="http://www.w3.org/1999/xlink" ffdec:objectType="frame" height="5.55px" width="16.4px" xmlns="http://www.w3.org/2000/svg">
  <g transform="matrix(1.0, 0.0, 0.0, 1.0, 0.25, 0.0)">
    <use ffdec:characterId="131" height="5.55" transform="matrix(1.0, 0.0, 0.0, 1.0, -0.25, 0.0)" width="16.4" xlink:href="#shape0"/>
  </g>
  <defs>
    <g id="shape0" transform="matrix(1.0, 0.0, 0.0, 1.0, 0.25, 0.0)">
      <path d="M0.0 3.7 Q1.3 1.2 4.15 1.15 L9.5 0.55 12.75 0.0 16.0 0.4 15.9 0.7 Q13.0 4.45 9.7 4.75 L6.9 5.25 4.5 5.3 4.45 5.3 Q1.6 5.1 0.0 3.7" fill="#76533d" fill-rule="evenodd" stroke="none"/>
      <path d="M15.9 0.7 Q13.0 4.45 9.7 4.75 L6.9 5.25 4.5 5.3 M4.45 5.3 Q1.6 5.1 0.0 3.7" ffdec:has-small-stroke="true" ffdec:original-stroke-width="0.5" fill="none" stroke="#000000" stroke-linecap="round" stroke-linejoin="round" stroke-width="1.0"/>
      <path d="M15.4 0.35 Q12.7 3.5 9.7 3.75 L6.9 4.25 4.45 4.3 Q1.95 4.1 0.4 3.05 1.7 1.2 4.15 1.15 L9.5 0.55 12.75 0.0 15.4 0.35" fill="#000000" fill-opacity="0.49803922" fill-rule="evenodd" stroke="none"/>
    </g>
  </defs>
</svg>
