<?xml version="1.0" encoding="UTF-8" standalone="no"?>
<svg
   ffdec:objectType="frame"
   height="47.65px"
   width="49.9px"
   version="1.1"
   id="svg28"
   sodipodi:docname="1.svg"
   inkscape:version="1.4 (e7c3feb1, 2024-10-09)"
   xmlns:inkscape="http://www.inkscape.org/namespaces/inkscape"
   xmlns:sodipodi="http://sodipodi.sourceforge.net/DTD/sodipodi-0.dtd"
   xmlns:xlink="http://www.w3.org/1999/xlink"
   xmlns="http://www.w3.org/2000/svg"
   xmlns:svg="http://www.w3.org/2000/svg"
   xmlns:ffdec="https://www.free-decompiler.com/flash">
  <sodipodi:namedview
     id="namedview28"
     pagecolor="#505050"
     bordercolor="#ffffff"
     borderopacity="1"
     inkscape:showpageshadow="0"
     inkscape:pageopacity="0"
     inkscape:pagecheckerboard="1"
     inkscape:deskcolor="#505050"
     inkscape:zoom="4.5097951"
     inkscape:cx="11.641327"
     inkscape:cy="28.382664"
     inkscape:window-width="1680"
     inkscape:window-height="889"
     inkscape:window-x="0"
     inkscape:window-y="31"
     inkscape:window-maximized="1"
     inkscape:current-layer="g5" />
  <g
     transform="matrix(1.0, 0.0, 0.0, 1.0, 1.8, 1.6)"
     id="g5">
    <filter
       id="filter0"
       x="-0.029112688"
       y="-0.012820513"
       width="1.0568151"
       height="1.0377282">
      <feOffset
         dx="1.41423199166404"
         dy="1.4141951328419862"
         in="SourceGraphic"
         result="filterResult0"
         id="feOffset1" />
      <feColorMatrix
         in="filterResult0"
         result="filterResult1"
         type="matrix"
         values="0 0 0 0 0.0,0 0 0 0 0.0,0 0 0 0 0.0,0 0 0 1 0"
         id="feColorMatrix1" />
      <feColorMatrix
         in="filterResult1"
         result="filterResult2"
         type="matrix"
         values="1 0 0 0 0,0 1 0 0 0,0 0 1 0 0,0 0 0 0.19921875 0"
         id="feColorMatrix2" />
      <feComposite
         in="SourceGraphic"
         in2="filterResult2"
         operator="over"
         result="filterResult3"
         id="feComposite2" />
    </filter>
    <g
       id="use2"
       transform="matrix(-0.35,0,0,-0.35,21.8995,19.8493)"
       style="filter:url(#filter0)">
      <g
         id="use30">
        <path
           d="m -30.25,32.6 -7.1,-7.5 9.4,-8.1 7.1,4.55 q 8.3,5.2 14.6,7.8 3,1.3 8.15,1.9 l 7.85,0.7 Q 17.9,33.2 16.9,39.1 15.7,45.7 2.4,45.65 -8.5,45.7 -17,42.35 -22.15,40.4 -30.25,32.6"
           fill="#bf7926"
           fill-rule="evenodd"
           stroke="none"
           id="path31" />
        <path
           d="m -30.65,32.3 -7.05,-7.5 9.35,-8.1 7.1,4.55 q 8.3,5.2 14.6,7.8 2.95,1.3 8.05,1.9 0.5,8.15 2.8,14.4 H 2.05 Q -8.85,45.4 -17.4,42.05 -22.55,40.1 -30.65,32.3"
           fill="#f73600"
           fill-rule="evenodd"
           stroke="none"
           id="path32" />
        <path
           d="m -30.35,32.65 q 8.1,7.75 13.25,9.8 8.5,3.25 19.4,3.25 l 2.2,0.05 Q 15.75,45.2 16.8,39.2 17.8,33.3 9.65,32.05 L 1.8,31.3 1.7,31.25 l -2.25,-0.3 -2.1,-0.4 -3.75,-1.1 q -6.25,-2.65 -14.55,-7.85 -3.55,-2.3 -7.1,-4.5 l -9.4,8.05 z"
           fill="none"
           stroke="#6d1800"
           stroke-linecap="round"
           stroke-linejoin="round"
           stroke-width="3"
           id="path33" />
        <path
           d="m 1.8,-27.35 -9.1,4.85 6.4,10.65 8.1,-2 q 9.5,-2.3 16.35,-2.8 3.25,-0.25 8.35,0.8 l 7.65,1.8 q 8.1,1.4 9.1,-4.5 0.95,-6.65 -11.7,-10.85 -10.3,-3.4 -19.5,-3 -5.5,0.2 -15.65,5.05"
           fill="#bf7926"
           fill-rule="evenodd"
           stroke="none"
           id="path34" />
        <path
           d="m 1.4,-27.2 -9.1,4.85 6.4,10.65 8.05,-2.05 q 9.55,-2.25 16.4,-2.8 3.2,-0.25 8.2,0.85 3.1,-7.65 7.2,-12.8 l -2.05,-0.75 q -10.3,-3.45 -19.5,-3 -5.45,0.2 -15.6,5.05"
           fill="#f73600"
           fill-rule="evenodd"
           stroke="none"
           id="path35" />
        <path
           d="m 1.75,-27.4 q 10.2,-4.85 15.7,-5.15 9.2,-0.35 19.45,3.1 l 2.05,0.7 q 10.5,4.05 9.65,10.1 -0.95,5.85 -9.05,4.45 l -7.65,-1.75 h -0.15 l -2.25,-0.4 -2.1,-0.3 -3.9,-0.1 Q 16.7,-16.3 7.2,-14 l -8.15,2.05 -6.35,-10.6 q 4,-2.4 9.05,-4.85 z"
           fill="none"
           stroke="#6d1800"
           stroke-linecap="round"
           stroke-linejoin="round"
           stroke-width="3"
           id="path36" />
        <path
           d="m 8.5,-71.25 q 1.65,0 2.85,1.2 2.15,2.15 3.65,5.1 3.75,7.4 -1.15,12 l -0.05,0.05 q -2.2,2.25 -5.7,3.3 l -0.05,0.05 -5.3,0.95 q -2.65,0.35 -4.15,0.95 -1.8,0.65 -2.95,2.05 l -0.05,0.05 q -1.5,2.2 0.25,5.55 v 0.05 q 0.8,1.5 2.05,2.95 l 1.35,1.6 q 1,1.2 0.9,2.85 -0.1,1.65 -1.3,2.75 -1.3,1.05 -2.95,0.95 -1.6,-0.15 -2.7,-1.35 l -1.3,-1.55 -0.1,-0.1 q -1.75,-2.15 -2.95,-4.3 l -0.1,-0.1 q -4.5,-8.75 0.85,-14.45 l 0.05,-0.05 q 2.4,-2.95 6.1,-4.4 2.1,-0.8 5.85,-1.3 l 4.25,-0.8 H 5.9 q 1.35,-0.4 2.2,-1.25 0.7,-1.05 -0.25,-2.85 v -0.05 q -0.9,-1.7 -2.15,-3 -1.15,-1.15 -1.15,-2.8 0,-1.7 1.15,-2.85 1.2,-1.2 2.8,-1.2"
           fill="#f73600"
           fill-rule="evenodd"
           stroke="none"
           id="path37" />
        <path
           d="m 8.5,-71.25 q -1.6,0 -2.8,1.2 -1.15,1.15 -1.15,2.85 0,1.65 1.15,2.8 1.25,1.3 2.15,3 v 0.05 q 0.95,1.8 0.25,2.85 -0.85,0.85 -2.2,1.25 H 5.85 l -4.25,0.8 q -3.75,0.5 -5.85,1.3 -3.7,1.45 -6.1,4.4 l -0.05,0.05 q -5.35,5.7 -0.85,14.45 l 0.1,0.1 q 1.2,2.15 2.95,4.3 l 0.1,0.1 1.3,1.55 q 1.1,1.2 2.7,1.35 1.65,0.1 2.95,-0.95 1.2,-1.1 1.3,-2.75 0.1,-1.65 -0.9,-2.85 L -2.1,-37 q -1.25,-1.45 -2.05,-2.95 V -40 q -1.75,-3.35 -0.25,-5.55 l 0.05,-0.05 q 1.15,-1.4 2.95,-2.05 1.5,-0.6 4.15,-0.95 l 5.3,-0.95 0.05,-0.05 q 3.5,-1.05 5.7,-3.3 l 0.05,-0.05 q 4.9,-4.6 1.15,-12 -1.5,-2.95 -3.65,-5.1 -1.2,-1.2 -2.85,-1.2 z"
           fill="none"
           stroke="#6d1800"
           stroke-linecap="round"
           stroke-linejoin="round"
           stroke-width="3"
           id="path38" />
        <path
           d="m -52.3,11.45 q -2.2,-2.2 -2.1,-9.1 0.1,-6.75 2.1,-8.75 1.45,-1.45 8.15,-1.1 l 0.35,-1 q 2.95,-8.9 8.8,-14.75 6,-6 13.85,-9.15 7.65,-3.05 16.35,-3.05 8.75,0 16.4,3.05 7.8,3.15 13.85,9.15 5.85,5.85 8.8,14.75 l 0.3,1.05 q 7.15,-0.45 8.75,1.05 2,2 2.1,8.75 0.1,6.9 -2.1,9.1 -1.55,1.5 -6.8,1.4 -1.45,7.25 -8.45,12.1 -4.4,3.05 -10.7,4.95 -1.1,2.2 -6.2,3.9 -6.6,2.2 -15.95,2.2 -9.25,0 -15.85,-2.2 -5.1,-1.65 -6.25,-3.9 -6.3,-1.9 -10.7,-4.95 -7,-4.85 -8.45,-12.1 -4.8,0.05 -6.25,-1.4 z"
           fill="none"
           stroke="#6d1800"
           stroke-linecap="round"
           stroke-linejoin="round"
           stroke-width="6"
           id="path39" />
        <path
           d="M 33.35,-7.35 25.4,-6.4 v 17.85 l 7.75,1.15 q 8.2,0.8 10.1,-1.15 2.25,-2.2 2.1,-9.1 -0.1,-6.75 -2.1,-8.75 -1.6,-1.6 -9.9,-0.95"
           fill="#f73600"
           fill-rule="evenodd"
           stroke="none"
           id="path40" />
        <path
           d="m -42.35,-7.35 7.95,0.95 v 17.85 l -7.75,1.15 q -8.2,0.8 -10.1,-1.15 -2.25,-2.2 -2.1,-9.1 0.1,-6.75 2.1,-8.75 1.6,-1.6 9.9,-0.95"
           fill="#f73600"
           fill-rule="evenodd"
           stroke="none"
           id="path41" />
        <path
           d="M 43.7,9.4 Q 43.6,2.65 41.6,0.65 39.95,-0.95 31.7,-0.3 l -6.3,0.7 v 11.05 l 7.75,1.15 q 8.2,0.8 10.1,-1.15 l 0.45,-0.5 V 9.4"
           fill="#ad0303"
           fill-rule="evenodd"
           stroke="none"
           id="path42" />
        <path
           d="m -34.4,0.4 v 11.1 l -7.75,1.15 Q -50.3,13.4 -52.3,11.5 l -0.4,-0.55 V 9.4 q 0.15,-6.7 2.15,-8.7 1.6,-1.65 9.9,-1 l 6.25,0.7"
           fill="#ad0303"
           fill-rule="evenodd"
           stroke="none"
           id="path43" />
        <path
           d="m 11.65,-32.4 q 7.8,3.15 13.85,9.15 5.8,5.8 8.8,14.8 2.65,8.05 2.65,17.25 0,10 -8.85,16.15 -10.8,7.6 -32.85,7.6 -22,0 -32.8,-7.6 -8.85,-6.15 -8.85,-16.15 0,-9.2 2.65,-17.25 2.95,-9 8.8,-14.8 6,-6 13.85,-9.15 7.65,-3 16.35,-3 8.75,0 16.4,3"
           fill="#f73600"
           fill-rule="evenodd"
           stroke="none"
           id="path44" />
        <path
           d="m 11.65,-32.4 q -7.65,-3 -16.4,-3 -8.7,0 -16.35,3 -7.85,3.15 -13.85,9.15 -5.85,5.8 -8.8,14.8 -2.65,8.05 -2.65,17.25 0,10 8.85,16.15 10.8,7.6 32.8,7.6 22.05,0 32.85,-7.6 8.85,-6.15 8.85,-16.15 0,-9.2 -2.65,-17.25 -3,-9 -8.8,-14.8 -6.05,-6 -13.85,-9.15 z"
           ffdec:has-small-stroke="true"
           ffdec:original-stroke-width="1.0"
           fill="none"
           stroke="#6d1800"
           stroke-linecap="round"
           stroke-linejoin="round"
           stroke-width="2.85722"
           id="path45" />
        <path
           d="m 17.7,28.55 q 0,3.1 -6.55,5.25 -6.55,2.25 -15.9,2.25 -9.3,0 -15.9,-2.25 -6.55,-2.15 -6.55,-5.25 l -0.1,-1.15 -1.3,-0.45 q -4.45,-1.75 -8,-4.5 -3.3,-2.5 -5.35,-5.5 1.9,-1.25 4.3,-2.45 4.7,-2.45 9.05,-3.05 4.15,-0.65 12.1,2 8.65,2.85 11.75,2.85 3.3,0 11.8,-2.9 7.85,-2.7 12,-2.15 4.3,0.65 9.2,2.95 l 4.45,2.35 q -4.5,7.05 -13.65,10.4 l -1.25,0.4 -0.1,1.2"
           fill="#f73600"
           fill-rule="evenodd"
           stroke="none"
           id="path46" />
        <path
           d="m -20.95,-26.2 q 3.05,-3.5 6.65,-6.1 l -4.35,1.35 q -7.8,3 -13.85,8.75 -5.8,5.55 -8.8,14.05 -2.65,7.7 -2.65,16.45 0,9.5 8.85,15.4 4.7,3.1 11.55,4.9 -8.85,-7.05 -8.85,-18.4 0,-10.45 2.65,-19.6 3,-10.2 8.8,-16.8"
           fill="#ad0303"
           fill-rule="evenodd"
           stroke="none"
           id="path47" />
        <path
           d="M 17.5,29.65 H -27 l -0.2,-1.1 -0.1,-1.15 -1.3,-0.45 q -4.45,-1.75 -8,-4.5 -3.2,-2.4 -5.15,-5.2 v -0.4 l 1.6,-1 q 36.1,11.8 71.85,-0.2 l -0.5,0.15 1.5,0.75 q -4.5,7.05 -13.65,10.4 l -1.25,0.4 -0.1,1.2 -0.2,1.1"
           fill="#a35d0d"
           fill-rule="evenodd"
           stroke="none"
           id="path48" />
        <path
           d="m 14.4,22.9 q 0,1.4 1,2.4 1,1 2.45,1 1.4,0 2.4,-1 1,-1 1,-2.4 0,-1.4 -1,-2.45 -1,-1 -2.4,-1 -1.45,0 -2.45,1 -1,1.05 -1,2.45"
           fill="#000000"
           fill-rule="evenodd"
           stroke="none"
           id="path49" />
        <path
           d="m -30.8,22.9 q 0,1.4 1,2.4 1,1 2.45,1 1.4,0 2.4,-1 1,-1 1,-2.4 0,-1.4 -1,-2.45 -1,-1 -2.4,-1 -1.45,0 -2.45,1 -1,1.05 -1,2.45"
           fill="#000000"
           fill-rule="evenodd"
           stroke="none"
           id="path50" />
        <path
           d="m -27.35,27.45 0.3,-0.2 Q -18.2,22.3 -6,21.7 8.75,22.25 17.5,27.4 l 0.3,0.2 v 0.05 l -0.1,0.9 q 0,3.1 -6.55,5.25 -6.6,2.2 -15.9,2.2 -9.3,0 -15.9,-2.2 -6.55,-2.15 -6.55,-5.25 l -0.15,-1.1"
           fill="#f73600"
           fill-rule="evenodd"
           stroke="none"
           id="path51" />
      </g>
    </g>
    <filter
       id="filter1"
       x="0"
       y="0"
       width="1"
       height="1">
      <feColorMatrix
         in="SourceGraphic"
         result="filterResult4"
         type="matrix"
         values="0 0 0 0 0.2,0 0 0 0 0.2,0 0 0 0 0.2,0 0 0 1 0"
         id="feColorMatrix3" />
      <feConvolveMatrix
         divisor="9.0"
         in="filterResult4"
         kernelMatrix="1 1 1 1 1 1 1 1 1"
         order="3 3"
         result="filterResult5"
         id="feConvolveMatrix3" />
      <feConvolveMatrix
         divisor="9.0"
         in="filterResult5"
         kernelMatrix="1 1 1 1 1 1 1 1 1"
         order="3 3"
         result="filterResult6"
         id="feConvolveMatrix4" />
      <feConvolveMatrix
         divisor="9.0"
         in="filterResult6"
         kernelMatrix="1 1 1 1 1 1 1 1 1"
         order="3 3"
         result="filterResult7"
         id="feConvolveMatrix5" />
      <feComposite
         in="SourceGraphic"
         in2="filterResult7"
         operator="over"
         result="filterResult8"
         id="feComposite5" />
    </filter>
  </g>
  <defs
     id="defs28">
    <g
       id="shape0"
       transform="matrix(1.0, 0.0, 0.0, 1.0, 1.25, 1.05)">
      <path
         d="M42.55 43.05 L1.45 44.5 -0.25 0.0 46.45 3.0 42.55 43.05"
         fill="#ffffff"
         fill-opacity="0.49803922"
         fill-rule="evenodd"
         stroke="none"
         id="path5" />
      <path
         d="M42.55 43.05 L1.45 44.5 -0.25 0.0 46.45 3.0 42.55 43.05 Z"
         fill="none"
         stroke="#000000"
         stroke-linecap="butt"
         stroke-linejoin="miter-clip"
         stroke-miterlimit="3.0"
         stroke-opacity="0.49803922"
         stroke-width="2.0"
         id="path6" />
    </g>
    <g
       id="sprite0"
       transform="matrix(1.0, 0.0, 0.0, 1.0, 57.4, 72.75)">
      <use
         ffdec:characterId="5157"
         height="120.0"
         transform="matrix(1.0, 0.0, 0.0, 1.0, -57.4, -72.75)"
         width="107.55"
         xlink:href="#shape1"
         id="use6" />
    </g>
    <g
       id="shape1"
       transform="matrix(1.0, 0.0, 0.0, 1.0, 57.4, 72.75)">
      <path
         d="M-30.25 32.6 L-37.35 25.1 -27.95 17.0 -20.85 21.55 Q-12.55 26.75 -6.25 29.35 -3.25 30.65 1.9 31.25 L9.75 31.95 Q17.9 33.2 16.9 39.1 15.7 45.7 2.4 45.65 -8.5 45.7 -17.0 42.35 -22.15 40.4 -30.25 32.6"
         fill="#bf7926"
         fill-rule="evenodd"
         stroke="none"
         id="path7" />
      <path
         d="M-30.65 32.3 L-37.7 24.8 -28.35 16.7 -21.25 21.25 Q-12.95 26.45 -6.65 29.05 -3.7 30.35 1.4 30.95 1.9 39.1 4.2 45.35 L2.05 45.35 Q-8.85 45.4 -17.4 42.05 -22.55 40.1 -30.65 32.3"
         fill="#f73600"
         fill-rule="evenodd"
         stroke="none"
         id="path8" />
      <path
         d="M-30.35 32.65 Q-22.25 40.4 -17.1 42.45 -8.6 45.7 2.3 45.7 L4.5 45.75 Q15.75 45.2 16.8 39.2 17.8 33.3 9.65 32.05 L1.8 31.3 1.7 31.25 -0.55 30.95 -2.65 30.55 -6.4 29.45 Q-12.65 26.8 -20.95 21.6 -24.5 19.3 -28.05 17.1 L-37.45 25.15 -30.35 32.65 Z"
         fill="none"
         stroke="#6d1800"
         stroke-linecap="round"
         stroke-linejoin="round"
         stroke-width="3.0"
         id="path9" />
      <path
         d="M1.8 -27.35 L-7.3 -22.5 -0.9 -11.85 7.2 -13.85 Q16.7 -16.15 23.55 -16.65 26.8 -16.9 31.9 -15.85 L39.55 -14.05 Q47.65 -12.65 48.65 -18.55 49.6 -25.2 36.95 -29.4 26.65 -32.8 17.45 -32.4 11.95 -32.2 1.8 -27.35"
         fill="#bf7926"
         fill-rule="evenodd"
         stroke="none"
         id="path10" />
      <path
         d="M1.4 -27.2 L-7.7 -22.35 -1.3 -11.7 6.75 -13.75 Q16.3 -16.0 23.15 -16.55 26.35 -16.8 31.35 -15.7 34.45 -23.35 38.55 -28.5 L36.5 -29.25 Q26.2 -32.7 17.0 -32.25 11.55 -32.05 1.4 -27.2"
         fill="#f73600"
         fill-rule="evenodd"
         stroke="none"
         id="path11" />
      <path
         d="M1.75 -27.4 Q11.95 -32.25 17.45 -32.55 26.65 -32.9 36.9 -29.45 L38.95 -28.75 Q49.45 -24.7 48.6 -18.65 47.65 -12.8 39.55 -14.2 L31.9 -15.95 31.75 -15.95 29.5 -16.35 27.4 -16.65 23.5 -16.75 Q16.7 -16.3 7.2 -14.0 L-0.95 -11.95 -7.3 -22.55 Q-3.3 -24.95 1.75 -27.4 Z"
         fill="none"
         stroke="#6d1800"
         stroke-linecap="round"
         stroke-linejoin="round"
         stroke-width="3.0"
         id="path12" />
      <path
         d="M8.5 -71.25 Q10.15 -71.25 11.35 -70.05 13.5 -67.9 15.0 -64.95 18.75 -57.55 13.85 -52.95 L13.8 -52.9 Q11.6 -50.65 8.1 -49.6 L8.05 -49.55 2.75 -48.6 Q0.1 -48.25 -1.4 -47.65 -3.2 -47.0 -4.35 -45.6 L-4.4 -45.55 Q-5.9 -43.35 -4.15 -40.0 L-4.15 -39.95 Q-3.35 -38.45 -2.1 -37.0 L-0.75 -35.4 Q0.25 -34.2 0.15 -32.55 0.05 -30.9 -1.15 -29.8 -2.45 -28.75 -4.1 -28.85 -5.7 -29.0 -6.8 -30.2 L-8.1 -31.75 -8.2 -31.85 Q-9.95 -34.0 -11.15 -36.15 L-11.25 -36.25 Q-15.75 -45.0 -10.4 -50.7 L-10.35 -50.75 Q-7.95 -53.7 -4.25 -55.15 -2.15 -55.95 1.6 -56.45 L5.85 -57.25 5.9 -57.25 Q7.25 -57.65 8.1 -58.5 8.8 -59.55 7.85 -61.35 L7.85 -61.4 Q6.95 -63.1 5.7 -64.4 4.55 -65.55 4.55 -67.2 4.55 -68.9 5.7 -70.05 6.9 -71.25 8.5 -71.25"
         fill="#f73600"
         fill-rule="evenodd"
         stroke="none"
         id="path13" />
      <path
         d="M8.5 -71.25 Q6.9 -71.25 5.7 -70.05 4.55 -68.9 4.55 -67.2 4.55 -65.55 5.7 -64.4 6.95 -63.1 7.85 -61.4 L7.85 -61.35 Q8.8 -59.55 8.1 -58.5 7.25 -57.65 5.9 -57.25 L5.85 -57.25 1.6 -56.45 Q-2.15 -55.95 -4.25 -55.15 -7.95 -53.7 -10.35 -50.75 L-10.4 -50.7 Q-15.75 -45.0 -11.25 -36.25 L-11.15 -36.15 Q-9.95 -34.0 -8.2 -31.85 L-8.1 -31.75 -6.8 -30.2 Q-5.7 -29.0 -4.1 -28.85 -2.45 -28.75 -1.15 -29.8 0.05 -30.9 0.15 -32.55 0.25 -34.2 -0.75 -35.4 L-2.1 -37.0 Q-3.35 -38.45 -4.15 -39.95 L-4.15 -40.0 Q-5.9 -43.35 -4.4 -45.55 L-4.35 -45.6 Q-3.2 -47.0 -1.4 -47.65 0.1 -48.25 2.75 -48.6 L8.05 -49.55 8.1 -49.6 Q11.6 -50.65 13.8 -52.9 L13.85 -52.95 Q18.75 -57.55 15.0 -64.95 13.5 -67.9 11.35 -70.05 10.15 -71.25 8.5 -71.25 Z"
         fill="none"
         stroke="#6d1800"
         stroke-linecap="round"
         stroke-linejoin="round"
         stroke-width="3.0"
         id="path14" />
      <path
         d="M-52.3 11.45 Q-54.5 9.25 -54.4 2.35 -54.3 -4.4 -52.3 -6.4 -50.85 -7.85 -44.15 -7.5 L-43.8 -8.5 Q-40.85 -17.4 -35.0 -23.25 -29.0 -29.25 -21.15 -32.4 -13.5 -35.45 -4.8 -35.45 3.95 -35.45 11.6 -32.4 19.4 -29.25 25.45 -23.25 31.3 -17.4 34.25 -8.5 L34.55 -7.45 Q41.7 -7.9 43.3 -6.4 45.3 -4.4 45.4 2.35 45.5 9.25 43.3 11.45 41.75 12.95 36.5 12.85 35.05 20.1 28.05 24.95 23.65 28.0 17.35 29.9 16.25 32.1 11.15 33.8 4.55 36.0 -4.8 36.0 -14.05 36.0 -20.65 33.8 -25.75 32.15 -26.9 29.9 -33.2 28.0 -37.6 24.95 -44.6 20.1 -46.05 12.85 -50.85 12.9 -52.3 11.45 Z"
         fill="none"
         stroke="#6d1800"
         stroke-linecap="round"
         stroke-linejoin="round"
         stroke-width="6.0"
         id="path15" />
      <path
         d="M33.35 -7.35 L25.4 -6.4 25.4 11.45 33.15 12.6 Q41.35 13.4 43.25 11.45 45.5 9.25 45.35 2.35 45.25 -4.4 43.25 -6.4 41.65 -8.0 33.35 -7.35"
         fill="#f73600"
         fill-rule="evenodd"
         stroke="none"
         id="path16" />
      <path
         d="M-42.35 -7.35 L-34.4 -6.4 -34.4 11.45 -42.15 12.6 Q-50.35 13.4 -52.25 11.45 -54.5 9.25 -54.35 2.35 -54.25 -4.4 -52.25 -6.4 -50.65 -8.0 -42.35 -7.35"
         fill="#f73600"
         fill-rule="evenodd"
         stroke="none"
         id="path17" />
      <path
         d="M43.7 9.4 Q43.6 2.65 41.6 0.65 39.95 -0.95 31.7 -0.3 L25.4 0.4 25.4 11.45 33.15 12.6 Q41.35 13.4 43.25 11.45 L43.7 10.95 43.7 9.4"
         fill="#ad0303"
         fill-rule="evenodd"
         stroke="none"
         id="path18" />
      <path
         d="M-34.4 0.4 L-34.4 11.5 -42.15 12.65 Q-50.3 13.4 -52.3 11.5 L-52.7 10.95 -52.7 9.4 Q-52.55 2.7 -50.55 0.7 -48.95 -0.95 -40.65 -0.3 L-34.4 0.4"
         fill="#ad0303"
         fill-rule="evenodd"
         stroke="none"
         id="path19" />
      <path
         d="M11.65 -32.4 Q19.45 -29.25 25.5 -23.25 31.3 -17.45 34.3 -8.45 36.95 -0.4 36.95 8.8 36.95 18.8 28.1 24.95 17.3 32.55 -4.75 32.55 -26.75 32.55 -37.55 24.95 -46.4 18.8 -46.4 8.8 -46.4 -0.4 -43.75 -8.45 -40.8 -17.45 -34.95 -23.25 -28.95 -29.25 -21.1 -32.4 -13.45 -35.4 -4.75 -35.4 4.0 -35.4 11.65 -32.4"
         fill="#f73600"
         fill-rule="evenodd"
         stroke="none"
         id="path20" />
      <path
         d="M11.65 -32.4 Q4.0 -35.4 -4.75 -35.4 -13.45 -35.4 -21.1 -32.4 -28.95 -29.25 -34.95 -23.25 -40.8 -17.45 -43.75 -8.45 -46.4 -0.4 -46.4 8.8 -46.4 18.8 -37.55 24.95 -26.75 32.55 -4.75 32.55 17.3 32.55 28.1 24.95 36.95 18.8 36.95 8.8 36.95 -0.4 34.3 -8.45 31.3 -17.45 25.5 -23.25 19.45 -29.25 11.65 -32.4 Z"
         ffdec:has-small-stroke="true"
         ffdec:original-stroke-width="1.0"
         fill="none"
         stroke="#6d1800"
         stroke-linecap="round"
         stroke-linejoin="round"
         stroke-width="2.857217596023892"
         id="path21" />
      <path
         d="M17.7 28.55 Q17.7 31.65 11.15 33.8 4.6 36.05 -4.75 36.05 -14.05 36.05 -20.65 33.8 -27.2 31.65 -27.2 28.55 L-27.3 27.4 -28.6 26.95 Q-33.05 25.2 -36.6 22.45 -39.9 19.95 -41.95 16.95 -40.05 15.7 -37.65 14.5 -32.95 12.05 -28.6 11.45 -24.45 10.8 -16.5 13.45 -7.85 16.3 -4.75 16.3 -1.45 16.3 7.05 13.4 14.9 10.7 19.05 11.25 23.35 11.9 28.25 14.2 L32.7 16.55 Q28.2 23.6 19.05 26.95 L17.8 27.35 17.7 28.55"
         fill="#f73600"
         fill-rule="evenodd"
         stroke="none"
         id="path22" />
      <path
         d="M-20.95 -26.2 Q-17.9 -29.7 -14.3 -32.3 L-18.65 -30.95 Q-26.45 -27.95 -32.5 -22.2 -38.3 -16.65 -41.3 -8.15 -43.95 -0.45 -43.95 8.3 -43.95 17.8 -35.1 23.7 -30.4 26.8 -23.55 28.6 -32.4 21.55 -32.4 10.2 -32.4 -0.25 -29.75 -9.4 -26.75 -19.6 -20.95 -26.2"
         fill="#ad0303"
         fill-rule="evenodd"
         stroke="none"
         id="path23" />
      <path
         d="M17.5 29.65 L-27.0 29.65 -27.2 28.55 -27.3 27.4 -28.6 26.95 Q-33.05 25.2 -36.6 22.45 -39.8 20.05 -41.75 17.25 L-41.75 16.85 -40.15 15.85 Q-4.05 27.65 31.7 15.65 L31.2 15.8 32.7 16.55 Q28.2 23.6 19.05 26.95 L17.8 27.35 17.7 28.55 17.5 29.65"
         fill="#a35d0d"
         fill-rule="evenodd"
         stroke="none"
         id="path24" />
      <path
         d="M14.4 22.9 Q14.4 24.3 15.4 25.3 16.4 26.3 17.85 26.3 19.25 26.3 20.25 25.3 21.25 24.3 21.25 22.9 21.25 21.5 20.25 20.45 19.25 19.45 17.85 19.45 16.4 19.45 15.4 20.45 14.4 21.5 14.4 22.9"
         fill="#000000"
         fill-rule="evenodd"
         stroke="none"
         id="path25" />
      <path
         d="M-30.8 22.9 Q-30.8 24.3 -29.8 25.3 -28.8 26.3 -27.35 26.3 -25.95 26.3 -24.95 25.3 -23.95 24.3 -23.95 22.9 -23.95 21.5 -24.95 20.45 -25.95 19.45 -27.35 19.45 -28.8 19.45 -29.8 20.45 -30.8 21.5 -30.8 22.9"
         fill="#000000"
         fill-rule="evenodd"
         stroke="none"
         id="path26" />
      <path
         d="M-27.35 27.45 L-27.05 27.25 Q-18.2 22.3 -6.0 21.7 8.75 22.25 17.5 27.4 L17.8 27.6 17.8 27.65 17.7 28.55 Q17.7 31.65 11.15 33.8 4.55 36.0 -4.75 36.0 -14.05 36.0 -20.65 33.8 -27.2 31.65 -27.2 28.55 L-27.35 27.45"
         fill="#f73600"
         fill-rule="evenodd"
         stroke="none"
         id="path27" />
    </g>
    <g
       id="sprite1"
       transform="matrix(1.0, 0.0, 0.0, 1.0, 0.0, 0.0)">
      <use
         ffdec:characterId="5057"
         height="31.1"
         transform="matrix(1.0, 0.0, 0.0, 1.0, 0.0, 0.0)"
         width="19.35"
         xlink:href="#shape2"
         id="use27" />
    </g>
    <g
       id="shape2"
       transform="matrix(1.0, 0.0, 0.0, 1.0, 0.0, 0.0)">
      <path
         d="M7.1 23.35 L9.65 22.45 10.2 22.45 Q10.9 22.65 11.2 22.95 L12.15 23.8 12.7 24.5 12.7 29.6 Q12.7 30.15 12.1 30.45 10.75 31.1 8.05 31.1 7.15 31.1 6.05 29.7 5.0 28.4 5.0 27.35 5.0 26.1 5.3 25.3 5.75 24.05 7.1 23.35 M10.65 10.2 Q10.95 6.7 11.7 5.1 L11.2 5.1 9.3 6.2 6.65 7.95 Q3.15 10.3 2.25 10.3 1.3 10.3 0.6 8.8 0.0 7.5 0.0 6.4 L0.0 6.15 Q0.15 5.45 0.45 5.1 L2.95 1.95 Q4.85 0.0 6.45 0.0 L7.6 0.0 9.45 0.1 12.2 0.25 16.8 0.5 Q17.8 1.2 18.6 2.75 19.35 4.3 19.35 5.6 L19.35 6.15 18.6 9.2 17.8 12.3 Q17.55 13.45 15.95 14.0 L13.25 14.8 12.45 15.1 11.95 15.35 11.95 18.9 11.5 19.1 9.8 19.6 6.6 20.45 5.55 20.5 5.55 15.8 10.65 10.2"
         fill="#cccccc"
         fill-rule="evenodd"
         stroke="none"
         id="path28" />
    </g>
  </defs>
</svg>
