<?xml version="1.0" encoding="UTF-8" standalone="no"?>
<svg xmlns:ffdec="https://www.free-decompiler.com/flash" xmlns:xlink="http://www.w3.org/1999/xlink" ffdec:objectType="frame" height="53.05px" width="75.0px" xmlns="http://www.w3.org/2000/svg">
  <g transform="matrix(1.0, 0.0, 0.0, 1.0, 38.15, 24.75)">
    <use ffdec:characterId="1941" height="92.4" transform="matrix(0.0, -0.5339, 0.5339, 0.0, -33.2279, 24.7732)" width="92.8" xlink:href="#shape0"/>
    <use ffdec:characterId="1943" height="95.2" transform="matrix(0.0, -0.5339, 0.5339, 0.0, -25.4596, 27.2292)" width="41.65" xlink:href="#shape1"/>
  </g>
  <defs>
    <g id="shape0" transform="matrix(1.0, 0.0, 0.0, 1.0, 46.4, 54.65)">
      <path d="M35.55 2.6 Q35.55 11.95 21.5 11.85 13.9 11.75 0.05 9.7 -4.9 9.7 -21.85 11.85 -36.25 11.95 -36.25 2.6 -36.25 -18.1 -31.55 -30.1 -23.2 -51.65 -0.35 -51.65 22.5 -51.65 30.85 -30.1 35.55 -18.1 35.55 2.6 Z" fill="none" stroke="#9f0101" stroke-linecap="round" stroke-linejoin="round" stroke-width="6.0"/>
      <path d="M35.55 2.6 Q35.55 11.95 21.5 11.85 13.9 11.75 0.05 9.7 -4.9 9.7 -21.85 11.85 -36.25 11.95 -36.25 2.6 -36.25 -18.1 -31.55 -30.1 -23.2 -51.65 -0.35 -51.65 22.5 -51.65 30.85 -30.1 35.55 -18.1 35.55 2.6" fill="#ff0000" fill-rule="evenodd" stroke="none"/>
      <path d="M-0.35 -42.3 Q22.5 -42.3 30.85 -18.75 34.15 -9.35 35.1 4.8 33.2 11.95 21.5 11.85 13.9 11.7 0.1 9.45 -4.9 9.45 -21.85 11.85 -33.85 11.95 -35.85 4.8 -34.9 -9.35 -31.55 -18.75 -23.2 -42.3 -0.35 -42.3" fill="#cd0303" fill-rule="evenodd" stroke="none"/>
      <path d="M14.35 -26.9 L-15.6 -26.8 -18.75 -37.85 -0.7 -48.05 17.45 -37.8 14.35 -26.9" fill="#ffcc00" fill-rule="evenodd" stroke="none"/>
      <path d="M15.55 -38.85 L17.45 -37.8 17.3 -37.15 14.35 -26.9 -15.6 -26.8 -18.75 -37.85 -17.5 -38.55 -15.9 -39.45 -16.95 -39.0 Q-9.8 -42.3 -0.35 -42.3 7.1 -42.3 13.2 -40.2 L15.55 -38.85" fill="#cd960d" fill-rule="evenodd" stroke="none"/>
      <path d="M13.2 -40.2 L13.1 -40.25 14.8 -39.65 15.55 -38.85 13.2 -40.2" fill="#cd960d" fill-rule="evenodd" stroke="none"/>
      <path d="M6.85 -31.15 L-0.65 -30.65 Q-10.6 -30.65 -9.3 -34.2 -8.65 -35.85 -5.55 -36.55 -10.7 -37.0 -9.65 -38.95 -8.8 -40.55 -3.05 -40.85 L-3.0 -40.85 2.15 -40.9 2.9 -40.9 8.15 -31.15 6.85 -31.15 M2.0 -37.6 L1.05 -40.4 -2.45 -40.3 Q-6.55 -40.1 -6.9 -38.95 -7.4 -37.45 -2.5 -37.4 L2.0 -37.6 M-0.75 -32.0 L3.9 -32.2 2.45 -36.35 -1.1 -36.3 Q-5.75 -36.0 -6.05 -34.2 -6.45 -32.05 -0.75 -32.0" fill="#ff0000" fill-rule="evenodd" stroke="none"/>
      <path d="M6.85 -31.15 L-0.65 -30.65 Q-10.6 -30.65 -9.3 -34.2 -8.65 -35.85 -5.55 -36.55 -10.7 -37.0 -9.65 -38.95 -8.8 -40.55 -3.05 -40.85 L-3.0 -40.85 2.15 -40.9 2.9 -40.9 8.15 -31.15 6.85 -31.15 M-0.75 -32.0 Q-6.45 -32.05 -6.05 -34.2 -5.75 -36.0 -1.1 -36.3 L2.45 -36.35 3.9 -32.2 -0.75 -32.0 M2.0 -37.6 L-2.5 -37.4 Q-7.4 -37.45 -6.9 -38.95 -6.55 -40.1 -2.45 -40.3 L1.05 -40.4 2.0 -37.6 Z" ffdec:has-small-stroke="true" ffdec:original-stroke-width="1.0" fill="none" stroke="#ff0000" stroke-linecap="butt" stroke-linejoin="miter-clip" stroke-miterlimit="3.0" stroke-width="1.8729922835095743"/>
      <path d="M14.35 -26.9 L-15.6 -26.8 -18.75 -37.85 -0.7 -48.05 17.45 -37.8 14.35 -26.9 Z" fill="none" stroke="#856301" stroke-linecap="butt" stroke-linejoin="miter-clip" stroke-miterlimit="3.0" stroke-width="2.0"/>
      <path d="M-41.55 13.4 Q-43.45 11.45 -43.4 5.45 -43.3 -0.4 -41.55 -2.15 -40.3 -3.4 -34.5 -3.1 L-34.15 -3.95 Q-31.6 -11.75 -26.55 -16.8 -21.3 -22.05 -14.45 -24.75 -7.85 -27.4 -0.25 -27.4 7.35 -27.4 14.0 -24.75 20.8 -22.05 26.05 -16.8 31.1 -11.75 33.7 -3.95 L33.95 -3.05 Q40.2 -3.45 41.55 -2.15 43.3 -0.4 43.4 5.45 43.5 11.45 41.55 13.4 40.25 14.7 35.65 14.6 34.4 20.9 28.3 25.1 24.5 27.8 19.0 29.4 18.05 31.35 13.6 32.8 7.9 34.75 -0.25 34.75 -8.3 34.75 -14.05 32.8 -18.5 31.35 -19.5 29.4 -24.95 27.8 -28.8 25.1 -34.85 20.9 -36.15 14.6 -40.3 14.65 -41.55 13.4 Z" fill="none" stroke="#102c4d" stroke-linecap="round" stroke-linejoin="round" stroke-width="6.0"/>
      <path d="M32.9 -3.0 L26.0 -2.15 26.0 13.4 32.75 14.4 Q39.85 15.05 41.55 13.4 43.45 11.45 43.35 5.45 43.25 -0.4 41.55 -2.15 40.1 -3.55 32.9 -3.0" fill="#137bf0" fill-rule="evenodd" stroke="none"/>
      <path d="M41.9 11.6 Q41.8 5.75 40.05 4.0 38.65 2.6 31.45 3.15 L26.0 3.75 26.0 13.4 32.75 14.4 Q39.85 15.05 41.55 13.4 L41.9 12.95 41.9 11.6" fill="#bf7926" fill-rule="evenodd" stroke="none"/>
      <path d="M-32.9 -3.0 L-26.0 -2.15 -26.0 13.4 -32.75 14.4 Q-39.85 15.05 -41.55 13.4 -43.45 11.45 -43.35 5.45 -43.25 -0.4 -41.55 -2.15 -40.1 -3.55 -32.9 -3.0" fill="#137bf0" fill-rule="evenodd" stroke="none"/>
      <path d="M-41.9 11.6 Q-41.8 5.75 -40.05 4.0 -38.65 2.6 -31.45 3.15 L-26.0 3.75 -26.0 13.4 -32.75 14.4 Q-39.85 15.05 -41.55 13.4 L-41.9 12.95 -41.9 11.6" fill="#bf7926" fill-rule="evenodd" stroke="none"/>
      <path d="M-34.15 -3.95 Q-36.45 3.05 -36.45 11.05 -36.45 19.75 -28.75 25.1 -19.35 31.7 -0.2 31.7 18.95 31.7 28.35 25.1 36.05 19.75 36.05 11.05 36.05 3.05 33.75 -3.95 31.15 -11.75 26.1 -16.8 20.85 -22.05 14.05 -24.75 7.4 -27.4 -0.2 -27.4 -7.8 -27.4 -14.45 -24.75 -21.25 -22.05 -26.5 -16.8 -31.55 -11.75 -34.15 -3.95" fill="#137bf0" fill-rule="evenodd" stroke="none"/>
      <path d="M-34.15 -3.95 Q-36.45 3.05 -36.45 11.05 -36.45 19.75 -28.75 25.1 -19.35 31.7 -0.2 31.7 18.95 31.7 28.35 25.1 36.05 19.75 36.05 11.05 36.05 3.05 33.75 -3.95 31.15 -11.75 26.1 -16.8 20.85 -22.05 14.05 -24.75 7.4 -27.4 -0.2 -27.4 -7.8 -27.4 -14.45 -24.75 -21.25 -22.05 -26.5 -16.8 -31.55 -11.75 -34.15 -3.95 Z" ffdec:has-small-stroke="true" ffdec:original-stroke-width="1.0" fill="none" stroke="#102c4d" stroke-linecap="round" stroke-linejoin="round" stroke-width="1.8729922835095743"/>
      <path d="M-14.3 -19.4 Q-11.65 -22.45 -8.55 -24.7 L-12.3 -23.5 Q-19.1 -20.95 -24.35 -15.95 -29.4 -11.1 -32.0 -3.7 -34.3 3.0 -34.3 10.6 -34.3 18.9 -26.6 24.0 -22.5 26.7 -16.55 28.25 -24.25 22.15 -24.25 12.3 -24.25 3.15 -21.95 -4.8 -19.35 -13.65 -14.3 -19.4" fill="#0d5eb8" fill-rule="evenodd" stroke="none"/>
      <path d="M18.25 -20.95 L21.7 -17.9 Q26.75 -12.85 29.35 -5.05 31.65 1.95 31.65 9.95 31.65 18.65 23.95 24.0 L23.85 24.1 Q26.05 19.15 26.05 12.95 26.05 2.25 23.75 -7.05 21.75 -15.1 18.25 -20.95" fill="#ffffff" fill-rule="evenodd" stroke="none"/>
      <path d="M32.35 17.8 Q28.45 23.95 20.5 26.85 L19.4 27.2 19.3 28.25 Q19.3 30.95 13.6 32.8 7.9 34.75 -0.2 34.75 -8.3 34.75 -14.05 32.8 -19.75 30.95 -19.75 28.25 L-19.85 27.25 -20.95 26.85 Q-24.85 25.3 -27.9 22.95 -30.8 20.75 -32.55 18.15 -30.9 17.05 -28.85 16.0 -24.75 13.9 -20.95 13.35 -17.35 12.8 -10.45 15.1 -2.9 17.6 -0.2 17.6 2.65 17.6 10.05 15.05 16.85 12.7 20.5 13.2 24.2 13.75 28.5 15.75 32.15 17.75 32.35 17.8" fill="#a35d0d" fill-rule="evenodd" stroke="none"/>
      <path d="M21.5 21.2 Q20.65 20.3 19.4 20.3 18.2 20.3 17.3 21.2 16.45 22.05 16.45 23.3 16.45 24.5 17.3 25.4 18.2 26.25 19.4 26.25 20.65 26.25 21.5 25.4 22.4 24.5 22.4 23.3 22.4 22.05 21.5 21.2" fill="#000000" fill-rule="evenodd" stroke="none"/>
      <path d="M-17.8 21.2 Q-18.65 20.3 -19.9 20.3 -21.1 20.3 -22.0 21.2 -22.85 22.05 -22.85 23.3 -22.85 24.5 -22.0 25.4 -21.1 26.25 -19.9 26.25 -18.65 26.25 -17.8 25.4 -16.9 24.5 -16.9 23.3 -16.9 22.05 -17.8 21.2" fill="#000000" fill-rule="evenodd" stroke="none"/>
      <path d="M-19.65 27.15 Q-11.9 22.8 -1.3 22.3 11.5 22.75 19.15 27.25 L19.4 27.45 19.4 27.5 19.35 28.2 Q19.35 30.95 13.6 32.8 7.9 34.75 -0.25 34.75 -8.3 34.75 -14.05 32.8 -19.75 30.95 -19.75 28.2 L-19.9 27.3 -19.65 27.15" fill="#bf7926" fill-rule="evenodd" stroke="none"/>
    </g>
    <g id="shape1" transform="matrix(1.0, 0.0, 0.0, 1.0, 51.0, 40.1)">
      <path d="M-15.2 36.25 Q-13.6 37.3 -13.6 38.8 -13.6 40.25 -15.2 41.3 -16.8 42.35 -19.05 42.35 -21.3 42.35 -22.9 41.3 -24.45 40.25 -24.45 38.8 -24.45 37.3 -22.9 36.25 -21.3 35.2 -19.05 35.2 -16.8 35.2 -15.2 36.25" fill="#137bf0" fill-opacity="0.29803923" fill-rule="evenodd" stroke="none"/>
      <path d="M-15.2 36.25 Q-13.6 37.3 -13.6 38.8 -13.6 40.25 -15.2 41.3 -16.8 42.35 -19.05 42.35 -21.3 42.35 -22.9 41.3 -24.45 40.25 -24.45 38.8 -24.45 37.3 -22.9 36.25 -21.3 35.2 -19.05 35.2 -16.8 35.2 -15.2 36.25" fill="#137bf0" fill-opacity="0.29803923" fill-rule="evenodd" stroke="none"/>
      <path d="M-18.8 25.3 Q-16.2 27.0 -16.2 29.4 -16.2 31.8 -18.8 33.5 -21.35 35.2 -25.0 35.2 -28.65 35.2 -31.2 33.5 -33.75 31.8 -33.75 29.4 -33.75 27.0 -31.2 25.3 -28.65 23.6 -25.0 23.6 -21.35 23.6 -18.8 25.3" fill="#137bf0" fill-opacity="0.29803923" fill-rule="evenodd" stroke="none"/>
      <path d="M-18.8 25.3 Q-16.2 27.0 -16.2 29.4 -16.2 31.8 -18.8 33.5 -21.35 35.2 -25.0 35.2 -28.65 35.2 -31.2 33.5 -33.75 31.8 -33.75 29.4 -33.75 27.0 -31.2 25.3 -28.65 23.6 -25.0 23.6 -21.35 23.6 -18.8 25.3" fill="#137bf0" fill-opacity="0.29803923" fill-rule="evenodd" stroke="none"/>
      <path d="M-27.15 2.2 Q-23.55 4.55 -23.55 7.9 -23.55 11.25 -27.15 13.6 -30.7 15.95 -35.75 15.95 -40.8 15.95 -44.35 13.6 -47.9 11.25 -47.9 7.9 -47.9 4.55 -44.35 2.2 -40.8 -0.15 -35.75 -0.15 -30.7 -0.15 -27.15 2.2" fill="#137bf0" fill-opacity="0.29803923" fill-rule="evenodd" stroke="none"/>
      <path d="M-27.15 2.2 Q-23.55 4.55 -23.55 7.9 -23.55 11.25 -27.15 13.6 -30.7 15.95 -35.75 15.95 -40.8 15.95 -44.35 13.6 -47.9 11.25 -47.9 7.9 -47.9 4.55 -44.35 2.2 -40.8 -0.15 -35.75 -0.15 -30.7 -0.15 -27.15 2.2" fill="#137bf0" fill-opacity="0.29803923" fill-rule="evenodd" stroke="none"/>
      <path d="M-36.75 -32.4 Q-35.15 -31.35 -35.15 -29.85 -35.15 -28.4 -36.75 -27.35 -38.35 -26.3 -40.6 -26.3 -42.85 -26.3 -44.45 -27.35 -46.0 -28.4 -46.0 -29.85 -46.0 -31.35 -44.45 -32.4 -42.85 -33.45 -40.6 -33.45 -38.35 -33.45 -36.75 -32.4" fill="#137bf0" fill-opacity="0.29803923" fill-rule="evenodd" stroke="none"/>
      <path d="M-36.75 -32.4 Q-35.15 -31.35 -35.15 -29.85 -35.15 -28.4 -36.75 -27.35 -38.35 -26.3 -40.6 -26.3 -42.85 -26.3 -44.45 -27.35 -46.0 -28.4 -46.0 -29.85 -46.0 -31.35 -44.45 -32.4 -42.85 -33.45 -40.6 -33.45 -38.35 -33.45 -36.75 -32.4" fill="#137bf0" fill-opacity="0.29803923" fill-rule="evenodd" stroke="none"/>
      <path d="M-33.85 -17.2 Q-31.25 -15.5 -31.25 -13.1 -31.25 -10.7 -33.85 -9.0 -36.4 -7.3 -40.05 -7.3 -43.7 -7.3 -46.25 -9.0 -48.8 -10.7 -48.8 -13.1 -48.8 -15.5 -46.25 -17.2 -43.7 -18.9 -40.05 -18.9 -36.4 -18.9 -33.85 -17.2" fill="#137bf0" fill-opacity="0.29803923" fill-rule="evenodd" stroke="none"/>
      <path d="M-33.85 -17.2 Q-31.25 -15.5 -31.25 -13.1 -31.25 -10.7 -33.85 -9.0 -36.4 -7.3 -40.05 -7.3 -43.7 -7.3 -46.25 -9.0 -48.8 -10.7 -48.8 -13.1 -48.8 -15.5 -46.25 -17.2 -43.7 -18.9 -40.05 -18.9 -36.4 -18.9 -33.85 -17.2" fill="#137bf0" fill-opacity="0.29803923" fill-rule="evenodd" stroke="none"/>
      <path d="M-13.45 43.45 Q-11.85 44.5 -11.85 46.0 -11.85 47.45 -13.45 48.5 -15.05 49.55 -17.3 49.55 -19.55 49.55 -21.15 48.5 -22.7 47.45 -22.7 46.0 -22.7 44.5 -21.15 43.45 -19.55 42.4 -17.3 42.4 -15.05 42.4 -13.45 43.45" fill="#bf7926" fill-rule="evenodd" stroke="none"/>
      <path d="M-13.45 43.45 Q-11.85 44.5 -11.85 46.0 -11.85 47.45 -13.45 48.5 -15.05 49.55 -17.3 49.55 -19.55 49.55 -21.15 48.5 -22.7 47.45 -22.7 46.0 -22.7 44.5 -21.15 43.45 -19.55 42.4 -17.3 42.4 -15.05 42.4 -13.45 43.45 Z" fill="none" stroke="#3f1a0b" stroke-linecap="round" stroke-linejoin="miter-clip" stroke-miterlimit="3.0" stroke-width="5.0"/>
      <path d="M-13.45 43.45 Q-11.85 44.5 -11.85 46.0 -11.85 47.45 -13.45 48.5 -15.05 49.55 -17.3 49.55 -19.55 49.55 -21.15 48.5 -22.7 47.45 -22.7 46.0 -22.7 44.5 -21.15 43.45 -19.55 42.4 -17.3 42.4 -15.05 42.4 -13.45 43.45" fill="#bf7926" fill-rule="evenodd" stroke="none"/>
      <path d="M-17.05 32.5 Q-14.45 34.2 -14.45 36.6 -14.45 39.0 -17.05 40.7 -19.6 42.4 -23.25 42.4 -26.9 42.4 -29.45 40.7 -32.0 39.0 -32.0 36.6 -32.0 34.2 -29.45 32.5 -26.9 30.8 -23.25 30.8 -19.6 30.8 -17.05 32.5" fill="#bf7926" fill-rule="evenodd" stroke="none"/>
      <path d="M-17.05 32.5 Q-14.45 34.2 -14.45 36.6 -14.45 39.0 -17.05 40.7 -19.6 42.4 -23.25 42.4 -26.9 42.4 -29.45 40.7 -32.0 39.0 -32.0 36.6 -32.0 34.2 -29.45 32.5 -26.9 30.8 -23.25 30.8 -19.6 30.8 -17.05 32.5 Z" fill="none" stroke="#3f1a0b" stroke-linecap="round" stroke-linejoin="miter-clip" stroke-miterlimit="3.0" stroke-width="5.0"/>
      <path d="M-17.05 32.5 Q-14.45 34.2 -14.45 36.6 -14.45 39.0 -17.05 40.7 -19.6 42.4 -23.25 42.4 -26.9 42.4 -29.45 40.7 -32.0 39.0 -32.0 36.6 -32.0 34.2 -29.45 32.5 -26.9 30.8 -23.25 30.8 -19.6 30.8 -17.05 32.5" fill="#bf7926" fill-rule="evenodd" stroke="none"/>
      <path d="M-25.4 9.4 Q-21.8 11.75 -21.8 15.1 -21.8 18.45 -25.4 20.8 -28.95 23.15 -34.0 23.15 -39.05 23.15 -42.6 20.8 -46.15 18.45 -46.15 15.1 -46.15 11.75 -42.6 9.4 -39.05 7.05 -34.0 7.05 -28.95 7.05 -25.4 9.4" fill="#bf7926" fill-rule="evenodd" stroke="none"/>
      <path d="M-25.4 9.4 Q-21.8 11.75 -21.8 15.1 -21.8 18.45 -25.4 20.8 -28.95 23.15 -34.0 23.15 -39.05 23.15 -42.6 20.8 -46.15 18.45 -46.15 15.1 -46.15 11.75 -42.6 9.4 -39.05 7.05 -34.0 7.05 -28.95 7.05 -25.4 9.4 Z" fill="none" stroke="#3f1a0b" stroke-linecap="round" stroke-linejoin="miter-clip" stroke-miterlimit="3.0" stroke-width="5.0"/>
      <path d="M-25.4 9.4 Q-21.8 11.75 -21.8 15.1 -21.8 18.45 -25.4 20.8 -28.95 23.15 -34.0 23.15 -39.05 23.15 -42.6 20.8 -46.15 18.45 -46.15 15.1 -46.15 11.75 -42.6 9.4 -39.05 7.05 -34.0 7.05 -28.95 7.05 -25.4 9.4" fill="#bf7926" fill-rule="evenodd" stroke="none"/>
      <path d="M-35.0 -25.2 Q-33.4 -24.15 -33.4 -22.65 -33.4 -21.2 -35.0 -20.15 -36.6 -19.1 -38.85 -19.1 -41.1 -19.1 -42.7 -20.15 -44.25 -21.2 -44.25 -22.65 -44.25 -24.15 -42.7 -25.2 -41.1 -26.25 -38.85 -26.25 -36.6 -26.25 -35.0 -25.2" fill="#bf7926" fill-rule="evenodd" stroke="none"/>
      <path d="M-35.0 -25.2 Q-33.4 -24.15 -33.4 -22.65 -33.4 -21.2 -35.0 -20.15 -36.6 -19.1 -38.85 -19.1 -41.1 -19.1 -42.7 -20.15 -44.25 -21.2 -44.25 -22.65 -44.25 -24.15 -42.7 -25.2 -41.1 -26.25 -38.85 -26.25 -36.6 -26.25 -35.0 -25.2 Z" fill="none" stroke="#3f1a0b" stroke-linecap="round" stroke-linejoin="miter-clip" stroke-miterlimit="3.0" stroke-width="5.0"/>
      <path d="M-35.0 -25.2 Q-33.4 -24.15 -33.4 -22.65 -33.4 -21.2 -35.0 -20.15 -36.6 -19.1 -38.85 -19.1 -41.1 -19.1 -42.7 -20.15 -44.25 -21.2 -44.25 -22.65 -44.25 -24.15 -42.7 -25.2 -41.1 -26.25 -38.85 -26.25 -36.6 -26.25 -35.0 -25.2" fill="#bf7926" fill-rule="evenodd" stroke="none"/>
      <path d="M-32.1 -10.0 Q-29.5 -8.3 -29.5 -5.9 -29.5 -3.5 -32.1 -1.8 -34.65 -0.1 -38.3 -0.1 -41.95 -0.1 -44.5 -1.8 -47.05 -3.5 -47.05 -5.9 -47.05 -8.3 -44.5 -10.0 -41.95 -11.7 -38.3 -11.7 -34.65 -11.7 -32.1 -10.0" fill="#bf7926" fill-rule="evenodd" stroke="none"/>
      <path d="M-32.1 -10.0 Q-29.5 -8.3 -29.5 -5.9 -29.5 -3.5 -32.1 -1.8 -34.65 -0.1 -38.3 -0.1 -41.95 -0.1 -44.5 -1.8 -47.05 -3.5 -47.05 -5.9 -47.05 -8.3 -44.5 -10.0 -41.95 -11.7 -38.3 -11.7 -34.65 -11.7 -32.1 -10.0 Z" fill="none" stroke="#3f1a0b" stroke-linecap="round" stroke-linejoin="miter-clip" stroke-miterlimit="3.0" stroke-width="5.0"/>
      <path d="M-32.1 -10.0 Q-29.5 -8.3 -29.5 -5.9 -29.5 -3.5 -32.1 -1.8 -34.65 -0.1 -38.3 -0.1 -41.95 -0.1 -44.5 -1.8 -47.05 -3.5 -47.05 -5.9 -47.05 -8.3 -44.5 -10.0 -41.95 -11.7 -38.3 -11.7 -34.65 -11.7 -32.1 -10.0" fill="#bf7926" fill-rule="evenodd" stroke="none"/>
      <path d="M-14.95 37.3 Q-13.35 38.35 -13.35 39.85 -13.35 41.3 -14.95 42.35 -16.55 43.4 -18.8 43.4 -21.05 43.4 -22.65 42.35 -24.2 41.3 -24.2 39.85 -24.2 38.35 -22.65 37.3 -21.05 36.25 -18.8 36.25 -16.55 36.25 -14.95 37.3" fill="#bf7926" fill-opacity="0.29803923" fill-rule="evenodd" stroke="none"/>
      <path d="M-14.95 37.3 Q-13.35 38.35 -13.35 39.85 -13.35 41.3 -14.95 42.35 -16.55 43.4 -18.8 43.4 -21.05 43.4 -22.65 42.35 -24.2 41.3 -24.2 39.85 -24.2 38.35 -22.65 37.3 -21.05 36.25 -18.8 36.25 -16.55 36.25 -14.95 37.3" fill="#bf7926" fill-opacity="0.29803923" fill-rule="evenodd" stroke="none"/>
      <path d="M-18.55 26.35 Q-15.95 28.05 -15.95 30.45 -15.95 32.85 -18.55 34.55 -21.1 36.25 -24.75 36.25 -28.4 36.25 -30.95 34.55 -33.5 32.85 -33.5 30.45 -33.5 28.05 -30.95 26.35 -28.4 24.65 -24.75 24.65 -21.1 24.65 -18.55 26.35" fill="#bf7926" fill-opacity="0.29803923" fill-rule="evenodd" stroke="none"/>
      <path d="M-18.55 26.35 Q-15.95 28.05 -15.95 30.45 -15.95 32.85 -18.55 34.55 -21.1 36.25 -24.75 36.25 -28.4 36.25 -30.95 34.55 -33.5 32.85 -33.5 30.45 -33.5 28.05 -30.95 26.35 -28.4 24.65 -24.75 24.65 -21.1 24.65 -18.55 26.35" fill="#bf7926" fill-opacity="0.29803923" fill-rule="evenodd" stroke="none"/>
      <path d="M-26.9 3.25 Q-23.3 5.6 -23.3 8.95 -23.3 12.3 -26.9 14.65 -30.45 17.0 -35.5 17.0 -40.55 17.0 -44.1 14.65 -47.65 12.3 -47.65 8.95 -47.65 5.6 -44.1 3.25 -40.55 0.9 -35.5 0.9 -30.45 0.9 -26.9 3.25" fill="#bf7926" fill-opacity="0.29803923" fill-rule="evenodd" stroke="none"/>
      <path d="M-26.9 3.25 Q-23.3 5.6 -23.3 8.95 -23.3 12.3 -26.9 14.65 -30.45 17.0 -35.5 17.0 -40.55 17.0 -44.1 14.65 -47.65 12.3 -47.65 8.95 -47.65 5.6 -44.1 3.25 -40.55 0.9 -35.5 0.9 -30.45 0.9 -26.9 3.25" fill="#bf7926" fill-opacity="0.29803923" fill-rule="evenodd" stroke="none"/>
      <path d="M-36.5 -31.35 Q-34.9 -30.3 -34.9 -28.8 -34.9 -27.35 -36.5 -26.3 -38.1 -25.25 -40.35 -25.25 -42.6 -25.25 -44.2 -26.3 -45.75 -27.35 -45.75 -28.8 -45.75 -30.3 -44.2 -31.35 -42.6 -32.4 -40.35 -32.4 -38.1 -32.4 -36.5 -31.35" fill="#bf7926" fill-opacity="0.29803923" fill-rule="evenodd" stroke="none"/>
      <path d="M-36.5 -31.35 Q-34.9 -30.3 -34.9 -28.8 -34.9 -27.35 -36.5 -26.3 -38.1 -25.25 -40.35 -25.25 -42.6 -25.25 -44.2 -26.3 -45.75 -27.35 -45.75 -28.8 -45.75 -30.3 -44.2 -31.35 -42.6 -32.4 -40.35 -32.4 -38.1 -32.4 -36.5 -31.35" fill="#bf7926" fill-opacity="0.29803923" fill-rule="evenodd" stroke="none"/>
      <path d="M-33.6 -16.15 Q-31.0 -14.45 -31.0 -12.05 -31.0 -9.65 -33.6 -7.95 -36.15 -6.25 -39.8 -6.25 -43.45 -6.25 -46.0 -7.95 -48.55 -9.65 -48.55 -12.05 -48.55 -14.45 -46.0 -16.15 -43.45 -17.85 -39.8 -17.85 -36.15 -17.85 -33.6 -16.15" fill="#bf7926" fill-opacity="0.29803923" fill-rule="evenodd" stroke="none"/>
      <path d="M-33.6 -16.15 Q-31.0 -14.45 -31.0 -12.05 -31.0 -9.65 -33.6 -7.95 -36.15 -6.25 -39.8 -6.25 -43.45 -6.25 -46.0 -7.95 -48.55 -9.65 -48.55 -12.05 -48.55 -14.45 -46.0 -16.15 -43.45 -17.85 -39.8 -17.85 -36.15 -17.85 -33.6 -16.15" fill="#bf7926" fill-opacity="0.29803923" fill-rule="evenodd" stroke="none"/>
      <path d="M-17.4 29.6 Q-15.8 30.65 -15.8 32.15 -15.8 33.6 -17.4 34.65 -19.0 35.7 -21.25 35.7 -23.5 35.7 -25.1 34.65 -26.65 33.6 -26.65 32.15 -26.65 30.65 -25.1 29.6 -23.5 28.55 -21.25 28.55 -19.0 28.55 -17.4 29.6" fill="#bf7926" fill-opacity="0.29803923" fill-rule="evenodd" stroke="none"/>
      <path d="M-17.4 29.6 Q-15.8 30.65 -15.8 32.15 -15.8 33.6 -17.4 34.65 -19.0 35.7 -21.25 35.7 -23.5 35.7 -25.1 34.65 -26.65 33.6 -26.65 32.15 -26.65 30.65 -25.1 29.6 -23.5 28.55 -21.25 28.55 -19.0 28.55 -17.4 29.6" fill="#bf7926" fill-opacity="0.29803923" fill-rule="evenodd" stroke="none"/>
      <path d="M-21.0 18.65 Q-18.4 20.35 -18.4 22.75 -18.4 25.15 -21.0 26.85 -23.55 28.55 -27.2 28.55 -30.85 28.55 -33.4 26.85 -35.95 25.15 -35.95 22.75 -35.95 20.35 -33.4 18.65 -30.85 16.95 -27.2 16.95 -23.55 16.95 -21.0 18.65" fill="#bf7926" fill-opacity="0.29803923" fill-rule="evenodd" stroke="none"/>
      <path d="M-21.0 18.65 Q-18.4 20.35 -18.4 22.75 -18.4 25.15 -21.0 26.85 -23.55 28.55 -27.2 28.55 -30.85 28.55 -33.4 26.85 -35.95 25.15 -35.95 22.75 -35.95 20.35 -33.4 18.65 -30.85 16.95 -27.2 16.95 -23.55 16.95 -21.0 18.65" fill="#bf7926" fill-opacity="0.29803923" fill-rule="evenodd" stroke="none"/>
      <path d="M-29.35 -4.45 Q-25.75 -2.1 -25.75 1.25 -25.75 4.6 -29.35 6.95 -32.9 9.3 -37.95 9.3 -43.0 9.3 -46.55 6.95 -50.1 4.6 -50.1 1.25 -50.1 -2.1 -46.55 -4.45 -43.0 -6.8 -37.95 -6.8 -32.9 -6.8 -29.35 -4.45" fill="#bf7926" fill-opacity="0.29803923" fill-rule="evenodd" stroke="none"/>
      <path d="M-29.35 -4.45 Q-25.75 -2.1 -25.75 1.25 -25.75 4.6 -29.35 6.95 -32.9 9.3 -37.95 9.3 -43.0 9.3 -46.55 6.95 -50.1 4.6 -50.1 1.25 -50.1 -2.1 -46.55 -4.45 -43.0 -6.8 -37.95 -6.8 -32.9 -6.8 -29.35 -4.45" fill="#bf7926" fill-opacity="0.29803923" fill-rule="evenodd" stroke="none"/>
      <path d="M-38.95 -39.05 Q-37.35 -38.0 -37.35 -36.5 -37.35 -35.05 -38.95 -34.0 -40.55 -32.95 -42.8 -32.95 -45.05 -32.95 -46.65 -34.0 -48.2 -35.05 -48.2 -36.5 -48.2 -38.0 -46.65 -39.05 -45.05 -40.1 -42.8 -40.1 -40.55 -40.1 -38.95 -39.05" fill="#bf7926" fill-opacity="0.29803923" fill-rule="evenodd" stroke="none"/>
      <path d="M-38.95 -39.05 Q-37.35 -38.0 -37.35 -36.5 -37.35 -35.05 -38.95 -34.0 -40.55 -32.95 -42.8 -32.95 -45.05 -32.95 -46.65 -34.0 -48.2 -35.05 -48.2 -36.5 -48.2 -38.0 -46.65 -39.05 -45.05 -40.1 -42.8 -40.1 -40.55 -40.1 -38.95 -39.05" fill="#bf7926" fill-opacity="0.29803923" fill-rule="evenodd" stroke="none"/>
      <path d="M-36.05 -23.85 Q-33.45 -22.15 -33.45 -19.75 -33.45 -17.35 -36.05 -15.65 -38.6 -13.95 -42.25 -13.95 -45.9 -13.95 -48.45 -15.65 -51.0 -17.35 -51.0 -19.75 -51.0 -22.15 -48.45 -23.85 -45.9 -25.55 -42.25 -25.55 -38.6 -25.55 -36.05 -23.85" fill="#bf7926" fill-opacity="0.29803923" fill-rule="evenodd" stroke="none"/>
      <path d="M-36.05 -23.85 Q-33.45 -22.15 -33.45 -19.75 -33.45 -17.35 -36.05 -15.65 -38.6 -13.95 -42.25 -13.95 -45.9 -13.95 -48.45 -15.65 -51.0 -17.35 -51.0 -19.75 -51.0 -22.15 -48.45 -23.85 -45.9 -25.55 -42.25 -25.55 -38.6 -25.55 -36.05 -23.85" fill="#bf7926" fill-opacity="0.29803923" fill-rule="evenodd" stroke="none"/>
      <path d="M-28.85 -1.5 Q-28.45 -1.6 -27.4 3.0 -26.3 7.65 -25.15 14.3 -23.95 20.9 -23.35 25.6 -22.7 30.25 -23.1 30.35 -23.45 30.4 -24.55 25.8 L-26.85 14.6 -28.6 3.2 Q-29.2 -1.45 -28.85 -1.5" fill="#ffffff" fill-rule="evenodd" stroke="none"/>
      <path d="M-30.9 25.35 Q-31.2 25.4 -30.5 28.7 L-28.65 36.7 -26.4 44.55 Q-25.45 47.75 -25.15 47.7 -24.9 47.65 -25.6 44.35 -26.25 41.05 -27.45 36.4 -28.65 31.75 -29.7 28.5 -30.65 25.3 -30.9 25.35" fill="#ffffff" fill-rule="evenodd" stroke="none"/>
      <path d="M-33.2 1.65 L-33.6 -1.75 -33.7 -5.3 -33.55 -6.75 Q-33.35 -6.75 -33.05 -5.35 L-32.65 -1.85 -32.55 1.6 Q-32.55 3.1 -32.75 3.1 L-33.2 1.65" fill="#ffffff" fill-rule="evenodd" stroke="none"/>
      <path d="M-16.1 53.0 L-17.45 47.7 -18.3 42.35 Q-18.5 40.1 -18.15 40.05 -17.8 39.95 -17.15 42.1 -16.45 44.25 -15.8 47.35 -15.15 50.5 -14.95 52.75 -14.7 55.0 -15.05 55.1 -15.4 55.15 -16.1 53.0" fill="#ffffff" fill-rule="evenodd" stroke="none"/>
    </g>
  </defs>
</svg>
