<?xml version="1.0" encoding="UTF-8" standalone="no"?>
<svg xmlns:ffdec="https://www.free-decompiler.com/flash" xmlns:xlink="http://www.w3.org/1999/xlink" ffdec:objectType="frame" height="53.05px" width="75.0px" xmlns="http://www.w3.org/2000/svg">
  <g transform="matrix(1.0, 0.0, 0.0, 1.0, 38.15, 24.75)">
    <use ffdec:characterId="1941" height="92.4" transform="matrix(0.0, -0.5339, 0.5339, 0.0, -33.2279, 24.7732)" width="92.8" xlink:href="#shape0"/>
    <use ffdec:characterId="1944" height="94.4" transform="matrix(0.0, -0.5339, 0.5339, 0.0, -26.1537, 27.7631)" width="42.65" xlink:href="#shape1"/>
  </g>
  <defs>
    <g id="shape0" transform="matrix(1.0, 0.0, 0.0, 1.0, 46.4, 54.65)">
      <path d="M35.55 2.6 Q35.55 11.95 21.5 11.85 13.9 11.75 0.05 9.7 -4.9 9.7 -21.85 11.85 -36.25 11.95 -36.25 2.6 -36.25 -18.1 -31.55 -30.1 -23.2 -51.65 -0.35 -51.65 22.5 -51.65 30.85 -30.1 35.55 -18.1 35.55 2.6 Z" fill="none" stroke="#9f0101" stroke-linecap="round" stroke-linejoin="round" stroke-width="6.0"/>
      <path d="M35.55 2.6 Q35.55 11.95 21.5 11.85 13.9 11.75 0.05 9.7 -4.9 9.7 -21.85 11.85 -36.25 11.95 -36.25 2.6 -36.25 -18.1 -31.55 -30.1 -23.2 -51.65 -0.35 -51.65 22.5 -51.65 30.85 -30.1 35.55 -18.1 35.55 2.6" fill="#ff0000" fill-rule="evenodd" stroke="none"/>
      <path d="M-0.35 -42.3 Q22.5 -42.3 30.85 -18.75 34.15 -9.35 35.1 4.8 33.2 11.95 21.5 11.85 13.9 11.7 0.1 9.45 -4.9 9.45 -21.85 11.85 -33.85 11.95 -35.85 4.8 -34.9 -9.35 -31.55 -18.75 -23.2 -42.3 -0.35 -42.3" fill="#cd0303" fill-rule="evenodd" stroke="none"/>
      <path d="M14.35 -26.9 L-15.6 -26.8 -18.75 -37.85 -0.7 -48.05 17.45 -37.8 14.35 -26.9" fill="#ffcc00" fill-rule="evenodd" stroke="none"/>
      <path d="M15.55 -38.85 L17.45 -37.8 17.3 -37.15 14.35 -26.9 -15.6 -26.8 -18.75 -37.85 -17.5 -38.55 -15.9 -39.45 -16.95 -39.0 Q-9.8 -42.3 -0.35 -42.3 7.1 -42.3 13.2 -40.2 L15.55 -38.85" fill="#cd960d" fill-rule="evenodd" stroke="none"/>
      <path d="M13.2 -40.2 L13.1 -40.25 14.8 -39.65 15.55 -38.85 13.2 -40.2" fill="#cd960d" fill-rule="evenodd" stroke="none"/>
      <path d="M6.85 -31.15 L-0.65 -30.65 Q-10.6 -30.65 -9.3 -34.2 -8.65 -35.85 -5.55 -36.55 -10.7 -37.0 -9.65 -38.95 -8.8 -40.55 -3.05 -40.85 L-3.0 -40.85 2.15 -40.9 2.9 -40.9 8.15 -31.15 6.85 -31.15 M2.0 -37.6 L1.05 -40.4 -2.45 -40.3 Q-6.55 -40.1 -6.9 -38.95 -7.4 -37.45 -2.5 -37.4 L2.0 -37.6 M-0.75 -32.0 L3.9 -32.2 2.45 -36.35 -1.1 -36.3 Q-5.75 -36.0 -6.05 -34.2 -6.45 -32.05 -0.75 -32.0" fill="#ff0000" fill-rule="evenodd" stroke="none"/>
      <path d="M6.85 -31.15 L-0.65 -30.65 Q-10.6 -30.65 -9.3 -34.2 -8.65 -35.85 -5.55 -36.55 -10.7 -37.0 -9.65 -38.95 -8.8 -40.55 -3.05 -40.85 L-3.0 -40.85 2.15 -40.9 2.9 -40.9 8.15 -31.15 6.85 -31.15 M-0.75 -32.0 Q-6.45 -32.05 -6.05 -34.2 -5.75 -36.0 -1.1 -36.3 L2.45 -36.35 3.9 -32.2 -0.75 -32.0 M2.0 -37.6 L-2.5 -37.4 Q-7.4 -37.45 -6.9 -38.95 -6.55 -40.1 -2.45 -40.3 L1.05 -40.4 2.0 -37.6 Z" ffdec:has-small-stroke="true" ffdec:original-stroke-width="1.0" fill="none" stroke="#ff0000" stroke-linecap="butt" stroke-linejoin="miter-clip" stroke-miterlimit="3.0" stroke-width="1.8729922835095743"/>
      <path d="M14.35 -26.9 L-15.6 -26.8 -18.75 -37.85 -0.7 -48.05 17.45 -37.8 14.35 -26.9 Z" fill="none" stroke="#856301" stroke-linecap="butt" stroke-linejoin="miter-clip" stroke-miterlimit="3.0" stroke-width="2.0"/>
      <path d="M-41.55 13.4 Q-43.45 11.45 -43.4 5.45 -43.3 -0.4 -41.55 -2.15 -40.3 -3.4 -34.5 -3.1 L-34.15 -3.95 Q-31.6 -11.75 -26.55 -16.8 -21.3 -22.05 -14.45 -24.75 -7.85 -27.4 -0.25 -27.4 7.35 -27.4 14.0 -24.75 20.8 -22.05 26.05 -16.8 31.1 -11.75 33.7 -3.95 L33.95 -3.05 Q40.2 -3.45 41.55 -2.15 43.3 -0.4 43.4 5.45 43.5 11.45 41.55 13.4 40.25 14.7 35.65 14.6 34.4 20.9 28.3 25.1 24.5 27.8 19.0 29.4 18.05 31.35 13.6 32.8 7.9 34.75 -0.25 34.75 -8.3 34.75 -14.05 32.8 -18.5 31.35 -19.5 29.4 -24.95 27.8 -28.8 25.1 -34.85 20.9 -36.15 14.6 -40.3 14.65 -41.55 13.4 Z" fill="none" stroke="#102c4d" stroke-linecap="round" stroke-linejoin="round" stroke-width="6.0"/>
      <path d="M32.9 -3.0 L26.0 -2.15 26.0 13.4 32.75 14.4 Q39.85 15.05 41.55 13.4 43.45 11.45 43.35 5.45 43.25 -0.4 41.55 -2.15 40.1 -3.55 32.9 -3.0" fill="#137bf0" fill-rule="evenodd" stroke="none"/>
      <path d="M41.9 11.6 Q41.8 5.75 40.05 4.0 38.65 2.6 31.45 3.15 L26.0 3.75 26.0 13.4 32.75 14.4 Q39.85 15.05 41.55 13.4 L41.9 12.95 41.9 11.6" fill="#bf7926" fill-rule="evenodd" stroke="none"/>
      <path d="M-32.9 -3.0 L-26.0 -2.15 -26.0 13.4 -32.75 14.4 Q-39.85 15.05 -41.55 13.4 -43.45 11.45 -43.35 5.45 -43.25 -0.4 -41.55 -2.15 -40.1 -3.55 -32.9 -3.0" fill="#137bf0" fill-rule="evenodd" stroke="none"/>
      <path d="M-41.9 11.6 Q-41.8 5.75 -40.05 4.0 -38.65 2.6 -31.45 3.15 L-26.0 3.75 -26.0 13.4 -32.75 14.4 Q-39.85 15.05 -41.55 13.4 L-41.9 12.95 -41.9 11.6" fill="#bf7926" fill-rule="evenodd" stroke="none"/>
      <path d="M-34.15 -3.95 Q-36.45 3.05 -36.45 11.05 -36.45 19.75 -28.75 25.1 -19.35 31.7 -0.2 31.7 18.95 31.7 28.35 25.1 36.05 19.75 36.05 11.05 36.05 3.05 33.75 -3.95 31.15 -11.75 26.1 -16.8 20.85 -22.05 14.05 -24.75 7.4 -27.4 -0.2 -27.4 -7.8 -27.4 -14.45 -24.75 -21.25 -22.05 -26.5 -16.8 -31.55 -11.75 -34.15 -3.95" fill="#137bf0" fill-rule="evenodd" stroke="none"/>
      <path d="M-34.15 -3.95 Q-36.45 3.05 -36.45 11.05 -36.45 19.75 -28.75 25.1 -19.35 31.7 -0.2 31.7 18.95 31.7 28.35 25.1 36.05 19.75 36.05 11.05 36.05 3.05 33.75 -3.95 31.15 -11.75 26.1 -16.8 20.85 -22.05 14.05 -24.75 7.4 -27.4 -0.2 -27.4 -7.8 -27.4 -14.45 -24.75 -21.25 -22.05 -26.5 -16.8 -31.55 -11.75 -34.15 -3.95 Z" ffdec:has-small-stroke="true" ffdec:original-stroke-width="1.0" fill="none" stroke="#102c4d" stroke-linecap="round" stroke-linejoin="round" stroke-width="1.8729922835095743"/>
      <path d="M-14.3 -19.4 Q-11.65 -22.45 -8.55 -24.7 L-12.3 -23.5 Q-19.1 -20.95 -24.35 -15.95 -29.4 -11.1 -32.0 -3.7 -34.3 3.0 -34.3 10.6 -34.3 18.9 -26.6 24.0 -22.5 26.7 -16.55 28.25 -24.25 22.15 -24.25 12.3 -24.25 3.15 -21.95 -4.8 -19.35 -13.65 -14.3 -19.4" fill="#0d5eb8" fill-rule="evenodd" stroke="none"/>
      <path d="M18.25 -20.95 L21.7 -17.9 Q26.75 -12.85 29.35 -5.05 31.65 1.95 31.65 9.95 31.65 18.65 23.95 24.0 L23.85 24.1 Q26.05 19.15 26.05 12.95 26.05 2.25 23.75 -7.05 21.75 -15.1 18.25 -20.95" fill="#ffffff" fill-rule="evenodd" stroke="none"/>
      <path d="M32.35 17.8 Q28.45 23.95 20.5 26.85 L19.4 27.2 19.3 28.25 Q19.3 30.95 13.6 32.8 7.9 34.75 -0.2 34.75 -8.3 34.75 -14.05 32.8 -19.75 30.95 -19.75 28.25 L-19.85 27.25 -20.95 26.85 Q-24.85 25.3 -27.9 22.95 -30.8 20.75 -32.55 18.15 -30.9 17.05 -28.85 16.0 -24.75 13.9 -20.95 13.35 -17.35 12.8 -10.45 15.1 -2.9 17.6 -0.2 17.6 2.65 17.6 10.05 15.05 16.85 12.7 20.5 13.2 24.2 13.75 28.5 15.75 32.15 17.75 32.35 17.8" fill="#a35d0d" fill-rule="evenodd" stroke="none"/>
      <path d="M21.5 21.2 Q20.65 20.3 19.4 20.3 18.2 20.3 17.3 21.2 16.45 22.05 16.45 23.3 16.45 24.5 17.3 25.4 18.2 26.25 19.4 26.25 20.65 26.25 21.5 25.4 22.4 24.5 22.4 23.3 22.4 22.05 21.5 21.2" fill="#000000" fill-rule="evenodd" stroke="none"/>
      <path d="M-17.8 21.2 Q-18.65 20.3 -19.9 20.3 -21.1 20.3 -22.0 21.2 -22.85 22.05 -22.85 23.3 -22.85 24.5 -22.0 25.4 -21.1 26.25 -19.9 26.25 -18.65 26.25 -17.8 25.4 -16.9 24.5 -16.9 23.3 -16.9 22.05 -17.8 21.2" fill="#000000" fill-rule="evenodd" stroke="none"/>
      <path d="M-19.65 27.15 Q-11.9 22.8 -1.3 22.3 11.5 22.75 19.15 27.25 L19.4 27.45 19.4 27.5 19.35 28.2 Q19.35 30.95 13.6 32.8 7.9 34.75 -0.25 34.75 -8.3 34.75 -14.05 32.8 -19.75 30.95 -19.75 28.2 L-19.9 27.3 -19.65 27.15" fill="#bf7926" fill-rule="evenodd" stroke="none"/>
    </g>
    <g id="shape1" transform="matrix(1.0, 0.0, 0.0, 1.0, 52.0, 41.4)">
      <path d="M-16.2 33.4 Q-13.6 35.1 -13.6 37.5 -13.6 39.9 -16.2 41.6 -18.75 43.3 -22.4 43.3 -26.05 43.3 -28.6 41.6 -31.15 39.9 -31.15 37.5 -31.15 35.1 -28.6 33.4 -26.05 31.7 -22.4 31.7 -18.75 31.7 -16.2 33.4" fill="#137bf0" fill-opacity="0.29803923" fill-rule="evenodd" stroke="none"/>
      <path d="M-16.2 33.4 Q-13.6 35.1 -13.6 37.5 -13.6 39.9 -16.2 41.6 -18.75 43.3 -22.4 43.3 -26.05 43.3 -28.6 41.6 -31.15 39.9 -31.15 37.5 -31.15 35.1 -28.6 33.4 -26.05 31.7 -22.4 31.7 -18.75 31.7 -16.2 33.4" fill="#137bf0" fill-opacity="0.29803923" fill-rule="evenodd" stroke="none"/>
      <path d="M-22.45 11.9 Q-18.85 14.25 -18.85 17.6 -18.85 20.95 -22.45 23.3 -26.0 25.65 -31.05 25.65 -36.1 25.65 -39.65 23.3 -43.2 20.95 -43.2 17.6 -43.2 14.25 -39.65 11.9 -36.1 9.55 -31.05 9.55 -26.0 9.55 -22.45 11.9" fill="#137bf0" fill-opacity="0.29803923" fill-rule="evenodd" stroke="none"/>
      <path d="M-22.45 11.9 Q-18.85 14.25 -18.85 17.6 -18.85 20.95 -22.45 23.3 -26.0 25.65 -31.05 25.65 -36.1 25.65 -39.65 23.3 -43.2 20.95 -43.2 17.6 -43.2 14.25 -39.65 11.9 -36.1 9.55 -31.05 9.55 -26.0 9.55 -22.45 11.9" fill="#137bf0" fill-opacity="0.29803923" fill-rule="evenodd" stroke="none"/>
      <path d="M-34.4 -33.05 Q-31.8 -31.35 -31.8 -28.95 -31.8 -26.55 -34.4 -24.85 -36.95 -23.15 -40.6 -23.15 -44.25 -23.15 -46.8 -24.85 -49.35 -26.55 -49.35 -28.95 -49.35 -31.35 -46.8 -33.05 -44.25 -34.75 -40.6 -34.75 -36.95 -34.75 -34.4 -33.05" fill="#137bf0" fill-opacity="0.29803923" fill-rule="evenodd" stroke="none"/>
      <path d="M-34.4 -33.05 Q-31.8 -31.35 -31.8 -28.95 -31.8 -26.55 -34.4 -24.85 -36.95 -23.15 -40.6 -23.15 -44.25 -23.15 -46.8 -24.85 -49.35 -26.55 -49.35 -28.95 -49.35 -31.35 -46.8 -33.05 -44.25 -34.75 -40.6 -34.75 -36.95 -34.75 -34.4 -33.05" fill="#137bf0" fill-opacity="0.29803923" fill-rule="evenodd" stroke="none"/>
      <path d="M-29.05 -13.6 Q-25.45 -11.25 -25.45 -7.9 -25.45 -4.55 -29.05 -2.2 -32.6 0.15 -37.65 0.15 -42.7 0.15 -46.25 -2.2 -49.8 -4.55 -49.8 -7.9 -49.8 -11.25 -46.25 -13.6 -42.7 -15.95 -37.65 -15.95 -32.6 -15.95 -29.05 -13.6" fill="#137bf0" fill-opacity="0.29803923" fill-rule="evenodd" stroke="none"/>
      <path d="M-29.05 -13.6 Q-25.45 -11.25 -25.45 -7.9 -25.45 -4.55 -29.05 -2.2 -32.6 0.15 -37.65 0.15 -42.7 0.15 -46.25 -2.2 -49.8 -4.55 -49.8 -7.9 -49.8 -11.25 -46.25 -13.6 -42.7 -15.95 -37.65 -15.95 -32.6 -15.95 -29.05 -13.6" fill="#137bf0" fill-opacity="0.29803923" fill-rule="evenodd" stroke="none"/>
      <path d="M-14.45 40.6 Q-11.85 42.3 -11.85 44.7 -11.85 47.1 -14.45 48.8 -17.0 50.5 -20.65 50.5 -24.3 50.5 -26.85 48.8 -29.4 47.1 -29.4 44.7 -29.4 42.3 -26.85 40.6 -24.3 38.9 -20.65 38.9 -17.0 38.9 -14.45 40.6" fill="#bf7926" fill-rule="evenodd" stroke="none"/>
      <path d="M-14.45 40.6 Q-11.85 42.3 -11.85 44.7 -11.85 47.1 -14.45 48.8 -17.0 50.5 -20.65 50.5 -24.3 50.5 -26.85 48.8 -29.4 47.1 -29.4 44.7 -29.4 42.3 -26.85 40.6 -24.3 38.9 -20.65 38.9 -17.0 38.9 -14.45 40.6 Z" fill="none" stroke="#3f1a0b" stroke-linecap="round" stroke-linejoin="miter-clip" stroke-miterlimit="3.0" stroke-width="5.0"/>
      <path d="M-14.45 40.6 Q-11.85 42.3 -11.85 44.7 -11.85 47.1 -14.45 48.8 -17.0 50.5 -20.65 50.5 -24.3 50.5 -26.85 48.8 -29.4 47.1 -29.4 44.7 -29.4 42.3 -26.85 40.6 -24.3 38.9 -20.65 38.9 -17.0 38.9 -14.45 40.6" fill="#bf7926" fill-rule="evenodd" stroke="none"/>
      <path d="M-20.7 19.1 Q-17.1 21.45 -17.1 24.8 -17.1 28.15 -20.7 30.5 -24.25 32.85 -29.3 32.85 -34.35 32.85 -37.9 30.5 -41.45 28.15 -41.45 24.8 -41.45 21.45 -37.9 19.1 -34.35 16.75 -29.3 16.75 -24.25 16.75 -20.7 19.1" fill="#bf7926" fill-rule="evenodd" stroke="none"/>
      <path d="M-20.7 19.1 Q-17.1 21.45 -17.1 24.8 -17.1 28.15 -20.7 30.5 -24.25 32.85 -29.3 32.85 -34.35 32.85 -37.9 30.5 -41.45 28.15 -41.45 24.8 -41.45 21.45 -37.9 19.1 -34.35 16.75 -29.3 16.75 -24.25 16.75 -20.7 19.1 Z" fill="none" stroke="#3f1a0b" stroke-linecap="round" stroke-linejoin="miter-clip" stroke-miterlimit="3.0" stroke-width="5.0"/>
      <path d="M-20.7 19.1 Q-17.1 21.45 -17.1 24.8 -17.1 28.15 -20.7 30.5 -24.25 32.85 -29.3 32.85 -34.35 32.85 -37.9 30.5 -41.45 28.15 -41.45 24.8 -41.45 21.45 -37.9 19.1 -34.35 16.75 -29.3 16.75 -24.25 16.75 -20.7 19.1" fill="#bf7926" fill-rule="evenodd" stroke="none"/>
      <path d="M-32.65 -25.85 Q-30.05 -24.15 -30.05 -21.75 -30.05 -19.35 -32.65 -17.65 -35.2 -15.95 -38.85 -15.95 -42.5 -15.95 -45.05 -17.65 -47.6 -19.35 -47.6 -21.75 -47.6 -24.15 -45.05 -25.85 -42.5 -27.55 -38.85 -27.55 -35.2 -27.55 -32.65 -25.85" fill="#bf7926" fill-rule="evenodd" stroke="none"/>
      <path d="M-32.65 -25.85 Q-30.05 -24.15 -30.05 -21.75 -30.05 -19.35 -32.65 -17.65 -35.2 -15.95 -38.85 -15.95 -42.5 -15.95 -45.05 -17.65 -47.6 -19.35 -47.6 -21.75 -47.6 -24.15 -45.05 -25.85 -42.5 -27.55 -38.85 -27.55 -35.2 -27.55 -32.65 -25.85 Z" fill="none" stroke="#3f1a0b" stroke-linecap="round" stroke-linejoin="miter-clip" stroke-miterlimit="3.0" stroke-width="5.0"/>
      <path d="M-32.65 -25.85 Q-30.05 -24.15 -30.05 -21.75 -30.05 -19.35 -32.65 -17.65 -35.2 -15.95 -38.85 -15.95 -42.5 -15.95 -45.05 -17.65 -47.6 -19.35 -47.6 -21.75 -47.6 -24.15 -45.05 -25.85 -42.5 -27.55 -38.85 -27.55 -35.2 -27.55 -32.65 -25.85" fill="#bf7926" fill-rule="evenodd" stroke="none"/>
      <path d="M-27.3 -6.4 Q-23.7 -4.05 -23.7 -0.7 -23.7 2.65 -27.3 5.0 -30.85 7.35 -35.9 7.35 -40.95 7.35 -44.5 5.0 -48.05 2.65 -48.05 -0.7 -48.05 -4.05 -44.5 -6.4 -40.95 -8.75 -35.9 -8.75 -30.85 -8.75 -27.3 -6.4" fill="#bf7926" fill-rule="evenodd" stroke="none"/>
      <path d="M-27.3 -6.4 Q-23.7 -4.05 -23.7 -0.7 -23.7 2.65 -27.3 5.0 -30.85 7.35 -35.9 7.35 -40.95 7.35 -44.5 5.0 -48.05 2.65 -48.05 -0.7 -48.05 -4.05 -44.5 -6.4 -40.95 -8.75 -35.9 -8.75 -30.85 -8.75 -27.3 -6.4 Z" fill="none" stroke="#3f1a0b" stroke-linecap="round" stroke-linejoin="miter-clip" stroke-miterlimit="3.0" stroke-width="5.0"/>
      <path d="M-27.3 -6.4 Q-23.7 -4.05 -23.7 -0.7 -23.7 2.65 -27.3 5.0 -30.85 7.35 -35.9 7.35 -40.95 7.35 -44.5 5.0 -48.05 2.65 -48.05 -0.7 -48.05 -4.05 -44.5 -6.4 -40.95 -8.75 -35.9 -8.75 -30.85 -8.75 -27.3 -6.4" fill="#bf7926" fill-rule="evenodd" stroke="none"/>
      <path d="M-15.95 34.45 Q-13.35 36.15 -13.35 38.55 -13.35 40.95 -15.95 42.65 -18.5 44.35 -22.15 44.35 -25.8 44.35 -28.35 42.65 -30.9 40.95 -30.9 38.55 -30.9 36.15 -28.35 34.45 -25.8 32.75 -22.15 32.75 -18.5 32.75 -15.95 34.45" fill="#bf7926" fill-opacity="0.29803923" fill-rule="evenodd" stroke="none"/>
      <path d="M-15.95 34.45 Q-13.35 36.15 -13.35 38.55 -13.35 40.95 -15.95 42.65 -18.5 44.35 -22.15 44.35 -25.8 44.35 -28.35 42.65 -30.9 40.95 -30.9 38.55 -30.9 36.15 -28.35 34.45 -25.8 32.75 -22.15 32.75 -18.5 32.75 -15.95 34.45" fill="#bf7926" fill-opacity="0.29803923" fill-rule="evenodd" stroke="none"/>
      <path d="M-22.2 12.95 Q-18.6 15.3 -18.6 18.65 -18.6 22.0 -22.2 24.35 -25.75 26.7 -30.8 26.7 -35.85 26.7 -39.4 24.35 -42.95 22.0 -42.95 18.65 -42.95 15.3 -39.4 12.95 -35.85 10.6 -30.8 10.6 -25.75 10.6 -22.2 12.95" fill="#bf7926" fill-opacity="0.29803923" fill-rule="evenodd" stroke="none"/>
      <path d="M-22.2 12.95 Q-18.6 15.3 -18.6 18.65 -18.6 22.0 -22.2 24.35 -25.75 26.7 -30.8 26.7 -35.85 26.7 -39.4 24.35 -42.95 22.0 -42.95 18.65 -42.95 15.3 -39.4 12.95 -35.85 10.6 -30.8 10.6 -25.75 10.6 -22.2 12.95" fill="#bf7926" fill-opacity="0.29803923" fill-rule="evenodd" stroke="none"/>
      <path d="M-34.15 -32.0 Q-31.55 -30.3 -31.55 -27.9 -31.55 -25.5 -34.15 -23.8 -36.7 -22.1 -40.35 -22.1 -44.0 -22.1 -46.55 -23.8 -49.1 -25.5 -49.1 -27.9 -49.1 -30.3 -46.55 -32.0 -44.0 -33.7 -40.35 -33.7 -36.7 -33.7 -34.15 -32.0" fill="#bf7926" fill-opacity="0.29803923" fill-rule="evenodd" stroke="none"/>
      <path d="M-34.15 -32.0 Q-31.55 -30.3 -31.55 -27.9 -31.55 -25.5 -34.15 -23.8 -36.7 -22.1 -40.35 -22.1 -44.0 -22.1 -46.55 -23.8 -49.1 -25.5 -49.1 -27.9 -49.1 -30.3 -46.55 -32.0 -44.0 -33.7 -40.35 -33.7 -36.7 -33.7 -34.15 -32.0" fill="#bf7926" fill-opacity="0.29803923" fill-rule="evenodd" stroke="none"/>
      <path d="M-28.8 -12.55 Q-25.2 -10.2 -25.2 -6.85 -25.2 -3.5 -28.8 -1.15 -32.35 1.2 -37.4 1.2 -42.45 1.2 -46.0 -1.15 -49.55 -3.5 -49.55 -6.85 -49.55 -10.2 -46.0 -12.55 -42.45 -14.9 -37.4 -14.9 -32.35 -14.9 -28.8 -12.55" fill="#bf7926" fill-opacity="0.29803923" fill-rule="evenodd" stroke="none"/>
      <path d="M-28.8 -12.55 Q-25.2 -10.2 -25.2 -6.85 -25.2 -3.5 -28.8 -1.15 -32.35 1.2 -37.4 1.2 -42.45 1.2 -46.0 -1.15 -49.55 -3.5 -49.55 -6.85 -49.55 -10.2 -46.0 -12.55 -42.45 -14.9 -37.4 -14.9 -32.35 -14.9 -28.8 -12.55" fill="#bf7926" fill-opacity="0.29803923" fill-rule="evenodd" stroke="none"/>
      <path d="M-18.4 26.75 Q-15.8 28.45 -15.8 30.85 -15.8 33.25 -18.4 34.95 -20.95 36.65 -24.6 36.65 -28.25 36.65 -30.8 34.95 -33.35 33.25 -33.35 30.85 -33.35 28.45 -30.8 26.75 -28.25 25.05 -24.6 25.05 -20.95 25.05 -18.4 26.75" fill="#bf7926" fill-opacity="0.29803923" fill-rule="evenodd" stroke="none"/>
      <path d="M-18.4 26.75 Q-15.8 28.45 -15.8 30.85 -15.8 33.25 -18.4 34.95 -20.95 36.65 -24.6 36.65 -28.25 36.65 -30.8 34.95 -33.35 33.25 -33.35 30.85 -33.35 28.45 -30.8 26.75 -28.25 25.05 -24.6 25.05 -20.95 25.05 -18.4 26.75" fill="#bf7926" fill-opacity="0.29803923" fill-rule="evenodd" stroke="none"/>
      <path d="M-24.65 5.25 Q-21.05 7.6 -21.05 10.95 -21.05 14.3 -24.65 16.65 -28.2 19.0 -33.25 19.0 -38.3 19.0 -41.85 16.65 -45.4 14.3 -45.4 10.95 -45.4 7.6 -41.85 5.25 -38.3 2.9 -33.25 2.9 -28.2 2.9 -24.65 5.25" fill="#bf7926" fill-opacity="0.29803923" fill-rule="evenodd" stroke="none"/>
      <path d="M-24.65 5.25 Q-21.05 7.6 -21.05 10.95 -21.05 14.3 -24.65 16.65 -28.2 19.0 -33.25 19.0 -38.3 19.0 -41.85 16.65 -45.4 14.3 -45.4 10.95 -45.4 7.6 -41.85 5.25 -38.3 2.9 -33.25 2.9 -28.2 2.9 -24.65 5.25" fill="#bf7926" fill-opacity="0.29803923" fill-rule="evenodd" stroke="none"/>
      <path d="M-36.6 -39.7 Q-34.0 -38.0 -34.0 -35.6 -34.0 -33.2 -36.6 -31.5 -39.15 -29.8 -42.8 -29.8 -46.45 -29.8 -49.0 -31.5 -51.55 -33.2 -51.55 -35.6 -51.55 -38.0 -49.0 -39.7 -46.45 -41.4 -42.8 -41.4 -39.15 -41.4 -36.6 -39.7" fill="#bf7926" fill-opacity="0.29803923" fill-rule="evenodd" stroke="none"/>
      <path d="M-36.6 -39.7 Q-34.0 -38.0 -34.0 -35.6 -34.0 -33.2 -36.6 -31.5 -39.15 -29.8 -42.8 -29.8 -46.45 -29.8 -49.0 -31.5 -51.55 -33.2 -51.55 -35.6 -51.55 -38.0 -49.0 -39.7 -46.45 -41.4 -42.8 -41.4 -39.15 -41.4 -36.6 -39.7" fill="#bf7926" fill-opacity="0.29803923" fill-rule="evenodd" stroke="none"/>
      <path d="M-31.25 -20.25 Q-27.65 -17.9 -27.65 -14.55 -27.65 -11.2 -31.25 -8.85 -34.8 -6.5 -39.85 -6.5 -44.9 -6.5 -48.45 -8.85 -52.0 -11.2 -52.0 -14.55 -52.0 -17.9 -48.45 -20.25 -44.9 -22.6 -39.85 -22.6 -34.8 -22.6 -31.25 -20.25" fill="#bf7926" fill-opacity="0.29803923" fill-rule="evenodd" stroke="none"/>
      <path d="M-31.25 -20.25 Q-27.65 -17.9 -27.65 -14.55 -27.65 -11.2 -31.25 -8.85 -34.8 -6.5 -39.85 -6.5 -44.9 -6.5 -48.45 -8.85 -52.0 -11.2 -52.0 -14.55 -52.0 -17.9 -48.45 -20.25 -44.9 -22.6 -39.85 -22.6 -34.8 -22.6 -31.25 -20.25" fill="#bf7926" fill-opacity="0.29803923" fill-rule="evenodd" stroke="none"/>
      <path d="M-36.0 -23.05 Q-35.6 -23.15 -34.55 -18.55 -33.45 -13.9 -32.3 -7.25 L-30.5 4.05 Q-29.85 8.7 -30.25 8.8 -30.6 8.85 -31.7 4.25 L-34.0 -6.95 -35.75 -18.35 Q-36.35 -23.0 -36.0 -23.05" fill="#ffffff" fill-rule="evenodd" stroke="none"/>
      <path d="M-38.05 3.8 Q-38.35 3.85 -37.65 7.15 L-35.8 15.15 -33.55 23.0 Q-32.6 26.2 -32.3 26.15 -32.05 26.1 -32.75 22.8 -33.4 19.5 -34.6 14.85 -35.8 10.2 -36.85 6.95 -37.8 3.75 -38.05 3.8" fill="#ffffff" fill-rule="evenodd" stroke="none"/>
      <path d="M-40.35 -19.9 L-40.75 -23.3 -40.85 -26.85 -40.7 -28.3 Q-40.5 -28.3 -40.2 -26.9 L-39.8 -23.4 -39.7 -19.95 Q-39.7 -18.45 -39.9 -18.45 L-40.35 -19.9" fill="#ffffff" fill-rule="evenodd" stroke="none"/>
      <path d="M-23.25 31.45 L-24.6 26.15 -25.45 20.8 Q-25.65 18.55 -25.3 18.5 -24.95 18.4 -24.3 20.55 -23.6 22.7 -22.95 25.8 -22.3 28.95 -22.1 31.2 -21.85 33.45 -22.2 33.55 -22.55 33.6 -23.25 31.45" fill="#ffffff" fill-rule="evenodd" stroke="none"/>
    </g>
  </defs>
</svg>
