<?xml version="1.0" encoding="UTF-8" standalone="no"?>
<svg xmlns:ffdec="https://www.free-decompiler.com/flash" xmlns:xlink="http://www.w3.org/1999/xlink" ffdec:objectType="frame" height="53.05px" width="75.0px" xmlns="http://www.w3.org/2000/svg">
  <g transform="matrix(1.0, 0.0, 0.0, 1.0, 38.15, 24.75)">
    <use ffdec:characterId="1941" height="92.4" transform="matrix(0.0, -0.5339, 0.5339, 0.0, -33.2279, 24.7732)" width="92.8" xlink:href="#shape0"/>
    <use ffdec:characterId="1945" height="115.75" transform="matrix(0.0, -0.5339, 0.5339, 0.0, -24.9524, 27.2825)" width="41.55" xlink:href="#shape1"/>
  </g>
  <defs>
    <g id="shape0" transform="matrix(1.0, 0.0, 0.0, 1.0, 46.4, 54.65)">
      <path d="M35.55 2.6 Q35.55 11.95 21.5 11.85 13.9 11.75 0.05 9.7 -4.9 9.7 -21.85 11.85 -36.25 11.95 -36.25 2.6 -36.25 -18.1 -31.55 -30.1 -23.2 -51.65 -0.35 -51.65 22.5 -51.65 30.85 -30.1 35.55 -18.1 35.55 2.6 Z" fill="none" stroke="#9f0101" stroke-linecap="round" stroke-linejoin="round" stroke-width="6.0"/>
      <path d="M35.55 2.6 Q35.55 11.95 21.5 11.85 13.9 11.75 0.05 9.7 -4.9 9.7 -21.85 11.85 -36.25 11.95 -36.25 2.6 -36.25 -18.1 -31.55 -30.1 -23.2 -51.65 -0.35 -51.65 22.5 -51.65 30.85 -30.1 35.55 -18.1 35.55 2.6" fill="#ff0000" fill-rule="evenodd" stroke="none"/>
      <path d="M-0.35 -42.3 Q22.5 -42.3 30.85 -18.75 34.15 -9.35 35.1 4.8 33.2 11.95 21.5 11.85 13.9 11.7 0.1 9.45 -4.9 9.45 -21.85 11.85 -33.85 11.95 -35.85 4.8 -34.9 -9.35 -31.55 -18.75 -23.2 -42.3 -0.35 -42.3" fill="#cd0303" fill-rule="evenodd" stroke="none"/>
      <path d="M14.35 -26.9 L-15.6 -26.8 -18.75 -37.85 -0.7 -48.05 17.45 -37.8 14.35 -26.9" fill="#ffcc00" fill-rule="evenodd" stroke="none"/>
      <path d="M15.55 -38.85 L17.45 -37.8 17.3 -37.15 14.35 -26.9 -15.6 -26.8 -18.75 -37.85 -17.5 -38.55 -15.9 -39.45 -16.95 -39.0 Q-9.8 -42.3 -0.35 -42.3 7.1 -42.3 13.2 -40.2 L15.55 -38.85" fill="#cd960d" fill-rule="evenodd" stroke="none"/>
      <path d="M13.2 -40.2 L13.1 -40.25 14.8 -39.65 15.55 -38.85 13.2 -40.2" fill="#cd960d" fill-rule="evenodd" stroke="none"/>
      <path d="M6.85 -31.15 L-0.65 -30.65 Q-10.6 -30.65 -9.3 -34.2 -8.65 -35.85 -5.55 -36.55 -10.7 -37.0 -9.65 -38.95 -8.8 -40.55 -3.05 -40.85 L-3.0 -40.85 2.15 -40.9 2.9 -40.9 8.15 -31.15 6.85 -31.15 M2.0 -37.6 L1.05 -40.4 -2.45 -40.3 Q-6.55 -40.1 -6.9 -38.95 -7.4 -37.45 -2.5 -37.4 L2.0 -37.6 M-0.75 -32.0 L3.9 -32.2 2.45 -36.35 -1.1 -36.3 Q-5.75 -36.0 -6.05 -34.2 -6.45 -32.05 -0.75 -32.0" fill="#ff0000" fill-rule="evenodd" stroke="none"/>
      <path d="M6.85 -31.15 L-0.65 -30.65 Q-10.6 -30.65 -9.3 -34.2 -8.65 -35.85 -5.55 -36.55 -10.7 -37.0 -9.65 -38.95 -8.8 -40.55 -3.05 -40.85 L-3.0 -40.85 2.15 -40.9 2.9 -40.9 8.15 -31.15 6.85 -31.15 M-0.75 -32.0 Q-6.45 -32.05 -6.05 -34.2 -5.75 -36.0 -1.1 -36.3 L2.45 -36.35 3.9 -32.2 -0.75 -32.0 M2.0 -37.6 L-2.5 -37.4 Q-7.4 -37.45 -6.9 -38.95 -6.55 -40.1 -2.45 -40.3 L1.05 -40.4 2.0 -37.6 Z" ffdec:has-small-stroke="true" ffdec:original-stroke-width="1.0" fill="none" stroke="#ff0000" stroke-linecap="butt" stroke-linejoin="miter-clip" stroke-miterlimit="3.0" stroke-width="1.8729922835095743"/>
      <path d="M14.35 -26.9 L-15.6 -26.8 -18.75 -37.85 -0.7 -48.05 17.45 -37.8 14.35 -26.9 Z" fill="none" stroke="#856301" stroke-linecap="butt" stroke-linejoin="miter-clip" stroke-miterlimit="3.0" stroke-width="2.0"/>
      <path d="M-41.55 13.4 Q-43.45 11.45 -43.4 5.45 -43.3 -0.4 -41.55 -2.15 -40.3 -3.4 -34.5 -3.1 L-34.15 -3.95 Q-31.6 -11.75 -26.55 -16.8 -21.3 -22.05 -14.45 -24.75 -7.85 -27.4 -0.25 -27.4 7.35 -27.4 14.0 -24.75 20.8 -22.05 26.05 -16.8 31.1 -11.75 33.7 -3.95 L33.95 -3.05 Q40.2 -3.45 41.55 -2.15 43.3 -0.4 43.4 5.45 43.5 11.45 41.55 13.4 40.25 14.7 35.65 14.6 34.4 20.9 28.3 25.1 24.5 27.8 19.0 29.4 18.05 31.35 13.6 32.8 7.9 34.75 -0.25 34.75 -8.3 34.75 -14.05 32.8 -18.5 31.35 -19.5 29.4 -24.95 27.8 -28.8 25.1 -34.85 20.9 -36.15 14.6 -40.3 14.65 -41.55 13.4 Z" fill="none" stroke="#102c4d" stroke-linecap="round" stroke-linejoin="round" stroke-width="6.0"/>
      <path d="M32.9 -3.0 L26.0 -2.15 26.0 13.4 32.75 14.4 Q39.85 15.05 41.55 13.4 43.45 11.45 43.35 5.45 43.25 -0.4 41.55 -2.15 40.1 -3.55 32.9 -3.0" fill="#137bf0" fill-rule="evenodd" stroke="none"/>
      <path d="M41.9 11.6 Q41.8 5.75 40.05 4.0 38.65 2.6 31.45 3.15 L26.0 3.75 26.0 13.4 32.75 14.4 Q39.85 15.05 41.55 13.4 L41.9 12.95 41.9 11.6" fill="#bf7926" fill-rule="evenodd" stroke="none"/>
      <path d="M-32.9 -3.0 L-26.0 -2.15 -26.0 13.4 -32.75 14.4 Q-39.85 15.05 -41.55 13.4 -43.45 11.45 -43.35 5.45 -43.25 -0.4 -41.55 -2.15 -40.1 -3.55 -32.9 -3.0" fill="#137bf0" fill-rule="evenodd" stroke="none"/>
      <path d="M-41.9 11.6 Q-41.8 5.75 -40.05 4.0 -38.65 2.6 -31.45 3.15 L-26.0 3.75 -26.0 13.4 -32.75 14.4 Q-39.85 15.05 -41.55 13.4 L-41.9 12.95 -41.9 11.6" fill="#bf7926" fill-rule="evenodd" stroke="none"/>
      <path d="M-34.15 -3.95 Q-36.45 3.05 -36.45 11.05 -36.45 19.75 -28.75 25.1 -19.35 31.7 -0.2 31.7 18.95 31.7 28.35 25.1 36.05 19.75 36.05 11.05 36.05 3.05 33.75 -3.95 31.15 -11.75 26.1 -16.8 20.85 -22.05 14.05 -24.75 7.4 -27.4 -0.2 -27.4 -7.8 -27.4 -14.45 -24.75 -21.25 -22.05 -26.5 -16.8 -31.55 -11.75 -34.15 -3.95" fill="#137bf0" fill-rule="evenodd" stroke="none"/>
      <path d="M-34.15 -3.95 Q-36.45 3.05 -36.45 11.05 -36.45 19.75 -28.75 25.1 -19.35 31.7 -0.2 31.7 18.95 31.7 28.35 25.1 36.05 19.75 36.05 11.05 36.05 3.05 33.75 -3.95 31.15 -11.75 26.1 -16.8 20.85 -22.05 14.05 -24.75 7.4 -27.4 -0.2 -27.4 -7.8 -27.4 -14.45 -24.75 -21.25 -22.05 -26.5 -16.8 -31.55 -11.75 -34.15 -3.95 Z" ffdec:has-small-stroke="true" ffdec:original-stroke-width="1.0" fill="none" stroke="#102c4d" stroke-linecap="round" stroke-linejoin="round" stroke-width="1.8729922835095743"/>
      <path d="M-14.3 -19.4 Q-11.65 -22.45 -8.55 -24.7 L-12.3 -23.5 Q-19.1 -20.95 -24.35 -15.95 -29.4 -11.1 -32.0 -3.7 -34.3 3.0 -34.3 10.6 -34.3 18.9 -26.6 24.0 -22.5 26.7 -16.55 28.25 -24.25 22.15 -24.25 12.3 -24.25 3.15 -21.95 -4.8 -19.35 -13.65 -14.3 -19.4" fill="#0d5eb8" fill-rule="evenodd" stroke="none"/>
      <path d="M18.25 -20.95 L21.7 -17.9 Q26.75 -12.85 29.35 -5.05 31.65 1.95 31.65 9.95 31.65 18.65 23.95 24.0 L23.85 24.1 Q26.05 19.15 26.05 12.95 26.05 2.25 23.75 -7.05 21.75 -15.1 18.25 -20.95" fill="#ffffff" fill-rule="evenodd" stroke="none"/>
      <path d="M32.35 17.8 Q28.45 23.95 20.5 26.85 L19.4 27.2 19.3 28.25 Q19.3 30.95 13.6 32.8 7.9 34.75 -0.2 34.75 -8.3 34.75 -14.05 32.8 -19.75 30.95 -19.75 28.25 L-19.85 27.25 -20.95 26.85 Q-24.85 25.3 -27.9 22.95 -30.8 20.75 -32.55 18.15 -30.9 17.05 -28.85 16.0 -24.75 13.9 -20.95 13.35 -17.35 12.8 -10.45 15.1 -2.9 17.6 -0.2 17.6 2.65 17.6 10.05 15.05 16.85 12.7 20.5 13.2 24.2 13.75 28.5 15.75 32.15 17.75 32.35 17.8" fill="#a35d0d" fill-rule="evenodd" stroke="none"/>
      <path d="M21.5 21.2 Q20.65 20.3 19.4 20.3 18.2 20.3 17.3 21.2 16.45 22.05 16.45 23.3 16.45 24.5 17.3 25.4 18.2 26.25 19.4 26.25 20.65 26.25 21.5 25.4 22.4 24.5 22.4 23.3 22.4 22.05 21.5 21.2" fill="#000000" fill-rule="evenodd" stroke="none"/>
      <path d="M-17.8 21.2 Q-18.65 20.3 -19.9 20.3 -21.1 20.3 -22.0 21.2 -22.85 22.05 -22.85 23.3 -22.85 24.5 -22.0 25.4 -21.1 26.25 -19.9 26.25 -18.65 26.25 -17.8 25.4 -16.9 24.5 -16.9 23.3 -16.9 22.05 -17.8 21.2" fill="#000000" fill-rule="evenodd" stroke="none"/>
      <path d="M-19.65 27.15 Q-11.9 22.8 -1.3 22.3 11.5 22.75 19.15 27.25 L19.4 27.45 19.4 27.5 19.35 28.2 Q19.35 30.95 13.6 32.8 7.9 34.75 -0.25 34.75 -8.3 34.75 -14.05 32.8 -19.75 30.95 -19.75 28.2 L-19.9 27.3 -19.65 27.15" fill="#bf7926" fill-rule="evenodd" stroke="none"/>
    </g>
    <g id="shape1" transform="matrix(1.0, 0.0, 0.0, 1.0, 51.1, 39.15)">
      <path d="M-44.35 -26.4 Q-45.95 -27.45 -45.95 -28.95 -45.95 -30.4 -44.35 -31.45 -42.75 -32.5 -40.5 -32.5 -38.25 -32.5 -36.65 -31.45 -35.1 -30.4 -35.1 -28.95 -35.1 -27.45 -36.65 -26.4 -38.25 -25.35 -40.5 -25.35 -42.75 -25.35 -44.35 -26.4" fill="#137bf0" fill-opacity="0.29803923" fill-rule="evenodd" stroke="none"/>
      <path d="M-44.35 -26.4 Q-45.95 -27.45 -45.95 -28.95 -45.95 -30.4 -44.35 -31.45 -42.75 -32.5 -40.5 -32.5 -38.25 -32.5 -36.65 -31.45 -35.1 -30.4 -35.1 -28.95 -35.1 -27.45 -36.65 -26.4 -38.25 -25.35 -40.5 -25.35 -42.75 -25.35 -44.35 -26.4" fill="#137bf0" fill-opacity="0.29803923" fill-rule="evenodd" stroke="none"/>
      <path d="M-46.3 -18.85 Q-48.9 -20.55 -48.9 -22.95 -48.9 -25.35 -46.3 -27.05 -43.75 -28.75 -40.1 -28.75 -36.45 -28.75 -33.9 -27.05 -31.35 -25.35 -31.35 -22.95 -31.35 -20.55 -33.9 -18.85 -36.45 -17.15 -40.1 -17.15 -43.75 -17.15 -46.3 -18.85" fill="#137bf0" fill-opacity="0.29803923" fill-rule="evenodd" stroke="none"/>
      <path d="M-46.3 -18.85 Q-48.9 -20.55 -48.9 -22.95 -48.9 -25.35 -46.3 -27.05 -43.75 -28.75 -40.1 -28.75 -36.45 -28.75 -33.9 -27.05 -31.35 -25.35 -31.35 -22.95 -31.35 -20.55 -33.9 -18.85 -36.45 -17.15 -40.1 -17.15 -43.75 -17.15 -46.3 -18.85" fill="#137bf0" fill-opacity="0.29803923" fill-rule="evenodd" stroke="none"/>
      <path d="M-44.25 7.65 Q-47.85 5.3 -47.85 1.95 -47.85 -1.4 -44.25 -3.75 -40.7 -6.1 -35.65 -6.1 -30.6 -6.1 -27.05 -3.75 -23.5 -1.4 -23.5 1.95 -23.5 5.3 -27.05 7.65 -30.6 10.0 -35.65 10.0 -40.7 10.0 -44.25 7.65" fill="#137bf0" fill-opacity="0.29803923" fill-rule="evenodd" stroke="none"/>
      <path d="M-44.25 7.65 Q-47.85 5.3 -47.85 1.95 -47.85 -1.4 -44.25 -3.75 -40.7 -6.1 -35.65 -6.1 -30.6 -6.1 -27.05 -3.75 -23.5 -1.4 -23.5 1.95 -23.5 5.3 -27.05 7.65 -30.6 10.0 -35.65 10.0 -40.7 10.0 -44.25 7.65" fill="#137bf0" fill-opacity="0.29803923" fill-rule="evenodd" stroke="none"/>
      <path d="M-23.75 44.3 Q-25.35 43.25 -25.35 41.75 -25.35 40.3 -23.75 39.25 -22.15 38.2 -19.9 38.2 -17.65 38.2 -16.05 39.25 -14.5 40.3 -14.5 41.75 -14.5 43.25 -16.05 44.3 -17.65 45.35 -19.9 45.35 -22.15 45.35 -23.75 44.3" fill="#137bf0" fill-opacity="0.29803923" fill-rule="evenodd" stroke="none"/>
      <path d="M-23.75 44.3 Q-25.35 43.25 -25.35 41.75 -25.35 40.3 -23.75 39.25 -22.15 38.2 -19.9 38.2 -17.65 38.2 -16.05 39.25 -14.5 40.3 -14.5 41.75 -14.5 43.25 -16.05 44.3 -17.65 45.35 -19.9 45.35 -22.15 45.35 -23.75 44.3" fill="#137bf0" fill-opacity="0.29803923" fill-rule="evenodd" stroke="none"/>
      <path d="M-34.7 29.45 Q-37.3 27.75 -37.3 25.35 -37.3 22.95 -34.7 21.25 -32.15 19.55 -28.5 19.55 -24.85 19.55 -22.3 21.25 -19.75 22.95 -19.75 25.35 -19.75 27.75 -22.3 29.45 -24.85 31.15 -28.5 31.15 -32.15 31.15 -34.7 29.45" fill="#137bf0" fill-opacity="0.29803923" fill-rule="evenodd" stroke="none"/>
      <path d="M-34.7 29.45 Q-37.3 27.75 -37.3 25.35 -37.3 22.95 -34.7 21.25 -32.15 19.55 -28.5 19.55 -24.85 19.55 -22.3 21.25 -19.75 22.95 -19.75 25.35 -19.75 27.75 -22.3 29.45 -24.85 31.15 -28.5 31.15 -32.15 31.15 -34.7 29.45" fill="#137bf0" fill-opacity="0.29803923" fill-rule="evenodd" stroke="none"/>
      <path d="M-42.6 -19.2 Q-44.2 -20.25 -44.2 -21.75 -44.2 -23.2 -42.6 -24.25 -41.0 -25.3 -38.75 -25.3 -36.5 -25.3 -34.9 -24.25 -33.35 -23.2 -33.35 -21.75 -33.35 -20.25 -34.9 -19.2 -36.5 -18.15 -38.75 -18.15 -41.0 -18.15 -42.6 -19.2" fill="#bf7926" fill-rule="evenodd" stroke="none"/>
      <path d="M-42.6 -19.2 Q-44.2 -20.25 -44.2 -21.75 -44.2 -23.2 -42.6 -24.25 -41.0 -25.3 -38.75 -25.3 -36.5 -25.3 -34.9 -24.25 -33.35 -23.2 -33.35 -21.75 -33.35 -20.25 -34.9 -19.2 -36.5 -18.15 -38.75 -18.15 -41.0 -18.15 -42.6 -19.2 Z" fill="none" stroke="#3f1a0b" stroke-linecap="round" stroke-linejoin="miter-clip" stroke-miterlimit="3.0" stroke-width="5.0"/>
      <path d="M-42.6 -19.2 Q-44.2 -20.25 -44.2 -21.75 -44.2 -23.2 -42.6 -24.25 -41.0 -25.3 -38.75 -25.3 -36.5 -25.3 -34.9 -24.25 -33.35 -23.2 -33.35 -21.75 -33.35 -20.25 -34.9 -19.2 -36.5 -18.15 -38.75 -18.15 -41.0 -18.15 -42.6 -19.2" fill="#bf7926" fill-rule="evenodd" stroke="none"/>
      <path d="M-44.55 -11.65 Q-47.15 -13.35 -47.15 -15.75 -47.15 -18.15 -44.55 -19.85 -42.0 -21.55 -38.35 -21.55 -34.7 -21.55 -32.15 -19.85 -29.6 -18.15 -29.6 -15.75 -29.6 -13.35 -32.15 -11.65 -34.7 -9.95 -38.35 -9.95 -42.0 -9.95 -44.55 -11.65" fill="#bf7926" fill-rule="evenodd" stroke="none"/>
      <path d="M-44.55 -11.65 Q-47.15 -13.35 -47.15 -15.75 -47.15 -18.15 -44.55 -19.85 -42.0 -21.55 -38.35 -21.55 -34.7 -21.55 -32.15 -19.85 -29.6 -18.15 -29.6 -15.75 -29.6 -13.35 -32.15 -11.65 -34.7 -9.95 -38.35 -9.95 -42.0 -9.95 -44.55 -11.65 Z" fill="none" stroke="#3f1a0b" stroke-linecap="round" stroke-linejoin="miter-clip" stroke-miterlimit="3.0" stroke-width="5.0"/>
      <path d="M-44.55 -11.65 Q-47.15 -13.35 -47.15 -15.75 -47.15 -18.15 -44.55 -19.85 -42.0 -21.55 -38.35 -21.55 -34.7 -21.55 -32.15 -19.85 -29.6 -18.15 -29.6 -15.75 -29.6 -13.35 -32.15 -11.65 -34.7 -9.95 -38.35 -9.95 -42.0 -9.95 -44.55 -11.65" fill="#bf7926" fill-rule="evenodd" stroke="none"/>
      <path d="M-42.5 14.85 Q-46.1 12.5 -46.1 9.15 -46.1 5.8 -42.5 3.45 -38.95 1.1 -33.9 1.1 -28.85 1.1 -25.3 3.45 -21.75 5.8 -21.75 9.15 -21.75 12.5 -25.3 14.85 -28.85 17.2 -33.9 17.2 -38.95 17.2 -42.5 14.85" fill="#bf7926" fill-rule="evenodd" stroke="none"/>
      <path d="M-42.5 14.85 Q-46.1 12.5 -46.1 9.15 -46.1 5.8 -42.5 3.45 -38.95 1.1 -33.9 1.1 -28.85 1.1 -25.3 3.45 -21.75 5.8 -21.75 9.15 -21.75 12.5 -25.3 14.85 -28.85 17.2 -33.9 17.2 -38.95 17.2 -42.5 14.85 Z" fill="none" stroke="#3f1a0b" stroke-linecap="round" stroke-linejoin="miter-clip" stroke-miterlimit="3.0" stroke-width="5.0"/>
      <path d="M-42.5 14.85 Q-46.1 12.5 -46.1 9.15 -46.1 5.8 -42.5 3.45 -38.95 1.1 -33.9 1.1 -28.85 1.1 -25.3 3.45 -21.75 5.8 -21.75 9.15 -21.75 12.5 -25.3 14.85 -28.85 17.2 -33.9 17.2 -38.95 17.2 -42.5 14.85" fill="#bf7926" fill-rule="evenodd" stroke="none"/>
      <path d="M-22.0 51.5 Q-23.6 50.45 -23.6 48.95 -23.6 47.5 -22.0 46.45 -20.4 45.4 -18.15 45.4 -15.9 45.4 -14.3 46.45 -12.75 47.5 -12.75 48.95 -12.75 50.45 -14.3 51.5 -15.9 52.55 -18.15 52.55 -20.4 52.55 -22.0 51.5" fill="#bf7926" fill-rule="evenodd" stroke="none"/>
      <path d="M-22.0 51.5 Q-23.6 50.45 -23.6 48.95 -23.6 47.5 -22.0 46.45 -20.4 45.4 -18.15 45.4 -15.9 45.4 -14.3 46.45 -12.75 47.5 -12.75 48.95 -12.75 50.45 -14.3 51.5 -15.9 52.55 -18.15 52.55 -20.4 52.55 -22.0 51.5 Z" fill="none" stroke="#3f1a0b" stroke-linecap="round" stroke-linejoin="miter-clip" stroke-miterlimit="3.0" stroke-width="5.0"/>
      <path d="M-22.0 51.5 Q-23.6 50.45 -23.6 48.95 -23.6 47.5 -22.0 46.45 -20.4 45.4 -18.15 45.4 -15.9 45.4 -14.3 46.45 -12.75 47.5 -12.75 48.95 -12.75 50.45 -14.3 51.5 -15.9 52.55 -18.15 52.55 -20.4 52.55 -22.0 51.5" fill="#bf7926" fill-rule="evenodd" stroke="none"/>
      <path d="M-32.95 36.65 Q-35.55 34.95 -35.55 32.55 -35.55 30.15 -32.95 28.45 -30.4 26.75 -26.75 26.75 -23.1 26.75 -20.55 28.45 -18.0 30.15 -18.0 32.55 -18.0 34.95 -20.55 36.65 -23.1 38.35 -26.75 38.35 -30.4 38.35 -32.95 36.65" fill="#bf7926" fill-rule="evenodd" stroke="none"/>
      <path d="M-32.95 36.65 Q-35.55 34.95 -35.55 32.55 -35.55 30.15 -32.95 28.45 -30.4 26.75 -26.75 26.75 -23.1 26.75 -20.55 28.45 -18.0 30.15 -18.0 32.55 -18.0 34.95 -20.55 36.65 -23.1 38.35 -26.75 38.35 -30.4 38.35 -32.95 36.65 Z" fill="none" stroke="#3f1a0b" stroke-linecap="round" stroke-linejoin="miter-clip" stroke-miterlimit="3.0" stroke-width="5.0"/>
      <path d="M-32.95 36.65 Q-35.55 34.95 -35.55 32.55 -35.55 30.15 -32.95 28.45 -30.4 26.75 -26.75 26.75 -23.1 26.75 -20.55 28.45 -18.0 30.15 -18.0 32.55 -18.0 34.95 -20.55 36.65 -23.1 38.35 -26.75 38.35 -30.4 38.35 -32.95 36.65" fill="#bf7926" fill-rule="evenodd" stroke="none"/>
      <path d="M-44.1 -25.35 Q-45.7 -26.4 -45.7 -27.9 -45.7 -29.35 -44.1 -30.4 -42.5 -31.45 -40.25 -31.45 -38.0 -31.45 -36.4 -30.4 -34.85 -29.35 -34.85 -27.9 -34.85 -26.4 -36.4 -25.35 -38.0 -24.3 -40.25 -24.3 -42.5 -24.3 -44.1 -25.35" fill="#bf7926" fill-opacity="0.29803923" fill-rule="evenodd" stroke="none"/>
      <path d="M-44.1 -25.35 Q-45.7 -26.4 -45.7 -27.9 -45.7 -29.35 -44.1 -30.4 -42.5 -31.45 -40.25 -31.45 -38.0 -31.45 -36.4 -30.4 -34.85 -29.35 -34.85 -27.9 -34.85 -26.4 -36.4 -25.35 -38.0 -24.3 -40.25 -24.3 -42.5 -24.3 -44.1 -25.35" fill="#bf7926" fill-opacity="0.29803923" fill-rule="evenodd" stroke="none"/>
      <path d="M-46.05 -17.8 Q-48.65 -19.5 -48.65 -21.9 -48.65 -24.3 -46.05 -26.0 -43.5 -27.7 -39.85 -27.7 -36.2 -27.7 -33.65 -26.0 -31.1 -24.3 -31.1 -21.9 -31.1 -19.5 -33.65 -17.8 -36.2 -16.1 -39.85 -16.1 -43.5 -16.1 -46.05 -17.8" fill="#bf7926" fill-opacity="0.29803923" fill-rule="evenodd" stroke="none"/>
      <path d="M-46.05 -17.8 Q-48.65 -19.5 -48.65 -21.9 -48.65 -24.3 -46.05 -26.0 -43.5 -27.7 -39.85 -27.7 -36.2 -27.7 -33.65 -26.0 -31.1 -24.3 -31.1 -21.9 -31.1 -19.5 -33.65 -17.8 -36.2 -16.1 -39.85 -16.1 -43.5 -16.1 -46.05 -17.8" fill="#bf7926" fill-opacity="0.29803923" fill-rule="evenodd" stroke="none"/>
      <path d="M-44.0 8.7 Q-47.6 6.35 -47.6 3.0 -47.6 -0.35 -44.0 -2.7 -40.45 -5.05 -35.4 -5.05 -30.35 -5.05 -26.8 -2.7 -23.25 -0.35 -23.25 3.0 -23.25 6.35 -26.8 8.7 -30.35 11.05 -35.4 11.05 -40.45 11.05 -44.0 8.7" fill="#bf7926" fill-opacity="0.29803923" fill-rule="evenodd" stroke="none"/>
      <path d="M-44.0 8.7 Q-47.6 6.35 -47.6 3.0 -47.6 -0.35 -44.0 -2.7 -40.45 -5.05 -35.4 -5.05 -30.35 -5.05 -26.8 -2.7 -23.25 -0.35 -23.25 3.0 -23.25 6.35 -26.8 8.7 -30.35 11.05 -35.4 11.05 -40.45 11.05 -44.0 8.7" fill="#bf7926" fill-opacity="0.29803923" fill-rule="evenodd" stroke="none"/>
      <path d="M-23.5 45.35 Q-25.1 44.3 -25.1 42.8 -25.1 41.35 -23.5 40.3 -21.9 39.25 -19.65 39.25 -17.4 39.25 -15.8 40.3 -14.25 41.35 -14.25 42.8 -14.25 44.3 -15.8 45.35 -17.4 46.4 -19.65 46.4 -21.9 46.4 -23.5 45.35" fill="#bf7926" fill-opacity="0.29803923" fill-rule="evenodd" stroke="none"/>
      <path d="M-23.5 45.35 Q-25.1 44.3 -25.1 42.8 -25.1 41.35 -23.5 40.3 -21.9 39.25 -19.65 39.25 -17.4 39.25 -15.8 40.3 -14.25 41.35 -14.25 42.8 -14.25 44.3 -15.8 45.35 -17.4 46.4 -19.65 46.4 -21.9 46.4 -23.5 45.35" fill="#bf7926" fill-opacity="0.29803923" fill-rule="evenodd" stroke="none"/>
      <path d="M-34.45 30.5 Q-37.05 28.8 -37.05 26.4 -37.05 24.0 -34.45 22.3 -31.9 20.6 -28.25 20.6 -24.6 20.6 -22.05 22.3 -19.5 24.0 -19.5 26.4 -19.5 28.8 -22.05 30.5 -24.6 32.2 -28.25 32.2 -31.9 32.2 -34.45 30.5" fill="#bf7926" fill-opacity="0.29803923" fill-rule="evenodd" stroke="none"/>
      <path d="M-34.45 30.5 Q-37.05 28.8 -37.05 26.4 -37.05 24.0 -34.45 22.3 -31.9 20.6 -28.25 20.6 -24.6 20.6 -22.05 22.3 -19.5 24.0 -19.5 26.4 -19.5 28.8 -22.05 30.5 -24.6 32.2 -28.25 32.2 -31.9 32.2 -34.45 30.5" fill="#bf7926" fill-opacity="0.29803923" fill-rule="evenodd" stroke="none"/>
      <path d="M-46.55 -33.05 Q-48.15 -34.1 -48.15 -35.6 -48.15 -37.05 -46.55 -38.1 -44.95 -39.15 -42.7 -39.15 -40.45 -39.15 -38.85 -38.1 -37.3 -37.05 -37.3 -35.6 -37.3 -34.1 -38.85 -33.05 -40.45 -32.0 -42.7 -32.0 -44.95 -32.0 -46.55 -33.05" fill="#bf7926" fill-opacity="0.29803923" fill-rule="evenodd" stroke="none"/>
      <path d="M-46.55 -33.05 Q-48.15 -34.1 -48.15 -35.6 -48.15 -37.05 -46.55 -38.1 -44.95 -39.15 -42.7 -39.15 -40.45 -39.15 -38.85 -38.1 -37.3 -37.05 -37.3 -35.6 -37.3 -34.1 -38.85 -33.05 -40.45 -32.0 -42.7 -32.0 -44.95 -32.0 -46.55 -33.05" fill="#bf7926" fill-opacity="0.29803923" fill-rule="evenodd" stroke="none"/>
      <path d="M-48.5 -25.5 Q-51.1 -27.2 -51.1 -29.6 -51.1 -32.0 -48.5 -33.7 -45.95 -35.4 -42.3 -35.4 -38.65 -35.4 -36.1 -33.7 -33.55 -32.0 -33.55 -29.6 -33.55 -27.2 -36.1 -25.5 -38.65 -23.8 -42.3 -23.8 -45.95 -23.8 -48.5 -25.5" fill="#bf7926" fill-opacity="0.29803923" fill-rule="evenodd" stroke="none"/>
      <path d="M-48.5 -25.5 Q-51.1 -27.2 -51.1 -29.6 -51.1 -32.0 -48.5 -33.7 -45.95 -35.4 -42.3 -35.4 -38.65 -35.4 -36.1 -33.7 -33.55 -32.0 -33.55 -29.6 -33.55 -27.2 -36.1 -25.5 -38.65 -23.8 -42.3 -23.8 -45.95 -23.8 -48.5 -25.5" fill="#bf7926" fill-opacity="0.29803923" fill-rule="evenodd" stroke="none"/>
      <path d="M-46.45 1.0 Q-50.05 -1.35 -50.05 -4.7 -50.05 -8.05 -46.45 -10.4 -42.9 -12.75 -37.85 -12.75 -32.8 -12.75 -29.25 -10.4 -25.7 -8.05 -25.7 -4.7 -25.7 -1.35 -29.25 1.0 -32.8 3.35 -37.85 3.35 -42.9 3.35 -46.45 1.0" fill="#bf7926" fill-opacity="0.29803923" fill-rule="evenodd" stroke="none"/>
      <path d="M-46.45 1.0 Q-50.05 -1.35 -50.05 -4.7 -50.05 -8.05 -46.45 -10.4 -42.9 -12.75 -37.85 -12.75 -32.8 -12.75 -29.25 -10.4 -25.7 -8.05 -25.7 -4.7 -25.7 -1.35 -29.25 1.0 -32.8 3.35 -37.85 3.35 -42.9 3.35 -46.45 1.0" fill="#bf7926" fill-opacity="0.29803923" fill-rule="evenodd" stroke="none"/>
      <path d="M-25.95 37.65 Q-27.55 36.6 -27.55 35.1 -27.55 33.65 -25.95 32.6 -24.35 31.55 -22.1 31.55 -19.85 31.55 -18.25 32.6 -16.7 33.65 -16.7 35.1 -16.7 36.6 -18.25 37.65 -19.85 38.7 -22.1 38.7 -24.35 38.7 -25.95 37.65" fill="#bf7926" fill-opacity="0.29803923" fill-rule="evenodd" stroke="none"/>
      <path d="M-25.95 37.65 Q-27.55 36.6 -27.55 35.1 -27.55 33.65 -25.95 32.6 -24.35 31.55 -22.1 31.55 -19.85 31.55 -18.25 32.6 -16.7 33.65 -16.7 35.1 -16.7 36.6 -18.25 37.65 -19.85 38.7 -22.1 38.7 -24.35 38.7 -25.95 37.65" fill="#bf7926" fill-opacity="0.29803923" fill-rule="evenodd" stroke="none"/>
      <path d="M-36.9 22.8 Q-39.5 21.1 -39.5 18.7 -39.5 16.3 -36.9 14.6 -34.35 12.9 -30.7 12.9 -27.05 12.9 -24.5 14.6 -21.95 16.3 -21.95 18.7 -21.95 21.1 -24.5 22.8 -27.05 24.5 -30.7 24.5 -34.35 24.5 -36.9 22.8" fill="#bf7926" fill-opacity="0.29803923" fill-rule="evenodd" stroke="none"/>
      <path d="M-36.9 22.8 Q-39.5 21.1 -39.5 18.7 -39.5 16.3 -36.9 14.6 -34.35 12.9 -30.7 12.9 -27.05 12.9 -24.5 14.6 -21.95 16.3 -21.95 18.7 -21.95 21.1 -24.5 22.8 -27.05 24.5 -30.7 24.5 -34.35 24.5 -36.9 22.8" fill="#bf7926" fill-opacity="0.29803923" fill-rule="evenodd" stroke="none"/>
      <path d="M-23.55 20.0 Q-23.15 19.9 -22.1 24.5 -21.0 29.15 -19.85 35.8 -18.65 42.4 -18.05 47.1 -17.4 51.75 -17.8 51.85 -18.15 51.9 -19.25 47.3 L-21.55 36.1 -23.3 24.7 Q-23.9 20.05 -23.55 20.0" fill="#ffffff" fill-rule="evenodd" stroke="none"/>
      <path d="M-25.6 46.85 Q-25.9 46.9 -25.2 50.2 L-23.35 58.2 -21.1 66.05 Q-20.15 69.25 -19.85 69.2 -19.6 69.15 -20.3 65.85 -20.95 62.55 -22.15 57.9 L-24.4 50.0 Q-25.35 46.8 -25.6 46.85" fill="#ffffff" fill-rule="evenodd" stroke="none"/>
      <path d="M-27.9 23.15 L-28.3 19.75 -28.4 16.2 -28.25 14.75 Q-28.05 14.75 -27.75 16.15 L-27.35 19.65 -27.25 23.1 Q-27.25 24.6 -27.45 24.6 L-27.9 23.15" fill="#ffffff" fill-rule="evenodd" stroke="none"/>
      <path d="M-10.8 74.5 L-12.15 69.2 -13.0 63.85 Q-13.2 61.6 -12.85 61.55 -12.5 61.45 -11.85 63.6 -11.15 65.75 -10.5 68.85 -9.85 72.0 -9.65 74.25 -9.4 76.5 -9.75 76.6 -10.1 76.65 -10.8 74.5" fill="#ffffff" fill-rule="evenodd" stroke="none"/>
    </g>
  </defs>
</svg>
