<?xml version="1.0" encoding="UTF-8" standalone="no"?>
<svg
   ffdec:objectType="frame"
   height="47.65px"
   width="49.9px"
   version="1.1"
   id="svg25"
   sodipodi:docname="1.svg"
   inkscape:version="1.4 (e7c3feb1, 2024-10-09)"
   xmlns:inkscape="http://www.inkscape.org/namespaces/inkscape"
   xmlns:sodipodi="http://sodipodi.sourceforge.net/DTD/sodipodi-0.dtd"
   xmlns:xlink="http://www.w3.org/1999/xlink"
   xmlns="http://www.w3.org/2000/svg"
   xmlns:svg="http://www.w3.org/2000/svg"
   xmlns:ffdec="https://www.free-decompiler.com/flash">
  <sodipodi:namedview
     id="namedview25"
     pagecolor="#505050"
     bordercolor="#ffffff"
     borderopacity="1"
     inkscape:showpageshadow="0"
     inkscape:pageopacity="0"
     inkscape:pagecheckerboard="1"
     inkscape:deskcolor="#505050"
     inkscape:zoom="2.8499165"
     inkscape:cx="-4.0352059"
     inkscape:cy="-15.088161"
     inkscape:window-width="1680"
     inkscape:window-height="889"
     inkscape:window-x="0"
     inkscape:window-y="31"
     inkscape:window-maximized="1"
     inkscape:current-layer="g5" />
  <g
     transform="matrix(1.0, 0.0, 0.0, 1.0, 1.8, 1.6)"
     id="g5">
    <filter
       id="filter0"
       x="-0.034568969"
       y="-0.01607717"
       width="1.0852479"
       height="1.0632019">
      <feOffset
         dx="1.41423199166404"
         dy="1.4141951328419862"
         in="SourceGraphic"
         result="filterResult0"
         id="feOffset1" />
      <feColorMatrix
         in="filterResult0"
         result="filterResult1"
         type="matrix"
         values="0 0 0 0 0.0,0 0 0 0 0.0,0 0 0 0 0.0,0 0 0 1 0"
         id="feColorMatrix1" />
      <feColorMatrix
         in="filterResult1"
         result="filterResult2"
         type="matrix"
         values="1 0 0 0 0,0 1 0 0 0,0 0 1 0 0,0 0 0 0.19921875 0"
         id="feColorMatrix2" />
      <feComposite
         in="SourceGraphic"
         in2="filterResult2"
         operator="over"
         result="filterResult3"
         id="feComposite2" />
    </filter>
    <g
       id="use2"
       transform="matrix(-0.35,0,0,-0.35,21.8995,19.8495)"
       style="filter:url(#filter0)">
      <g
         id="use27"
         transform="matrix(1.0125,0,0,1.0125,-2.2006,10.849175)">
        <path
           d="m 13.8,-66.4 q 1.85,1.85 3.15,4.4 3.25,6.45 -1,10.45 l -0.05,0.05 q -1.9,1.95 -4.95,2.85 l -0.05,0.05 -4.6,0.85 -3.6,0.8 q -1.55,0.6 -2.55,1.8 L 0.1,-45.1 q -1.3,1.9 0.2,4.8 v 0.05 l 1.8,2.6 1.15,1.35 q 0.9,1.05 0.8,2.5 -0.1,1.45 -1.15,2.4 -1.1,0.9 -2.55,0.8 -1.4,-0.1 -2.35,-1.15 l -1.15,-1.35 -0.05,-0.1 q -1.55,-1.85 -2.6,-3.75 L -5.85,-37 q -3.95,-7.65 0.7,-12.6 l 0.05,-0.05 q 2.1,-2.55 5.3,-3.8 L 5.3,-54.6 9,-55.3 h 0.05 q 1.15,-0.35 1.9,-1.05 0.6,-0.95 -0.2,-2.5 v -0.05 l -1.9,-2.6 q -1,-1 -1,-2.45 0,-1.45 1,-2.45 1.05,-1.05 2.45,-1.05 1.45,0 2.5,1.05"
           fill="#ffcc33"
           fill-rule="evenodd"
           stroke="none"
           id="path28" />
        <path
           d="m 13.8,-66.4 q -1.05,-1.05 -2.5,-1.05 -1.4,0 -2.45,1.05 -1,1 -1,2.45 0,1.45 1,2.45 l 1.9,2.6 v 0.05 q 0.8,1.55 0.2,2.5 -0.75,0.7 -1.9,1.05 H 9 l -3.7,0.7 -5.1,1.15 q -3.2,1.25 -5.3,3.8 l -0.05,0.05 q -4.65,4.95 -0.7,12.6 l 0.05,0.05 q 1.05,1.9 2.6,3.75 l 0.05,0.1 1.15,1.35 q 0.95,1.05 2.35,1.15 1.45,0.1 2.55,-0.8 1.05,-0.95 1.15,-2.4 0.1,-1.45 -0.8,-2.5 l -1.15,-1.35 -1.8,-2.6 v -0.05 q -1.5,-2.9 -0.2,-4.8 l 0.05,-0.05 q 1,-1.2 2.55,-1.8 l 3.6,-0.8 4.6,-0.85 0.05,-0.05 q 3.05,-0.9 4.95,-2.85 l 0.05,-0.05 q 4.25,-4 1,-10.45 -1.3,-2.55 -3.15,-4.4 z"
           fill="none"
           stroke="#856301"
           stroke-linecap="round"
           stroke-linejoin="round"
           stroke-width="3"
           id="path29" />
        <path
           d="m -41.55,4.5 q -1.9,-1.95 -1.85,-7.95 0.1,-5.85 1.85,-7.6 1.25,-1.25 7.05,-0.95 l 0.35,-0.85 q 2.55,-7.8 7.6,-12.85 5.25,-5.25 12.1,-7.95 6.6,-2.65 14.2,-2.65 7.6,0 14.25,2.65 6.8,2.7 12.05,7.95 5.05,5.05 7.65,12.85 l 0.25,0.9 q 6.25,-0.4 7.6,0.9 1.75,1.75 1.85,7.6 0.1,6 -1.85,7.95 -1.3,1.3 -5.9,1.2 -1.25,6.3 -7.35,10.5 -3.8,2.7 -9.3,4.3 -0.95,1.95 -5.4,3.4 -5.7,1.95 -13.85,1.95 -8.05,0 -13.8,-1.95 -4.45,-1.45 -5.45,-3.4 -5.45,-1.6 -9.3,-4.3 -6.05,-4.2 -7.35,-10.5 -4.15,0.05 -5.4,-1.2 z"
           fill="none"
           stroke="#856301"
           stroke-linecap="round"
           stroke-linejoin="round"
           stroke-width="6"
           id="path30" />
        <path
           d="M 32.9,-11.9 26,-11.05 V 4.5 l 6.75,1 q 7.1,0.65 8.8,-1 1.9,-1.95 1.8,-7.95 -0.1,-5.85 -1.8,-7.6 -1.45,-1.4 -8.65,-0.85"
           fill="#ffcc33"
           fill-rule="evenodd"
           stroke="none"
           id="path31" />
        <path
           d="M 41.9,4.05 V 2.7 q -0.1,-5.85 -1.85,-7.6 -1.4,-1.4 -8.6,-0.85 L 26,-5.15 V 4.5 l 6.75,1 q 7.1,0.65 8.8,-1 L 41.9,4.05"
           fill="#cd960d"
           fill-rule="evenodd"
           stroke="none"
           id="path32" />
        <path
           d="m -32.9,-11.9 6.9,0.85 V 4.5 l -6.75,1 q -7.1,0.65 -8.8,-1 -1.9,-1.95 -1.8,-7.95 0.1,-5.85 1.8,-7.6 1.45,-1.4 8.65,-0.85"
           fill="#ffcc33"
           fill-rule="evenodd"
           stroke="none"
           id="path33" />
        <path
           d="M -41.9,4.05 V 2.7 q 0.1,-5.85 1.85,-7.6 1.4,-1.4 8.6,-0.85 l 5.45,0.6 V 4.5 l -6.75,1 q -7.1,0.65 -8.8,-1 L -41.9,4.05"
           fill="#cd960d"
           fill-rule="evenodd"
           stroke="none"
           id="path34" />
        <path
           d="m 14.05,-33.65 q 6.8,2.7 12.05,7.95 5.05,5.05 7.65,12.85 2.3,7 2.3,15 0,8.7 -7.7,14.05 -9.4,6.6 -28.55,6.6 -19.15,0 -28.55,-6.6 -7.7,-5.35 -7.7,-14.05 0,-8 2.3,-15 2.6,-7.8 7.65,-12.85 5.25,-5.25 12.05,-7.95 6.65,-2.65 14.25,-2.65 7.6,0 14.25,2.65"
           fill="#ffcc33"
           fill-rule="evenodd"
           stroke="none"
           id="path35" />
        <path
           d="m -14.3,-28.3 q 2.65,-3.05 5.75,-5.3 l -3.75,1.2 q -6.8,2.55 -12.05,7.55 -5.05,4.85 -7.65,12.25 -2.3,6.7 -2.3,14.3 0,8.3 7.7,13.4 4.1,2.7 10.05,4.25 -7.7,-6.1 -7.7,-15.95 0,-9.15 2.3,-17.1 2.6,-8.85 7.65,-14.6"
           fill="#cd960d"
           fill-rule="evenodd"
           stroke="none"
           id="path36" />
        <path
           d="m -24.35,-27.65 5.05,-3.65 19.25,19.25 19.15,-19.1 5.05,3.65 L 0,-3.4 -0.05,-3.45 -0.1,-3.4 -24.35,-27.65"
           fill="#ff4600"
           fill-rule="evenodd"
           stroke="none"
           id="path37" />
        <path
           d="m 18.2,-29.15 3.45,3.05 q 5.05,5.05 7.65,12.85 2.3,7 2.3,15 0,8.7 -7.7,14.05 l -0.1,0.1 Q 26,10.95 26,4.75 q 0,-10.7 -2.3,-20 -2,-8.05 -5.5,-13.9"
           fill="#ffffff"
           fill-rule="evenodd"
           stroke="none"
           id="path38" />
        <path
           d="m 28.5,6.85 q 3.65,2 3.85,2.05 -3.9,6.15 -11.85,9.05 l -1.1,0.35 -0.1,1.05 q 0,2.7 -5.7,4.55 -5.7,1.95 -13.8,1.95 -8.1,0 -13.85,-1.95 -5.7,-1.85 -5.7,-4.55 l -0.1,-1 -1.1,-0.4 q -3.9,-1.55 -6.95,-3.9 -2.9,-2.2 -4.65,-4.8 1.65,-1.1 3.7,-2.15 4.1,-2.1 7.9,-2.65 3.6,-0.55 10.5,1.75 7.55,2.5 10.25,2.5 2.85,0 10.25,-2.55 6.8,-2.35 10.45,-1.85 3.7,0.55 8,2.55"
           fill="#a35d0d"
           fill-rule="evenodd"
           stroke="none"
           id="path39" />
        <path
           d="m 21.5,12.3 q -0.85,-0.9 -2.1,-0.9 -1.2,0 -2.1,0.9 -0.85,0.85 -0.85,2.1 0,1.2 0.85,2.1 0.9,0.85 2.1,0.85 1.25,0 2.1,-0.85 0.9,-0.9 0.9,-2.1 0,-1.25 -0.9,-2.1"
           fill="#000000"
           fill-rule="evenodd"
           stroke="none"
           id="path40" />
        <path
           d="m -17.8,12.3 q -0.85,-0.9 -2.1,-0.9 -1.2,0 -2.1,0.9 -0.85,0.85 -0.85,2.1 0,1.2 0.85,2.1 0.9,0.85 2.1,0.85 1.25,0 2.1,-0.85 0.9,-0.9 0.9,-2.1 0,-1.25 -0.9,-2.1"
           fill="#000000"
           fill-rule="evenodd"
           stroke="none"
           id="path41" />
        <path
           d="m -34.15,-12.85 q -2.3,7 -2.3,15 0,8.7 7.7,14.05 9.4,6.6 28.55,6.6 19.15,0 28.55,-6.6 7.7,-5.35 7.7,-14.05 0,-8 -2.3,-15 -2.6,-7.8 -7.65,-12.85 -5.25,-5.25 -12.05,-7.95 -6.65,-2.65 -14.25,-2.65 -7.6,0 -14.25,2.65 -6.8,2.7 -12.05,7.95 -5.05,5.05 -7.65,12.85 z"
           ffdec:has-small-stroke="true"
           ffdec:original-stroke-width="1.0"
           fill="none"
           stroke="#856301"
           stroke-linecap="round"
           stroke-linejoin="round"
           stroke-width="2.82191"
           id="path42" />
        <path
           d="m -19.9,18.4 0.25,-0.15 q 7.75,-4.35 18.35,-4.85 12.8,0.45 20.45,4.95 l 0.25,0.2 v 0.05 l -0.05,0.7 q 0,2.75 -5.75,4.6 -5.7,1.95 -13.85,1.95 -8.05,0 -13.8,-1.95 -5.7,-1.85 -5.7,-4.6 l -0.15,-0.9"
           fill="#bf7926"
           fill-rule="evenodd"
           stroke="none"
           id="path43" />
        <path
           d="m -17.8,-29.8 2.6,2.6 q -1.9,2.4 -3.45,5.25 l -4.2,-4.2 q 2.35,-2.05 5.05,-3.65"
           fill="#bb3806"
           fill-rule="evenodd"
           stroke="none"
           id="path44" />
      </g>
      <g
         id="use28">
        <path
           d="m -25.85,-18.4 9.35,-9.35 2.4,2.5 -9.4,9.4 -2.35,-2.55 m 37.45,-9.15 9.65,9.6 -2.35,2.55 -9.65,-9.7 2.35,-2.45"
           fill="#4a260f"
           fill-rule="evenodd"
           stroke="none"
           id="path45" />
      </g>
    </g>
    <filter
       id="filter1"
       x="0"
       y="0"
       width="1"
       height="1">
      <feColorMatrix
         in="SourceGraphic"
         result="filterResult4"
         type="matrix"
         values="0 0 0 0 0.2,0 0 0 0 0.2,0 0 0 0 0.2,0 0 0 1 0"
         id="feColorMatrix3" />
      <feConvolveMatrix
         divisor="9.0"
         in="filterResult4"
         kernelMatrix="1 1 1 1 1 1 1 1 1"
         order="3 3"
         result="filterResult5"
         id="feConvolveMatrix3" />
      <feConvolveMatrix
         divisor="9.0"
         in="filterResult5"
         kernelMatrix="1 1 1 1 1 1 1 1 1"
         order="3 3"
         result="filterResult6"
         id="feConvolveMatrix4" />
      <feConvolveMatrix
         divisor="9.0"
         in="filterResult6"
         kernelMatrix="1 1 1 1 1 1 1 1 1"
         order="3 3"
         result="filterResult7"
         id="feConvolveMatrix5" />
      <feComposite
         in="SourceGraphic"
         in2="filterResult7"
         operator="over"
         result="filterResult8"
         id="feComposite5" />
    </filter>
  </g>
  <defs
     id="defs25">
    <g
       id="shape0"
       transform="matrix(1.0, 0.0, 0.0, 1.0, 1.25, 1.05)">
      <path
         d="M42.55 43.05 L1.45 44.5 -0.25 0.0 46.45 3.0 42.55 43.05"
         fill="#ffffff"
         fill-opacity="0.49803922"
         fill-rule="evenodd"
         stroke="none"
         id="path5" />
      <path
         d="M42.55 43.05 L1.45 44.5 -0.25 0.0 46.45 3.0 42.55 43.05 Z"
         fill="none"
         stroke="#000000"
         stroke-linecap="butt"
         stroke-linejoin="miter-clip"
         stroke-miterlimit="3.0"
         stroke-opacity="0.49803922"
         stroke-width="2.0"
         id="path6" />
    </g>
    <g
       id="sprite0"
       transform="matrix(1.0, 0.0, 0.0, 1.0, 49.2, 58.95)">
      <use
         ffdec:characterId="5073"
         height="97.8"
         transform="matrix(1.0125, 0.0, 0.0, 1.0125, -49.1806, -58.9627)"
         width="92.8"
         xlink:href="#shape1"
         id="use6" />
      <use
         ffdec:characterId="5074"
         height="12.35"
         transform="matrix(1.0, 0.0, 0.0, 1.0, -25.85, -27.75)"
         width="47.1"
         xlink:href="#shape2"
         id="use7" />
    </g>
    <g
       id="shape1"
       transform="matrix(1.0, 0.0, 0.0, 1.0, 46.4, 68.95)">
      <path
         d="M13.8 -66.4 Q15.65 -64.55 16.95 -62.0 20.2 -55.55 15.95 -51.55 L15.9 -51.5 Q14.0 -49.55 10.95 -48.65 L10.9 -48.6 6.3 -47.75 2.7 -46.95 Q1.15 -46.35 0.15 -45.15 L0.1 -45.1 Q-1.2 -43.2 0.3 -40.3 L0.3 -40.25 2.1 -37.65 3.25 -36.3 Q4.15 -35.25 4.05 -33.8 3.95 -32.35 2.9 -31.4 1.8 -30.5 0.35 -30.6 -1.05 -30.7 -2.0 -31.75 L-3.15 -33.1 -3.2 -33.2 Q-4.75 -35.05 -5.8 -36.95 L-5.85 -37.0 Q-9.8 -44.65 -5.15 -49.6 L-5.1 -49.65 Q-3.0 -52.2 0.2 -53.45 L5.3 -54.6 9.0 -55.3 9.05 -55.3 Q10.2 -55.65 10.95 -56.35 11.55 -57.3 10.75 -58.85 L10.75 -58.9 8.85 -61.5 Q7.85 -62.5 7.85 -63.95 7.85 -65.4 8.85 -66.4 9.9 -67.45 11.3 -67.45 12.75 -67.45 13.8 -66.4"
         fill="#ffcc33"
         fill-rule="evenodd"
         stroke="none"
         id="path7" />
      <path
         d="M13.8 -66.4 Q12.75 -67.45 11.3 -67.45 9.9 -67.45 8.85 -66.4 7.85 -65.4 7.85 -63.95 7.85 -62.5 8.85 -61.5 L10.75 -58.9 10.75 -58.85 Q11.55 -57.3 10.95 -56.35 10.2 -55.65 9.05 -55.3 L9.0 -55.3 5.3 -54.6 0.2 -53.45 Q-3.0 -52.2 -5.1 -49.65 L-5.15 -49.6 Q-9.8 -44.65 -5.85 -37.0 L-5.8 -36.95 Q-4.75 -35.05 -3.2 -33.2 L-3.15 -33.1 -2.0 -31.75 Q-1.05 -30.7 0.35 -30.6 1.8 -30.5 2.9 -31.4 3.95 -32.35 4.05 -33.8 4.15 -35.25 3.25 -36.3 L2.1 -37.65 0.3 -40.25 0.3 -40.3 Q-1.2 -43.2 0.1 -45.1 L0.15 -45.15 Q1.15 -46.35 2.7 -46.95 L6.3 -47.75 10.9 -48.6 10.95 -48.65 Q14.0 -49.55 15.9 -51.5 L15.95 -51.55 Q20.2 -55.55 16.95 -62.0 15.65 -64.55 13.8 -66.4 Z"
         fill="none"
         stroke="#856301"
         stroke-linecap="round"
         stroke-linejoin="round"
         stroke-width="3.0"
         id="path8" />
      <path
         d="M-41.55 4.5 Q-43.45 2.55 -43.4 -3.45 -43.3 -9.3 -41.55 -11.05 -40.3 -12.3 -34.5 -12.0 L-34.15 -12.85 Q-31.6 -20.65 -26.55 -25.7 -21.3 -30.95 -14.45 -33.65 -7.85 -36.3 -0.25 -36.3 7.35 -36.3 14.0 -33.65 20.8 -30.95 26.05 -25.7 31.1 -20.65 33.7 -12.85 L33.95 -11.95 Q40.2 -12.35 41.55 -11.05 43.3 -9.3 43.4 -3.45 43.5 2.55 41.55 4.5 40.25 5.8 35.65 5.7 34.4 12.0 28.3 16.2 24.5 18.9 19.0 20.5 18.05 22.45 13.6 23.9 7.9 25.85 -0.25 25.85 -8.3 25.85 -14.05 23.9 -18.5 22.45 -19.5 20.5 -24.95 18.9 -28.8 16.2 -34.85 12.0 -36.15 5.7 -40.3 5.75 -41.55 4.5 Z"
         fill="none"
         stroke="#856301"
         stroke-linecap="round"
         stroke-linejoin="round"
         stroke-width="6.0"
         id="path9" />
      <path
         d="M32.9 -11.9 L26.0 -11.05 26.0 4.5 32.75 5.5 Q39.85 6.15 41.55 4.5 43.45 2.55 43.35 -3.45 43.25 -9.3 41.55 -11.05 40.1 -12.45 32.9 -11.9"
         fill="#ffcc33"
         fill-rule="evenodd"
         stroke="none"
         id="path10" />
      <path
         d="M41.9 4.05 L41.9 2.7 Q41.8 -3.15 40.05 -4.9 38.65 -6.3 31.45 -5.75 L26.0 -5.15 26.0 4.5 32.75 5.5 Q39.85 6.15 41.55 4.5 L41.9 4.05"
         fill="#cd960d"
         fill-rule="evenodd"
         stroke="none"
         id="path11" />
      <path
         d="M-32.9 -11.9 L-26.0 -11.05 -26.0 4.5 -32.75 5.5 Q-39.85 6.15 -41.55 4.5 -43.45 2.55 -43.35 -3.45 -43.25 -9.3 -41.55 -11.05 -40.1 -12.45 -32.9 -11.9"
         fill="#ffcc33"
         fill-rule="evenodd"
         stroke="none"
         id="path12" />
      <path
         d="M-41.9 4.05 L-41.9 2.7 Q-41.8 -3.15 -40.05 -4.9 -38.65 -6.3 -31.45 -5.75 L-26.0 -5.15 -26.0 4.5 -32.75 5.5 Q-39.85 6.15 -41.55 4.5 L-41.9 4.05"
         fill="#cd960d"
         fill-rule="evenodd"
         stroke="none"
         id="path13" />
      <path
         d="M14.05 -33.65 Q20.85 -30.95 26.1 -25.7 31.15 -20.65 33.75 -12.85 36.05 -5.85 36.05 2.15 36.05 10.85 28.35 16.2 18.95 22.8 -0.2 22.8 -19.35 22.8 -28.75 16.2 -36.45 10.85 -36.45 2.15 -36.45 -5.85 -34.15 -12.85 -31.55 -20.65 -26.5 -25.7 -21.25 -30.95 -14.45 -33.65 -7.8 -36.3 -0.2 -36.3 7.4 -36.3 14.05 -33.65"
         fill="#ffcc33"
         fill-rule="evenodd"
         stroke="none"
         id="path14" />
      <path
         d="M-14.3 -28.3 Q-11.65 -31.35 -8.55 -33.6 L-12.3 -32.4 Q-19.1 -29.85 -24.35 -24.85 -29.4 -20.0 -32.0 -12.6 -34.3 -5.9 -34.3 1.7 -34.3 10.0 -26.6 15.1 -22.5 17.8 -16.55 19.35 -24.25 13.25 -24.25 3.4 -24.25 -5.75 -21.95 -13.7 -19.35 -22.55 -14.3 -28.3"
         fill="#cd960d"
         fill-rule="evenodd"
         stroke="none"
         id="path15" />
      <path
         d="M-24.35 -27.65 L-19.3 -31.3 -0.05 -12.05 19.1 -31.15 24.15 -27.5 0.0 -3.4 -0.05 -3.45 -0.1 -3.4 -24.35 -27.65"
         fill="#ff4600"
         fill-rule="evenodd"
         stroke="none"
         id="path16" />
      <path
         d="M18.2 -29.15 L21.65 -26.1 Q26.7 -21.05 29.3 -13.25 31.6 -6.25 31.6 1.75 31.6 10.45 23.9 15.8 L23.8 15.9 Q26.0 10.95 26.0 4.75 26.0 -5.95 23.7 -15.25 21.7 -23.3 18.2 -29.15"
         fill="#ffffff"
         fill-rule="evenodd"
         stroke="none"
         id="path17" />
      <path
         d="M28.5 6.85 Q32.15 8.85 32.35 8.9 28.45 15.05 20.5 17.95 L19.4 18.3 19.3 19.35 Q19.3 22.05 13.6 23.9 7.9 25.85 -0.2 25.85 -8.3 25.85 -14.05 23.9 -19.75 22.05 -19.75 19.35 L-19.85 18.35 -20.95 17.95 Q-24.85 16.4 -27.9 14.05 -30.8 11.85 -32.55 9.25 -30.9 8.15 -28.85 7.1 -24.75 5.0 -20.95 4.45 -17.35 3.9 -10.45 6.2 -2.9 8.7 -0.2 8.7 2.65 8.7 10.05 6.15 16.85 3.8 20.5 4.3 24.2 4.85 28.5 6.85"
         fill="#a35d0d"
         fill-rule="evenodd"
         stroke="none"
         id="path18" />
      <path
         d="M21.5 12.3 Q20.65 11.4 19.4 11.4 18.2 11.4 17.3 12.3 16.45 13.15 16.45 14.4 16.45 15.6 17.3 16.5 18.2 17.35 19.4 17.35 20.65 17.35 21.5 16.5 22.4 15.6 22.4 14.4 22.4 13.15 21.5 12.3"
         fill="#000000"
         fill-rule="evenodd"
         stroke="none"
         id="path19" />
      <path
         d="M-17.8 12.3 Q-18.65 11.4 -19.9 11.4 -21.1 11.4 -22.0 12.3 -22.85 13.15 -22.85 14.4 -22.85 15.6 -22.0 16.5 -21.1 17.35 -19.9 17.35 -18.65 17.35 -17.8 16.5 -16.9 15.6 -16.9 14.4 -16.9 13.15 -17.8 12.3"
         fill="#000000"
         fill-rule="evenodd"
         stroke="none"
         id="path20" />
      <path
         d="M-34.15 -12.85 Q-36.45 -5.85 -36.45 2.15 -36.45 10.85 -28.75 16.2 -19.35 22.8 -0.2 22.8 18.95 22.8 28.35 16.2 36.05 10.85 36.05 2.15 36.05 -5.85 33.75 -12.85 31.15 -20.65 26.1 -25.7 20.85 -30.95 14.05 -33.65 7.4 -36.3 -0.2 -36.3 -7.8 -36.3 -14.45 -33.65 -21.25 -30.95 -26.5 -25.7 -31.55 -20.65 -34.15 -12.85 Z"
         ffdec:has-small-stroke="true"
         ffdec:original-stroke-width="1.0"
         fill="none"
         stroke="#856301"
         stroke-linecap="round"
         stroke-linejoin="round"
         stroke-width="2.8219092828534236"
         id="path21" />
      <path
         d="M-19.9 18.4 L-19.65 18.25 Q-11.9 13.9 -1.3 13.4 11.5 13.85 19.15 18.35 L19.4 18.55 19.4 18.6 19.35 19.3 Q19.35 22.05 13.6 23.9 7.9 25.85 -0.25 25.85 -8.3 25.85 -14.05 23.9 -19.75 22.05 -19.75 19.3 L-19.9 18.4"
         fill="#bf7926"
         fill-rule="evenodd"
         stroke="none"
         id="path22" />
      <path
         d="M-17.8 -29.8 L-15.2 -27.2 Q-17.1 -24.8 -18.65 -21.95 L-22.85 -26.15 Q-20.5 -28.2 -17.8 -29.8"
         fill="#bb3806"
         fill-rule="evenodd"
         stroke="none"
         id="path23" />
    </g>
    <g
       id="shape2"
       transform="matrix(1.0, 0.0, 0.0, 1.0, 25.85, 27.75)">
      <path
         d="M-25.85 -18.4 L-16.5 -27.75 -14.1 -25.25 -23.5 -15.85 -25.85 -18.4 M11.6 -27.55 L21.25 -17.95 18.9 -15.4 9.25 -25.1 11.6 -27.55"
         fill="#4a260f"
         fill-rule="evenodd"
         stroke="none"
         id="path24" />
    </g>
    <g
       id="sprite1"
       transform="matrix(1.0, 0.0, 0.0, 1.0, 0.0, 0.0)">
      <use
         ffdec:characterId="5057"
         height="31.1"
         transform="matrix(1.0, 0.0, 0.0, 1.0, 0.0, 0.0)"
         width="19.35"
         xlink:href="#shape3"
         id="use24" />
    </g>
    <g
       id="shape3"
       transform="matrix(1.0, 0.0, 0.0, 1.0, 0.0, 0.0)">
      <path
         d="M7.1 23.35 L9.65 22.45 10.2 22.45 Q10.9 22.65 11.2 22.95 L12.15 23.8 12.7 24.5 12.7 29.6 Q12.7 30.15 12.1 30.45 10.75 31.1 8.05 31.1 7.15 31.1 6.05 29.7 5.0 28.4 5.0 27.35 5.0 26.1 5.3 25.3 5.75 24.05 7.1 23.35 M10.65 10.2 Q10.95 6.7 11.7 5.1 L11.2 5.1 9.3 6.2 6.65 7.95 Q3.15 10.3 2.25 10.3 1.3 10.3 0.6 8.8 0.0 7.5 0.0 6.4 L0.0 6.15 Q0.15 5.45 0.45 5.1 L2.95 1.95 Q4.85 0.0 6.45 0.0 L7.6 0.0 9.45 0.1 12.2 0.25 16.8 0.5 Q17.8 1.2 18.6 2.75 19.35 4.3 19.35 5.6 L19.35 6.15 18.6 9.2 17.8 12.3 Q17.55 13.45 15.95 14.0 L13.25 14.8 12.45 15.1 11.95 15.35 11.95 18.9 11.5 19.1 9.8 19.6 6.6 20.45 5.55 20.5 5.55 15.8 10.65 10.2"
         fill="#cccccc"
         fill-rule="evenodd"
         stroke="none"
         id="path25" />
    </g>
  </defs>
</svg>
