<?xml version="1.0" encoding="UTF-8" standalone="no"?>
<svg
   ffdec:objectType="frame"
   height="44.15px"
   width="41.0px"
   version="1.1"
   id="svg6"
   sodipodi:docname="12.svg"
   xmlns:inkscape="http://www.inkscape.org/namespaces/inkscape"
   xmlns:sodipodi="http://sodipodi.sourceforge.net/DTD/sodipodi-0.dtd"
   xmlns="http://www.w3.org/2000/svg"
   xmlns:svg="http://www.w3.org/2000/svg"
   xmlns:ffdec="https://www.free-decompiler.com/flash">
  <sodipodi:namedview
     id="namedview6"
     pagecolor="#505050"
     bordercolor="#eeeeee"
     borderopacity="1"
     inkscape:showpageshadow="0"
     inkscape:pageopacity="0"
     inkscape:pagecheckerboard="0"
     inkscape:deskcolor="#505050" />
  <g
     transform="matrix(1.0, 0.0, 0.0, 1.0, 20.6, 22.2)"
     id="g2">
    <g
       id="use1">
      <path
         d="M 4.35,-17.1 H 4.4 q 6.35,-3.05 10.3,1.25 5.15,5.45 2.8,13.25 v -0.05 q -1,3.4 -4.05,6.8 -2,2.25 -5.75,5.35 V 9.55 Q 5.9,11 3.55,13.95 L 2,15.7 l 0.4,0.75 0.15,0.7 -0.3,0.7 -0.65,0.4 Q -1.6,19 -3.6,16.5 L -3.9,15.8 -3.7,15 -3.05,14.55 -2.95,14.5 -3.4,13.95 Q -5.85,11 -7.65,9.5 q -3.75,-3.1 -5.7,-5.35 -3.1,-3.4 -4.1,-6.8 v 0.05 q -2.35,-7.8 2.8,-13.25 3.85,-4.3 10.35,-1.25 2.4,1.2 4.35,2.85 1.9,-1.65 4.3,-2.85"
         fill="#ffffff"
         fill-opacity="0.498039"
         fill-rule="evenodd"
         stroke="none"
         id="path7" />
    </g>
    <g
       id="use2"
       transform="translate(-0.1,-9.1)">
      <path
         d="m 5.7,-10 q 6.3,-2.85 10.15,1.1 2.6,2.65 3.45,8.75 Q 20.1,5.9 18,6.05 16.6,6.15 15.65,4.6 14.65,3.05 13.55,3.1 12.3,3.2 9.4,6.15 6.75,8.9 3.85,8.3 1.3,7.8 -1.05,5.25 -3.15,2.95 -5.4,3 -6.85,3.05 -7.55,4.65 l -1,3.3 q -1.35,4.4 -5.95,2.75 -5.5,-1.95 -4.95,-9.55 0.5,-6.7 3.85,-10.05 3.85,-3.95 10.2,-1.1 3.2,1.55 5.55,3.8 Q 2.5,-8.45 5.7,-10"
         fill="#ffffff"
         fill-rule="evenodd"
         stroke="none"
         id="path8" />
      <path
         d="m 5.7,-10 q 6.3,-2.85 10.15,1.1 2.6,2.65 3.45,8.75 Q 20.1,5.9 18,6.05 16.6,6.15 15.65,4.6 14.65,3.05 13.55,3.1 12.3,3.2 9.4,6.15 6.75,8.9 3.85,8.3 1.3,7.8 -1.05,5.25 -3.15,2.95 -5.4,3 -6.85,3.05 -7.55,4.65 l -1,3.3 q -1.35,4.4 -5.95,2.75 -5.5,-1.95 -4.95,-9.55 0.5,-6.7 3.85,-10.05 3.85,-3.95 10.2,-1.1 3.2,1.55 5.55,3.8 Q 2.5,-8.45 5.7,-10 Z"
         fill="none"
         stroke="#9fdcff"
         stroke-linecap="round"
         stroke-linejoin="round"
         stroke-width="2"
         id="path9" />
      <path
         d="m 5.7,-10 q 6.3,-2.85 10.15,1.1 2.6,2.65 3.45,8.75 Q 20.1,5.9 18,6.05 16.6,6.15 15.65,4.6 14.65,3.05 13.55,3.1 12.3,3.2 9.4,6.15 6.75,8.9 3.85,8.3 1.3,7.8 -1.05,5.25 -3.15,2.95 -5.4,3 -6.85,3.05 -7.55,4.65 l -1,3.3 q -1.35,4.4 -5.95,2.75 -5.5,-1.95 -4.95,-9.55 0.5,-6.7 3.85,-10.05 3.85,-3.95 10.2,-1.1 3.2,1.55 5.55,3.8 Q 2.5,-8.45 5.7,-10"
         fill="#ffffff"
         fill-rule="evenodd"
         stroke="none"
         id="path10" />
      <path
         d="M 3.85,8.3 Q 1.3,7.8 -1.05,5.25 -3.15,2.95 -5.4,3 -6.85,3.05 -7.55,4.65 l -1,3.3 q -1.35,4.4 -5.95,2.75 -5.4,-1.9 -4.95,-9.3 l 1.8,-2.1 q 4.35,-3.95 11.55,-1.1 3.6,1.55 6.25,3.8 2.65,-2.25 6.25,-3.8 7.15,-2.85 11.5,1.1 l 1.55,1.85 Q 19.85,5.9 18,6.05 16.6,6.15 15.65,4.6 14.65,3.05 13.55,3.1 12.3,3.2 9.4,6.15 6.75,8.9 3.85,8.3"
         fill="#9fdcff"
         fill-rule="evenodd"
         stroke="none"
         id="path11" />
    </g>
  </g>
  <defs
     id="defs6">
    <g
       id="shape0"
       transform="matrix(1.0, 0.0, 0.0, 1.0, 18.2, 18.35)">
      <path
         d="M4.35 -17.1 L4.4 -17.1 Q10.75 -20.15 14.7 -15.85 19.85 -10.4 17.5 -2.6 L17.5 -2.65 Q16.5 0.75 13.45 4.15 11.45 6.4 7.7 9.5 L7.7 9.55 Q5.9 11.0 3.55 13.95 L2.0 15.7 2.4 16.45 2.55 17.15 2.25 17.85 1.6 18.25 Q-1.6 19.0 -3.6 16.5 L-3.9 15.8 -3.7 15.0 -3.05 14.55 -2.95 14.5 -3.4 13.95 Q-5.85 11.0 -7.65 9.5 -11.4 6.4 -13.35 4.15 -16.45 0.75 -17.45 -2.65 L-17.45 -2.6 Q-19.8 -10.4 -14.65 -15.85 -10.8 -20.15 -4.3 -17.1 -1.9 -15.9 0.05 -14.25 1.95 -15.9 4.35 -17.1"
         fill="#ffffff"
         fill-opacity="0.49803922"
         fill-rule="evenodd"
         stroke="none"
         id="path2" />
    </g>
    <g
       id="shape1"
       transform="matrix(1.0, 0.0, 0.0, 1.0, 20.5, 12.2)">
      <path
         d="M5.7 -10.0 Q12.0 -12.85 15.85 -8.9 18.45 -6.25 19.3 -0.15 20.1 5.9 18.0 6.05 16.6 6.15 15.65 4.6 14.65 3.05 13.55 3.1 12.3 3.2 9.4 6.15 6.75 8.9 3.85 8.3 1.3 7.8 -1.05 5.25 -3.15 2.95 -5.4 3.0 -6.85 3.05 -7.55 4.65 L-8.55 7.95 Q-9.9 12.35 -14.5 10.7 -20.0 8.75 -19.45 1.15 -18.95 -5.55 -15.6 -8.9 -11.75 -12.85 -5.4 -10.0 -2.2 -8.45 0.15 -6.2 2.5 -8.45 5.7 -10.0"
         fill="#ffffff"
         fill-rule="evenodd"
         stroke="none"
         id="path3" />
      <path
         d="M5.7 -10.0 Q12.0 -12.85 15.85 -8.9 18.45 -6.25 19.3 -0.15 20.1 5.9 18.0 6.05 16.6 6.15 15.65 4.6 14.65 3.05 13.55 3.1 12.3 3.2 9.4 6.15 6.75 8.9 3.85 8.3 1.3 7.8 -1.05 5.25 -3.15 2.95 -5.4 3.0 -6.85 3.05 -7.55 4.65 L-8.55 7.95 Q-9.9 12.35 -14.5 10.7 -20.0 8.75 -19.45 1.15 -18.95 -5.55 -15.6 -8.9 -11.75 -12.85 -5.4 -10.0 -2.2 -8.45 0.15 -6.2 2.5 -8.45 5.7 -10.0 Z"
         fill="none"
         stroke="#9fdcff"
         stroke-linecap="round"
         stroke-linejoin="round"
         stroke-width="2.0"
         id="path4" />
      <path
         d="M5.7 -10.0 Q12.0 -12.85 15.85 -8.9 18.45 -6.25 19.3 -0.15 20.1 5.9 18.0 6.05 16.6 6.15 15.65 4.6 14.65 3.05 13.55 3.1 12.3 3.2 9.4 6.15 6.75 8.9 3.85 8.3 1.3 7.8 -1.05 5.25 -3.15 2.95 -5.4 3.0 -6.85 3.05 -7.55 4.65 L-8.55 7.95 Q-9.9 12.35 -14.5 10.7 -20.0 8.75 -19.45 1.15 -18.95 -5.55 -15.6 -8.9 -11.75 -12.85 -5.4 -10.0 -2.2 -8.45 0.15 -6.2 2.5 -8.45 5.7 -10.0"
         fill="#ffffff"
         fill-rule="evenodd"
         stroke="none"
         id="path5" />
      <path
         d="M3.85 8.3 Q1.3 7.8 -1.05 5.25 -3.15 2.95 -5.4 3.0 -6.85 3.05 -7.55 4.65 L-8.55 7.95 Q-9.9 12.35 -14.5 10.7 -19.9 8.8 -19.45 1.4 L-17.65 -0.7 Q-13.3 -4.65 -6.1 -1.8 -2.5 -0.25 0.15 2.0 2.8 -0.25 6.4 -1.8 13.55 -4.65 17.9 -0.7 L19.45 1.15 Q19.85 5.9 18.0 6.05 16.6 6.15 15.65 4.6 14.65 3.05 13.55 3.1 12.3 3.2 9.4 6.15 6.75 8.9 3.85 8.3"
         fill="#9fdcff"
         fill-rule="evenodd"
         stroke="none"
         id="path6" />
    </g>
  </defs>
</svg>
