<?xml version="1.0" encoding="UTF-8" standalone="no"?>
<svg
   ffdec:objectType="frame"
   height="44.15px"
   width="41.0px"
   version="1.1"
   id="svg5"
   sodipodi:docname="7.svg"
   xmlns:inkscape="http://www.inkscape.org/namespaces/inkscape"
   xmlns:sodipodi="http://sodipodi.sourceforge.net/DTD/sodipodi-0.dtd"
   xmlns:xlink="http://www.w3.org/1999/xlink"
   xmlns="http://www.w3.org/2000/svg"
   xmlns:svg="http://www.w3.org/2000/svg"
   xmlns:ffdec="https://www.free-decompiler.com/flash">
  <sodipodi:namedview
     id="namedview5"
     pagecolor="#505050"
     bordercolor="#eeeeee"
     borderopacity="1"
     inkscape:showpageshadow="0"
     inkscape:pageopacity="0"
     inkscape:pagecheckerboard="0"
     inkscape:deskcolor="#505050" />
  <g
     transform="matrix(1.0, 0.0, 0.0, 1.0, 20.6, 22.2)"
     id="g2">
    <g
       id="use1"
       transform="matrix(0.6336,0,0,0.634,-0.09988,-0.0509)">
      <path
         d="m 0.15,-17.6 q 5.5,0 9.3,4.2 3.8,4.1 3.8,9.95 v 0.1 q 0,3.2 -1.8,7.4 -1.4,3.4 -3.7,6.45 -2.6,3.5 -4.9,4.55 l 0.4,0.75 0.1,0.65 -0.25,0.6 -0.6,0.4 q -3.35,0.8 -5.55,-1.85 l -0.3,-0.7 0.15,-0.6 q -1.75,-1.2 -3.6,-3.4 -2.95,-3.4 -4.1,-6.45 -2.05,-4.6 -2.05,-7.8 v -0.1 q 0.05,-5.85 3.75,-9.95 h 0.05 q 3.95,-4.2 9.3,-4.2"
         fill="#ffffff"
         fill-opacity="0.498039"
         fill-rule="evenodd"
         stroke="none"
         id="path6" />
    </g>
    <g
       id="use2"
       transform="matrix(0.6634,0,0,0.6472,3e-4,-9.4e-4)">
      <g
         id="use6">
        <path
           d="m 8.85,-13.8 q 3.65,4.2 3.65,10.2 v 0.1 l 0.1,1.8 q 0.05,1.1 -0.5,1.6 Q 10.8,1.1 8.85,-1.75 6.5,-5.1 4.95,-5.1 q -1.7,0 -4.6,3.25 -2.9,3.25 -4.15,3.25 -1.3,0 -2.3,-3.05 -0.85,-3 -1.95,-3 -0.75,0 -1.7,3.35 -0.95,3.15 -1.9,2.75 Q -12.5,1.1 -12.5,-3.5 v -0.1 q 0.05,-6 3.6,-10.2 3.75,-4.25 8.9,-4.25 5.2,0 8.85,4.25 z"
           fill="none"
           stroke="#9fdcff"
           stroke-linecap="butt"
           stroke-linejoin="miter-clip"
           stroke-miterlimit="29"
           stroke-width="2"
           id="path7" />
        <path
           d="m 8.85,-13.8 q 3.65,4.2 3.65,10.2 v 0.1 l 0.1,1.8 q 0.05,1.1 -0.5,1.6 Q 10.8,1.1 8.85,-1.75 6.5,-5.1 4.95,-5.1 q -1.7,0 -4.6,3.25 -2.9,3.25 -4.15,3.25 -1.3,0 -2.3,-3.05 -0.85,-3 -1.95,-3 -0.75,0 -1.7,3.35 -0.95,3.15 -1.9,2.75 Q -12.5,1.1 -12.5,-3.5 v -0.1 q 0.05,-6 3.6,-10.2 3.75,-4.25 8.9,-4.25 5.2,0 8.85,4.25"
           fill="#ffffff"
           fill-rule="evenodd"
           stroke="none"
           id="path8" />
        <path
           d="M 12.1,-0.1 Q 10.8,1.1 8.85,-1.75 6.5,-5.1 4.95,-5.1 q -1.7,0 -4.6,3.25 -2.9,3.25 -4.15,3.25 -1.3,0 -2.3,-3.05 -0.85,-3 -1.95,-3 -0.75,0 -1.7,3.35 -0.95,3.15 -1.9,2.75 -0.6,-0.25 -0.75,-2.65 0.8,-3 3.3,-5.35 3.8,-3.55 9.2,-3.55 5.4,0 9.2,3.55 2.45,2.25 3.3,5.1 0,0.9 -0.5,1.35"
           fill="#9fdcff"
           fill-rule="evenodd"
           stroke="none"
           id="path9" />
      </g>
    </g>
  </g>
  <defs
     id="defs5">
    <g
       id="shape0"
       transform="matrix(1.0, 0.0, 0.0, 1.0, 12.95, 17.6)">
      <path
         d="M0.15 -17.6 Q5.65 -17.6 9.45 -13.4 13.25 -9.3 13.25 -3.45 L13.25 -3.35 Q13.25 -0.15 11.45 4.05 10.05 7.45 7.75 10.5 5.15 14.0 2.85 15.05 L3.25 15.8 3.35 16.45 3.1 17.05 2.5 17.45 Q-0.85 18.25 -3.05 15.6 L-3.35 14.9 -3.2 14.3 Q-4.95 13.1 -6.8 10.9 -9.75 7.5 -10.9 4.45 -12.95 -0.15 -12.95 -3.35 L-12.95 -3.45 Q-12.9 -9.3 -9.2 -13.4 L-9.15 -13.4 Q-5.2 -17.6 0.15 -17.6"
         fill="#ffffff"
         fill-opacity="0.49803922"
         fill-rule="evenodd"
         stroke="none"
         id="path2" />
    </g>
    <g
       id="sprite0"
       transform="matrix(1.0, 0.0, 0.0, 1.0, 13.5, 19.05)">
      <use
         ffdec:characterId="6695"
         height="31.65"
         transform="matrix(1.0, 0.0, 0.0, 1.0, -13.5, -19.05)"
         width="28.6"
         xlink:href="#shape1"
         id="use3" />
    </g>
    <g
       id="shape1"
       transform="matrix(1.0, 0.0, 0.0, 1.0, 13.5, 19.05)">
      <path
         d="M8.85 -13.8 Q12.5 -9.6 12.5 -3.6 L12.5 -3.5 12.6 -1.7 Q12.65 -0.6 12.1 -0.1 10.8 1.1 8.85 -1.75 6.5 -5.1 4.95 -5.1 3.25 -5.1 0.35 -1.85 -2.55 1.4 -3.8 1.4 -5.1 1.4 -6.1 -1.65 -6.95 -4.65 -8.05 -4.65 -8.8 -4.65 -9.75 -1.3 -10.7 1.85 -11.65 1.45 -12.5 1.1 -12.5 -3.5 L-12.5 -3.6 Q-12.45 -9.6 -8.9 -13.8 -5.15 -18.05 0.0 -18.05 5.2 -18.05 8.85 -13.8 Z"
         fill="none"
         stroke="#9fdcff"
         stroke-linecap="butt"
         stroke-linejoin="miter-clip"
         stroke-miterlimit="29.0"
         stroke-width="2.0"
         id="path3" />
      <path
         d="M8.85 -13.8 Q12.5 -9.6 12.5 -3.6 L12.5 -3.5 12.6 -1.7 Q12.65 -0.6 12.1 -0.1 10.8 1.1 8.85 -1.75 6.5 -5.1 4.95 -5.1 3.25 -5.1 0.35 -1.85 -2.55 1.4 -3.8 1.4 -5.1 1.4 -6.1 -1.65 -6.95 -4.65 -8.05 -4.65 -8.8 -4.65 -9.75 -1.3 -10.7 1.85 -11.65 1.45 -12.5 1.1 -12.5 -3.5 L-12.5 -3.6 Q-12.45 -9.6 -8.9 -13.8 -5.15 -18.05 0.0 -18.05 5.2 -18.05 8.85 -13.8"
         fill="#ffffff"
         fill-rule="evenodd"
         stroke="none"
         id="path4" />
      <path
         d="M12.1 -0.1 Q10.8 1.1 8.85 -1.75 6.5 -5.1 4.95 -5.1 3.25 -5.1 0.35 -1.85 -2.55 1.4 -3.8 1.4 -5.1 1.4 -6.1 -1.65 -6.95 -4.65 -8.05 -4.65 -8.8 -4.65 -9.75 -1.3 -10.7 1.85 -11.65 1.45 -12.25 1.2 -12.4 -1.2 -11.6 -4.2 -9.1 -6.55 -5.3 -10.1 0.1 -10.1 5.5 -10.1 9.3 -6.55 11.75 -4.3 12.6 -1.45 12.6 -0.55 12.1 -0.1"
         fill="#9fdcff"
         fill-rule="evenodd"
         stroke="none"
         id="path5" />
    </g>
  </defs>
</svg>
