<?xml version="1.0" encoding="UTF-8" standalone="no"?>
<svg
   ffdec:objectType="frame"
   height="69.55px"
   width="100.05px"
   version="1.1"
   id="svg8"
   sodipodi:docname="1.svg"
   inkscape:version="1.4.2 (f4327f4, 2025-05-13)"
   xmlns:inkscape="http://www.inkscape.org/namespaces/inkscape"
   xmlns:sodipodi="http://sodipodi.sourceforge.net/DTD/sodipodi-0.dtd"
   xmlns:xlink="http://www.w3.org/1999/xlink"
   xmlns="http://www.w3.org/2000/svg"
   xmlns:svg="http://www.w3.org/2000/svg"
   xmlns:ffdec="https://www.free-decompiler.com/flash">
  <sodipodi:namedview
     id="namedview8"
     pagecolor="#505050"
     bordercolor="#eeeeee"
     borderopacity="1"
     inkscape:showpageshadow="0"
     inkscape:pageopacity="0"
     inkscape:pagecheckerboard="0"
     inkscape:deskcolor="#505050"
     inkscape:zoom="16.779295"
     inkscape:cx="50.151094"
     inkscape:cy="34.775001"
     inkscape:window-width="2560"
     inkscape:window-height="1369"
     inkscape:window-x="-8"
     inkscape:window-y="-8"
     inkscape:window-maximized="1"
     inkscape:current-layer="g3" />
  <g
     transform="matrix(1.0, 0.0, 0.0, 1.0, 0.05, 0.75)"
     id="g3">
    <g
       id="use1">
      <path
         d="m 94.95,1.15 3.5,63.4 L 1.5,66.9 4.75,1.15 h 90.2"
         fill="#ffffff"
         fill-opacity="0.498039"
         fill-rule="evenodd"
         stroke="none"
         id="path9" />
      <path
         d="M 94.95,1.15 H 4.75 L 1.5,66.9 98.45,64.55 Z"
         fill="none"
         stroke="#000000"
         stroke-linecap="butt"
         stroke-linejoin="miter-clip"
         stroke-miterlimit="3"
         stroke-opacity="0.498039"
         stroke-width="2"
         id="path10" />
    </g>
    <filter
       id="filter0"
       x="-0.054086244"
       y="-0.068388268"
       width="1.1003018"
       height="1.1204895">
      <feColorMatrix
         in="SourceGraphic"
         result="filterResult0"
         type="matrix"
         values="-0.36496347 0.45329183 0.9116715 0.0 0.0 0.44334167 0.69374347 -0.13708518 0.0 0.0 -0.36206198 1.6917081 -0.32964623 0.0 0.0 0.0 0.0 0.0 1.0 0.0"
         id="feColorMatrix1" />
    </filter>
    <filter
       id="filter1"
       x="-0.054086244"
       y="-0.068388268"
       width="1.1003018"
       height="1.1204895">
      <feColorMatrix
         in="SourceGraphic"
         result="filterResult1"
         type="matrix"
         values="-0.36496347 0.45329183 0.9116715 0.0 0.0 0.44334167 0.69374347 -0.13708518 0.0 0.0 -0.36206198 1.6917081 -0.32964623 0.0 0.0 0.0 0.0 0.0 1.0 0.0"
         id="feColorMatrix2" />
    </filter>
  </g>
  <defs
     id="defs8">
    <g
       id="shape0"
       transform="matrix(1.0, 0.0, 0.0, 1.0, -0.4, 0.7)">
      <path
         d="M94.95 1.15 L98.45 64.55 1.5 66.9 4.75 1.15 94.95 1.15"
         fill="#ffffff"
         fill-opacity="0.49803922"
         fill-rule="evenodd"
         stroke="none"
         id="path3" />
      <path
         d="M94.95 1.15 L4.75 1.15 1.5 66.9 98.45 64.55 94.95 1.15 Z"
         fill="none"
         stroke="#000000"
         stroke-linecap="butt"
         stroke-linejoin="miter-clip"
         stroke-miterlimit="3.0"
         stroke-opacity="0.49803922"
         stroke-width="2.0"
         id="path4" />
    </g>
    <g
       id="sprite0"
       transform="matrix(1.0, 0.0, 0.0, 1.0, 1.5, 1.85)">
      <use
         ffdec:characterId="5546"
         height="31.65"
         transform="matrix(1.0, 0.0, 0.0, 1.0, -1.5, -1.85)"
         width="30.75"
         xlink:href="#shape1"
         id="use4" />
    </g>
    <g
       id="shape1"
       transform="matrix(1.0, 0.0, 0.0, 1.0, 1.5, 1.85)">
      <path
         d="M27.75 14.05 Q26.05 16.85 17.05 22.05 8.1 27.3 2.75 28.3 -0.5 19.2 0.1 12.35 0.7 5.55 2.75 0.0 12.45 3.65 19.1 7.5 25.65 11.35 27.75 14.05"
         fill="#618e18"
         fill-rule="evenodd"
         stroke="none"
         id="path5" />
      <path
         d="M27.75 14.05 Q25.65 11.35 19.1 7.5 12.45 3.65 2.75 0.0 0.7 5.55 0.1 12.35 -0.5 19.2 2.75 28.3"
         fill="none"
         stroke="#39560b"
         stroke-linecap="butt"
         stroke-linejoin="miter-clip"
         stroke-miterlimit="3.0"
         stroke-width="3.0"
         id="path6" />
      <path
         d="M2.75 28.3 Q8.1 27.3 17.05 22.05 26.05 16.85 27.75 14.05"
         fill="none"
         stroke="#bbdb87"
         stroke-linecap="butt"
         stroke-linejoin="miter-clip"
         stroke-miterlimit="3.0"
         stroke-width="3.0"
         id="path7" />
      <path
         d="M21.15 11.3 L25.35 13.95 Q15.2 7.95 8.95 8.45 2.65 8.9 2.35 15.95 1.6 12.9 2.55 7.35 3.05 4.55 3.7 2.45 7.8 3.5 17.05 8.85 L17.35 9.05 18.8 9.9 21.15 11.3"
         fill="#39560b"
         fill-rule="evenodd"
         stroke="none"
         id="path8" />
    </g>
  </defs>
</svg>
