<?xml version="1.0" encoding="UTF-8" standalone="no"?>
<svg xmlns:ffdec="https://www.free-decompiler.com/flash" xmlns:xlink="http://www.w3.org/1999/xlink" ffdec:objectType="frame" height="67.5px" width="49.0px" xmlns="http://www.w3.org/2000/svg">
  <g transform="matrix(1.0, 0.0, 0.0, 1.0, 0.05, 0.0)">
    <use ffdec:characterId="16" height="67.5" transform="matrix(1.0, 0.0, 0.0, 1.0, -0.05, 0.0)" width="49.0" xlink:href="#shape0"/>
    <use ffdec:characterId="19" height="159.0" transform="matrix(0.282, 0.0, 0.0, 0.2695, 0.6, 9.0)" width="159.0" xlink:href="#sprite0"/>
    <use ffdec:characterId="20" height="67.5" transform="matrix(1.0, 0.0, 0.0, 1.0, -0.05, 0.0)" width="49.0" xlink:href="#shape2"/>
  </g>
  <defs>
    <g id="shape0" transform="matrix(1.0, 0.0, 0.0, 1.0, 0.05, 0.0)">
      <path d="M27.1 62.95 Q26.75 63.25 26.4 63.25 L25.05 63.5 25.05 63.75 27.95 67.1 25.95 67.45 24.9 67.5 19.65 67.1 22.95 63.5 21.15 62.95 27.1 62.95" fill="url(#gradient0)" fill-rule="evenodd" stroke="none"/>
      <path d="M45.25 41.65 Q42.2 48.7 38.2 54.25 L34.6 58.75 Q32.75 60.8 31.1 61.75 28.55 63.25 25.7 63.95 L23.25 63.95 Q19.2 62.9 17.9 62.25 L14.75 59.9 Q13.25 58.6 11.35 55.9 7.15 50.45 3.8 42.5 -0.05 33.5 -0.05 27.3 L-0.05 27.1 Q0.05 15.9 7.05 7.95 14.4 0.0 24.35 0.0 34.6 0.0 41.85 7.95 48.95 15.9 48.95 27.1 L48.95 27.3 Q48.95 33.5 45.25 41.65" fill="#bf0303" fill-rule="evenodd" stroke="none"/>
      <path d="M42.65 41.65 Q40.05 48.55 36.45 53.8 L33.3 58.25 30.25 61.15 Q27.95 62.6 25.4 63.3 L23.25 63.3 Q19.75 62.25 18.5 61.65 17.1 60.8 15.8 59.4 L12.8 55.55 Q9.15 50.2 6.2 42.4 2.75 33.75 2.75 27.7 L2.75 27.35 Q2.85 16.55 9.05 8.9 15.45 1.2 24.3 1.2 33.3 1.2 39.6 8.9 45.9 16.55 45.9 27.35 L45.9 27.7 Q45.9 33.75 42.65 41.65" fill="#d71313" fill-rule="evenodd" stroke="none"/>
      <path d="M42.2 41.65 L31.0 58.95 Q43.5 36.8 38.9 12.7 L45.2 24.3 Q46.4 33.15 42.2 41.65" fill="url(#gradient1)" fill-rule="evenodd" stroke="none"/>
      <path d="M15.25 42.7 L19.4 54.85 Q20.5 58.25 20.85 58.7 L21.2 58.95 20.45 58.7 19.75 58.25 Q18.75 57.65 17.8 56.85 11.85 52.5 7.2 43.55 -1.8 25.1 5.65 12.7 13.6 1.2 27.1 1.85 10.1 27.7 15.25 42.7" fill="url(#gradient2)" fill-rule="evenodd" stroke="none"/>
      <path d="M6.85 14.15 Q11.05 6.4 22.25 4.7 10.2 16.2 7.05 40.95 4.6 34.7 3.65 28.35 2.6 22.05 6.85 14.15" fill="url(#gradient3)" fill-rule="evenodd" stroke="none"/>
    </g>
    <linearGradient gradientTransform="matrix(0.0021, -0.0044, 0.0027, 0.0011, 23.75, 66.45)" gradientUnits="userSpaceOnUse" id="gradient0" spreadMethod="pad" x1="-819.2" x2="819.2">
      <stop offset="0.5686274509803921" stop-color="#cc0000"/>
      <stop offset="1.0" stop-color="#000000"/>
    </linearGradient>
    <linearGradient gradientTransform="matrix(-0.0045, -0.0011, 0.0077, -0.0273, 41.7, 35.85)" gradientUnits="userSpaceOnUse" id="gradient1" spreadMethod="pad" x1="-819.2" x2="819.2">
      <stop offset="0.5686274509803921" stop-color="#fe7878"/>
      <stop offset="1.0" stop-color="#cc0000"/>
    </linearGradient>
    <linearGradient gradientTransform="matrix(0.0117, 0.0093, -0.0228, 0.0266, -0.05, 30.7)" gradientUnits="userSpaceOnUse" id="gradient2" spreadMethod="pad" x1="-819.2" x2="819.2">
      <stop offset="0.023529411764705882" stop-color="#f36161"/>
      <stop offset="1.0" stop-color="#cc0000"/>
    </linearGradient>
    <linearGradient gradientTransform="matrix(0.0, 0.013, -0.0261, 0.0, 10.0, 19.0)" gradientUnits="userSpaceOnUse" id="gradient3" spreadMethod="pad" x1="-819.2" x2="819.2">
      <stop offset="0.03137254901960784" stop-color="#f3bebe"/>
      <stop offset="1.0" stop-color="#fe4545" stop-opacity="0.0"/>
    </linearGradient>
    <g id="sprite0" transform="matrix(1.0, 0.0, 0.0, 1.0, 0.0, 0.0)">
      <filter id="filter0">
        <feColorMatrix in="SourceGraphic" result="filterResult0" type="matrix" values="0 0 0 0 1.0,0 0 0 0 1.0,0 0 0 0 0.0,0 0 0 1 0"/>
        <feComposite in="SourceGraphic" in2="filterResult0" operator="over" result="filterResult1"/>
      </filter>
      <use ffdec:characterId="18" filter="url(#filter0)" height="159.0" transform="matrix(1.0, 0.0, 0.0, 1.0, 0.0, 0.0)" width="159.0" xlink:href="#sprite1"/>
    </g>
    <g id="sprite1" transform="matrix(1.0, 0.0, 0.0, 1.0, 0.0, 0.0)">
      <use ffdec:characterId="17" height="159.0" transform="matrix(1.0, 0.0, 0.0, 1.0, 0.0, 0.0)" width="159.0" xlink:href="#shape1"/>
    </g>
    <g id="shape1" transform="matrix(1.0, 0.0, 0.0, 1.0, 0.0, 0.0)">
      <path d="M159.0 79.5 Q159.0 112.45 135.7 135.75 112.45 159.0 79.5 159.0 46.55 159.0 23.25 135.75 0.0 112.45 0.0 79.5 0.0 46.55 23.25 23.3 46.55 0.0 79.5 0.0 112.45 0.0 135.7 23.3 159.0 46.55 159.0 79.5" fill="url(#gradient4)" fill-rule="evenodd" stroke="none"/>
    </g>
    <radialGradient cx="0" cy="0" gradientTransform="matrix(0.1095, 0.0, 0.0, 0.1095, 79.5, 79.5)" gradientUnits="userSpaceOnUse" id="gradient4" r="819.2" spreadMethod="pad">
      <stop offset="0.0" stop-color="#f2fd01" stop-opacity="0.7058824"/>
      <stop offset="1.0" stop-color="#f1ff00" stop-opacity="0.0"/>
    </radialGradient>
    <g id="shape2" transform="matrix(1.0, 0.0, 0.0, 1.0, 0.05, 0.0)">
      <path d="M45.25 41.65 Q42.2 48.7 38.2 54.25 L34.6 58.75 Q32.75 60.8 31.1 61.75 28.55 63.25 25.7 63.95 L25.25 63.95 27.95 67.1 25.95 67.45 24.9 67.5 19.65 67.1 22.7 63.8 17.9 62.25 14.75 59.9 Q13.25 58.6 11.35 55.9 7.15 50.45 3.8 42.5 -0.05 33.5 -0.05 27.3 L-0.05 27.1 Q0.05 15.9 7.05 7.95 14.4 0.0 24.35 0.0 34.6 0.0 41.85 7.95 48.95 15.9 48.95 27.1 L48.95 27.3 Q48.95 33.5 45.25 41.65" fill="#000000" fill-rule="evenodd" stroke="none"/>
    </g>
  </defs>
</svg>
