<?xml version="1.0" encoding="UTF-8" standalone="no"?>
<svg xmlns:ffdec="https://www.free-decompiler.com/flash" xmlns:xlink="http://www.w3.org/1999/xlink" ffdec:objectType="morphshape" height="730.35px" width="734.15px" xmlns="http://www.w3.org/2000/svg">
  <g transform="matrix(1.0, 0.0, 0.0, 1.0, 89.0, 157.95)">
    <path d="M-65.8 204.15 L-65.8 204.55 Q-65.65 345.75 34.35 445.8 L35.35 446.8 Q135.2 545.9 276.25 545.9 L277.65 545.9 Q418.5 545.4 518.95 445.0 616.7 346.6 618.3 206.4 L618.3 203.45 Q617.3 61.1 518.15 -38.05 418.0 -138.2 276.15 -138.2 134.45 -138.15 34.25 -37.95 -65.8 62.2 -65.8 204.15 M-89.0 -157.95 L-89.0 572.4 645.15 572.4 645.15 -157.95 -89.0 -157.95" fill="#000000" fill-rule="evenodd" stroke="none">
      <animate attributeName="fill" dur="2s" repeatCount="indefinite" values="#000000;#000001"/>
      <animate attributeName="fill-opacity" dur="2s" repeatCount="indefinite" values="1.0;1.0"/>
      <animate attributeName="d" dur="2s" repeatCount="indefinite" values="M-65.8 204.15 L-65.8 204.55 Q-65.65 345.75 34.35 445.8 L35.35 446.8 Q135.2 545.9 276.25 545.9 L277.65 545.9 Q418.5 545.4 518.95 445.0 616.7 346.6 618.3 206.4 L618.3 203.45 Q617.3 61.1 518.15 -38.05 418.0 -138.2 276.15 -138.2 134.45 -138.15 34.25 -37.95 -65.8 62.2 -65.8 204.15 M-89.0 -157.95 L-89.0 572.4 645.15 572.4 645.15 -157.95 -89.0 -157.95;M212.3 174.2 L212.3 174.2 Q212.3 198.3 229.25 215.35 L229.45 215.55 Q246.45 232.55 270.6 232.65 L270.8 232.65 Q294.95 232.65 312.2 215.55 329.1 198.6 329.3 174.7 L329.3 174.2 Q329.3 149.95 312.2 132.85 295.05 115.7 270.8 115.7 246.6 115.7 229.45 132.85 212.3 149.95 212.3 174.2 M-7.9 -2.65 L-7.9 412.05 559.05 412.05 559.05 -2.65 -7.9 -2.65"/>
    </path>
    <path d="M-89.0 -157.95 L645.15 -157.95 645.15 572.4 -89.0 572.4 -89.0 -157.95 M-65.8 204.15 Q-65.8 62.2 34.25 -37.95 134.45 -138.15 276.15 -138.2 418.0 -138.2 518.15 -38.05 617.3 61.1 618.3 203.45 L618.3 206.4 Q616.7 346.6 518.95 445.0 418.5 545.4 277.65 545.9 L276.25 545.9 Q135.2 545.9 35.35 446.8 L34.35 445.8 Q-65.65 345.75 -65.8 204.55 L-65.8 204.15 Z" fill="none" stroke="#000000" stroke-linecap="round" stroke-linejoin="round" stroke-opacity="0.0" stroke-width="0.0">
      <animate attributeName="stroke" dur="2s" repeatCount="indefinite" values="#000000;#000001"/>
      <animate attributeName="stroke-width" dur="2s" repeatCount="indefinite" values="0.0;0.0"/>
      <animate attributeName="fill-opacity" dur="2s" repeatCount="indefinite" values="0.0;0.0"/>
      <animate attributeName="d" dur="2s" repeatCount="indefinite" values="M-89.0 -157.95 L645.15 -157.95 645.15 572.4 -89.0 572.4 -89.0 -157.95 M-65.8 204.15 Q-65.8 62.2 34.25 -37.95 134.45 -138.15 276.15 -138.2 418.0 -138.2 518.15 -38.05 617.3 61.1 618.3 203.45 L618.3 206.4 Q616.7 346.6 518.95 445.0 418.5 545.4 277.65 545.9 L276.25 545.9 Q135.2 545.9 35.35 446.8 L34.35 445.8 Q-65.65 345.75 -65.8 204.55 L-65.8 204.15 Z;M-7.9 -2.65 L559.05 -2.65 559.05 412.05 -7.9 412.05 -7.9 -2.65 M212.3 174.2 Q212.3 149.95 229.45 132.85 246.6 115.7 270.8 115.7 295.05 115.7 312.2 132.85 329.3 149.95 329.3 174.2 L329.3 174.7 Q329.1 198.6 312.2 215.55 294.95 232.65 270.8 232.65 L270.6 232.65 Q246.45 232.55 229.45 215.55 L229.25 215.35 Q212.3 198.3 212.3 174.2 L212.3 174.2 Z"/>
    </path>
  </g>
</svg>
