<?xml version="1.0" encoding="UTF-8" standalone="no"?>
<svg xmlns:ffdec="https://www.free-decompiler.com/flash" xmlns:xlink="http://www.w3.org/1999/xlink" ffdec:objectType="frame" height="108.1px" width="846.7px" xmlns="http://www.w3.org/2000/svg">
  <g transform="matrix(1.0, 0.0, 0.0, 1.0, 0.0, 0.0)">
    <use ffdec:characterId="11" height="108.1" transform="matrix(1.0, 0.0, 0.0, 1.0, 0.0, 0.0)" width="846.7" xlink:href="#shape0"/>
  </g>
  <defs>
    <g id="shape0" transform="matrix(1.0, 0.0, 0.0, 1.0, 0.0, 0.0)">
      <path d="M816.75 95.2 Q770.3 97.8 742.65 96.95 715.0 96.05 668.35 97.8 621.7 99.5 608.0 98.85 580.15 97.5 543.5 102.6 L516.8 106.3 Q502.55 108.1 492.6 108.1 481.8 108.1 475.0 104.45 472.8 103.25 464.5 96.35 457.85 90.85 450.1 88.25 438.95 84.6 420.75 84.6 411.15 84.6 390.8 87.15 370.45 89.7 358.5 89.7 339.75 89.7 317.8 85.35 295.45 80.95 276.5 73.35 270.8 71.05 265.75 68.65 L264.35 69.1 Q256.7 71.35 239.75 71.35 L211.75 71.2 Q188.45 70.8 185.95 69.55 186.35 69.2 187.05 69.2 L185.65 69.2 Q174.25 69.35 170.85 71.9 169.45 72.95 168.95 74.7 L168.45 77.9 Q167.75 82.05 163.05 83.9 156.05 86.6 137.65 86.6 127.0 86.6 119.05 84.4 112.0 82.45 106.0 78.45 105.85 75.45 109.4 72.5 L114.25 68.2 100.0 68.2 68.75 71.35 Q48.45 73.35 29.5 73.35 16.9 73.35 9.55 71.35 5.55 70.25 0.0 68.2 0.65 68.2 0.9 67.7 L1.0 67.2 Q3.15 66.4 8.25 65.25 23.25 61.85 63.85 55.55 110.25 48.4 155.0 42.7 159.9 42.1 175.25 42.4 188.15 42.65 195.9 40.7 197.95 40.2 200.55 35.85 L205.7 26.8 Q213.5 14.1 223.9 14.1 227.15 14.1 236.8 15.65 L238.0 15.85 Q240.05 13.6 242.8 11.7 251.45 5.65 271.9 0.0 288.8 0.45 304.15 2.5 335.7 6.7 343.75 16.2 351.3 25.1 362.3 30.5 374.75 36.6 388.6 36.6 390.55 36.6 395.6 35.0 L406.45 31.5 Q422.6 26.45 434.5 26.35 434.5 21.65 458.7 28.0 480.7 33.75 487.6 37.6 489.7 38.8 490.7 40.6 L492.05 43.85 Q493.95 47.9 501.85 49.85 507.2 51.1 521.25 52.45 L552.0 54.95 Q611.05 59.55 634.55 65.45 643.9 67.75 648.9 68.35 L678.5 69.35 705.65 67.8 731.5 66.2 Q750.9 66.2 781.6 69.55 812.25 72.85 837.7 82.7 863.15 92.55 816.75 95.2 M434.5 26.35 L434.5 26.4 Q433.35 26.5 433.8 27.3 434.5 28.45 434.5 26.4 L434.9 26.35 434.5 26.35 M187.05 69.2 L187.15 69.2 187.05 69.2" fill="#ffffff" fill-rule="evenodd" stroke="none"/>
    </g>
  </defs>
</svg>
