<?xml version="1.0" encoding="UTF-8" standalone="no"?>
<svg
   ffdec:objectType="frame"
   height="169.39999"
   width="194.14999"
   version="1.1"
   id="svg89"
   sodipodi:docname="logo.svg"
   inkscape:version="1.4.2 (f4327f4, 2025-05-13)"
   xmlns:inkscape="http://www.inkscape.org/namespaces/inkscape"
   xmlns:sodipodi="http://sodipodi.sourceforge.net/DTD/sodipodi-0.dtd"
   xmlns:xlink="http://www.w3.org/1999/xlink"
   xmlns="http://www.w3.org/2000/svg"
   xmlns:svg="http://www.w3.org/2000/svg"
   xmlns:ffdec="https://www.free-decompiler.com/flash">
  <sodipodi:namedview
     id="namedview89"
     pagecolor="#505050"
     bordercolor="#eeeeee"
     borderopacity="1"
     inkscape:showpageshadow="0"
     inkscape:pageopacity="0"
     inkscape:pagecheckerboard="0"
     inkscape:deskcolor="#505050"
     inkscape:zoom="3.6686576"
     inkscape:cx="107.53252"
     inkscape:cy="90.087448"
     inkscape:window-width="2560"
     inkscape:window-height="1369"
     inkscape:window-x="-8"
     inkscape:window-y="-8"
     inkscape:window-maximized="1"
     inkscape:current-layer="svg89" />
  <g
     transform="translate(0,3)"
     id="g20">
    <g
       id="use1">
      <path
         d="M 132.5,94.7 Q 116.25,110.95 93.25,110.95 70.25,110.95 54,94.7 37.75,78.45 37.75,55.5 37.75,32.5 54,16.25 70.25,0 93.25,0 q 23,0 39.25,16.25 16.25,16.25 16.25,39.25 0,22.95 -16.25,39.2"
         fill="#ff0000"
         fill-rule="evenodd"
         stroke="none"
         id="path90" />
      <path
         d="M 132.5,94.7 Q 116.25,110.95 93.25,110.95 70.25,110.95 54,94.7 37.75,78.45 37.75,55.5 37.75,32.5 54,16.25 70.25,0 93.25,0 q 23,0 39.25,16.25 16.25,16.25 16.25,39.25 0,22.95 -16.25,39.2 z"
         fill="none"
         stroke="#ffffff"
         stroke-linecap="butt"
         stroke-linejoin="miter-clip"
         stroke-miterlimit="10"
         stroke-width="6"
         id="path91" />
    </g>
    <g
       id="use2"
       transform="matrix(0.7302,0.8703,-0.8703,0.7302,64.35002,49.349995)">
      <g
         id="use91">
        <path
           d="M 4.2,8.8 3.9,9 0.05,8.8 0,8.4 5.7,0.45 10.8,0.15 4.2,8.8"
           fill="#000000"
           fill-rule="evenodd"
           stroke="none"
           id="path92" />
        <path
           d="M 4.2,8.8 10.8,0.15 M 5.7,0.45 0,8.4"
           ffdec:has-small-stroke="true"
           ffdec:original-stroke-width="0.5"
           fill="none"
           stroke="#000000"
           stroke-linecap="round"
           stroke-linejoin="round"
           stroke-width="0.88023"
           id="path93" />
        <path
           d="M 4.2,8.8 3.9,9 1.5,8.9 7.85,0.3 10.8,0.15 4.2,8.8"
           fill="#000000"
           fill-opacity="0.498039"
           fill-rule="evenodd"
           stroke="none"
           id="path94" />
      </g>
    </g>
    <g
       id="use3"
       transform="matrix(0.8215,0.7847,-0.7847,0.8215,86.90008,39.19991)">
      <g
         id="use94">
        <path
           d="m 5.15,0.35 12.5,15.45 q -7.5,5.65 -16.5,8.05 H 1.05 Q -2.6,22.8 -2.3,19.25 -2.3,9.4 5.15,0.35"
           fill="#000000"
           fill-rule="evenodd"
           stroke="none"
           id="path95" />
        <path
           d="m 17.65,15.8 q -7.5,5.65 -16.5,8.05 H 1.05 Q -2.6,22.8 -2.3,19.25 -2.3,9.4 5.15,0.35"
           ffdec:has-small-stroke="true"
           ffdec:original-stroke-width="0.5"
           fill="none"
           stroke="#000000"
           stroke-linecap="round"
           stroke-linejoin="round"
           stroke-width="0.880215"
           id="path96" />
        <path
           d="m 2.35,20.9 q -3.1,-0.85 -2.85,-3.65 0,-7.8 6.55,-17.8 13.35,-5.1 20.7,4.15 -10.8,13.95 -24.3,17.3 h -0.1"
           fill="#000000"
           fill-opacity="0.498039"
           fill-rule="evenodd"
           stroke="none"
           id="path97" />
      </g>
    </g>
    <g
       id="use4"
       transform="matrix(1.1361,0,0,1.1361,100.25013,30.250135)">
      <g
         id="use97">
        <path
           d="M 1.2,12.1 Q 3.85,10.9 1.9,7.4 -0.05,3.95 -4.05,3.95 -4.4,-3.25 8.1,-4.1 q 1.3,2.85 8,5.8 6.95,4.95 8.55,11.25 l -0.3,0.1 Q 13.05,15.95 1.45,12.5 L 1.2,12.1"
           fill="#000000"
           fill-rule="evenodd"
           stroke="none"
           id="path98" />
        <path
           d="M 1.2,12.1 Q 3.85,10.9 1.9,7.4 -0.05,3.95 -4.05,3.95 M 8.1,-4.1 q 1.3,2.85 8,5.8 6.95,4.95 8.55,11.25"
           ffdec:has-small-stroke="true"
           ffdec:original-stroke-width="0.5"
           fill="none"
           stroke="#000000"
           stroke-linecap="round"
           stroke-linejoin="round"
           stroke-width="0.880221"
           id="path99" />
        <path
           d="m 8.65,-1.55 q 2.05,1.9 6.45,3.85 4.6,3.25 6.85,7.15 l 0.3,0.5 2.25,2.5 0.15,0.5 -0.3,0.1 -0.75,0.2 Q 12.65,15.8 1.45,12.5 L 1.2,12.1 2,11.6 3.15,11.4 Q 5.45,10.15 3.6,6.8 1.65,3.35 -2.35,3.35 L -4.05,3.7 Q -4.2,-3.2 8,-4.1 l 0.65,2.55"
           fill="#000000"
           fill-opacity="0.498039"
           fill-rule="evenodd"
           stroke="none"
           id="path100" />
      </g>
    </g>
    <g
       id="use5"
       transform="matrix(1.0089,-0.5223,0.5223,1.0089,79.74998,21.54989)">
      <g
         id="use100">
        <path
           d="M 7.35,17.45 5.45,16.5 Q 6.3,10.7 3.75,4.1 6.15,2.05 8.7,0.75 L 8.8,0.7 11.3,0.15 13.95,0 q 4.5,0 7.9,3.4 3,3 3,6 l -0.35,1.3 -2.45,6 -0.35,-0.1 -14.35,0.85"
           fill="#000000"
           fill-rule="evenodd"
           stroke="none"
           id="path101" />
        <path
           d="M 7.35,17.45 5.45,16.5 Q 6.3,10.7 3.75,4.1 6.15,2.05 8.7,0.75 L 8.8,0.7 11.3,0.15 13.95,0 q 4.5,0 7.9,3.4 3,3 3,6 l -0.35,1.3 -2.45,6"
           ffdec:has-small-stroke="true"
           ffdec:original-stroke-width="0.5"
           fill="none"
           stroke="#000000"
           stroke-linecap="round"
           stroke-linejoin="round"
           stroke-width="0.88022"
           id="path102" />
        <path
           d="M 23.3,11.95 23,13.25 21.7,16.6 7.35,17.45 5.4,16.5 Q 6.4,14.85 4.3,5.9 L 4.25,6 V 5.85 q 1.8,-1.5 3.7,-2.55 l 0.1,-0.05 2.4,-0.55 2.5,-0.15 q 4.3,0 7.5,3.4 2.85,3 2.85,6 M 2.7,7.2 2.65,7.35 H 2.55 L 2.7,7.2"
           fill="#000000"
           fill-opacity="0.498039"
           fill-rule="evenodd"
           stroke="none"
           id="path103" />
      </g>
    </g>
    <g
       id="use6"
       transform="matrix(1.0089,-0.5223,0.5223,1.0089,83.099985,20.850005)">
      <g
         id="use103">
        <path
           d="M 21.05,11.45 21.1,11.8 Q 21,14 20.35,14.45 21,14 21.1,11.8 h 0.35 l 1.05,0.65 0.35,0.35 -0.55,1.5 -0.35,0.7 -0.6,0.15 L 20.75,15 20.35,14.45 20,14.55 19.75,14.5 Q 17.95,12.65 13.35,10.45 10.1,8.85 7.4,8.1 L 7.1,7.9 Q 4.35,7.3 2.55,6.15 0.2,4.6 0.1,2.5 L 0.3,2.25 V 2 L 0.05,1.45 0,0.85 V 0.65 L 0.6,0.7 6.1,0.1 10.95,0.05 12.35,2.6 13.3,4.25 17.5,7.6 q 2.25,2.05 3.55,3.85 M 11,5.8 10.45,4.1 9.45,2.25 5.2,1.75 3,1.85 11,5.8"
           fill="#000000"
           fill-rule="evenodd"
           stroke="none"
           id="path104" />
        <path
           d="M 11,5.8 3,1.85 5.2,1.75 9.45,2.25 10.45,4.1 11,5.8"
           fill="#ffffff"
           fill-rule="evenodd"
           stroke="none"
           id="path105" />
        <path
           d="M 21.05,11.45 Q 19.75,9.65 17.5,7.6 L 13.3,4.25 12.35,2.6 10.95,0.05 6.1,0.1 0.6,0.7 0,0.65 v 0.2 L 0.05,1.45 0.3,2 V 2.25 L 0.1,2.5 Q 0.2,4.6 2.55,6.15 4.35,7.3 7.1,7.9 m 0.3,0.2 q 2.7,0.75 5.95,2.35 4.6,2.2 6.4,4.05 l 0.25,0.05 0.35,-0.1 Q 21,14 21.1,11.8 m 0.35,0 1.05,0.65 0.35,0.35 -0.55,1.5 -0.35,0.7 -0.6,0.15 -0.6,-0.15 -0.4,-0.55 M 11,5.8 3,1.85 l 2.2,-0.1 4.25,0.5 1,1.85 z"
           ffdec:has-small-stroke="true"
           ffdec:original-stroke-width="0.5"
           fill="none"
           stroke="#000000"
           stroke-linecap="round"
           stroke-linejoin="round"
           stroke-width="0.88022"
           id="path106" />
      </g>
    </g>
    <g
       id="use7"
       transform="matrix(1.045,-0.4457,0.4457,1.045,35.750105,28.2506)">
      <g
         id="use106">
        <path
           d="m 43.8,19.5 -0.95,-1.9 -0.2,-0.2 -1.2,-1 Q 28.9,5.95 14.75,2.6 30.3,3.2 45.5,15.45 49.25,22.9 48.8,27.7 L 18.7,16.9 q 6,-1.2 22.8,5.8 l 2.7,1.2 q 0.3,-0.9 0.25,-1.95 l -0.4,-1.8 -0.25,-0.65"
           fill="#000000"
           fill-rule="evenodd"
           stroke="none"
           id="path107" />
        <path
           d="m 41.45,16.4 1.2,1 0.2,0.2 0.95,1.9 -1.55,-0.75 -0.8,-2.35 m 3,5.55 Q 44.5,23 44.2,23.9 l -2.7,-1.2 q 0.6,-1 0.8,-2.15 l 0.35,0.25 1.45,1.15 h 0.35"
           fill="#000000"
           fill-rule="evenodd"
           stroke="none"
           id="path108" />
        <path
           d="m 43.8,19.5 0.25,0.65 0.4,1.8 H 44.1 L 42.65,20.8 42.3,20.55 q -0.85,-0.5 -1.15,-0.5 L 40.05,19.7 Q 39.2,19.35 38.95,19.35 L 37.1,19.1 h -0.25 l 0.3,-0.45 0.4,-0.25 0.35,-0.15 0.45,-0.15 1.2,-0.2 2.2,0.7 0.5,0.2 v -0.05 l 1.55,0.75"
           fill="#000000"
           fill-rule="evenodd"
           stroke="none"
           id="path109" />
        <path
           d="m 41.45,16.4 1.2,1 0.2,0.2 0.95,1.9 0.25,0.65 0.4,1.8 Q 44.5,23 44.2,23.9 L 41.5,22.7 Q 24.7,15.7 18.7,16.9 L 48.8,27.7 Q 49.25,22.9 45.5,15.45 30.3,3.2 14.75,2.6 28.9,5.95 41.45,16.4 l 0.8,2.35 1.55,0.75 m -1.55,-0.75 v 0.05 l -0.5,-0.2 -2.2,-0.7 -1.2,0.2 -0.45,0.15 -0.35,0.15 -0.4,0.25 -0.3,0.45 h 0.25 l 1.85,0.25 q 0.25,0 1.1,0.35 l 1.1,0.35 q 0.3,0 1.15,0.5 l 0.35,0.25 1.45,1.15 m -1.8,-1.4 q -0.2,1.15 -0.8,2.15"
           ffdec:has-small-stroke="true"
           ffdec:original-stroke-width="0.5"
           fill="none"
           stroke="#000000"
           stroke-linecap="round"
           stroke-linejoin="round"
           stroke-width="0.880223"
           id="path110" />
        <path
           d="m 37.15,18.7 v -0.05 l 0.3,-0.2 -0.3,0.25 m 5.6,-0.3 0.1,-0.4 0.75,0.8 0.2,0.5 0.2,0.45 0.15,0.8 0.15,0.65 0.15,1.05 -0.2,1.6 -1.7,-0.8 0.35,-1.55 -0.65,-0.65 0.05,-0.3 -0.65,-0.3 -0.5,-0.2 -1.1,-0.35 Q 39.2,19.35 38.95,19.35 L 37.1,19.1 H 36.85 L 37,18.9 q 2.15,-0.4 5.65,0.6 L 42.6,18.95 42.75,18.4 m 2.65,-3.05 0.1,0.1 0.75,1.5 q 2.6,5.8 2.6,9.85 L 48.8,27.7 18.7,16.9 19.1,16.85 q 11.35,2.65 23.3,6.9 l 1.85,0.65 2,0.6 Q 46.15,20.85 43.6,17.5 L 43,17.4 42.85,18 42.1,17.2 41.7,17 41.5,16.55 v -0.1 L 41.45,16.4 40.95,16 40.7,15.8 40.2,15.4 Q 31.6,8.55 22.3,4.95 L 17.05,3.2 Q 31.9,6.75 45.4,15.35"
           fill="#000000"
           fill-opacity="0.498039"
           fill-rule="evenodd"
           stroke="none"
           id="path111" />
      </g>
    </g>
    <g
       id="use8"
       transform="matrix(-0.6257,-0.9482,0.9482,-0.6257,114.70002,28.44996)">
      <g
         id="use111">
        <path
           d="M 0,15 0.2,14.85 Q 3.85,13.9 2.4,8.6 0.65,4.25 3.75,0.55 L 5.15,1.6 Q 2.65,4.5 4.7,9.2 6.8,15.95 2,17.4 H 1.9 L 0,15"
           fill="#000000"
           fill-rule="evenodd"
           stroke="none"
           id="path112" />
        <path
           d="M 0.2,14.85 Q 3.85,13.9 2.4,8.6 0.65,4.25 3.75,0.55 L 5.15,1.6 Q 2.65,4.5 4.7,9.2 6.8,15.95 2,17.4 H 1.9 L 0,15"
           ffdec:has-small-stroke="true"
           ffdec:original-stroke-width="0.5"
           fill="none"
           stroke="#000000"
           stroke-linecap="round"
           stroke-linejoin="round"
           stroke-width="0.88025"
           id="path113" />
      </g>
    </g>
    <g
       id="use9"
       transform="matrix(0.3242,-1.0888,1.0889,0.3242,111.15003,28.85004)">
      <g
         id="use113">
        <path
           d="M 3.7,1.6 3.65,0.1 H 4 L 4.8,0.05 5.5,0.55 5.55,3.1 q 0,4 -0.45,6.8 -0.65,3.85 -2.2,7.35 L 1.95,16.75 0.3,15.85 0,15.65 0.3,15.05 1.95,11.2 Q 3.7,6.3 3.7,1.6"
           fill="#000000"
           fill-rule="evenodd"
           stroke="none"
           id="path114" />
        <path
           d="M 3.7,1.6 3.65,0.1 H 4 L 4.8,0.05 5.5,0.55 5.55,3.1 q 0,4 -0.45,6.8 -0.65,3.85 -2.2,7.35 L 1.95,16.75 0.3,15.85 0,15.65 0.3,15.05 1.95,11.2 Q 3.7,6.3 3.7,1.6 Z"
           ffdec:has-small-stroke="true"
           ffdec:original-stroke-width="0.5"
           fill="none"
           stroke="#000000"
           stroke-linecap="round"
           stroke-linejoin="round"
           stroke-width="0.880221"
           id="path115" />
      </g>
    </g>
    <g
       id="use10"
       transform="matrix(1.1361,0,0,1.1361,83.499975,36.299915)">
      <g
         id="use115">
        <path
           d="M 39.35,6.7 Q 40.45,19.15 36.8,27.45 33.45,35.1 23.8,38.7 16.7,39.65 12.75,37.3 7.15,32.45 3.2,24.65 L 3,24.35 Q -2.2,14.95 3.4,7.2 L 3.5,7.15 Q 7.4,5.5 15.95,6.5 l 23.4,0.2"
           fill="#000000"
           fill-rule="evenodd"
           stroke="none"
           id="path116" />
        <path
           d="M 15.95,6.5 Q 7.4,5.5 3.5,7.15 L 3.4,7.2 Q -2.2,14.95 3,24.35 l 0.2,0.3 q 3.95,7.8 9.55,12.65 3.95,2.35 11.05,1.4 9.65,-3.6 13,-11.25 3.65,-8.3 2.55,-20.75"
           ffdec:has-small-stroke="true"
           ffdec:original-stroke-width="0.5"
           fill="none"
           stroke="#000000"
           stroke-linecap="round"
           stroke-linejoin="round"
           stroke-width="0.880221"
           id="path117" />
        <path
           d="m 38.55,6.7 0.2,1.55 Q 39.4,19.55 35.9,27.1 32.65,34.2 23.5,37.4 16.85,38.15 13.25,35.85 8.1,31.2 4.55,23.75 L 4.35,23.5 Q -0.3,14.55 5.1,7.35 L 5.15,7.3 Q 8.65,5.95 15.9,6.85 L 16.2,6.5 38.55,6.7"
           fill="#000000"
           fill-opacity="0.498039"
           fill-rule="evenodd"
           stroke="none"
           id="path118" />
      </g>
    </g>
    <g
       id="use11"
       transform="matrix(0.9831,0.5692,-0.5692,0.9831,91.999955,74.45001)">
      <g
         id="use118">
        <path
           d="M 4.2,8.8 3.9,9 0.05,8.8 0,8.4 5.7,0.45 10.8,0.15 4.2,8.8"
           fill="#000000"
           fill-rule="evenodd"
           stroke="none"
           id="path119" />
        <path
           d="M 4.2,8.8 10.8,0.15 M 5.7,0.45 0,8.4"
           ffdec:has-small-stroke="true"
           ffdec:original-stroke-width="0.5"
           fill="none"
           stroke="#000000"
           stroke-linecap="round"
           stroke-linejoin="round"
           stroke-width="0.880256"
           id="path120" />
        <path
           d="M 4.2,8.8 3.9,9 1.5,8.9 7.85,0.3 10.8,0.15 4.2,8.8"
           fill="#000000"
           fill-opacity="0.498039"
           fill-rule="evenodd"
           stroke="none"
           id="path121" />
      </g>
    </g>
    <g
       id="use12"
       transform="matrix(1.2825,0.0123,0.1432,1.127,96.199855,75.999755)">
      <g
         id="use121">
        <path
           d="m 0.95,-10.4 q 11.85,2 18.5,8.25 Q 16.05,4.3 9.25,5.25 2.6,6.2 -1.8,1.4 L -2.35,0.15 q -0.75,-1.9 -0.75,-3.4 0,-2.85 1.85,-5.05 l 2.2,-2.1"
           fill="#000000"
           fill-rule="evenodd"
           stroke="none"
           id="path122" />
        <path
           d="M 19.45,-2.15 Q 16.05,4.3 9.25,5.25 2.6,6.2 -1.8,1.4 L -2.35,0.15 q -0.75,-1.9 -0.75,-3.4 0,-2.85 1.85,-5.05 l 2.2,-2.1"
           ffdec:has-small-stroke="true"
           ffdec:original-stroke-width="0.5"
           fill="none"
           stroke="#000000"
           stroke-linecap="round"
           stroke-linejoin="round"
           stroke-width="0.774888"
           id="path123" />
        <path
           d="M 19.45,-2.75 Q 16.2,3.25 9.8,4.1 3.55,5 -0.6,0.55 L -1.1,-0.6 q -0.7,-1.75 -0.7,-3.15 0,-2.65 1.7,-4.7 1.3,-1.55 2.1,-1.95 11.15,1.85 17.45,7.65"
           fill="#000000"
           fill-opacity="0.498039"
           fill-rule="evenodd"
           stroke="none"
           id="path124" />
      </g>
    </g>
    <g
       id="use13"
       transform="matrix(1.0239,-0.4923,0.4923,1.0239,71.900035,92.550255)">
      <g
         id="use124">
        <path
           d="m 19.6,14.3 -1.3,1.05 q -0.7,0.4 -1.45,0.4 -1.25,0 -2.35,-0.55 -2.35,0 -4.15,-1.3 -2.2,-1.8 -2.2,-4.75 V 9 q 0,-0.6 0.25,-0.9 0.45,-2.55 2.1,-5.3 2.15,-3.55 4.7,-4.55 l 0.75,-0.15 0.85,0.9 0.6,1.2 0.1,0.3 0.8,0.8 q 0.4,0.85 0.4,3.6 l -0.2,3.55 q -0.25,1.4 -1,2.15 l 0.1,0.1 1.05,-1.05 0.5,-0.4 Q 19.75,8.7 20.2,8.7 L 20.75,9.3 21,11 q 0,2.65 -1.6,3.3 h 0.2 m -8.85,-3.9 q 0.15,1.2 1.6,3.05 1,1.15 2.15,1.75 -1.15,-0.6 -2.15,-1.75 -1.45,-1.85 -1.6,-3.05 m 3.7,2.05 1.9,1.45 q 1,0.6 1.9,0.6 l 1.15,-0.2 -1.15,0.2 q -0.9,0 -1.9,-0.6 l -1.9,-1.45"
           fill="#000000"
           fill-rule="evenodd"
           stroke="none"
           id="path125" />
        <path
           d="m 19.6,14.3 -1.3,1.05 q -0.7,0.4 -1.45,0.4 -1.25,0 -2.35,-0.55 -2.35,0 -4.15,-1.3 -2.2,-1.8 -2.2,-4.75 V 9 q 0,-0.6 0.25,-0.9 0.45,-2.55 2.1,-5.3 2.15,-3.55 4.7,-4.55 l 0.75,-0.15 m 1.55,2.4 0.8,0.8 q 0.4,0.85 0.4,3.6 l -0.2,3.55 q -0.25,1.4 -1,2.15 l 0.1,0.1 1.05,-1.05 0.5,-0.4 Q 19.75,8.7 20.2,8.7 L 20.75,9.3 21,11 q 0,2.65 -1.6,3.3 l -1.15,0.2 q -0.9,0 -1.9,-0.6 l -1.9,-1.45 M 14.5,15.2 Q 13.35,14.6 12.35,13.45 10.9,11.6 10.75,10.4"
           ffdec:has-small-stroke="true"
           ffdec:original-stroke-width="0.5"
           fill="none"
           stroke="#000000"
           stroke-linecap="round"
           stroke-linejoin="round"
           stroke-width="0.880217"
           id="path126" />
        <path
           d="m 15.2,-1.75 0.35,-0.05 0.5,0.8 0.4,1.2 0.1,0.3 q 0.5,0.4 0.6,0.8 l 0.25,3.6 -0.1,3.55 q -0.2,1.4 -0.75,2.15 l 0.05,0.1 0.8,-1.05 0.35,-0.4 0.7,-0.55 Q 18.2,9.9 17.5,10.6 l 0.1,0.1 1.05,-1.05 0.3,-0.25 0.15,1.6 q 0,2.65 -1.15,3.3 h 0.15 l -0.95,1.05 q -0.4,0.3 -0.8,0.4 -1,-0.1 -1.85,-0.55 H 14.35 14 13.9 Q 12.45,15.05 11.3,13.9 9.7,12.1 9.7,9.15 V 9 L 9.9,8.1 q 0.3,-2.55 1.55,-5.3 1.15,-2.65 2.5,-3.85 l 1.25,-0.7"
           fill="#000000"
           fill-opacity="0.498039"
           fill-rule="evenodd"
           stroke="none"
           id="path127" />
      </g>
    </g>
    <g
       id="use14"
       transform="matrix(0.2049,1.1174,-1.1174,0.2049,58.55,39.199925)">
      <g
         id="use127">
        <path
           d="M 1.6,2.3 Q 1.75,0.85 3.25,-0.1 4.6,-1 6.35,-1 q 1.9,0 5.55,1.25 3.35,1.1 6.15,2.35 1.45,0.45 2.65,1.6 1.9,1.9 1.9,4.75 0,1 -0.55,1.8 L 21.3,11.6 h -0.1 l 0.25,-0.8 Q 21.45,9.15 20.1,8 18.15,6.4 13.85,6.4 10.6,6.4 8.05,7.7 5.4,9.05 5.4,10.85 q 0,0.8 0.3,1.55 L 6,13.2 Q 4.9,12.95 3.95,12 2.65,10.75 2.65,8.85 2.65,7.65 4.2,6.1 5.4,4.9 6.85,4.5 L 6.8,4.45 Q 6.35,4 5,4 1.95,4 0.55,5.75 L 0,5.6 Q 0.3,4.25 0.8,3.55 L 1.75,2.55 1.6,2.3 M 9.85,4.6 8.3,4.3 6.85,4.5 8.3,4.3 9.85,4.6 M 9.5,2.1 Q 7.05,1.3 5.95,1.3 q -2.6,0 -4.2,1.25 1.6,-1.25 4.2,-1.25 1.1,0 3.55,0.8"
           fill="#000000"
           fill-rule="evenodd"
           stroke="none"
           id="path128" />
        <path
           d="M 1.6,2.3 Q 1.75,0.85 3.25,-0.1 4.6,-1 6.35,-1 q 1.9,0 5.55,1.25 3.35,1.1 6.15,2.35 1.45,0.45 2.65,1.6 1.9,1.9 1.9,4.75 0,1 -0.55,1.8 L 21.3,11.6 h -0.1 l 0.25,-0.8 Q 21.45,9.15 20.1,8 18.15,6.4 13.85,6.4 10.6,6.4 8.05,7.7 5.4,9.05 5.4,10.85 q 0,0.8 0.3,1.55 L 6,13.2 Q 4.9,12.95 3.95,12 2.65,10.75 2.65,8.85 2.65,7.65 4.2,6.1 5.4,4.9 6.85,4.5 L 6.8,4.45 Q 6.35,4 5,4 1.95,4 0.55,5.75 0.1,6.3 -0.05,6.9 L -0.25,7.6 0,5.6 Q 0.3,4.25 0.8,3.55 l 0.95,-1 Q 3.35,1.3 5.95,1.3 7.05,1.3 9.5,2.1 M 6.85,4.5 8.3,4.3 9.85,4.6"
           ffdec:has-small-stroke="true"
           ffdec:original-stroke-width="0.5"
           fill="none"
           stroke="#000000"
           stroke-linecap="round"
           stroke-linejoin="round"
           stroke-width="0.88023"
           id="path129" />
        <path
           d="m 21.35,5.4 0.4,0.35 0.05,0.25 0.4,2.1 v 0.2 l -0.15,0.2 -0.3,0.3 -0.4,-1 Q 21.05,6.95 20.1,6.3 18.15,5 13.85,5 12.8,5 9.2,6.1 5.75,7.15 5.4,7.45 L 4.9,8.15 4.5,8.95 4.25,9.75 3.95,9.5 Q 2.9,8.7 2.7,7.55 L 3.35,6.95 Q 5.15,5.45 6.5,4.55 H 6.55 L 6.6,4.45 6.5,4.55 5.35,4 Q 6.05,3.6 6.85,3.45 L 6.8,3.4 Q 6.35,3.05 5,3.05 1.95,3.05 0.55,4.45 L 0.2,4.4 0.45,3.9 1.75,1.9 V 1.85 1.6 L 1.9,1.5 3.25,0.85 4.5,0.35 q 1.1,-0.55 2,-0.55 l 1.4,0.25 q 1.2,0 4.75,1.05 l 3.55,1 0.75,-0.2 2.6,1.75 1.8,1.75"
           fill="#000000"
           fill-opacity="0.498039"
           fill-rule="evenodd"
           stroke="none"
           id="path130" />
      </g>
    </g>
    <g
       id="use15"
       transform="matrix(0.3647,0.9594,-1.0477,0.4394,108.24998,37.34998)">
      <g
         id="use130">
        <path
           d="M 41.7,6.65 40.45,6.4 39.8,5.95 39.4,5.15 Q 38.7,3.65 38.7,2.55 L 38.8,1.7 40.3,1.6 q 2.8,0.25 2.7,0.8 -0.25,0.7 0.15,1.85 l 0.45,1.5 -0.5,0.6 -1.4,0.3"
           fill="#000000"
           fill-rule="evenodd"
           stroke="none"
           id="path131" />
        <path
           d="M 41.7,6.65 40.45,6.4 39.8,5.95 39.4,5.15 Q 38.7,3.65 38.7,2.55 L 38.8,1.7 40.3,1.6 q 2.8,0.25 2.7,0.8 -0.25,0.7 0.15,1.85 l 0.45,1.5 -0.5,0.6 z"
           ffdec:has-small-stroke="true"
           ffdec:original-stroke-width="0.5"
           fill="none"
           stroke="#000000"
           stroke-linecap="round"
           stroke-linejoin="round"
           stroke-width="0.908518"
           id="path132" />
        <path
           d="M 40.45,4.4 Q 20.1,13.5 -0.35,16.9 l -1.2,-4.3 Q 19,12 38.65,0.85 l 1.8,3.55"
           fill="#000000"
           fill-rule="evenodd"
           stroke="none"
           id="path133" />
        <path
           d="M 40.45,4.4 Q 20.1,13.5 -0.35,16.9 l -1.2,-4.3 Q 19,12 38.65,0.85 Z"
           ffdec:has-small-stroke="true"
           ffdec:original-stroke-width="0.5"
           fill="none"
           stroke="#000000"
           stroke-linecap="round"
           stroke-linejoin="round"
           stroke-width="0.908518"
           id="path134" />
        <path
           d="M 42.2,6.6 Q 20.75,14.75 -0.5,17.15 l -1.05,-4.4 Q 19.7,13.2 40.5,3 l 1.7,3.6"
           fill="#000000"
           fill-rule="evenodd"
           stroke="none"
           id="path135" />
        <path
           d="M 42.2,6.6 Q 20.75,14.75 -0.5,17.15 l -1.05,-4.4 Q 19.7,13.2 40.5,3 Z"
           ffdec:has-small-stroke="true"
           ffdec:original-stroke-width="0.5"
           fill="none"
           stroke="#000000"
           stroke-linecap="round"
           stroke-linejoin="round"
           stroke-width="0.908518"
           id="path136" />
      </g>
    </g>
    <g
       id="use16"
       transform="matrix(-0.1266,-1.1289,1.1289,-0.1266,119.70003,80.849955)">
      <g
         id="use136">
        <path
           d="M 3.7,1.6 3.65,0.1 H 4 L 4.8,0.05 5.5,0.55 5.55,3.1 q 0,4 -0.45,6.8 -0.65,3.85 -2.2,7.35 L 1.95,16.75 0.3,15.85 0,15.65 0.3,15.05 1.95,11.2 Q 3.7,6.3 3.7,1.6"
           fill="#000000"
           fill-rule="evenodd"
           stroke="none"
           id="path137" />
        <path
           d="M 3.7,1.6 3.65,0.1 H 4 L 4.8,0.05 5.5,0.55 5.55,3.1 q 0,4 -0.45,6.8 -0.65,3.85 -2.2,7.35 L 1.95,16.75 0.3,15.85 0,15.65 0.3,15.05 1.95,11.2 Q 3.7,6.3 3.7,1.6 Z"
           ffdec:has-small-stroke="true"
           ffdec:original-stroke-width="0.5"
           fill="none"
           stroke="#000000"
           stroke-linecap="round"
           stroke-linejoin="round"
           stroke-width="0.880304"
           id="path138" />
      </g>
    </g>
    <g
       id="use17"
       transform="matrix(0.3458,-1.0821,1.0821,0.3458,118.40002,80.950035)">
      <g
         id="use138">
        <path
           d="M 0,15 0.2,14.85 Q 3.85,13.9 2.4,8.6 0.65,4.25 3.75,0.55 L 5.15,1.6 Q 2.65,4.5 4.7,9.2 6.8,15.95 2,17.4 H 1.9 L 0,15"
           fill="#000000"
           fill-rule="evenodd"
           stroke="none"
           id="path139" />
        <path
           d="M 0.2,14.85 Q 3.85,13.9 2.4,8.6 0.65,4.25 3.75,0.55 L 5.15,1.6 Q 2.65,4.5 4.7,9.2 6.8,15.95 2,17.4 H 1.9 L 0,15"
           ffdec:has-small-stroke="true"
           ffdec:original-stroke-width="0.5"
           fill="none"
           stroke="#000000"
           stroke-linecap="round"
           stroke-linejoin="round"
           stroke-width="0.880293"
           id="path140" />
      </g>
    </g>
    <g
       id="use18">
      <path
         d="m 13.05,132.3 q 9.05,0 9.05,9.25 v 13.85 q 0,3.05 -3,3.05 -3,0 -3,-3.1 v -13.9 q 0,-3.1 -3.05,-3.1 H 6 v 17 Q 6,158.4 2.95,158.4 0,158.4 0,155.35 V 135.3 q 0,-2.95 3,-2.95 l 10.05,-0.05"
         fill="#ffffff"
         fill-rule="evenodd"
         stroke="none"
         id="path141" />
      <path
         d="m 34.15,135.3 v 20.05 q 0,3.05 -2.95,3.05 -3.05,0 -3.05,-3.05 v -17 q -3.05,0 -3,-2.9 0,-3.05 3,-3.15 h 3 q 3,0 3,3"
         fill="#ffffff"
         fill-rule="evenodd"
         stroke="none"
         id="path142" />
      <path
         d="m 51.3,132.3 q 9.05,0 9.05,9.25 v 13.85 q 0,3.05 -3,3.05 -3.05,0 -3.05,-3.1 v -13.9 q 0,-3.1 -3.05,-3.1 h -7 v 17 q 0,3.05 -3.05,3.05 -3,0 -3,-3.05 V 135.3 q 0,-2.95 3,-2.95 l 10.1,-0.05"
         fill="#ffffff"
         fill-rule="evenodd"
         stroke="none"
         id="path143" />
      <path
         d="m 73.45,135.3 v 21.9 q 0,9.2 -9.05,9.2 h -2.05 q -3,0 -3,-2.95 0,-3.05 2.95,-3.05 h 2.05 q 3.1,0 3.1,-3.1 v -19 q -3.1,-0.05 -3.1,-3 0,-3 3.15,-3 h 2.95 q 3,0 3,3"
         fill="#ffffff"
         fill-rule="evenodd"
         stroke="none"
         id="path144" />
      <path
         d="m 77.4,155.4 v -13.85 q 0,-9.25 9,-9.25 l 10,0.05 q 3.05,0 3.05,2.95 v 20.05 q 0,3.1 -2.95,3.1 -3.1,0 -3.1,-3.1 v -5 h -9.95 l -0.05,5 q 0,3.1 -3,3.1 -3,0 -3,-3.05 m 16,-17.05 h -6.9 q -3.1,0 -3.1,3.1 v 2.85 h 10 v -5.95"
         fill="#ffffff"
         fill-rule="evenodd"
         stroke="none"
         id="path145" />
      <path
         d="m 113.25,127.3 v 28 q -0.05,3.1 -3.05,3.15 -2.95,0 -2.95,-3.1 V 127.2 q 0,-2.95 3,-2.95 3,0 3,3.05"
         fill="#ff0000"
         fill-rule="evenodd"
         stroke="none"
         id="path146" />
      <path
         d="m 120.4,142 8.65,10.25 q 1.15,1 1.15,3.2 -0.05,2.8 -3.1,2.8 -2.1,0.1 -2.95,-1.45 L 117.1,148 q -1.35,-0.05 -1.7,-0.8 -0.25,-0.5 -0.3,-2.3 0,-2.95 2.95,-2.95 l 2.35,0.05"
         fill="#ff0000"
         fill-rule="evenodd"
         stroke="none"
         id="path147" />
      <path
         d="m 129.05,138 -8.25,10 -3.35,0.05 q -2.95,0 -2.95,-2.95 0.1,-3 3,-3.1 l 6.65,-8.55 q 0.8,-1.45 2.95,-1.45 3.05,0 3.1,2.8 0,2.2 -1.15,3.2"
         fill="#ff0000"
         fill-rule="evenodd"
         stroke="none"
         id="path148" />
      <path
         d="m 142.85,135.3 v 20.05 q 0,3.05 -2.95,3.05 -3.05,0 -3.05,-3.05 v -17 q -3.05,0 -3,-2.9 0,-3.05 3,-3.15 h 3 q 3,0 3,3"
         fill="#ff0000"
         fill-rule="evenodd"
         stroke="none"
         id="path149" />
      <path
         d="m 167,135.35 v 13.9 q 0,3.1 3.05,3.1 H 175 v -17 q 0,-3.05 3.05,-3.05 3,0 3,3.05 v 20.05 q 0,3 -3.1,3.05 l -22,-0.05 q -9.05,0 -9.05,-9.25 V 135.3 q 0,-3 3,-3 3.05,0 3.05,3.05 v 13.9 q 0,3.1 3.05,3.1 h 5 l -0.05,-17.05 q 0,-3 3,-3 3.05,0 3.05,3.05"
         fill="#ff0000"
         fill-rule="evenodd"
         stroke="none"
         id="path150" />
      <path
         d="m 194.15,135.3 v 20.05 q 0,3.05 -3,3.05 -3.05,0 -3.05,-3.05 v -17 q -3.05,0 -3,-2.9 0,-3.05 3,-3.15 h 3 q 3.05,0 3.05,3"
         fill="#ff0000"
         fill-rule="evenodd"
         stroke="none"
         id="path151" />
      <path
         d="m 30.55,122.85 1.45,0.4 q 0.75,0.4 1.1,1.1 0.4,0.7 0.4,1.5 0,0.75 -0.4,1.45 l -1.1,1.15 q -0.65,0.35 -1.45,0.35 l -1.5,-0.35 -1.1,-1.15 q -0.4,-0.6 -0.4,-1.45 0,-0.9 0.4,-1.5 0.35,-0.7 1.1,-1.1 0.8,-0.4 1.5,-0.4"
         fill="#ff0000"
         fill-rule="evenodd"
         stroke="none"
         id="path152" />
      <path
         d="m 69.85,122.85 q 0.75,0 1.45,0.4 l 1.15,1.1 q 0.4,0.7 0.4,1.5 0,0.75 -0.4,1.45 l -1.1,1.15 -1.5,0.35 -1.5,-0.35 -1.1,-1.15 q -0.35,-0.65 -0.35,-1.45 0,-0.9 0.4,-1.5 0.35,-0.75 1.1,-1.1 0.7,-0.4 1.45,-0.4"
         fill="#ff0000"
         fill-rule="evenodd"
         stroke="none"
         id="path153" />
      <path
         d="m 137.75,123.25 q 0.7,-0.4 1.45,-0.4 l 1.5,0.4 1.1,1.1 q 0.4,0.7 0.4,1.5 0,0.75 -0.4,1.45 l -1.1,1.15 -1.5,0.35 -1.45,-0.35 -1.1,-1.15 q -0.4,-0.6 -0.4,-1.45 0,-0.9 0.4,-1.5 0.35,-0.75 1.1,-1.1"
         fill="#ffffff"
         fill-rule="evenodd"
         stroke="none"
         id="path154" />
      <path
         d="m 190.5,122.85 q 0.65,0 1.45,0.4 0.75,0.4 1.1,1.1 0.4,0.7 0.4,1.5 0,0.85 -0.4,1.45 l -1.1,1.15 -1.45,0.35 -1.5,-0.35 q -0.8,-0.5 -1.1,-1.15 -0.4,-0.7 -0.4,-1.45 0,-0.8 0.4,-1.5 0.35,-0.7 1.1,-1.1 l 1.5,-0.4"
         fill="#ffffff"
         fill-rule="evenodd"
         stroke="none"
         id="path155" />
    </g>
    <clipPath
       id="clipPath0">
      <path
         d="M 93.25,0 91.82,0.02 90.4,0.06 89,0.14 87.61,0.25 86.23,0.4 84.86,0.57 83.51,0.78 82.17,1.02 80.85,1.29 79.53,1.59 78.24,1.92 76.95,2.29 75.68,2.68 74.42,3.11 73.17,3.57 71.94,4.06 70.72,4.59 69.51,5.14 68.32,5.73 67.14,6.35 65.97,7 l -1.15,0.68 -1.15,0.71 -1.12,0.75 -1.12,0.78 -1.1,0.81 -1.09,0.84 -1.07,0.87 -1.06,0.91 -1.05,0.93 -1.04,0.97 -1.02,1 -1,1.02 -0.97,1.04 -0.93,1.05 -0.91,1.06 -0.87,1.07 -0.84,1.09 -0.81,1.1 -0.78,1.12 -0.75,1.12 -0.71,1.15 -0.68,1.15 -0.65,1.17 -0.62,1.18 -0.59,1.19 -0.55,1.21 -0.53,1.22 -0.49,1.23 -0.46,1.25 -0.43,1.26 -0.39,1.27 -0.37,1.29 -0.33,1.29 -0.3,1.32 -0.27,1.32 -0.24,1.34 -0.21,1.35 -0.17,1.37 -0.15,1.38 -0.11,1.39 -0.08,1.4 -0.04,1.42 -0.02,1.43 0.02,1.43 0.04,1.41 0.08,1.4 0.11,1.39 0.15,1.38 0.17,1.36 0.21,1.35 0.24,1.34 0.27,1.32 0.3,1.31 0.33,1.3 0.37,1.28 0.39,1.27 0.43,1.26 0.46,1.24 0.49,1.24 0.53,1.21 0.55,1.21 0.59,1.19 0.62,1.18 0.65,1.17 0.68,1.15 0.71,1.14 0.75,1.13 0.78,1.11 0.81,1.1 0.84,1.09 0.87,1.07 0.91,1.06 0.93,1.05 0.97,1.04 1,1.02 1.02,1 1.04,0.97 1.05,0.93 1.06,0.91 1.07,0.87 1.09,0.84 1.1,0.81 1.12,0.78 1.12,0.75 1.15,0.71 1.15,0.68 1.17,0.65 1.18,0.62 1.19,0.59 1.21,0.55 1.22,0.53 1.23,0.49 1.25,0.46 1.26,0.43 1.27,0.39 1.29,0.37 1.29,0.33 1.32,0.3 1.32,0.27 1.34,0.24 1.35,0.21 1.37,0.17 1.38,0.15 1.39,0.11 1.4,0.08 1.42,0.04 1.43,0.02 1.43,-0.02 1.42,-0.04 1.4,-0.08 1.39,-0.11 1.38,-0.15 1.37,-0.17 1.35,-0.21 1.34,-0.24 1.32,-0.27 1.32,-0.3 1.29,-0.33 1.29,-0.37 1.27,-0.39 1.26,-0.43 1.25,-0.46 1.23,-0.49 1.22,-0.53 1.21,-0.55 1.19,-0.59 1.18,-0.62 1.17,-0.65 1.15,-0.68 1.15,-0.71 1.12,-0.75 1.12,-0.78 1.1,-0.81 1.09,-0.84 1.07,-0.87 1.06,-0.91 1.05,-0.93 1.04,-0.97 1.02,-1 1,-1.02 0.97,-1.04 0.93,-1.05 0.91,-1.06 0.87,-1.07 0.84,-1.09 0.81,-1.1 0.78,-1.11 0.75,-1.13 0.71,-1.14 0.68,-1.15 0.65,-1.17 0.62,-1.18 0.59,-1.19 0.55,-1.21 0.53,-1.21 0.49,-1.24 0.46,-1.24 0.43,-1.26 0.39,-1.27 0.37,-1.28 0.33,-1.3 0.3,-1.31 0.27,-1.32 0.24,-1.34 0.21,-1.35 0.17,-1.36 0.15,-1.38 0.11,-1.39 0.08,-1.4 0.04,-1.41 0.02,-1.43 -0.02,-1.43 -0.04,-1.42 -0.08,-1.4 -0.11,-1.39 -0.15,-1.38 -0.17,-1.37 -0.21,-1.35 -0.24,-1.34 -0.27,-1.32 -0.3,-1.32 -0.33,-1.29 -0.37,-1.29 -0.39,-1.27 -0.43,-1.26 -0.46,-1.25 -0.49,-1.23 -0.53,-1.22 -0.55,-1.21 -0.59,-1.19 -0.62,-1.18 -0.65,-1.17 -0.68,-1.15 -0.71,-1.15 -0.75,-1.12 -0.78,-1.12 -0.81,-1.1 -0.84,-1.09 -0.87,-1.07 -0.91,-1.06 -0.93,-1.05 -0.97,-1.04 -1,-1.02 -1.02,-1 -1.04,-0.97 -1.05,-0.93 -1.06,-0.91 -1.07,-0.87 -1.09,-0.84 -1.1,-0.81 L 123.95,9.14 122.83,8.39 121.68,7.68 120.53,7 119.36,6.35 118.18,5.73 116.99,5.14 115.78,4.59 114.56,4.06 113.33,3.57 112.08,3.11 110.82,2.68 109.55,2.29 108.26,1.92 106.97,1.59 105.65,1.29 104.33,1.02 102.99,0.78 101.64,0.57 100.27,0.4 98.89,0.25 97.5,0.14 96.1,0.06 94.68,0.02 Z m -62.7,122.85 -0.18,0.01 -0.18,0.02 -0.18,0.03 -0.18,0.04 -0.19,0.06 -0.2,0.06 -0.19,0.09 -0.2,0.09 -0.18,0.1 -0.17,0.12 -0.16,0.12 -0.14,0.13 -0.13,0.15 -0.12,0.15 -0.11,0.16 -0.09,0.17 -0.09,0.15 -0.09,0.17 -0.06,0.17 -0.06,0.19 -0.04,0.19 -0.03,0.2 -0.02,0.21 -0.01,0.22 0.01,0.21 0.02,0.2 0.03,0.19 0.04,0.19 0.06,0.17 0.06,0.17 0.09,0.17 0.09,0.15 1.1,1.15 1.5,0.35 0.2,-0.01 0.19,-0.01 0.19,-0.03 0.18,-0.04 0.18,-0.05 0.18,-0.06 0.17,-0.07 0.16,-0.08 1.1,-1.15 0.09,-0.18 0.09,-0.17 0.06,-0.18 0.06,-0.18 0.04,-0.18 0.03,-0.19 0.02,-0.18 0.01,-0.19 -0.01,-0.2 -0.02,-0.19 -0.03,-0.2 -0.04,-0.19 -0.06,-0.18 -0.06,-0.18 -0.09,-0.18 -0.09,-0.18 -0.09,-0.17 -0.11,-0.16 -0.12,-0.15 -0.13,-0.15 -0.14,-0.13 -0.16,-0.12 -0.17,-0.12 -0.18,-0.1 z m 39.3,0 -0.19,0.01 -0.18,0.02 -0.19,0.03 -0.18,0.04 -0.18,0.06 -0.18,0.06 -0.17,0.09 -0.18,0.09 -0.18,0.09 -0.17,0.11 -0.16,0.12 -0.14,0.13 -0.13,0.14 -0.12,0.16 -0.11,0.17 -0.09,0.18 -0.09,0.15 -0.09,0.17 -0.06,0.17 -0.06,0.19 -0.04,0.19 -0.03,0.2 -0.02,0.21 -0.01,0.22 0.01,0.2 0.01,0.19 0.03,0.19 0.04,0.18 0.05,0.18 0.06,0.18 0.07,0.17 0.08,0.16 1.1,1.15 1.5,0.35 1.5,-0.35 1.1,-1.15 0.09,-0.18 0.08,-0.17 0.07,-0.18 0.06,-0.18 0.04,-0.18 0.03,-0.19 0.02,-0.18 0.01,-0.19 -0.01,-0.2 -0.02,-0.19 -0.03,-0.2 -0.04,-0.19 -0.06,-0.18 -0.07,-0.18 -0.08,-0.18 -0.09,-0.18 -1.15,-1.1 -0.18,-0.09 -0.17,-0.09 -0.18,-0.06 -0.18,-0.06 -0.18,-0.04 -0.19,-0.03 -0.18,-0.02 z m 69.35,0 -0.19,0.01 -0.18,0.02 -0.19,0.03 -0.18,0.04 -0.18,0.06 -0.18,0.06 -0.17,0.09 -0.18,0.09 -0.18,0.09 -0.17,0.11 -0.16,0.12 -0.14,0.13 -0.13,0.14 -0.12,0.16 -0.11,0.17 -0.09,0.18 -0.09,0.15 -0.08,0.17 -0.07,0.17 -0.06,0.19 -0.04,0.19 -0.04,0.2 -0.01,0.21 -0.01,0.22 0.01,0.21 0.01,0.2 0.04,0.19 0.04,0.19 0.06,0.17 0.07,0.17 0.08,0.17 0.09,0.15 1.1,1.15 1.45,0.35 1.5,-0.35 1.1,-1.15 0.09,-0.18 0.09,-0.17 0.06,-0.18 0.06,-0.18 0.04,-0.18 0.04,-0.19 0.01,-0.18 0.01,-0.19 -0.01,-0.2 -0.01,-0.19 -0.04,-0.2 -0.04,-0.19 -0.06,-0.18 -0.06,-0.18 -0.09,-0.18 -0.09,-0.18 -1.1,-1.1 z m 51.3,0 -1.5,0.4 -0.18,0.1 -0.17,0.12 -0.16,0.12 -0.14,0.13 -0.13,0.15 -0.12,0.15 -0.11,0.16 -0.09,0.17 -0.09,0.18 -0.08,0.18 -0.07,0.18 -0.06,0.18 -0.04,0.19 -0.04,0.2 -0.01,0.19 -0.01,0.2 0.01,0.19 0.01,0.18 0.04,0.19 0.04,0.18 0.06,0.18 0.07,0.18 0.08,0.17 0.09,0.18 0.08,0.16 0.1,0.16 0.12,0.15 0.12,0.14 0.15,0.14 0.16,0.14 0.18,0.13 0.19,0.13 1.5,0.35 1.45,-0.35 1.1,-1.15 0.09,-0.15 0.09,-0.17 0.06,-0.17 0.06,-0.17 0.04,-0.19 0.04,-0.19 0.01,-0.2 0.01,-0.21 -0.01,-0.2 -0.01,-0.19 -0.04,-0.2 -0.04,-0.19 -0.06,-0.18 -0.06,-0.18 -0.09,-0.18 -0.09,-0.18 -0.09,-0.17 -0.11,-0.16 -0.12,-0.15 -0.13,-0.15 -0.14,-0.13 -0.16,-0.12 -0.17,-0.12 -0.18,-0.1 -0.39,-0.18 -0.19,-0.06 -0.18,-0.06 -0.18,-0.04 -0.18,-0.03 -0.17,-0.02 z m -97.1,15.5 v 5.95 h -10 v -2.85 l 0.01,-0.38 0.04,-0.35 0.06,-0.32 0.08,-0.31 0.11,-0.27 0.14,-0.26 0.15,-0.23 0.19,-0.21 0.2,-0.18 0.23,-0.15 0.26,-0.14 0.27,-0.11 0.31,-0.08 0.32,-0.06 0.35,-0.04 0.38,-0.01 z m 33.7,-6.35 -0.26,0.01 -0.26,0.01 -0.24,0.03 -0.23,0.04 -0.22,0.05 -0.21,0.06 -0.2,0.08 -0.19,0.08 -0.18,0.1 -0.17,0.11 -0.16,0.12 -0.15,0.13 -0.13,0.14 -0.13,0.15 -0.11,0.16 -0.11,0.18 -6.6,8.55 -0.3,0.05 -0.32,0.04 -0.3,0.05 -0.28,0.08 -0.27,0.1 -0.24,0.11 -0.22,0.14 -0.2,0.16 -0.18,0.18 -0.16,0.2 -0.15,0.23 -0.12,0.24 -0.1,0.26 -0.08,0.28 -0.07,0.31 -0.04,0.32 -0.02,0.35 0.01,0.34 0.03,0.32 0.05,0.3 0.08,0.27 0.09,0.26 0.11,0.24 0.14,0.21 0.15,0.2 0.18,0.17 0.2,0.15 0.21,0.14 0.24,0.11 0.26,0.09 0.28,0.07 0.3,0.05 0.32,0.03 7,8.75 0.1,0.18 0.12,0.16 0.12,0.15 0.13,0.15 0.14,0.13 0.14,0.12 0.16,0.11 0.16,0.09 0.18,0.09 0.18,0.07 0.19,0.06 0.2,0.06 0.21,0.03 0.21,0.03 0.23,0.02 0.23,0.01 0.25,-0.01 0.37,-0.01 0.35,-0.03 0.32,-0.06 0.3,-0.08 0.27,-0.09 0.26,-0.12 0.22,-0.15 0.21,-0.16 0.18,-0.19 0.16,-0.2 0.14,-0.23 0.11,-0.25 0.09,-0.28 0.06,-0.29 0.04,-0.32 0.02,-0.34 -0.02,-0.53 -0.05,-0.49 -0.04,-0.24 -0.05,-0.22 -0.06,-0.22 -0.07,-0.2 -0.07,-0.2 -0.09,-0.18 -0.09,-0.18 -0.11,-0.17 -0.11,-0.15 -0.12,-0.15 -0.13,-0.14 -0.14,-0.13 -5.95,-7.05 5.95,-7.2 0.14,-0.13 0.13,-0.14 0.12,-0.15 0.11,-0.15 0.11,-0.17 0.09,-0.18 0.09,-0.18 0.07,-0.2 0.07,-0.2 0.06,-0.22 0.05,-0.22 0.04,-0.24 0.05,-0.49 0.02,-0.53 -0.02,-0.34 -0.04,-0.32 -0.06,-0.29 -0.09,-0.28 -0.11,-0.25 -0.14,-0.23 -0.16,-0.2 -0.18,-0.19 -0.21,-0.16 -0.22,-0.15 -0.26,-0.12 -0.27,-0.09 -0.3,-0.08 -0.32,-0.06 -0.35,-0.03 z m -98.95,0.3 -0.36,0.02 -0.34,0.05 -0.32,0.07 -0.29,0.09 -0.27,0.12 -0.25,0.14 -0.22,0.16 -0.2,0.19 -0.18,0.21 -0.15,0.23 -0.13,0.25 -0.1,0.28 -0.08,0.3 -0.06,0.32 -0.04,0.35 -0.01,0.37 0.01,0.35 0.03,0.33 0.05,0.31 0.08,0.28 0.1,0.26 0.13,0.24 0.15,0.21 0.18,0.19 0.19,0.17 0.23,0.15 0.25,0.13 0.27,0.1 0.3,0.08 0.32,0.05 0.34,0.04 0.37,0.01 v 17 l 0.01,0.37 0.04,0.34 0.06,0.33 0.08,0.29 0.11,0.28 0.13,0.25 0.15,0.22 0.18,0.21 0.21,0.18 0.22,0.15 0.25,0.13 0.28,0.11 0.29,0.08 0.33,0.06 0.34,0.04 0.37,0.01 0.36,-0.01 0.33,-0.04 0.31,-0.06 0.29,-0.08 0.27,-0.11 0.24,-0.13 0.22,-0.15 0.19,-0.18 0.18,-0.21 0.15,-0.22 0.12,-0.25 0.11,-0.28 0.08,-0.29 0.05,-0.33 0.04,-0.34 0.01,-0.37 V 135.3 l -0.01,-0.36 -0.04,-0.34 -0.06,-0.32 -0.08,-0.29 -0.1,-0.27 -0.13,-0.25 -0.15,-0.22 -0.18,-0.2 -0.2,-0.18 -0.22,-0.15 -0.25,-0.13 -0.27,-0.1 -0.29,-0.08 -0.32,-0.06 -0.34,-0.04 -0.36,-0.01 z m 108.7,0 -0.36,0.02 -0.34,0.05 -0.32,0.07 -0.29,0.09 -0.27,0.12 -0.25,0.14 -0.22,0.16 -0.2,0.19 -0.18,0.21 -0.15,0.23 -0.13,0.25 -0.1,0.28 -0.08,0.3 -0.06,0.32 -0.04,0.35 -0.01,0.37 0.01,0.35 0.03,0.33 0.05,0.31 0.08,0.28 0.1,0.26 0.13,0.24 0.15,0.21 0.17,0.19 0.2,0.17 0.23,0.15 0.25,0.13 0.27,0.1 0.3,0.08 0.32,0.05 0.34,0.04 0.37,0.01 v 17 l 0.01,0.37 0.04,0.34 0.06,0.33 0.08,0.29 0.11,0.28 0.13,0.25 0.15,0.22 0.18,0.21 0.21,0.18 0.22,0.15 0.25,0.13 0.28,0.11 0.29,0.08 0.33,0.06 0.34,0.04 0.37,0.01 0.36,-0.01 0.33,-0.04 0.31,-0.06 0.29,-0.08 0.27,-0.11 0.24,-0.13 0.22,-0.15 0.19,-0.18 0.18,-0.21 0.15,-0.22 0.12,-0.25 0.11,-0.28 0.08,-0.29 0.05,-0.33 0.04,-0.34 0.01,-0.37 V 135.3 l -0.01,-0.36 -0.04,-0.34 -0.06,-0.32 -0.08,-0.29 -0.1,-0.27 -0.13,-0.25 -0.15,-0.22 -0.18,-0.2 -0.2,-0.18 -0.22,-0.15 -0.25,-0.13 -0.27,-0.1 -0.29,-0.08 -0.32,-0.06 -0.34,-0.04 -0.36,-0.01 z m 51.25,0 -0.36,0.02 -0.34,0.05 -0.32,0.07 -0.29,0.09 -0.27,0.12 -0.25,0.14 -0.22,0.16 -0.2,0.19 -0.18,0.21 -0.15,0.23 -0.13,0.25 -0.1,0.28 -0.08,0.3 -0.06,0.32 -0.04,0.35 -0.01,0.37 0.01,0.35 0.03,0.33 0.05,0.31 0.08,0.28 0.1,0.26 0.13,0.24 0.15,0.21 0.17,0.19 0.2,0.17 0.23,0.15 0.25,0.13 0.27,0.1 0.3,0.08 0.32,0.05 0.34,0.04 0.37,0.01 v 17 l 0.01,0.37 0.04,0.34 0.06,0.33 0.08,0.29 0.11,0.28 0.13,0.25 0.15,0.22 0.18,0.21 0.21,0.18 0.22,0.15 0.25,0.13 0.28,0.11 0.29,0.08 0.33,0.06 0.34,0.04 0.37,0.01 0.36,-0.01 0.34,-0.04 0.32,-0.06 0.29,-0.08 0.27,-0.11 0.25,-0.13 0.22,-0.15 0.2,-0.18 0.18,-0.21 0.15,-0.22 0.13,-0.25 0.1,-0.28 0.08,-0.29 0.06,-0.33 0.04,-0.34 0.01,-0.37 V 135.3 l -0.01,-0.36 -0.04,-0.34 -0.06,-0.32 -0.08,-0.29 -0.11,-0.27 -0.13,-0.25 -0.15,-0.22 -0.18,-0.2 -0.21,-0.18 -0.22,-0.15 -0.25,-0.13 -0.28,-0.1 -0.29,-0.08 -0.33,-0.06 -0.34,-0.04 -0.37,-0.01 z m -175.05,0 -10.05,0.05 -0.36,0.01 -0.34,0.04 -0.32,0.05 -0.29,0.08 -0.27,0.11 -0.25,0.12 -0.22,0.15 -0.2,0.18 -0.18,0.19 -0.15,0.22 -0.13,0.24 -0.1,0.27 -0.08,0.29 -0.06,0.31 -0.04,0.33 L 0,135.3 v 20.05 l 0.01,0.37 0.04,0.34 0.05,0.33 0.08,0.29 0.11,0.28 0.12,0.25 0.15,0.22 0.18,0.21 0.19,0.18 0.22,0.15 0.24,0.13 0.27,0.11 0.29,0.08 0.31,0.06 0.33,0.04 0.36,0.01 0.37,-0.01 0.34,-0.04 0.33,-0.06 0.29,-0.08 0.28,-0.11 0.25,-0.13 0.22,-0.15 0.21,-0.18 0.18,-0.21 0.15,-0.22 0.13,-0.25 0.11,-0.28 0.08,-0.29 0.06,-0.33 0.04,-0.34 0.01,-0.37 v -17 h 7.05 l 0.37,0.01 0.34,0.04 0.33,0.06 0.29,0.08 0.28,0.11 0.25,0.14 0.22,0.15 0.21,0.18 0.18,0.21 0.15,0.23 0.13,0.26 0.11,0.27 0.08,0.31 0.06,0.32 0.04,0.35 0.01,0.38 v 13.9 l 0.01,0.38 0.04,0.35 0.06,0.32 0.08,0.31 0.1,0.27 0.13,0.26 0.15,0.23 0.18,0.21 0.2,0.18 0.22,0.15 0.25,0.14 0.27,0.11 0.29,0.08 0.32,0.06 0.34,0.04 0.36,0.01 0.36,-0.01 0.34,-0.04 0.32,-0.06 0.29,-0.08 0.27,-0.11 0.25,-0.13 0.22,-0.15 0.2,-0.18 0.18,-0.21 0.15,-0.22 0.13,-0.25 0.1,-0.28 0.08,-0.29 0.06,-0.33 0.04,-0.34 0.01,-0.37 v -13.85 l -0.01,-0.57 -0.03,-0.55 -0.04,-0.53 -0.06,-0.52 -0.08,-0.49 -0.1,-0.48 -0.11,-0.46 -0.14,-0.45 -0.15,-0.42 -0.16,-0.41 -0.19,-0.39 -0.2,-0.37 -0.22,-0.35 -0.24,-0.33 -0.26,-0.32 -0.27,-0.3 -0.29,-0.28 -0.31,-0.26 -0.33,-0.24 -0.35,-0.23 -0.36,-0.21 -0.38,-0.19 -0.4,-0.17 -0.41,-0.15 -0.43,-0.14 -0.45,-0.11 -0.47,-0.1 -0.49,-0.09 -0.5,-0.06 -0.52,-0.04 -0.54,-0.03 z m 38.25,0 -10.1,0.05 -0.36,0.01 -0.34,0.04 -0.32,0.05 -0.29,0.08 -0.27,0.11 -0.25,0.12 -0.22,0.15 -0.2,0.18 -0.18,0.19 -0.15,0.22 -0.13,0.24 -0.1,0.27 -0.08,0.29 -0.06,0.31 -0.04,0.33 -0.01,0.36 v 20.05 l 0.01,0.37 0.04,0.34 0.06,0.33 0.08,0.29 0.1,0.28 0.13,0.25 0.15,0.22 0.18,0.21 0.2,0.18 0.22,0.15 0.25,0.13 0.27,0.11 0.29,0.08 0.32,0.06 0.34,0.04 0.36,0.01 0.37,-0.01 0.34,-0.04 0.33,-0.06 0.29,-0.08 0.28,-0.11 0.25,-0.13 0.22,-0.15 0.21,-0.18 0.18,-0.21 0.15,-0.22 0.13,-0.25 0.11,-0.28 0.08,-0.29 0.06,-0.33 0.04,-0.34 0.01,-0.37 v -17 h 7 l 0.37,0.01 0.34,0.04 0.33,0.06 0.29,0.08 0.28,0.11 0.25,0.14 0.22,0.15 0.21,0.18 0.18,0.21 0.15,0.23 0.13,0.26 0.11,0.27 0.08,0.31 0.06,0.32 0.04,0.35 0.01,0.38 v 13.9 l 0.01,0.38 0.04,0.35 0.06,0.32 0.08,0.31 0.11,0.27 0.13,0.26 0.15,0.23 0.18,0.21 0.21,0.18 0.22,0.15 0.25,0.14 0.28,0.11 0.29,0.08 0.33,0.06 0.34,0.04 0.37,0.01 0.36,-0.01 0.34,-0.04 0.32,-0.06 0.29,-0.08 0.27,-0.11 0.25,-0.13 0.22,-0.15 0.2,-0.18 0.18,-0.21 0.15,-0.22 0.13,-0.25 0.1,-0.28 0.08,-0.29 0.06,-0.33 0.04,-0.34 0.01,-0.37 v -13.85 l -0.01,-0.57 -0.03,-0.55 -0.04,-0.53 -0.06,-0.52 -0.08,-0.49 -0.1,-0.48 -0.11,-0.46 -0.14,-0.45 -0.15,-0.42 -0.16,-0.41 -0.19,-0.39 -0.2,-0.37 -0.22,-0.35 -0.24,-0.33 -0.26,-0.32 -0.27,-0.3 -0.29,-0.28 -0.31,-0.26 -0.33,-0.24 -0.35,-0.23 -0.36,-0.21 -0.38,-0.19 -0.4,-0.17 -0.41,-0.15 -0.43,-0.14 -0.45,-0.11 -0.47,-0.1 -0.49,-0.09 -0.5,-0.06 -0.52,-0.04 -0.54,-0.03 z m 35.1,0 -0.55,0.01 -0.54,0.03 -0.52,0.04 -0.5,0.06 -0.48,0.09 -0.47,0.1 -0.45,0.11 -0.43,0.14 -0.41,0.15 -0.4,0.17 -0.37,0.19 -0.36,0.21 -0.35,0.23 -0.32,0.24 -0.31,0.26 -0.29,0.28 -0.27,0.3 -0.26,0.32 -0.23,0.33 -0.22,0.35 -0.21,0.37 -0.18,0.39 -0.17,0.41 -0.15,0.42 -0.13,0.45 -0.11,0.46 -0.1,0.48 -0.08,0.49 -0.06,0.52 -0.04,0.53 -0.03,0.55 -0.01,0.57 v 13.85 l 0.01,0.37 0.04,0.34 0.06,0.33 0.08,0.29 0.1,0.28 0.13,0.25 0.15,0.22 0.18,0.21 0.2,0.18 0.22,0.15 0.25,0.13 0.27,0.11 0.29,0.08 0.32,0.06 0.34,0.04 0.36,0.01 0.36,-0.01 0.34,-0.04 0.32,-0.06 0.29,-0.08 0.27,-0.11 0.25,-0.14 0.22,-0.15 0.2,-0.18 0.18,-0.21 0.15,-0.23 0.13,-0.26 0.1,-0.27 0.08,-0.31 0.06,-0.32 0.04,-0.35 0.01,-0.38 0.05,-5 h 9.95 v 5 l 0.01,0.38 0.04,0.35 0.06,0.32 0.08,0.31 0.11,0.27 0.14,0.26 0.15,0.23 0.19,0.21 0.2,0.18 0.23,0.15 0.26,0.14 0.27,0.11 0.31,0.08 0.32,0.06 0.35,0.04 0.38,0.01 0.36,-0.01 0.33,-0.04 0.31,-0.06 0.29,-0.08 0.27,-0.11 0.24,-0.14 0.22,-0.15 0.19,-0.18 0.18,-0.21 0.15,-0.23 0.12,-0.26 0.11,-0.27 0.08,-0.31 0.05,-0.32 0.04,-0.35 0.01,-0.38 V 135.3 l -0.01,-0.36 -0.04,-0.33 -0.06,-0.31 -0.08,-0.29 -0.11,-0.27 -0.13,-0.24 -0.15,-0.22 -0.18,-0.19 -0.21,-0.18 -0.22,-0.15 -0.25,-0.12 -0.28,-0.11 -0.29,-0.08 -0.33,-0.05 -0.34,-0.04 -0.37,-0.01 z m 23.85,-8.05 -0.36,0.01 -0.34,0.04 -0.32,0.05 -0.29,0.08 -0.27,0.11 -0.25,0.12 -0.22,0.15 -0.2,0.18 -0.18,0.19 -0.15,0.22 -0.13,0.24 -0.1,0.27 -0.08,0.29 -0.06,0.31 -0.04,0.33 -0.01,0.36 v 28.15 l 0.01,0.38 0.04,0.35 0.05,0.32 0.08,0.31 0.11,0.27 0.12,0.26 0.15,0.23 0.18,0.21 0.19,0.18 0.22,0.15 0.24,0.14 0.27,0.11 0.29,0.08 0.31,0.06 0.33,0.04 0.36,0.01 0.36,-0.02 0.34,-0.04 0.32,-0.07 0.3,-0.09 0.27,-0.11 0.25,-0.14 0.22,-0.16 0.2,-0.18 0.18,-0.21 0.16,-0.23 0.13,-0.26 0.11,-0.28 0.09,-0.3 0.06,-0.33 0.04,-0.35 0.02,-0.38 v -28 l -0.01,-0.37 -0.04,-0.34 -0.06,-0.33 -0.08,-0.29 -0.1,-0.28 -0.13,-0.25 -0.15,-0.22 -0.18,-0.21 -0.2,-0.18 -0.22,-0.15 -0.25,-0.13 -0.27,-0.11 -0.29,-0.08 -0.32,-0.06 -0.34,-0.04 z m 39.65,8.05 -0.36,0.01 -0.34,0.04 -0.32,0.06 -0.29,0.08 -0.27,0.1 -0.25,0.13 -0.22,0.15 -0.2,0.18 -0.18,0.2 -0.15,0.22 -0.13,0.25 -0.1,0.27 -0.08,0.29 -0.06,0.32 -0.04,0.34 -0.01,0.36 v 13.85 l 0.01,0.57 0.03,0.55 0.04,0.53 0.06,0.52 0.08,0.49 0.1,0.48 0.11,0.46 0.14,0.45 0.15,0.42 0.16,0.41 0.19,0.39 0.2,0.37 0.22,0.35 0.24,0.33 0.26,0.32 0.27,0.3 0.29,0.28 0.31,0.26 0.33,0.24 0.35,0.23 0.36,0.21 0.38,0.19 0.4,0.17 0.41,0.15 0.43,0.14 0.45,0.11 0.47,0.1 0.49,0.09 0.5,0.06 0.52,0.04 0.54,0.03 0.56,0.01 22,0.05 0.38,-0.02 0.35,-0.04 0.32,-0.06 0.31,-0.09 0.27,-0.11 0.26,-0.13 0.23,-0.16 0.2,-0.18 0.19,-0.2 0.15,-0.22 0.14,-0.25 0.11,-0.27 0.08,-0.3 0.06,-0.32 0.04,-0.34 0.01,-0.36 v -20.05 l -0.01,-0.37 -0.04,-0.34 -0.06,-0.33 -0.08,-0.29 -0.1,-0.28 -0.13,-0.25 -0.15,-0.22 -0.18,-0.21 -0.2,-0.18 -0.22,-0.15 -0.25,-0.13 -0.27,-0.11 -0.29,-0.08 -0.32,-0.06 -0.34,-0.04 -0.36,-0.01 -0.37,0.01 -0.34,0.04 -0.33,0.06 -0.29,0.08 -0.28,0.11 -0.25,0.13 -0.22,0.15 -0.21,0.18 -0.18,0.21 -0.15,0.22 -0.13,0.25 -0.11,0.28 -0.08,0.29 -0.06,0.33 -0.04,0.34 -0.01,0.37 v 17 h -4.95 l -0.37,-0.01 -0.34,-0.04 -0.33,-0.06 -0.29,-0.08 -0.28,-0.11 -0.25,-0.14 -0.22,-0.15 -0.21,-0.19 -0.18,-0.2 -0.15,-0.23 -0.13,-0.26 -0.11,-0.27 -0.08,-0.31 -0.06,-0.32 -0.04,-0.35 -0.01,-0.38 v -13.9 l -0.01,-0.37 -0.04,-0.34 -0.06,-0.33 -0.08,-0.29 -0.11,-0.28 -0.13,-0.25 -0.15,-0.22 -0.18,-0.21 -0.21,-0.18 -0.22,-0.15 -0.25,-0.13 -0.28,-0.11 -0.29,-0.08 -0.33,-0.06 -0.34,-0.04 -0.37,-0.01 -0.36,0.01 -0.34,0.04 -0.32,0.06 -0.29,0.08 -0.27,0.1 -0.25,0.13 -0.22,0.15 -0.2,0.18 -0.18,0.2 -0.15,0.22 -0.13,0.25 -0.1,0.27 -0.08,0.29 -0.06,0.32 -0.04,0.34 -0.01,0.36 0.05,17.05 h -5 l -0.37,-0.01 -0.34,-0.04 -0.33,-0.06 -0.29,-0.08 -0.28,-0.11 -0.25,-0.14 -0.22,-0.15 -0.21,-0.19 -0.18,-0.2 -0.15,-0.23 -0.13,-0.26 -0.11,-0.27 -0.08,-0.31 -0.06,-0.32 -0.04,-0.35 -0.01,-0.38 v -13.9 l -0.01,-0.37 -0.04,-0.34 -0.06,-0.33 -0.08,-0.29 -0.11,-0.28 -0.13,-0.25 -0.15,-0.22 -0.18,-0.21 -0.21,-0.18 -0.22,-0.15 -0.25,-0.13 -0.28,-0.11 -0.29,-0.08 -0.33,-0.06 -0.34,-0.04 z m -82.4,0 -0.38,0.01 -0.36,0.04 -0.33,0.06 -0.31,0.08 -0.28,0.1 -0.26,0.13 -0.23,0.15 -0.21,0.18 -0.19,0.2 -0.16,0.22 -0.13,0.25 -0.11,0.27 -0.09,0.29 -0.06,0.32 -0.04,0.34 -0.01,0.36 0.01,0.36 0.04,0.33 0.06,0.31 0.08,0.29 0.11,0.27 0.14,0.24 0.15,0.23 0.18,0.19 0.21,0.18 0.23,0.15 0.26,0.14 0.27,0.1 0.31,0.09 0.32,0.06 0.35,0.04 0.38,0.02 v 19 l -0.01,0.38 -0.04,0.35 -0.06,0.32 -0.08,0.31 -0.11,0.27 -0.14,0.26 -0.15,0.23 -0.18,0.2 -0.21,0.19 -0.23,0.15 -0.26,0.14 -0.27,0.11 -0.31,0.08 -0.32,0.06 -0.35,0.04 -0.38,0.01 H 62.3 l -0.36,0.01 -0.33,0.04 -0.31,0.06 -0.29,0.08 -0.27,0.11 -0.24,0.13 -0.22,0.15 -0.19,0.18 -0.18,0.21 -0.15,0.22 -0.12,0.25 -0.11,0.28 -0.08,0.29 -0.05,0.33 -0.04,0.34 -0.01,0.37 0.01,0.36 0.04,0.33 0.06,0.31 0.08,0.29 0.1,0.27 0.13,0.24 0.15,0.22 0.18,0.19 0.2,0.18 0.22,0.15 0.25,0.12 0.27,0.11 0.29,0.08 0.32,0.05 0.34,0.04 0.36,0.01 h 2.05 l 0.56,-0.01 0.54,-0.03 0.52,-0.04 0.5,-0.06 0.49,-0.08 0.47,-0.1 0.45,-0.12 0.43,-0.14 0.41,-0.15 0.4,-0.17 0.38,-0.19 0.36,-0.2 0.35,-0.23 0.33,-0.24 0.31,-0.26 0.29,-0.28 0.27,-0.3 0.26,-0.31 0.24,-0.33 0.22,-0.35 0.2,-0.37 0.19,-0.39 0.16,-0.4 0.15,-0.42 0.14,-0.45 0.11,-0.45 0.1,-0.48 0.08,-0.49 0.06,-0.52 0.04,-0.53 0.03,-0.54 0.01,-0.57 v -21.9 l -0.01,-0.36 -0.04,-0.34 -0.06,-0.32 -0.08,-0.29 -0.1,-0.27 -0.13,-0.25 -0.15,-0.22 -0.18,-0.2 -0.2,-0.18 -0.22,-0.15 -0.25,-0.13 -0.27,-0.1 -0.29,-0.08 -0.32,-0.06 -0.34,-0.04 -0.36,-0.01 z"
         id="path18" />
    </clipPath>
    <g
       clip-path="url(#clipPath0)"
       id="g19">
      <g
         id="use19">
        <path
           d="m -87.1,152.9 4.45,1.05 52.75,-224.9 -4.45,-1.05 -52.75,224.9 m 51.6,12.1 4.45,1.05 L 21.7,-58.85 17.25,-59.9 -35.5,165"
           fill="#ffffff"
           fill-opacity="0.25098"
           fill-rule="evenodd"
           stroke="none"
           id="path156" />
        <path
           d="m -77.8,155.05 6.8,1.6 52.75,-224.9 -6.8,-1.6 -52.75,224.9 m 31.15,7.35 6.8,1.6 52.75,-224.9 -6.8,-1.6 -52.75,224.9"
           fill="#ffffff"
           fill-opacity="0.498039"
           fill-rule="evenodd"
           stroke="none"
           id="path157" />
        <path
           d="m -65.15,158.05 14.6,3.4 52.75,-224.9 -14.6,-3.4 -52.75,224.9"
           fill="#ffffff"
           fill-opacity="0.8"
           fill-rule="evenodd"
           stroke="none"
           id="path158" />
        <path
           d="m -87.1,152.9 52.75,-224.9 4.45,1.05 -52.75,224.9 -4.45,-1.05 52.75,-224.9 4.45,1.05 -52.75,224.9 -4.45,-1.05 m 9.3,2.15 52.75,-224.9 6.8,1.6 -52.75,224.9 -6.8,-1.6 52.75,-224.9 6.8,1.6 -52.75,224.9 -6.8,-1.6 m 12.65,3 52.75,-224.9 14.6,3.4 -52.75,224.9 -14.6,-3.4 52.75,-224.9 14.6,3.4 -52.75,224.9 -14.6,-3.4 m 18.5,4.35 52.75,-224.9 6.8,1.6 -52.75,224.9 -6.8,-1.6 52.75,-224.9 6.8,1.6 -52.75,224.9 -6.8,-1.6 m 11.15,2.6 52.75,-224.9 4.45,1.05 -52.75,224.9 -4.45,-1.05 52.75,-224.9 4.45,1.05 -52.75,224.9 z"
           ffdec:has-small-stroke="true"
           ffdec:original-stroke-width="0.0"
           fill="none"
           stroke="#000000"
           stroke-linecap="round"
           stroke-linejoin="round"
           stroke-opacity="0"
           stroke-width="1"
           id="path159" />
      </g>
    </g>
  </g>
  <defs
     id="defs89">
    <g
       id="shape0"
       transform="translate(-34.75,3)">
      <path
         d="M 132.5,94.7 Q 116.25,110.95 93.25,110.95 70.25,110.95 54,94.7 37.75,78.45 37.75,55.5 37.75,32.5 54,16.25 70.25,0 93.25,0 q 23,0 39.25,16.25 16.25,16.25 16.25,39.25 0,22.95 -16.25,39.2"
         fill="#ff0000"
         fill-rule="evenodd"
         stroke="none"
         id="path20" />
      <path
         d="M 132.5,94.7 Q 116.25,110.95 93.25,110.95 70.25,110.95 54,94.7 37.75,78.45 37.75,55.5 37.75,32.5 54,16.25 70.25,0 93.25,0 q 23,0 39.25,16.25 16.25,16.25 16.25,39.25 0,22.95 -16.25,39.2 z"
         fill="none"
         stroke="#ffffff"
         stroke-linecap="butt"
         stroke-linejoin="miter-clip"
         stroke-miterlimit="10"
         stroke-width="6"
         id="path21" />
    </g>
    <g
       id="sprite0"
       transform="translate(0.25,0.1)">
      <use
         ffdec:characterId="113"
         height="9.1499996"
         transform="translate(-0.25,-0.1)"
         width="11.3"
         xlink:href="#shape1"
         id="use21" />
    </g>
    <g
       id="shape1"
       transform="translate(0.25,0.1)">
      <path
         d="M 4.2,8.8 3.9,9 0.05,8.8 0,8.4 5.7,0.45 10.8,0.15 4.2,8.8"
         fill="#000000"
         fill-rule="evenodd"
         stroke="none"
         id="path22" />
      <path
         d="M 4.2,8.8 10.8,0.15 M 5.7,0.45 0,8.4"
         ffdec:has-small-stroke="true"
         ffdec:original-stroke-width="0.5"
         fill="none"
         stroke="#000000"
         stroke-linecap="round"
         stroke-linejoin="round"
         stroke-width="0.88023"
         id="path23" />
      <path
         d="M 4.2,8.8 3.9,9 1.5,8.9 7.85,0.3 10.8,0.15 4.2,8.8"
         fill="#000000"
         fill-opacity="0.498039"
         fill-rule="evenodd"
         stroke="none"
         id="path24" />
    </g>
    <g
       id="sprite1"
       transform="translate(2.55,2.35)">
      <use
         ffdec:characterId="159"
         height="26.450001"
         transform="translate(-2.55,-2.35)"
         width="29.299999"
         xlink:href="#shape2"
         id="use24" />
    </g>
    <g
       id="shape2"
       transform="translate(2.55,2.35)">
      <path
         d="m 5.15,0.35 12.5,15.45 q -7.5,5.65 -16.5,8.05 H 1.05 Q -2.6,22.8 -2.3,19.25 -2.3,9.4 5.15,0.35"
         fill="#000000"
         fill-rule="evenodd"
         stroke="none"
         id="path25" />
      <path
         d="m 17.65,15.8 q -7.5,5.65 -16.5,8.05 H 1.05 Q -2.6,22.8 -2.3,19.25 -2.3,9.4 5.15,0.35"
         ffdec:has-small-stroke="true"
         ffdec:original-stroke-width="0.5"
         fill="none"
         stroke="#000000"
         stroke-linecap="round"
         stroke-linejoin="round"
         stroke-width="0.880215"
         id="path26" />
      <path
         d="m 2.35,20.9 q -3.1,-0.85 -2.85,-3.65 0,-7.8 6.55,-17.8 13.35,-5.1 20.7,4.15 -10.8,13.95 -24.3,17.3 h -0.1"
         fill="#000000"
         fill-opacity="0.498039"
         fill-rule="evenodd"
         stroke="none"
         id="path27" />
    </g>
    <g
       id="sprite2"
       transform="translate(4.3,4.35)">
      <use
         ffdec:characterId="151"
         height="18.700001"
         transform="translate(-4.3,-4.35)"
         width="29.200001"
         xlink:href="#shape3"
         id="use27" />
    </g>
    <g
       id="shape3"
       transform="translate(4.3,4.35)">
      <path
         d="M 1.2,12.1 Q 3.85,10.9 1.9,7.4 -0.05,3.95 -4.05,3.95 -4.4,-3.25 8.1,-4.1 q 1.3,2.85 8,5.8 6.95,4.95 8.55,11.25 l -0.3,0.1 Q 13.05,15.95 1.45,12.5 L 1.2,12.1"
         fill="#000000"
         fill-rule="evenodd"
         stroke="none"
         id="path28" />
      <path
         d="M 1.2,12.1 Q 3.85,10.9 1.9,7.4 -0.05,3.95 -4.05,3.95 M 8.1,-4.1 q 1.3,2.85 8,5.8 6.95,4.95 8.55,11.25"
         ffdec:has-small-stroke="true"
         ffdec:original-stroke-width="0.5"
         fill="none"
         stroke="#000000"
         stroke-linecap="round"
         stroke-linejoin="round"
         stroke-width="0.880221"
         id="path29" />
      <path
         d="m 8.65,-1.55 q 2.05,1.9 6.45,3.85 4.6,3.25 6.85,7.15 l 0.3,0.5 2.25,2.5 0.15,0.5 -0.3,0.1 -0.75,0.2 Q 12.65,15.8 1.45,12.5 L 1.2,12.1 2,11.6 3.15,11.4 Q 5.45,10.15 3.6,6.8 1.65,3.35 -2.35,3.35 L -4.05,3.7 Q -4.2,-3.2 8,-4.1 l 0.65,2.55"
         fill="#000000"
         fill-opacity="0.498039"
         fill-rule="evenodd"
         stroke="none"
         id="path30" />
    </g>
    <g
       id="sprite3"
       transform="translate(-2.55,0.25)">
      <use
         ffdec:characterId="161"
         height="17.950001"
         transform="translate(2.55,-0.25)"
         width="22.549999"
         xlink:href="#shape4"
         id="use30" />
    </g>
    <g
       id="shape4"
       transform="translate(-2.55,0.25)">
      <path
         d="M 7.35,17.45 5.45,16.5 Q 6.3,10.7 3.75,4.1 6.15,2.05 8.7,0.75 L 8.8,0.7 11.3,0.15 13.95,0 q 4.5,0 7.9,3.4 3,3 3,6 l -0.35,1.3 -2.45,6 -0.35,-0.1 -14.35,0.85"
         fill="#000000"
         fill-rule="evenodd"
         stroke="none"
         id="path31" />
      <path
         d="M 7.35,17.45 5.45,16.5 Q 6.3,10.7 3.75,4.1 6.15,2.05 8.7,0.75 L 8.8,0.7 11.3,0.15 13.95,0 q 4.5,0 7.9,3.4 3,3 3,6 l -0.35,1.3 -2.45,6"
         ffdec:has-small-stroke="true"
         ffdec:original-stroke-width="0.5"
         fill="none"
         stroke="#000000"
         stroke-linecap="round"
         stroke-linejoin="round"
         stroke-width="0.88022"
         id="path32" />
      <path
         d="M 23.3,11.95 23,13.25 21.7,16.6 7.35,17.45 5.4,16.5 Q 6.4,14.85 4.3,5.9 L 4.25,6 V 5.85 q 1.8,-1.5 3.7,-2.55 l 0.1,-0.05 2.4,-0.55 2.5,-0.15 q 4.3,0 7.5,3.4 2.85,3 2.85,6 M 2.7,7.2 2.65,7.35 H 2.55 L 2.7,7.2"
         fill="#000000"
         fill-opacity="0.498039"
         fill-rule="evenodd"
         stroke="none"
         id="path33" />
    </g>
    <g
       id="sprite4"
       transform="translate(0.25,0.2)">
      <use
         ffdec:characterId="97"
         height="15.6"
         transform="translate(-0.25,-0.2)"
         width="23.35"
         xlink:href="#shape5"
         id="use33" />
    </g>
    <g
       id="shape5"
       transform="translate(0.25,0.2)">
      <path
         d="M 21.05,11.45 21.1,11.8 Q 21,14 20.35,14.45 21,14 21.1,11.8 h 0.35 l 1.05,0.65 0.35,0.35 -0.55,1.5 -0.35,0.7 -0.6,0.15 L 20.75,15 20.35,14.45 20,14.55 19.75,14.5 Q 17.95,12.65 13.35,10.45 10.1,8.85 7.4,8.1 L 7.1,7.9 Q 4.35,7.3 2.55,6.15 0.2,4.6 0.1,2.5 L 0.3,2.25 V 2 L 0.05,1.45 0,0.85 V 0.65 L 0.6,0.7 6.1,0.1 10.95,0.05 12.35,2.6 13.3,4.25 17.5,7.6 q 2.25,2.05 3.55,3.85 M 11,5.8 10.45,4.1 9.45,2.25 5.2,1.75 3,1.85 11,5.8"
         fill="#000000"
         fill-rule="evenodd"
         stroke="none"
         id="path34" />
      <path
         d="M 11,5.8 3,1.85 5.2,1.75 9.45,2.25 10.45,4.1 11,5.8"
         fill="#ffffff"
         fill-rule="evenodd"
         stroke="none"
         id="path35" />
      <path
         d="M 21.05,11.45 Q 19.75,9.65 17.5,7.6 L 13.3,4.25 12.35,2.6 10.95,0.05 6.1,0.1 0.6,0.7 0,0.65 v 0.2 L 0.05,1.45 0.3,2 V 2.25 L 0.1,2.5 Q 0.2,4.6 2.55,6.15 4.35,7.3 7.1,7.9 m 0.3,0.2 q 2.7,0.75 5.95,2.35 4.6,2.2 6.4,4.05 l 0.25,0.05 0.35,-0.1 Q 21,14 21.1,11.8 m 0.35,0 1.05,0.65 0.35,0.35 -0.55,1.5 -0.35,0.7 -0.6,0.15 -0.6,-0.15 -0.4,-0.55 M 11,5.8 3,1.85 l 2.2,-0.1 4.25,0.5 1,1.85 z"
         ffdec:has-small-stroke="true"
         ffdec:original-stroke-width="0.5"
         fill="none"
         stroke="#000000"
         stroke-linecap="round"
         stroke-linejoin="round"
         stroke-width="0.88022"
         id="path36" />
    </g>
    <g
       id="sprite5"
       transform="translate(-14.5,-2.35)">
      <use
         ffdec:characterId="155"
         height="25.6"
         transform="translate(14.5,2.35)"
         width="34.599998"
         xlink:href="#shape6"
         id="use36" />
    </g>
    <g
       id="shape6"
       transform="translate(-14.5,-2.35)">
      <path
         d="m 43.8,19.5 -0.95,-1.9 -0.2,-0.2 -1.2,-1 Q 28.9,5.95 14.75,2.6 30.3,3.2 45.5,15.45 49.25,22.9 48.8,27.7 L 18.7,16.9 q 6,-1.2 22.8,5.8 l 2.7,1.2 q 0.3,-0.9 0.25,-1.95 l -0.4,-1.8 -0.25,-0.65"
         fill="#000000"
         fill-rule="evenodd"
         stroke="none"
         id="path37" />
      <path
         d="m 41.45,16.4 1.2,1 0.2,0.2 0.95,1.9 -1.55,-0.75 -0.8,-2.35 m 3,5.55 Q 44.5,23 44.2,23.9 l -2.7,-1.2 q 0.6,-1 0.8,-2.15 l 0.35,0.25 1.45,1.15 h 0.35"
         fill="#000000"
         fill-rule="evenodd"
         stroke="none"
         id="path38" />
      <path
         d="m 43.8,19.5 0.25,0.65 0.4,1.8 H 44.1 L 42.65,20.8 42.3,20.55 q -0.85,-0.5 -1.15,-0.5 L 40.05,19.7 Q 39.2,19.35 38.95,19.35 L 37.1,19.1 h -0.25 l 0.3,-0.45 0.4,-0.25 0.35,-0.15 0.45,-0.15 1.2,-0.2 2.2,0.7 0.5,0.2 v -0.05 l 1.55,0.75"
         fill="#000000"
         fill-rule="evenodd"
         stroke="none"
         id="path39" />
      <path
         d="m 41.45,16.4 1.2,1 0.2,0.2 0.95,1.9 0.25,0.65 0.4,1.8 Q 44.5,23 44.2,23.9 L 41.5,22.7 Q 24.7,15.7 18.7,16.9 L 48.8,27.7 Q 49.25,22.9 45.5,15.45 30.3,3.2 14.75,2.6 28.9,5.95 41.45,16.4 l 0.8,2.35 1.55,0.75 m -1.55,-0.75 v 0.05 l -0.5,-0.2 -2.2,-0.7 -1.2,0.2 -0.45,0.15 -0.35,0.15 -0.4,0.25 -0.3,0.45 h 0.25 l 1.85,0.25 q 0.25,0 1.1,0.35 l 1.1,0.35 q 0.3,0 1.15,0.5 l 0.35,0.25 1.45,1.15 m -1.8,-1.4 q -0.2,1.15 -0.8,2.15"
         ffdec:has-small-stroke="true"
         ffdec:original-stroke-width="0.5"
         fill="none"
         stroke="#000000"
         stroke-linecap="round"
         stroke-linejoin="round"
         stroke-width="0.880223"
         id="path40" />
      <path
         d="m 37.15,18.7 v -0.05 l 0.3,-0.2 -0.3,0.25 m 5.6,-0.3 0.1,-0.4 0.75,0.8 0.2,0.5 0.2,0.45 0.15,0.8 0.15,0.65 0.15,1.05 -0.2,1.6 -1.7,-0.8 0.35,-1.55 -0.65,-0.65 0.05,-0.3 -0.65,-0.3 -0.5,-0.2 -1.1,-0.35 Q 39.2,19.35 38.95,19.35 L 37.1,19.1 H 36.85 L 37,18.9 q 2.15,-0.4 5.65,0.6 L 42.6,18.95 42.75,18.4 m 2.65,-3.05 0.1,0.1 0.75,1.5 q 2.6,5.8 2.6,9.85 L 48.8,27.7 18.7,16.9 19.1,16.85 q 11.35,2.65 23.3,6.9 l 1.85,0.65 2,0.6 Q 46.15,20.85 43.6,17.5 L 43,17.4 42.85,18 42.1,17.2 41.7,17 41.5,16.55 v -0.1 L 41.45,16.4 40.95,16 40.7,15.8 40.2,15.4 Q 31.6,8.55 22.3,4.95 L 17.05,3.2 Q 31.9,6.75 45.4,15.35"
         fill="#000000"
         fill-opacity="0.498039"
         fill-rule="evenodd"
         stroke="none"
         id="path41" />
    </g>
    <g
       id="sprite6"
       transform="translate(0.25,-0.3)">
      <use
         ffdec:characterId="75"
         height="17.35"
         transform="translate(-0.25,0.3)"
         width="5.8499999"
         xlink:href="#shape7"
         id="use41" />
    </g>
    <g
       id="shape7"
       transform="translate(0.25,-0.3)">
      <path
         d="M 0,15 0.2,14.85 Q 3.85,13.9 2.4,8.6 0.65,4.25 3.75,0.55 L 5.15,1.6 Q 2.65,4.5 4.7,9.2 6.8,15.95 2,17.4 H 1.9 L 0,15"
         fill="#000000"
         fill-rule="evenodd"
         stroke="none"
         id="path42" />
      <path
         d="M 0.2,14.85 Q 3.85,13.9 2.4,8.6 0.65,4.25 3.75,0.55 L 5.15,1.6 Q 2.65,4.5 4.7,9.2 6.8,15.95 2,17.4 H 1.9 L 0,15"
         ffdec:has-small-stroke="true"
         ffdec:original-stroke-width="0.5"
         fill="none"
         stroke="#000000"
         stroke-linecap="round"
         stroke-linejoin="round"
         stroke-width="0.88025"
         id="path43" />
    </g>
    <g
       id="sprite7"
       transform="translate(0.25,0.2)">
      <use
         ffdec:characterId="23"
         height="17.700001"
         transform="translate(-0.25,-0.2)"
         width="6.0500002"
         xlink:href="#shape8"
         id="use43" />
    </g>
    <g
       id="shape8"
       transform="translate(0.25,0.2)">
      <path
         d="M 3.7,1.6 3.65,0.1 H 4 L 4.8,0.05 5.5,0.55 5.55,3.1 q 0,4 -0.45,6.8 -0.65,3.85 -2.2,7.35 L 1.95,16.75 0.3,15.85 0,15.65 0.3,15.05 1.95,11.2 Q 3.7,6.3 3.7,1.6"
         fill="#000000"
         fill-rule="evenodd"
         stroke="none"
         id="path44" />
      <path
         d="M 3.7,1.6 3.65,0.1 H 4 L 4.8,0.05 5.5,0.55 5.55,3.1 q 0,4 -0.45,6.8 -0.65,3.85 -2.2,7.35 L 1.95,16.75 0.3,15.85 0,15.65 0.3,15.05 1.95,11.2 Q 3.7,6.3 3.7,1.6 Z"
         ffdec:has-small-stroke="true"
         ffdec:original-stroke-width="0.5"
         fill="none"
         stroke="#000000"
         stroke-linecap="round"
         stroke-linejoin="round"
         stroke-width="0.880221"
         id="path45" />
    </g>
    <g
       id="sprite8"
       transform="translate(-0.25,-5.85)">
      <use
         ffdec:characterId="157"
         height="33.349998"
         transform="translate(0.25,5.85)"
         width="39.599998"
         xlink:href="#shape9"
         id="use45" />
    </g>
    <g
       id="shape9"
       transform="translate(-0.25,-5.85)">
      <path
         d="M 39.35,6.7 Q 40.45,19.15 36.8,27.45 33.45,35.1 23.8,38.7 16.7,39.65 12.75,37.3 7.15,32.45 3.2,24.65 L 3,24.35 Q -2.2,14.95 3.4,7.2 L 3.5,7.15 Q 7.4,5.5 15.95,6.5 l 23.4,0.2"
         fill="#000000"
         fill-rule="evenodd"
         stroke="none"
         id="path46" />
      <path
         d="M 15.95,6.5 Q 7.4,5.5 3.5,7.15 L 3.4,7.2 Q -2.2,14.95 3,24.35 l 0.2,0.3 q 3.95,7.8 9.55,12.65 3.95,2.35 11.05,1.4 9.65,-3.6 13,-11.25 3.65,-8.3 2.55,-20.75"
         ffdec:has-small-stroke="true"
         ffdec:original-stroke-width="0.5"
         fill="none"
         stroke="#000000"
         stroke-linecap="round"
         stroke-linejoin="round"
         stroke-width="0.880221"
         id="path47" />
      <path
         d="m 38.55,6.7 0.2,1.55 Q 39.4,19.55 35.9,27.1 32.65,34.2 23.5,37.4 16.85,38.15 13.25,35.85 8.1,31.2 4.55,23.75 L 4.35,23.5 Q -0.3,14.55 5.1,7.35 L 5.15,7.3 Q 8.65,5.95 15.9,6.85 L 16.2,6.5 38.55,6.7"
         fill="#000000"
         fill-opacity="0.498039"
         fill-rule="evenodd"
         stroke="none"
         id="path48" />
    </g>
    <g
       id="sprite9"
       transform="translate(0.25,0.1)">
      <use
         ffdec:characterId="113"
         height="9.1499996"
         transform="translate(-0.25,-0.1)"
         width="11.3"
         xlink:href="#shape10"
         id="use48" />
    </g>
    <g
       id="shape10"
       transform="translate(0.25,0.1)">
      <path
         d="M 4.2,8.8 3.9,9 0.05,8.8 0,8.4 5.7,0.45 10.8,0.15 4.2,8.8"
         fill="#000000"
         fill-rule="evenodd"
         stroke="none"
         id="path49" />
      <path
         d="M 4.2,8.8 10.8,0.15 M 5.7,0.45 0,8.4"
         ffdec:has-small-stroke="true"
         ffdec:original-stroke-width="0.5"
         fill="none"
         stroke="#000000"
         stroke-linecap="round"
         stroke-linejoin="round"
         stroke-width="0.880256"
         id="path50" />
      <path
         d="M 4.2,8.8 3.9,9 1.5,8.9 7.85,0.3 10.8,0.15 4.2,8.8"
         fill="#000000"
         fill-opacity="0.498039"
         fill-rule="evenodd"
         stroke="none"
         id="path51" />
    </g>
    <g
       id="sprite10"
       transform="translate(3.35,10.65)">
      <use
         ffdec:characterId="123"
         height="16.299999"
         transform="translate(-3.35,-10.65)"
         width="23.049999"
         xlink:href="#shape11"
         id="use51" />
    </g>
    <g
       id="shape11"
       transform="translate(3.35,10.65)">
      <path
         d="m 0.95,-10.4 q 11.85,2 18.5,8.25 Q 16.05,4.3 9.25,5.25 2.6,6.2 -1.8,1.4 L -2.35,0.15 q -0.75,-1.9 -0.75,-3.4 0,-2.85 1.85,-5.05 l 2.2,-2.1"
         fill="#000000"
         fill-rule="evenodd"
         stroke="none"
         id="path52" />
      <path
         d="M 19.45,-2.15 Q 16.05,4.3 9.25,5.25 2.6,6.2 -1.8,1.4 L -2.35,0.15 q -0.75,-1.9 -0.75,-3.4 0,-2.85 1.85,-5.05 l 2.2,-2.1"
         ffdec:has-small-stroke="true"
         ffdec:original-stroke-width="0.5"
         fill="none"
         stroke="#000000"
         stroke-linecap="round"
         stroke-linejoin="round"
         stroke-width="0.774888"
         id="path53" />
      <path
         d="M 19.45,-2.75 Q 16.2,3.25 9.8,4.1 3.55,5 -0.6,0.55 L -1.1,-0.6 q -0.7,-1.75 -0.7,-3.15 0,-2.65 1.7,-4.7 1.3,-1.55 2.1,-1.95 11.15,1.85 17.45,7.65"
         fill="#000000"
         fill-opacity="0.498039"
         fill-rule="evenodd"
         stroke="none"
         id="path54" />
    </g>
    <g
       id="sprite11"
       transform="translate(-7.9,2.15)">
      <use
         ffdec:characterId="149"
         height="18.15"
         transform="translate(7.9,-2.15)"
         width="13.35"
         xlink:href="#shape12"
         id="use54" />
    </g>
    <g
       id="shape12"
       transform="translate(-7.9,2.15)">
      <path
         d="m 19.6,14.3 -1.3,1.05 q -0.7,0.4 -1.45,0.4 -1.25,0 -2.35,-0.55 -2.35,0 -4.15,-1.3 -2.2,-1.8 -2.2,-4.75 V 9 q 0,-0.6 0.25,-0.9 0.45,-2.55 2.1,-5.3 2.15,-3.55 4.7,-4.55 l 0.75,-0.15 0.85,0.9 0.6,1.2 0.1,0.3 0.8,0.8 q 0.4,0.85 0.4,3.6 l -0.2,3.55 q -0.25,1.4 -1,2.15 l 0.1,0.1 1.05,-1.05 0.5,-0.4 Q 19.75,8.7 20.2,8.7 L 20.75,9.3 21,11 q 0,2.65 -1.6,3.3 h 0.2 m -8.85,-3.9 q 0.15,1.2 1.6,3.05 1,1.15 2.15,1.75 -1.15,-0.6 -2.15,-1.75 -1.45,-1.85 -1.6,-3.05 m 3.7,2.05 1.9,1.45 q 1,0.6 1.9,0.6 l 1.15,-0.2 -1.15,0.2 q -0.9,0 -1.9,-0.6 l -1.9,-1.45"
         fill="#000000"
         fill-rule="evenodd"
         stroke="none"
         id="path55" />
      <path
         d="m 19.6,14.3 -1.3,1.05 q -0.7,0.4 -1.45,0.4 -1.25,0 -2.35,-0.55 -2.35,0 -4.15,-1.3 -2.2,-1.8 -2.2,-4.75 V 9 q 0,-0.6 0.25,-0.9 0.45,-2.55 2.1,-5.3 2.15,-3.55 4.7,-4.55 l 0.75,-0.15 m 1.55,2.4 0.8,0.8 q 0.4,0.85 0.4,3.6 l -0.2,3.55 q -0.25,1.4 -1,2.15 l 0.1,0.1 1.05,-1.05 0.5,-0.4 Q 19.75,8.7 20.2,8.7 L 20.75,9.3 21,11 q 0,2.65 -1.6,3.3 l -1.15,0.2 q -0.9,0 -1.9,-0.6 l -1.9,-1.45 M 14.5,15.2 Q 13.35,14.6 12.35,13.45 10.9,11.6 10.75,10.4"
         ffdec:has-small-stroke="true"
         ffdec:original-stroke-width="0.5"
         fill="none"
         stroke="#000000"
         stroke-linecap="round"
         stroke-linejoin="round"
         stroke-width="0.880217"
         id="path56" />
      <path
         d="m 15.2,-1.75 0.35,-0.05 0.5,0.8 0.4,1.2 0.1,0.3 q 0.5,0.4 0.6,0.8 l 0.25,3.6 -0.1,3.55 q -0.2,1.4 -0.75,2.15 l 0.05,0.1 0.8,-1.05 0.35,-0.4 0.7,-0.55 Q 18.2,9.9 17.5,10.6 l 0.1,0.1 1.05,-1.05 0.3,-0.25 0.15,1.6 q 0,2.65 -1.15,3.3 h 0.15 l -0.95,1.05 q -0.4,0.3 -0.8,0.4 -1,-0.1 -1.85,-0.55 H 14.35 14 13.9 Q 12.45,15.05 11.3,13.9 9.7,12.1 9.7,9.15 V 9 L 9.9,8.1 q 0.3,-2.55 1.55,-5.3 1.15,-2.65 2.5,-3.85 l 1.25,-0.7"
         fill="#000000"
         fill-opacity="0.498039"
         fill-rule="evenodd"
         stroke="none"
         id="path57" />
    </g>
    <g
       id="sprite12"
       transform="translate(0.5,1.25)">
      <use
         ffdec:characterId="55"
         height="14.7"
         transform="translate(-0.5,-1.25)"
         width="23.35"
         xlink:href="#shape13"
         id="use57" />
    </g>
    <g
       id="shape13"
       transform="translate(0.5,1.25)">
      <path
         d="M 1.6,2.3 Q 1.75,0.85 3.25,-0.1 4.6,-1 6.35,-1 q 1.9,0 5.55,1.25 3.35,1.1 6.15,2.35 1.45,0.45 2.65,1.6 1.9,1.9 1.9,4.75 0,1 -0.55,1.8 L 21.3,11.6 h -0.1 l 0.25,-0.8 Q 21.45,9.15 20.1,8 18.15,6.4 13.85,6.4 10.6,6.4 8.05,7.7 5.4,9.05 5.4,10.85 q 0,0.8 0.3,1.55 L 6,13.2 Q 4.9,12.95 3.95,12 2.65,10.75 2.65,8.85 2.65,7.65 4.2,6.1 5.4,4.9 6.85,4.5 L 6.8,4.45 Q 6.35,4 5,4 1.95,4 0.55,5.75 L 0,5.6 Q 0.3,4.25 0.8,3.55 L 1.75,2.55 1.6,2.3 M 9.85,4.6 8.3,4.3 6.85,4.5 8.3,4.3 9.85,4.6 M 9.5,2.1 Q 7.05,1.3 5.95,1.3 q -2.6,0 -4.2,1.25 1.6,-1.25 4.2,-1.25 1.1,0 3.55,0.8"
         fill="#000000"
         fill-rule="evenodd"
         stroke="none"
         id="path58" />
      <path
         d="M 1.6,2.3 Q 1.75,0.85 3.25,-0.1 4.6,-1 6.35,-1 q 1.9,0 5.55,1.25 3.35,1.1 6.15,2.35 1.45,0.45 2.65,1.6 1.9,1.9 1.9,4.75 0,1 -0.55,1.8 L 21.3,11.6 h -0.1 l 0.25,-0.8 Q 21.45,9.15 20.1,8 18.15,6.4 13.85,6.4 10.6,6.4 8.05,7.7 5.4,9.05 5.4,10.85 q 0,0.8 0.3,1.55 L 6,13.2 Q 4.9,12.95 3.95,12 2.65,10.75 2.65,8.85 2.65,7.65 4.2,6.1 5.4,4.9 6.85,4.5 L 6.8,4.45 Q 6.35,4 5,4 1.95,4 0.55,5.75 0.1,6.3 -0.05,6.9 L -0.25,7.6 0,5.6 Q 0.3,4.25 0.8,3.55 l 0.95,-1 Q 3.35,1.3 5.95,1.3 7.05,1.3 9.5,2.1 M 6.85,4.5 8.3,4.3 9.85,4.6"
         ffdec:has-small-stroke="true"
         ffdec:original-stroke-width="0.5"
         fill="none"
         stroke="#000000"
         stroke-linecap="round"
         stroke-linejoin="round"
         stroke-width="0.88023"
         id="path59" />
      <path
         d="m 21.35,5.4 0.4,0.35 0.05,0.25 0.4,2.1 v 0.2 l -0.15,0.2 -0.3,0.3 -0.4,-1 Q 21.05,6.95 20.1,6.3 18.15,5 13.85,5 12.8,5 9.2,6.1 5.75,7.15 5.4,7.45 L 4.9,8.15 4.5,8.95 4.25,9.75 3.95,9.5 Q 2.9,8.7 2.7,7.55 L 3.35,6.95 Q 5.15,5.45 6.5,4.55 H 6.55 L 6.6,4.45 6.5,4.55 5.35,4 Q 6.05,3.6 6.85,3.45 L 6.8,3.4 Q 6.35,3.05 5,3.05 1.95,3.05 0.55,4.45 L 0.2,4.4 0.45,3.9 1.75,1.9 V 1.85 1.6 L 1.9,1.5 3.25,0.85 4.5,0.35 q 1.1,-0.55 2,-0.55 l 1.4,0.25 q 1.2,0 4.75,1.05 l 3.55,1 0.75,-0.2 2.6,1.75 1.8,1.75"
         fill="#000000"
         fill-opacity="0.498039"
         fill-rule="evenodd"
         stroke="none"
         id="path60" />
    </g>
    <g
       id="sprite13"
       transform="translate(1.8,-0.6)">
      <use
         ffdec:characterId="109"
         height="16.799999"
         transform="translate(-1.8,0.6)"
         width="45.650002"
         xlink:href="#shape14"
         id="use60" />
    </g>
    <g
       id="shape14"
       transform="translate(1.8,-0.6)">
      <path
         d="M 41.7,6.65 40.45,6.4 39.8,5.95 39.4,5.15 Q 38.7,3.65 38.7,2.55 L 38.8,1.7 40.3,1.6 q 2.8,0.25 2.7,0.8 -0.25,0.7 0.15,1.85 l 0.45,1.5 -0.5,0.6 -1.4,0.3"
         fill="#000000"
         fill-rule="evenodd"
         stroke="none"
         id="path61" />
      <path
         d="M 41.7,6.65 40.45,6.4 39.8,5.95 39.4,5.15 Q 38.7,3.65 38.7,2.55 L 38.8,1.7 40.3,1.6 q 2.8,0.25 2.7,0.8 -0.25,0.7 0.15,1.85 l 0.45,1.5 -0.5,0.6 z"
         ffdec:has-small-stroke="true"
         ffdec:original-stroke-width="0.5"
         fill="none"
         stroke="#000000"
         stroke-linecap="round"
         stroke-linejoin="round"
         stroke-width="0.908518"
         id="path62" />
      <path
         d="M 40.45,4.4 Q 20.1,13.5 -0.35,16.9 l -1.2,-4.3 Q 19,12 38.65,0.85 l 1.8,3.55"
         fill="#000000"
         fill-rule="evenodd"
         stroke="none"
         id="path63" />
      <path
         d="M 40.45,4.4 Q 20.1,13.5 -0.35,16.9 l -1.2,-4.3 Q 19,12 38.65,0.85 Z"
         ffdec:has-small-stroke="true"
         ffdec:original-stroke-width="0.5"
         fill="none"
         stroke="#000000"
         stroke-linecap="round"
         stroke-linejoin="round"
         stroke-width="0.908518"
         id="path64" />
      <path
         d="M 42.2,6.6 Q 20.75,14.75 -0.5,17.15 l -1.05,-4.4 Q 19.7,13.2 40.5,3 l 1.7,3.6"
         fill="#000000"
         fill-rule="evenodd"
         stroke="none"
         id="path65" />
      <path
         d="M 42.2,6.6 Q 20.75,14.75 -0.5,17.15 l -1.05,-4.4 Q 19.7,13.2 40.5,3 Z"
         ffdec:has-small-stroke="true"
         ffdec:original-stroke-width="0.5"
         fill="none"
         stroke="#000000"
         stroke-linecap="round"
         stroke-linejoin="round"
         stroke-width="0.908518"
         id="path66" />
    </g>
    <g
       id="sprite14"
       transform="translate(0.25,0.2)">
      <use
         ffdec:characterId="23"
         height="17.700001"
         transform="translate(-0.25,-0.2)"
         width="6.0500002"
         xlink:href="#shape15"
         id="use66" />
    </g>
    <g
       id="shape15"
       transform="translate(0.25,0.2)">
      <path
         d="M 3.7,1.6 3.65,0.1 H 4 L 4.8,0.05 5.5,0.55 5.55,3.1 q 0,4 -0.45,6.8 -0.65,3.85 -2.2,7.35 L 1.95,16.75 0.3,15.85 0,15.65 0.3,15.05 1.95,11.2 Q 3.7,6.3 3.7,1.6"
         fill="#000000"
         fill-rule="evenodd"
         stroke="none"
         id="path67" />
      <path
         d="M 3.7,1.6 3.65,0.1 H 4 L 4.8,0.05 5.5,0.55 5.55,3.1 q 0,4 -0.45,6.8 -0.65,3.85 -2.2,7.35 L 1.95,16.75 0.3,15.85 0,15.65 0.3,15.05 1.95,11.2 Q 3.7,6.3 3.7,1.6 Z"
         ffdec:has-small-stroke="true"
         ffdec:original-stroke-width="0.5"
         fill="none"
         stroke="#000000"
         stroke-linecap="round"
         stroke-linejoin="round"
         stroke-width="0.880304"
         id="path68" />
    </g>
    <g
       id="sprite15"
       transform="translate(0.25,-0.3)">
      <use
         ffdec:characterId="75"
         height="17.35"
         transform="translate(-0.25,0.3)"
         width="5.8499999"
         xlink:href="#shape16"
         id="use68" />
    </g>
    <g
       id="shape16"
       transform="translate(0.25,-0.3)">
      <path
         d="M 0,15 0.2,14.85 Q 3.85,13.9 2.4,8.6 0.65,4.25 3.75,0.55 L 5.15,1.6 Q 2.65,4.5 4.7,9.2 6.8,15.95 2,17.4 H 1.9 L 0,15"
         fill="#000000"
         fill-rule="evenodd"
         stroke="none"
         id="path69" />
      <path
         d="M 0.2,14.85 Q 3.85,13.9 2.4,8.6 0.65,4.25 3.75,0.55 L 5.15,1.6 Q 2.65,4.5 4.7,9.2 6.8,15.95 2,17.4 H 1.9 L 0,15"
         ffdec:has-small-stroke="true"
         ffdec:original-stroke-width="0.5"
         fill="none"
         stroke="#000000"
         stroke-linecap="round"
         stroke-linejoin="round"
         stroke-width="0.880293"
         id="path70" />
    </g>
    <g
       id="shape17"
       transform="translate(0,-122.85)">
      <path
         d="m 13.05,132.3 q 9.05,0 9.05,9.25 v 13.85 q 0,3.05 -3,3.05 -3,0 -3,-3.1 v -13.9 q 0,-3.1 -3.05,-3.1 H 6 v 17 Q 6,158.4 2.95,158.4 0,158.4 0,155.35 V 135.3 q 0,-2.95 3,-2.95 l 10.05,-0.05"
         fill="#ffffff"
         fill-rule="evenodd"
         stroke="none"
         id="path71" />
      <path
         d="m 34.15,135.3 v 20.05 q 0,3.05 -2.95,3.05 -3.05,0 -3.05,-3.05 v -17 q -3.05,0 -3,-2.9 0,-3.05 3,-3.15 h 3 q 3,0 3,3"
         fill="#ffffff"
         fill-rule="evenodd"
         stroke="none"
         id="path72" />
      <path
         d="m 51.3,132.3 q 9.05,0 9.05,9.25 v 13.85 q 0,3.05 -3,3.05 -3.05,0 -3.05,-3.1 v -13.9 q 0,-3.1 -3.05,-3.1 h -7 v 17 q 0,3.05 -3.05,3.05 -3,0 -3,-3.05 V 135.3 q 0,-2.95 3,-2.95 l 10.1,-0.05"
         fill="#ffffff"
         fill-rule="evenodd"
         stroke="none"
         id="path73" />
      <path
         d="m 73.45,135.3 v 21.9 q 0,9.2 -9.05,9.2 h -2.05 q -3,0 -3,-2.95 0,-3.05 2.95,-3.05 h 2.05 q 3.1,0 3.1,-3.1 v -19 q -3.1,-0.05 -3.1,-3 0,-3 3.15,-3 h 2.95 q 3,0 3,3"
         fill="#ffffff"
         fill-rule="evenodd"
         stroke="none"
         id="path74" />
      <path
         d="m 77.4,155.4 v -13.85 q 0,-9.25 9,-9.25 l 10,0.05 q 3.05,0 3.05,2.95 v 20.05 q 0,3.1 -2.95,3.1 -3.1,0 -3.1,-3.1 v -5 h -9.95 l -0.05,5 q 0,3.1 -3,3.1 -3,0 -3,-3.05 m 16,-17.05 h -6.9 q -3.1,0 -3.1,3.1 v 2.85 h 10 v -5.95"
         fill="#ffffff"
         fill-rule="evenodd"
         stroke="none"
         id="path75" />
      <path
         d="m 113.25,127.3 v 28 q -0.05,3.1 -3.05,3.15 -2.95,0 -2.95,-3.1 V 127.2 q 0,-2.95 3,-2.95 3,0 3,3.05"
         fill="#ff0000"
         fill-rule="evenodd"
         stroke="none"
         id="path76" />
      <path
         d="m 120.4,142 8.65,10.25 q 1.15,1 1.15,3.2 -0.05,2.8 -3.1,2.8 -2.1,0.1 -2.95,-1.45 L 117.1,148 q -1.35,-0.05 -1.7,-0.8 -0.25,-0.5 -0.3,-2.3 0,-2.95 2.95,-2.95 l 2.35,0.05"
         fill="#ff0000"
         fill-rule="evenodd"
         stroke="none"
         id="path77" />
      <path
         d="m 129.05,138 -8.25,10 -3.35,0.05 q -2.95,0 -2.95,-2.95 0.1,-3 3,-3.1 l 6.65,-8.55 q 0.8,-1.45 2.95,-1.45 3.05,0 3.1,2.8 0,2.2 -1.15,3.2"
         fill="#ff0000"
         fill-rule="evenodd"
         stroke="none"
         id="path78" />
      <path
         d="m 142.85,135.3 v 20.05 q 0,3.05 -2.95,3.05 -3.05,0 -3.05,-3.05 v -17 q -3.05,0 -3,-2.9 0,-3.05 3,-3.15 h 3 q 3,0 3,3"
         fill="#ff0000"
         fill-rule="evenodd"
         stroke="none"
         id="path79" />
      <path
         d="m 167,135.35 v 13.9 q 0,3.1 3.05,3.1 H 175 v -17 q 0,-3.05 3.05,-3.05 3,0 3,3.05 v 20.05 q 0,3 -3.1,3.05 l -22,-0.05 q -9.05,0 -9.05,-9.25 V 135.3 q 0,-3 3,-3 3.05,0 3.05,3.05 v 13.9 q 0,3.1 3.05,3.1 h 5 l -0.05,-17.05 q 0,-3 3,-3 3.05,0 3.05,3.05"
         fill="#ff0000"
         fill-rule="evenodd"
         stroke="none"
         id="path80" />
      <path
         d="m 194.15,135.3 v 20.05 q 0,3.05 -3,3.05 -3.05,0 -3.05,-3.05 v -17 q -3.05,0 -3,-2.9 0,-3.05 3,-3.15 h 3 q 3.05,0 3.05,3"
         fill="#ff0000"
         fill-rule="evenodd"
         stroke="none"
         id="path81" />
      <path
         d="m 30.55,122.85 1.45,0.4 q 0.75,0.4 1.1,1.1 0.4,0.7 0.4,1.5 0,0.75 -0.4,1.45 l -1.1,1.15 q -0.65,0.35 -1.45,0.35 l -1.5,-0.35 -1.1,-1.15 q -0.4,-0.6 -0.4,-1.45 0,-0.9 0.4,-1.5 0.35,-0.7 1.1,-1.1 0.8,-0.4 1.5,-0.4"
         fill="#ff0000"
         fill-rule="evenodd"
         stroke="none"
         id="path82" />
      <path
         d="m 69.85,122.85 q 0.75,0 1.45,0.4 l 1.15,1.1 q 0.4,0.7 0.4,1.5 0,0.75 -0.4,1.45 l -1.1,1.15 -1.5,0.35 -1.5,-0.35 -1.1,-1.15 q -0.35,-0.65 -0.35,-1.45 0,-0.9 0.4,-1.5 0.35,-0.75 1.1,-1.1 0.7,-0.4 1.45,-0.4"
         fill="#ff0000"
         fill-rule="evenodd"
         stroke="none"
         id="path83" />
      <path
         d="m 137.75,123.25 q 0.7,-0.4 1.45,-0.4 l 1.5,0.4 1.1,1.1 q 0.4,0.7 0.4,1.5 0,0.75 -0.4,1.45 l -1.1,1.15 -1.5,0.35 -1.45,-0.35 -1.1,-1.15 q -0.4,-0.6 -0.4,-1.45 0,-0.9 0.4,-1.5 0.35,-0.75 1.1,-1.1"
         fill="#ffffff"
         fill-rule="evenodd"
         stroke="none"
         id="path84" />
      <path
         d="m 190.5,122.85 q 0.65,0 1.45,0.4 0.75,0.4 1.1,1.1 0.4,0.7 0.4,1.5 0,0.85 -0.4,1.45 l -1.1,1.15 -1.45,0.35 -1.5,-0.35 q -0.8,-0.5 -1.1,-1.15 -0.4,-0.7 -0.4,-1.45 0,-0.8 0.4,-1.5 0.35,-0.7 1.1,-1.1 l 1.5,-0.4"
         fill="#ffffff"
         fill-rule="evenodd"
         stroke="none"
         id="path85" />
    </g>
    <g
       id="morphshape0"
       transform="translate(87.1,72)">
      <path
         d="m -87.1,152.9 4.45,1.05 52.75,-224.9 -4.45,-1.05 -52.75,224.9 m 51.6,12.1 4.45,1.05 L 21.7,-58.85 17.25,-59.9 -35.5,165"
         fill="#ffffff"
         fill-opacity="0.25098"
         fill-rule="evenodd"
         stroke="none"
         id="path86" />
      <path
         d="m -77.8,155.05 6.8,1.6 52.75,-224.9 -6.8,-1.6 -52.75,224.9 m 31.15,7.35 6.8,1.6 52.75,-224.9 -6.8,-1.6 -52.75,224.9"
         fill="#ffffff"
         fill-opacity="0.498039"
         fill-rule="evenodd"
         stroke="none"
         id="path87" />
      <path
         d="m -65.15,158.05 14.6,3.4 52.75,-224.9 -14.6,-3.4 -52.75,224.9"
         fill="#ffffff"
         fill-opacity="0.8"
         fill-rule="evenodd"
         stroke="none"
         id="path88" />
      <path
         d="m -87.1,152.9 52.75,-224.9 4.45,1.05 -52.75,224.9 -4.45,-1.05 52.75,-224.9 4.45,1.05 -52.75,224.9 -4.45,-1.05 m 9.3,2.15 52.75,-224.9 6.8,1.6 -52.75,224.9 -6.8,-1.6 52.75,-224.9 6.8,1.6 -52.75,224.9 -6.8,-1.6 m 12.65,3 52.75,-224.9 14.6,3.4 -52.75,224.9 -14.6,-3.4 52.75,-224.9 14.6,3.4 -52.75,224.9 -14.6,-3.4 m 18.5,4.35 52.75,-224.9 6.8,1.6 -52.75,224.9 -6.8,-1.6 52.75,-224.9 6.8,1.6 -52.75,224.9 -6.8,-1.6 m 11.15,2.6 52.75,-224.9 4.45,1.05 -52.75,224.9 -4.45,-1.05 52.75,-224.9 4.45,1.05 -52.75,224.9 z"
         ffdec:has-small-stroke="true"
         ffdec:original-stroke-width="0.0"
         fill="none"
         stroke="#000000"
         stroke-linecap="round"
         stroke-linejoin="round"
         stroke-opacity="0"
         stroke-width="1"
         id="path89" />
    </g>
  </defs>
</svg>
