<?xml version="1.0" encoding="UTF-8" standalone="no"?>
<svg xmlns:ffdec="https://www.free-decompiler.com/flash" xmlns:xlink="http://www.w3.org/1999/xlink" ffdec:objectType="frame" height="158.75px" width="520.05px" xmlns="http://www.w3.org/2000/svg">
  <g transform="matrix(1.0, 0.0, 0.0, 1.0, -122.6, 5.55)">
    <use ffdec:characterId="13" height="158.75" transform="matrix(1.0, 0.0, 0.0, 1.0, 122.6, -5.55)" width="520.05" xlink:href="#shape0"/>
  </g>
  <defs>
    <g id="shape0" transform="matrix(1.0, 0.0, 0.0, 1.0, -122.6, 5.55)">
      <path d="M240.9 -4.7 Q240.15 -4.15 240.15 -2.2 240.15 -0.7 241.55 0.75 242.8 2.05 244.05 2.25 L244.25 0.65 248.9 0.65 249.15 2.6 642.65 2.6 642.65 153.2 227.15 153.2 227.15 115.1 155.65 96.85 154.65 96.7 Q152.8 95.55 146.1 93.75 L142.65 92.7 142.5 92.65 141.0 92.15 Q137.55 90.9 134.9 89.45 L131.45 86.5 131.8 86.5 122.6 82.55 124.1 80.15 131.15 82.85 131.15 75.35 127.25 72.5 128.3 71.1 137.8 75.05 138.8 75.0 Q139.05 74.65 139.85 74.5 L141.0 74.6 141.8 74.85 143.35 74.15 Q144.55 73.6 146.8 74.5 L148.6 73.4 Q149.85 72.6 152.5 73.85 L154.35 72.7 Q155.8 71.9 157.45 72.4 L159.2 72.85 Q160.8 71.1 162.4 71.5 L164.0 71.9 Q165.2 69.65 168.15 70.9 L168.15 70.95 Q169.9 68.2 173.4 69.55 L173.35 69.5 173.4 69.5 Q174.15 67.3 175.85 67.45 L178.45 67.9 Q179.15 65.55 182.8 66.45 L182.85 66.5 Q183.85 62.75 189.25 63.6 L189.3 63.6 189.25 63.55 Q189.65 60.0 196.05 60.1 L196.3 60.1 196.05 60.05 Q195.2 58.3 199.75 57.9 199.4 55.0 206.25 53.6 206.2 51.2 211.75 49.4 210.55 47.2 216.6 45.2 215.85 42.8 220.95 41.0 219.65 38.55 224.55 37.1 222.9 35.05 228.1 32.9 227.3 30.75 231.35 28.7 230.7 26.95 234.15 24.8 232.8 22.9 236.65 20.95 235.8 19.85 237.15 18.5 L236.15 17.7 Q235.9 17.55 235.9 16.7 235.9 15.45 236.35 14.6 236.9 13.45 238.1 13.45 L240.15 13.75 240.25 13.65 239.4 12.25 Q238.75 11.05 238.75 10.5 238.75 8.9 240.25 8.15 239.3 7.6 238.4 6.7 235.6 3.95 235.6 0.55 235.6 -2.1 236.65 -3.55 L238.95 -5.4 239.35 -5.55 240.9 -4.7 M567.35 90.05 L567.3 90.05 567.35 90.15 567.35 90.05 M587.55 86.05 L587.5 86.0 587.5 86.05 587.55 86.05 M502.7 90.05 L502.65 90.05 502.7 90.15 502.7 90.05 M633.8 88.1 L634.1 87.95 633.75 88.05 633.8 88.1 M612.15 90.05 L612.2 90.15 612.2 90.05 612.15 90.05 M608.85 89.1 L608.85 88.95 608.8 89.0 608.85 89.1 M591.0 90.05 L591.05 90.15 591.05 90.05 591.0 90.05 M499.95 90.05 L499.9 90.05 499.9 90.35 499.95 90.05 M522.55 90.05 L522.55 90.35 522.6 90.05 522.55 90.05 M499.9 93.05 L500.0 93.05 499.9 92.9 499.9 93.05 M525.35 90.2 L525.35 90.05 525.3 90.05 525.35 90.2 M522.55 92.9 L522.55 93.05 522.65 93.05 522.55 92.9 M543.3 90.05 L543.25 90.05 543.25 90.35 543.3 90.05 M564.55 93.05 L564.75 93.05 564.55 92.8 564.55 93.05 M564.6 90.05 L564.55 90.05 564.55 90.35 564.6 90.05 M543.25 93.05 L543.45 93.05 543.25 92.75 543.25 93.05 M546.0 90.05 L546.05 90.2 546.05 90.05 546.0 90.05 M405.05 90.15 L405.05 89.9 405.05 90.15 M424.65 89.9 L424.6 89.9 424.6 90.2 424.65 89.9 M425.8 85.8 L425.7 86.1 425.85 86.15 425.8 85.8 M427.3 89.9 L427.4 90.35 427.4 89.9 427.3 89.9 M450.35 86.1 L450.35 86.15 450.4 86.15 450.35 86.1 M452.9 89.9 L452.85 89.9 452.9 90.05 452.9 89.9 M450.1 89.9 L450.1 90.2 450.15 89.9 450.1 89.9 M450.1 92.9 L450.25 92.9 450.1 92.65 450.1 92.9 M475.05 90.05 L475.0 90.05 475.0 90.35 475.05 90.05 M326.0 93.45 L326.0 93.4 325.85 93.45 326.0 93.45 M477.8 90.15 L477.8 90.05 477.75 90.05 477.8 90.15 M475.15 93.05 L475.0 92.75 475.0 93.05 475.15 93.05 M349.75 86.2 L349.9 86.15 349.9 85.95 349.75 86.2 M380.9 85.85 L380.7 86.15 380.85 86.2 380.9 85.85 M379.45 90.05 L379.45 90.65 379.5 90.05 379.45 90.05 M243.6 8.9 L243.65 8.0 243.5 8.9 243.6 8.9 M403.9 86.15 L403.95 86.15 403.9 85.75 403.9 86.15 M249.2 17.05 L249.1 17.7 249.35 17.05 249.2 17.05 M248.45 86.25 L248.5 86.25 248.5 86.2 248.45 86.25 M244.6 90.2 L244.6 90.3 244.7 90.2 244.6 90.2 M247.25 93.2 L247.4 93.2 247.4 93.15 247.25 93.2 M300.45 90.65 L300.45 90.75 300.55 90.65 300.45 90.65 M274.85 93.45 L274.7 93.5 274.85 93.5 274.85 93.45 M272.05 90.5 L272.05 90.6 272.15 90.5 272.05 90.5 M303.25 93.65 L303.25 93.6 303.1 93.65 303.25 93.65 M323.2 90.45 L323.2 90.55 323.3 90.45 323.2 90.45 M182.9 93.5 L183.05 93.5 183.05 93.45 182.9 93.5 M180.35 90.5 L180.25 90.5 180.25 90.6 180.35 90.5 M209.05 90.7 L208.95 90.7 208.95 90.8 209.05 90.7 M142.6 89.7 L142.5 89.7 142.5 89.8 142.6 89.7 M131.1 74.9 L131.1 75.15 131.15 75.15 131.1 74.9 M227.15 100.3 L227.15 100.25 225.35 100.3 227.15 100.3 M211.75 93.7 L211.75 93.65 211.6 93.7 211.75 93.7 M145.3 92.65 L145.15 92.7 145.3 92.7 145.3 92.65" fill="#000000" fill-rule="evenodd" stroke="none"/>
    </g>
  </defs>
</svg>
