<?xml version="1.0" encoding="UTF-8" standalone="no"?>
<svg
   ffdec:objectType="frame"
   height="41.9px"
   width="42.15px"
   version="1.1"
   id="svg6"
   sodipodi:docname="12.svg"
   xmlns:inkscape="http://www.inkscape.org/namespaces/inkscape"
   xmlns:sodipodi="http://sodipodi.sourceforge.net/DTD/sodipodi-0.dtd"
   xmlns="http://www.w3.org/2000/svg"
   xmlns:svg="http://www.w3.org/2000/svg"
   xmlns:ffdec="https://www.free-decompiler.com/flash">
  <sodipodi:namedview
     id="namedview6"
     pagecolor="#505050"
     bordercolor="#eeeeee"
     borderopacity="1"
     inkscape:showpageshadow="0"
     inkscape:pageopacity="0"
     inkscape:pagecheckerboard="0"
     inkscape:deskcolor="#505050" />
  <g
     transform="matrix(1.0, 0.0, 0.0, 1.0, 21.0, 23.55)"
     id="g1">
    <g
       id="use1"
       transform="translate(0.05,-1.65)">
      <path
         d="m 19.35,-10.6 q -0.3,1.05 -2.3,0.9 l -1.9,-0.35 2.4,5 0.65,-1.1 Q 19,-6.9 19.75,-5.65 20.55,-4.2 14.7,4.1 8.8,12.25 7.4,12.15 6.2,12.1 5.9,10.95 5.75,10.15 5.9,8.25 6.05,6.6 8.5,6.45 11.1,6.3 11.3,5.8 11.55,5.2 10.95,3.3 10.4,1.35 10.7,0.05 q 0.45,-1.55 2.85,-3.1 l 2.35,-1.2 Q 15.45,-7.4 12.85,-10.55 11.5,-8.5 8.65,-7.2 7.2,-6.6 1.6,-8.55 q -5.25,-1.9 -6.05,-1.2 -0.75,0.7 0.3,2.6 1,2 0,3.1 -1.15,1.3 -2.5,2.2 l -2.3,1.6 q -1,0.8 1.25,3.9 l 2.65,3.75 q 0.05,0.25 -0.25,2 -0.25,1.4 0.25,2.2 0.35,0.5 3.05,1.25 2.4,0.65 2.55,1.75 0.6,4.85 -2.15,4 -1.45,-0.45 -3,-2.75 -2,-3.05 -3.5,-4.25 -0.8,-0.7 -3.35,-2.2 -2.05,-1.45 -1.8,-2.5 0.25,-1 2.45,0.25 2.25,1.2 2.35,0.9 0.2,-0.65 -1.95,-4.3 l -2.2,-3.5 q -5,-0.75 -6.45,-2.3 -1.2,-1.35 -0.45,-6.25 0.9,-5.25 3.4,-7.95 3.9,-4.3 10.35,-1.15 3.3,1.6 5.75,4.05 2.4,-2.45 5.65,-4.05 6.5,-3.15 10.4,1.15 l 2.45,2.9 q 1.2,1.7 0.85,2.75"
         fill="#ffcc00"
         fill-rule="evenodd"
         stroke="none"
         id="path7" />
      <path
         d="m 19.35,-10.6 q -0.3,1.05 -2.3,0.9 l -1.9,-0.35 2.4,5 0.65,-1.1 Q 19,-6.9 19.75,-5.65 20.55,-4.2 14.7,4.1 8.8,12.25 7.4,12.15 6.2,12.1 5.9,10.95 5.75,10.15 5.9,8.25 6.05,6.6 8.5,6.45 11.1,6.3 11.3,5.8 11.55,5.2 10.95,3.3 10.4,1.35 10.7,0.05 q 0.45,-1.55 2.85,-3.1 l 2.35,-1.2 Q 15.45,-7.4 12.85,-10.55 11.5,-8.5 8.65,-7.2 7.2,-6.6 1.6,-8.55 q -5.25,-1.9 -6.05,-1.2 -0.75,0.7 0.3,2.6 1,2 0,3.1 -1.15,1.3 -2.5,2.2 l -2.3,1.6 q -1,0.8 1.25,3.9 l 2.65,3.75 q 0.05,0.25 -0.25,2 -0.25,1.4 0.25,2.2 0.35,0.5 3.05,1.25 2.4,0.65 2.55,1.75 0.6,4.85 -2.15,4 -1.45,-0.45 -3,-2.75 -2,-3.05 -3.5,-4.25 -0.8,-0.7 -3.35,-2.2 -2.05,-1.45 -1.8,-2.5 0.25,-1 2.45,0.25 2.25,1.2 2.35,0.9 0.2,-0.65 -1.95,-4.3 l -2.2,-3.5 q -5,-0.75 -6.45,-2.3 -1.2,-1.35 -0.45,-6.25 0.9,-5.25 3.4,-7.95 3.9,-4.3 10.35,-1.15 3.3,1.6 5.75,4.05 2.4,-2.45 5.65,-4.05 6.5,-3.15 10.4,1.15 l 2.45,2.9 q 1.2,1.7 0.85,2.75 z"
         fill="none"
         stroke="#c67903"
         stroke-linecap="round"
         stroke-linejoin="round"
         stroke-width="2.5"
         id="path8" />
      <path
         d="m 19.35,-10.6 q -0.3,1.05 -2.3,0.9 l -1.9,-0.35 2.4,5 0.65,-1.1 Q 19,-6.9 19.75,-5.65 20.55,-4.2 14.7,4.1 8.8,12.25 7.4,12.15 6.2,12.1 5.9,10.95 5.75,10.15 5.9,8.25 6.05,6.6 8.5,6.45 11.1,6.3 11.3,5.8 11.55,5.2 10.95,3.3 10.4,1.35 10.7,0.05 q 0.45,-1.55 2.85,-3.1 l 2.35,-1.2 Q 15.45,-7.4 12.85,-10.55 11.5,-8.5 8.65,-7.2 7.2,-6.6 1.6,-8.55 q -5.25,-1.9 -6.05,-1.2 -0.75,0.7 0.3,2.6 1,2 0,3.1 -1.15,1.3 -2.5,2.2 l -2.3,1.6 q -1,0.8 1.25,3.9 l 2.65,3.75 q 0.05,0.25 -0.25,2 -0.25,1.4 0.25,2.2 0.35,0.5 3.05,1.25 2.4,0.65 2.55,1.75 0.6,4.85 -2.15,4 -1.45,-0.45 -3,-2.75 -2,-3.05 -3.5,-4.25 -0.8,-0.7 -3.35,-2.2 -2.05,-1.45 -1.8,-2.5 0.25,-1 2.45,0.25 2.25,1.2 2.35,0.9 0.2,-0.65 -1.95,-4.3 l -2.2,-3.5 q -5,-0.75 -6.45,-2.3 -1.2,-1.35 -0.45,-6.25 0.9,-5.25 3.4,-7.95 3.9,-4.3 10.35,-1.15 3.3,1.6 5.75,4.05 2.4,-2.45 5.65,-4.05 6.5,-3.15 10.4,1.15 l 2.45,2.9 q 1.2,1.7 0.85,2.75"
         fill="#ffcc00"
         fill-rule="evenodd"
         stroke="none"
         id="path9" />
      <path
         d="m -17.55,-9.35 q 4.35,-10.95 14.9,-3.9"
         fill="none"
         stroke="#ffffff"
         stroke-linecap="round"
         stroke-linejoin="round"
         stroke-width="2"
         id="path10" />
      <path
         d="m 2.75,-12.75 q 4.2,-5 9.5,-2.9"
         fill="none"
         stroke="#ffffff"
         stroke-linecap="round"
         stroke-linejoin="round"
         stroke-width="2"
         id="path11" />
      <path
         d="m 15.5,-13.9 q -0.2,0.25 -0.55,0.25 -0.35,0 -0.6,-0.25 l -0.2,-0.55 0.2,-0.6 q 0.25,-0.2 0.6,-0.2 l 0.55,0.2 0.25,0.6 -0.25,0.55"
         fill="#ffffff"
         fill-rule="evenodd"
         stroke="none"
         id="path12" />
    </g>
  </g>
  <defs
     id="defs6">
    <g
       id="shape0"
       transform="matrix(1.0, 0.0, 0.0, 1.0, 21.05, 20.0)">
      <path
         d="M19.35 -10.6 Q19.05 -9.55 17.05 -9.7 L15.15 -10.05 17.55 -5.05 18.2 -6.15 Q19.0 -6.9 19.75 -5.65 20.55 -4.2 14.7 4.1 8.8 12.25 7.4 12.15 6.2 12.1 5.9 10.95 5.75 10.15 5.9 8.25 6.05 6.6 8.5 6.45 11.1 6.3 11.3 5.8 11.55 5.2 10.95 3.3 10.4 1.35 10.7 0.05 11.15 -1.5 13.55 -3.05 L15.9 -4.25 Q15.45 -7.4 12.85 -10.55 11.5 -8.5 8.65 -7.2 7.2 -6.6 1.6 -8.55 -3.65 -10.45 -4.45 -9.75 -5.2 -9.05 -4.15 -7.15 -3.15 -5.15 -4.15 -4.05 -5.3 -2.75 -6.65 -1.85 L-8.95 -0.25 Q-9.95 0.55 -7.7 3.65 L-5.05 7.4 Q-5.0 7.65 -5.3 9.4 -5.55 10.8 -5.05 11.6 -4.7 12.1 -2.0 12.85 0.4 13.5 0.55 14.6 1.15 19.45 -1.6 18.6 -3.05 18.15 -4.6 15.85 -6.6 12.8 -8.1 11.6 -8.9 10.9 -11.45 9.4 -13.5 7.95 -13.25 6.9 -13.0 5.9 -10.8 7.15 -8.55 8.35 -8.45 8.05 -8.25 7.4 -10.4 3.75 L-12.6 0.25 Q-17.6 -0.5 -19.05 -2.05 -20.25 -3.4 -19.5 -8.3 -18.6 -13.55 -16.1 -16.25 -12.2 -20.55 -5.75 -17.4 -2.45 -15.8 0.0 -13.35 2.4 -15.8 5.65 -17.4 12.15 -20.55 16.05 -16.25 L18.5 -13.35 Q19.7 -11.65 19.35 -10.6"
         fill="#ffcc00"
         fill-rule="evenodd"
         stroke="none"
         id="path1" />
      <path
         d="M19.35 -10.6 Q19.05 -9.55 17.05 -9.7 L15.15 -10.05 17.55 -5.05 18.2 -6.15 Q19.0 -6.9 19.75 -5.65 20.55 -4.2 14.7 4.1 8.8 12.25 7.4 12.15 6.2 12.1 5.9 10.95 5.75 10.15 5.9 8.25 6.05 6.6 8.5 6.45 11.1 6.3 11.3 5.8 11.55 5.2 10.95 3.3 10.4 1.35 10.7 0.05 11.15 -1.5 13.55 -3.05 L15.9 -4.25 Q15.45 -7.4 12.85 -10.55 11.5 -8.5 8.65 -7.2 7.2 -6.6 1.6 -8.55 -3.65 -10.45 -4.45 -9.75 -5.2 -9.05 -4.15 -7.15 -3.15 -5.15 -4.15 -4.05 -5.3 -2.75 -6.65 -1.85 L-8.95 -0.25 Q-9.95 0.55 -7.7 3.65 L-5.05 7.4 Q-5.0 7.65 -5.3 9.4 -5.55 10.8 -5.05 11.6 -4.7 12.1 -2.0 12.85 0.4 13.5 0.55 14.6 1.15 19.45 -1.6 18.6 -3.05 18.15 -4.6 15.85 -6.6 12.8 -8.1 11.6 -8.9 10.9 -11.45 9.4 -13.5 7.95 -13.25 6.9 -13.0 5.9 -10.8 7.15 -8.55 8.35 -8.45 8.05 -8.25 7.4 -10.4 3.75 L-12.6 0.25 Q-17.6 -0.5 -19.05 -2.05 -20.25 -3.4 -19.5 -8.3 -18.6 -13.55 -16.1 -16.25 -12.2 -20.55 -5.75 -17.4 -2.45 -15.8 0.0 -13.35 2.4 -15.8 5.65 -17.4 12.15 -20.55 16.05 -16.25 L18.5 -13.35 Q19.7 -11.65 19.35 -10.6 Z"
         fill="none"
         stroke="#c67903"
         stroke-linecap="round"
         stroke-linejoin="round"
         stroke-width="2.5"
         id="path2" />
      <path
         d="M19.35 -10.6 Q19.05 -9.55 17.05 -9.7 L15.15 -10.05 17.55 -5.05 18.2 -6.15 Q19.0 -6.9 19.75 -5.65 20.55 -4.2 14.7 4.1 8.8 12.25 7.4 12.15 6.2 12.1 5.9 10.95 5.75 10.15 5.9 8.25 6.05 6.6 8.5 6.45 11.1 6.3 11.3 5.8 11.55 5.2 10.95 3.3 10.4 1.35 10.7 0.05 11.15 -1.5 13.55 -3.05 L15.9 -4.25 Q15.45 -7.4 12.85 -10.55 11.5 -8.5 8.65 -7.2 7.2 -6.6 1.6 -8.55 -3.65 -10.45 -4.45 -9.75 -5.2 -9.05 -4.15 -7.15 -3.15 -5.15 -4.15 -4.05 -5.3 -2.75 -6.65 -1.85 L-8.95 -0.25 Q-9.95 0.55 -7.7 3.65 L-5.05 7.4 Q-5.0 7.65 -5.3 9.4 -5.55 10.8 -5.05 11.6 -4.7 12.1 -2.0 12.85 0.4 13.5 0.55 14.6 1.15 19.45 -1.6 18.6 -3.05 18.15 -4.6 15.85 -6.6 12.8 -8.1 11.6 -8.9 10.9 -11.45 9.4 -13.5 7.95 -13.25 6.9 -13.0 5.9 -10.8 7.15 -8.55 8.35 -8.45 8.05 -8.25 7.4 -10.4 3.75 L-12.6 0.25 Q-17.6 -0.5 -19.05 -2.05 -20.25 -3.4 -19.5 -8.3 -18.6 -13.55 -16.1 -16.25 -12.2 -20.55 -5.75 -17.4 -2.45 -15.8 0.0 -13.35 2.4 -15.8 5.65 -17.4 12.15 -20.55 16.05 -16.25 L18.5 -13.35 Q19.7 -11.65 19.35 -10.6"
         fill="#ffcc00"
         fill-rule="evenodd"
         stroke="none"
         id="path3" />
      <path
         d="M-17.55 -9.35 Q-13.2 -20.3 -2.65 -13.25"
         fill="none"
         stroke="#ffffff"
         stroke-linecap="round"
         stroke-linejoin="round"
         stroke-width="2.0"
         id="path4" />
      <path
         d="M2.75 -12.75 Q6.95 -17.75 12.25 -15.65"
         fill="none"
         stroke="#ffffff"
         stroke-linecap="round"
         stroke-linejoin="round"
         stroke-width="2.0"
         id="path5" />
      <path
         d="M15.5 -13.9 Q15.3 -13.65 14.95 -13.65 14.6 -13.65 14.35 -13.9 L14.15 -14.45 14.35 -15.05 Q14.6 -15.25 14.95 -15.25 L15.5 -15.05 15.75 -14.45 15.5 -13.9"
         fill="#ffffff"
         fill-rule="evenodd"
         stroke="none"
         id="path6" />
    </g>
  </defs>
</svg>
