<?xml version="1.0" encoding="UTF-8" standalone="no"?>
<svg xmlns:ffdec="https://www.free-decompiler.com/flash" xmlns:xlink="http://www.w3.org/1999/xlink" ffdec:objectType="frame" height="32.6px" width="34.15px" xmlns="http://www.w3.org/2000/svg">
  <g transform="matrix(1.0, 0.0, 0.0, 1.0, 1.8, 1.6)">
    <use ffdec:characterId="5711" height="31.55" transform="matrix(1.0, 0.0, 0.0, 1.0, -1.25, -1.05)" width="33.05" xlink:href="#shape0"/>
    <use ffdec:characterId="5713" height="32.6" transform="matrix(1.0, 0.0, 0.0, 1.0, -1.8, -1.6)" width="34.15" xlink:href="#shape1"/>
    <use ffdec:characterId="5845" height="21.75" transform="matrix(1.0, 0.0, 0.0, 1.0, 1.3, 3.6)" width="26.1" xlink:href="#shape2"/>
  </g>
  <defs>
    <g id="shape0" transform="matrix(1.0, 0.0, 0.0, 1.0, 1.25, 1.05)">
      <path d="M0.85 29.5 L-0.25 0.0 30.7 2.0 28.1 28.55 0.85 29.5" fill="#ffffff" fill-opacity="0.49803922" fill-rule="evenodd" stroke="none"/>
      <path d="M0.85 29.5 L-0.25 0.0 30.7 2.0 28.1 28.55 0.85 29.5 Z" fill="none" stroke="#000000" stroke-linecap="butt" stroke-linejoin="miter-clip" stroke-miterlimit="3.0" stroke-opacity="0.49803922" stroke-width="2.0"/>
    </g>
    <g id="shape1" transform="matrix(1.0, 0.0, 0.0, 1.0, 1.8, 1.6)">
      <path d="M0.85 29.5 L-0.25 0.0 30.7 2.0 28.1 28.55 0.85 29.5 Z" fill="none" stroke="#ffffff" stroke-linecap="butt" stroke-linejoin="miter-clip" stroke-miterlimit="3.0" stroke-width="3.0"/>
    </g>
    <g id="shape2" transform="matrix(1.0, 0.0, 0.0, 1.0, -1.3, -3.6)">
      <path d="M12.3 24.35 L7.95 24.35 8.0 15.05 3.8 14.95 14.35 4.95 24.95 14.95 20.7 15.05 20.85 24.35 16.65 24.35 16.65 17.05 12.3 17.05 12.3 24.35" fill="#0098fe" fill-rule="evenodd" stroke="none"/>
      <path d="M16.65 24.35 L12.3 24.35 12.3 17.05 16.65 17.05 16.65 24.35" fill="#13425f" fill-rule="evenodd" stroke="none"/>
      <path d="M12.3 24.35 L7.95 24.35 8.0 15.05 3.8 14.95 14.35 4.95 24.95 14.95 20.7 15.05 20.85 24.35 16.65 24.35 12.3 24.35 Z" fill="none" stroke="#14415e" stroke-linecap="butt" stroke-linejoin="miter-clip" stroke-miterlimit="3.0" stroke-opacity="0.9882353" stroke-width="2.0"/>
    </g>
  </defs>
</svg>
