<?xml version="1.0" encoding="UTF-8" standalone="no"?>
<svg xmlns:ffdec="https://www.free-decompiler.com/flash" xmlns:xlink="http://www.w3.org/1999/xlink" ffdec:objectType="frame" height="26.15px" width="23.15px" xmlns="http://www.w3.org/2000/svg">
  <g transform="matrix(1.0, 0.0, 0.0, 1.0, -27.7, -3.0)">
    <use ffdec:characterId="43" height="26.15" transform="matrix(1.0, 0.0, 0.0, 1.0, 27.7, 3.0)" width="23.15" xlink:href="#shape0"/>
  </g>
  <defs>
    <g id="shape0" transform="matrix(1.0, 0.0, 0.0, 1.0, -27.7, -3.0)">
      <path d="M33.9 23.35 L33.5 23.75 Q29.15 28.3 27.95 28.3 32.75 14.85 39.55 7.35 L39.6 7.3 Q41.4 5.35 45.15 3.3 48.55 2.95 50.6 6.95 L50.05 13.7 Q42.85 16.55 34.1 23.5 L33.9 23.35 Q40.5 15.9 49.15 11.25 L49.5 13.25 49.15 11.25 Q40.5 15.9 33.9 23.35" fill="#dddddd" fill-rule="evenodd" stroke="none"/>
      <path d="M34.1 23.5 Q42.85 16.55 50.05 13.7 L50.6 6.95 Q48.55 2.95 45.15 3.3 41.4 5.35 39.6 7.3 L39.55 7.35 Q32.75 14.85 27.95 28.3 29.15 28.3 33.5 23.75 L33.9 23.35 Q40.5 15.9 49.15 11.25 L49.5 13.25 M33.5 23.75 L34.1 23.5" ffdec:has-small-stroke="true" ffdec:original-stroke-width="0.5" fill="none" stroke="#000000" stroke-linecap="round" stroke-linejoin="round" stroke-width="1.0"/>
      <path d="M42.35 8.15 Q44.15 6.2 47.9 4.15 L48.35 4.15 Q49.65 5.05 50.6 6.95 L50.05 13.7 Q42.85 16.55 34.1 23.5 L33.9 23.35 33.5 23.75 28.3 29.15 28.55 28.7 Q36.7 14.4 42.3 8.2 L42.35 8.15" fill="#000000" fill-opacity="0.49803922" fill-rule="evenodd" stroke="none"/>
    </g>
  </defs>
</svg>
