<?xml version="1.0" encoding="UTF-8" standalone="no"?>
<svg xmlns:ffdec="https://www.free-decompiler.com/flash" xmlns:xlink="http://www.w3.org/1999/xlink" ffdec:objectType="frame" height="14.5px" width="52.1px" xmlns="http://www.w3.org/2000/svg">
  <g transform="matrix(1.0, 0.0, 0.0, 1.0, 0.25, 0.25)">
    <use ffdec:characterId="31" height="14.5" transform="matrix(1.0, 0.0, 0.0, 1.0, -0.25, -0.25)" width="52.1" xlink:href="#shape0"/>
  </g>
  <defs>
    <g id="shape0" transform="matrix(1.0, 0.0, 0.0, 1.0, 0.25, 0.25)">
      <path d="M43.0 1.9 L45.0 2.15 45.6 2.3 46.2 2.45 Q48.9 3.65 50.2 5.6 L50.55 6.3 51.15 8.05 51.4 9.45 51.6 12.7 51.4 13.75 51.3 14.0 Q46.75 12.15 42.05 10.65 33.85 8.05 25.25 6.5 14.2 4.5 3.45 4.35 L0.0 4.45 Q8.2 -2.75 41.8 1.75 L42.75 1.85 43.0 1.9 M49.65 12.2 L47.15 8.8 Q46.7 8.4 45.65 7.95 L44.25 7.5 Q23.15 2.1 3.45 4.35 23.15 2.1 44.25 7.5 L45.65 7.95 Q46.7 8.4 47.15 8.8 L49.65 12.2" fill="#dddddd" fill-rule="evenodd" stroke="none"/>
      <path d="M43.0 1.9 L45.0 2.15 45.6 2.3 46.2 2.45 Q48.9 3.65 50.2 5.6 L50.55 6.3 51.15 8.05 51.4 9.45 51.6 12.7 51.4 13.75 51.3 14.0 Q46.75 12.15 42.05 10.65 33.85 8.05 25.25 6.5 14.2 4.5 3.45 4.35 L0.0 4.45 Q8.2 -2.75 41.8 1.75 L42.75 1.85 M3.45 4.35 Q23.15 2.1 44.25 7.5 L45.65 7.95 Q46.7 8.4 47.15 8.8 L49.65 12.2" ffdec:has-small-stroke="true" ffdec:original-stroke-width="0.5" fill="none" stroke="#000000" stroke-linecap="round" stroke-linejoin="round" stroke-width="1.0"/>
      <path d="M51.4 9.45 L51.6 12.7 51.45 13.6 43.2 11.0 42.05 10.65 Q33.85 8.05 25.25 6.5 14.75 4.6 4.55 4.4 15.1 1.05 41.85 4.15 L42.8 4.25 43.05 4.3 45.05 4.5 45.65 4.65 46.25 4.75 Q49.0 5.8 50.3 7.5 L51.4 9.35 51.4 9.45" fill="#000000" fill-opacity="0.49803922" fill-rule="evenodd" stroke="none"/>
    </g>
  </defs>
</svg>
