<?xml version="1.0" encoding="UTF-8" standalone="no"?>
<svg xmlns:ffdec="https://www.free-decompiler.com/flash" xmlns:xlink="http://www.w3.org/1999/xlink" ffdec:objectType="frame" height="11.75px" width="59.35px" xmlns="http://www.w3.org/2000/svg">
  <g transform="matrix(1.0, 0.0, 0.0, 1.0, 0.25, 0.25)">
    <use ffdec:characterId="47" height="11.75" transform="matrix(1.0, 0.0, 0.0, 1.0, -0.25, -0.25)" width="59.35" xlink:href="#shape0"/>
  </g>
  <defs>
    <g id="shape0" transform="matrix(1.0, 0.0, 0.0, 1.0, 0.25, 0.25)">
      <path d="M46.05 2.4 L46.2 2.45 Q48.9 3.3 51.45 5.55 54.3 8.1 58.85 7.05 56.45 10.4 51.55 11.1 L49.0 11.25 Q45.05 11.3 39.75 9.95 32.65 7.85 25.25 6.5 14.2 4.5 3.45 4.35 L0.0 4.45 Q8.2 -2.75 41.8 1.75 L42.75 1.85 43.0 1.9 45.0 2.15 45.4 2.25 45.6 2.3 45.8 2.35 46.05 2.4 M55.85 8.4 L51.3 8.75 46.0 8.1 40.3 6.55 Q21.3 2.3 3.45 4.35 21.3 2.3 40.3 6.55 L46.0 8.1 51.3 8.75 55.85 8.4" fill="#dddddd" fill-rule="evenodd" stroke="none"/>
      <path d="M46.05 2.4 L46.2 2.45 Q48.9 3.3 51.45 5.55 54.3 8.1 58.85 7.05 56.45 10.4 51.55 11.1 L49.0 11.25 Q45.05 11.3 39.75 9.95 32.65 7.85 25.25 6.5 14.2 4.5 3.45 4.35 L0.0 4.45 Q8.2 -2.75 41.8 1.75 L42.75 1.85 M43.0 1.9 L45.0 2.15 45.4 2.25 45.6 2.3 45.8 2.35 46.05 2.4 M3.45 4.35 Q21.3 2.3 40.3 6.55 L46.0 8.1 51.3 8.75 55.85 8.4" ffdec:has-small-stroke="true" ffdec:original-stroke-width="0.5" fill="none" stroke="#000000" stroke-linecap="round" stroke-linejoin="round" stroke-width="1.0"/>
      <path d="M51.55 10.95 L51.05 11.05 Q46.55 11.95 43.2 11.0 L42.05 10.65 Q33.85 8.05 25.25 6.5 14.75 4.6 4.55 4.4 15.1 1.05 41.85 4.15 L42.8 4.25 43.05 4.3 45.05 4.5 45.35 4.55 45.65 4.65 45.7 4.65 46.25 4.75 47.05 5.1 Q48.6 5.8 49.65 6.75 54.25 9.35 57.5 7.85 57.5 9.5 51.55 10.8 L51.55 10.95" fill="#000000" fill-opacity="0.49803922" fill-rule="evenodd" stroke="none"/>
    </g>
  </defs>
</svg>
