<?xml version="1.0" encoding="UTF-8" standalone="no"?>
<svg xmlns:ffdec="https://www.free-decompiler.com/flash" xmlns:xlink="http://www.w3.org/1999/xlink" ffdec:objectType="frame" height="20.2px" width="51.4px" xmlns="http://www.w3.org/2000/svg">
  <g transform="matrix(1.0, 0.0, 0.0, 1.0, 0.0, 0.25)">
    <use ffdec:characterId="99" height="20.2" transform="matrix(1.0, 0.0, 0.0, 1.0, 0.0, -0.25)" width="51.4" xlink:href="#shape0"/>
  </g>
  <defs>
    <g id="shape0" transform="matrix(1.0, 0.0, 0.0, 1.0, 0.0, 0.25)">
      <path d="M0.25 0.05 Q11.3 -0.8 41.25 13.55 L41.45 13.75 42.5 15.05 45.15 16.1 47.7 17.0 49.5 17.75 50.15 18.15 46.1 17.85 45.05 17.75 43.85 17.65 43.35 17.6 40.95 16.85 Q21.9 7.5 3.6 1.3 21.9 7.5 40.95 16.85 L43.35 17.6 43.85 17.65 45.05 17.75 46.1 17.85 50.15 18.15 50.25 18.25 51.15 19.2 48.8 19.4 47.85 19.45 45.45 19.55 41.85 19.7 38.45 19.55 34.6 17.55 26.15 13.15 Q20.25 10.2 11.5 5.3 8.7 3.7 3.55 1.45 L3.6 1.3 0.25 0.15 0.25 0.05" fill="#dddddd" fill-rule="evenodd" stroke="none"/>
      <path d="M50.15 18.15 L49.5 17.75 47.7 17.0 45.15 16.1 42.5 15.05 41.45 13.75 41.25 13.55 Q11.3 -0.8 0.25 0.05 M0.25 0.15 L3.6 1.3 Q21.9 7.5 40.95 16.85 L43.35 17.6 43.85 17.65 45.05 17.75 46.1 17.85 50.15 18.15 50.25 18.25 51.15 19.2 48.8 19.4 47.85 19.45 45.45 19.55 41.85 19.7 38.45 19.55 34.6 17.55 26.15 13.15 Q20.25 10.2 11.5 5.3 8.7 3.7 3.55 1.45 L0.25 0.15 Z" ffdec:has-small-stroke="true" ffdec:original-stroke-width="0.5" fill="none" stroke="#000000" stroke-linecap="round" stroke-linejoin="round" stroke-width="1.0"/>
      <path d="M49.75 18.25 L49.8 18.15 50.15 18.15 50.25 18.25 50.5 18.45 49.75 18.25 M40.5 16.65 L41.85 17.15 40.95 16.85 40.5 16.65" fill="#dddddd" fill-rule="evenodd" stroke="none"/>
      <path d="M42.6 16.15 L50.6 19.15 51.1 19.2 48.8 19.4 47.85 19.45 45.45 19.55 41.85 19.7 38.45 19.55 34.6 17.55 26.15 13.15 25.45 12.8 12.6 5.95 11.5 5.3 Q10.3 4.6 8.7 3.85 L7.3 3.15 6.3 2.7 4.3 1.8 3.55 1.45 3.6 1.3 1.45 0.55 0.65 0.2 Q8.65 1.6 19.75 6.2 L20.25 6.4 Q34.8 13.05 42.1 15.95 L42.6 16.15 M40.5 16.65 L40.95 16.85 41.85 17.15 40.5 16.65" fill="#000000" fill-opacity="0.49803922" fill-rule="evenodd" stroke="none"/>
      <path d="M49.75 18.25 L50.5 18.45" ffdec:has-small-stroke="true" ffdec:original-stroke-width="0.1" fill="none" stroke="#000000" stroke-linecap="round" stroke-linejoin="round" stroke-width="1.0"/>
    </g>
  </defs>
</svg>
