<?xml version="1.0" encoding="UTF-8" standalone="no"?>
<svg xmlns:ffdec="https://www.free-decompiler.com/flash" xmlns:xlink="http://www.w3.org/1999/xlink" ffdec:objectType="frame" height="20.6px" width="22.1px" xmlns="http://www.w3.org/2000/svg">
  <g transform="matrix(1.0, 0.0, 0.0, 1.0, 0.25, 0.25)">
    <use ffdec:characterId="29" height="20.6" transform="matrix(1.0, 0.0, 0.0, 1.0, -0.25, -0.25)" width="22.1" xlink:href="#shape0"/>
  </g>
  <defs>
    <g id="shape0" transform="matrix(1.0, 0.0, 0.0, 1.0, 0.25, 0.25)">
      <path d="M20.45 16.6 Q21.15 17.9 21.15 18.5 19.5 20.1 18.85 20.1 L18.1 19.55 17.35 18.75 18.1 17.55 19.0 18.6 20.05 17.25 20.45 16.6 20.05 17.25 19.0 18.6 18.1 17.55 Q16.4 15.7 13.7 13.8 10.55 11.55 7.65 10.3 L7.6 10.25 Q3.6 8.25 0.0 7.7 L0.25 6.5 0.25 6.45 0.4 6.5 0.25 6.2 0.4 5.8 0.65 5.1 1.15 3.55 1.3 3.05 Q1.45 2.6 2.3 1.7 L2.65 1.3 4.2 0.0 Q4.7 0.0 5.55 1.6 L5.8 2.05 6.65 3.45 Q8.1 2.25 11.95 2.25 12.5 2.25 13.65 4.15 L14.5 5.55 18.55 9.95 21.35 13.75 21.6 15.35 Q21.0 15.75 20.45 16.6 M7.0 3.9 L6.65 3.45 7.0 3.9" fill="#000000" fill-rule="evenodd" stroke="none"/>
      <path d="M17.35 18.75 L18.1 19.55 18.85 20.1 Q19.5 20.1 21.15 18.5 21.15 17.9 20.45 16.6 L20.05 17.25 19.0 18.6 18.1 17.55 Q16.4 15.7 13.7 13.8 10.55 11.55 7.65 10.3 M20.45 16.6 Q21.0 15.75 21.6 15.35 L21.35 13.75 18.55 9.95 14.5 5.55 13.65 4.15 Q12.5 2.25 11.95 2.25 8.1 2.25 6.65 3.45 L7.0 3.9 M6.65 3.45 L5.8 2.05 5.55 1.6 Q4.7 0.0 4.2 0.0 L2.65 1.3 2.3 1.7 Q1.45 2.6 1.3 3.05 L1.15 3.55 0.65 5.1 0.4 5.8 0.25 6.2 0.25 6.45 0.25 6.5 0.0 7.7 Q3.6 8.25 7.6 10.25 M0.4 6.5 L0.25 6.45" ffdec:has-small-stroke="true" ffdec:original-stroke-width="0.5" fill="none" stroke="#000000" stroke-linecap="round" stroke-linejoin="round" stroke-width="1.0"/>
      <path d="M0.7 5.35 Q0.7 4.4 1.25 3.25 L2.0 3.1 2.3 3.0 2.8 3.05 3.6 3.6 Q4.0 4.15 4.0 4.7 L3.7 5.85 3.4 6.4 2.9 6.6 1.7 6.35 Q0.7 6.0 0.7 5.35 M13.85 9.55 L12.25 9.9 Q9.8 9.9 7.9 8.8 6.75 8.2 6.25 7.45 L6.7 6.5 7.25 6.0 Q7.8 5.6 8.05 5.5 9.05 4.95 10.25 4.95 L10.95 5.0 Q11.95 5.0 12.95 5.75 14.15 6.65 14.15 7.95 L13.85 9.55" fill="#ffffff" fill-rule="evenodd" stroke="none"/>
    </g>
  </defs>
</svg>
