<?xml version="1.0" encoding="UTF-8" standalone="no"?>
<svg xmlns:ffdec="https://www.free-decompiler.com/flash" xmlns:xlink="http://www.w3.org/1999/xlink" ffdec:objectType="frame" height="15.6px" width="23.35px" xmlns="http://www.w3.org/2000/svg">
  <g transform="matrix(1.0, 0.0, 0.0, 1.0, 0.25, 0.2)">
    <use ffdec:characterId="97" height="15.6" transform="matrix(1.0, 0.0, 0.0, 1.0, -0.25, -0.2)" width="23.35" xlink:href="#shape0"/>
  </g>
  <defs>
    <g id="shape0" transform="matrix(1.0, 0.0, 0.0, 1.0, 0.25, 0.2)">
      <path d="M21.05 11.45 L21.1 11.8 Q21.0 14.0 20.35 14.45 21.0 14.0 21.1 11.8 L21.45 11.8 22.5 12.45 22.85 12.8 22.3 14.3 21.95 15.0 21.35 15.15 20.75 15.0 20.35 14.45 20.0 14.55 19.75 14.5 Q17.95 12.65 13.35 10.45 10.1 8.85 7.4 8.1 L7.1 7.9 Q4.35 7.3 2.55 6.15 0.2 4.6 0.1 2.5 L0.3 2.25 0.3 2.0 0.05 1.45 0.0 0.85 0.0 0.65 0.6 0.7 6.1 0.1 10.95 0.05 12.35 2.6 13.3 4.25 17.5 7.6 Q19.75 9.65 21.05 11.45 M11.0 5.8 L10.45 4.1 9.45 2.25 5.2 1.75 3.0 1.85 11.0 5.8" fill="#000000" fill-rule="evenodd" stroke="none"/>
      <path d="M11.0 5.8 L3.0 1.85 5.2 1.75 9.45 2.25 10.45 4.1 11.0 5.8" fill="#ffffff" fill-rule="evenodd" stroke="none"/>
      <path d="M21.05 11.45 Q19.75 9.65 17.5 7.6 L13.3 4.25 12.35 2.6 10.95 0.05 6.1 0.1 0.6 0.7 0.0 0.65 0.0 0.85 0.05 1.45 0.3 2.0 0.3 2.25 0.1 2.5 Q0.2 4.6 2.55 6.15 4.35 7.3 7.1 7.9 M7.4 8.1 Q10.1 8.85 13.35 10.45 17.95 12.65 19.75 14.5 L20.0 14.55 20.35 14.45 Q21.0 14.0 21.1 11.8 M21.45 11.8 L22.5 12.45 22.85 12.8 22.3 14.3 21.95 15.0 21.35 15.15 20.75 15.0 20.35 14.45 M11.0 5.8 L3.0 1.85 5.2 1.75 9.45 2.25 10.45 4.1 11.0 5.8 Z" ffdec:has-small-stroke="true" ffdec:original-stroke-width="0.5" fill="none" stroke="#000000" stroke-linecap="round" stroke-linejoin="round" stroke-width="1.0"/>
    </g>
  </defs>
</svg>
