<?xml version="1.0" encoding="UTF-8" standalone="no"?>
<svg xmlns:ffdec="https://www.free-decompiler.com/flash" xmlns:xlink="http://www.w3.org/1999/xlink" ffdec:objectType="frame" height="19.4px" width="22.25px" xmlns="http://www.w3.org/2000/svg">
  <g transform="matrix(1.0, 0.0, 0.0, 1.0, 0.4, -0.95)">
    <use ffdec:characterId="49" height="19.4" transform="matrix(1.0, 0.0, 0.0, 1.0, -0.4, 0.95)" width="22.25" xlink:href="#shape0"/>
  </g>
  <defs>
    <g id="shape0" transform="matrix(1.0, 0.0, 0.0, 1.0, 0.4, -0.95)">
      <path d="M21.2 13.5 L21.35 13.75 21.6 15.35 Q21.0 15.75 20.45 16.6 21.15 17.9 21.15 18.5 19.5 20.1 18.85 20.1 L18.1 19.55 17.35 18.75 18.1 17.55 18.7 18.2 18.9 18.0 Q17.4 15.05 14.95 12.5 L9.8 11.35 Q3.45 6.6 -0.15 7.5 L1.2 3.2 Q1.5 1.75 3.15 1.2 3.9 3.45 5.2 4.5 9.2 3.55 14.1 3.4 17.0 8.7 21.2 13.5 M18.7 18.2 L19.0 18.6 20.05 17.25 20.45 16.6 20.05 17.25 19.0 18.6 18.7 18.2" fill="#000000" fill-rule="evenodd" stroke="none"/>
      <path d="M21.35 13.75 L21.6 15.35 Q21.0 15.75 20.45 16.6 21.15 17.9 21.15 18.5 19.5 20.1 18.85 20.1 L18.1 19.55 17.35 18.75 M18.1 17.55 L18.7 18.2 19.0 18.6 20.05 17.25 20.45 16.6 M18.9 18.0 Q17.4 15.05 14.95 12.5 L9.8 11.35 Q3.45 6.6 -0.15 7.5 L1.2 3.2 Q1.5 1.75 3.15 1.2 3.9 3.45 5.2 4.5 9.2 3.55 14.1 3.4 17.0 8.7 21.2 13.5" ffdec:has-small-stroke="true" ffdec:original-stroke-width="0.5" fill="none" stroke="#000000" stroke-linecap="round" stroke-linejoin="round" stroke-width="1.0"/>
      <path d="M15.85 8.9 Q10.1 5.95 5.8 7.2 L6.65 6.75 Q10.85 5.7 15.6 8.7 L15.85 8.9 M7.75 5.85 L8.0 6.0 7.8 5.9 6.5 6.35 Q6.75 6.0 7.15 6.0 L7.75 5.85 M0.95 4.5 Q2.4 5.1 2.9 6.25 L2.75 6.3 Q1.15 4.45 0.55 4.7 L0.95 4.5 M2.2 6.1 L2.65 6.45 2.7 6.55 2.1 6.3 Q1.9 6.1 1.55 6.05 L1.45 5.9 1.75 5.9 2.2 6.1 M3.05 5.55 L2.8 5.2 2.9 5.15 3.05 5.55 M8.25 7.8 L6.95 7.55 6.85 7.5 6.45 7.5 6.4 7.4 Q6.5 7.2 6.8 7.2 L7.1 7.25 8.25 7.65 8.25 7.8" fill="#ffffff" fill-rule="evenodd" stroke="none"/>
    </g>
  </defs>
</svg>
