<?xml version="1.0" encoding="UTF-8" standalone="no"?>
<svg xmlns:ffdec="https://www.free-decompiler.com/flash" xmlns:xlink="http://www.w3.org/1999/xlink" ffdec:objectType="frame" height="12.5px" width="25.65px" xmlns="http://www.w3.org/2000/svg">
  <g transform="matrix(1.0, 0.0, 0.0, 1.0, 1.5, -4.15)">
    <use ffdec:characterId="41" height="12.5" transform="matrix(1.0, 0.0, 0.0, 1.0, -1.5, 4.15)" width="25.65" xlink:href="#shape0"/>
  </g>
  <defs>
    <g id="shape0" transform="matrix(1.0, 0.0, 0.0, 1.0, 1.5, -4.15)">
      <path d="M22.25 12.0 L22.75 11.0 Q23.9 11.4 23.9 11.6 L23.4 12.35 22.35 13.55 21.45 15.6 20.8 15.75 20.15 15.9 Q19.8 15.9 18.95 16.25 L18.65 16.4 18.35 16.4 17.85 16.35 15.55 15.8 13.45 15.0 13.1 14.8 12.85 14.8 12.3 14.65 Q11.25 14.45 11.25 13.95 11.25 13.1 9.15 12.2 7.3 11.4 6.4 11.4 L5.7 11.55 5.0 11.7 4.9 11.8 4.75 11.85 4.65 11.95 4.5 12.0 3.75 12.3 3.7 12.35 3.45 12.5 2.95 12.5 1.45 12.1 -0.1 11.35 -0.25 11.2 -0.4 11.1 -0.8 10.8 -1.25 10.25 -0.75 8.0 -1.05 7.0 Q-0.9 6.1 -0.65 6.1 L3.3 6.0 3.75 5.5 Q4.65 4.4 5.0 4.4 L5.8 4.6 7.55 6.55 9.45 8.3 9.7 8.5 10.3 8.5 Q12.65 8.4 13.65 7.75 14.9 7.0 15.05 7.0 15.55 7.0 18.25 9.55 20.45 11.65 21.5 12.1 L21.9 12.05 22.0 12.05 22.25 12.0 22.75 11.9 22.25 12.0 M0.35 7.2 Q2.25 6.85 3.3 6.0 2.25 6.85 0.35 7.2" fill="#000000" fill-rule="evenodd" stroke="none"/>
      <path d="M22.75 11.0 Q23.9 11.4 23.9 11.6 L23.4 12.35 22.35 13.55 21.45 15.6 20.8 15.75 20.15 15.9 Q19.8 15.9 18.95 16.25 L18.65 16.4 18.35 16.4 17.85 16.35 15.55 15.8 13.45 15.0 13.1 14.8 12.85 14.8 12.3 14.65 Q11.25 14.45 11.25 13.95 11.25 13.1 9.15 12.2 7.3 11.4 6.4 11.4 L5.7 11.55 5.0 11.7 4.9 11.8 4.75 11.85 4.65 11.95 4.5 12.0 3.75 12.3 3.7 12.35 3.45 12.5 2.95 12.5 1.45 12.1 -0.1 11.35 -0.25 11.2 -0.4 11.1 -0.8 10.8 -1.25 10.25 -0.75 8.0 -1.05 7.0 Q-0.9 6.1 -0.65 6.1 L3.3 6.0 3.75 5.5 Q4.65 4.4 5.0 4.4 L5.8 4.6 7.55 6.55 9.45 8.3 9.7 8.5 10.3 8.5 Q12.65 8.4 13.65 7.75 14.9 7.0 15.05 7.0 15.55 7.0 18.25 9.55 20.45 11.65 21.5 12.1 L21.9 12.05 22.0 12.05 22.25 12.0 22.75 11.9 M3.3 6.0 Q2.25 6.85 0.35 7.2" ffdec:has-small-stroke="true" ffdec:original-stroke-width="0.5" fill="none" stroke="#000000" stroke-linecap="round" stroke-linejoin="round" stroke-width="1.0"/>
      <path d="M12.0 12.0 L12.4 12.05 12.4 12.1 11.4 12.15 11.4 12.05 12.0 12.0 M11.85 10.0 L11.75 10.15 11.5 10.3 Q11.35 10.3 11.05 10.55 L10.75 10.95 10.6 10.9 10.6 10.75 11.2 10.25 11.85 10.0 M8.1 9.0 L8.4 9.4 8.5 10.0 8.45 10.1 8.3 10.1 8.3 9.7 8.15 9.3 8.05 9.15 8.1 9.0 M7.1 10.4 L7.4 10.65 7.35 10.75 Q6.95 10.3 6.8 10.35 L6.8 10.3 7.1 10.4 M1.15 8.3 Q6.3 6.35 8.25 10.6 5.75 7.1 1.15 8.3 M10.45 11.5 Q15.8 8.5 20.6 13.45 15.95 9.55 10.45 11.5" fill="#ffffff" fill-rule="evenodd" stroke="none"/>
    </g>
  </defs>
</svg>
